<?xml version="1.0" encoding="utf-8"?>
<!-- Generator: Adobe Illustrator 16.0.0, SVG Export Plug-In . SVG Version: 6.00 Build 0)  -->
<!DOCTYPE svg PUBLIC "-//W3C//DTD SVG 1.1//EN" "http://www.w3.org/Graphics/SVG/1.1/DTD/svg11.dtd">
<svg version="1.1" xmlns="http://www.w3.org/2000/svg" xmlns:xlink="http://www.w3.org/1999/xlink" x="0px" y="0px" width="393px"
	 height="170px" viewBox="0 0 393 170" enable-background="new 0 0 393 170" xml:space="preserve">
<g id="grid" display="none">
</g>
<g id="Layer_1">
	<g>
		<g>
			<path fill="#11809F" d="M187.105,18.296c1.236-0.276,2.444-0.415,3.626-0.415c5.719,0,9.4,2.971,11.043,8.912
				c0.849,3.082,1.227,6.624,1.135,10.628l-0.222,9.493l-7.168,0.443l-0.056-1.301c-9.005-0.313-13.7-2.528-14.088-6.643
				c-0.055-0.59-0.083-1.024-0.083-1.301c0-3.358,1.347-5.461,4.041-6.311c1.347-0.424,2.685-0.636,4.014-0.636
				c1.771,0,3.579,0.36,5.424,1.079c-0.019-3.173-0.055-4.853-0.11-5.037c-0.369-1.273-1.596-1.993-3.681-2.159
				c-1.771-0.147-3.47,1.329-5.093,4.428l-7.085-1.107C180.721,22.467,183.489,19.109,187.105,18.296z M191.7,36.093
				c-1.938,0-2.953,0.508-3.045,1.522c-0.147,1.476,2.029,2.675,6.532,3.598l-0.194-4.788
				C193.701,36.204,192.604,36.093,191.7,36.093z"/>
			<path fill="#11809F" d="M211.445,12.429l2.436,33.627l-7.528,0.885l-1.328-34.513H211.445z"/>
			<path fill="#11809F" d="M89.792,80.119l6.338-1.356c-0.313-5.425-0.156-8.866,0.471-10.324c1.384-3.21,3.487-4.815,6.311-4.815
				c2.805,0,5.757,1.393,8.856,4.179l-4.871,3.902c-1.236-1.07-2.27-1.605-3.1-1.605c-1.79,0-2.639,2.528-2.546,7.583l6.089-1.301
				l1.328,5.287l-6.311,1.633l3.432,14.945l-7.307,2.629l-1.882-16.08l-5.479,1.411L89.792,80.119z"/>
			<path fill="#11809F" d="M115.323,97.527c0.055-11.226-0.231-20.193-0.858-26.902l7.75-0.636l-0.25,2.519
				c3.802-2.362,7.676-3.478,11.625-3.349l0.747,6.698c-4.539,0-7.731,0.94-9.576,2.82c-1.273,1.309-1.91,4.634-1.91,9.978
				c0,2.433,0.129,5.298,0.388,8.597L115.323,97.527z"/>
			<path fill="#11809F" d="M144.229,85.405c0.831,2.787,2.593,4.244,5.287,4.373c2.509,0.129,4.206-1.19,5.092-3.958l7.75-1.107
				c-1.975,8.101-5.896,12.15-11.763,12.15c-1.809,0-3.829-0.415-6.062-1.246c-4.133-2.361-6.199-6.9-6.199-13.617
				c0-0.572,0.018-1.208,0.056-1.91c0.405-7.768,4.188-12.279,11.346-13.534c6.789-0.147,10.699,4.572,11.733,14.159L144.229,85.405
				z M146.347,75.538c-1.024,1.209-1.583,2.671-1.675,4.387l10.379-2.961c-1.2-2.159-2.694-3.238-4.483-3.238
				C148.777,73.726,147.37,74.33,146.347,75.538z"/>
			<path fill="#11809F" d="M163.255,95.064l3.266-7.417c4.17,2.712,7.399,4.068,9.688,4.068c0.812,0,1.596-0.24,2.353-0.72
				c0.849-0.535,1.272-1.19,1.272-1.965c0-1.163-1.55-2.14-4.649-2.934c-4.483-1.144-7.5-3.497-9.05-7.058
				c-0.518-1.181-0.775-2.27-0.775-3.266c0-2.122,1.089-3.976,3.266-5.563c1.863-1.365,4.641-2.048,8.331-2.048
				c2.602,0,5.664,0.341,9.188,1.024l-2.353,7.085c-2.676-1.199-4.843-1.799-6.504-1.799c-0.812,0-1.577,0.176-2.297,0.526
				c-0.886,0.425-1.329,0.998-1.329,1.718c0,0.665,0.591,1.376,1.771,2.134c0.812,0.517,2.398,1.237,4.761,2.161
				c1.992,0.776,3.432,1.552,4.317,2.328c1.291,1.127,1.975,2.642,2.048,4.544c0.129,3.123-1.328,5.958-4.373,8.507
				c-1.291,1.09-3.183,1.635-5.673,1.635C173.173,98.026,168.753,97.039,163.255,95.064z"/>
			<path fill="#11809F" d="M190.17,83.163c0.036-5.978,1.577-10.092,4.622-12.344c1.55-1.144,3.32-1.716,5.313-1.716
				c1.734,0,3.626,0.443,5.674,1.329v-1.188l8.441-0.141c-0.83,12.43-1.209,20.492-1.135,24.185
				c0.056,2.992,0.747,4.488,2.076,4.488c0.202,0,0.415-0.027,0.636-0.083l-0.027,7.722c-1.07,0.239-2.058,0.36-2.961,0.36
				c-5.167,0-7.723-3.774-7.667-11.32c-1.624,0.664-3.174,0.996-4.649,0.996c-1.975,0-3.838-0.599-5.591-1.799
				C191.729,91.476,190.151,87.979,190.17,83.163z M205.696,77.711c-1.716-1.365-3.155-2.048-4.317-2.048
				c-0.775,0-1.431,0.332-1.965,0.996c-0.997,1.236-1.495,2.925-1.495,5.065c0,0.627,0.046,1.31,0.139,2.048
				c0.388,3.119,1.476,4.705,3.266,4.761c1.771,0.037,3.183-0.803,4.234-2.519L205.696,77.711z"/>
			<path fill="#11809F" d="M232.638,96.559l-0.304-2.712c-3.008,2.03-5.48,3.044-7.418,3.044c-1.9,0-3.275-0.997-4.124-2.989
				c-1.697-3.985-2.473-13.026-2.324-27.124l6.643-0.249c-0.13,3.321-0.194,6.246-0.194,8.774c0,9.226,0.895,13.838,2.685,13.838
				c1.015,0,2.325-1.329,3.931-3.986V67.277h6.421l-0.886,28.95L232.638,96.559z"/>
			<path fill="#11809F" d="M245.465,65.395c0.405,0,0.774,0.056,1.106,0.166c1.55,0.517,2.564,1.477,3.045,2.878
				c0.147,0.425,0.222,0.849,0.222,1.273c0,0.941-0.379,1.873-1.135,2.795c-1.089,1.328-2.344,1.928-3.765,1.799
				c-1.421-0.129-2.573-0.895-3.459-2.297c-0.406-0.646-0.609-1.301-0.609-1.965c0-0.849,0.295-1.744,0.886-2.685
				C243.011,66.05,244.247,65.395,245.465,65.395z M249.672,77.185c-0.296,6.846-0.665,13.636-1.107,20.37l-7.085,0.664
				c0.258-2.878,0.387-5.802,0.387-8.773c0-3.69-0.203-7.436-0.608-11.237L249.672,77.185z"/>
			<path fill="#11809F" d="M251.15,81.419l-0.222-6.891l4.649-0.416l0.222-11.32l6.809-0.443l-0.664,11.209l6.393-0.582l0.443,6.892
				l-7.141,0.637c-0.019,0.775-0.027,1.513-0.027,2.214c0,6.44,0.839,9.77,2.519,9.992c1.845,0.24,3.183-1.172,4.013-4.235
				l4.871,0.665c-0.332,4.428-1.614,7.214-3.847,8.358c-1.587,0.812-3.47,1.218-5.646,1.218c-0.904,0-1.826-0.065-2.768-0.194
				c-3.377-0.461-5.13-6.292-5.259-17.492L251.15,81.419z"/>
			<path fill="#11809F" d="M276.071,85.294c0.129-4.207,1.172-7.823,3.128-10.85c2.324-3.616,5.434-5.424,9.327-5.424
				c4.114,0,7.085,1.015,8.911,3.044c1.495,1.661,2.666,4.631,3.516,8.912c0.332,1.679,0.498,3.266,0.498,4.761
				c0,3.21-0.794,5.886-2.38,8.026c-2.325,3.137-5.858,4.631-10.601,4.483c-4.354-0.129-7.547-1.236-9.576-3.321
				C276.864,92.841,275.924,89.63,276.071,85.294z M292.346,78.652c-1.292-1.218-2.51-1.827-3.653-1.827
				c-1.402,0-2.694,0.923-3.875,2.768c-1.052,1.643-1.578,3.238-1.578,4.788c0,1.458,0.48,2.953,1.439,4.484
				c1.07,1.716,2.307,2.574,3.709,2.574c1.605,0,3.072-0.839,4.4-2.519c1.273-1.586,1.91-3.201,1.91-4.843
				C294.698,82.305,293.913,80.497,292.346,78.652z"/>
		</g>
		<g>
			<path fill="#11809F" d="M132.742,142.741c0.393,0.182,0.59,0.635,0.59,1.361c0,0.152-0.008,0.295-0.022,0.431
				c-0.016,0.136-0.038,0.295-0.068,0.477c-0.121,0.696-0.25,1.226-0.386,1.588c-0.136,0.363-0.325,0.621-0.567,0.771
				c-0.394,0.394-1.074,0.726-2.042,0.999c-0.727,0.182-1.392,0.287-1.997,0.318h-0.182c-0.515,0-1.149-0.045-1.905-0.136
				c-0.757-0.091-1.438-0.318-2.043-0.681c-0.574-0.333-0.998-0.688-1.271-1.066s-0.515-0.779-0.726-1.203l-0.091-0.181
				c-0.243-0.302-0.432-0.726-0.567-1.271c-0.137-0.544-0.234-1.195-0.295-1.951c-0.03-0.726-0.068-1.482-0.113-2.269
				c-0.046-0.787-0.099-1.452-0.159-1.997c-0.061-0.604-0.099-1.24-0.113-1.906c-0.016-0.665-0.022-1.391-0.022-2.178
				c0-1.604,0.091-2.979,0.271-4.13c0.303-2.148,0.893-3.66,1.771-4.538c0.907-0.908,2.193-1.361,3.857-1.361h0.408
				c0.151,0,0.302,0.016,0.454,0.045c2.45,0.212,3.993,1.619,4.629,4.22c0.15,0.666,0.295,1.536,0.431,2.609
				c0.137,1.074,0.265,2.458,0.386,4.152l-0.045,0.136c-0.272,0.545-0.802,0.817-1.589,0.817c-0.333-0.03-0.635-0.06-0.907-0.091
				c-0.272-0.03-0.515-0.06-0.727-0.091l-0.362-0.045h-0.771c-0.272,0-0.591,0.031-0.953,0.091
				c-0.484,0.031-0.862,0.045-1.135,0.045h-0.59c-0.545,0-1.074,0.016-1.589,0.045c-0.515,0.031-0.938,0.076-1.271,0.136
				c-0.03,0.515-0.045,0.983-0.045,1.407v1.135c0,0.333-0.008,0.696-0.023,1.089c-0.016,0.394-0.022,0.787-0.022,1.18
				c0,0.696,0.038,1.369,0.113,2.02c0.075,0.651,0.234,1.264,0.477,1.838c0.363,0.544,0.832,0.969,1.407,1.271
				c0.574,0.303,1.271,0.53,2.088,0.681c0.695,0.152,1.285,0.227,1.77,0.227c0.514,0,0.982-0.083,1.406-0.25
				c0.424-0.166,0.741-0.461,0.953-0.885c0.151-0.272,0.228-0.551,0.228-0.839c0-0.287,0.029-0.537,0.091-0.749l0.045-0.182
				C131.789,143.134,132.197,142.771,132.742,142.741z M124.074,126.812c-0.515,0.726-0.862,1.468-1.044,2.224
				c-0.182,0.756-0.272,1.543-0.272,2.36c0,0.908,0.046,1.74,0.137,2.496h0.862c0.332,0,0.665,0.016,0.998,0.045h0.998
				c0.333,0,0.681,0.016,1.044,0.045h0.59c0.515,0,1.036-0.007,1.566-0.023c0.528-0.015,1.111-0.038,1.747-0.068
				c-0.031-1.059-0.062-1.936-0.091-2.632c-0.03-0.696-0.076-1.24-0.137-1.634c-0.061-0.877-0.189-1.603-0.386-2.178
				c-0.197-0.574-0.507-0.983-0.93-1.225c-0.334-0.182-0.651-0.302-0.953-0.363c-0.303-0.06-0.712-0.091-1.226-0.091h-0.363
				c-0.605,0.061-1.119,0.167-1.543,0.318S124.316,126.479,124.074,126.812z"/>
			<path fill="#11809F" d="M139.367,148.323h-1.498c-0.453-0.091-0.854-0.204-1.202-0.34c-0.349-0.136-0.521-0.326-0.521-0.569
				c0-0.152,0.06-0.356,0.181-0.614s0.318-0.387,0.591-0.387h0.499c0.12,0,0.241-0.015,0.363-0.045h0.271
				c0-0.242-0.016-0.5-0.045-0.773c0-0.394,0-0.758,0-1.091v-9.775c0-1.061,0.029-2.167,0.091-3.319
				c-0.062-0.879-0.121-1.743-0.182-2.592c-0.061-1-0.091-1.879-0.091-2.637h-1.18c-0.363-0.091-0.545-0.272-0.545-0.545
				c0-0.152,0.046-0.372,0.137-0.659c0.09-0.288,0.211-0.508,0.362-0.66l0.409-0.045h0.181l1.135-0.091
				c0.182,0,0.378,0.023,0.59,0.07s0.378,0.117,0.499,0.21l0.182,0.14c0.182,0.25,0.272,0.514,0.272,0.795
				c0,0.188-0.016,0.311-0.045,0.371v0.227c0.091-0.121,0.166-0.227,0.227-0.318c0.302-0.373,0.65-0.683,1.044-0.931
				c0.393-0.248,0.877-0.45,1.452-0.605c0.332-0.093,0.643-0.147,0.931-0.163c0.287-0.015,0.642-0.023,1.066-0.023
				c0.786,0,1.558,0.106,2.314,0.318c0.756,0.212,1.391,0.576,1.905,1.091c0.515,0.516,0.817,1.19,0.908,2.024
				s0.136,1.69,0.136,2.568v10.73c0.03,0.424,0.075,1.076,0.137,1.955c0.06,0.879,0.091,1.758,0.091,2.637v0.864l0.271-0.045
				c0.151,0,0.28,0.008,0.386,0.022c0.106,0.016,0.234,0.053,0.386,0.114c0.151,0.03,0.257,0.068,0.318,0.113
				c0.06,0.045,0.12,0.099,0.182,0.159c0.182,0.242,0.271,0.515,0.271,0.819c0,0.182-0.09,0.364-0.271,0.545
				c-0.152,0.181-0.349,0.272-0.59,0.272c-0.394,0-0.704,0.008-0.931,0.023c-0.228,0.016-0.416,0.022-0.567,0.022h-0.363
				c-0.272,0-0.484-0.121-0.635-0.363c-0.152-0.242-0.272-0.552-0.363-0.931c-0.091-0.378-0.145-0.801-0.159-1.271
				c-0.016-0.469-0.022-0.93-0.022-1.384v-4.629c0-0.968,0.015-1.951,0.045-2.95s0.046-1.981,0.046-2.95
				c0-0.787-0.016-1.55-0.046-2.292c-0.03-0.741-0.091-1.49-0.181-2.246c-0.152-1.301-0.484-2.193-0.999-2.678
				c-0.515-0.483-1.406-0.726-2.678-0.726c-0.424,0.061-0.862,0.182-1.315,0.363c-0.454,0.181-0.87,0.416-1.248,0.703
				c-0.379,0.288-0.703,0.613-0.976,0.976c-0.272,0.363-0.424,0.742-0.454,1.134c-0.061,0.454-0.113,0.878-0.159,1.271
				c-0.045,0.394-0.067,0.817-0.067,1.271c0,0.726,0.007,1.46,0.022,2.201c0.015,0.742,0.037,1.475,0.068,2.201
				c0.06,1.543,0.091,3.102,0.091,4.674v4.811c0,0.696-0.031,1.361-0.091,1.997c-0.062,0.635-0.258,0.953-0.591,0.953H139.367z"/>
			<path fill="#11809F" d="M181.754,117.917c0.06,0,0.136,0.008,0.227,0.023c0.091,0.016,0.166,0.022,0.227,0.022h0.228l0.59,0.318
				c0.06,0.272,0.083,0.499,0.067,0.681s-0.053,0.318-0.113,0.408c-0.091,0.122-0.182,0.212-0.272,0.272
				c-0.091,0.091-0.227,0.174-0.408,0.25c-0.182,0.076-0.394,0.144-0.635,0.205c-0.243,0.061-0.477,0.09-0.704,0.09
				c-0.227,0-0.431-0.03-0.612-0.09l-0.317-0.136c-0.121-0.03-0.212-0.091-0.272-0.182c-0.182-0.151-0.272-0.378-0.272-0.681
				c-0.242-0.968-0.703-1.709-1.384-2.224c-0.681-0.514-1.415-0.787-2.201-0.817c-0.787,0-1.43,0.159-1.929,0.475
				c-0.499,0.317-1.021,0.822-1.565,1.516c-0.334,0.512-0.538,1.183-0.613,2.013s-0.144,1.667-0.204,2.512
				c0,0.634-0.016,1.184-0.045,1.651c-0.031,0.468-0.046,1.033-0.046,1.697v0.453c0,0.121,0.007,0.287,0.022,0.498
				c0.016,0.211,0.03,0.499,0.046,0.86c0.015,0.362,0.037,0.829,0.068,1.402c0.029,0.453,0.045,0.875,0.045,1.267v0.996
				c0.545,0,1.104-0.007,1.679-0.023c0.575-0.015,1.301-0.038,2.179-0.068c1.301,0,2.103,0.201,2.405,0.604
				c0.091,0.094,0.136,0.217,0.136,0.372v0.186c0,0.372-0.181,0.604-0.544,0.697s-0.651,0.139-0.862,0.139
				c-0.484-0.03-0.893-0.045-1.226-0.045h-0.726c-0.636,0-1.196,0.016-1.68,0.045c-0.484,0.031-0.938,0.076-1.361,0.136
				c0,0.878,0.007,1.718,0.022,2.519c0.016,0.802,0.053,1.687,0.113,2.655c0.03,0.575,0.046,1.029,0.046,1.361v1.134
				c0,0.454-0.008,0.908-0.022,1.362c-0.016,0.454-0.023,0.923-0.023,1.407c0,0.181,0.008,0.363,0.023,0.544
				c0.015,0.182,0.037,0.379,0.067,0.59v0.636c0,0.242-0.016,0.469-0.045,0.681l0.862-0.091c0.151,0,0.279,0.008,0.386,0.022
				c0.105,0.016,0.234,0.053,0.386,0.114c0.151,0.03,0.257,0.068,0.317,0.113s0.121,0.099,0.182,0.159
				c0.182,0.243,0.272,0.515,0.272,0.817c0,0.182-0.091,0.363-0.272,0.544c-0.151,0.182-0.348,0.272-0.59,0.272
				c-0.394,0-0.703,0.007-0.931,0.023c-0.227,0.015-0.416,0.022-0.567,0.022h-0.362h-0.228l-0.182,0.045
				c-0.121,0-0.227-0.016-0.317-0.045c-0.121,0.03-0.242,0.045-0.363,0.045c-0.242,0.03-0.499,0.045-0.771,0.045h-0.998
				c-0.363-0.091-0.545-0.272-0.545-0.544c0-0.151,0.046-0.37,0.137-0.658c0.091-0.287,0.211-0.506,0.363-0.658l1.043-0.136v-0.409
				c0-0.242,0.016-0.461,0.046-0.658c0.029-0.196,0.075-0.567,0.136-1.112c0.091-1.028,0.137-2.087,0.137-3.177
				c0-0.877-0.023-1.686-0.068-2.428c-0.046-0.741-0.099-1.641-0.159-2.7c-0.03-0.635-0.053-1.209-0.067-1.725
				c-0.016-0.514-0.023-0.953-0.023-1.316v-1.679c0-0.877,0.008-1.8,0.023-2.768c0.015-0.968,0.022-1.875,0.022-2.723v-1.543
				c0-1.543,0.029-2.866,0.091-3.971c0.06-1.104,0.257-1.958,0.59-2.564c0.363-0.696,0.733-1.271,1.111-1.725
				c0.378-0.454,0.915-0.817,1.611-1.089c0.424-0.181,0.877-0.325,1.361-0.431c0.483-0.105,1.044-0.159,1.68-0.159
				c0.393,0.03,0.854,0.129,1.384,0.295c0.529,0.167,1.036,0.417,1.521,0.749c0.483,0.333,0.922,0.756,1.315,1.271
				c0.303,0.424,0.529,0.893,0.681,1.407L181.754,117.917z"/>
			<path fill="#11809F" d="M197.229,143.658l0.136,2.854c0,0.09,0.075,0.129,0.227,0.113c0.151-0.015,0.318-0.038,0.499-0.068
				c0.182-0.03,0.355-0.053,0.522-0.068c0.166-0.015,0.265,0.023,0.295,0.113c0.029,0.122,0.083,0.303,0.159,0.544
				c0.075,0.242,0.113,0.423,0.113,0.543c0,0.422-0.159,0.664-0.477,0.725c-0.317,0.06-0.991,0.091-2.02,0.091h-0.317
				c-0.363-0.091-0.545-0.272-0.545-0.544c0-0.151-0.016-0.484-0.046-0.999c0-0.242,0-0.5,0-0.771
				c-0.121,0.152-0.227,0.348-0.317,0.59c-0.182,0.484-0.438,0.862-0.771,1.135c-0.333,0.272-0.703,0.468-1.111,0.59
				c-0.409,0.121-0.817,0.196-1.226,0.227c-0.408,0.029-0.794,0.045-1.157,0.045h-0.454c-0.847-0.061-1.694-0.363-2.541-0.907
				c-0.848-0.545-1.482-1.165-1.906-1.861c-0.242-0.423-0.424-0.862-0.545-1.316c-0.121-0.454-0.181-0.908-0.181-1.362
				c0-0.665,0.075-1.338,0.225-2.019c0.15-0.681,0.392-1.323,0.723-1.929c0.331-0.605,0.746-1.149,1.243-1.634
				c0.496-0.484,1.105-0.847,1.829-1.089c0.662-0.242,1.46-0.423,2.393-0.544c0.934-0.121,1.747-0.257,2.439-0.409
				c0.301-0.06,0.481-0.166,0.542-0.317c0.061-0.151,0.091-0.348,0.091-0.59v-2.224c0-0.483-0.016-0.968-0.046-1.452
				c0-0.06-0.007-0.128-0.022-0.204c-0.016-0.075-0.022-0.143-0.022-0.204c-0.03-0.363-0.076-0.771-0.136-1.226
				c-0.06-0.454-0.15-0.885-0.271-1.293c-0.12-0.409-0.286-0.779-0.497-1.112c-0.211-0.333-0.496-0.574-0.857-0.726
				c-0.271-0.09-0.557-0.136-0.857-0.136c-0.602,0-1.219,0.151-1.851,0.454c-0.633,0.303-1.144,0.635-1.535,0.999l-0.18,0.181
				c-0.241,0.243-0.535,0.507-0.881,0.794c-0.346,0.288-0.64,0.431-0.88,0.431c-0.362,0-0.542-0.348-0.542-1.044
				c0-0.393,0.12-0.771,0.363-1.134c0.241-0.363,0.536-0.678,0.885-0.945c0.348-0.267,0.718-0.504,1.111-0.711
				s0.757-0.369,1.09-0.488c0.786-0.325,1.558-0.488,2.314-0.488c0.968,0,1.762,0.219,2.382,0.657
				c0.62,0.438,1.112,1.042,1.476,1.812s0.619,1.661,0.771,2.672c0.15,1.012,0.227,2.076,0.227,3.193
				c0,0.575-0.008,1.201-0.022,1.88c-0.016,0.679-0.022,1.344-0.022,1.993c0,0.65-0.008,1.253-0.023,1.812
				c-0.016,0.559-0.022,0.989-0.022,1.291c0,0.061,0.007,0.128,0.022,0.204c0.016,0.076,0.023,0.144,0.023,0.204
				c0.06,0.695,0.105,1.45,0.136,2.266C197.183,142.707,197.197,143.175,197.229,143.658z M193.337,146.644
				c0.541-0.211,1-0.567,1.375-1.066c0.376-0.499,0.564-1.021,0.564-1.565c0-0.151-0.008-0.423-0.022-0.817
				c-0.016-0.393-0.038-0.817-0.068-1.271c-0.03-0.454-0.053-0.892-0.067-1.316c-0.016-0.423-0.023-0.756-0.023-0.999
				c0-0.242-0.016-0.483-0.045-0.726c-0.03-0.242-0.046-0.469-0.046-0.681c0-0.182,0.016-0.302,0.046-0.363
				c-0.571,0-1.174,0.03-1.805,0.09c-0.632,0.061-1.241,0.182-1.827,0.363c-0.587,0.182-1.136,0.416-1.646,0.704
				c-0.512,0.288-0.948,0.658-1.309,1.112c-0.33,0.424-0.563,0.9-0.699,1.429c-0.136,0.53-0.203,1.082-0.203,1.657
				c0,0.333,0.045,0.703,0.136,1.112c0.09,0.408,0.286,0.749,0.586,1.021c0.602,0.515,1.136,0.893,1.603,1.134
				c0.466,0.243,1.015,0.363,1.646,0.363h1.083C192.735,146.825,192.976,146.765,193.337,146.644z"/>
			<path fill="#11809F" d="M204.356,146.372h0.404l-0.046-5.991c0-2.208-0.061-4.417-0.181-6.625
				c-0.031-0.605-0.062-1.226-0.091-1.861c0-0.423,0-0.847,0-1.271c-0.031-0.605-0.076-1.195-0.137-1.77
				c-0.061-0.999-0.091-1.875-0.091-2.632h-1.148c-0.354-0.091-0.53-0.272-0.53-0.545c0-0.151,0.045-0.37,0.136-0.658
				c0.091-0.287,0.212-0.506,0.363-0.658l0.408-0.045h0.182l1.135-0.091c0.182,0,0.378,0.023,0.59,0.068
				c0.211,0.045,0.378,0.113,0.499,0.204l0.182,0.136c0.182,0.242,0.272,0.499,0.272,0.771c0,0.181-0.016,0.303-0.046,0.363v0.045
				c0.182-0.182,0.362-0.333,0.544-0.454c0.452-0.454,0.911-0.794,1.38-1.021c0.467-0.227,1.033-0.341,1.696-0.341
				c0.935,0,1.682,0.205,2.239,0.613c0.559,0.409,1.063,1.006,1.517,1.792c0.454-0.907,1.121-1.504,2.001-1.792
				c0.88-0.287,1.805-0.431,2.775-0.431h0.228c0.546,0,1.038,0.114,1.479,0.34c0.439,0.227,0.834,0.522,1.184,0.885
				c0.349,0.363,0.621,0.779,0.818,1.248c0.197,0.469,0.325,0.96,0.387,1.475c0.061,0.787,0.113,1.559,0.159,2.314
				c0.045,0.757,0.067,1.528,0.067,2.314v1.089c0,0.333-0.016,0.681-0.045,1.043c-0.062,0.757-0.113,1.505-0.159,2.247
				c-0.045,0.742-0.068,1.491-0.068,2.247v0.726c0,0.242,0.016,0.484,0.046,0.726c0.029,0.787,0.053,1.565,0.068,2.337
				c0.015,0.771,0.052,1.551,0.113,2.337c0.029,0.242,0.075,0.515,0.136,0.817c0,0.03,0,0.061,0,0.091l0.545-0.045
				c0.151,0,0.279,0.007,0.386,0.022c0.105,0.016,0.233,0.053,0.386,0.113c0.151,0.031,0.257,0.068,0.317,0.114
				s0.121,0.099,0.182,0.159c0.182,0.243,0.272,0.515,0.272,0.817c0,0.182-0.091,0.363-0.272,0.544
				c-0.151,0.182-0.348,0.272-0.59,0.272c-0.394,0-0.703,0.007-0.931,0.022c-0.227,0.015-0.416,0.023-0.567,0.023h-0.362v-0.045
				c-0.122,0.06-0.258,0.091-0.409,0.091l-0.499-0.182c-0.182-0.151-0.288-0.37-0.317-0.658c-0.03-0.287-0.046-0.597-0.046-0.93
				v-14.068c0.061-0.242,0.091-0.483,0.091-0.726v-1.452c0-0.242-0.016-0.483-0.045-0.726c-0.062-0.786-0.168-1.482-0.32-2.087
				c-0.152-0.605-0.625-1.074-1.416-1.407c-0.427-0.182-0.839-0.272-1.234-0.272c-0.458,0-0.869,0.121-1.234,0.363
				c-0.519,0.212-0.923,0.47-1.212,0.771c-0.289,0.303-0.503,0.651-0.64,1.044c-0.138,0.394-0.221,0.81-0.252,1.248
				c-0.03,0.439-0.045,0.9-0.045,1.384v10.347c0,0.969,0,1.952,0,2.95c0.03,0.726,0.061,1.453,0.091,2.179l0.454-0.045
				c0.15,0,0.302-0.007,0.453-0.023c0.151-0.015,0.303,0.008,0.454,0.068c0.151,0.03,0.257,0.068,0.317,0.113
				s0.121,0.099,0.182,0.159c0.061,0.091,0.113,0.25,0.159,0.477c0.045,0.227,0.068,0.401,0.068,0.522
				c0,0.182-0.091,0.363-0.272,0.544c-0.152,0.182-0.349,0.272-0.59,0.272h-1.536c-0.178,0-0.312-0.016-0.399-0.045h-0.045
				c-0.06,0-0.147-0.03-0.266-0.091c-0.207-0.06-0.355-0.227-0.443-0.499c-0.09-0.272-0.148-0.484-0.178-0.635
				c-0.148-0.696-0.244-1.422-0.288-2.179c-0.045-0.756-0.067-1.527-0.067-2.314l0.137-9.122v-1.089
				c0-0.363-0.016-0.726-0.046-1.089c-0.03-0.786-0.091-1.573-0.182-2.36c-0.091-0.786-0.394-1.498-0.907-2.133
				c-0.242-0.272-0.575-0.477-0.998-0.613c-0.425-0.136-0.848-0.204-1.271-0.204c-0.605,0-1.104,0.106-1.497,0.317
				c-0.605,0.333-1.007,0.787-1.203,1.362s-0.295,1.18-0.295,1.815c0.03,0.999,0.053,1.869,0.068,2.609
				c0.015,0.742,0.022,1.46,0.022,2.156l-0.091,3.358c-0.03,1.12-0.045,2.239-0.045,3.358c0,0.727,0.015,1.453,0.045,2.179
				s0.075,1.468,0.137,2.224l0.091,0.635c0,0.091,0,0.182,0,0.272l0.499-0.045c0.302,0,0.529,0.061,0.681,0.182
				c0.241,0,0.438,0.076,0.59,0.227c0.182,0.243,0.272,0.515,0.272,0.817c0,0.182-0.091,0.363-0.272,0.544
				c-0.151,0.182-0.349,0.272-0.59,0.272c-0.394,0-0.703,0.007-0.931,0.023c-0.227,0.015-0.416,0.022-0.567,0.022h-0.362
				l-0.681,0.045c-0.182,0-0.447,0.007-0.795,0.022c-0.348,0.015-0.703,0.023-1.066,0.023h-0.317
				c-0.363-0.091-0.545-0.272-0.545-0.544c0-0.151,0.044-0.37,0.133-0.658c0.089-0.287,0.207-0.506,0.355-0.658L204.356,146.372z"/>
			<path fill="#11809F" d="M228.902,124.134h0.182l1.226-0.091c0.302,0,0.529,0.061,0.681,0.182c0.242,0,0.438,0.076,0.59,0.227
				c0.091,0.061,0.166,0.174,0.228,0.34c0.06,0.167,0.091,0.311,0.091,0.431c0,0.152-0.046,0.272-0.137,0.363
				c0,1.755,0,3.404,0,4.947v4.538c0,1.422,0.007,2.67,0.022,3.744c0.016,1.074,0.023,2.004,0.023,2.791c0,1.029,0,1.906,0,2.632
				c0.029,0.605,0.045,1.271,0.045,1.997c0.483-0.03,0.893-0.045,1.226-0.045h0.317c0.393,0.091,0.59,0.272,0.59,0.544
				c0,0.152-0.053,0.363-0.158,0.635c-0.106,0.272-0.235,0.484-0.386,0.635l-1.316,0.182c-0.182,0.03-0.363,0.045-0.545,0.045
				h-0.862h-0.045h-0.137h-0.045l-1.226,0.091c-0.303,0-0.529-0.061-0.681-0.182c-0.242,0-0.438-0.075-0.59-0.227
				c-0.061-0.091-0.121-0.219-0.182-0.386c-0.061-0.166-0.091-0.295-0.091-0.386c0-0.182,0.091-0.363,0.272-0.545
				c0.12-0.181,0.317-0.272,0.59-0.272h1.271v-15.475c0-1.028-0.016-1.906-0.045-2.632c0-0.635-0.016-1.376-0.046-2.224h-0.907
				h-0.317c-0.363-0.091-0.545-0.272-0.545-0.544c0-0.151,0.046-0.363,0.136-0.636c0.091-0.272,0.212-0.483,0.363-0.635
				L228.902,124.134z M231.263,120.776c-0.212,0-0.424,0.076-0.636,0.227c-0.212,0.152-0.394,0.227-0.544,0.227
				c-0.121,0-0.228-0.075-0.318-0.227c-0.091-0.151-0.151-0.438-0.181-0.862l-0.046-0.726c0-0.393,0.03-0.817,0.091-1.271
				s0.151-0.983,0.272-1.588l0.272-0.045c0.332,0,0.649,0.152,0.953,0.454c0.15,0.151,0.256,0.333,0.317,0.544
				c0.061,0.212,0.105,0.424,0.136,0.635c0,0.575-0.016,1.037-0.045,1.384c-0.03,0.348-0.062,0.688-0.091,1.021v0.227H231.263z"/>
			<path fill="#11809F" d="M237.889,111.201c0.332-0.03,0.544-0.06,0.635-0.091c0.091-0.03,0.166-0.045,0.228-0.045h0.895
				c0.207,0.031,0.428,0.076,0.665,0.136h0.044c0.236,0.061,0.413,0.152,0.532,0.272c0.059,0.09,0.104,0.227,0.133,0.408
				c0,0.061,0.015,0.152,0.046,0.272v0.136v0.136c0,3.056-0.016,5.734-0.046,8.033c0,2.36,0,4.402,0,6.126v12.071
				c0,0.727,0.03,1.468,0.091,2.224c0.12,1.604,0.295,2.784,0.521,3.54c0.228,0.757,0.537,1.377,0.931,1.861
				c0.363,0.394,0.847,0.711,1.452,0.953l0.771,0.999l-0.227,0.635c-0.182,0.211-0.408,0.318-0.681,0.318
				c-0.152,0-0.349-0.031-0.59-0.091l-1.09-0.544c-0.333-0.182-0.627-0.416-0.883-0.704c-0.255-0.287-0.545-0.627-0.869-1.021
				c-0.62-0.817-0.974-2.163-1.062-4.039c-0.03-0.908-0.053-1.709-0.068-2.405c-0.016-0.695-0.022-1.3-0.022-1.815v-8.804
				c0-1.845-0.008-3.501-0.022-4.969c-0.016-1.467-0.038-2.791-0.068-3.971v-1.861c0-0.726-0.008-1.475-0.022-2.247
				c-0.016-0.771-0.038-1.504-0.068-2.201c0-0.545,0-1.028,0-1.452h-0.862h-0.317c-0.363-0.091-0.545-0.272-0.545-0.545
				c0-0.151,0.046-0.37,0.137-0.658S237.736,111.353,237.889,111.201z"/>
			<path fill="#11809F" d="M248.733,124.134h0.182l1.226-0.091c0.302,0,0.529,0.061,0.681,0.182c0.242,0,0.438,0.076,0.59,0.227
				c0.091,0.061,0.166,0.174,0.228,0.34c0.06,0.167,0.091,0.311,0.091,0.431c0,0.152-0.046,0.272-0.137,0.363
				c0,1.755,0,3.404,0,4.947v4.538c0,1.422,0.007,2.67,0.022,3.744c0.016,1.074,0.023,2.004,0.023,2.791c0,1.029,0,1.906,0,2.632
				c0.029,0.605,0.045,1.271,0.045,1.997c0.483-0.03,0.893-0.045,1.226-0.045h0.317c0.393,0.091,0.59,0.272,0.59,0.544
				c0,0.152-0.053,0.363-0.158,0.635c-0.106,0.272-0.235,0.484-0.386,0.635l-1.316,0.182c-0.182,0.03-0.363,0.045-0.545,0.045
				h-0.862h-0.045h-0.137h-0.045l-1.226,0.091c-0.303,0-0.529-0.061-0.681-0.182c-0.242,0-0.438-0.075-0.59-0.227
				c-0.061-0.091-0.121-0.219-0.182-0.386c-0.061-0.166-0.091-0.295-0.091-0.386c0-0.182,0.091-0.363,0.272-0.545
				c0.12-0.181,0.317-0.272,0.59-0.272h1.271v-15.475c0-1.028-0.016-1.906-0.045-2.632c0-0.635-0.016-1.376-0.046-2.224h-0.907
				h-0.317c-0.363-0.091-0.545-0.272-0.545-0.544c0-0.151,0.046-0.363,0.136-0.636c0.091-0.272,0.212-0.483,0.363-0.635
				L248.733,124.134z M251.094,120.776c-0.212,0-0.424,0.076-0.636,0.227c-0.212,0.152-0.394,0.227-0.544,0.227
				c-0.121,0-0.228-0.075-0.318-0.227c-0.091-0.151-0.151-0.438-0.181-0.862l-0.046-0.726c0-0.393,0.03-0.817,0.091-1.271
				s0.151-0.983,0.272-1.588l0.272-0.045c0.332,0,0.649,0.152,0.953,0.454c0.15,0.151,0.256,0.333,0.317,0.544
				c0.061,0.212,0.105,0.424,0.136,0.635c0,0.575-0.016,1.037-0.045,1.384c-0.03,0.348-0.062,0.688-0.091,1.021v0.227H251.094z"/>
			<path fill="#11809F" d="M269.383,143.658l0.136,2.854c0,0.09,0.075,0.129,0.227,0.113c0.151-0.015,0.318-0.038,0.499-0.068
				c0.182-0.03,0.355-0.053,0.522-0.068c0.166-0.015,0.265,0.023,0.295,0.113c0.029,0.122,0.083,0.303,0.159,0.544
				c0.075,0.242,0.113,0.423,0.113,0.543c0,0.422-0.159,0.664-0.477,0.725c-0.317,0.06-0.991,0.091-2.02,0.091h-0.317
				c-0.363-0.091-0.545-0.272-0.545-0.544c0-0.151-0.016-0.484-0.046-0.999c0-0.242,0-0.5,0-0.771
				c-0.121,0.152-0.227,0.348-0.317,0.59c-0.182,0.484-0.438,0.862-0.771,1.135c-0.333,0.272-0.703,0.468-1.111,0.59
				c-0.409,0.121-0.817,0.196-1.226,0.227c-0.408,0.029-0.794,0.045-1.157,0.045h-0.454c-0.847-0.061-1.694-0.363-2.541-0.907
				c-0.848-0.545-1.482-1.165-1.906-1.861c-0.242-0.423-0.424-0.862-0.545-1.316c-0.121-0.454-0.181-0.908-0.181-1.362
				c0-0.665,0.075-1.338,0.225-2.019c0.15-0.681,0.392-1.323,0.723-1.929c0.331-0.605,0.746-1.149,1.243-1.634
				c0.496-0.484,1.105-0.847,1.829-1.089c0.662-0.242,1.46-0.423,2.393-0.544c0.934-0.121,1.747-0.257,2.439-0.409
				c0.301-0.06,0.481-0.166,0.542-0.317c0.061-0.151,0.091-0.348,0.091-0.59v-2.224c0-0.483-0.016-0.968-0.046-1.452
				c0-0.06-0.007-0.128-0.022-0.204c-0.016-0.075-0.022-0.143-0.022-0.204c-0.03-0.363-0.076-0.771-0.136-1.226
				c-0.06-0.454-0.15-0.885-0.271-1.293c-0.12-0.409-0.286-0.779-0.497-1.112c-0.211-0.333-0.496-0.574-0.857-0.726
				c-0.271-0.09-0.557-0.136-0.857-0.136c-0.602,0-1.219,0.151-1.851,0.454c-0.633,0.303-1.144,0.635-1.535,0.999l-0.18,0.181
				c-0.241,0.243-0.535,0.507-0.881,0.794c-0.346,0.288-0.64,0.431-0.88,0.431c-0.362,0-0.542-0.348-0.542-1.044
				c0-0.393,0.12-0.771,0.363-1.134c0.241-0.363,0.536-0.678,0.885-0.945c0.348-0.267,0.718-0.504,1.111-0.711
				s0.757-0.369,1.09-0.488c0.786-0.325,1.558-0.488,2.314-0.488c0.968,0,1.762,0.219,2.382,0.657
				c0.62,0.438,1.112,1.042,1.476,1.812s0.619,1.661,0.771,2.672c0.15,1.012,0.227,2.076,0.227,3.193
				c0,0.575-0.008,1.201-0.022,1.88c-0.016,0.679-0.022,1.344-0.022,1.993c0,0.65-0.008,1.253-0.023,1.812
				c-0.016,0.559-0.022,0.989-0.022,1.291c0,0.061,0.007,0.128,0.022,0.204c0.016,0.076,0.023,0.144,0.023,0.204
				c0.06,0.695,0.105,1.45,0.136,2.266C269.337,142.707,269.352,143.175,269.383,143.658z M265.491,146.644
				c0.541-0.211,1-0.567,1.375-1.066c0.376-0.499,0.564-1.021,0.564-1.565c0-0.151-0.008-0.423-0.022-0.817
				c-0.016-0.393-0.038-0.817-0.068-1.271c-0.03-0.454-0.053-0.892-0.067-1.316c-0.016-0.423-0.023-0.756-0.023-0.999
				c0-0.242-0.016-0.483-0.045-0.726c-0.03-0.242-0.046-0.469-0.046-0.681c0-0.182,0.016-0.302,0.046-0.363
				c-0.571,0-1.174,0.03-1.805,0.09c-0.632,0.061-1.241,0.182-1.827,0.363c-0.587,0.182-1.136,0.416-1.646,0.704
				c-0.512,0.288-0.948,0.658-1.309,1.112c-0.33,0.424-0.563,0.9-0.699,1.429c-0.136,0.53-0.203,1.082-0.203,1.657
				c0,0.333,0.045,0.703,0.136,1.112c0.09,0.408,0.286,0.749,0.586,1.021c0.602,0.515,1.136,0.893,1.603,1.134
				c0.466,0.243,1.015,0.363,1.646,0.363h1.083C264.89,146.825,265.13,146.765,265.491,146.644z"/>
		</g>
	</g>
</g>
</svg>
