<?xml version="1.0" encoding="utf-8"?>
<!-- Generator: Adobe Illustrator 16.0.0, SVG Export Plug-In . SVG Version: 6.00 Build 0)  -->
<!DOCTYPE svg PUBLIC "-//W3C//DTD SVG 1.1//EN" "http://www.w3.org/Graphics/SVG/1.1/DTD/svg11.dtd">
<svg version="1.1" xmlns="http://www.w3.org/2000/svg" xmlns:xlink="http://www.w3.org/1999/xlink" x="0px" y="0px" width="393px"
	 height="170px" viewBox="0 0 393 170" enable-background="new 0 0 393 170" xml:space="preserve">
<g id="grid" display="none">
</g>
<g id="Layer_1">
	<g>
		<g>
			<g>
				<path fill="#EC008C" d="M135.546,78.506h-9.915V62.639h-17.973v15.867h-9.856v-40.87h9.856v15.866h17.973V37.636h9.915V78.506z"
					/>
				<path fill="#EC008C" d="M183.864,57.529c0,13.523-8.534,21.697-19.954,21.697c-11.601,0-19.474-8.174-19.474-21.697V37.636
					h9.857v19.894c0,7.874,3.365,12.562,9.616,12.562c6.13,0,9.979-4.688,9.979-12.562V37.636h9.976V57.529z"/>
				<path fill="#EC008C" d="M230.499,78.506h-9.915V62.639h-17.971v15.867h-9.857v-40.87h9.857v15.866h17.971V37.636h9.915V78.506z"
					/>
				<path fill="#EC008C" d="M271.907,72.135h-19.714l-2.706,6.371h-10.456l17.49-40.87h10.997l17.551,40.87h-10.518L271.907,72.135z
					 M268.48,64.081l-6.37-15.267l-6.491,15.267H268.48z"/>
				<path fill="#EC008C" d="M303.696,73.457c0,3.125-2.646,5.77-5.948,5.77c-3.128,0-5.832-2.645-5.832-5.77
					c0-3.306,2.704-6.011,5.832-6.011C301.05,67.446,303.696,70.151,303.696,73.457z M302.253,64.861h-8.834l-0.601-27.226h9.976
					L302.253,64.861z"/>
			</g>
		</g>
		<g>
			<g>
				<path fill="#69BD45" d="M132.546,79.774h-9.915V63.908h-17.973v15.866h-9.856V38.905h9.856v15.866h17.973V38.905h9.915V79.774z"
					/>
				<path fill="#69BD45" d="M180.864,58.799c0,13.523-8.534,21.697-19.954,21.697c-11.601,0-19.474-8.174-19.474-21.697V38.905
					h9.857v19.894c0,7.874,3.365,12.562,9.616,12.562c6.13,0,9.979-4.688,9.979-12.562V38.905h9.976V58.799z"/>
				<path fill="#69BD45" d="M227.499,79.774h-9.915V63.908h-17.971v15.866h-9.857V38.905h9.857v15.866h17.971V38.905h9.915V79.774z"
					/>
				<path fill="#69BD45" d="M268.907,73.404h-19.714l-2.706,6.37h-10.456l17.49-40.869h10.997l17.551,40.869h-10.518L268.907,73.404
					z M265.48,65.351l-6.37-15.267l-6.491,15.267H265.48z"/>
				<path fill="#69BD45" d="M300.696,74.727c0,3.125-2.646,5.77-5.948,5.77c-3.128,0-5.832-2.645-5.832-5.77
					c0-3.306,2.704-6.011,5.832-6.011C298.05,68.716,300.696,71.421,300.696,74.727z M299.253,66.131h-8.834l-0.601-27.226h9.976
					L299.253,66.131z"/>
			</g>
		</g>
		<g>
			<g>
				<path fill="#FFF200" d="M130.655,77.201h-9.916V61.334h-17.973v15.867h-9.855v-40.87h9.855v15.867h17.973V36.331h9.916V77.201z"
					/>
				<path fill="#FFF200" d="M178.974,56.226c0,13.523-8.533,21.697-19.955,21.697c-11.599,0-19.473-8.174-19.473-21.697V36.331
					h9.857v19.895c0,7.873,3.366,12.562,9.615,12.562c6.132,0,9.979-4.688,9.979-12.562V36.331h9.977V56.226z"/>
				<path fill="#FFF200" d="M225.608,77.201h-9.915V61.334h-17.972v15.867h-9.857v-40.87h9.857v15.867h17.972V36.331h9.915V77.201z"
					/>
				<path fill="#FFF200" d="M267.017,70.83h-19.715l-2.704,6.371h-10.457l17.49-40.87h10.997l17.551,40.87h-10.52L267.017,70.83z
					 M263.589,62.776l-6.369-15.266l-6.491,15.266H263.589z"/>
				<path fill="#FFF200" d="M298.806,72.153c0,3.125-2.646,5.77-5.947,5.77c-3.128,0-5.832-2.645-5.832-5.77
					c0-3.306,2.704-6.011,5.832-6.011C296.159,66.143,298.806,68.848,298.806,72.153z M297.363,63.558h-8.835l-0.601-27.227h9.976
					L297.363,63.558z"/>
			</g>
		</g>
		<g>
			<g>
				<path fill="#FFFFFF" d="M133.546,78.414h-9.915V62.547h-17.973v15.867h-9.856v-40.87h9.856v15.867h17.973V37.544h9.915V78.414z"
					/>
				<path fill="#FFFFFF" d="M181.864,57.438c0,13.523-8.534,21.697-19.954,21.697c-11.601,0-19.474-8.174-19.474-21.697V37.544
					h9.857v19.895c0,7.873,3.365,12.562,9.616,12.562c6.13,0,9.979-4.688,9.979-12.562V37.544h9.976V57.438z"/>
				<path fill="#FFFFFF" d="M228.499,78.414h-9.915V62.547h-17.971v15.867h-9.857v-40.87h9.857v15.867h17.971V37.544h9.915V78.414z"
					/>
				<path fill="#FFFFFF" d="M269.907,72.043h-19.714l-2.706,6.371h-10.456l17.49-40.87h10.997l17.551,40.87h-10.518L269.907,72.043z
					 M266.48,63.989l-6.37-15.266l-6.491,15.266H266.48z"/>
				<path fill="#FFFFFF" d="M301.696,73.366c0,3.125-2.646,5.77-5.948,5.77c-3.128,0-5.832-2.645-5.832-5.77
					c0-3.306,2.704-6.011,5.832-6.011C299.05,67.355,301.696,70.061,301.696,73.366z M300.253,64.771h-8.834l-0.601-27.227h9.976
					L300.253,64.771z"/>
			</g>
		</g>
		<g>
			<g>
				<path fill="#EC008C" d="M131.407,106.336c0,7.616-4.832,15.005-14.721,15.005h-8.41v8.752h-9.379V91.446h17.848
					C126.633,91.446,131.407,98.835,131.407,106.336z M108.276,100.084v12.675h7.388c3.751,0,6.309-2.217,6.309-6.423
					c0-4.148-2.558-6.194-6.309-6.252H108.276z"/>
				<path fill="#EC008C" d="M161.526,124.068h-18.643l-2.557,6.024h-9.889l16.539-38.646h10.4l16.595,38.646h-9.944L161.526,124.068
					z M158.286,116.453l-6.023-14.436l-6.139,14.436H158.286z"/>
				<path fill="#EC008C" d="M214.435,105.938c0,5.57-2.729,10.287-6.877,12.503l7.957,11.651H203.92l-5.798-9.604h-6.82v9.604h-9.32
					V91.446h18.7C208.524,91.446,214.435,97.527,214.435,105.938z M191.302,100.084v11.766h8.014c3.185,0,5.74-2.671,5.74-5.911
					c0-3.183-2.556-5.854-5.682-5.854H191.302z"/>
				<path fill="#EC008C" d="M256.147,100.084H242.45v30.009h-9.436v-30.009h-13.696v-8.638h36.829V100.084z"/>
				<path fill="#EC008C" d="M288.197,115.487v14.605h-9.378v-14.605l-16.48-24.041h10.74l10.516,15.8l10.342-15.8h10.857
					L288.197,115.487z"/>
			</g>
		</g>
		<g>
			<g>
				<path fill="#FFF200" d="M126.902,104.687c0,7.616-4.833,15.004-14.722,15.004h-8.41v8.753h-9.379V89.796h17.848
					C122.127,89.796,126.902,97.185,126.902,104.687z M103.771,98.435v12.674h7.388c3.751,0,6.308-2.216,6.308-6.422
					c0-4.148-2.557-6.194-6.308-6.252H103.771z"/>
				<path fill="#FFF200" d="M157.021,122.419h-18.643l-2.557,6.024h-9.889l16.537-38.647h10.402l16.594,38.647h-9.943
					L157.021,122.419z M153.78,114.804l-6.023-14.437l-6.138,14.437H153.78z"/>
				<path fill="#FFF200" d="M209.929,104.289c0,5.569-2.729,10.287-6.877,12.503l7.957,11.651h-11.596l-5.797-9.605h-6.82v9.605
					h-9.32V89.796h18.7C204.019,89.796,209.929,95.877,209.929,104.289z M186.796,98.435v11.765h8.014c3.185,0,5.74-2.671,5.74-5.91
					c0-3.183-2.556-5.854-5.682-5.854H186.796z"/>
				<path fill="#FFF200" d="M251.642,98.435h-13.697v30.009h-9.436V98.435h-13.696v-8.639h36.829V98.435z"/>
				<path fill="#FFF200" d="M283.692,113.837v14.606h-9.377v-14.606l-16.482-24.041h10.74l10.516,15.8l10.342-15.8h10.857
					L283.692,113.837z"/>
			</g>
		</g>
		<g>
			<g>
				<path fill="#69BD45" d="M128.711,109.377c-0.026,7.616-4.885,14.987-14.773,14.953l-8.411-0.028l-0.028,8.752l-9.378-0.032
					l0.132-38.646l17.847,0.062C123.986,94.47,128.735,101.875,128.711,109.377z M105.601,103.046l-0.044,12.674l7.388,0.025
					c3.75,0.013,6.316-2.195,6.332-6.401c0.012-4.148-2.538-6.202-6.289-6.273L105.601,103.046z"/>
				<path fill="#69BD45" d="M158.769,127.212l-18.643-0.063l-2.577,6.015l-9.89-0.033l16.671-38.59l10.401,0.035l16.463,38.703
					l-9.943-0.034L158.769,127.212z M155.554,119.585l-5.974-14.456l-6.188,14.415L155.554,119.585z"/>
				<path fill="#69BD45" d="M211.738,109.263c-0.019,5.57-2.765,10.277-6.92,12.479l7.917,11.679l-11.594-0.04l-5.766-9.625
					l-6.82-0.023l-0.031,9.605l-9.321-0.032l0.132-38.646l18.7,0.064C205.878,94.75,211.767,100.852,211.738,109.263z
					 M188.626,103.329l-0.041,11.766l8.014,0.027c3.185,0.011,5.75-2.651,5.76-5.892c0.012-3.183-2.535-5.863-5.66-5.874
					L188.626,103.329z"/>
				<path fill="#69BD45" d="M253.472,103.551l-13.697-0.047l-0.103,30.009l-9.437-0.032l0.104-30.009l-13.697-0.047l0.03-8.638
					l36.829,0.126L253.472,103.551z"/>
				<path fill="#69BD45" d="M285.468,119.063l-0.051,14.605l-9.377-0.032l0.051-14.605l-16.398-24.098l10.74,0.037l10.461,15.836
					l10.395-15.765l10.857,0.037L285.468,119.063z"/>
			</g>
		</g>
		<g>
			<g>
				<path fill="#FFFFFF" d="M129.213,107.629c0,7.616-4.833,15.004-14.722,15.004h-8.41v8.753h-9.378V92.738h17.847
					C124.438,92.738,129.213,100.127,129.213,107.629z M106.081,101.377v12.674h7.389c3.75,0,6.309-2.216,6.309-6.422
					c0-4.149-2.559-6.194-6.309-6.252H106.081z"/>
				<path fill="#FFFFFF" d="M159.331,125.361H140.69l-2.558,6.024h-9.89l16.539-38.647h10.4l16.596,38.647h-9.945L159.331,125.361z
					 M156.091,117.746l-6.023-14.437l-6.138,14.437H156.091z"/>
				<path fill="#FFFFFF" d="M212.239,107.231c0,5.569-2.729,10.286-6.877,12.503l7.957,11.651h-11.594l-5.799-9.605h-6.82v9.605
					h-9.319V92.738h18.7C206.329,92.738,212.239,98.819,212.239,107.231z M189.106,101.377v11.765h8.014
					c3.186,0,5.74-2.671,5.74-5.91c0-3.184-2.555-5.854-5.682-5.854H189.106z"/>
				<path fill="#FFFFFF" d="M253.952,101.377h-13.697v30.009h-9.436v-30.009h-13.695v-8.639h36.828V101.377z"/>
				<path fill="#FFFFFF" d="M286.003,116.779v14.606h-9.377v-14.606l-16.482-24.041h10.74l10.516,15.8l10.343-15.8h10.856
					L286.003,116.779z"/>
			</g>
		</g>
	</g>
</g>
</svg>
