<?xml version="1.0" encoding="utf-8"?>
<!-- Generator: Adobe Illustrator 16.0.0, SVG Export Plug-In . SVG Version: 6.00 Build 0)  -->
<!DOCTYPE svg PUBLIC "-//W3C//DTD SVG 1.1//EN" "http://www.w3.org/Graphics/SVG/1.1/DTD/svg11.dtd">
<svg version="1.1" xmlns="http://www.w3.org/2000/svg" xmlns:xlink="http://www.w3.org/1999/xlink" x="0px" y="0px"
	 width="223.643px" height="184.372px" viewBox="0 0 223.643 184.372" enable-background="new 0 0 223.643 184.372"
	 xml:space="preserve">
<g id="grid" display="none">
</g>
<g id="Layer_1">
	<g>
		<g>
			<path fill="#C1D1CF" d="M113.992,118.244c19.532,0.819,37.021,8.971,49.931,21.689c9.663-11.587,15.745-26.317,16.426-42.556
				c1.647-39.271-28.855-72.443-68.126-74.09C72.95,21.641,39.779,52.142,38.131,91.415c-0.805,19.198,6.087,36.928,17.918,50.24
				C70.573,126.432,91.32,117.293,113.992,118.244z"/>
		</g>
		<g>
			<g>
				<path fill="#F8EDDA" d="M135.352,47.236c0.115-0.15,0.155-0.341,0.181-0.516c0-0.005,0-0.008-0.002-0.012
					c0.054-0.068,0.103-0.148,0.136-0.243c1.022-2.947,1.58-6.011,1.319-9.14c-0.083-1-1.382-1.043-1.549-0.057
					c-0.444,2.603-1.536,5.026-2.333,7.53c-0.668-0.315-1.428-0.435-2.254-0.326c-0.705,0.097-1.34,0.397-1.919,0.815
					c1.386-3.986,2.521-8.192,1.979-12.314c-0.23-1.796-1.294-3.635-2.88-4.588c0.008-0.031,0.017-0.055,0.019-0.087
					c0.28-3.413,0.31-6.734-0.87-9.997c-0.343-0.945-1.612-0.642-1.508,0.35c0.305,2.92,0.061,5.855-0.069,8.774
					c-0.005,0.112,0.013,0.201,0.042,0.289c-1.956-0.003-3.492,1.16-4.551,2.721c-0.488-3.004-1.795-6.077-4.521-6.977
					c0.106-0.271,0.062-0.591-0.146-0.814c-0.015-0.014-0.03-0.029-0.05-0.045c0.398-2.455,0.476-4.957,0.576-7.44
					c0.036-0.926-1.175-1.032-1.511-0.266c-1.16,2.652-1.613,5.496-2.064,8.334c-0.004,0.055-0.006,0.111-0.006,0.159
					c-2.57,0.709-3.845,3.236-4.37,5.947c-0.808-2.099-2.165-3.814-4.304-3.753c-0.23-2.763-0.813-5.513-1.335-8.221
					c-0.179-0.917-1.41-0.667-1.529,0.143c-0.175,1.235-0.201,2.499-0.127,3.764c-0.012,0.031-0.023,0.063-0.026,0.102
					c-0.203,1.742-0.135,3.487,0.116,5.217c-3.079,1.946-4.278,5.907-4.298,9.583c-0.796-1.302-1.901-2.336-3.449-2.402
					c0.008-0.065,0.009-0.133-0.004-0.201c-0.442-2.905-1.247-5.749-1.485-8.685c-0.07-0.792-1.302-1.194-1.512-0.264
					c-0.698,3.046-0.525,6.17-0.055,9.235c0.049,0.321,0.236,0.499,0.464,0.561c-0.823,0.46-1.488,1.146-1.907,2.061
					c-1.437,3.142-1.14,7.175-0.979,10.523c0.521,10.882,2.638,21.71,4.594,32.398c0.76,4.148,1.213,9.666,1.703,13.872
					c-0.139,0.156,0.544,6.84,3.211,27.414c0.074,0.553,0.583,0.684,0.992,0.521c0.164,0.045,0.353,0.026,0.547-0.104
					c0.767-0.49,1.414-1.13,1.999-1.827c0.569,0.536,1.101,1.117,1.612,1.713c0.457,0.648,0.953,1.268,1.468,1.867
					c0.704,0.957,1.38,1.938,2.042,2.903c0.357,0.52,1.053,0.407,1.354,0.046c0.058-0.036,0.119-0.081,0.18-0.139
					c0.686-0.744,1.036-1.809,1.374-2.742c0.29-0.787,0.564-1.606,0.749-2.439c1.492,2.319,3.076,4.573,4.646,6.839
					c0.093,0.13,0.205,0.222,0.327,0.276c0.207,0.449,0.765,0.713,1.18,0.253c2.31-2.587,3.987-5.958,5.322-9.217
					c0.758,1.152,1.822,2.185,2.976,2.849c0.043,0.028,0.089,0.045,0.134,0.062c0.197,0.175,0.414,0.287,0.652,0.344
					c0.025,0.024,0.049,0.047,0.071,0.076c0.178,0.177,0.43,0.38,0.698,0.365c0.304-0.018,0.536-0.139,0.683-0.343
					c0.096-0.113,0.159-0.266,0.166-0.458c0.033-1.336-0.093-2.725-0.312-4.064c0.055-0.104,0.088-0.229,0.077-0.387
					c-1.473-18.568,1.348-22.172,1.351-22.312c0.182-12.247,0.974-24.619,4.46-36.425C135.204,55.362,137.089,50.861,135.352,47.236
					z"/>
				<path fill="#EAAA93" d="M98.907,59.58c-0.811-2.106-1.424-4.254-1.757-6.488c-0.151-0.985-1.639-0.549-1.49,0.429
					c0.338,2.228,0.944,4.377,1.759,6.487C97.775,60.926,99.271,60.512,98.907,59.58z"/>
				<path fill="#EAAA93" d="M109.233,54.691c-0.252-0.962-1.748-0.539-1.484,0.423c0.445,1.659,0.608,3.34,0.636,5.055
					c0.014,0.999,1.562,0.985,1.545-0.015C109.905,58.304,109.717,56.483,109.233,54.691z"/>
				<path fill="#EAAA93" d="M107.926,73.401c-0.895-1.651-1.5-3.401-1.98-5.21c-0.255-0.971-1.745-0.546-1.491,0.416
					c0.518,1.943,1.184,3.822,2.139,5.586C107.074,75.074,108.401,74.278,107.926,73.401z"/>
				<path fill="#EAAA93" d="M124.676,65.136c-0.082-0.986-1.633-0.984-1.544,0.015c0.169,2.008,0.335,4.017,0.359,6.031
					c0.015,0.999,1.561,0.987,1.552-0.015C125.01,69.152,124.848,67.145,124.676,65.136z"/>
				<path fill="#EAAA93" d="M120.424,56.35c-0.094-0.988-1.644-0.979-1.549,0.011c0.137,1.45,0.019,2.857-0.244,4.288
					c-0.183,0.976,1.313,1.38,1.496,0.398C120.414,59.486,120.575,57.934,120.424,56.35z"/>
				<path fill="#EAAA93" d="M117.771,74.897c-0.161-0.984-1.647-0.553-1.496,0.423c0.329,2.038,0.606,4.08,0.804,6.133
					c0.093,0.989,1.643,0.979,1.549-0.007C118.419,79.25,118.117,77.066,117.771,74.897z"/>
				<path fill="#EAAA93" d="M105.443,90.76c-1.149-2.048-1.767-4.224-1.96-6.562c-0.084-0.983-1.635-0.979-1.55,0.014
					c0.217,2.607,0.896,5.052,2.18,7.34C104.603,92.423,105.937,91.629,105.443,90.76z"/>
				<path fill="#EAAA93" d="M103.79,105.045c-0.786-2.816-1.246-5.691-1.443-8.606c-0.067-0.992-1.611-0.981-1.549,0.014
					c0.208,3.055,0.678,6.069,1.5,9.014C102.563,106.428,104.054,106.009,103.79,105.045z"/>
				<path fill="#EAAA93" d="M111.389,86.146c0.011,2.011-0.107,4.025-0.101,6.036c-0.001,1,1.55,0.984,1.548-0.011
					c-0.004-2.012,0.109-4.028,0.105-6.04C112.936,85.136,111.385,85.15,111.389,86.146z"/>
				<path fill="#EAAA93" d="M123.364,92.392c-0.13,2.421-0.07,4.854-0.248,7.274c-0.074,0.996,1.477,0.974,1.547-0.011
					c0.177-2.422,0.121-4.855,0.245-7.28C124.965,91.379,123.415,91.395,123.364,92.392z"/>
				<path fill="#EAAA93" d="M120.095,111.712c-0.362-2.269-0.31-4.621-0.187-6.91c0.055-0.999-1.494-0.979-1.547,0.013
					c-0.132,2.44-0.143,4.909,0.246,7.322C118.762,113.123,120.251,112.687,120.095,111.712z"/>
				<path fill="#EAAA93" d="M125.034,47.443c-0.344,1.538-0.481,3.099-0.699,4.657c-0.154,1.097,1.564,1.187,1.716,0.096
					c0.196-1.4,0.301-2.819,0.609-4.209C126.899,46.919,125.271,46.361,125.034,47.443z"/>
				<path fill="#EAAA93" d="M118.069,45.837c0.184,1.06,0.38,2.117,0.378,3.19c-0.001,1.106,1.711,1.208,1.716,0.101
					c-0.002-1.231-0.205-2.445-0.42-3.652C119.549,44.379,117.874,44.747,118.069,45.837z"/>
				<path fill="#EAAA93" d="M111.215,39.65c0.259,1.701-0.119,3.398-0.656,5.007c-0.35,1.054,1.281,1.601,1.631,0.552
					c0.639-1.916,1.014-3.908,0.701-5.92C112.72,38.191,111.043,38.562,111.215,39.65z"/>
				<path fill="#EAAA93" d="M102.018,42.306l0.637,3.59c0.192,1.085,1.872,0.724,1.682-0.368l-0.637-3.583
					C103.509,40.853,101.825,41.215,102.018,42.306z"/>
				<path fill="#EAAA93" d="M91.915,43.083c0.916,1.352,2.062,2.549,2.77,4.034c0.479,0.999,2.006,0.218,1.532-0.783
					c-0.714-1.495-1.853-2.672-2.769-4.033C92.834,41.395,91.294,42.169,91.915,43.083z"/>
				<path fill="#EAAA93" d="M98.009,71.769c0.136,1.821,0.614,3.599,0.753,5.417c0.081,1.088,1.798,1.198,1.715,0.1
					c-0.139-1.825-0.614-3.602-0.753-5.42C99.64,70.778,97.925,70.669,98.009,71.769z"/>
				<path fill="#EAAA93" d="M112.422,63.896c0.346,2.029,0.427,4.01-0.279,5.971c-0.376,1.048,1.257,1.592,1.631,0.551
					c0.803-2.248,0.723-4.561,0.323-6.881C113.913,62.441,112.233,62.809,112.422,63.896z"/>
				<path fill="#EAAA93" d="M123.338,80.839c-0.375,1.586-0.836,3.152-1.215,4.735c-0.258,1.071,1.37,1.629,1.627,0.554
					c0.38-1.59,0.839-3.154,1.218-4.74C125.218,80.316,123.594,79.765,123.338,80.839z"/>
				<path fill="#6E574C" d="M135.687,35.968c-0.077,0.106-0.126,0.235-0.146,0.384c-0.309,2.438-0.928,4.766-1.821,7.051
					c-0.545,1.4-0.655,1.712,0.221,2.912c0.104,0.137,0.236,0.21,0.375,0.249c0.178,0.159,0.414,0.254,0.715,0.201
					c1.061-0.182,1.586-1.21,1.783-2.179c1.126-2.098,0.964-4.641,0.623-7.075c-0.021-0.54-0.055-1.084-0.104-1.619
					C137.242,34.903,135.878,35.116,135.687,35.968z"/>
				<path fill="#6E574C" d="M114.832,14.541c0.005,0.038,0.008,0.082,0.013,0.12c-0.958,2.715-1.73,5.634-1.398,8.515
					c-0.13,0.338-0.09,0.748,0.263,1.033c0.139,0.113,0.298,0.217,0.457,0.312c0.005,0.001,0.005,0.001,0.014,0.006
					c0.438,0.256,0.938,0.398,1.431,0.185c0.09-0.041,0.152-0.101,0.225-0.152c0.014-0.008,0.021-0.016,0.035-0.021
					c0.09-0.075,0.168-0.148,0.235-0.239c0-0.004,0.005-0.008,0.01-0.01c0.001-0.006,0.001-0.009,0.003-0.016
					c0.088-0.121,0.164-0.258,0.215-0.406c0.361-0.679,0.553-1.395,0.555-2.143c0.339-1.416,0.172-3.053-0.029-4.601
					c0.009-0.851-0.039-1.702-0.164-2.551c0.31-0.906-0.898-1.396-1.441-0.784c-0.111,0.064-0.211,0.148-0.271,0.268
					C114.887,14.181,114.817,14.325,114.832,14.541z"/>
				<path fill="#6E574C" d="M90.507,25.016c-0.534,3.401,0.198,6.929,0.718,10.286c0.051,0.312,0.224,0.492,0.439,0.584
					c0.094,0.101,0.212,0.188,0.389,0.231c0.781,0.191,1.46,0.026,1.819-0.503c0.061-0.062,0.118-0.125,0.161-0.198
					c0.031-0.027,0.068-0.049,0.093-0.076c0.264-0.168,0.451-0.449,0.396-0.841c-0.438-3.203-1.344-6.295-2.203-9.4
					c-0.026-0.089-0.069-0.147-0.107-0.21C92.112,24.028,90.666,24.022,90.507,25.016z"/>
				<path fill="#6E574C" d="M101.391,17.403c-0.241,3.549-0.037,7.126,1.074,10.529c0.047,0.14,0.125,0.25,0.213,0.341
					c0.15,0.33,0.469,0.586,0.922,0.527c0.12-0.016,0.227-0.049,0.327-0.078c0.243,0.004,0.485-0.099,0.657-0.368
					c0.002-0.01,0.006-0.019,0.014-0.03c0.262-0.274,0.399-0.647,0.445-1.06c0.031-0.077,0.06-0.154,0.057-0.247
					c0.084-3.35-0.853-6.567-2.01-9.675C102.986,16.401,101.462,16.359,101.391,17.403z"/>
				<path fill="#6E574C" d="M124.8,16.89c-0.179,0.178-0.292,0.427-0.227,0.75c0.632,3.218,0.876,6.52,0.443,9.784
					c-0.046,0.345,0.092,0.585,0.302,0.725c0.032,0.199,0.154,0.391,0.399,0.523c0.302,0.17,0.576,0.214,0.827,0.183
					c0.224,0.044,0.471,0.003,0.692-0.188c0.181-0.154,0.326-0.321,0.435-0.504c0.206-0.12,0.356-0.327,0.37-0.644
					c0.179-3.578-0.077-7.454-1.679-10.717C125.999,16.057,125.055,16.304,124.8,16.89z"/>
				<path fill="#EAAA93" d="M109.135,104.755c-0.37-2.079-0.82-4.152-0.757-6.271c0.022-0.925-1.405-1.029-1.435-0.105
					c-0.062,2.247,0.391,4.441,0.779,6.642C107.887,105.934,109.296,105.663,109.135,104.755z"/>
				<path fill="#EAAA93" d="M111.813,115.949c0.525-1.487,0.429-3.104,0.673-4.646c0.147-0.915-1.288-1.009-1.431-0.102
					c-0.223,1.414-0.117,2.921-0.599,4.283C110.147,116.359,111.506,116.821,111.813,115.949z"/>
				<path fill="#EAAA93" d="M102.482,114.69c0.006-0.399-0.021-0.792-0.067-1.187c-0.045-0.392-0.178-0.817-0.062-1.207
					c0.262-0.886-1.094-1.351-1.36-0.465c-0.269,0.911,0.073,1.831,0.059,2.754C101.038,115.509,102.467,115.612,102.482,114.69z"/>
				<path fill="#EAAA93" d="M118.812,120.652c-0.404-0.915-0.61-1.5-0.254-2.463c0.321-0.868-1.036-1.329-1.356-0.46
					c-0.49,1.323-0.231,2.302,0.324,3.556C117.899,122.131,119.185,121.496,118.812,120.652z"/>
				<path fill="#EAAA93" d="M126.058,112.215c-0.337-0.758-0.353-1.234-0.064-2.026c0.32-0.871-1.039-1.332-1.356-0.465
					c-0.42,1.146-0.356,2.022,0.13,3.121C125.143,113.693,126.428,113.057,126.058,112.215z"/>
				<path fill="#EAAA93" d="M118.792,98.175c-0.481-1.205-0.202-2.548,0.234-3.725c0.319-0.868-1.04-1.331-1.361-0.463
					c-0.571,1.56-0.786,3.246-0.162,4.82C117.844,99.667,119.129,99.028,118.792,98.175z"/>
			</g>
			<g>
				<g>
					<path fill="#FFFFFF" d="M90.012,113.054c-0.065,0.042-0.139,0.076-0.208,0.117c-0.577,0.361-0.231,1.154,0.378,1.17
						c0.061,0.002,0.122,0.007,0.184,0.01c-0.691,0.387-1.381,0.778-2.1,1.122c-0.612,0.292-0.203,1.184,0.382,1.168
						c0.536-0.014,1.077,0.002,1.612,0.014c-0.81,0.425-1.631,0.843-2.484,1.183c-0.65,0.259-0.52,1.298,0.232,1.241
						c1-0.075,2.004-0.038,3.008-0.01c-0.706,0.425-1.42,0.843-2.172,1.193c-0.744,0.343-0.42,1.384,0.39,1.21
						c0.841-0.181,1.683-0.302,2.523-0.419c-0.112,0.125-0.235,0.247-0.341,0.378c-0.409,0.5,0.044,1.199,0.666,1.036
						c0.943-0.249,1.917-0.333,2.88-0.467c-1.314-3.215-2.536-6.473-3.779-9.723c-0.308,0.179-0.62,0.364-0.934,0.537
						C90.128,112.877,90.06,112.963,90.012,113.054z"/>
					<g>
						<path fill="#815155" d="M61.007,85.782c0.659,0.147,1.314,0.305,1.974,0.462c-0.023-0.395-0.04-0.79-0.016-1.19
							c0.045-0.672,1.03-0.983,1.24-0.231c0.122,0.417,0.242,0.832,0.355,1.246c0.028-0.001,0.063-0.005,0.098-0.002
							c0.159-0.354,0.32-0.707,0.45-1.071c0.262-0.758,1.389-0.578,1.246,0.253c-0.029,0.173-0.044,0.346-0.062,0.514
							c0.131-0.063,0.272-0.112,0.408-0.169c0.748-0.438,1.509-0.843,2.308-1.193c0.14-0.062,0.264-0.055,0.373-0.024
							c0.616-0.252,1.16,0.691,0.544,1.137c-0.024,0.016-0.042,0.041-0.064,0.061c-0.231,0.464-0.481,0.91-0.743,1.348
							c-0.107,0.207-0.219,0.411-0.329,0.618c0.295-0.064,0.597-0.11,0.899-0.14c0.025-0.079,0.048-0.16,0.076-0.232
							c0.139-0.365,0.741-0.479,0.996-0.18c0.734,0.851,1.466,2.093,2.431,2.796c0.034-0.773-0.277-1.802-0.209-2.441
							c0.052-0.504,0.72-0.638,1.053-0.342c1.057,0.949,1.929,2.053,2.888,3.085c0.238-1.705-0.318-3.56,0.025-5.254
							c0.08-0.391,0.551-0.645,0.914-0.44c0.582,0.337,1.465,0.724,2.268,1.192c-0.119-0.366-0.241-0.73-0.354-1.095
							c-0.127-0.385-0.26-0.776-0.391-1.162c-0.616,0.444-1.28,0.792-1.967,0.982c-0.431,0.117-0.956-0.252-0.818-0.738
							c0.157-0.556,0.308-1.117,0.46-1.682c-0.715,0.316-1.435,0.631-2.135,0.982c-0.592,0.305-1.126-0.222-0.907-0.823
							c0.193-0.532,0.419-1.039,0.666-1.535c-0.486,0.115-0.973,0.199-1.497,0.156c-0.506-0.044-0.626-0.723-0.34-1.055
							c0.5-0.577,0.933-1.197,1.383-1.814c-0.583,0.023-1.157,0.037-1.736,0.085c-0.547,0.045-0.898-0.67-0.506-1.063
							c0.436-0.444,0.937-0.784,1.451-1.1c-0.61-0.307-1.205-0.655-1.735-1.102c-0.396-0.34-0.176-0.895,0.234-1.079
							c0.907-0.401,1.862-0.593,2.834-0.736c-0.204-0.604-0.354-1.24-0.364-1.847c-0.006-0.388,0.35-0.776,0.763-0.663
							c0.729,0.205,1.448,0.416,2.146,0.683c0.044-0.254,0.062-0.506,0.124-0.758c0.906-3.712,2.674-8.124-0.106-11.505
							c-0.178-0.22-0.378-0.4-0.595-0.563c0.425-0.673,0.332-1.477-0.003-2.206c-0.027-0.054-0.069-0.101-0.12-0.135
							c-0.004-0.032-0.01-0.062-0.013-0.09c-0.024-0.264-0.208-0.483-0.486-0.479c-0.247,0.001-0.503,0.224-0.479,0.483
							c0.009,0.082,0.018,0.161,0.032,0.238c-0.044,0.106-0.058,0.228-0.012,0.347c0.005,0.032,0.007,0.067,0.005,0.097
							c0.011,0.116,0,0.232-0.005,0.346c-0.018,0.285-0.079,0.567-0.175,0.834c-0.55-0.113-1.13-0.086-1.691,0.092
							c-1.136,0.355-1.994,1.253-2.646,2.28c-0.08-1.268-0.418-2.499-1.225-3.518c-0.544-0.685-1.268-1.183-2.07-1.453
							c0.131-0.096,0.168-0.22,0.179-0.353c0.069-0.101,0.109-0.23,0.078-0.375c-0.012-0.055-0.024-0.106-0.033-0.164
							c0.054-0.184-0.008-0.332-0.119-0.429c-0.134-0.404-0.325-0.788-0.561-1.143c-0.084-0.134-0.205-0.199-0.325-0.217
							c-0.297-0.116-0.69,0.023-0.651,0.426c0.054,0.503,0.32,1.06,0.109,1.556c-0.069,0.15-0.084,0.337,0,0.479
							c-0.14,0-0.277-0.003-0.413,0.009c-3.271,0.249-4.527,3.293-4.373,6.159c-0.215-0.2-0.416-0.381-0.58-0.532
							c-0.675-0.635-1.449-1.181-2.277-1.581c-0.845-0.407-1.787-0.622-2.698-0.495c0.015-0.067,0.021-0.142,0.023-0.208
							c0.014-0.218-0.158-0.407-0.358-0.459c-0.232-0.348-0.455-0.701-0.675-1.054c-0.215-0.346-0.787-0.285-0.88,0.13
							c-0.092,0.397-0.107,0.776-0.006,1.173c0.084,0.324,0.271,0.607,0.395,0.91c0.006,0.008,0.008,0.015,0.012,0.022
							c0.007,0.02,0.017,0.038,0.021,0.06c-2.025,1.41-1.102,4.459-0.013,6.604c-1.276-0.438-2.629-0.353-3.594,0.586
							c-0.469-0.241-0.989-0.407-1.393-0.755c-0.423-0.361-1.006,0.11-0.743,0.601c0.303,0.584,0.796,0.988,1.274,1.42
							c-0.458,2.748,1.688,4.707,3.525,6.562c1.89,1.914,3.552,3.915,4.747,6.338c0.857,1.734,1.512,3.575,2.118,5.428
							c0.074,0.031,0.144,0.054,0.215,0.087C60.902,85.777,60.948,85.769,61.007,85.782z"/>
						<path fill="#EAAA93" d="M74.407,70.958c0.01,0.607,0.16,1.242,0.364,1.847c-0.972,0.144-1.927,0.335-2.834,0.736
							c-0.41,0.184-0.63,0.739-0.234,1.079c0.53,0.447,1.125,0.795,1.735,1.102c-0.515,0.316-1.016,0.656-1.451,1.1
							c-0.393,0.393-0.041,1.108,0.506,1.063c0.579-0.048,1.154-0.062,1.736-0.085c-0.45,0.617-0.883,1.237-1.383,1.814
							c-0.286,0.332-0.167,1.01,0.34,1.055c0.524,0.043,1.011-0.041,1.497-0.156c-0.247,0.496-0.473,1.003-0.666,1.535
							c-0.219,0.601,0.315,1.128,0.907,0.823c0.7-0.352,1.42-0.667,2.135-0.982c-0.152,0.564-0.303,1.125-0.46,1.682
							c-0.138,0.486,0.388,0.855,0.818,0.738c0.687-0.19,1.351-0.538,1.967-0.982c-1.333-3.986-2.811-8.167-2.069-12.347
							c-0.698-0.267-1.417-0.479-2.146-0.683C74.757,70.182,74.401,70.57,74.407,70.958z"/>
						<path fill="#EAAA93" d="M65.294,91.715c0.328-0.976,0.34-2.044,0.693-3.027c0.088-0.242,0.453-0.414,0.693-0.333
							c1.208,0.401,1.597,1.191,2.395,1.911c0.03-0.196,0.059-0.387,0.084-0.582c-0.108-0.021-0.216-0.049-0.327-0.075
							c0.126-0.089,0.257-0.175,0.38-0.264c0.109-0.664,0.257-1.32,0.477-1.947c-0.303,0.03-0.604,0.076-0.899,0.14
							c0.11-0.207,0.222-0.411,0.329-0.618c0.262-0.438,0.512-0.884,0.743-1.348c0.022-0.02,0.04-0.045,0.064-0.061
							c0.616-0.446,0.072-1.389-0.544-1.137c-0.109-0.031-0.233-0.038-0.373,0.024c-0.799,0.351-1.56,0.755-2.308,1.193
							c-0.136,0.058-0.277,0.106-0.408,0.169c0.018-0.168,0.032-0.341,0.062-0.514c0.143-0.831-0.984-1.011-1.246-0.253
							c-0.13,0.365-0.291,0.718-0.45,1.071c-0.034-0.002-0.069,0.001-0.098,0.002c-0.113-0.414-0.233-0.828-0.355-1.246
							c-0.21-0.752-1.195-0.441-1.24,0.231c-0.024,0.4-0.008,0.795,0.016,1.19c-0.659-0.157-1.314-0.315-1.974-0.462
							c-0.059-0.014-0.104-0.005-0.151-0.005c-0.071-0.033-0.142-0.057-0.215-0.087c0.428,1.297,0.833,2.595,1.259,3.869
							c0.073,0.22,0.142,0.437,0.211,0.657C63.263,90.357,64.309,90.896,65.294,91.715z"/>
						<path fill="#FFFFFF" d="M66.159,96.497c0.83,0.524,1.695,0.987,2.425,1.642c0.536,0.479,1.361-0.203,0.966-0.814
							c-0.286-0.444-0.597-0.867-0.913-1.281c0.649-0.02,1.3-0.038,1.95-0.037c0.615-0.001,0.839-0.963,0.253-1.201
							c-0.599-0.243-1.196-0.487-1.802-0.722c0.533-0.269,1.055-0.553,1.56-0.898c0.314-0.217,0.425-0.744,0.084-1.004
							c-0.106-0.083-0.338-0.268-0.59-0.423c-0.172,0.251-0.543,0.367-0.814,0.214c-0.145-0.086-2.416-1.917-2.477-1.322
							c-0.101,0.971-0.225,1.593-0.718,2.413c-0.207,0.339-0.686,0.488-0.998,0.181c-0.786-0.773-1.609-1.344-2.511-1.616
							c0.847,2.58,1.677,5.161,2.461,7.761c0.004,0.036,0.01,0.074,0.018,0.12c0.044-0.063,0.08-0.136,0.098-0.223
							C65.358,98.314,65.796,97.42,66.159,96.497z"/>
						<path fill="#EAAA93" d="M81.915,109.468c0.051-0.374,0.132-0.743,0.203-1.113c0.479,0.302,0.968,0.583,1.482,0.821
							c0.445,0.206,0.826-0.12,0.903-0.481c0.223-0.185,0.336-0.489,0.13-0.797c-0.217-0.331-0.408-0.673-0.612-1.019
							c-0.031-0.206-0.057-0.412-0.088-0.617c0.536,0.166,1.066,0.351,1.584,0.587c0.749,0.336,1.331-0.792,0.582-1.136
							c-0.062-0.024-0.125-0.045-0.187-0.073c-0.047-0.105-0.115-0.202-0.226-0.278c-0.379-0.258-0.78-0.482-1.183-0.704
							c0.317-0.086,0.641-0.177,0.957-0.262c0.259-0.076,0.381-0.254,0.412-0.455c0.323-0.372,0.145-1.113-0.492-1.067
							c-0.404,0.032-0.818,0.028-1.228,0.029c0.276-0.458,0.543-0.917,0.805-1.383c0.206-0.363,0.012-0.689-0.274-0.83
							c-0.149-0.325-0.506-0.53-0.859-0.246c-0.083,0.065-0.164,0.137-0.244,0.203c-0.341,0.106-0.688,0.255-1.033,0.402
							c0.09-0.468,0.183-0.942,0.273-1.414c0.135-0.693-0.773-0.98-1.125-0.525c-0.154,0.037-0.3,0.122-0.405,0.281
							c-0.281,0.419-0.507,0.88-0.714,1.352c-0.318-0.274-0.656-0.524-0.998-0.749c-0.191-0.567-1.207-0.435-1.232,0.294
							c-0.029,0.793,0.098,1.566,0.292,2.32c-0.639,0.295-1.239,0.667-1.745,1.173c-0.167,0.163-0.198,0.349-0.157,0.518
							c-0.142,0.387,0.064,0.915,0.602,0.873c0.491-0.034,0.991-0.05,1.484-0.044c-0.044,0.055-0.094,0.099-0.133,0.155
							l-1.066,1.094c-0.278,0.288-0.195,0.637,0.027,0.854c-0.036,0.47,0.644,0.915,1.127,0.491c0.254-0.227,0.533-0.43,0.827-0.621
							c0.364,0.8,0.694,1.618,0.937,2.468c0.12,0.412,0.504,0.498,0.812,0.383C81.618,109.955,81.87,109.811,81.915,109.468z"/>
						<path fill="#EAAA93" d="M73.708,122.636c0.682,0.414,1.346,0.858,1.999,1.326c0.616,0.44,1.394-0.34,0.958-0.833
							c0.048-0.155,0.042-0.329-0.062-0.506c-0.208-0.366-0.344-0.749-0.442-1.14c0.506,0.177,1.007,0.362,1.519,0.526
							c0.677,0.224,1.089-0.947,0.418-1.185c-0.088-0.033-0.176-0.071-0.27-0.104c-0.005-0.009-0.016-0.017-0.02-0.029
							c-0.037-0.1-0.105-0.181-0.201-0.249c-0.106-0.132-0.205-0.271-0.318-0.4c0.003-0.009,0-0.015,0.001-0.021
							c0.551-0.443,1.098-0.884,1.68-1.283c0.33-0.225,0.332-0.597,0.169-0.867c0.124-0.43-0.225-0.989-0.779-0.799
							c-0.514,0.175-1.016,0.386-1.52,0.58c0.186-0.419,0.363-0.848,0.532-1.277c0.132-0.186,0.252-0.38,0.387-0.56
							c0.175-0.228,0.165-0.485,0.062-0.69c-0.077-0.418-0.501-0.76-0.914-0.421c-0.677,0.558-1.288,1.174-1.882,1.813
							c-0.62-0.688-1.271-1.356-1.987-1.925c-0.561-0.442-1.291,0.218-1.033,0.731c-0.001,0.053-0.003,0.104-0.003,0.159
							c0.002,0.147,0.055,0.252,0.121,0.347l-0.002,0.004c0.04,0.308,0.076,0.618,0.113,0.932c-0.569-0.111-1.15-0.144-1.723-0.104
							c0.792,2.667,1.591,5.331,2.391,7.993c0.047-0.063,0.095-0.126,0.117-0.221C73.151,123.82,73.406,123.218,73.708,122.636z"/>
						<path fill="#A66C6C" d="M75.139,130.24c0.118,0.007,0.24-0.039,0.347-0.168c0.492-0.616,0.868-1.395,1.165-2.169
							c1.172,1.307,2.62,2.34,3.791,3.654c0.251,0.282,0.707,0.098,0.799-0.229c0.379-1.312,1.03-2.551,1.325-3.888
							c1.367,0.678,2.913,0.948,4.234,1.737c0.259,0.155,0.644,0,0.703-0.302c0.264-1.328,0.663-2.652,0.714-4.007
							c1.449,1.373,2.87,2.828,4.098,4.391c0.261,0.332,0.74,0.194,0.883-0.08c0.043-0.054,0.074-0.122,0.084-0.21
							c0.206-1.481,0.41-3.002,0.375-4.507c0.584,0.352,1.154,0.72,1.742,1.058c0.02,0.043,0.041,0.094,0.062,0.14
							c0.01-0.025,0.023-0.054,0.038-0.076c0.016,0.004,0.037,0.019,0.055,0.029c0.485,0.269,0.91-0.373,0.605-0.732
							c0.01-0.065,0.004-0.129-0.016-0.194c-0.025-0.106-0.09-0.187-0.17-0.249c-0.348-0.808-0.678-1.622-1.01-2.435
							c-0.963,0.134-1.937,0.218-2.88,0.467c-0.622,0.163-1.075-0.536-0.666-1.036c0.106-0.132,0.229-0.253,0.341-0.378
							c-0.841,0.117-1.683,0.239-2.523,0.419c-0.81,0.174-1.134-0.867-0.39-1.21c0.752-0.351,1.466-0.769,2.172-1.193
							c-1.004-0.028-2.008-0.065-3.008,0.01c-0.752,0.057-0.883-0.982-0.232-1.241c0.854-0.339,1.675-0.757,2.484-1.183
							c-0.535-0.012-1.076-0.028-1.612-0.014c-0.585,0.016-0.994-0.876-0.382-1.168c0.719-0.344,1.408-0.734,2.1-1.122
							c-0.062-0.003-0.123-0.007-0.184-0.01c-0.609-0.017-0.955-0.81-0.378-1.17c0.069-0.041,0.142-0.075,0.208-0.117
							c0.048-0.091,0.116-0.177,0.238-0.238c0.314-0.173,0.626-0.358,0.934-0.537c-2.016-5.263-4.116-10.488-6.872-15.417
							c0.035-0.111,0.033-0.239-0.03-0.37c-1.376-2.749-2.429-5.685-3.403-8.622c-0.252-0.764-0.503-1.526-0.748-2.289
							c-0.803-0.468-1.686-0.855-2.268-1.192c-0.363-0.205-0.834,0.049-0.914,0.44c-0.344,1.694,0.213,3.55-0.025,5.254
							c-0.959-1.032-1.831-2.136-2.888-3.085c-0.333-0.296-1.001-0.163-1.053,0.342c-0.068,0.64,0.243,1.668,0.209,2.441
							c-0.965-0.703-1.697-1.946-2.431-2.796c-0.255-0.3-0.856-0.185-0.996,0.18c-0.028,0.072-0.05,0.153-0.076,0.232
							c-0.22,0.627-0.367,1.283-0.477,1.947c-0.123,0.089-0.254,0.175-0.38,0.264c0.111,0.026,0.219,0.054,0.327,0.075
							c-0.025,0.195-0.054,0.386-0.084,0.582c-0.798-0.72-1.188-1.51-2.395-1.911c-0.24-0.08-0.605,0.091-0.693,0.333
							c-0.354,0.982-0.365,2.051-0.693,3.027c-0.985-0.819-2.031-1.358-3.184-1.499c0.159,0.467,0.312,0.94,0.465,1.411
							c0.901,0.272,1.725,0.843,2.511,1.616c0.312,0.308,0.791,0.158,0.998-0.181c0.493-0.819,0.617-1.442,0.718-2.413
							c0.061-0.595,2.332,1.236,2.477,1.322c0.271,0.153,0.643,0.037,0.814-0.214c0.252,0.155,0.483,0.34,0.59,0.423
							c0.34,0.26,0.229,0.788-0.084,1.004c-0.505,0.345-1.027,0.629-1.56,0.898c0.605,0.235,1.203,0.479,1.802,0.722
							c0.586,0.238,0.362,1.2-0.253,1.201c-0.65-0.001-1.301,0.017-1.95,0.037c0.316,0.414,0.627,0.837,0.913,1.281
							c0.396,0.611-0.43,1.293-0.966,0.814c-0.729-0.654-1.595-1.118-2.425-1.642c-0.363,0.924-0.801,1.817-1.008,2.788
							c-0.018,0.087-0.053,0.16-0.098,0.223c0.006,0.009,0.003,0.018,0.005,0.027c0.056,0.144,0.104,0.286,0.152,0.427
							c0.003,0.008,0.005,0.017,0.007,0.023l0.004,0.014c1.933,5.5,3.625,11.077,5.291,16.662c0.572-0.041,1.153-0.008,1.723,0.104
							c-0.037-0.314-0.073-0.624-0.113-0.932l0.002-0.004c-0.066-0.094-0.119-0.2-0.121-0.347c0-0.055,0.002-0.106,0.003-0.159
							c-0.258-0.513,0.473-1.173,1.033-0.731c0.716,0.569,1.367,1.237,1.987,1.925c0.594-0.639,1.205-1.255,1.882-1.813
							c0.413-0.339,0.837,0.003,0.914,0.421c0.103,0.206,0.112,0.462-0.062,0.69c-0.135,0.18-0.255,0.375-0.387,0.56
							c-0.169,0.429-0.347,0.858-0.532,1.277c0.504-0.193,1.006-0.404,1.52-0.58c0.554-0.19,0.903,0.369,0.779,0.799
							c0.163,0.27,0.161,0.642-0.169,0.867c-0.582,0.399-1.129,0.84-1.68,1.283c-0.001,0.006,0.002,0.012-0.001,0.021
							c0.113,0.129,0.212,0.268,0.318,0.4c0.095,0.068,0.164,0.149,0.201,0.249c0.004,0.012,0.015,0.02,0.02,0.029
							c0.094,0.033,0.182,0.071,0.27,0.104c0.671,0.237,0.259,1.409-0.418,1.185c-0.512-0.164-1.013-0.349-1.519-0.526
							c0.099,0.392,0.234,0.774,0.442,1.14c0.104,0.177,0.11,0.351,0.062,0.506c0.436,0.493-0.342,1.273-0.958,0.833
							c-0.653-0.468-1.317-0.913-1.999-1.326c-0.302,0.583-0.557,1.185-0.688,1.797c-0.022,0.095-0.07,0.158-0.117,0.221
							c0.486,1.605,0.963,3.215,1.464,4.813c0.017-0.006,0.032-0.017,0.048-0.025l0.134,0.462
							C74.62,130.154,74.889,130.306,75.139,130.24z M80.542,109.572c-0.242-0.85-0.572-1.668-0.937-2.468
							c-0.294,0.19-0.573,0.394-0.827,0.621c-0.483,0.424-1.163-0.021-1.127-0.491c-0.222-0.217-0.306-0.566-0.027-0.854
							l1.066-1.094c0.04-0.056,0.089-0.1,0.133-0.155c-0.493-0.006-0.993,0.01-1.484,0.044c-0.537,0.042-0.743-0.485-0.602-0.873
							c-0.041-0.169-0.01-0.355,0.157-0.518c0.506-0.506,1.105-0.878,1.745-1.173c-0.194-0.754-0.321-1.527-0.292-2.32
							c0.025-0.729,1.041-0.862,1.232-0.294c0.342,0.224,0.68,0.474,0.998,0.749c0.207-0.472,0.433-0.933,0.714-1.352
							c0.105-0.159,0.251-0.244,0.405-0.281c0.352-0.456,1.26-0.168,1.125,0.525c-0.091,0.472-0.184,0.946-0.273,1.414
							c0.346-0.147,0.692-0.296,1.033-0.402c0.08-0.066,0.161-0.137,0.244-0.203c0.354-0.284,0.71-0.08,0.859,0.246
							c0.287,0.141,0.48,0.466,0.274,0.83c-0.262,0.465-0.529,0.925-0.805,1.383c0.409-0.001,0.823,0.002,1.228-0.029
							c0.637-0.046,0.815,0.695,0.492,1.067c-0.031,0.2-0.153,0.378-0.412,0.455c-0.316,0.085-0.64,0.176-0.957,0.262
							c0.402,0.221,0.804,0.446,1.183,0.704c0.11,0.076,0.179,0.172,0.226,0.278c0.062,0.027,0.125,0.048,0.187,0.073
							c0.749,0.343,0.167,1.472-0.582,1.136c-0.518-0.236-1.048-0.421-1.584-0.587c0.031,0.206,0.058,0.412,0.088,0.617
							c0.204,0.346,0.395,0.688,0.612,1.019c0.206,0.309,0.093,0.613-0.13,0.797c-0.077,0.361-0.458,0.687-0.903,0.481
							c-0.515-0.239-1.004-0.52-1.482-0.821c-0.071,0.37-0.152,0.74-0.203,1.113c-0.045,0.342-0.297,0.487-0.561,0.487
							C81.046,110.07,80.662,109.984,80.542,109.572z"/>
					</g>
				</g>
				<path fill="#653B46" d="M75.655,58.939c0.184-0.002,0.308-0.027,0.48-0.085c0.035-0.014,0.052-0.036,0.082-0.056
					c0.171,0.016,0.34-0.064,0.449-0.31c0.413-0.966,0.398-2.025-0.059-2.969c-0.31-0.637-0.979-0.166-0.976,0.389
					c-0.153,0.672-0.353,1.321-0.6,1.966c-0.091,0.248-0.022,0.491,0.108,0.668C75.22,58.765,75.394,58.938,75.655,58.939z"/>
				<path fill="#653B46" d="M66.685,55.875c0.361,0.297,0.758,0.312,1.18,0.07c0.111-0.025,0.211-0.103,0.278-0.228
					c0.052-0.089,0.068-0.187,0.073-0.285c0.155-1.055-0.07-2.084-0.764-2.893c-0.03-0.049-0.062-0.091-0.099-0.127
					c-0.021-0.025-0.035-0.059-0.062-0.08c-0.511-0.501-1.082,0.227-0.854,0.747c-0.031,0.691-0.13,1.376-0.281,2.054
					C66.059,55.57,66.372,55.867,66.685,55.875z"/>
				<path fill="#653B46" d="M55.712,59.711c0.249,0.149,0.504,0.189,0.799,0.089c0.182-0.06,0.285-0.196,0.331-0.352
					c0.185-0.242,0.251-0.615,0.012-0.883c-0.561-0.631-1.048-1.316-1.488-2.04c-0.002-0.006-0.011-0.012-0.019-0.018
					c-0.136-0.486-0.88-0.616-1.055,0.043c-0.307,1.152,0.091,2.266,1,3.023C55.436,59.699,55.579,59.729,55.712,59.711z"/>
				<path fill="#653B46" d="M51.491,67.848c0.048-0.008,0.076-0.043,0.118-0.064c0.011-0.001,0.013-0.01,0.023-0.014
					c0.163-0.083,0.284-0.227,0.327-0.404c0.191-0.32,0.131-0.882-0.296-1.029c-0.723-0.25-1.353-0.622-1.945-1.111
					c-0.251-0.21-0.472-0.106-0.604,0.106c-0.198,0.188-0.296,0.504-0.101,0.794c0.357,0.533,0.828,0.944,1.367,1.261
					c0.046,0.129,0.127,0.244,0.267,0.312C50.935,67.834,51.173,67.908,51.491,67.848z"/>
			</g>
			<g>
				<g>
					<path fill="#333333" d="M165.964,55.708c-0.184,0.034-0.345,0.169-0.367,0.409c-0.089,0.854-0.371,1.691-0.752,2.456
						c-0.031,0.065-0.048,0.127-0.051,0.183c-3.445,2.816-4.107,7.644-5.854,11.584c-0.297,0.294-0.68,0.593-1.039,0.512
						c-0.457-0.104-0.652-0.87-0.757-1.291c1.149-4.79,4.688-9.615,2.157-14.564c-0.003-0.009,0-0.011-0.002-0.015
						c-0.021-0.854,0.254-1.606,0.802-2.243c0.011-0.006,0.021-0.017,0.038-0.024c0.531-0.301,0.144-1.184-0.398-0.876
						c-0.049,0.028-0.09,0.056-0.138,0.084c-0.046,0.021-0.081,0.049-0.125,0.078c-1.062,0.723-1.664,1.894-1.668,3.202
						c0.004,0.034,0.011,0.061,0.019,0.09c-1.738,1.392-2.553,3.523-2.833,5.699c-0.068,0.066-0.116,0.164-0.123,0.291
						c-0.127,2.666,0.114,5.502-1.155,7.938c-0.393,0.164-0.845,0.254-1.201-0.022c-0.337-0.265-0.541-0.619-0.676-1.01
						c-0.762-4.096,0.592-8.191,0.257-12.306c0.034-0.065,0.06-0.137,0.056-0.235c-0.024-0.791,0.173-1.462,0.806-1.974
						c0.389-0.317,0.062-0.872-0.329-0.855c-0.08-0.02-0.17-0.016-0.26,0.008c-1.008,0.309-1.56,1.308-1.641,2.304
						c-1.748,1.736-2.649,3.922-2.662,6.42c-0.004,0.404,0.012,0.812,0.035,1.216c-0.018,1.027,0.026,2.049,0.104,3.074
						c-0.006,0.019-0.008,0.035-0.008,0.058c0.025,2.942-0.516,5.876-1.632,8.604c-0.028,0.068-0.054,0.137-0.086,0.205
						c-1.142-2.624-0.648-5.771-3.169-7.691c-0.018-0.328,0.03-0.647,0.152-0.943c0.017-0.016,0.032-0.035,0.049-0.053
						c0.092-0.093,0.137-0.197,0.149-0.301c0.013-0.021,0.024-0.039,0.038-0.06c0.38-0.493-0.399-1.06-0.773-0.566
						c-0.126,0.159-0.225,0.332-0.305,0.511c-0.393,0.509-0.598,1.128-0.608,1.792c-1.9,3.706,0.254,7.47,1.255,11.194
						c0.033-0.058,0.073-0.105,0.113-0.148c0.593,3.188,1.289,6.356,2.139,9.489c0.003,0.338-0.028,0.669-0.055,0.996
						c1.998-0.524,5.521-0.6,10.91,1.952c0.078-0.237,0.157-0.474,0.234-0.707c0.016-0.035,0.021-0.063,0.026-0.099
						c4.18-3.543,6.147-8.736,9.13-13.208c0.032-0.055,0.053-0.102,0.066-0.153c2.289-2.604,5.956-6.594,4.598-10.182
						c0.03-0.049,0.054-0.107,0.064-0.175c0.166-0.874,0.238-1.843,0.172-2.732c-0.031-0.362-0.369-0.456-0.635-0.345
						c-0.181-0.013-0.354,0.073-0.412,0.307c-0.177,0.677-0.361,1.349-0.535,2.024c-2.286,1.39-3.334,3.78-4.217,6.225
						c-0.317,0.741-0.623,1.474-0.947,2.15c-0.236,0.19-0.525,0.378-0.823,0.352c-0.415-0.032-0.659-0.316-0.884-0.646
						c-0.012-0.015-0.024-0.032-0.039-0.041c0.012-0.801,0.131-1.581,0.323-2.35c0.469-0.999,0.903-2.012,1.312-3.034
						c0.082-0.045,0.155-0.124,0.202-0.237c0.749-1.78,1.606-3.586,2.064-5.462c0.301-0.979,0.471-1.983,0.409-3.004
						c0.055-0.053,0.098-0.119,0.118-0.214c0.269-1.046,0.327-2.261-0.058-3.29c-0.015-0.063-0.036-0.119-0.072-0.169
						C166.356,55.694,166.149,55.647,165.964,55.708z"/>
					<path fill="#EDEBEB" d="M142.498,122.172c-0.026,0.307-0.19,0.503-0.397,0.619c-0.02,0.105-0.066,0.22-0.148,0.331
						c-1.257,1.672-2.658,3.255-4.178,4.697c2.172,0.518,4.303,1.145,6.379,1.876c0.443-1.734,0.899-3.467,1.381-5.192
						c0.859-3.062,1.778-6.105,2.721-9.142c-1.891-0.732-3.764-1.506-5.653-2.211C142.751,116.149,142.727,119.185,142.498,122.172z
						"/>
					<path fill="#EDEBEB" d="M126.349,135.848c0.244-0.182,0.488-0.364,0.743-0.534c0.284-0.188,0.579-0.174,0.829-0.062
						c0.392-0.055,0.828,0.123,0.956,0.61c0.146,0.576,0.348,1.144,0.576,1.704c0.68-0.773,1.396-1.513,2.17-2.203
						c0.345-0.306,0.733-0.228,1.004,0.004c0.221-0.023,0.444,0.054,0.614,0.309c0.665,1.01,1.312,2.034,1.937,3.069
						c0.789-0.865,1.599-1.7,2.483-2.466c0.272-0.231,0.567-0.233,0.815-0.12c0.31-0.187,0.723-0.221,1.046,0.103
						c0.904,0.901,1.695,1.915,2.45,2.958c0.538-2.657,1.136-5.301,1.786-7.931c-4.678-1.667-9.66-2.745-14.615-3.35
						C128.083,130.766,127.144,133.425,126.349,135.848z"/>
					<path fill="#EDEBEB" d="M134.184,121.038c-0.042-0.181-0.013-0.336,0.047-0.469c0.002-0.144,0.029-0.293,0.134-0.441
						c1.906-2.75,4.226-5.188,6.555-7.586c-1.621-0.551-3.269-1.015-4.969-1.318c-2.301,5.283-4.407,10.422-6.212,15.145
						c1.974,0.249,3.953,0.553,5.918,0.962C135.165,125.233,134.678,123.134,134.184,121.038z"/>
					<path fill="#EDEBEB" d="M151.094,106.27c-0.808,0.242-1.621,0.496-2.461,0.546c-0.302,0.02-0.546-0.23-0.684-0.462
						c-0.413-0.695-0.683-1.429-0.909-2.179c-1.01,0.531-2.046,1.031-2.991,1.668c-0.413,0.278-1.049,0.262-1.269-0.268
						c-0.278-0.674-0.596-1.443-1.005-2.094c-0.996,0.528-2.018,1.005-3.035,1.492c-0.721,1.584-1.426,3.159-2.117,4.729
						c4.212,0.824,8.126,2.565,12.124,4.105c0.798-2.522,1.607-5.039,2.441-7.554c-0.007-0.008-0.011-0.019-0.018-0.027
						C151.144,106.241,151.121,106.264,151.094,106.27z"/>
					<path fill="#EDEBEB" d="M145.466,88.928c-0.129,1.667-0.636,3.243-1.479,4.726c-0.027,0.043-0.005,0.086-0.018,0.131
						c3.705-0.348,7.432,0.234,10.779,1.873c0.545-1.592,1.088-3.186,1.627-4.778C150.987,88.328,147.464,88.404,145.466,88.928z"/>
					<path fill="#EDEBEB" d="M141.887,98.224c-0.703,1.471-1.394,2.956-2.083,4.438c0.633-0.304,1.262-0.612,1.875-0.966
						c0.31-0.175,0.75-0.054,0.973,0.208c0.512,0.619,0.914,1.393,1.254,2.157c1.086-0.633,2.201-1.201,3.294-1.831
						c0.463-0.267,1.052,0.099,1.15,0.585c0.179,0.857,0.229,2.458,1.196,2.201c0.416-0.109,0.83-0.226,1.238-0.347
						c0.25-0.072,0.457-0.029,0.61,0.079c0.097-0.03,0.202-0.021,0.305-0.021c0.838-2.507,1.678-5.02,2.53-7.524
						c-3.375-1.731-7.267-2.221-11.005-1.695C142.776,96.411,142.324,97.313,141.887,98.224z"/>
					<path fill="#333333" d="M138.477,136.159c-0.248-0.114-0.543-0.112-0.815,0.12c-0.885,0.767-1.694,1.601-2.483,2.466
						c-0.624-1.035-1.271-2.06-1.937-3.069c-0.17-0.255-0.394-0.332-0.614-0.309c-0.271-0.232-0.659-0.311-1.004-0.004
						c-0.773,0.69-1.49,1.429-2.17,2.203c-0.229-0.56-0.431-1.128-0.576-1.704c-0.128-0.487-0.564-0.665-0.956-0.61
						c-0.25-0.111-0.545-0.126-0.829,0.062c-0.255,0.17-0.499,0.352-0.743,0.534c-0.814,2.483-1.478,4.734-1.953,6.646
						c-0.332,1.339-0.637,2.66-0.923,3.963c0.013-0.011,0.025-0.011,0.042-0.022c0.922-0.743,1.808-1.527,2.689-2.317
						c0,0,0.006,0.001,0.014,0.005c0.276,0.918,0.59,1.826,1.01,2.679c0.389,0.786,1.439,0.429,1.529-0.254
						c1.044-0.836,2.034-1.741,2.996-2.688c0.66,0.928,1.217,1.996,1.611,3.042c0.093,0.244,0.252,0.379,0.431,0.438
						c0.186,0.094,0.412,0.104,0.658-0.051c1.391-0.891,2.579-1.973,3.673-3.193c0.83,1.142,1.646,2.292,2.444,3.458
						c0.235-1.825,0.5-3.646,0.831-5.459c0.18-0.958,0.378-1.915,0.571-2.875c-0.755-1.043-1.546-2.057-2.45-2.958
						C139.2,135.938,138.787,135.972,138.477,136.159z"/>
					<path fill="#333333" d="M135.95,111.224c1.701,0.304,3.348,0.768,4.969,1.318c-2.329,2.398-4.648,4.836-6.555,7.586
						c-0.104,0.147-0.132,0.297-0.134,0.441c-0.06,0.133-0.089,0.288-0.047,0.469c0.494,2.096,0.98,4.195,1.472,6.292
						c-1.965-0.409-3.944-0.713-5.918-0.962c-0.204,0.533-0.4,1.051-0.594,1.57c4.955,0.604,9.938,1.683,14.615,3.35
						c0.131-0.53,0.257-1.063,0.394-1.593c-2.076-0.731-4.207-1.358-6.379-1.876c1.521-1.442,2.921-3.024,4.178-4.697
						c0.082-0.111,0.128-0.226,0.148-0.331c0.207-0.116,0.371-0.312,0.397-0.619c0.229-2.987,0.254-6.023,0.104-9.022
						c1.89,0.705,3.763,1.479,5.653,2.211c0.16-0.518,0.332-1.033,0.492-1.552c-3.998-1.54-7.912-3.281-12.124-4.105
						C136.397,110.211,136.172,110.72,135.95,111.224z"/>
					<path fill="#298C99" d="M150.784,104.669c-0.408,0.121-0.822,0.237-1.238,0.347c-0.967,0.257-1.018-1.344-1.196-2.201
						c-0.098-0.486-0.687-0.852-1.15-0.585c-1.093,0.63-2.208,1.198-3.294,1.831c-0.34-0.764-0.742-1.538-1.254-2.157
						c-0.223-0.262-0.663-0.383-0.973-0.208c-0.613,0.354-1.242,0.662-1.875,0.966c-0.354,0.771-0.714,1.542-1.063,2.312
						c1.018-0.487,2.039-0.964,3.035-1.492c0.409,0.65,0.727,1.42,1.005,2.094c0.22,0.53,0.855,0.546,1.269,0.268
						c0.945-0.637,1.981-1.137,2.991-1.668c0.227,0.75,0.496,1.483,0.909,2.179c0.138,0.231,0.382,0.481,0.684,0.462
						c0.84-0.05,1.653-0.304,2.461-0.546c0.026-0.006,0.05-0.029,0.077-0.042c0.007,0.008,0.011,0.019,0.018,0.027
						c0.17-0.511,0.341-1.018,0.51-1.528c-0.103,0-0.208-0.009-0.305,0.021C151.241,104.64,151.034,104.597,150.784,104.669z"/>
					<path fill="#333333" d="M143.937,94.049c-0.24,0.484-0.473,0.974-0.713,1.458c3.738-0.525,7.63-0.036,11.005,1.695
						c0.172-0.516,0.348-1.029,0.521-1.545c-3.348-1.639-7.074-2.221-10.779-1.873C143.948,93.875,143.914,93.967,143.937,94.049z"
						/>
				</g>
				<path fill="#AC7A2B" d="M143.644,64.488c-0.03-0.01-0.074,0.002-0.113,0.01c-0.001,0.001-0.005,0-0.005,0h-0.001
					c-0.084,0.022-0.182,0.071-0.311,0.195c-0.715,0.687-1.08,1.594-1.248,2.553c-0.035,0.208,0.027,0.521,0.257,0.513
					c0.091,0.033,0.231-0.015,0.428-0.207c0.708-0.685,1.042-1.607,1.247-2.551C143.946,64.791,143.874,64.484,143.644,64.488z"/>
				<path fill="#AC7A2B" d="M153.193,52.583c-0.017,0.003-0.035,0.013-0.053,0.02c-0.068-0.009-0.162,0.009-0.29,0.058
					c-0.082-0.011-0.188-0.005-0.354,0.066c-1.076,0.462-1.822,1.448-1.854,2.626c-0.006,0.247,0.133,0.311,0.32,0.27
					c0.234,0.055,0.623-0.098,0.854-0.427c0.151-0.218,0.294-0.436,0.437-0.661c0.244-0.269,0.502-0.534,0.744-0.811
					c0.035-0.037,0.08-0.101,0.115-0.17C153.538,53.162,153.889,52.429,153.193,52.583z"/>
				<path fill="#AC7A2B" d="M160.5,51.57c-1.812,0.327-2.654,2.092-2.787,3.781c-0.011,0.052-0.021,0.102-0.014,0.143l-0.002,0.004
					c-0.025,0.449,0.461,0.288,0.85-0.025c1.013-0.653,1.256-1.954,1.83-2.979c0.107-0.1,0.217-0.197,0.288-0.322
					C160.768,51.999,160.888,51.5,160.5,51.57z"/>
				<path fill="#AC7A2B" d="M170.085,62.655c-0.209-0.062-0.363,0.205-0.396,0.405c-0.125,0.805-0.413,1.576-0.77,2.308
					c-0.092,0.185-0.065,0.52,0.026,0.81c0.126,0.637,0.482,0.826,1.034,0.659c0.087,0.031,0.182,0.028,0.253-0.104
					c0.003-0.006,0.004-0.012,0.006-0.017c0.048-0.044,0.095-0.092,0.138-0.158c0.098-0.116,0.186-0.259,0.248-0.447
					c0.037-0.111,0.032-0.237,0.037-0.358c0.08-0.232,0.139-0.476,0.153-0.739c0.001-0.104-0.011-0.177-0.023-0.246
					c0.04-0.645-0.078-1.296-0.413-1.92C170.302,62.701,170.189,62.643,170.085,62.655z"/>
				<path fill="#AC7A2B" d="M165.633,55.532c-0.005,0.042,0.009,0.088,0.004,0.132c-0.006,0.039-0.018,0.061-0.017,0.101
					c-0.048,0.863-0.419,1.688-0.686,2.5c-0.113,0.332-0.081,0.735,0.085,1.054c0.033,0.416,0.212,0.836,0.5,0.807
					c2.267-0.242,1.668-3.768,0.637-4.936C165.9,54.897,165.675,55.317,165.633,55.532z"/>
			</g>
			<g>
				<g>
					<path fill="#BF4C62" d="M11.329,67.983c-0.006-0.004-0.013-0.015-0.02-0.02c0.019-0.151,0.003-0.304-0.052-0.449
						c-0.012-0.092-0.026-0.181-0.061-0.27c0.161,0.432,0.06,0.143,0.04,0c0-0.02,0.001-0.039,0.004-0.06
						c0.054-0.342-0.106-0.648-0.361-0.85c0.201-0.265,0.432-0.505,0.728-0.692c0.077-0.048,0.146-0.102,0.211-0.158
						c0.074,0.084,0.148,0.168,0.221,0.252c0.17,0.011,0.303,0.101,0.441,0.185c3.013,1.83,4.844,4.873,6.975,7.136
						c-4.3-5.952-9.385-12.497-8.133-19.002c-0.105-0.175-0.205-0.353-0.307-0.529c0.584-0.289,1.19-0.541,1.789-0.808
						c0.028,0.063,0.057,0.125,0.082,0.19c5.985,3.495,5.91,6.877,10.335,12.008c-3.729-6.37-5.597-8.458-5.846-15.785
						c-0.081-0.083-0.161-0.163-0.241-0.246c0.438-0.218,0.885-0.413,1.343-0.581c0.139,0.224,0.368,0.371,0.628,0.434
						c0.04,0.043,0.087,0.081,0.141,0.116c0.002,0.004,0.005,0.006,0.006,0.009c6.397,3.863,9.195,10.896,13.308,16.738
						c-1.982-4.188-2.924-7.726-3.328-11.88c-0.01-0.063,0.002-0.125,0.013-0.188c-0.04-0.073-0.074-0.146-0.112-0.22
						c0.525-0.229,1.066-0.407,1.65-0.51c0.072,0.131,0.145,0.261,0.218,0.39c0.034,0.053,0.05,0.104,0.064,0.157
						c1.389,0.677,2.589,1.665,3.653,2.728c3.197,3.192,5.636,7.084,7.868,10.956c2.502,4.354,4.746,8.861,6.869,13.412
						c1.542,3.312,2.981,6.67,4.533,9.973c1.968,4.195,3.75,8.484,5.644,12.719c-0.659,0.925-1.27,1.881-1.838,2.871
						c-1.487-0.484-2.936-1.023-4.352-1.655c-0.493-0.223-0.997,0.267-1.1,0.699c-0.212,0.895-0.211,1.731-0.234,2.635
						c-0.009,0.318-3.073-0.969-3.431-1.098c-0.335-0.123-0.711,0.052-0.939,0.318c-0.645,0.748-0.981,1.49-1.368,2.381
						c-0.66,1.529-4.453-0.866-5.409-1.228c-0.451-0.17-1.072,0.221-1.099,0.701c-0.055,0.894-0.048,1.142,0.04,2.032
						c0.113,1.157-3.525-0.556-4.118-0.786c-0.459-0.176-1.06,0.23-1.102,0.7c-0.036,0.455-0.101,0.9-0.151,1.352
						c-5.159-9.078-10.408-18.104-16.129-26.848c-0.078-0.122-0.103-0.237-0.086-0.345C14.827,79.822,11.774,74.25,11.329,67.983z"
						/>
					<path fill="#D6D5D7" d="M75.86,136.975c0.139-0.169,0.199-0.393,0.108-0.634c-3.098-8.175-7.962-15.47-11.611-23.375
						c0.021-0.112,0.008-0.239-0.069-0.372c-1.422-2.571-2.702-5.22-3.926-7.898c-0.245-0.532-0.486-1.071-0.725-1.609
						c-0.66,0.925-1.269,1.88-1.838,2.872c-1.488-0.486-2.936-1.023-4.352-1.655c-0.494-0.224-0.997,0.266-1.1,0.698
						c-0.212,0.895-0.211,1.729-0.234,2.634c-0.009,0.319-3.071-0.967-3.43-1.097c-0.336-0.123-0.712,0.052-0.94,0.318
						c-0.646,0.747-0.981,1.489-1.367,2.381c-0.661,1.527-4.454-0.867-5.409-1.229c-0.451-0.169-1.073,0.223-1.101,0.702
						c-0.053,0.893-0.046,1.143,0.041,2.032c0.113,1.155-3.525-0.558-4.119-0.788c-0.458-0.176-1.059,0.23-1.1,0.701
						c-0.037,0.455-0.102,0.9-0.153,1.351c0.413,0.727,0.829,1.458,1.243,2.187c6.425,11.341,12.763,22.737,19.734,33.759
						c0.093,0.141,0.223,0.224,0.361,0.267c0.188,0.609,1.288,0.583,1.323-0.169c0.087-1.834-0.044-3.654-0.384-5.425
						c1.796,1.303,3.477,2.746,5.017,4.317c0.567,0.583,1.627-0.295,1.072-0.879c0.049-1.291-0.041-2.558-0.243-3.806
						c1.797,0.779,3.428,1.842,4.993,2.963c0.397,0.282,0.839,0.014,0.999-0.351c0.099-0.097,0.167-0.23,0.174-0.405
						c0.108-2.143-0.084-4.233-0.457-6.295c1.433,0.07,2.654,0.695,3.732,1.503c0.207,0.657,1.401,0.358,1.323-0.414
						c-0.108-1.048-0.308-2.078-0.563-3.087c0.617,0.423,1.204,0.884,1.761,1.383C75.118,138.004,75.934,137.479,75.86,136.975z"/>
				</g>
				<g>
					<path fill="#D6D5D7" d="M75.256,137.571c0.125-0.161,0.17-0.38,0.077-0.621c-3.234-8.221-8.096-15.64-11.837-23.615
						c0.014-0.109-0.003-0.238-0.079-0.371c-1.439-2.605-2.747-5.279-4.003-7.98c-0.25-0.535-0.499-1.08-0.747-1.623
						c-0.582,0.89-1.117,1.812-1.612,2.767c-1.419-0.537-2.806-1.133-4.159-1.816c-0.476-0.243-0.927,0.226-1.007,0.647
						c-0.164,0.876-0.13,1.705-0.115,2.597c0.002,0.316-2.928-1.083-3.272-1.226c-0.32-0.133-0.666,0.023-0.873,0.276
						c-0.571,0.717-0.861,1.435-1.188,2.303c-0.56,1.485-4.222-1.04-5.137-1.438c-0.43-0.183-0.997,0.177-1.003,0.65
						c-0.019,0.879-0.002,1.127,0.114,2.011c0.151,1.15-3.338-0.696-3.902-0.945c-0.438-0.196-0.988,0.182-1.009,0.646
						c-0.016,0.45-0.062,0.89-0.091,1.333c0.416,0.737,0.837,1.476,1.255,2.214c6.487,11.491,12.896,23.031,19.885,34.228
						c0.09,0.144,0.218,0.231,0.35,0.279c0.2,0.61,1.234,0.628,1.238-0.113c0.009-1.812-0.186-3.621-0.575-5.389
						c1.739,1.365,3.379,2.861,4.886,4.482c0.557,0.598,1.521-0.226,0.972-0.829c-0.001-1.275-0.136-2.531-0.376-3.776
						c1.721,0.845,3.297,1.963,4.812,3.137c0.387,0.298,0.788,0.048,0.925-0.305c0.089-0.096,0.149-0.226,0.149-0.396
						c0.017-2.116-0.246-4.192-0.676-6.249c1.348,0.128,2.523,0.795,3.568,1.639c0.221,0.66,1.33,0.414,1.228-0.355
						c-0.145-1.041-0.373-2.069-0.65-3.077c0.595,0.443,1.168,0.924,1.71,1.441C74.598,138.561,75.345,138.076,75.256,137.571z"/>
				</g>
				<path fill="#2A2828" d="M19.205,49.262c0.017-0.157-0.004-0.321-0.095-0.496c-0.746-1.365-1.719-2.573-2.911-3.565
					c-0.047-0.05-0.092-0.101-0.14-0.128c-0.017-0.012-0.029-0.027-0.049-0.041c-0.485-0.389-0.856,0.018-0.918,0.516
					c-0.052,0.19-0.04,0.409,0.085,0.63c0.816,1.405,1.856,2.662,2.933,3.858C18.693,50.688,19.354,49.931,19.205,49.262z"/>
				<path fill="#2A2828" d="M31.095,53.254c-0.521-1.006-1.063-1.999-1.576-3.007c-0.035-0.075-0.084-0.12-0.127-0.168
					c-0.395-0.838-1.63-0.435-1.278,0.489c0.091,0.233,0.191,0.461,0.288,0.693c0.236,1.163,0.729,2.201,1.484,3.101
					c0.345,0.406,0.728,0.266,0.942-0.057C31.122,54.1,31.319,53.687,31.095,53.254z"/>
				<path fill="#2A2828" d="M13.27,53.77c-0.326-1.74-1.278-3.258-2.555-4.458c-0.272-0.253-0.542-0.265-0.762-0.162
					c-0.412,0.036-0.784,0.405-0.594,0.989c0.518,1.576,1.297,3.02,2.294,4.342c0.134,0.18,0.354,0.248,0.567,0.23
					C12.679,54.987,13.414,54.545,13.27,53.77z"/>
				<path fill="#2A2828" d="M12.595,67.257c0.214-0.174,0.353-0.469,0.256-0.836c-0.039-0.167-0.116-0.312-0.168-0.473
					c0.004-0.128-0.024-0.266-0.098-0.401c-0.037-0.068-0.085-0.129-0.123-0.199c-0.019-0.029-0.021-0.071-0.041-0.108
					c-0.054-0.112-0.116-0.195-0.194-0.255c-0.605-0.914-1.372-1.672-2.34-2.204c-0.745-0.412-1.254,0.684-0.868,1.228
					c0.008,0.015,0.004,0.03,0.013,0.044c0.353,0.731,0.788,1.398,1.285,2.019c0.021,0.052,0.027,0.109,0.057,0.161
					c0.311,0.537,0.698,0.962,1.224,1.283c0.172,0.101,0.324,0.106,0.465,0.065C12.274,67.565,12.469,67.444,12.595,67.257z"/>
				<path fill="#943950" d="M17.431,75.226c-0.689-1.227-1.301-2.49-1.852-3.785c-0.381-0.899-1.753-0.267-1.374,0.626
					c0.553,1.299,1.166,2.561,1.852,3.787C16.529,76.699,17.903,76.078,17.431,75.226z"/>
				<path fill="#943950" d="M20.454,75.291c-0.68-0.546-1.148-1.233-1.534-2.012c-0.433-0.866-1.81-0.242-1.374,0.629
					c0.512,1.02,1.148,1.896,2.04,2.62C20.342,77.141,21.208,75.901,20.454,75.291z"/>
				<path fill="#943950" d="M20.547,80.458c-0.267-0.442-0.389-0.928-0.589-1.397c-0.385-0.9-1.758-0.268-1.375,0.624
					c0.204,0.473,0.324,0.958,0.594,1.402C19.674,81.912,21.051,81.292,20.547,80.458z"/>
				<path fill="#943950" d="M24.446,80.005c-0.303-0.259-0.531-0.559-0.716-0.91c-0.457-0.86-1.83-0.236-1.372,0.625
					c0.313,0.599,0.703,1.082,1.217,1.518C24.322,81.87,25.182,80.631,24.446,80.005z"/>
				<path fill="#943950" d="M27.017,75.088c-0.8-0.625-1.479-1.366-2.171-2.105c-0.658-0.709-1.828,0.247-1.164,0.958
					c0.784,0.838,1.561,1.671,2.467,2.384C26.915,76.923,27.781,75.688,27.017,75.088z"/>
				<path fill="#943950" d="M27.499,71.058c-0.275-0.559-0.597-0.998-1.074-1.404c-0.736-0.633-1.599,0.608-0.866,1.234
					c0.265,0.229,0.415,0.493,0.567,0.8C26.559,72.561,27.93,71.932,27.499,71.058z"/>
				<path fill="#943950" d="M27.339,64.445c-0.405-0.516-0.784-1.05-1.154-1.593c-0.546-0.811-1.704,0.159-1.162,0.958
					c0.367,0.542,0.744,1.076,1.155,1.593C26.777,66.171,27.936,65.207,27.339,64.445z"/>
				<path fill="#943950" d="M28.862,62.136c-0.305-0.766-0.884-1.259-1.52-1.748c-0.773-0.593-1.637,0.645-0.867,1.234
					c0.432,0.332,0.808,0.622,1.015,1.14C27.853,63.669,29.223,63.035,28.862,62.136z"/>
				<path fill="#943950" d="M35.48,64.95c-0.351-0.323-0.483-0.891-0.636-1.325c-0.32-0.922-1.689-0.285-1.373,0.627
					c0.264,0.756,0.547,1.383,1.142,1.932C35.327,66.839,36.188,65.6,35.48,64.95z"/>
				<path fill="#943950" d="M36.529,61.737c-0.481-0.61-0.958-1.196-1.568-1.695c-0.753-0.614-1.618,0.621-0.868,1.238
					c0.5,0.403,0.873,0.914,1.272,1.422C35.965,63.463,37.127,62.503,36.529,61.737z"/>
				<path fill="#943950" d="M32.687,58.32c-0.132-0.653-0.446-1.23-0.682-1.848c-0.342-0.913-1.71-0.281-1.37,0.625
					c0.181,0.493,0.465,0.969,0.564,1.482C31.394,59.533,32.881,59.277,32.687,58.32z"/>
				<path fill="#943950" d="M24.131,59.943c-0.258-0.544-0.497-1.09-0.48-1.704c0.023-0.968-1.477-1.098-1.505-0.125
					c-0.022,0.883,0.239,1.666,0.612,2.456C23.178,61.451,24.548,60.824,24.131,59.943z"/>
				<path fill="#943950" d="M20.708,67.528c-0.24-0.668-0.525-1.306-0.64-2.009c-0.161-0.958-1.646-0.701-1.486,0.26
					c0.136,0.828,0.473,1.589,0.75,2.374C19.661,69.072,21.029,68.435,20.708,67.528z"/>
				<path fill="#943950" d="M23.243,70.419c-0.215-0.626-0.388-1.244-0.491-1.897c-0.147-0.961-1.637-0.702-1.487,0.256
					c0.121,0.782,0.352,1.522,0.604,2.262C22.186,71.966,23.555,71.329,23.243,70.419z"/>
				<path fill="#943950" d="M30.871,69.131c-0.277-0.469-0.608-0.81-1.036-1.143c-0.768-0.595-1.636,0.643-0.869,1.236
					c0.209,0.157,0.399,0.304,0.533,0.532C29.987,70.587,31.366,69.967,30.871,69.131z"/>
				<path fill="#943950" d="M34.784,72.028c-0.296-1.167-0.711-2.282-1.157-3.403c-0.357-0.904-1.726-0.269-1.37,0.631
					c0.396,0.994,0.778,1.99,1.042,3.027C33.543,73.224,35.033,72.97,34.784,72.028z"/>
				<path fill="#943950" d="M38.325,71.184c-0.279-0.438-0.519-0.922-0.613-1.431c-0.178-0.958-1.664-0.7-1.487,0.257
					c0.143,0.78,0.511,1.474,0.936,2.134C37.688,72.959,38.846,71.987,38.325,71.184z"/>
				<path fill="#943950" d="M41.809,71.226c-0.339-1.272-0.888-2.45-1.462-3.628c-0.424-0.877-1.797-0.248-1.373,0.622
					c0.519,1.058,1.044,2.12,1.345,3.263C40.569,72.419,42.057,72.165,41.809,71.226z"/>
				<path fill="#943950" d="M36.298,77.55c-0.347-0.708-0.692-1.416-0.959-2.158c-0.334-0.917-1.702-0.281-1.375,0.626
					c0.272,0.744,0.616,1.452,0.964,2.16C35.351,79.054,36.724,78.425,36.298,77.55z"/>
				<path fill="#943950" d="M32.261,77.552c-0.5-0.869-0.853-1.77-1.007-2.768c-0.146-0.964-1.631-0.701-1.487,0.259
					c0.173,1.112,0.56,2.162,1.126,3.135C31.375,79.013,32.75,78.39,32.261,77.552z"/>
				<path fill="#943950" d="M30.668,82.739l-1.559-2.614c-0.493-0.828-1.87-0.21-1.373,0.626l1.559,2.615
					C29.792,84.195,31.167,83.575,30.668,82.739z"/>
				<path fill="#943950" d="M26.684,87.903c-0.271-0.909-0.638-1.757-1.053-2.61c-0.424-0.876-1.795-0.247-1.372,0.628
					c0.354,0.729,0.704,1.459,0.938,2.239C25.473,89.081,26.96,88.833,26.684,87.903z"/>
				<path fill="#943950" d="M31.967,89.423c-0.435-0.853-0.977-1.645-1.41-2.5c-0.443-0.867-1.813-0.239-1.374,0.628
					c0.433,0.857,0.977,1.645,1.41,2.5C31.034,90.923,32.405,90.292,31.967,89.423z"/>
				<path fill="#943950" d="M28.058,92.994c-0.39-0.522-0.612-1.113-0.822-1.726c-0.316-0.92-1.688-0.285-1.374,0.625
					c0.257,0.745,0.558,1.427,1.031,2.06C27.475,94.736,28.638,93.769,28.058,92.994z"/>
				<path fill="#943950" d="M36.204,92.577c-0.427-0.56-0.73-1.175-0.971-1.839c-0.327-0.915-1.698-0.279-1.37,0.628
					c0.283,0.784,0.674,1.509,1.179,2.173C35.627,94.318,36.788,93.353,36.204,92.577z"/>
				<path fill="#943950" d="M37.643,86.649c-0.162-0.397-0.207-0.824-0.264-1.25c-0.135-0.967-1.622-0.704-1.488,0.256
					c0.076,0.562,0.166,1.1,0.383,1.621C36.647,88.178,38.018,87.545,37.643,86.649z"/>
				<path fill="#943950" d="M35.083,85.302c-0.313-1.103-0.602-2.215-1.015-3.284c-0.351-0.914-1.717-0.277-1.371,0.626
					c0.366,0.954,0.621,1.938,0.894,2.915C33.852,86.488,35.339,86.239,35.083,85.302z"/>
				<path fill="#943950" d="M39.121,83.18c-0.464-0.531-0.936-1.052-1.063-1.771c-0.171-0.958-1.658-0.701-1.488,0.256
					c0.175,0.987,0.746,1.737,1.387,2.479C38.593,84.875,39.756,83.915,39.121,83.18z"/>
				<path fill="#943950" d="M41.939,80.116c-0.406-0.555-0.553-1.237-0.562-1.917c-0.017-0.962-1.521-1.102-1.503-0.125
					c0.019,1.095,0.246,2.104,0.9,3.001C41.348,81.862,42.507,80.895,41.939,80.116z"/>
				<path fill="#943950" d="M39.064,76.107c-0.237-0.513-0.439-1.035-0.739-1.515c-0.509-0.817-1.887-0.196-1.375,0.623
					c0.301,0.485,0.507,1.001,0.743,1.518C38.102,77.617,39.472,76.988,39.064,76.107z"/>
				<path fill="#943950" d="M45.24,77.657c-0.569-0.673-1.029-1.399-1.419-2.185c-0.432-0.869-1.807-0.243-1.372,0.625
					c0.448,0.898,0.974,1.753,1.628,2.518C44.708,79.358,45.869,78.399,45.24,77.657z"/>
				<path fill="#943950" d="M50.873,89.784c-0.276-0.952-0.637-1.883-0.916-2.833c-0.269-0.926-1.757-0.677-1.486,0.256
					c0.28,0.954,0.64,1.883,0.918,2.836C49.657,90.967,51.147,90.718,50.873,89.784z"/>
				<path fill="#943950" d="M46.711,89.697c-0.402-0.514-0.781-1.047-1.152-1.592c-0.544-0.803-1.703,0.161-1.164,0.961
					c0.369,0.542,0.746,1.074,1.154,1.594C46.151,91.425,47.311,90.461,46.711,89.697z"/>
				<path fill="#943950" d="M42.659,86.923c-0.356-0.728-0.708-1.46-0.938-2.237c-0.278-0.921-1.765-0.672-1.488,0.256
					c0.271,0.906,0.639,1.753,1.056,2.607C41.716,88.425,43.083,87.799,42.659,86.923z"/>
				<path fill="#943950" d="M46.123,84.264c-0.248-0.367-0.487-0.723-0.578-1.166c-0.196-0.953-1.682-0.698-1.487,0.259
					c0.143,0.706,0.504,1.277,0.903,1.865C45.502,86.028,46.663,85.061,46.123,84.264z"/>
				<path fill="#943950" d="M48.349,83.208c-0.335-0.691-0.661-1.366-0.788-2.127c-0.16-0.96-1.645-0.701-1.488,0.259
					c0.15,0.888,0.514,1.688,0.902,2.493C47.403,84.707,48.775,84.08,48.349,83.208z"/>
				<path fill="#943950" d="M42.519,97.97l-1.217-3.065c-0.358-0.909-1.729-0.273-1.37,0.626l1.216,3.066
					C41.506,99.503,42.874,98.867,42.519,97.97z"/>
				<path fill="#943950" d="M40.237,91.954c-0.438-0.883-0.921-1.737-1.296-2.654c-0.372-0.903-1.742-0.267-1.371,0.627
					c0.376,0.914,0.854,1.771,1.297,2.652C39.3,93.45,40.668,92.825,40.237,91.954z"/>
				<path fill="#943950" d="M46.464,95.289c-0.418-0.85-0.862-1.673-1.477-2.401c-0.627-0.747-1.79,0.215-1.164,0.96
					c0.531,0.633,0.909,1.328,1.266,2.068C45.522,96.792,46.893,96.165,46.464,95.289z"/>
				<path fill="#943950" d="M38.225,99.812l-0.768-2.723c-0.264-0.927-1.749-0.679-1.488,0.256l0.767,2.721
					C37.001,100.996,38.489,100.747,38.225,99.812z"/>
				<path fill="#943950" d="M33.874,97.432c-0.125-0.924-0.303-1.774-0.857-2.542c-0.568-0.794-1.728,0.171-1.166,0.955
					c0.387,0.541,0.454,1.207,0.535,1.844C32.518,98.657,34.001,98.395,33.874,97.432z"/>
				<path fill="#943950" d="M32.91,101.537c-0.478-0.828-0.856-1.7-1.125-2.613c-0.269-0.923-1.76-0.677-1.488,0.255
					c0.307,1.044,0.695,2.042,1.241,2.988C32.02,103.001,33.395,102.379,32.91,101.537z"/>
				<path fill="#943950" d="M37.404,105.6c-0.44-0.578-0.741-1.227-0.947-1.924c-0.276-0.918-1.769-0.672-1.487,0.258
					c0.286,0.957,0.664,1.827,1.271,2.627C36.829,107.333,37.99,106.373,37.404,105.6z"/>
				<path fill="#943950" d="M46.401,100.603c-0.165-0.997-0.623-1.856-1.271-2.622c-0.625-0.746-1.791,0.214-1.165,0.956
					c0.485,0.579,0.828,1.171,0.95,1.924C45.072,101.822,46.554,101.562,46.401,100.603z"/>
				<path fill="#943950" d="M41.512,103.271c-0.061-0.441-0.116-0.881-0.178-1.32c-0.131-0.967-1.613-0.704-1.486,0.257
					c0.059,0.443,0.118,0.88,0.177,1.323C40.153,104.499,41.639,104.235,41.512,103.271z"/>
				<path fill="#943950" d="M50.514,94.949c-0.246-0.213-0.42-0.51-0.566-0.793c-0.457-0.86-1.827-0.238-1.376,0.624
					c0.286,0.541,0.614,1.002,1.071,1.406C50.372,96.831,51.23,95.592,50.514,94.949z"/>
				<path fill="#943950" d="M55.008,99.591c-0.148-1.097-0.318-2.195-0.862-3.174c-0.468-0.85-1.844-0.225-1.37,0.629
					c0.484,0.87,0.611,1.826,0.743,2.798C53.649,100.814,55.136,100.55,55.008,99.591z"/>
				<path fill="#943950" d="M52.325,101.908c-0.358-0.731-0.708-1.462-0.936-2.24c-0.281-0.921-1.768-0.673-1.49,0.259
					c0.27,0.908,0.638,1.756,1.055,2.608C51.378,103.407,52.75,102.778,52.325,101.908z"/>
				<path fill="#BCBBBB" d="M54.937,112.554c-0.397-0.784-0.916-1.489-1.373-2.241c-0.499-0.819-1.876-0.201-1.376,0.628
					c0.46,0.75,0.982,1.457,1.379,2.239C54.01,114.045,55.381,113.417,54.937,112.554z"/>
				<path fill="#BCBBBB" d="M60.676,118.621c-0.697-1.024-1.398-2.031-1.826-3.204c-0.335-0.917-1.702-0.279-1.371,0.628
					c0.471,1.291,1.262,2.408,2.034,3.54C60.063,120.39,61.219,119.42,60.676,118.621z"/>
				<path fill="#BCBBBB" d="M55.414,117.941l-0.556-1.139c-0.428-0.873-1.8-0.248-1.371,0.628l0.553,1.135
					C54.467,119.441,55.84,118.816,55.414,117.941z"/>
				<path fill="#BCBBBB" d="M51.19,118.597c-0.305-0.606-0.641-1.177-0.752-1.855c-0.162-0.962-1.649-0.705-1.492,0.254
					c0.141,0.813,0.51,1.503,0.873,2.23C50.252,120.096,51.623,119.47,51.19,118.597z"/>
				<path fill="#BCBBBB" d="M44.876,114.654c-0.478-0.824-0.855-1.699-1.124-2.616c-0.273-0.922-1.761-0.673-1.49,0.258
					c0.309,1.043,0.695,2.041,1.241,2.988C43.985,116.118,45.361,115.496,44.876,114.654z"/>
				<path fill="#BCBBBB" d="M39.937,114.328c-0.241-0.387-0.349-0.819-0.34-1.271c0.014-0.969-1.486-1.105-1.503-0.129
					c-0.018,0.881,0.214,1.615,0.681,2.36C39.287,116.111,40.446,115.141,39.937,114.328z"/>
				<path fill="#BCBBBB" d="M49.289,111.678c-0.271-0.412-0.391-0.827-0.466-1.313c-0.148-0.962-1.639-0.702-1.488,0.261
					c0.121,0.755,0.37,1.376,0.788,2.015C48.659,113.454,49.813,112.483,49.289,111.678z"/>
				<path fill="#BCBBBB" d="M59.586,108.742c-0.226-0.422-0.484-0.826-0.707-1.249c-0.449-0.861-1.824-0.236-1.37,0.624
					c0.218,0.428,0.479,0.825,0.701,1.253C58.661,110.229,60.035,109.605,59.586,108.742z"/>
				<path fill="#BCBBBB" d="M63.271,115.161c-0.288-0.968-0.694-1.852-1.202-2.719c-0.49-0.835-1.865-0.213-1.375,0.628
					c0.442,0.745,0.841,1.513,1.09,2.349C62.059,116.341,63.548,116.094,63.271,115.161z"/>
				<path fill="#BCBBBB" d="M64.324,121.285c-0.241-0.697-0.493-1.378-0.81-2.045c-0.42-0.878-1.791-0.249-1.374,0.628
					c0.317,0.664,0.572,1.349,0.81,2.042C63.27,122.833,64.636,122.195,64.324,121.285z"/>
				<path fill="#BCBBBB" d="M68.496,125.087c-0.068-0.31-0.188-0.599-0.255-0.906c-0.206-0.95-1.693-0.695-1.488,0.26
					c0.065,0.307,0.193,0.599,0.255,0.905C67.211,126.299,68.7,126.042,68.496,125.087z"/>
				<path fill="#BCBBBB" d="M48.564,125.136c-0.301-0.609-0.64-1.182-0.75-1.86c-0.163-0.963-1.646-0.702-1.489,0.259
					c0.138,0.813,0.503,1.496,0.867,2.226C47.626,126.631,48.999,126.007,48.564,125.136z"/>
				<path fill="#BCBBBB" d="M44.158,119.861c-0.484-0.578-0.825-1.169-0.948-1.919c-0.159-0.963-1.645-0.703-1.486,0.257
					c0.163,1,0.622,1.854,1.269,2.624C43.621,121.566,44.785,120.607,44.158,119.861z"/>
				<path fill="#BCBBBB" d="M53.813,127.269c-0.523-0.603-1.023-1.211-1.387-1.921c-0.439-0.866-1.812-0.24-1.373,0.625
					c0.424,0.831,0.984,1.552,1.593,2.252C53.287,128.961,54.449,127.999,53.813,127.269z"/>
				<path fill="#BCBBBB" d="M61.36,125.909c-0.337-0.512-0.553-1.087-0.653-1.688c-0.16-0.963-1.645-0.704-1.486,0.255
					c0.146,0.876,0.491,1.656,0.972,2.396C60.721,127.687,61.879,126.716,61.36,125.909z"/>
				<path fill="#BCBBBB" d="M65.347,128.949c-0.241-0.493-0.508-0.958-0.81-1.419c-0.533-0.814-1.689,0.156-1.166,0.962
					c0.228,0.348,0.419,0.708,0.604,1.084C64.404,130.45,65.777,129.821,65.347,128.949z"/>
				<path fill="#BCBBBB" d="M61.523,135.194c-0.42-0.531-0.834-1.052-1.081-1.692c-0.354-0.909-1.725-0.275-1.375,0.627
					c0.295,0.757,0.794,1.396,1.295,2.029C60.97,136.917,62.13,135.954,61.523,135.194z"/>
				<path fill="#BCBBBB" d="M57.72,122.828c-0.089-0.554-0.252-1.095-0.238-1.659c0.02-0.968-1.485-1.106-1.503-0.126
					c-0.014,0.702,0.145,1.354,0.257,2.041C56.386,124.045,57.874,123.786,57.72,122.828z"/>
				<path fill="#BCBBBB" d="M52.796,133.266c-1.092-1.074-2.169-2.154-3.136-3.347c-0.615-0.756-1.776,0.205-1.164,0.959
					c0.965,1.19,2.044,2.273,3.135,3.347C52.317,134.901,53.488,133.946,52.796,133.266z"/>
				<path fill="#BCBBBB" d="M58.893,131.384c-0.496-0.646-0.861-1.375-1.271-2.074c-0.49-0.83-1.868-0.211-1.372,0.626
					c0.475,0.812,0.904,1.657,1.479,2.405C58.319,133.114,59.479,132.151,58.893,131.384z"/>
				<path fill="#BCBBBB" d="M54.989,140.636c-0.406-0.551-0.546-1.232-0.559-1.912c-0.021-0.96-1.522-1.102-1.505-0.125
					c0.017,1.094,0.246,2.103,0.899,3C54.402,142.386,55.561,141.419,54.989,140.636z"/>
				<path fill="#BCBBBB" d="M60.723,140.277c-0.305-0.457-0.518-0.882-0.614-1.428c-0.166-0.959-1.652-0.7-1.485,0.257
					c0.141,0.809,0.482,1.456,0.938,2.13C60.106,142.045,61.264,141.078,60.723,140.277z"/>
				<path fill="#BCBBBB" d="M65.497,141.165c-0.287-0.465-0.477-0.936-0.566-1.48c-0.164-0.957-1.648-0.7-1.486,0.259
					c0.11,0.66,0.327,1.279,0.681,1.849C64.63,142.611,66.008,141.992,65.497,141.165z"/>
				<path fill="#BCBBBB" d="M68.263,135.685c-0.348-0.56-0.563-1.159-0.775-1.777c-0.318-0.921-1.687-0.284-1.372,0.626
					c0.213,0.617,0.43,1.221,0.773,1.779C67.399,137.129,68.776,136.51,68.263,135.685z"/>
				<path fill="#BCBBBB" d="M72.209,137.042c-0.2-0.44-0.339-0.885-0.416-1.365c-0.165-0.96-1.648-0.706-1.491,0.255
					c0.101,0.602,0.283,1.184,0.535,1.738C71.241,138.557,72.613,137.926,72.209,137.042z"/>
				<path fill="#BCBBBB" d="M72.413,132.128c-0.525-0.652-1.075-1.285-1.603-1.938c-0.612-0.758-1.772,0.201-1.164,0.961
					c0.523,0.65,1.075,1.282,1.603,1.935C71.86,133.848,73.022,132.886,72.413,132.128z"/>
				<path fill="#BCBBBB" d="M64.631,135.421c-0.224-0.818-0.355-1.65-0.469-2.492c-0.131-0.966-1.616-0.702-1.487,0.259
					c0.112,0.839,0.247,1.673,0.468,2.49C63.392,136.61,64.879,136.361,64.631,135.421z"/>
				<path fill="#BCBBBB" d="M56.956,136.208c-0.125-0.154-0.211-0.335-0.336-0.491c-0.601-0.768-1.76,0.191-1.164,0.96
					c0.121,0.155,0.21,0.333,0.334,0.493C56.39,137.934,57.552,136.974,56.956,136.208z"/>
			</g>
			<g>
				<g>
					<path fill="#BF4B62" d="M196.466,80.333c2.914-2.931,6.204-6.149,6.722-10.531c0.066-0.555,0.037-1.155-0.074-1.74
						c0.088-0.05,0.176-0.108,0.27-0.171c0.479-0.348,0.553-0.688,0.396-1.237c-0.105-0.364-0.264-0.715-0.439-1.046
						c-0.033-0.1-0.08-0.189-0.149-0.264c-0.053-0.091-0.104-0.184-0.159-0.272c-0.146-0.23-0.373-0.325-0.595-0.325
						c-0.11-0.175-0.299-0.281-0.513-0.3c-0.023-0.006-0.047-0.012-0.067-0.022c-0.13-0.039-0.259-0.068-0.391-0.085
						c-0.349-0.059-0.667,0.283-0.688,0.609c-0.002,0.005,0.001,0.014,0.001,0.017c-0.033,0.046-0.065,0.099-0.09,0.156
						c-0.033,0.075-0.063,0.15-0.094,0.23c-0.377,0.022-0.8,0.148-1.258,0.408c-2.882,1.646-4.923,5.159-6.645,7.875
						c-1.47,2.305-2.921,4.712-3.998,7.235c-0.182,0.43-0.37,0.859-0.558,1.284c1.787,0.373,3.53,1.05,5.18,2.02
						C194.309,82.776,195.422,81.383,196.466,80.333z"/>
					<path fill="#BF4B62" d="M203.1,85.806c1.472-1.302,2.898-2.655,4.179-4.147c0.922-1.07,1.888-2.354,2.026-3.805
						c0.021-0.223,0.005-0.447-0.04-0.655c0.477-0.262,0.915-0.599,1.114-1.132c0.216-0.593-0.12-1.207-0.5-1.643
						c-0.191-0.222-0.437-0.262-0.652-0.197c-0.085-0.041-0.185-0.068-0.277-0.078c-0.251-0.084-0.55-0.044-0.757,0.21
						c-0.272,0.335-0.55,0.655-0.829,0.98c-0.169-0.039-0.345-0.063-0.517-0.063c-1.667-0.014-3.231,1.325-4.487,2.267
						c-2.358,1.769-4.197,3.744-5.964,6.106c-0.432,0.577-0.854,1.159-1.295,1.734c1.528,1.184,2.819,2.572,3.831,4.117
						C200.29,88.149,201.833,86.934,203.1,85.806z"/>
					<path fill="#BF4B62" d="M178.434,76.187c-0.349-0.815-1.091-2.125-2.009-2.75c-0.019-0.153-0.036-0.308-0.057-0.456
						c-0.016-0.177-0.127-0.324-0.27-0.416c0.075-0.312-0.093-0.698-0.425-0.783c-0.498-0.124-1.009-0.024-1.46,0.226
						c-0.31,0.17-0.461,0.54-0.305,0.868c0.009,0.012,0.017,0.022,0.025,0.032c-0.025,0.062-0.043,0.128-0.039,0.199
						c0.023,0.438,0.08,0.87,0.128,1.305c0.005,0.02,0.005,0.043,0.009,0.064c-0.059,0.193-0.104,0.384-0.133,0.571
						c-0.561,3.08-0.055,6.394,0.192,9.49c0.024,0.293,0.029,0.59,0.047,0.882c1.568-1.228,3.319-2.148,5.168-2.754
						C179.374,80.45,179.318,78.26,178.434,76.187z"/>
					<path fill="#BF4B62" d="M188.695,77.583c1.526-2.491,3.055-5.021,3.565-7.938c0.18-1.024,0.421-3.195-0.329-4.371
						c0.087-0.169,0.171-0.342,0.262-0.51c0.064-0.118,0.087-0.242,0.085-0.35c0.099-0.254,0.056-0.558-0.234-0.75
						c-0.412-0.28-0.828-0.558-1.292-0.736c-0.37-0.142-0.661,0.064-0.778,0.351c-0.063,0.084-0.108,0.182-0.128,0.301
						c-0.062,0.363-0.135,0.724-0.209,1.086c-1.397,0.647-2.263,2.821-2.676,4.026c-0.019,0.056-0.028,0.111-0.034,0.164
						c-1.595,3.296-2.787,6.743-3.931,10.218c-0.323,0.983-0.651,1.965-0.991,2.941c1.441-0.229,2.905-0.283,4.363-0.136
						C187.034,80.415,187.823,79.003,188.695,77.583z"/>
					<path fill="#BF4B62" d="M201.466,96.001c1.981-1.507,3.931-3.061,5.734-4.771c0.269,0.081,3.668-3.471,4.784-5.147
						c0.035-0.026,0.071-0.044,0.106-0.079c0.354-0.332,0.687-0.726,0.918-1.154c0.53-0.463,0.934-1.034,1.218-1.712
						c0.099-0.251,0.044-0.459-0.092-0.605c-0.072-0.513-0.377-0.971-0.728-1.336c-0.182-0.183-0.442-0.263-0.677-0.199
						c-0.239-0.064-0.505-0.008-0.675,0.262c-0.201,0.299-0.381,0.603-0.559,0.913c-4.813,1.724-7.888,5.841-11.501,9.236
						C200.704,92.867,201.197,94.413,201.466,96.001z"/>
					<path fill="#653B46" d="M199.996,91.407c-1.306,1.228-2.684,2.363-4.241,3.253c0.383-1.966,1.666-3.65,3.178-5.16
						c-1.012-1.545-2.303-2.934-3.831-4.117c-1.463,1.934-3.002,3.796-4.99,5.197c-0.06-0.599,0.349-0.814,0.506-1.389
						c0.373-1.333,0.618-1.731,1.121-2.603c0.443-0.763,0.996-1.586,1.579-2.415c-1.649-0.97-3.393-1.647-5.18-2.02
						c-0.692,1.573-1.438,3.101-2.421,4.54c-0.289,0.423-0.627,0.943-1.055,1.285c0.001-0.047,0.003-0.099,0.003-0.161
						c0.012-0.589,0.146-1.181,0.272-1.748c0.327-1.489,0.83-2.863,1.43-4.189c-1.458-0.147-2.921-0.093-4.363,0.136
						c-0.272,0.797-0.551,1.595-0.849,2.392c-0.558,1.497-1.072,3.027-1.74,4.482c-0.326-2.037-0.166-4.14-0.109-6.226
						c-1.849,0.606-3.6,1.526-5.168,2.754c0.124,2.114,0.116,4.235-0.029,6.357c-0.275,4.086-0.986,8.159-1.89,12.116
						c-0.036,0.137-0.025,0.267,0.018,0.382c-0.493,1.459-1.028,2.896-1.601,4.322c-4.229,10.558-12.509,21.182-15.953,26.688
						c-1.316,2.109-2.659,4.198-3.973,6.312c-1.148,1.842-2.257,3.801-3.694,5.438c-0.281,0.323-0.136,0.666,0.142,0.844
						c0.047,0.06,0.103,0.112,0.183,0.159c0.66,0.404,1.456,0.427,2.221,0.306c0.301,0.988,0.391,2.06,0.276,3.084
						c-0.043,0.371,0.193,0.593,0.475,0.653c0.097,0.023,0.2,0.035,0.3,0.027c0.746-0.055,1.434-0.318,2.08-0.673
						c0.336,0.836,0.629,1.677,0.785,2.562c-0.434,0.58,0.267,1.419,0.817,1.003c0.263-0.062,0.508-0.263,0.542-0.575
						c5.322-5.118,18.721-29.528,25.611-39.026c1.181-1.628,2.57-3.097,3.947-4.578c0.048-0.053,0.082-0.108,0.111-0.163
						c2.651-2.111,4.881-4.632,7.318-6.974c0.424-0.405,0.835-0.819,1.277-1.213c2.436-2.166,5.156-4.023,7.75-5.996
						c0.206-0.155,0.411-0.313,0.614-0.473C201.197,94.413,200.704,92.867,199.996,91.407z"/>
				</g>
				<path fill="#2A2828" d="M176.241,74.233c0.016-0.041,0.018-0.088,0.027-0.132c0.016-0.026,0.037-0.051,0.044-0.08
					c0.007-0.042-0.007-0.086,0-0.132c0.052-0.295,0.048-0.594,0.009-0.891c-0.007-0.061-0.02-0.12-0.029-0.183
					c-0.049-0.246-0.109-0.494-0.199-0.716c-0.005-0.021-0.021-0.023-0.03-0.038c-0.021-0.062-0.028-0.133-0.057-0.195
					c-0.114-0.262-0.718-0.249-1.089-0.07c-0.255,0.053-0.51,0.123-0.757,0.228c-0.129,0.048-0.268,0.178-0.291,0.304
					c-0.045,0.058-0.08,0.122-0.08,0.194c-0.013,0.722,0.175,1.423,0.491,2.069c0.06,0.12,0.231,0.171,0.422,0.182
					c0.364,0.182,1.116,0.026,1.232-0.278C176.087,74.432,176.206,74.346,176.241,74.233z"/>
				<path fill="#2A2828" d="M192.889,64.398c0.054-0.114-0.008-0.237-0.121-0.344c-0.029-0.087-0.104-0.178-0.182-0.245
					c-0.075-0.129-0.229-0.239-0.421-0.317c-0.018-0.011-0.032-0.028-0.054-0.039c-0.277-0.157-0.546-0.314-0.812-0.484
					c-0.025-0.014-0.067-0.026-0.094-0.041c-0.199-0.153-0.504-0.255-0.758-0.265c-0.281-0.055-0.54-0.022-0.595,0.174
					c-0.239,0.808-0.486,1.712-0.395,2.563c0.009,0.123,0.116,0.229,0.256,0.315c0.092,0.239,0.489,0.438,0.835,0.488
					c0.257,0.118,0.544,0.18,0.705,0.102C192.032,65.935,192.543,65.165,192.889,64.398z"/>
				<path fill="#2A2828" d="M204.825,66.528c-0.48-1.145-1.512-1.818-2.583-2.344c-0.085-0.041-0.19-0.078-0.305-0.109
					c-0.306-0.126-0.655-0.151-0.782,0.017c-0.498,0.693-0.998,1.39-1.29,2.199c-0.04,0.107,0.025,0.211,0.126,0.307
					c0.35,1.161,1.618,1.997,2.814,1.753c0.024-0.008,0.054-0.006,0.072-0.015c0.011-0.004,0.017-0.011,0.017-0.011
					c0.088-0.021,0.173-0.031,0.255-0.063c0.112-0.044,0.145-0.108,0.143-0.177c0.562-0.32,1.063-0.725,1.451-1.253
					C204.842,66.78,204.887,66.683,204.825,66.528z"/>
				<path fill="#2A2828" d="M210.966,76.227c-0.26-1.218-1.099-2.108-2.22-2.609c-0.104-0.048-0.246-0.102-0.391-0.134
					c-0.277-0.095-0.566-0.108-0.693,0.039c-0.327,0.372-0.607,0.766-0.869,1.181c-0.707,0.879-0.774,1.821,0.223,2.541
					c0.212,0.15,0.538,0.264,0.821,0.234c1.04,0.278,2.112-0.286,3.033-1.02c0.012-0.01,0.006-0.022,0.018-0.029
					C210.952,76.388,210.986,76.32,210.966,76.227z"/>
				<path fill="#2A2828" d="M214.735,83.266c0.002-0.023,0.022-0.033,0.014-0.06c-0.218-0.836-0.634-1.49-1.298-2.04
					c-0.067-0.055-0.155-0.094-0.25-0.124c-0.319-0.159-0.731-0.242-0.928-0.088c-0.586,0.455-1.132,0.989-1.531,1.624
					c-0.045,0.029-0.088,0.059-0.113,0.115c-0.094,0.144-0.147,0.298-0.17,0.467c-0.021,0.11,0.037,0.21,0.12,0.301
					c0.261,0.493,0.681,0.848,1.155,1.127c0.003,0.006,0.009,0.017,0.012,0.018c0.024,0.012,0.04,0.021,0.065,0.031
					c0.004,0.006,0.007,0.007,0.016,0.012c0.001,0.002,0.007,0.002,0.007,0.002c0.149,0.08,0.303,0.141,0.469,0.166
					c0.163,0.064,0.551,0.13,0.725-0.021c0.701-0.259,1.247-0.678,1.686-1.284C214.769,83.43,214.767,83.349,214.735,83.266z"/>
				<path fill="#2A2828" d="M196.796,75.966c-0.594-1.169-1.542-1.978-2.792-2.373c-0.893-0.28-1.296,1.114-0.404,1.395
					c0.889,0.28,1.498,0.833,1.917,1.661C195.936,77.487,197.217,76.802,196.796,75.966z"/>
				<path fill="#2A2828" d="M189.112,73.103c-0.636-0.382-1.291-0.538-2.022-0.566c-0.934-0.034-0.969,1.414-0.034,1.447
					c0.479,0.018,0.88,0.101,1.292,0.352C189.147,74.821,189.906,73.587,189.112,73.103z"/>
				<path fill="#2A2828" d="M187.591,76.012l-0.603-0.408c-0.773-0.521-1.533,0.715-0.764,1.236l0.602,0.406
					C187.606,77.767,188.365,76.532,187.591,76.012z"/>
				<path fill="#2A2828" d="M203.312,83.755c-0.244-1.002-0.896-1.693-1.827-2.115c-0.838-0.378-1.609,0.849-0.758,1.234
					c0.58,0.267,1.016,0.568,1.174,1.212C202.124,84.996,203.537,84.665,203.312,83.755z"/>
				<path fill="#2A2828" d="M205.817,91.284c-0.005-0.554-0.25-0.871-0.534-1.313c-0.499-0.783-1.784-0.104-1.278,0.681
					c0.099,0.153,0.362,0.401,0.365,0.596C204.374,92.182,205.825,92.22,205.817,91.284z"/>
				<path fill="#2A2828" d="M176.774,80.808c-0.141,0.018-0.306,0.025-0.408-0.094c-0.605-0.713-1.661,0.281-1.059,0.987
					c0.454,0.539,1.143,0.607,1.803,0.518C178.037,82.096,177.694,80.687,176.774,80.808z"/>
				<path fill="#2A2828" d="M193.755,78.185c-0.008-0.147-0.048-0.288-0.131-0.418c-0.487-0.727-1.642-0.164-1.334,0.551
					c-0.12,0.727,0.897,1.066,1.328,0.462c0.012-0.015,0.019-0.027,0.029-0.043C193.789,78.547,193.807,78.351,193.755,78.185z"/>
				<path fill="#2A2828" d="M200.422,84.853c-0.505-0.358-0.894-0.832-1.306-1.292c-0.623-0.7-1.679,0.293-1.062,0.988
					c0.501,0.562,0.988,1.097,1.604,1.538C200.418,86.629,201.174,85.396,200.422,84.853z"/>
				<path fill="#815155" d="M177.657,88.208c-0.309-0.574-0.457-1.155-0.583-1.791c-0.182-0.917-1.59-0.58-1.409,0.336
					c0.151,0.754,0.344,1.453,0.713,2.135C176.821,89.711,178.1,89.028,177.657,88.208z"/>
				<path fill="#815155" d="M181.012,92.932c0.372-0.923,0.643-1.883,1.015-2.81c0.347-0.868-1.045-1.266-1.394-0.405
					c-0.371,0.924-0.645,1.887-1.017,2.811C179.274,93.393,180.667,93.792,181.012,92.932z"/>
				<path fill="#815155" d="M184.68,92.997c0.129-0.501,0.228-1.005,0.357-1.507c0.235-0.901-1.156-1.31-1.391-0.405
					c-0.132,0.5-0.23,1.007-0.359,1.509C183.053,93.497,184.443,93.904,184.68,92.997z"/>
				<path fill="#815155" d="M187.864,87.933c0.149-0.545,0.328-1.043,0.63-1.528c0.498-0.792-0.737-1.55-1.232-0.758
					c-0.371,0.589-0.604,1.213-0.789,1.879C186.221,88.428,187.614,88.837,187.864,87.933z"/>
				<path fill="#815155" d="M183.981,86.428c0.019-0.62,0.136-1.236,0.155-1.857c0.032-0.936-1.416-0.972-1.452-0.038
					c-0.017,0.626-0.132,1.241-0.155,1.86C182.497,87.327,183.948,87.364,183.981,86.428z"/>
				<path fill="#815155" d="M189.21,90.15c0.204-0.905-1.188-1.321-1.391-0.404c-0.203,0.914-0.436,1.831-0.935,2.629
					c-0.498,0.795,0.736,1.555,1.233,0.765C188.687,92.227,188.984,91.188,189.21,90.15z"/>
				<path fill="#815155" d="M194.795,88.662c0.357-0.858-1.035-1.258-1.391-0.404c-0.33,0.789-0.673,1.561-1.137,2.278
					c-0.508,0.788,0.728,1.544,1.232,0.763C194.033,90.473,194.418,89.57,194.795,88.662z"/>
				<path fill="#815155" d="M195.458,91.959c0.396-0.835-0.837-1.603-1.232-0.76c-0.418,0.889-0.927,1.681-1.596,2.405
					c-0.63,0.686,0.352,1.749,0.988,1.062C194.372,93.851,194.983,92.972,195.458,91.959z"/>
				<path fill="#815155" d="M198.053,95.074c-0.754,0.426-1.498,0.863-2.217,1.347c-0.771,0.521-0.093,1.802,0.684,1.279
					c0.719-0.481,1.461-0.922,2.213-1.347C199.547,95.89,198.865,94.614,198.053,95.074z"/>
				<path fill="#815155" d="M194.621,98.437c-0.836,0.897-1.849,1.467-2.97,1.938c-0.862,0.366-0.172,1.642,0.68,1.28
					c1.227-0.518,2.363-1.178,3.279-2.156C196.243,98.818,195.259,97.756,194.621,98.437z"/>
				<path fill="#815155" d="M191.813,96.767c-0.543,0.539-1.1,1.049-1.759,1.441c-0.806,0.474-0.128,1.753,0.679,1.279
					c0.771-0.458,1.434-1.031,2.067-1.659C193.467,97.174,192.477,96.111,191.813,96.767z"/>
				<path fill="#815155" d="M189.438,96.659c0.652-0.668-0.336-1.732-0.987-1.059c-0.739,0.764-1.291,1.607-1.716,2.584
					c-0.379,0.846,1.021,1.248,1.391,0.404C188.444,97.86,188.889,97.225,189.438,96.659z"/>
				<path fill="#815155" d="M184.007,98.22c0.276-0.753,0.581-1.5,0.861-2.258c0.323-0.877-1.071-1.277-1.393-0.402
					c-0.277,0.753-0.582,1.498-0.859,2.256C182.292,98.69,183.681,99.094,184.007,98.22z"/>
				<path fill="#815155" d="M177.928,97.846c0.354-0.894,0.563-1.826,0.764-2.763c0.198-0.905-1.196-1.316-1.391-0.402
					c-0.201,0.933-0.41,1.866-0.767,2.76C176.191,98.306,177.585,98.708,177.928,97.846z"/>
				<path fill="#815155" d="M176.287,93.466c0.193-0.864,0.475-1.689,0.813-2.509c0.357-0.862-1.036-1.262-1.393-0.404
					c-0.336,0.819-0.616,1.644-0.814,2.511C174.691,93.972,176.084,94.381,176.287,93.466z"/>
				<path fill="#815155" d="M180.481,100.87c0.229-0.639,0.469-1.252,0.83-1.828c0.5-0.791-0.734-1.552-1.234-0.762
					c-0.428,0.684-0.714,1.427-0.989,2.185C178.77,101.341,180.164,101.747,180.481,100.87z"/>
				<path fill="#815155" d="M181.71,107.808c0.512-1.378,1.166-2.684,1.845-3.987c0.428-0.821-0.803-1.592-1.233-0.76
					c-0.738,1.418-1.447,2.843-2.003,4.342C179.994,108.278,181.385,108.68,181.71,107.808z"/>
				<path fill="#815155" d="M186.239,106.27c0.36-0.871,0.699-1.743,0.912-2.664c0.209-0.903-1.18-1.314-1.392-0.406
					c-0.212,0.922-0.552,1.791-0.915,2.665C184.489,106.725,185.881,107.122,186.239,106.27z"/>
				<path fill="#815155" d="M177.749,106.233c0.282-0.773,0.582-1.538,0.712-2.355c0.138-0.909-1.249-1.328-1.396-0.406
					c-0.126,0.819-0.428,1.584-0.713,2.359C176.034,106.708,177.425,107.11,177.749,106.233z"/>
				<path fill="#815155" d="M175.682,101.37c-0.065-0.923-1.514-0.97-1.452-0.033c0.081,1.086-0.046,2.154-0.506,3.148
					c-0.388,0.837,0.845,1.609,1.234,0.762C175.53,104.012,175.775,102.729,175.682,101.37z"/>
				<path fill="#815155" d="M172.429,112.061c0.063-0.917,0.407-1.686,0.905-2.445c0.511-0.787-0.723-1.541-1.236-0.763
					c-0.64,0.98-1.033,2.001-1.122,3.172C170.906,112.958,172.36,112.988,172.429,112.061z"/>
				<path fill="#815155" d="M177.856,109.377c0.393-0.836-0.834-1.607-1.23-0.76c-0.441,0.937-0.98,1.821-1.421,2.757
					c-0.389,0.838,0.841,1.611,1.234,0.763C176.879,111.196,177.417,110.316,177.856,109.377z"/>
				<path fill="#815155" d="M179.543,112.096c-0.611,0.606-1.246,1.194-1.86,1.801c-0.669,0.657,0.32,1.717,0.984,1.062
					c0.617-0.61,1.249-1.197,1.865-1.804C181.199,112.503,180.212,111.441,179.543,112.096z"/>
				<path fill="#815155" d="M174.015,122.501c0.286-1.346,0.881-2.565,1.496-3.785c0.418-0.83-0.813-1.594-1.234-0.761
					c-0.669,1.333-1.341,2.673-1.65,4.142C172.433,123.003,173.827,123.417,174.015,122.501z"/>
				<path fill="#815155" d="M171.845,115.433c-0.897,0.996-1.784,1.999-2.544,3.105c-0.532,0.772,0.7,1.529,1.232,0.761
					c0.69-1,1.486-1.903,2.301-2.805C173.457,115.802,172.471,114.737,171.845,115.433z"/>
				<path fill="#815155" d="M168.727,126.149c0.396-1.006,1.249-2.121,1.892-3.081c0.523-0.775-0.712-1.534-1.23-0.76
					c-0.733,1.089-1.573,2.209-2.053,3.437C166.996,126.614,168.387,127.012,168.727,126.149z"/>
				<path fill="#815155" d="M164.695,125.875c0.492-1.323,1.114-2.579,1.746-3.835c0.416-0.827-0.813-1.596-1.234-0.761
					c-0.692,1.373-1.37,2.749-1.905,4.192C162.977,126.342,164.372,126.749,164.695,125.875z"/>
				<path fill="#815155" d="M170.839,127.833c0.419-0.826-0.812-1.597-1.233-0.763c-0.687,1.36-1.39,2.708-2.074,4.063
					c-0.42,0.83,0.811,1.595,1.23,0.762C169.452,130.539,170.155,129.19,170.839,127.833z"/>
				<path fill="#815155" d="M165.384,130.047c0.373-0.854-1.024-1.248-1.396-0.406c-0.336,0.773-0.812,1.479-1.284,2.178
					c-0.521,0.779,0.713,1.535,1.236,0.761C164.483,131.766,164.989,130.949,165.384,130.047z"/>
				<path fill="#815155" d="M160.573,132.72c0.515-0.783-0.721-1.542-1.235-0.763c-0.671,1.019-1.216,2.102-1.722,3.21
					c-0.381,0.84,0.846,1.607,1.235,0.761C159.357,134.822,159.901,133.738,160.573,132.72z"/>
				<path fill="#815155" d="M165.792,135.791c0.137-0.923-1.314-0.946-1.449-0.034c-0.151,1.009-0.559,1.904-1.109,2.747
					c-0.511,0.785,0.723,1.543,1.235,0.764C165.167,138.193,165.603,137.061,165.792,135.791z"/>
				<path fill="#815155" d="M160.946,138.062c0.247-0.9-1.146-1.306-1.396-0.405c-0.282,1.021-0.562,2.032-1.135,2.933
					c-0.502,0.794,0.734,1.551,1.23,0.76C160.29,140.34,160.627,139.207,160.946,138.062z"/>
				<path fill="#815155" d="M154.284,139.716c-0.707,1.049-1.409,2.106-2.253,3.057c-0.608,0.694,0.374,1.761,0.991,1.062
					c0.928-1.051,1.714-2.202,2.496-3.36C156.041,139.702,154.803,138.944,154.284,139.716z"/>
				<path fill="#815155" d="M159.089,144.016l-1.817,2.708c-0.523,0.775,0.715,1.532,1.234,0.761l1.82-2.707
					C160.848,144.003,159.608,143.243,159.089,144.016z"/>
				<path fill="#815155" d="M155.594,145.97c0.52-0.778-0.712-1.536-1.236-0.761c-0.608,0.908-1.201,1.816-1.665,2.806
					c-0.394,0.835,0.837,1.606,1.235,0.762C154.39,147.783,154.986,146.873,155.594,145.97z"/>
			</g>
		</g>
		<path fill="#D1ECE8" d="M104.968,170.778c27.542,1.155,52.561-10.925,68.95-30.577c-15.435-15.207-36.348-24.955-59.704-25.935
			c-27.107-1.137-51.915,9.79-69.281,27.991C59.722,158.903,80.967,169.773,104.968,170.778z"/>
	</g>
</g>
</svg>
