<?xml version="1.0" encoding="utf-8"?>
<!-- Generator: Adobe Illustrator 16.0.0, SVG Export Plug-In . SVG Version: 6.00 Build 0)  -->
<!DOCTYPE svg PUBLIC "-//W3C//DTD SVG 1.1//EN" "http://www.w3.org/Graphics/SVG/1.1/DTD/svg11.dtd">
<svg version="1.1" xmlns="http://www.w3.org/2000/svg" xmlns:xlink="http://www.w3.org/1999/xlink" x="0px" y="0px"
	 width="223.643px" height="184.372px" viewBox="0 0 223.643 184.372" enable-background="new 0 0 223.643 184.372"
	 xml:space="preserve">
<g id="grid" display="none">
</g>
<g id="Layer_1">
	<g>
		<circle fill="#F0D8DD" cx="111.845" cy="91.817" r="71.171"/>
		<path fill="#D8C3C7" d="M170.659,148.521c-27.328,26.836-70.915,30.321-102.372,6.52c-13.65-10.327-22.977-24.25-27.659-39.449
			C94.823,99.056,134.155,107.39,170.659,148.521z"/>
		<g>
			<path fill="#696F70" d="M162.236,41.485c0.019-0.267,0.003-0.535-0.019-0.802c-0.291-0.384-0.639-0.701-1.043-0.977
				c-2.038,0.319-4.107,0.434-6.171,0.45c-1.981,0.833-3.932,1.758-5.883,2.676c-2.368,1.703-4.956,3.048-7.612,4.228
				c-0.479,0.213-0.866,0.081-1.122-0.208c-0.441,0.042-0.898,0.046-1.353,0.057c-1.142,0.33-2.304,0.6-3.487,0.799
				c-1.077,0.428-2.09,0.977-3.035,1.743c-0.342,0.279-0.685,0.307-0.976,0.188c-0.112,0.104-0.236,0.198-0.394,0.262
				c-3.957,1.607-7.883,3.196-10.875,6.44c-0.804,0.871-1.955,0.152-2.078-0.758c-0.145-0.112-0.264-0.266-0.344-0.474
				c-0.32-0.112-0.593-0.37-0.703-0.824c-1.762-7.309-2.802-14.888-2.892-22.422c-0.005-0.422,0.159-0.732,0.397-0.938
				c-0.135-0.236-0.207-0.521-0.156-0.857c0.654-4.455,0.283-8.947,0.187-13.43c-0.657-0.587-0.539-1.875,0.401-2.138
				c0.4-0.333,0.997-0.362,1.443-0.103c0.72-0.028,1.434-0.08,2.123-0.228c0.3-0.167,0.574-0.334,0.788-0.458
				c0.354-0.211,0.724-0.443,1.087-0.685c0.045-0.233,0.081-0.466,0.122-0.7c0.001-0.034-0.009-0.06-0.005-0.095
				c0.093-0.659-0.343-1.341-0.638-1.885c-0.054-0.098-0.1-0.196-0.15-0.292c-1.26,0.19-2.532,0.323-3.761,0.199
				c-0.076-0.006-0.149-0.022-0.225-0.029c-0.096,0.07-0.19,0.142-0.286,0.213c-0.014,0.008-0.022,0.017-0.033,0.026
				c-0.757,0.558-1.546,1.06-2.349,1.544c-0.834,1.34-1.625,2.711-2.379,4.101c-0.421,1.563-0.844,3.125-1.394,4.645
				c-0.038,3.127-0.496,6.268-1.193,9.312c-0.333,4.282-0.282,8.574,0.59,12.755c1.191,5.717,2.627,11.345,4.319,16.915
				c1.324,2.45,1.797,5.436,1.8,8.349c0.102,0.175,0.175,0.377,0.175,0.63c0,0.796,0.003,1.597-0.007,2.401
				c0.073,0.238,0.129,0.486,0.159,0.757c0.024,0.217-0.059,0.481-0.195,0.702c-0.041,1.038-0.121,2.072-0.297,3.091
				c-0.117,0.671-0.598,0.935-1.099,0.919c-0.252,0.062-0.531,0.052-0.823-0.117c-0.113-0.066-0.211-0.149-0.316-0.223
				c-0.096-0.028-0.193-0.038-0.293-0.093c-1.705-0.958-3.664-1.07-5.502-1.617c-0.336-0.103-0.553-0.31-0.695-0.557
				c-1.629-0.93-2.957-2.345-4.213-3.764c-0.769-0.553-1.535-1.117-2.295-1.691c-1.249-0.239-2.519-0.383-3.758-0.704
				c-1.764,0.08-3.521-0.112-5.231-0.663c-0.117-0.039-0.216-0.032-0.308-0.006c-4.619-3.238-8.567-7.35-12.83-11.051
				c-0.186-0.161-0.392-0.172-0.574-0.113c-1.041-1.006-2.273-1.944-3.529-2.478c-1.335,0.159-2.666,0.434-3.996,0.626
				c-0.114,0.968-0.168,1.929,0.132,2.754c2.427,0.067,5.1,0.627,6.901,2.252c2.195,1.984,3.06,4.885,4.605,7.361
				c0.057,0.091,0.068,0.178,0.099,0.267c0.359,0.252,0.712,0.509,1.073,0.761c2.684,1.258,5.436,2.332,8.29,3.132
				c0.693,0.195,0.94,0.809,0.866,1.377c0.556,0.891,0.896,1.919,1.508,2.783c1.402,0.788,2.777,1.635,4.191,2.401v0.001
				c0.108,0.038,0.205,0.035,0.293,0.016c0.655,0.261,1.32,0.479,1.991,0.68c0.75,0.072,1.494,0.152,2.23,0.26
				c0.522-0.018,1.045-0.026,1.566,0.021c0.341,0.031,0.591,0.198,0.781,0.406c2.392,0.804,4.622,1.98,6.743,3.36
				c0.396,0.19,0.795,0.368,1.186,0.565c0.145,0.075,0.279,0.075,0.402,0.044c5.587,4.102,3.586,14.431,2.519,20.225l-0.552,1.354
				c-0.662,1.53-1.378,3.037-2.14,4.522c-0.095,0.075-0.178,0.17-0.222,0.318c-0.025,0.088-0.045,0.178-0.07,0.268
				c-0.01,0.018-0.018,0.034-0.025,0.051c-0.059,0.108-0.072,0.21-0.07,0.307c-0.807,2.86-1.308,5.756-1.457,8.721
				c-0.01,0.148-0.019,0.295-0.034,0.441c-0.22,1.61-0.548,3.205-1.086,4.732c-0.051,0.143-0.035,0.262-0.003,0.369
				c-0.036,0.083-0.066,0.17-0.106,0.254c-0.007,0.014-0.003,0.026-0.009,0.04c-0.015,0.038-0.037,0.066-0.044,0.113
				c-0.455,2.43-0.724,4.896-0.768,7.372c-0.001,0.017-0.011,0.028-0.013,0.048c-0.246,4.96,0.092,9.917,0.002,14.878
				c-2.14,6.956-7.692,13.269-13.776,17.17c-0.038-0.008-0.071-0.022-0.112-0.022c-0.31,0-0.489,0.196-0.549,0.436
				c-0.005,0.004-0.012,0.006-0.018,0.011c0.06-0.191-0.032-0.087-0.157,0.017c-0.063,0.002-0.125,0.006-0.194,0.033
				c-0.93,0.375-1.913,0.614-2.896,0.789c-0.333,0.06-0.448,0.319-0.421,0.586c-0.465,0.887-0.721,1.893-0.915,2.875
				c-0.018,0.092-0.015,0.175-0.001,0.251c-0.244,0.284-0.277,0.746,0.155,0.926c5.052,2.105,10.248,3.639,15.643,4.321
				c0.094,0.088,0.208,0.156,0.359,0.172c9.171,0.942,20.694,1.086,29.261-3.448c0.061-0.004,0.119-0.011,0.187-0.04
				c0.975-0.45,1.897-1.065,2.552-1.938c0.053-0.053,0.118-0.096,0.171-0.153c0.318-0.095,0.564-0.411,0.426-0.756
				c-0.015-0.151-0.084-0.289-0.183-0.398c-0.012-0.027-0.021-0.053-0.031-0.082c-0.067-0.341-0.166-0.684-0.287-1.021
				c-0.094-0.339-0.188-0.68-0.271-1.024c-0.045-0.185-0.146-0.303-0.269-0.367c-0.06-0.073-0.126-0.129-0.204-0.163
				c-0.1-0.122-0.244-0.209-0.437-0.225c-1.101-0.092-2.171-0.297-3.22-0.593c-0.067-0.08-0.156-0.144-0.275-0.181
				c-0.551-0.166-1.086-0.361-1.615-0.573c-1.536-0.843-3.011-1.808-4.396-2.886c-1.914-2.911-3.696-5.9-5.307-8.989
				c-0.729-1.879-1.364-3.805-1.96-5.754c-0.053-0.176-0.159-0.288-0.283-0.354c-0.19-1.147-0.347-2.294-0.47-3.44
				c0.026-1.364,0.043-2.726,0.01-4.092c-0.005-0.199-0.083-0.344-0.193-0.441c-0.036-0.389-0.067-0.775-0.096-1.161
				c0.042-4.511,0.729-8.98,2.266-13.376c0.044-0.124,0.039-0.227,0.017-0.323c0.211-0.375,0.434-0.748,0.679-1.117
				c0.015-0.024,0.017-0.046,0.026-0.07c1.298-1.544,2.21-3.33,2.631-5.328c0.062-0.072,0.113-0.16,0.141-0.276
				c0.303-1.403,0.149-2.769-0.312-4.112c-0.05-0.145-0.138-0.237-0.236-0.308c-0.152-0.571-0.165-1.132-0.06-1.737
				c0.028-0.172-0.013-0.312-0.078-0.431c3.149-10.52,0.546-20.887,0.145-31.519c-1.004-3.191-1.937-6.271-0.874-9.666
				c0.985-3.153,3.719-5.571,5.742-8c0.338-0.402,0.744-0.469,1.113-0.359c0.619-0.458,1.238-0.907,1.784-1.378
				c0.265-0.229,0.56-0.315,0.842-0.31c0.232-0.166,0.461-0.336,0.706-0.494c1.115-0.511,2.323-0.902,3.523-1.194
				c0.029,0.002,0.05,0.016,0.085,0.014c2.038-0.054,3.958-0.812,5.64-1.988c0.197-0.138,0.263-0.332,0.26-0.523
				c0.879-0.756,1.746-1.524,2.604-2.303c0.01-0.008,0.022-0.007,0.033-0.016c1.064-0.785,2.183-1.496,3.316-2.182
				c1.949-1.867,3.804-3.959,6.174-5.21c0.111-0.08,0.235-0.147,0.39-0.188c2.348-0.628,4.754-0.789,7.148-1.098
				c0.215-0.138,0.303-0.369,0.29-0.597C162.357,41.81,162.356,41.629,162.236,41.485z"/>
			<path fill="#888B8C" d="M103.791,74.441c-1.002-1.973-2.677-3.823-4.368-5.176c-0.134-0.107-0.277-0.138-0.416-0.13
				c-0.023-0.005-0.04-0.02-0.062-0.021c-1.837-0.209-3.685-0.397-5.487-0.84c-0.199-0.05-0.359,0-0.482,0.098
				c-2.822-0.337-5.514-1.246-7.777-3.104c-3.424-3.101-6.653-6.448-9.756-9.893c-0.221-0.246-0.486-0.226-0.69-0.082
				c-0.039-0.041-0.08-0.084-0.123-0.126c-0.216-0.221-0.467-0.219-0.668-0.102c-0.1-0.04-0.21-0.062-0.338-0.038
				c-0.325,0.064-0.657,0.082-0.986,0.111c-0.714-0.108-1.431-0.213-2.145-0.334c-0.77-0.131-1.049,1.089-0.284,1.227
				c0.076,0.24,0.266,0.44,0.577,0.44c0.606-0.001,1.207-0.023,1.804-0.067c0.565,0.082,1.13,0.167,1.691,0.261
				c0.219,0.037,0.392-0.04,0.518-0.162c3.046,3.372,6.215,6.651,9.572,9.692c2.785,2.286,6.075,3.268,9.584,3.534
				c0.064,0.005,0.119-0.012,0.175-0.024c1.499,0.298,3.022,0.467,4.54,0.64c0.033,0.003,0.061-0.007,0.09-0.007
				c1.411,1.154,2.75,2.63,3.686,4.246c-0.398,0.246-0.823,0.432-1.266,0.546c-0.072-0.23-0.259-0.4-0.566-0.347
				c-2.597,0.427-5.002-0.265-5.709-2.933c0.85,0.013,1.7,0.044,2.546,0.179c0.772,0.124,1.054-1.104,0.277-1.23
				c-1.268-0.201-2.541-0.226-3.821-0.227c-0.658,0-0.722,0.871-0.272,1.162c0.613,2.951,2.754,4.37,5.44,4.416
				c0.066,0.15,0.19,0.27,0.407,0.299c1.479,0.208,2.938-0.201,4.126-1.135c0.119-0.094,0.179-0.211,0.213-0.333
				c0.009-0.023,0.016-0.044,0.021-0.066c0.004-0.027,0.009-0.054,0.011-0.081C103.868,74.707,103.86,74.578,103.791,74.441z"/>
			<path fill="#888B8C" d="M99.393,72.886c-0.578-0.024-1.123-0.217-1.667-0.405c-0.747-0.256-1.017,0.978-0.277,1.231
				c0.657,0.224,1.295,0.406,1.991,0.437C100.226,74.181,100.173,72.919,99.393,72.886z"/>
			<path fill="#888B8C" d="M120.024,158.193c-4.299-2.72-7.074-6.88-7.669-11.956c0.122-0.075,0.219-0.201,0.254-0.391
				c1.146-6.131,1.744-12.29,1.461-18.531c0.309-2.741,0.139-5.46-0.659-8.109c-0.042-0.136-0.115-0.223-0.2-0.292
				c-0.752-1.803-1.039-3.759-0.719-5.69c0.104-0.049,0.199-0.128,0.266-0.265c1.288-2.657,2.631-5.286,4-7.897
				c0.231-0.017,0.455-0.159,0.527-0.463c1.477-6.328,1.312-12.866-0.624-19.068c-0.034-0.107-0.09-0.188-0.155-0.256
				c-0.942-2.948-2.899-5.272-5.625-6.633c-0.157-0.077-0.305-0.077-0.436-0.034c-1.158-0.734-2.316-1.47-3.425-2.28
				c-0.645-0.471-1.208,0.651-0.575,1.115c1.444,1.056,2.971,1.979,4.471,2.946c0.191,0.123,0.371,0.112,0.52,0.033
				c1.992,1.329,3.389,3.265,4.062,5.705c0.028,0.1,0.074,0.178,0.125,0.242c1.684,5.662,1.842,11.55,0.597,17.321
				c-0.103,0.05-0.201,0.124-0.271,0.257c-1.371,2.611-2.715,5.245-4.01,7.897c-0.229,0.02-0.447,0.163-0.518,0.464
				c-0.608,2.606-0.203,5.235,0.893,7.639c0.008,0.021,0.022,0.025,0.03,0.041c0.583,2.11,0.757,4.26,0.587,6.432
				c-0.064,0.098-0.111,0.215-0.102,0.368c0.009,0.2,0.013,0.399,0.021,0.598c-0.002,0.024-0.002,0.052-0.006,0.076
				c-0.015,0.104-0.006,0.197,0.018,0.282c0.22,5.486-0.251,10.909-1.176,16.311c-0.333-0.033-0.695,0.175-0.687,0.622
				c0.152,6.271,3.338,11.396,8.451,14.634C120.124,159.734,120.692,158.618,120.024,158.193z"/>
			<path fill="#888B8C" d="M148.964,43.625c-1.997,2.067-3.988,4.158-6.183,6.001c-0.213,0.178-0.264,0.427-0.221,0.65
				c-1.031,1.399-2.432,2.327-4.156,2.583c-1.941-0.238-3.847-0.643-5.725-1.213c-0.109-0.033-0.203-0.029-0.291-0.007
				c-0.131-0.206-0.355-0.322-0.643-0.189c-3.405,1.564-6.697,3.358-9.897,5.33c-0.675,0.418-0.019,1.482,0.657,1.066
				c3.104-1.915,6.293-3.667,9.596-5.185c0.072,0.093,0.165,0.175,0.303,0.218c1.798,0.544,3.621,0.934,5.477,1.176
				c0.098,0.074,0.217,0.121,0.376,0.101c0.054-0.005,0.104-0.021,0.156-0.026c0.031,0.002,0.06,0.006,0.088,0.009
				c0.155,0.019,0.282-0.027,0.392-0.096c2.209-0.443,3.946-1.784,5.161-3.798c0.031-0.048,0.038-0.095,0.054-0.145
				c2.015-1.762,3.889-3.687,5.751-5.616C150.416,43.908,149.519,43.049,148.964,43.625z"/>
			<path fill="#888B8C" d="M155.119,41.138c-0.602,0.184-1.229,0.237-1.828,0.419c-0.288,0.089-0.41,0.32-0.413,0.557
				c-0.017,0.016-0.037,0.022-0.054,0.04c-0.678,0.701-1.354,1.403-2.032,2.102c-0.558,0.577,0.341,1.435,0.896,0.859
				c0.678-0.702,1.354-1.405,2.032-2.106c0.09-0.094,0.13-0.195,0.151-0.295c0.537-0.14,1.088-0.209,1.617-0.372
				C156.244,42.112,155.873,40.909,155.119,41.138z"/>
			<path fill="#888B8C" d="M141.121,48.11c-0.079-0.036-0.167-0.06-0.27-0.058c-2.263,0.035-4.362,0.562-6.4,1.573
				c-0.651,0.32-0.145,1.227,0.484,1.108c1.569,0.879,3.247,1.241,4.971,0.694c0.037-0.003,0.075-0.016,0.117-0.032
				c0.007-0.003,0.013-0.004,0.021-0.007c0.01-0.002,0.018-0.013,0.029-0.019c0.037-0.016,0.076-0.024,0.112-0.051
				c0.021-0.015,0.034-0.031,0.054-0.047c0.015-0.015,0.033-0.027,0.046-0.043c0.771-0.605,1.321-1.435,1.59-2.4
				C142.023,48.295,141.526,48.005,141.121,48.11z M136.508,50.091c1.234-0.44,2.507-0.676,3.826-0.745
				c-0.198,0.33-0.448,0.625-0.75,0.86C138.512,50.555,137.495,50.467,136.508,50.091z"/>
			<path fill="#888B8C" d="M131.402,54.255c-3.804,2.662-7.32,5.708-10.484,9.154c-0.207,0.227-0.204,0.488-0.093,0.697
				c-0.292,0.402-0.616,0.777-1.009,1.094c-0.611,0.496,0.036,1.566,0.657,1.063c0.86-0.696,1.536-1.545,2.04-2.55
				c0.041-0.082,0.058-0.159,0.063-0.234c2.896-3.041,6.059-5.765,9.482-8.157C132.709,54.866,132.055,53.799,131.402,54.255z"/>
			<path fill="#888B8C" d="M118.275,10.583c-0.171,0.177-0.337,0.411-0.593,0.429c-0.783,0.054-0.737,1.315,0.048,1.262
				c0.625-0.044,1.014-0.395,1.439-0.834C119.729,10.864,118.83,10.01,118.275,10.583z"/>
			<path fill="#888B8C" d="M115.346,12.165c-1.479,0.9-2.75,2.178-3.461,3.812c-0.09,0.209-0.065,0.401,0.019,0.561
				c-0.255,0.062-0.483,0.263-0.497,0.604c-0.162,4.572-0.02,9.141,0.164,13.711c-0.766,2.532-1.17,5.113-1.383,7.756
				c-0.035,0.445,0.318,0.618,0.653,0.558c1.25,2.33,2.359,4.733,3.505,7.121c0.351,0.727,1.375,0.042,1.029-0.681
				c-1.257-2.612-2.457-5.254-3.86-7.786c-0.009-0.018-0.022-0.025-0.032-0.039c0.18-1.814,0.473-3.602,0.923-5.359
				c0.238-0.07,0.438-0.268,0.425-0.601c-0.013-0.275-0.021-0.55-0.032-0.824c0.006-0.02,0.011-0.04,0.018-0.061
				c0.052-0.176,0.027-0.323-0.038-0.441c-0.179-4.467-0.311-8.934-0.152-13.405c0.002-0.075-0.016-0.135-0.032-0.196
				c0.147-0.032,0.283-0.131,0.368-0.323c0.633-1.455,1.726-2.542,3.042-3.343C116.681,12.817,116.023,11.753,115.346,12.165z"/>
			<path fill="#888B8C" d="M114.223,52.492c-1.952-4.318-3.5-8.769-4.555-13.408c0.059-0.087,0.104-0.188,0.112-0.316
				c0.21-2.875,0.397-5.752,0.611-8.627c0.057-0.813-1.161-0.752-1.22,0.049c-0.201,2.719-0.379,5.438-0.577,8.158
				c-0.162,0.144-0.268,0.365-0.208,0.637c1.054,4.816,2.652,9.42,4.673,13.889C113.389,53.599,114.556,53.229,114.223,52.492z"/>
			<path fill="#888B8C" d="M119.543,65.898c-1.549-1.863-2.461-4.09-2.854-6.506c-0.036-0.225-0.164-0.375-0.322-0.466
				c0.145-3.277-0.254-6.454-1.331-9.593c-0.264-0.764-1.427-0.386-1.163,0.383c1.162,3.384,1.536,6.829,1.207,10.397
				c-0.043,0.467,0.344,0.755,0.689,0.758c0.538,2.202,1.476,4.182,2.943,5.957C119.228,67.443,120.049,66.509,119.543,65.898z"/>
			<path fill="#888B8C" d="M124.208,94.12c-0.126-8.474-2.62-16.566-4.295-24.792c-0.161-0.797-1.322-0.407-1.163,0.383
				c1.527,7.501,3.725,14.895,4.15,22.57c-0.296,0.091-0.562,0.388-0.491,0.79c0.546,3.126,0.474,6.46-0.216,9.556
				c-0.008,0.032,0.001,0.057-0.004,0.089c-0.018,0.018-0.035,0.025-0.052,0.046c-0.75,1.015-1.575,1.977-2.444,2.895
				c-0.913,0.719-1.736,1.52-2.455,2.405c-0.061,0.056-0.121,0.117-0.183,0.173c-0.097,0.089-0.144,0.188-0.167,0.287
				c-1.064,1.424-1.883,3.034-2.412,4.821c-0.26,0.053-0.472,0.251-0.428,0.605c0.277,2.237,0.626,4.478,1.045,6.692
				c0.041,0.217,0.159,0.339,0.304,0.396c0.023,0.027,0.036,0.058,0.066,0.085c1.93,1.647,3.974,1.306,5.535-0.665
				c0.498-0.627-0.396-1.489-0.896-0.858c-1.114,1.407-2.379,1.819-3.811,0.597c-0.017-0.016-0.037-0.019-0.053-0.03
				c-0.382-2.023-0.694-4.068-0.95-6.114c0.162-0.062,0.304-0.19,0.369-0.405c0.516-1.758,1.35-3.334,2.448-4.704
				c0.82-0.754,1.628-1.536,2.402-2.351c0.057-0.042,0.11-0.091,0.166-0.135c0.102-0.074,0.162-0.167,0.201-0.264
				c0.762-0.823,1.491-1.677,2.156-2.577c0.084-0.114,0.113-0.235,0.122-0.355c0.103-0.075,0.189-0.185,0.227-0.349
				c0.596-2.672,0.717-5.472,0.447-8.208C124.043,94.623,124.214,94.425,124.208,94.12z"/>
			<path fill="#888B8C" d="M119.305,82.165c-0.629-2.01-1.053-4.079-1.626-6.104c-0.222-0.779-1.385-0.396-1.163,0.384
				c0.573,2.025,0.999,4.093,1.625,6.102C118.383,83.322,119.546,82.941,119.305,82.165z"/>
			<path fill="#888B8C" d="M121.77,94.958c-0.027-2.834-0.455-5.563-1.719-8.101c-0.36-0.723-1.386-0.039-1.029,0.681
				c1.152,2.312,1.498,4.841,1.53,7.416c-0.247,2.15-0.595,4.285-1,6.411c-0.153,0.798,1.036,1.085,1.189,0.285
				c0.41-2.16,0.771-4.334,1.015-6.523c0.003-0.021-0.003-0.041-0.003-0.063C121.755,95.028,121.77,94.999,121.77,94.958z"/>
			<path fill="#888B8C" d="M120.763,109.673c-0.571-0.562-1.399,0.365-0.829,0.928c1.698,1.676,2.108,3.633,0.892,5.763
				c-0.4,0.703,0.68,1.291,1.078,0.595C123.396,114.341,122.846,111.729,120.763,109.673z"/>
			<path fill="#888B8C" d="M118.934,111.777c-0.2-0.245-0.448-0.242-0.646-0.117c-0.298-0.068-0.654,0.056-0.771,0.437
				c-0.635,2.101-0.807,4.298-0.624,6.484c0.034,0.4,0.352,0.59,0.653,0.58c0.146,0.387,0.653,0.64,1.014,0.243
				C120.67,117.088,120.941,114.255,118.934,111.777z M118.09,118.019c-0.091-1.605,0.028-3.193,0.398-4.748
				C119.461,114.868,119.19,116.542,118.09,118.019z"/>
			<path fill="#888B8C" d="M111.379,125.098c-0.163-0.795-1.324-0.407-1.164,0.383c0.936,4.603,0.923,9.164-0.013,13.767
				c-0.162,0.797,1.026,1.083,1.189,0.286C112.37,134.713,112.355,129.917,111.379,125.098z"/>
			<path fill="#888B8C" d="M123.402,158.288c-2.701-3.269-5.112-6.775-7.01-10.61c-0.022-0.045-0.053-0.068-0.082-0.103
				c0.443-7.016,1.149-14.012,1.191-21.047c0.006-0.815-1.213-0.763-1.216,0.049c-0.046,7.176-0.782,14.311-1.22,21.466
				c-0.021,0.342,0.187,0.522,0.431,0.563c1.931,3.835,4.366,7.328,7.08,10.609C123.089,159.832,123.91,158.899,123.402,158.288z"/>
			<path fill="#888B8C" d="M115.446,171.379c-7.959-0.039-16.887-0.62-23.874-4.977c-0.676-0.421-1.244,0.697-0.572,1.115
				c7.172,4.472,16.316,5.084,24.494,5.124C116.282,172.646,116.23,171.383,115.446,171.379z"/>
			<path fill="#888B8C" d="M135.67,166.429c-3.74,2.105-8.117,3.234-12.298,3.899c-0.768,0.122-0.728,1.384,0.048,1.263
				c4.418-0.704,8.958-1.876,12.906-4.101C137.017,167.103,136.357,166.04,135.67,166.429z"/>
			<path fill="#888B8C" d="M123.534,164.661c-5.745-1.304-9.981-6.068-12.901-11.129c0.124-0.104,0.198-0.261,0.163-0.487
				c-0.216-1.336-0.439-2.666-0.841-3.954c-0.241-0.774-1.405-0.394-1.162,0.38c0.334,1.07,0.537,2.163,0.723,3.268
				c-0.273,0.162-0.452,0.516-0.248,0.881c3.082,5.558,7.717,10.846,13.99,12.269C124.025,166.065,124.303,164.834,123.534,164.661z
				"/>
			<path fill="#888B8C" d="M110.332,165.489c0.049-0.117,0.071-0.25,0.029-0.407c-0.704-2.632-2.314-5.394-5.241-5.61
				c-3.412-0.25-6.179,2.133-8.185,4.743c-0.487,0.634,0.404,1.497,0.896,0.859c1.627-2.116,3.642-4.031,6.337-4.362
				c2.783-0.342,4.314,2.221,4.987,4.616c-0.913,0.502-1.827,0.971-2.84,1.243c-1.621,0.436-3.205-0.239-4.573-1.135
				c0.902-0.262,1.844-0.392,2.676-0.892c0.682-0.409,0.023-1.474-0.657-1.065c-1.116,0.669-2.492,0.677-3.658,1.262
				c-0.33,0.168-0.382,0.772-0.085,0.996c1.623,1.222,3.275,2.154,5.316,2.215c1.708,0.049,3.323-0.915,4.775-1.726
				C110.423,166.054,110.448,165.746,110.332,165.489z"/>
			<path fill="#888B8C" d="M129.308,166.358c-5.228,1.78-10.562,1.411-15.934,0.617c-0.774-0.113-1.056,1.116-0.279,1.231
				c5.573,0.82,11.158,1.201,16.585-0.646C130.425,167.307,130.058,166.103,129.308,166.358z"/>
			<path fill="#888B8C" d="M131.666,164.661c-1.963-0.239-3.767-0.95-5.215-2.374c-0.57-0.562-1.395,0.367-0.826,0.929
				c1.585,1.56,3.604,2.412,5.762,2.674C132.161,165.986,132.445,164.755,131.666,164.661z"/>
		</g>
		<g>
			<ellipse fill="#FFFFFF" cx="71.382" cy="89.271" rx="20.742" ry="25.318"/>
			<path fill="#298C99" d="M75.758,64.307c0.699-1.908,0.014-3.756-1.599-5.034c-0.027-0.022-0.057-0.028-0.084-0.044
				c0.092-1.801-0.092-3.59-0.568-5.358c-0.106-0.395-0.47-0.495-0.771-0.398c-0.465-0.251-0.954-0.397-1.462-0.479
				c-0.101-0.045-0.212-0.062-0.33-0.051c-0.075-0.007-0.144-0.032-0.22-0.034c-0.603-0.021-0.729,0.673-0.417,1.033
				c-0.104,1.571-0.09,3.145-0.006,4.717c-0.03,0.011-0.061,0.009-0.093,0.025c-2.214,1.129-2.799,3.188-1.757,5.238
				C58.055,65.547,49.992,76.299,49.992,89.31c0,1.188,0.091,2.348,0.221,3.492c-0.02,0.112,0,0.228,0.041,0.336
				c0.134,1.052,0.311,2.083,0.545,3.091c-0.031,0.134-0.007,0.271,0.084,0.397c1.47,5.948,4.68,10.981,8.912,14.258
				c0.074,0.136,0.198,0.235,0.372,0.273c3.212,2.377,6.973,3.773,11.007,3.773c9.669,0,17.83-7.884,20.357-18.612
				c0.067-0.099,0.09-0.219,0.077-0.355c0.474-2.125,0.749-4.35,0.749-6.654C92.357,77.087,85.24,66.85,75.758,64.307z
				 M91.072,88.237c-0.343-0.175-0.733-0.265-1.148-0.29c-0.037-0.75-0.104-1.491-0.199-2.219c0.384,0.114,0.77,0.129,1.158,0.036
				C90.98,86.578,91.045,87.401,91.072,88.237z M90.112,81.709c0.247,0.918,0.458,1.856,0.615,2.82
				c-0.345,0.149-0.674,0.035-0.993-0.138c-0.077-0.043-0.15-0.06-0.224-0.069c-0.142-0.768-0.319-1.519-0.525-2.256
				c0.392,0.024,0.775-0.066,1.096-0.32C90.093,81.735,90.1,81.721,90.112,81.709z M89.176,78.886
				c0.216,0.553,0.415,1.117,0.597,1.69c-0.111-0.003-0.228,0.022-0.346,0.116c-0.155,0.122-0.26,0.175-0.461,0.131
				c-0.132-0.029-0.248-0.007-0.349,0.033c-0.194-0.589-0.416-1.162-0.651-1.725c0.384-0.036,0.76-0.118,1.135-0.209
				C89.132,78.916,89.15,78.897,89.176,78.886z M88.725,77.738c-0.314,0.079-0.624,0.157-0.949,0.175
				c-0.123,0.006-0.219,0.047-0.303,0.101c-0.18-0.376-0.363-0.748-0.56-1.11c0.433-0.012,0.821-0.161,1.187-0.431
				C88.312,76.89,88.532,77.304,88.725,77.738z M86.62,73.909c0.323,0.486,0.627,0.991,0.922,1.506
				c-0.069,0.026-0.141,0.058-0.205,0.113c-0.179,0.153-0.421,0.168-0.644,0.13c-0.185-0.034-0.336,0.011-0.459,0.093
				c-0.211-0.338-0.416-0.684-0.641-1.009C86.03,74.549,86.456,74.295,86.62,73.909z M85.301,72.118
				c0.183,0.224,0.347,0.469,0.521,0.7c-0.256,0.09-0.457,0.317-0.395,0.637c-0.094,0.055-0.188,0.106-0.291,0.142
				c-0.111,0.046-0.191,0.119-0.256,0.198c-0.184-0.238-0.362-0.478-0.554-0.707c0.023-0.01,0.046-0.008,0.07-0.021
				C84.815,72.837,85.093,72.51,85.301,72.118z M84.016,70.681c0.158,0.166,0.307,0.344,0.46,0.513
				c-0.075,0.069-0.143,0.154-0.181,0.276c-0.089,0.273-0.31,0.41-0.549,0.543c-0.101,0.054-0.166,0.125-0.214,0.201
				c-0.13-0.135-0.248-0.284-0.382-0.416C83.507,71.477,83.808,71.107,84.016,70.681z M81.736,70.171c0.276-0.297,0.49-0.64,0.663-1
				c0.221,0.184,0.426,0.392,0.64,0.585c-0.119,0.486-0.42,0.893-0.804,1.208c-0.243-0.216-0.483-0.433-0.734-0.633
				C81.582,70.3,81.662,70.25,81.736,70.171z M80.32,67.665c0.36,0.229,0.709,0.479,1.059,0.732
				c-0.129,0.341-0.297,0.657-0.551,0.932c-0.117,0.125-0.155,0.26-0.158,0.392c-0.402-0.286-0.812-0.552-1.233-0.802
				C79.854,68.584,80.216,68.167,80.32,67.665z M78.624,66.708c0.183,0.09,0.364,0.18,0.544,0.278
				c-0.041,0.085-0.065,0.181-0.056,0.3c0.035,0.426-0.538,0.763-0.88,0.965c-0.224-0.11-0.455-0.203-0.686-0.302
				C78.027,67.605,78.443,67.208,78.624,66.708z M76.832,65.941c0.217,0.077,0.429,0.164,0.641,0.251
				c-0.005,0.33-0.415,0.595-0.651,0.759c-0.221,0.154-0.285,0.378-0.258,0.588c-0.267-0.097-0.54-0.171-0.811-0.252
				C76.289,66.954,76.663,66.507,76.832,65.941z M74.7,66.99c-0.577-0.131-1.16-0.238-1.753-0.305
				c0.611-0.344,1.11-0.815,1.505-1.401c0.405,0.083,0.805,0.175,1.201,0.286c-0.098,0.347-0.351,0.575-0.691,0.761
				C74.674,66.487,74.621,66.755,74.7,66.99z M71.966,65.813c-0.029,0.014-0.042,0.034-0.067,0.049
				c-0.435-0.188-0.671-0.495-0.829-0.93c0.035,0,0.068-0.006,0.104-0.006c0.641,0,1.271,0.045,1.896,0.118
				C72.761,65.366,72.395,65.617,71.966,65.813z M74.502,62.834c0.189-0.233,0.176-0.499,0.062-0.707
				c0.022-0.109,0.029-0.219,0.039-0.327c0.281,0.679,0.303,1.435-0.054,2.242c-0.371-0.072-0.738-0.158-1.116-0.206
				C73.845,63.541,74.216,63.187,74.502,62.834z M70.689,61.013c0.161,0.113,0.366,0.154,0.552,0.111
				c0.03,0.01,0.05,0.026,0.082,0.034c0.472,0.082,1.026,0.105,1.421-0.141c0.089,0.283,0.374,0.447,0.644,0.453
				c0.015,0.215-0.001,0.436-0.095,0.653c-0.041,0.095-0.055,0.187-0.053,0.274c-0.551,0.584-1.35,1.206-2.051,0.66
				C70.598,62.594,70.553,61.767,70.689,61.013z M69.466,60.95c-0.144,1.006,0.016,2.02,0.705,2.798
				c-0.129,0.007-0.258,0.013-0.388,0.023C69.11,62.718,69,61.75,69.466,60.95z M68.81,65.288c0.037-0.065,0.05-0.124,0.063-0.187
				c0.312-0.044,0.631-0.065,0.947-0.092c0.003,0.054-0.001,0.104,0.018,0.162c0.178,0.564,0.473,1.067,0.906,1.432
				c-0.573,0.016-1.144,0.053-1.706,0.13c-0.017-0.113-0.056-0.226-0.148-0.331C68.571,66.047,68.578,65.684,68.81,65.288z
				 M71.174,67.817c9.687,0,17.566,9.642,17.566,21.493c0,11.851-7.88,21.491-17.566,21.491c-9.686,0-17.564-9.641-17.564-21.491
				C53.609,77.458,61.488,67.817,71.174,67.817z M67.062,65.625c0.076-0.068,0.126-0.14,0.156-0.212
				c0.079-0.02,0.161-0.028,0.237-0.045c-0.12,0.557,0.025,1.099,0.351,1.595c-0.476,0.105-0.94,0.238-1.403,0.385
				C66.347,66.633,66.525,66.104,67.062,65.625z M64.215,66.584c0.012-0.037,0.008-0.067,0.014-0.103
				c0.367-0.167,0.729-0.343,1.105-0.485c-0.153,0.432-0.21,0.902-0.172,1.392c0.012,0.142,0.068,0.248,0.141,0.337
				c-0.354,0.141-0.699,0.299-1.045,0.463c-0.009-0.01-0.009-0.021-0.019-0.031C63.855,67.72,64.048,67.071,64.215,66.584z
				 M61.482,68.621c0.205-0.217,0.206-0.472,0.098-0.675c0.403-0.274,0.824-0.512,1.243-0.748c-0.049,0.547,0.064,1.074,0.372,1.556
				c-0.669,0.382-1.316,0.81-1.94,1.278C60.855,69.567,61.015,69.12,61.482,68.621z M58.85,70.178
				c0.316-0.306,0.636-0.603,0.968-0.885c-0.063,0.524,0.078,1.047,0.472,1.514c-0.428,0.369-0.844,0.748-1.243,1.158
				c-0.221-0.537-0.246-1.101-0.188-1.714C58.86,70.223,58.852,70.204,58.85,70.178z M56.87,72.357
				c0.249-0.314,0.511-0.612,0.775-0.909c0.067,0.522,0.228,1.022,0.514,1.493c-0.405,0.468-0.788,0.96-1.155,1.47
				c-0.229-0.454-0.289-0.942-0.079-1.476C57.012,72.717,56.968,72.521,56.87,72.357z M55.615,74.096
				c0.079,0.504,0.282,0.987,0.637,1.438c-0.322,0.507-0.63,1.027-0.915,1.567c-0.333-0.419-0.455-0.909-0.405-1.477
				c0.012-0.126-0.019-0.224-0.062-0.308C55.107,74.9,55.355,74.492,55.615,74.096z M53.922,77.135
				c0.176,0.421,0.439,0.806,0.794,1.127c0.009,0.008,0.019,0.01,0.028,0.017c-0.144,0.309-0.268,0.629-0.398,0.949
				c-0.348-0.316-0.532-0.729-0.55-1.227c-0.007-0.146-0.062-0.257-0.132-0.348C53.743,77.476,53.838,77.31,53.922,77.135z
				 M52.951,79.447c0.22,0.378,0.535,0.696,0.922,0.964c-0.219,0.617-0.408,1.254-0.582,1.896c-0.361-0.28-0.516-0.678-0.529-1.207
				c-0.006-0.201-0.089-0.347-0.209-0.444C52.681,80.249,52.807,79.843,52.951,79.447z M51.996,82.707
				c0.237,0.364,0.57,0.661,1.004,0.864c-0.136,0.625-0.251,1.258-0.342,1.903c-0.275-0.251-0.513-0.539-0.713-0.86
				c-0.081-0.131-0.188-0.2-0.302-0.241C51.74,83.807,51.869,83.258,51.996,82.707z M51.439,85.991
				c0.27,0.316,0.567,0.604,0.929,0.841c0.038,0.025,0.075,0.028,0.112,0.044c-0.056,0.637-0.078,1.282-0.091,1.931
				c-0.261-0.173-0.473-0.406-0.582-0.735c-0.089-0.264-0.293-0.388-0.508-0.411C51.331,87.099,51.377,86.542,51.439,85.991z
				 M51.237,89.421c0.317,0.333,0.711,0.582,1.168,0.751c0.032,1.026,0.118,2.034,0.258,3.02c-0.01-0.005-0.015-0.013-0.024-0.016
				c-0.42-0.18-0.816-0.401-1.21-0.631C51.317,91.521,51.24,90.481,51.237,89.421z M51.615,94.042
				c0.084,0.04,0.162,0.093,0.245,0.131c-0.03,0.226,0.049,0.464,0.3,0.613c0.213,0.126,0.374,0.156,0.617,0.177
				c0.074,0.006,0.141-0.005,0.201-0.018c0.103,0.486,0.209,0.973,0.339,1.45c-0.478-0.035-0.914-0.172-1.313-0.437
				C51.857,95.328,51.722,94.692,51.615,94.042z M52.807,98.804c-0.15-0.434-0.27-0.884-0.4-1.33c0.347,0.1,0.708,0.164,1.095,0.175
				c0.072,0.001,0.129-0.018,0.187-0.032c0.157,0.482,0.332,0.953,0.516,1.421c-0.393,0.027-0.768-0.008-1.152-0.179
				C52.967,98.821,52.886,98.805,52.807,98.804z M54.401,102.448c-0.377-0.719-0.722-1.46-1.036-2.228
				c0.411,0.071,0.828,0.078,1.271,0.013c0.018-0.002,0.029-0.012,0.046-0.016c0.337,0.738,0.712,1.445,1.113,2.134
				C55.33,102.487,54.877,102.545,54.401,102.448z M56.363,105.503c-0.022-0.001-0.033,0.006-0.053,0.006
				c-0.415-0.568-0.807-1.16-1.178-1.775c0.373-0.028,0.744-0.107,1.109-0.221c0.082-0.025,0.146-0.066,0.204-0.111
				c0.426,0.647,0.871,1.273,1.353,1.861C57.368,105.5,56.883,105.554,56.363,105.503z M58.223,107.673
				c-0.045-0.005-0.077,0.008-0.115,0.012c-0.296-0.314-0.59-0.631-0.869-0.967c0.498-0.069,0.96-0.249,1.384-0.531
				c0.303,0.329,0.609,0.652,0.931,0.958C59.202,107.557,58.789,107.727,58.223,107.673z M59.238,108.795
				c0.478-0.144,0.904-0.419,1.23-0.821c0.581,0.487,1.18,0.943,1.805,1.352c-0.521,0.325-1.098,0.525-1.716,0.587
				C60.104,109.562,59.666,109.189,59.238,108.795z M63.255,111.675c-0.47-0.249-0.929-0.521-1.378-0.812
				c0.551-0.206,1.064-0.501,1.545-0.867c0.57,0.313,1.154,0.593,1.752,0.838c-0.462,0.43-1.012,0.686-1.682,0.765
				C63.401,111.61,63.324,111.638,63.255,111.675z M66.847,112.658c-0.224,0.038-0.347,0.16-0.401,0.312
				c-0.512-0.152-1.019-0.319-1.514-0.519c0.574-0.254,1.09-0.621,1.511-1.154c0.003-0.004,0.003-0.007,0.006-0.011
				c0.645,0.203,1.301,0.362,1.968,0.484C68.033,112.273,67.475,112.556,66.847,112.658z M69.897,113.552
				c-0.032,0.016-0.048,0.039-0.074,0.057c-0.495-0.041-0.985-0.105-1.469-0.188c0.513-0.295,0.958-0.701,1.281-1.222
				c0.052-0.084,0.081-0.167,0.092-0.246c0.479,0.044,0.959,0.089,1.446,0.089c0.138,0,0.271-0.021,0.406-0.026
				C71.183,112.685,70.631,113.205,69.897,113.552z M73.312,113.547c-0.469,0.062-0.948,0.079-1.427,0.102
				c0.442-0.446,0.807-0.97,1.057-1.553c0.024-0.057,0.027-0.11,0.035-0.166c0.509-0.058,1.008-0.157,1.503-0.262
				C74.324,112.409,73.939,113.098,73.312,113.547z M76.717,112.311c-0.175,0.132-0.246,0.308-0.252,0.484
				c-0.421,0.14-0.839,0.292-1.271,0.399c0.316-0.565,0.501-1.198,0.564-1.863c0.678-0.207,1.341-0.456,1.988-0.75
				C77.64,111.257,77.315,111.868,76.717,112.311z M80.114,110.896c-0.051,0.079-0.075,0.157-0.088,0.23
				c-0.464,0.284-0.934,0.552-1.418,0.79c0.31-0.597,0.46-1.27,0.421-1.979c0.586-0.328,1.152-0.69,1.704-1.087
				C80.723,109.574,80.512,110.263,80.114,110.896z M83.057,108.846c-0.396,0.361-0.8,0.708-1.219,1.034
				c0.128-0.619,0.14-1.259,0.053-1.914c0.305-0.256,0.6-0.528,0.89-0.805c0.169,0.451,0.356,1.015,0.274,1.404
				C83.033,108.667,83.037,108.76,83.057,108.846z M84.218,107.711c-0.089-0.44-0.238-0.879-0.378-1.246
				c-0.036-0.098-0.09-0.174-0.15-0.236c0.363-0.394,0.719-0.798,1.057-1.225c0.314,0.47,0.447,0.974,0.462,1.547
				c0,0.019,0.009,0.031,0.01,0.049C84.899,106.987,84.561,107.35,84.218,107.711z M86.234,105.245
				c-0.114-0.352-0.273-0.69-0.5-0.997c-0.076-0.103-0.168-0.163-0.266-0.203c0.214-0.303,0.418-0.622,0.619-0.939
				c0.379,0.336,0.552,0.729,0.568,1.275c0.002,0.077,0.024,0.136,0.046,0.195C86.55,104.805,86.392,105.025,86.234,105.245z
				 M87.614,103.083c-0.183-0.399-0.459-0.752-0.849-1.033c-0.006-0.003-0.014-0.003-0.021-0.01c0.284-0.504,0.54-1.031,0.79-1.563
				c0.427,0.324,0.649,0.771,0.669,1.322c0.001,0.035,0.017,0.059,0.022,0.09C88.026,102.292,87.833,102.697,87.614,103.083z
				 M88.973,100.249c-0.232-0.363-0.546-0.677-0.938-0.932c0.171-0.422,0.348-0.841,0.499-1.276c0.335,0.148,0.577,0.356,0.6,0.761
				c0.012,0.206,0.106,0.354,0.232,0.449C89.242,99.589,89.108,99.918,88.973,100.249z M89.915,97.564
				c-0.228-0.289-0.528-0.522-0.904-0.669c-0.042-0.016-0.082-0.014-0.123-0.021c0.183-0.627,0.343-1.263,0.481-1.913
				c0.426,0.256,0.767,0.605,0.962,1.063C90.209,96.545,90.065,97.057,89.915,97.564z M90.671,94.415
				c-0.249-0.236-0.521-0.449-0.833-0.618c-0.075-0.042-0.149-0.058-0.221-0.066c0.075-0.456,0.124-0.921,0.176-1.384
				c0.466,0.217,0.764,0.606,0.984,1.083c0.007,0.017,0.021,0.025,0.027,0.04C90.761,93.786,90.725,94.103,90.671,94.415z
				 M91.021,91.681c-0.315-0.271-0.685-0.482-1.112-0.624c0.036-0.578,0.072-1.156,0.072-1.747c0-0.042-0.004-0.08-0.004-0.12
				c0.443,0.04,0.777,0.216,1.006,0.623c0.03,0.054,0.07,0.087,0.11,0.125C91.079,90.522,91.066,91.107,91.021,91.681z"/>
		</g>
		<g>
			<ellipse fill="#FFFFFF" cx="117.363" cy="45.509" rx="20.742" ry="25.319"/>
			<path fill="#BF4C62" d="M121.74,20.547c0.698-1.909,0.014-3.756-1.6-5.035c-0.027-0.022-0.057-0.028-0.084-0.044
				c0.092-1.801-0.092-3.588-0.568-5.358c-0.096-0.355-0.398-0.462-0.678-0.411c-0.855,0.223-1.756,0.181-2.651,0.231
				c0.026,0.09,0.067,0.178,0.13,0.25c-0.104,1.573-0.09,3.146-0.006,4.718c-0.03,0.011-0.062,0.009-0.094,0.027
				c-2.214,1.128-2.799,3.188-1.757,5.237c-10.396,1.626-18.459,12.378-18.459,25.389c0,1.188,0.091,2.347,0.221,3.493
				c-0.02,0.112,0,0.227,0.041,0.337c0.134,1.051,0.311,2.083,0.545,3.091c-0.031,0.133-0.007,0.272,0.085,0.397
				c1.47,5.948,4.68,10.981,8.911,14.258c0.074,0.136,0.198,0.235,0.372,0.273c3.212,2.377,6.973,3.773,11.007,3.773
				c9.67,0,17.83-7.885,20.357-18.613c0.067-0.097,0.09-0.219,0.077-0.354c0.474-2.126,0.749-4.35,0.749-6.655
				C138.339,33.326,131.222,23.089,121.74,20.547z M137.054,44.476c-0.343-0.175-0.733-0.264-1.148-0.289
				c-0.037-0.75-0.104-1.491-0.199-2.22c0.384,0.115,0.77,0.129,1.158,0.037C136.962,42.817,137.026,43.64,137.054,44.476z
				 M136.094,37.95c0.247,0.917,0.458,1.855,0.615,2.819c-0.345,0.149-0.674,0.035-0.993-0.138c-0.077-0.043-0.15-0.06-0.224-0.069
				c-0.142-0.768-0.319-1.52-0.526-2.256c0.392,0.024,0.776-0.066,1.096-0.32C136.075,37.974,136.081,37.961,136.094,37.95z
				 M135.158,35.125c0.216,0.553,0.415,1.116,0.597,1.691c-0.111-0.004-0.228,0.022-0.346,0.115
				c-0.155,0.122-0.26,0.175-0.461,0.131c-0.133-0.029-0.248-0.007-0.35,0.033c-0.194-0.589-0.416-1.162-0.65-1.725
				c0.384-0.035,0.76-0.117,1.135-0.209C135.113,35.155,135.132,35.136,135.158,35.125z M134.706,33.977
				c-0.314,0.079-0.624,0.157-0.949,0.175c-0.124,0.006-0.219,0.047-0.303,0.102c-0.18-0.377-0.363-0.748-0.56-1.11
				c0.433-0.012,0.821-0.161,1.187-0.431C134.294,33.129,134.514,33.542,134.706,33.977z M132.602,30.149
				c0.323,0.484,0.627,0.99,0.922,1.505c-0.069,0.025-0.141,0.059-0.205,0.113c-0.179,0.154-0.421,0.168-0.644,0.129
				c-0.185-0.034-0.336,0.011-0.459,0.093c-0.211-0.339-0.416-0.684-0.641-1.009C132.012,30.789,132.438,30.535,132.602,30.149z
				 M131.283,28.357c0.183,0.224,0.347,0.469,0.521,0.7c-0.256,0.09-0.457,0.318-0.395,0.637c-0.094,0.055-0.188,0.106-0.291,0.143
				c-0.111,0.046-0.192,0.117-0.256,0.197c-0.184-0.237-0.362-0.479-0.554-0.706c0.023-0.01,0.046-0.008,0.07-0.022
				C130.797,29.076,131.074,28.75,131.283,28.357z M129.997,26.921c0.158,0.165,0.307,0.342,0.46,0.512
				c-0.075,0.07-0.143,0.154-0.181,0.275c-0.089,0.273-0.31,0.41-0.549,0.544c-0.101,0.053-0.166,0.124-0.214,0.2
				c-0.13-0.135-0.248-0.283-0.382-0.416C129.488,27.716,129.789,27.346,129.997,26.921z M127.717,26.411
				c0.277-0.297,0.491-0.64,0.664-1c0.221,0.184,0.426,0.392,0.64,0.585c-0.119,0.486-0.42,0.892-0.804,1.208
				c-0.243-0.216-0.483-0.433-0.734-0.633C127.563,26.54,127.644,26.489,127.717,26.411z M126.301,23.904
				c0.361,0.229,0.709,0.479,1.059,0.732c-0.129,0.341-0.297,0.656-0.551,0.932c-0.117,0.125-0.155,0.26-0.158,0.392
				c-0.402-0.286-0.812-0.552-1.233-0.802C125.835,24.824,126.198,24.407,126.301,23.904z M124.605,22.947
				c0.183,0.09,0.364,0.181,0.544,0.278c-0.041,0.085-0.065,0.18-0.056,0.3c0.035,0.427-0.538,0.764-0.88,0.966
				c-0.224-0.11-0.456-0.203-0.686-0.302C124.008,23.844,124.425,23.447,124.605,22.947z M122.813,22.179
				c0.217,0.079,0.429,0.166,0.641,0.252c-0.005,0.331-0.415,0.595-0.651,0.759c-0.221,0.153-0.285,0.378-0.258,0.588
				c-0.267-0.097-0.54-0.171-0.811-0.253C122.271,23.193,122.645,22.747,122.813,22.179z M120.682,23.229
				c-0.577-0.131-1.16-0.238-1.753-0.305c0.611-0.344,1.11-0.815,1.505-1.401c0.405,0.083,0.805,0.174,1.201,0.285
				c-0.097,0.348-0.35,0.575-0.691,0.762C120.655,22.726,120.603,22.994,120.682,23.229z M117.948,22.052
				c-0.029,0.014-0.043,0.035-0.067,0.049c-0.435-0.188-0.671-0.495-0.83-0.93c0.036,0,0.069-0.007,0.104-0.007
				c0.641,0,1.271,0.045,1.896,0.118C118.742,21.605,118.376,21.857,117.948,22.052z M120.483,19.074
				c0.189-0.233,0.176-0.499,0.062-0.707c0.022-0.109,0.029-0.218,0.039-0.327c0.281,0.679,0.303,1.434-0.054,2.242
				c-0.371-0.072-0.738-0.158-1.116-0.206C119.826,19.78,120.198,19.426,120.483,19.074z M116.671,17.253
				c0.161,0.113,0.366,0.152,0.552,0.11c0.03,0.01,0.05,0.026,0.082,0.034c0.472,0.083,1.026,0.106,1.421-0.14
				c0.089,0.283,0.374,0.448,0.644,0.452c0.014,0.216-0.001,0.436-0.095,0.653c-0.041,0.095-0.055,0.187-0.053,0.274
				c-0.551,0.584-1.35,1.206-2.051,0.661C116.579,18.833,116.534,18.007,116.671,17.253z M115.448,17.189
				c-0.145,1.006,0.016,2.02,0.704,2.798c-0.129,0.007-0.258,0.012-0.388,0.023C115.091,18.958,114.981,17.99,115.448,17.189z
				 M114.791,21.527c0.037-0.064,0.05-0.124,0.063-0.187c0.312-0.044,0.631-0.065,0.947-0.092c0.003,0.054-0.001,0.104,0.018,0.162
				c0.178,0.564,0.473,1.068,0.906,1.432c-0.573,0.016-1.144,0.053-1.706,0.129c-0.017-0.113-0.056-0.226-0.148-0.331
				C114.553,22.287,114.56,21.923,114.791,21.527z M117.155,24.055c9.686,0,17.566,9.643,17.566,21.495
				c0,11.851-7.88,21.491-17.566,21.491c-9.686,0-17.564-9.641-17.564-21.491C99.591,33.698,107.47,24.055,117.155,24.055z
				 M113.044,21.864c0.076-0.067,0.126-0.14,0.156-0.213c0.078-0.02,0.16-0.027,0.236-0.045c-0.12,0.557,0.025,1.099,0.351,1.595
				c-0.476,0.105-0.94,0.238-1.404,0.385C112.328,22.873,112.507,22.343,113.044,21.864z M110.196,22.824
				c0.012-0.037,0.008-0.067,0.014-0.103c0.367-0.167,0.729-0.342,1.105-0.485c-0.153,0.433-0.21,0.902-0.172,1.393
				c0.012,0.142,0.068,0.247,0.141,0.336c-0.354,0.141-0.699,0.297-1.045,0.463c-0.009-0.01-0.009-0.021-0.019-0.031
				C109.837,23.958,110.029,23.31,110.196,22.824z M107.464,24.86c0.205-0.217,0.206-0.472,0.098-0.676
				c0.403-0.273,0.824-0.512,1.243-0.748c-0.049,0.547,0.064,1.074,0.372,1.556c-0.668,0.382-1.316,0.81-1.94,1.278
				C106.837,25.806,106.996,25.359,107.464,24.86z M104.831,26.417c0.316-0.305,0.635-0.603,0.968-0.885
				c-0.063,0.524,0.078,1.047,0.472,1.515c-0.428,0.368-0.844,0.748-1.243,1.157c-0.221-0.538-0.246-1.101-0.188-1.714
				C104.841,26.463,104.833,26.443,104.831,26.417z M102.852,28.596c0.249-0.314,0.511-0.612,0.775-0.909
				c0.067,0.521,0.228,1.022,0.514,1.492c-0.405,0.47-0.788,0.961-1.155,1.471c-0.229-0.454-0.289-0.942-0.078-1.475
				C102.993,28.957,102.95,28.759,102.852,28.596z M101.597,30.335c0.079,0.504,0.282,0.987,0.637,1.437
				c-0.322,0.507-0.63,1.028-0.915,1.568c-0.333-0.419-0.455-0.91-0.405-1.477c0.012-0.126-0.019-0.224-0.062-0.309
				C101.089,31.139,101.337,30.731,101.597,30.335z M99.903,33.375c0.176,0.422,0.439,0.805,0.795,1.128
				c0.009,0.007,0.018,0.009,0.027,0.016c-0.144,0.309-0.268,0.63-0.398,0.948c-0.348-0.315-0.532-0.729-0.55-1.226
				c-0.007-0.147-0.062-0.258-0.132-0.349C99.725,33.715,99.819,33.549,99.903,33.375z M98.933,35.687
				c0.22,0.378,0.535,0.697,0.922,0.963c-0.219,0.617-0.408,1.254-0.582,1.897c-0.361-0.281-0.516-0.679-0.529-1.208
				c-0.006-0.202-0.089-0.348-0.209-0.444C98.662,36.488,98.788,36.083,98.933,35.687z M97.978,38.946
				c0.237,0.364,0.57,0.661,1.004,0.864c-0.136,0.625-0.251,1.258-0.342,1.903c-0.275-0.25-0.513-0.538-0.713-0.86
				c-0.081-0.131-0.187-0.2-0.301-0.241C97.722,40.047,97.851,39.499,97.978,38.946z M97.421,42.23
				c0.27,0.317,0.567,0.604,0.929,0.841c0.038,0.025,0.075,0.028,0.112,0.044c-0.056,0.637-0.079,1.282-0.091,1.932
				c-0.261-0.174-0.473-0.407-0.582-0.736c-0.089-0.264-0.293-0.388-0.508-0.411C97.312,43.339,97.358,42.782,97.421,42.23z
				 M97.219,45.66c0.317,0.333,0.711,0.582,1.168,0.752c0.032,1.026,0.118,2.033,0.258,3.019c-0.01-0.004-0.015-0.012-0.024-0.015
				c-0.42-0.18-0.816-0.402-1.21-0.631C97.299,47.759,97.222,46.72,97.219,45.66z M97.597,50.282
				c0.084,0.04,0.162,0.093,0.245,0.131c-0.03,0.225,0.049,0.465,0.3,0.612c0.213,0.126,0.374,0.156,0.617,0.178
				c0.075,0.006,0.141-0.005,0.202-0.019c0.103,0.487,0.209,0.974,0.339,1.45c-0.478-0.035-0.915-0.171-1.313-0.437
				C97.839,51.567,97.703,50.931,97.597,50.282z M98.788,55.042c-0.15-0.434-0.27-0.884-0.4-1.329
				c0.347,0.1,0.708,0.164,1.095,0.174c0.072,0.001,0.129-0.017,0.187-0.031c0.157,0.482,0.332,0.952,0.516,1.42
				c-0.393,0.027-0.768-0.008-1.151-0.179C98.949,55.06,98.867,55.045,98.788,55.042z M100.383,58.687
				c-0.377-0.719-0.722-1.461-1.036-2.229c0.411,0.071,0.828,0.078,1.271,0.013c0.018-0.001,0.029-0.011,0.046-0.015
				c0.337,0.739,0.712,1.445,1.113,2.135C101.312,58.726,100.858,58.784,100.383,58.687z M102.345,61.742
				c-0.021,0-0.033,0.007-0.053,0.007c-0.415-0.57-0.807-1.16-1.178-1.776c0.373-0.027,0.744-0.107,1.109-0.22
				c0.082-0.026,0.146-0.066,0.204-0.112c0.426,0.647,0.871,1.273,1.353,1.862C103.35,61.74,102.864,61.792,102.345,61.742z
				 M104.204,63.913c-0.045-0.005-0.077,0.009-0.115,0.012c-0.296-0.314-0.59-0.632-0.869-0.966c0.498-0.071,0.96-0.25,1.384-0.532
				c0.303,0.329,0.609,0.652,0.931,0.957C105.184,63.796,104.771,63.967,104.204,63.913z M105.22,65.035
				c0.478-0.144,0.904-0.419,1.23-0.821c0.58,0.487,1.18,0.944,1.805,1.352c-0.521,0.325-1.098,0.526-1.716,0.587
				C106.086,65.801,105.647,65.428,105.22,65.035z M109.236,67.915c-0.47-0.248-0.929-0.52-1.378-0.812
				c0.551-0.206,1.064-0.5,1.545-0.867c0.57,0.313,1.154,0.593,1.752,0.838c-0.462,0.431-1.012,0.686-1.682,0.765
				C109.383,67.849,109.306,67.877,109.236,67.915z M112.828,68.897c-0.224,0.037-0.347,0.16-0.402,0.312
				c-0.511-0.153-1.018-0.32-1.513-0.519c0.574-0.254,1.09-0.621,1.511-1.154c0.002-0.003,0.002-0.007,0.006-0.011
				c0.645,0.203,1.301,0.362,1.968,0.483C114.015,68.512,113.456,68.795,112.828,68.897z M115.879,69.792
				c-0.032,0.015-0.048,0.039-0.074,0.056c-0.495-0.041-0.985-0.105-1.469-0.188c0.513-0.294,0.958-0.701,1.281-1.222
				c0.052-0.083,0.081-0.167,0.092-0.246c0.479,0.044,0.959,0.09,1.446,0.09c0.138,0,0.27-0.022,0.406-0.026
				C117.164,68.924,116.612,69.444,115.879,69.792z M119.294,69.787c-0.469,0.061-0.948,0.079-1.427,0.101
				c0.442-0.446,0.807-0.969,1.057-1.552c0.024-0.056,0.027-0.11,0.035-0.165c0.508-0.059,1.007-0.158,1.503-0.263
				C120.306,68.649,119.921,69.337,119.294,69.787z M122.699,68.55c-0.176,0.131-0.246,0.308-0.253,0.483
				c-0.421,0.142-0.839,0.292-1.271,0.399c0.316-0.565,0.5-1.198,0.564-1.863c0.678-0.207,1.341-0.456,1.988-0.75
				C123.621,67.497,123.297,68.107,122.699,68.55z M126.096,67.135c-0.051,0.08-0.075,0.157-0.088,0.23
				c-0.464,0.284-0.934,0.553-1.418,0.79c0.31-0.598,0.46-1.27,0.421-1.978c0.586-0.329,1.152-0.69,1.704-1.086
				C126.704,65.813,126.493,66.503,126.096,67.135z M129.038,65.084c-0.396,0.361-0.8,0.708-1.219,1.034
				c0.128-0.619,0.14-1.26,0.053-1.914c0.304-0.255,0.6-0.528,0.89-0.805c0.169,0.451,0.356,1.014,0.274,1.404
				C129.015,64.907,129.019,65,129.038,65.084z M130.2,63.95c-0.09-0.44-0.238-0.879-0.379-1.245
				c-0.036-0.098-0.09-0.174-0.15-0.236c0.363-0.394,0.719-0.797,1.057-1.224c0.314,0.469,0.447,0.973,0.462,1.546
				c0,0.019,0.01,0.031,0.011,0.049C130.881,63.226,130.542,63.589,130.2,63.95z M132.216,61.484
				c-0.114-0.352-0.273-0.689-0.5-0.997c-0.076-0.103-0.168-0.164-0.266-0.204c0.214-0.303,0.418-0.621,0.618-0.938
				c0.38,0.335,0.552,0.728,0.568,1.275c0.002,0.077,0.024,0.136,0.046,0.196C132.532,61.045,132.373,61.264,132.216,61.484z
				 M133.596,59.323c-0.183-0.399-0.459-0.752-0.849-1.032c-0.006-0.004-0.014-0.004-0.021-0.011c0.284-0.504,0.54-1.031,0.79-1.563
				c0.427,0.324,0.649,0.771,0.669,1.322c0.001,0.035,0.017,0.058,0.022,0.091C134.008,58.531,133.814,58.937,133.596,59.323z
				 M134.954,56.488c-0.232-0.363-0.546-0.677-0.938-0.933c0.171-0.42,0.348-0.839,0.499-1.275c0.335,0.148,0.577,0.356,0.601,0.761
				c0.012,0.206,0.105,0.354,0.231,0.449C135.224,55.829,135.09,56.158,134.954,56.488z M135.896,53.804
				c-0.228-0.289-0.528-0.522-0.904-0.669c-0.042-0.016-0.082-0.014-0.123-0.021c0.182-0.626,0.343-1.263,0.481-1.913
				c0.426,0.256,0.767,0.605,0.962,1.062C136.19,52.785,136.047,53.296,135.896,53.804z M136.652,50.654
				c-0.249-0.236-0.521-0.449-0.833-0.618c-0.075-0.042-0.149-0.058-0.221-0.066c0.075-0.457,0.124-0.921,0.176-1.385
				c0.467,0.218,0.764,0.606,0.984,1.084c0.007,0.017,0.021,0.024,0.028,0.039C136.742,50.025,136.706,50.342,136.652,50.654z
				 M137.002,47.921c-0.315-0.272-0.685-0.483-1.112-0.625c0.036-0.578,0.072-1.157,0.072-1.747c0-0.042-0.004-0.08-0.004-0.121
				c0.443,0.041,0.777,0.216,1.006,0.623c0.03,0.055,0.07,0.087,0.11,0.126C137.061,46.762,137.048,47.346,137.002,47.921z"/>
		</g>
		<g>
			<ellipse fill="#FFFFFF" cx="158.596" cy="75.494" rx="20.742" ry="25.318"/>
			<path fill="#815155" d="M162.973,50.531c0.698-1.908,0.014-3.757-1.6-5.035c-0.027-0.022-0.057-0.028-0.084-0.044
				c0.092-1.801-0.092-3.589-0.568-5.358c-0.106-0.395-0.47-0.494-0.771-0.397c-0.007-0.004-0.015-0.005-0.021-0.009
				c-0.842,0.172-1.706,0.237-2.548,0.154c0.021,0.117,0.061,0.23,0.141,0.322c-0.104,1.572-0.09,3.146-0.006,4.717
				c-0.03,0.012-0.062,0.009-0.094,0.026c-2.214,1.129-2.799,3.189-1.757,5.238c-10.396,1.626-18.459,12.378-18.459,25.389
				c0,1.187,0.091,2.347,0.22,3.492c-0.019,0.112,0,0.228,0.041,0.337c0.134,1.052,0.311,2.083,0.545,3.091
				c-0.031,0.133-0.007,0.271,0.085,0.397c1.47,5.948,4.68,10.981,8.911,14.258c0.075,0.136,0.199,0.235,0.373,0.274
				c3.212,2.376,6.973,3.772,11.007,3.772c9.67,0,17.83-7.885,20.357-18.613c0.067-0.097,0.09-0.219,0.077-0.354
				c0.474-2.126,0.749-4.35,0.749-6.655C179.571,63.31,172.454,53.074,162.973,50.531z M178.286,74.461
				c-0.343-0.175-0.733-0.264-1.148-0.29c-0.037-0.75-0.104-1.492-0.199-2.22c0.384,0.114,0.77,0.131,1.158,0.038
				C178.194,72.801,178.258,73.625,178.286,74.461z M177.326,67.933c0.247,0.918,0.458,1.857,0.615,2.82
				c-0.345,0.15-0.674,0.035-0.993-0.138c-0.077-0.042-0.15-0.06-0.224-0.069c-0.142-0.768-0.319-1.52-0.525-2.256
				c0.392,0.024,0.775-0.066,1.096-0.32C177.308,67.958,177.313,67.945,177.326,67.933z M176.391,65.11
				c0.216,0.553,0.415,1.116,0.597,1.69c-0.111-0.003-0.228,0.022-0.346,0.116c-0.155,0.122-0.26,0.175-0.461,0.131
				c-0.133-0.029-0.248-0.007-0.35,0.033c-0.194-0.589-0.416-1.162-0.65-1.724c0.384-0.036,0.76-0.118,1.135-0.211
				C176.346,65.139,176.364,65.121,176.391,65.11z M175.938,63.961c-0.314,0.079-0.624,0.157-0.949,0.175
				c-0.123,0.006-0.219,0.047-0.303,0.102c-0.18-0.376-0.363-0.748-0.56-1.11c0.433-0.012,0.821-0.161,1.187-0.43
				C175.526,63.114,175.746,63.527,175.938,63.961z M173.834,60.132c0.323,0.485,0.627,0.991,0.922,1.505
				c-0.069,0.026-0.141,0.06-0.206,0.114c-0.178,0.154-0.42,0.168-0.643,0.129c-0.185-0.034-0.336,0.012-0.459,0.094
				c-0.211-0.339-0.416-0.684-0.641-1.009C173.244,60.773,173.67,60.519,173.834,60.132z M172.516,58.341
				c0.183,0.224,0.347,0.469,0.521,0.701c-0.256,0.089-0.457,0.317-0.395,0.636c-0.094,0.055-0.188,0.106-0.291,0.143
				c-0.111,0.045-0.191,0.117-0.256,0.197c-0.184-0.236-0.362-0.479-0.554-0.706c0.023-0.01,0.046-0.009,0.07-0.022
				C172.029,59.06,172.307,58.734,172.516,58.341z M171.229,56.905c0.158,0.165,0.307,0.342,0.46,0.512
				c-0.075,0.07-0.143,0.154-0.181,0.275c-0.088,0.274-0.309,0.41-0.548,0.544c-0.101,0.053-0.166,0.124-0.214,0.2
				c-0.13-0.135-0.248-0.283-0.382-0.416C170.721,57.701,171.021,57.331,171.229,56.905z M168.95,56.395
				c0.276-0.298,0.49-0.64,0.663-1c0.221,0.184,0.426,0.392,0.64,0.585c-0.12,0.486-0.42,0.892-0.804,1.208
				c-0.243-0.217-0.483-0.433-0.734-0.634C168.796,56.525,168.876,56.473,168.95,56.395z M167.534,53.888
				c0.36,0.229,0.709,0.479,1.059,0.733c-0.129,0.341-0.297,0.656-0.551,0.932c-0.117,0.125-0.155,0.26-0.159,0.392
				c-0.402-0.286-0.811-0.552-1.233-0.802C167.067,54.808,167.431,54.391,167.534,53.888z M165.838,52.931
				c0.183,0.09,0.364,0.181,0.544,0.279c-0.041,0.085-0.065,0.179-0.056,0.3c0.035,0.427-0.538,0.764-0.88,0.966
				c-0.224-0.109-0.455-0.203-0.686-0.303C165.241,53.829,165.657,53.431,165.838,52.931z M164.046,52.164
				c0.217,0.078,0.429,0.165,0.641,0.252c-0.005,0.331-0.415,0.595-0.651,0.76c-0.221,0.153-0.285,0.377-0.258,0.587
				c-0.267-0.096-0.54-0.171-0.811-0.253C163.503,53.178,163.877,52.731,164.046,52.164z M161.914,53.213
				c-0.577-0.131-1.16-0.238-1.753-0.305c0.611-0.344,1.11-0.815,1.505-1.401c0.405,0.084,0.805,0.173,1.201,0.285
				c-0.098,0.347-0.351,0.575-0.692,0.761C161.888,52.711,161.835,52.979,161.914,53.213z M159.181,52.037
				c-0.029,0.014-0.043,0.034-0.067,0.049c-0.435-0.188-0.671-0.494-0.829-0.93c0.035,0,0.068-0.007,0.104-0.007
				c0.641,0,1.271,0.045,1.896,0.118C159.975,51.589,159.608,51.84,159.181,52.037z M161.716,49.058
				c0.189-0.233,0.176-0.499,0.062-0.707c0.022-0.109,0.029-0.219,0.039-0.326c0.281,0.678,0.303,1.434-0.054,2.241
				c-0.371-0.072-0.738-0.158-1.116-0.206C161.059,49.764,161.431,49.411,161.716,49.058z M157.903,47.237
				c0.161,0.112,0.366,0.151,0.552,0.109c0.03,0.01,0.05,0.028,0.082,0.034c0.471,0.083,1.026,0.107,1.421-0.139
				c0.089,0.283,0.374,0.447,0.644,0.451c0.015,0.216-0.001,0.436-0.095,0.653c-0.041,0.095-0.055,0.188-0.053,0.274
				c-0.551,0.584-1.35,1.206-2.051,0.662C157.812,48.818,157.767,47.991,157.903,47.237z M156.681,47.173
				c-0.145,1.005,0.016,2.02,0.704,2.797c-0.128,0.008-0.257,0.013-0.387,0.024C156.324,48.942,156.214,47.974,156.681,47.173z
				 M156.023,51.512c0.037-0.065,0.05-0.124,0.063-0.187c0.312-0.043,0.63-0.066,0.947-0.092c0.003,0.054-0.001,0.104,0.017,0.162
				c0.178,0.564,0.473,1.068,0.907,1.432c-0.574,0.016-1.144,0.053-1.706,0.13c-0.017-0.113-0.056-0.227-0.148-0.331
				C155.785,52.271,155.792,51.908,156.023,51.512z M158.388,54.04c9.687,0,17.566,9.642,17.566,21.494
				c0,11.851-7.88,21.491-17.566,21.491c-9.686,0-17.564-9.641-17.564-21.491C140.823,63.682,148.702,54.04,158.388,54.04z
				 M154.276,51.848c0.076-0.066,0.126-0.139,0.156-0.212c0.078-0.02,0.16-0.027,0.236-0.044c-0.12,0.556,0.025,1.098,0.351,1.594
				c-0.476,0.105-0.94,0.238-1.403,0.385C153.561,52.857,153.739,52.328,154.276,51.848z M151.429,52.808
				c0.012-0.037,0.008-0.066,0.014-0.102c0.367-0.167,0.729-0.343,1.105-0.486c-0.153,0.433-0.21,0.902-0.172,1.393
				c0.012,0.142,0.068,0.247,0.141,0.336c-0.354,0.142-0.699,0.298-1.045,0.463c-0.009-0.009-0.009-0.021-0.019-0.031
				C151.069,53.943,151.262,53.295,151.429,52.808z M148.696,54.844c0.205-0.217,0.206-0.473,0.098-0.676
				c0.403-0.273,0.824-0.511,1.243-0.748c-0.049,0.547,0.064,1.074,0.372,1.556c-0.669,0.382-1.316,0.81-1.94,1.278
				C148.069,55.791,148.229,55.343,148.696,54.844z M146.063,56.401c0.316-0.305,0.636-0.602,0.968-0.885
				c-0.064,0.524,0.078,1.047,0.472,1.515c-0.428,0.368-0.844,0.749-1.244,1.158c-0.22-0.538-0.246-1.101-0.188-1.714
				C146.074,56.447,146.065,56.428,146.063,56.401z M144.084,58.581c0.249-0.314,0.511-0.612,0.775-0.909
				c0.067,0.521,0.228,1.022,0.514,1.492c-0.406,0.469-0.788,0.961-1.156,1.471c-0.228-0.455-0.289-0.942-0.078-1.476
				C144.226,58.941,144.183,58.744,144.084,58.581z M142.829,60.32c0.079,0.504,0.282,0.987,0.637,1.437
				c-0.322,0.507-0.63,1.028-0.916,1.569c-0.333-0.419-0.455-0.91-0.405-1.478c0.012-0.127-0.019-0.223-0.062-0.308
				C142.321,61.124,142.569,60.715,142.829,60.32z M141.136,63.359c0.176,0.423,0.439,0.806,0.795,1.128
				c0.009,0.007,0.019,0.009,0.027,0.016c-0.144,0.309-0.268,0.629-0.398,0.948c-0.348-0.315-0.532-0.729-0.55-1.227
				c-0.006-0.146-0.061-0.257-0.131-0.348C140.957,63.7,141.051,63.534,141.136,63.359z M140.165,65.671
				c0.219,0.377,0.535,0.696,0.922,0.963c-0.219,0.617-0.408,1.253-0.582,1.896c-0.361-0.28-0.516-0.678-0.529-1.207
				c-0.006-0.201-0.089-0.348-0.209-0.444C139.895,66.472,140.021,66.067,140.165,65.671z M139.21,68.93
				c0.237,0.365,0.57,0.662,1.004,0.865c-0.136,0.625-0.251,1.257-0.342,1.903c-0.275-0.251-0.513-0.539-0.713-0.86
				c-0.081-0.131-0.188-0.2-0.302-0.241C138.954,70.031,139.083,69.482,139.21,68.93z M138.653,72.215
				c0.27,0.315,0.567,0.603,0.929,0.839c0.038,0.025,0.075,0.029,0.112,0.044c-0.056,0.637-0.078,1.281-0.091,1.932
				c-0.261-0.174-0.473-0.406-0.582-0.735c-0.089-0.264-0.293-0.388-0.508-0.411C138.545,73.323,138.591,72.766,138.653,72.215z
				 M138.451,75.645c0.317,0.333,0.711,0.582,1.168,0.752c0.032,1.027,0.118,2.032,0.258,3.019c-0.01-0.005-0.015-0.012-0.024-0.016
				c-0.42-0.18-0.816-0.401-1.21-0.631C138.531,77.744,138.454,76.705,138.451,75.645z M138.829,80.266
				c0.084,0.04,0.162,0.093,0.245,0.131c-0.03,0.226,0.049,0.465,0.3,0.612c0.213,0.126,0.374,0.157,0.617,0.178
				c0.074,0.006,0.141-0.005,0.201-0.019c0.103,0.487,0.209,0.974,0.339,1.45c-0.478-0.035-0.914-0.172-1.314-0.437
				C139.071,81.551,138.936,80.916,138.829,80.266z M140.021,85.027c-0.15-0.434-0.27-0.884-0.4-1.329
				c0.346,0.1,0.708,0.164,1.095,0.175c0.072,0.002,0.129-0.018,0.187-0.032c0.157,0.482,0.332,0.953,0.516,1.421
				c-0.393,0.027-0.768-0.008-1.151-0.179C140.182,85.045,140.1,85.029,140.021,85.027z M141.615,88.671
				c-0.377-0.719-0.722-1.46-1.036-2.229c0.411,0.07,0.828,0.078,1.271,0.014c0.018-0.002,0.029-0.011,0.046-0.016
				c0.337,0.738,0.712,1.445,1.113,2.134C142.544,88.711,142.091,88.768,141.615,88.671z M143.577,91.726
				c-0.021-0.001-0.033,0.007-0.053,0.007c-0.415-0.569-0.807-1.159-1.178-1.774c0.373-0.03,0.744-0.108,1.109-0.221
				c0.082-0.026,0.146-0.066,0.204-0.112c0.426,0.647,0.871,1.273,1.353,1.862C144.582,91.724,144.097,91.777,143.577,91.726z
				 M145.437,93.897c-0.045-0.005-0.077,0.009-0.115,0.012c-0.296-0.314-0.59-0.632-0.869-0.967c0.498-0.069,0.96-0.249,1.384-0.531
				c0.303,0.329,0.609,0.652,0.931,0.957C146.416,93.782,146.003,93.951,145.437,93.897z M146.452,95.019
				c0.478-0.144,0.904-0.419,1.23-0.821c0.58,0.487,1.18,0.943,1.805,1.352c-0.521,0.325-1.098,0.525-1.716,0.587
				C147.318,95.786,146.88,95.413,146.452,95.019z M150.469,97.899c-0.47-0.249-0.929-0.52-1.378-0.812
				c0.551-0.206,1.064-0.5,1.545-0.867c0.57,0.313,1.154,0.593,1.752,0.838c-0.462,0.431-1.012,0.686-1.682,0.765
				C150.615,97.833,150.538,97.862,150.469,97.899z M154.061,98.881c-0.224,0.037-0.347,0.161-0.401,0.312
				c-0.512-0.152-1.019-0.319-1.514-0.519c0.574-0.254,1.09-0.622,1.511-1.154c0.003-0.004,0.003-0.008,0.006-0.011
				c0.645,0.202,1.301,0.362,1.968,0.484C155.247,98.497,154.688,98.78,154.061,98.881z M157.111,99.776
				c-0.032,0.016-0.048,0.038-0.074,0.057c-0.495-0.041-0.986-0.105-1.469-0.188c0.513-0.295,0.958-0.702,1.281-1.221
				c0.052-0.084,0.081-0.168,0.092-0.247c0.479,0.044,0.959,0.088,1.446,0.088c0.138,0,0.271-0.021,0.406-0.025
				C158.396,98.909,157.845,99.428,157.111,99.776z M160.526,99.771c-0.469,0.062-0.948,0.079-1.427,0.102
				c0.442-0.446,0.807-0.969,1.057-1.553c0.024-0.057,0.027-0.11,0.035-0.165c0.509-0.059,1.008-0.156,1.503-0.263
				C161.538,98.632,161.153,99.322,160.526,99.771z M163.932,98.535c-0.176,0.132-0.246,0.308-0.253,0.483
				c-0.421,0.141-0.839,0.292-1.271,0.399c0.316-0.565,0.501-1.198,0.564-1.864c0.678-0.207,1.341-0.456,1.988-0.75
				C164.854,97.481,164.529,98.091,163.932,98.535z M167.328,97.12c-0.051,0.079-0.075,0.157-0.088,0.23
				c-0.464,0.284-0.934,0.553-1.418,0.79c0.31-0.597,0.46-1.269,0.421-1.978c0.586-0.329,1.152-0.691,1.704-1.087
				C167.937,95.797,167.726,96.487,167.328,97.12z M170.271,95.069c-0.396,0.36-0.8,0.708-1.219,1.034
				c0.128-0.619,0.14-1.26,0.053-1.914c0.305-0.256,0.6-0.528,0.89-0.805c0.169,0.451,0.356,1.014,0.274,1.404
				C170.247,94.891,170.251,94.984,170.271,95.069z M171.433,93.934c-0.09-0.44-0.238-0.879-0.379-1.245
				c-0.036-0.098-0.09-0.174-0.15-0.236c0.363-0.394,0.719-0.798,1.057-1.224c0.314,0.469,0.447,0.973,0.462,1.546
				c0,0.019,0.01,0.03,0.011,0.049C172.113,93.211,171.774,93.574,171.433,93.934z M173.448,91.468
				c-0.114-0.352-0.273-0.689-0.5-0.998c-0.076-0.102-0.168-0.163-0.266-0.203c0.214-0.304,0.418-0.621,0.618-0.938
				c0.38,0.336,0.552,0.728,0.569,1.275c0.002,0.076,0.024,0.137,0.046,0.195C173.765,91.029,173.605,91.249,173.448,91.468z
				 M174.828,89.307c-0.183-0.399-0.459-0.752-0.849-1.033c-0.006-0.003-0.014-0.003-0.021-0.01c0.284-0.503,0.54-1.031,0.79-1.563
				c0.426,0.324,0.649,0.77,0.669,1.322c0.001,0.035,0.017,0.06,0.022,0.091C175.24,88.515,175.047,88.921,174.828,89.307z
				 M176.187,86.472c-0.232-0.363-0.546-0.676-0.938-0.932c0.171-0.421,0.348-0.84,0.499-1.276c0.335,0.149,0.577,0.357,0.601,0.761
				c0.012,0.205,0.105,0.354,0.231,0.449C176.456,85.813,176.322,86.142,176.187,86.472z M177.129,83.788
				c-0.228-0.288-0.528-0.523-0.904-0.669c-0.042-0.016-0.082-0.014-0.123-0.022c0.183-0.626,0.343-1.262,0.481-1.912
				c0.425,0.256,0.767,0.605,0.962,1.062C177.423,82.769,177.279,83.282,177.129,83.788z M177.884,80.638
				c-0.249-0.236-0.52-0.449-0.833-0.617c-0.075-0.042-0.149-0.058-0.22-0.066c0.075-0.456,0.124-0.92,0.176-1.385
				c0.467,0.217,0.764,0.606,0.984,1.084c0.007,0.016,0.021,0.024,0.027,0.039C177.975,80.009,177.938,80.327,177.884,80.638z
				 M178.234,77.905c-0.315-0.272-0.685-0.482-1.112-0.624c0.036-0.579,0.072-1.157,0.072-1.748c0-0.042-0.004-0.08-0.004-0.12
				c0.443,0.04,0.777,0.215,1.006,0.622c0.03,0.055,0.07,0.087,0.11,0.126C178.293,76.746,178.28,77.331,178.234,77.905z"/>
		</g>
		<path fill="#815155" d="M164.346,86.917c0.504-0.335,0.564-0.94,0.268-1.465c-0.304-0.541-0.845-0.939-1.346-1.291
			c0.001-0.006,0.001-0.013-0.001-0.021c-0.149-0.591-0.505-1.164-1.069-1.432c-0.004-0.001-0.006-0.001-0.006-0.001
			c-0.248-0.909-0.566-1.799-0.786-2.714c-0.242-1.015-0.4-2.048-0.513-3.085c-0.109-1.014-0.172-2.034-0.211-3.054
			c-0.038-1.021-0.008-2.05,0.247-3.044c0.577-0.094,1.183-0.108,1.746-0.264c0.451-0.124,0.717-0.425,0.688-0.881
			c0.01-0.009,0.015-0.023,0.01-0.04c-0.183-0.58-0.726-0.899-1.308-0.948c-0.062-0.402-0.303-0.733-0.667-0.914
			c0-0.002,0-0.004,0-0.006c-0.015-0.082-0.019-0.163-0.019-0.246v0c0.161-0.09,0.4-0.232,0.415-0.441
			c0.011-0.19-0.146-0.315-0.291-0.409c-0.009-0.004-0.017-0.007-0.024-0.004c0.002-0.004,0.003-0.008,0.004-0.013
			c0.037-0.372,0.103-0.749,0.205-1.108c0.13-0.457,0.351-0.886,0.561-1.31c0.371-0.753,0.823-1.577,0.748-2.444
			c-0.001-0.003-0.002-0.005-0.002-0.006c0.006-0.027-0.018-0.062-0.053-0.054c-0.197,0.041-0.408,0.063-0.608,0.041
			c-0.024-0.002-0.041,0.013-0.048,0.031c-0.018-0.012-0.047-0.013-0.062,0.011c-0.105,0.164-0.25,0.311-0.438,0.378
			c-0.004,0.002-0.007,0.005-0.011,0.008c-0.206-0.148-0.332-0.37-0.376-0.62c-0.004-0.025-0.025-0.037-0.046-0.037
			c-0.005-0.016-0.019-0.027-0.039-0.023c-0.161,0.019-0.333,0.009-0.493-0.021c-0.033-0.006-0.053,0.023-0.05,0.049
			c-0.013,0.007-0.021,0.019-0.022,0.036c0,0.007-0.001,0.011-0.002,0.016l-0.001,0.001c-0.009,0.001-0.019,0.004-0.023,0.014
			c-0.333-0.265-0.732-0.448-1.142-0.561c-0.007-0.116-0.004-0.23,0.011-0.345c0-0.003,0-0.008,0-0.011
			c0.304-0.276,0.426-0.687,0.209-1.091c-0.162-0.3-0.526-0.386-0.839-0.352c-0.318,0.035-0.645,0.199-0.819,0.474
			c-0.205,0.324-0.021,0.676,0.224,0.915c-0.006,0.007-0.008,0.016-0.01,0.026c-0.005,0.016,0.002,0.028,0.011,0.037
			c0.001,0.014,0.002,0.027,0.003,0.04c0.002,0.047,0.003,0.094,0.003,0.141c0.002,0.044,0.002,0.088,0.002,0.132
			c-0.505,0.089-0.981,0.337-1.319,0.717c-0.076-0.08-0.143-0.168-0.199-0.261c-0.009-0.015-0.021-0.018-0.033-0.018l-0.004-0.002
			c-0.179-0.002-0.358-0.04-0.535-0.062c-0.016-0.003-0.029,0.005-0.037,0.015c-0.013-0.003-0.025-0.006-0.036-0.011
			c-0.012-0.005-0.023-0.004-0.034-0.002c-0.02-0.007-0.045,0-0.048,0.03c-0.021,0.212-0.11,0.44-0.329,0.514
			c-0.013,0.005-0.021,0.015-0.024,0.025c-0.112-0.033-0.186-0.121-0.217-0.248c-0.006-0.027-0.027-0.032-0.047-0.028
			c-0.009-0.014-0.026-0.027-0.048-0.021c-0.094,0.023-0.207,0.007-0.302,0.007c-0.12-0.004-0.239-0.008-0.36-0.009
			c-0.017,0-0.028,0.009-0.034,0.021c-0.025,0-0.053,0.023-0.046,0.055c0.157,0.798,0.492,1.543,0.793,2.295
			c0.319,0.801,0.526,1.614,0.672,2.462c-0.159,0.115-0.303,0.263-0.28,0.475c0.024,0.225,0.262,0.39,0.432,0.504
			c0.002,0.001,0.002,0.001,0.002,0.001c0.023,0.049,0.033,0.111,0.023,0.165c-0.381,0.159-0.669,0.469-0.801,0.858
			c-0.521,0.15-1.104,0.368-1.342,0.895c-0.01,0.021-0.002,0.04,0.012,0.05c-0.096,1.15,1.477,1.276,2.322,1.353
			c0.239,1,0.221,2.046,0.135,3.065c-0.091,1.094-0.279,2.182-0.471,3.261c-0.193,1.095-0.434,2.178-0.713,3.254
			c-0.105,0.41-0.23,0.815-0.368,1.215c-0.12,0.35-0.248,0.722-0.45,1.037c-0.005,0.001-0.008,0.002-0.012,0.004
			c-0.5,0.276-0.802,0.791-1.029,1.3c-0.012-0.009-0.027-0.01-0.042,0.001c-0.457,0.367-0.978,0.692-1.317,1.183
			c-0.365,0.527-0.341,1.114,0.124,1.563c-0.82,0.323-1.104,1.407-0.493,2.067c0.02,0.02,0.043,0.015,0.058-0.001
			c0.721,0.502,1.597,0.733,2.454,0.882c0.979,0.169,1.983,0.227,2.975,0.245c1.238,0.023,2.477-0.052,3.709-0.166
			c0.603-0.057,1.209-0.117,1.812-0.186c0.556-0.063,1.104-0.173,1.618-0.408c0.014-0.006,0.021-0.018,0.023-0.032
			c0.386-0.257,0.627-0.682,0.621-1.153C165.182,87.413,164.816,87.047,164.346,86.917z"/>
		<path fill="#298C99" d="M76.195,97.678c0.546-0.45,0.608-1.263,0.291-1.966c-0.33-0.727-0.915-1.258-1.456-1.732
			c0.001-0.009,0.001-0.018,0-0.026c-0.163-0.794-0.547-1.562-1.157-1.92c-0.004-0.003-0.008-0.003-0.008-0.003
			c-0.039-0.169-0.084-0.335-0.121-0.506c0.015,0.003,0.032,0.004,0.05,0.005c-0.003-0.04,0.005-0.08-0.011-0.115
			c-0.002-0.011-0.01-0.018-0.018-0.021c0-0.007,0.003-0.014-0.001-0.021c-0.186-0.569-0.285-1.167-0.4-1.758
			c-0.126-0.64-0.236-1.28-0.32-1.925c-0.158-1.211-0.141-2.413-0.081-3.626c0.1-0.243,0.261-0.466,0.475-0.608
			c0.012-0.009,0.016-0.021,0.016-0.035c0.312-0.061,0.617-0.193,0.852-0.432c0.007-0.005,0.01-0.016,0.01-0.02
			c0.045-0.132,0.094-0.256,0.129-0.389c0.219-0.031,0.441-0.113,0.604-0.277c0.01-0.013,0.014-0.026,0.01-0.035
			c0.008-0.004,0.017-0.013,0.018-0.026c0.084-0.377,0.099-0.77,0.081-1.157c0-0.021-0.016-0.035-0.032-0.039
			c-0.034-0.049-0.066-0.103-0.089-0.159c-0.005-0.019-0.021-0.027-0.035-0.027c0.083-0.101,0.141-0.219,0.174-0.348
			c0.006-0.021-0.006-0.037-0.018-0.045c0.002-0.111,0.012-0.223,0.029-0.332c0.003-0.005,0.006-0.012,0.008-0.019
			c0.001-0.021,0.005-0.042,0.008-0.063c0.004-0.021,0.006-0.042,0.012-0.062c0.002-0.011,0-0.021-0.006-0.025
			c0.09-0.778,0.118-1.564,0.047-2.342c-0.003-0.018-0.013-0.029-0.027-0.037c-0.004-0.009-0.012-0.019-0.021-0.022
			c-0.688-0.277-1.447-0.438-2.182-0.398c-0.018,0-0.029,0.013-0.033,0.026c-0.016,0.004-0.025,0.018-0.024,0.04
			c0.014,0.423,0.065,0.846,0.061,1.271c-0.002,0.435-0.049,0.951-0.375,1.254c-0.293,0.07-0.65,0.057-0.846-0.214
			c-0.01-0.014-0.023-0.019-0.035-0.017c-0.01-0.803-0.113-1.604-0.154-2.402c-0.002-0.042-0.049-0.05-0.07-0.025
			c-0.004-0.008-0.01-0.012-0.02-0.016c-0.965-0.237-2.041-0.239-3.01-0.02c-0.038,0.01-0.035,0.055-0.008,0.074
			c0.01,0.848-0.113,1.688-0.157,2.533c-0.006,0-0.014,0-0.021,0.004c-0.398,0.209-0.83,0.215-1.232,0.026
			c-0.109-0.823-0.095-1.664-0.117-2.495v-0.014c0.004-0.018-0.003-0.044-0.027-0.047c-0.714-0.074-1.503,0.042-2.121,0.445
			c-0.022-0.012-0.058,0-0.058,0.036c-0.04,0.917,0.018,1.837-0.021,2.754c-0.002,0.025,0.016,0.036,0.031,0.036
			c0.046,0.104,0.096,0.204,0.161,0.294c-0.013,0-0.026,0.007-0.031,0.023c-0.022,0.061-0.065,0.114-0.109,0.165
			c-0.015-0.029-0.071-0.022-0.071,0.022c-0.018,0.478,0.024,0.946,0.119,1.412c0.004,0.013,0.013,0.022,0.022,0.023
			c0.186,0.141,0.403,0.227,0.627,0.267c0.035,0.159,0.083,0.314,0.153,0.46c-0.005,0.014,0,0.034,0.017,0.044
			c0.002,0,0.002,0,0.002,0c0,0.003,0.002,0.003,0.002,0.008c0.009,0.014,0.022,0.021,0.039,0.016
			c0.172,0.102,0.36,0.172,0.557,0.186c0.223,0.096,0.404,0.26,0.533,0.472v0.012c0.043,0.617,0.008,1.238-0.03,1.854
			c-0.036,0.63-0.07,1.257-0.11,1.885c-0.04,0.657-0.098,1.311-0.219,1.956c-0.106,0.567-0.276,1.12-0.449,1.67
			c-0.064,0.084-0.091,0.199-0.07,0.308c-0.059,0.146-0.107,0.295-0.176,0.429c0,0-0.008,0.001-0.012,0.003
			c-0.54,0.37-0.868,1.061-1.111,1.745c-0.016-0.012-0.029-0.013-0.047,0.003c-0.494,0.491-1.057,0.928-1.424,1.584
			c-0.396,0.709-0.369,1.497,0.135,2.099c-0.887,0.432-1.195,1.886-0.534,2.774c0.021,0.029,0.047,0.02,0.062-0.004
			c0.781,0.677,1.727,0.986,2.653,1.184c1.058,0.228,2.145,0.306,3.217,0.332c1.338,0.031,2.677-0.073,4.009-0.224
			c0.653-0.075,1.307-0.158,1.958-0.248c0.604-0.086,1.195-0.235,1.748-0.549c0.017-0.009,0.024-0.024,0.024-0.044
			c0.42-0.345,0.68-0.916,0.674-1.547C77.1,98.343,76.703,97.849,76.195,97.678z"/>
		<path fill="#BF4C62" d="M122.167,52.879c0.427-0.37,0.478-1.038,0.228-1.618c-0.259-0.597-0.717-1.037-1.143-1.426
			c0.001-0.005,0.001-0.014,0-0.021c-0.126-0.652-0.428-1.285-0.906-1.58c-0.003-0.001-0.005-0.001-0.005-0.001
			c-0.176-0.838-0.383-1.663-0.558-2.499c0.027-0.066,0.036-0.138,0.027-0.212c0.055-0.001,0.11-0.003,0.165-0.005
			c0.286-0.094,0.565-0.238,0.755-0.47c0.213-0.263,0.322-0.592,0.246-0.927c-0.137-0.602-0.826-0.911-1.406-0.914
			c0.48-0.392,0.771-0.972,0.996-1.54c0.245-0.622,0.381-1.331,0.264-1.997c-0.123-0.692-0.506-1.236-1.061-1.655
			c-0.537-0.405-1.166-0.662-1.709-1.055c-0.005-0.004-0.01-0.007-0.015-0.007c-0.003-0.127,0.007-0.252,0.037-0.376
			c0.002-0.012,0-0.023-0.007-0.028c0.061-0.056,0.109-0.122,0.143-0.196c0.019,0.004,0.038-0.003,0.042-0.026
			c0.089-0.435,0.056-0.858-0.275-1.181c-0.219-0.216-0.538-0.293-0.836-0.263c-0.676,0.071-1.083,0.695-0.863,1.333
			c-0.001,0.005-0.001,0.011,0.003,0.018c0.011,0.033,0.034,0.062,0.047,0.096c0.005,0.013,0.017,0.02,0.027,0.021
			c0.057,0.07,0.115,0.139,0.185,0.196c0.008,0.006,0.017,0.007,0.025,0.006c0.013,0.14,0.031,0.278,0.045,0.417
			c-0.609,0.333-1.277,0.555-1.843,0.964c-0.555,0.401-0.915,1.013-1.099,1.665c-0.191,0.677-0.147,1.413,0.146,2.053
			c0.273,0.599,0.768,1.073,1.324,1.414c-0.533,0.081-1.215,0.323-1.408,0.869c-0.112,0.318-0.016,0.631,0.154,0.908
			c0.171,0.28,0.529,0.47,0.812,0.615l0,0c0.002,0.002,0.002,0.006,0.004,0.008c0,0.001,0,0.004,0,0.007
			c-0.011,0.06-0.021,0.119-0.034,0.178c-0.089,0.451-0.195,0.9-0.312,1.341c-0.102,0.388-0.209,0.799-0.381,1.146
			c-0.004,0.001-0.007,0.001-0.011,0.004c-0.423,0.304-0.681,0.872-0.871,1.435c-0.011-0.009-0.023-0.011-0.036,0.002
			c-0.388,0.404-0.829,0.764-1.116,1.304c-0.311,0.584-0.29,1.231,0.104,1.727c-0.694,0.357-0.936,1.552-0.417,2.284
			c0.016,0.022,0.036,0.016,0.048-0.002c0.611,0.557,1.354,0.811,2.08,0.974c0.829,0.187,1.681,0.25,2.521,0.271
			c1.05,0.026,2.098-0.058,3.142-0.184c0.512-0.061,1.025-0.129,1.536-0.204c0.473-0.07,0.937-0.192,1.371-0.45
			c0.012-0.009,0.019-0.021,0.021-0.038c0.327-0.284,0.531-0.753,0.526-1.273C122.875,53.426,122.564,53.021,122.167,52.879z"/>
	</g>
</g>
</svg>
