<?xml version="1.0" encoding="utf-8"?>
<!-- Generator: Adobe Illustrator 16.0.0, SVG Export Plug-In . SVG Version: 6.00 Build 0)  -->
<!DOCTYPE svg PUBLIC "-//W3C//DTD SVG 1.1//EN" "http://www.w3.org/Graphics/SVG/1.1/DTD/svg11.dtd">
<svg version="1.1" xmlns="http://www.w3.org/2000/svg" xmlns:xlink="http://www.w3.org/1999/xlink" x="0px" y="0px" width="393px"
	 height="170px" viewBox="0 0 393 170" enable-background="new 0 0 393 170" xml:space="preserve">
<g id="grid" display="none">
</g>
<g id="Layer_1">
	<g>
		<text transform="matrix(1 0 0 1 83.1572 73.2998)"><tspan x="0" y="0" fill="#F49D2A" font-family="'LeagueGothic-Regular'" font-size="51.0567" letter-spacing="1">convenciones</tspan><tspan x="34.743" y="44.767" fill="#F49D2A" font-family="'BillyOhio'" font-size="51.0567" letter-spacing="1">en familia</tspan></text>
		<g>
			<path fill="#F49D2A" d="M292.529,108.756c-7.267-3.523-14.427,2.874-16.223,9.697c-0.039,0.058-0.076,0.141-0.105,0.263
				c-1.372,5.863-0.589,12.874,5.623,15.493c6.104,2.573,12.896-1.606,15.5-7.116C300.178,121.051,298.979,111.883,292.529,108.756z
				 M295.521,127.147c-2.401,4.009-7.337,6.182-11.899,5.565c-5.701-0.773-7.316-5.744-6.77-10.642
				c0.059-0.087,0.102-0.229,0.118-0.453c0.032-0.415,0.085-0.824,0.155-1.228c0.028-0.125,0.055-0.253,0.084-0.378
				c0-0.002,0-0.006,0.002-0.008c1.291-6.198,7.147-10.877,13.625-9.807C298.723,111.501,298.819,121.638,295.521,127.147z"/>
			<path fill="#F49D2A" d="M281.006,117.32c-0.859,0.429-0.066,2.979,0.611,2.642C282.479,119.533,281.688,116.983,281.006,117.32z"
				/>
			<path fill="#F49D2A" d="M291.082,114.707c-0.253,0.538-0.059,1.261,0.189,1.76l0.062,0.13c0.162,0.323,0.648,0.79,0.895,0.265
				c0.256-0.538,0.062-1.261-0.187-1.761l-0.063-0.129C291.818,114.646,291.33,114.181,291.082,114.707z"/>
			<path fill="#F49D2A" d="M291.73,121.627c-0.239-0.307-0.619-0.278-0.672,0.157c-0.207,1.708-0.914,3.285-2.281,4.372
				c-1.664,1.323-3.342,0.255-4.205-1.37c-0.646-1.214-0.916,0.593-0.58,1.224c0.947,1.783,2.543,3.433,4.693,2.543
				c2.073-0.856,3.129-3.41,3.381-5.475C292.125,122.582,292.045,122.033,291.73,121.627z"/>
		</g>
	</g>
</g>
</svg>
