<?xml version="1.0" encoding="utf-8"?>
<!-- Generator: Adobe Illustrator 16.0.0, SVG Export Plug-In . SVG Version: 6.00 Build 0)  -->
<!DOCTYPE svg PUBLIC "-//W3C//DTD SVG 1.1//EN" "http://www.w3.org/Graphics/SVG/1.1/DTD/svg11.dtd">
<svg version="1.1" xmlns="http://www.w3.org/2000/svg" xmlns:xlink="http://www.w3.org/1999/xlink" x="0px" y="0px"
	 width="495.564px" height="333px" viewBox="0 0 495.564 333" enable-background="new 0 0 495.564 333" xml:space="preserve">
<g id="grid" display="none">
</g>
<g id="Layer_1">
	<g>
		<g>
			<path fill="#EDEDED" d="M393.302,260.738c-11.979-1.281-23.961-2.557-35.944-3.803c-39.055-4.065-78.15-7.895-117.284-11.21
				c-10.692,14.911-21.464,29.766-32.306,44.569c-0.514-0.014-1.016-0.049-1.523-0.074c3.128,0.446,6.266,0.854,9.411,1.22
				c35.104,4.082,71.189,3.192,105.984-3.069c24.973-4.493,50.011-12.198,72.104-24.956c-1.06,0.586-2.119,1.175-3.188,1.748
				C391.472,263.687,392.385,262.211,393.302,260.738z"/>
			<path fill="#EDEDED" d="M237.273,245.484c-44.042-3.704-88.137-6.721-132.285-8.672c-4.62,7.002-9.26,13.993-13.921,20.969
				c-0.809-0.262-1.623-0.512-2.443-0.742c4.525-6.772,9.03-13.557,13.519-20.353c-18.461-0.795-36.933-1.399-55.412-1.787
				c-0.549-0.842-1.116-1.672-1.712-2.487c19.578,0.391,39.15,1.016,58.712,1.866c22.674-34.375,44.952-69.017,67.694-103.343
				c-19.419,0.246-38.836,0.834-58.248,1.819c-0.454,0.464-1.185,0.612-1.633,0.077c-0.502,0.026-1.004,0.045-1.506,0.072
				c0.293-0.45,0.584-0.904,0.876-1.355c-0.016-0.038-0.027-0.075-0.043-0.113c-10.725,7.685-21.109,15.793-31.028,24.4
				c-13.679,11.869-27.47,25.354-35.717,41.715c-5.642,11.192-7.518,24.358,0.226,35.047c6.539,9.025,17.31,14.193,27.776,17.755
				c-0.199,0.511-0.078,1.1,0.591,1.36c42.828,16.734,86.646,31.656,132.242,38.317c1.725-2.349,3.45-4.695,5.169-7.046
				C219.233,270.523,228.279,258.021,237.273,245.484z"/>
			<path fill="#EDEDED" d="M394.962,262.717c0.851-0.501,1.694-1.015,2.536-1.532c-0.495-0.053-0.99-0.106-1.486-0.16
				C395.661,261.588,395.312,262.153,394.962,262.717z"/>
			<path fill="#EDEDED" d="M174.375,130.896c-22.788,34.373-45.099,69.071-67.798,103.507c33.915,1.509,67.803,3.651,101.649,6.265
				c10.237,0.79,20.47,1.634,30.701,2.501c25.931-36.186,51.43-72.679,76.57-109.418
				C268.467,131.747,221.416,130.38,174.375,130.896z"/>
			<path fill="#C9C9C9" d="M394.932,262.765c0.01-0.016,0.02-0.032,0.03-0.048c-0.403,0.238-0.812,0.464-1.218,0.699
				C394.14,263.197,394.538,262.986,394.932,262.765z"/>
			<path fill="#C9C9C9" d="M204.87,290.154c0.453,0.031,0.916,0.044,1.374,0.066c-0.429-0.061-0.855-0.128-1.283-0.19
				C204.931,290.071,204.9,290.112,204.87,290.154z"/>
			<path fill="#C9C9C9" d="M397.667,261.203c1.169-0.679,2.329-1.371,3.482-2.076c-0.102-0.011-0.203-0.022-0.305-0.033
				c-1.104,0.716-2.226,1.402-3.347,2.09C397.555,261.191,397.611,261.197,397.667,261.203z"/>
			<path fill="#C9C9C9" d="M121.139,124.09c-3.443,2.306-7.003,4.447-10.669,6.288c0.122,0.356,0.258,0.708,0.401,1.057
				c3.487-2.499,7.018-4.942,10.574-7.352C121.343,124.085,121.241,124.088,121.139,124.09z"/>
			<path fill="none" d="M434.744,121.211c-3.509-0.051-7.018-0.108-10.525-0.181C427.727,121.103,431.235,121.161,434.744,121.211z"
				/>
			<path fill="none" d="M174.375,130.896c-22.788,34.373-45.099,69.071-67.798,103.507c33.915,1.509,67.803,3.651,101.649,6.265
				c10.237,0.79,20.47,1.634,30.701,2.501c25.931-36.186,51.43-72.679,76.57-109.418
				C268.467,131.747,221.416,130.38,174.375,130.896z"/>
			<path fill="none" d="M445.15,121.331L445.15,121.331c-0.223-0.002-0.446-0.006-0.67-0.008
				C444.704,121.326,444.927,121.329,445.15,121.331z"/>
			<path fill="#EDEDED" d="M451.568,140.11c0.005,0.024,0.011,0.046,0.016,0.07c-11.887-0.516-23.771-1.054-35.654-1.63
				c-32.5-1.576-65.021-3.27-97.553-4.675c-25.161,36.779-50.688,73.306-76.637,109.531c51.059,4.36,102.035,9.583,152.99,15.03
				c19.775-31.751,39.818-63.338,59.706-95.022c0.064,1.442,0.127,2.884,0.186,4.328c-19.054,30.332-38.241,60.584-57.182,90.985
				c1.135,0.122,2.27,0.245,3.404,0.367c3.514-2.278,6.942-4.692,10.267-7.263c25.811-19.963,42.966-49.826,45.052-82.612
				c0.621-9.77-0.216-19.438-2.255-28.84C453.116,140.38,452.328,140.307,451.568,140.11z"/>
			<path fill="#EDEDED" d="M263.395,117.174c53.633-0.164,107.214,2.758,160.824,3.856c3.508,0.073,7.017,0.13,10.525,0.181
				c3.245,0.045,6.49,0.081,9.736,0.112c0.224,0.002,0.447,0.006,0.67,0.008c0.234-0.083,0.504-0.109,0.812-0.038
				c0.713,0.165,1.417,0.207,2.137,0.218c-7.944-19.845-21.03-37.816-36.693-52.09c-13.941-12.705-30.411-22.596-48.18-28.906
				c-11.363-4.036-23.765-6.941-35.904-6.217c-17.479,1.042-34.837,6.574-51.285,12.216c-22.896,7.855-45.168,17.534-66.959,28.048
				c-29.984,14.47-59.805,30.669-87.632,49.521c20.714-0.374,41.398-1.84,62.062-3.355
				C210.141,118.776,236.682,117.258,263.395,117.174z"/>
			<path fill="#C9C9C9" d="M444.48,121.323c-3.246-0.031-6.491-0.067-9.736-0.112C437.989,121.257,441.235,121.292,444.48,121.323z"
				/>
			<path fill="#C9C9C9" d="M454.622,167.743c-0.059-1.443-0.121-2.885-0.186-4.328c-19.888,31.684-39.931,63.271-59.706,95.022
				c-50.955-5.447-101.932-10.67-152.99-15.03c25.948-36.225,51.476-72.752,76.637-109.531c32.531,1.405,65.053,3.099,97.553,4.675
				c11.883,0.576,23.768,1.114,35.654,1.63c-0.005-0.024-0.011-0.046-0.016-0.07c0.76,0.197,1.548,0.27,2.34,0.27
				c-1.396-6.433-3.355-12.74-5.81-18.869c-0.72-0.011-1.424-0.053-2.137-0.218c-0.308-0.071-0.577-0.045-0.812,0.038l0,0
				c-0.224-0.002-0.446-0.005-0.67-0.008c-3.245-0.031-6.491-0.066-9.736-0.112c-3.509-0.05-7.018-0.108-10.525-0.181
				c-53.61-1.098-107.191-4.02-160.824-3.856c-26.713,0.083-53.254,1.602-79.888,3.553c-20.663,1.516-41.348,2.982-62.062,3.355
				c-3.557,2.41-7.087,4.853-10.574,7.352c0.016,0.038,0.027,0.075,0.043,0.113c-0.292,0.451-0.583,0.905-0.876,1.355
				c0.502-0.027,1.004-0.046,1.506-0.072c0.448,0.535,1.179,0.387,1.633-0.077c19.412-0.985,38.829-1.573,58.248-1.819
				c-22.742,34.326-45.021,68.968-67.694,103.343c-19.562-0.85-39.134-1.475-58.712-1.866c0.596,0.815,1.163,1.645,1.712,2.487
				c18.479,0.387,36.951,0.991,55.412,1.787c-4.488,6.796-8.993,13.581-13.519,20.353c0.82,0.23,1.635,0.48,2.443,0.742
				c4.661-6.976,9.301-13.967,13.921-20.969c44.148,1.951,88.243,4.968,132.285,8.672c-8.994,12.538-18.04,25.04-27.144,37.5
				c-1.719,2.352-3.444,4.698-5.169,7.046c0.428,0.062,0.854,0.129,1.283,0.19c0.508,0.025,1.01,0.06,1.523,0.074
				c10.842-14.803,21.613-29.658,32.306-44.569c39.134,3.315,78.229,7.145,117.284,11.21c11.983,1.246,23.965,2.522,35.944,3.803
				c-0.917,1.473-1.83,2.949-2.746,4.425c1.069-0.572,2.129-1.161,3.188-1.748c0.405-0.234,0.814-0.46,1.218-0.699
				c0.35-0.564,0.699-1.128,1.05-1.692c0.496,0.054,0.991,0.107,1.486,0.16c1.121-0.688,2.242-1.374,3.347-2.09
				c-1.135-0.122-2.27-0.246-3.404-0.367C416.381,228.327,435.568,198.075,454.622,167.743z M238.928,243.169
				c-10.231-0.867-20.464-1.711-30.701-2.501c-33.847-2.614-67.734-4.756-101.649-6.265c22.699-34.436,45.01-69.134,67.798-103.507
				c47.041-0.516,94.092,0.851,141.123,2.855C290.357,170.49,264.858,206.984,238.928,243.169z"/>
		</g>
		<g>
			<path fill="#815155" d="M300.306,259.767c-0.046-0.595-0.438-1.17-1.201-1.233c-19.06-1.549-37.951-4.868-56.852-7.694
				c-20.889-3.125-41.714-6.675-62.519-10.314c-39.396-6.892-78.731-14.172-118.331-19.819c-0.671-0.097-1.08,0.271-1.229,0.757
				c-0.283,0.126-0.535,0.347-0.691,0.688c-4.548,9.92-7.826,20.386-10.438,30.969c-0.136,0.239-0.208,0.515-0.197,0.785
				c-0.004,0.014-0.008,0.029-0.011,0.043c-0.329,1.353,1.324,2.128,2.127,1.42c38.04,11.143,76.771,19.679,116.097,24.775
				c20.102,2.605,40.321,4.246,60.568,5.143c13.853,0.614,27.977,1.568,41.875,0.486c-0.129,0.786,0.5,1.796,1.566,1.68
				c5.539-0.605,10.963-1.667,16.261-3.357c0.454,0.726,1.629,1.033,2.235,0.09c4.726-7.345,8.966-15.067,12.861-22.884
				C303.148,259.856,301.12,258.493,300.306,259.767z"/>
			<path fill="#BB8491" d="M350.359,164.817c0.083-0.459-0.076-0.933-0.622-1.204c-7.728-3.845-15.86-6.053-24.222-7.863
				c-9.511-2.06-19.013-4.18-28.572-5.992c-19.174-3.634-38.537-6.149-57.957-7.926c-38.879-3.56-78.022-3.806-117.038-2.31
				c-0.062,0.002-0.116,0.016-0.175,0.026c-0.022,0-0.045,0.005-0.067,0.009c-0.023,0.004-0.05,0.007-0.072,0.013
				c-0.212,0.042-0.425,0.137-0.626,0.319c-11.69,10.521-23.107,21.624-32.604,34.392c-0.345,0.462-0.33,0.928-0.125,1.297
				c-0.733,1.617-1.725,3.063-3.031,4.278c-0.078,0.073-0.145,0.15-0.201,0.228c-1.15,0.336-1.057,2.498,0.404,2.706
				c0.156,0.022,0.312,0.04,0.469,0.062l-24.535,38.756l240.949,38.309l33.324-54.918l-2.003-0.201
				c6.196-12.88,11.603-26.21,16.62-39.616C350.322,165.054,350.347,164.935,350.359,164.817z"/>
			<path fill="#815155" d="M349.483,165.009c-6.242,25.046-16.782,48.613-29.47,71.022c-6.02,10.632-12.69,20.86-19.126,31.238
				c-3.365,5.427-6.783,11.025-10.594,16.279c-12.322,0.757-24.581,1.743-36.869,2.378c-22.023,0.086-44.007-1.337-65.962-3.605
				c-19.166-1.98-38.293-4.715-57.207-8.474c-8.795-1.891-17.566-3.896-26.324-5.966c-1.279-0.327-2.56-0.654-3.836-0.992
				c-0.178-0.048-0.345-0.055-0.5-0.039c-15.67-3.733-31.309-7.609-46.982-11.252c-0.672-0.156-1.198,0.176-1.476,0.644
				c-0.173-0.493-0.647-0.864-1.186-0.885c-0.724-0.027-1.314,0.544-1.357,1.256c-0.049,0.835,0.167,1.541,0.565,2.142
				c0.09,0.387,0.337,0.742,0.789,0.938c0.053,0.023,0.105,0.044,0.158,0.066c0.203,0.163,0.415,0.319,0.647,0.459
				c0.269,0.165,0.574,0.218,0.868,0.183c37.973,16.078,78.926,23.117,119.452,29.745c37.401,6.118,76.803,11.796,114.668,6.683
				c0.473,0.652,1.604,0.914,2.246,0.058c4.484-5.988,8.179-12.718,12.079-19.091c6.439-10.521,12.959-20.975,19.006-31.732
				c13.06-23.225,24.161-47.652,31.199-73.402c0.058-0.212,0.062-0.41,0.032-0.589c0.582-2.083,1.146-4.17,1.669-6.27
				C352.381,164.17,349.891,163.373,349.483,165.009z"/>
			<g>
				<g>
					<path fill="#D8A4B2" d="M190.146,210.384c-0.095-0.144-0.245-0.214-0.411-0.225c-0.447-0.353-0.997-0.608-1.649-0.685
						c-0.219-0.025-0.418,0.039-0.573,0.146c-0.073,0.012-0.146,0.034-0.223,0.069c-0.806,0.371-1.427,0.996-1.879,1.66
						c-0.043,0.062-0.072,0.126-0.096,0.188c-0.003,0.007-0.008,0.011-0.011,0.02c-0.045,0.095-0.081,0.195-0.11,0.295
						c-0.064,0.079-0.111,0.173-0.124,0.289c-0.046,0.41-0.025,0.795,0.054,1.15c0.053,0.759,0.419,1.407,1.112,1.874
						c0.568,0.511,1.421,0.724,2.511,0.571c0.098-0.014,0.177-0.041,0.248-0.077c0.231-0.053,0.459-0.155,0.672-0.308
						c0.159-0.115,0.293-0.254,0.403-0.405c0.129-0.068,0.238-0.174,0.3-0.334C190.965,213.082,190.963,211.634,190.146,210.384z"/>
					<path fill="#D8A4B2" d="M197.382,206.88c0.003-0.715-0.251-1.332-0.831-1.723c-0.02-0.041-0.047-0.083-0.085-0.122
						c-0.584-0.589-1.424-0.828-2.351-0.538c-0.131-0.022-0.287,0.002-0.458,0.099c-2.824,1.566-3.748,3.998-2.731,6.235
						c0.049,0.108,0.13,0.178,0.222,0.218c0.67,1.423,2.226,1.912,4.15,1.194c0.19-0.011,0.393-0.085,0.56-0.252
						c0.055-0.056,0.104-0.11,0.154-0.165c0.137-0.039,0.27-0.125,0.372-0.272C197.456,210.01,197.842,208.294,197.382,206.88z"/>
					<path fill="#D8A4B2" d="M204.894,210.068c0.16-0.142,0.342-0.208,0.513-0.22c0.606-0.345,1.271-0.597,1.959-0.665
						c0.229-0.023,0.398,0.043,0.506,0.15c0.064,0.015,0.128,0.036,0.188,0.072c0.634,0.379,0.97,1.009,1.116,1.674
						c0.014,0.063,0.014,0.127,0.009,0.189c-0.001,0.007,0.003,0.012,0.003,0.017c0.002,0.101-0.01,0.198-0.027,0.297
						c0.029,0.081,0.031,0.175-0.007,0.289c-0.142,0.413-0.339,0.794-0.58,1.15c-0.398,0.756-1.059,1.398-1.966,1.858
						c-0.802,0.502-1.748,0.706-2.766,0.542c-0.09-0.013-0.159-0.042-0.213-0.078c-0.207-0.057-0.387-0.161-0.529-0.316
						c-0.104-0.116-0.175-0.256-0.219-0.407c-0.097-0.069-0.156-0.175-0.145-0.334C202.842,212.752,203.506,211.308,204.894,210.068
						z"/>
					<path fill="#D8A4B2" d="M199.376,206.639c0.322-0.712,0.856-1.326,1.615-1.71c0.04-0.042,0.084-0.081,0.14-0.121
						c0.854-0.581,1.801-0.811,2.594-0.512c0.139-0.02,0.283,0.006,0.411,0.104c2.102,1.59,1.909,4.026-0.128,6.25
						c-0.098,0.107-0.21,0.176-0.321,0.214c-1.318,1.413-3.093,1.885-4.686,1.15c-0.185-0.012-0.352-0.089-0.442-0.257
						c-0.03-0.055-0.055-0.112-0.08-0.167c-0.118-0.04-0.211-0.125-0.245-0.274C197.868,209.762,198.268,208.048,199.376,206.639z"
						/>
					<path fill="#D8A4B2" d="M188.407,208.09c-0.012-0.009-0.022-0.016-0.035-0.022c0.011-0.04,0.015-0.078,0.014-0.115
						c-0.011-0.25-0.015-0.511-0.084-0.736c-0.05-0.169-0.255-0.302-0.498-0.247c-0.419,0.092-0.688,0.338-0.833,0.684
						c-0.079,0.186-0.08,0.382-0.101,0.556c-0.028,0.228-0.043,0.454-0.051,0.677c-0.01,0.286,0.313,0.407,0.656,0.295
						c0.056,0.011,0.115,0.013,0.181,0.006c0.359-0.048,0.706-0.343,0.81-0.656C188.522,208.357,188.511,208.196,188.407,208.09z"/>
					<path fill="#D8A4B2" d="M196.531,203.103c0.076-0.297,0.172-0.613,0.183-0.895c0.005-0.18-0.046-0.299-0.182-0.398
						c-0.192-0.136-0.574-0.031-0.849,0.16c-0.22,0.153-0.358,0.375-0.472,0.57c-0.118,0.205-0.224,0.409-0.33,0.612
						c-0.086,0.162-0.143,0.295-0.102,0.432c0.036,0.119,0.139,0.203,0.284,0.228c0.134,0.026,0.322-0.013,0.496-0.089
						c0.038,0.003,0.077,0.002,0.12,0C195.998,203.696,196.454,203.407,196.531,203.103z"/>
					<path fill="#D8A4B2" d="M204.129,203.236c-0.005-0.268-0.012-0.54-0.044-0.805c-0.032-0.241-0.122-0.464-0.354-0.603
						c-0.35-0.206-0.842,0.002-1.039,0.323c-0.168,0.274-0.274,0.561-0.375,0.854c-0.102,0.295,0.033,0.595,0.374,0.676
						c0.115,0.028,0.245,0.021,0.367-0.012c0.094,0.076,0.22,0.123,0.379,0.123C203.756,203.79,204.134,203.536,204.129,203.236z"/>
					<path fill="#D8A4B2" d="M209.106,207.05c-0.121-0.524-1.003-0.442-1.188-0.033c-0.19,0.42-0.301,0.86-0.471,1.285
						c-0.123,0.312,0.137,0.538,0.449,0.604c0.073,0.074,0.175,0.133,0.307,0.166c0.3,0.073,0.699-0.06,0.756-0.322
						C209.085,208.172,209.242,207.647,209.106,207.05z"/>
					<path fill="#D8A4B2" d="M202.543,219.927c0.052-0.067,0.083-0.146,0.075-0.238c-0.077-1.07-0.678-1.902-1.752-2.495
						c-0.169-0.17-0.356-0.338-0.561-0.494c-0.012-0.01-0.024-0.016-0.038-0.023c-0.017-0.048-0.035-0.094-0.052-0.141
						c-0.03-0.084-0.086-0.143-0.156-0.186c-0.037-0.094-0.078-0.188-0.124-0.279c-0.023-0.184-0.059-0.365-0.115-0.548
						c-0.023-0.078-0.07-0.135-0.132-0.177c-0.504-0.962-1.637-1.626-3.107-1.828c-0.145-0.097-0.36-0.138-0.625-0.059
						c-0.097,0.03-0.196,0.06-0.296,0.093c-0.08-0.001-0.166,0.006-0.257,0.029c-1.095,0.287-2.143,0.729-3.047,1.27
						c-0.102,0.062-0.169,0.13-0.21,0.201c-0.02,0.016-0.039,0.03-0.059,0.046c-0.184,0.181-0.337,0.363-0.471,0.549
						c-0.07,0.041-0.134,0.094-0.186,0.162c-0.153,0.204-0.282,0.417-0.385,0.629c-0.01,0.011-0.02,0.02-0.03,0.031
						c-0.088,0.042-0.169,0.101-0.229,0.183c-0.029,0.038-0.064,0.08-0.097,0.12c-0.115,0.105-0.231,0.208-0.349,0.311
						c-1.46,0.397-2.637,1.116-3.083,2.228c-0.045,0.109-0.028,0.2,0.021,0.272c-0.212,0.547-0.154,1.125,0.219,1.678
						c0.051,0.076,0.124,0.13,0.209,0.168c0.41,0.506,1.145,0.896,2.088,1.123c0.222,0.053,0.425,0.013,0.586-0.068
						c0.01,0.129,0.114,0.242,0.353,0.29c0.433,0.084,0.866,0.145,1.303,0.186c1.327,0.269,2.795,0.271,4.288,0.065
						c0.443-0.036,0.886-0.09,1.331-0.165c1.062,0.03,2.094-0.219,3.035-0.715c0.169,0.056,0.381,0.042,0.588-0.09
						C202.232,221.453,202.585,220.721,202.543,219.927z"/>
				</g>
				<g>
					<path fill="#D8A4B2" d="M229.225,216.892c0.206-0.083,0.391-0.083,0.537-0.032c0.679-0.121,1.355-0.127,1.959,0.053
						c0.201,0.06,0.307,0.186,0.34,0.332c0.046,0.036,0.089,0.08,0.12,0.137c0.329,0.604,0.282,1.346,0.062,2.056
						c-0.021,0.068-0.052,0.131-0.089,0.19c-0.003,0.006-0.003,0.012-0.008,0.018c-0.048,0.099-0.107,0.192-0.172,0.285
						c-0.017,0.086-0.062,0.184-0.154,0.281c-0.327,0.352-0.687,0.661-1.067,0.922c-0.717,0.602-1.593,0.996-2.576,1.124
						c-0.921,0.207-1.806,0.064-2.562-0.465c-0.067-0.046-0.11-0.1-0.137-0.155c-0.141-0.13-0.235-0.299-0.272-0.504
						c-0.028-0.151-0.015-0.314,0.027-0.48c-0.046-0.102-0.04-0.229,0.051-0.383C226.155,218.796,227.445,217.612,229.225,216.892z"
						/>
					<path fill="#D8A4B2" d="M226.417,211.341c0.632-0.587,1.388-0.998,2.211-1.103c0.053-0.027,0.111-0.051,0.176-0.068
						c1.003-0.268,1.904-0.15,2.405,0.431c0.127,0.031,0.231,0.11,0.286,0.25c0.921,2.33-0.484,4.663-3.309,6.12
						c-0.136,0.07-0.262,0.098-0.374,0.095c-1.812,0.918-3.522,0.741-4.46-0.561c-0.146-0.079-0.244-0.215-0.233-0.413
						c0.004-0.066,0.011-0.128,0.019-0.193c-0.076-0.083-0.109-0.201-0.06-0.36C223.571,213.876,224.78,212.328,226.417,211.341z"/>
					<path fill="#D8A4B2" d="M217.432,211.166c-0.004-0.176-0.095-0.297-0.226-0.371c-0.188-0.507-0.511-0.958-1.012-1.271
						c-0.168-0.105-0.364-0.111-0.548-0.064c-0.066-0.013-0.137-0.02-0.218-0.012c-0.857,0.078-1.691,0.469-2.403,0.96
						c-0.066,0.044-0.124,0.095-0.175,0.15c-0.007,0.004-0.013,0.007-0.019,0.012c-0.088,0.081-0.167,0.165-0.242,0.251
						c-0.093,0.055-0.182,0.132-0.25,0.241c-0.249,0.389-0.43,0.776-0.546,1.154c-0.346,0.768-0.376,1.538-0.044,2.251
						c0.209,0.709,0.804,1.227,1.781,1.468c0.088,0.024,0.169,0.026,0.245,0.017c0.219,0.031,0.461,0.012,0.713-0.063
						c0.191-0.056,0.373-0.145,0.542-0.254c0.141-0.02,0.284-0.084,0.417-0.22C216.724,214.124,217.464,212.695,217.432,211.166z"/>
					<path fill="#D8A4B2" d="M224.996,210.403c0.371-0.703,0.478-1.403,0.198-1.999c0.006-0.049,0.004-0.098-0.008-0.149
						c-0.18-0.794-0.753-1.334-1.666-1.382c-0.097-0.067-0.238-0.101-0.429-0.069c-3.135,0.523-5.144,2.589-5.45,5.164
						c-0.017,0.125,0.014,0.222,0.071,0.296c-0.178,1.646,0.855,2.69,2.814,2.679c0.162,0.058,0.367,0.056,0.591-0.047
						c0.071-0.034,0.143-0.07,0.212-0.107c0.134,0.012,0.286-0.025,0.447-0.135C223.456,213.52,224.654,211.968,224.996,210.403z"/>
					<path fill="#D8A4B2" d="M232.688,215.659c0.018-0.005,0.034-0.004,0.05-0.007c0.025-0.034,0.056-0.068,0.089-0.097
						c0.231-0.202,0.466-0.414,0.724-0.572c0.189-0.12,0.477-0.153,0.627-0.016c0.261,0.229,0.266,0.529,0.076,0.867
						c-0.102,0.182-0.277,0.344-0.414,0.493c-0.181,0.199-0.366,0.387-0.559,0.572c-0.246,0.239-0.618,0.218-0.8,0
						c-0.054-0.013-0.106-0.031-0.153-0.062c-0.252-0.172-0.273-0.543-0.079-0.837C232.357,215.836,232.511,215.708,232.688,215.659
						z"/>
					<path fill="#D8A4B2" d="M230.617,209.387c0.029,0.018,0.062,0.032,0.097,0.042c0.074,0.13,0.194,0.229,0.326,0.259
						c0.141,0.033,0.299,0.002,0.437-0.082c0.155-0.098,0.228-0.226,0.301-0.39c0.093-0.207,0.189-0.414,0.273-0.625
						c0.081-0.202,0.165-0.434,0.121-0.641c-0.056-0.257-0.274-0.487-0.553-0.446c-0.198,0.03-0.35,0.109-0.504,0.258
						c-0.242,0.235-0.442,0.53-0.646,0.801C230.262,208.841,230.38,209.247,230.617,209.387z"/>
					<path fill="#D8A4B2" d="M224.203,206.568c0.13,0.058,0.275,0.066,0.42,0.04c0.07,0.073,0.17,0.126,0.289,0.144
						c0.352,0.062,0.729-0.135,0.908-0.412c0.178-0.277,0.346-0.552,0.451-0.838c0.125-0.338-0.095-0.688-0.563-0.652
						c-0.312,0.026-0.587,0.178-0.825,0.362c-0.265,0.206-0.509,0.425-0.751,0.643C223.861,206.099,223.944,206.447,224.203,206.568
						z"/>
					<path fill="#D8A4B2" d="M216.664,207.134c0.565-0.387,1.213,0.009,1.004,0.411c-0.219,0.415-0.52,0.815-0.759,1.227
						c-0.176,0.3-0.59,0.391-0.903,0.328c-0.126,0.032-0.263,0.044-0.399,0.023c-0.312-0.051-0.518-0.307-0.332-0.544
						C215.685,208.061,216.023,207.572,216.664,207.134z"/>
					<path fill="#D8A4B2" d="M210.591,220.11c0.018-0.076,0.062-0.151,0.149-0.224c1.018-0.851,2.247-1.307,3.653-1.393
						c0.291-0.078,0.591-0.143,0.898-0.197c0.018-0.004,0.033-0.002,0.052-0.006c0.056-0.03,0.111-0.062,0.166-0.094
						c0.099-0.057,0.197-0.084,0.293-0.093c0.114-0.063,0.232-0.125,0.352-0.183c0.182-0.142,0.371-0.277,0.581-0.408
						c0.088-0.053,0.177-0.082,0.265-0.096c1.268-0.602,2.786-0.724,4.169-0.344c0.205-0.025,0.417,0.021,0.563,0.183
						c0.055,0.062,0.108,0.122,0.161,0.186c0.063,0.031,0.129,0.068,0.182,0.12c0.645,0.637,1.107,1.391,1.367,2.169
						c0.03,0.088,0.023,0.168-0.006,0.241c0.002,0.021,0.007,0.04,0.006,0.061c-0.009,0.214-0.044,0.423-0.104,0.624
						c0.023,0.058,0.028,0.125,0.011,0.2c-0.056,0.224-0.141,0.445-0.245,0.659c-0.001,0.012-0.001,0.024-0.001,0.034
						c0.033,0.069,0.048,0.146,0.026,0.234c-0.013,0.043-0.021,0.091-0.03,0.136c0.001,0.129,0.004,0.256,0.008,0.384
						c0.843,0.867,1.168,1.892,0.546,2.967c-0.061,0.108-0.154,0.175-0.259,0.214c-0.314,0.528-0.876,0.979-1.671,1.294
						c-0.11,0.044-0.218,0.06-0.322,0.061c-0.784,0.261-1.731,0.308-2.707,0.145c-0.229-0.04-0.358-0.147-0.421-0.274
						c-0.121,0.102-0.307,0.157-0.544,0.108c-0.429-0.092-0.838-0.203-1.232-0.331c-1.326-0.273-2.529-0.814-3.568-1.537
						c-0.331-0.194-0.646-0.403-0.944-0.626c-0.896-0.372-1.52-0.958-1.85-1.712c-0.188-0.018-0.349-0.106-0.402-0.292
						C209.488,221.475,209.852,220.743,210.591,220.11z"/>
				</g>
			</g>
			<path fill="#2A2828" d="M354.784,171.672c0.264-2.108-0.067-4.499-1.397-6.151c0.148-0.706-0.092-1.454-0.948-1.905
				c-16.205-8.502-34.344-11.442-52.189-14.545c-20.662-3.592-41.479-6.022-62.374-7.752c-20.311-1.682-40.687-2.526-61.033-3.664
				c-18.674-1.043-37.453-1.466-56.003,1.317c-0.651,0.098-1.081,0.421-1.319,0.844c-0.028,0.023-0.061,0.039-0.09,0.065
				c-16.115,13.908-30.157,29.799-41.787,47.637c-5.728,8.787-10.764,18.078-15.145,27.605
				c-5.264,11.446-10.659,23.018-13.551,35.324c-0.498,0.359-0.857,0.904-0.803,1.524c0.25,2.796,0.693,5.416,1.604,8.04
				c-0.049,0.5,0.113,0.996,0.573,1.369c0.323,0.436,0.767,0.631,1.234,0.636c35.203,16.547,73.586,21.298,111.756,26.219
				c21.217,2.737,42.455,5.306,63.764,7.233c20.448,1.851,42.093,4.597,62.575,2.335c1.224-0.135,1.657-1.08,1.514-2.017
				c14.424-16.844,25.413-36.882,35.547-56.511c10.97-21.247,20.28-43.366,28.272-65.894
				C355.228,172.698,355.103,172.115,354.784,171.672z M324.393,234.862c-10.209,20.293-21.608,41.304-36.526,58.545
				c-0.146,0.169-0.249,0.347-0.333,0.528c-19.739,1.98-40.64-0.827-60.299-2.55c-20.425-1.791-40.782-4.295-61.117-6.894
				c-38.342-4.9-77.281-9.362-112.643-26.049c-0.586-1.668-0.914-3.399-1.117-5.15c0.098-0.17,0.182-0.357,0.232-0.585
				c4.766-21.408,15.784-42.637,27.33-61.152c11.439-18.345,25.928-34.551,42.265-48.653c18.061-2.663,36.326-2.133,54.5-1.161
				c19.476,1.041,38.967,1.957,58.413,3.454c19.175,1.478,38.295,3.638,57.289,6.66c19.11,3.042,39.408,5.852,56.849,14.71
				c0.046,0.407,0.213,0.791,0.532,1.069c1.081,0.944,1.233,2.699,0.902,4.022c-0.128,0.509-0.068,0.964,0.105,1.351
				C343.237,194.146,334.48,214.811,324.393,234.862z"/>
			<g>
				<path fill="#D8A4B2" d="M99.277,240.307c-0.21-0.181-0.433-0.339-0.66-0.486c1.171-0.795,1.978-1.952,2.01-3.62
					c0.088-4.456-5.474-4.896-8.614-4c-0.428,0.119-0.685,0.407-0.806,0.74c-0.1,0.108-0.186,0.241-0.246,0.408
					c-1.981,5.388-4.018,10.777-6.459,15.978c-0.325,0.694,0.077,1.23,0.642,1.422c0.083,0.329,0.293,0.629,0.673,0.808
					c5.382,2.531,14.691,2.021,15.983-5.163C102.223,244.048,101.009,241.787,99.277,240.307z M98.265,236.045
					c0.058,1.556-1.276,2.314-2.849,2.666c-1.331-0.167-2.716-0.065-4.003,0.18c0.573-1.505,1.139-3.012,1.693-4.522
					C94.903,233.995,98.184,233.791,98.265,236.045z M87.014,249.501c1.235-2.676,2.367-5.398,3.445-8.145
					c0.184,0.063,0.396,0.083,0.641,0.023c0.095-0.022,0.197-0.04,0.295-0.062c1.039,0.066,2.265,0.037,3.482-0.155
					c2.543,0.317,4.788,1.675,4.599,4.768C99.127,251.609,90.716,250.996,87.014,249.501z"/>
				<path fill="#D8A4B2" d="M263.975,271.037c-1.544-0.219-3.174-0.496-4.827-0.705c0.333-2.748,0.158-5.708,0.549-8.394
					c0.145-0.985-0.81-1.387-1.552-1.133c-0.275-0.123-0.604-0.133-0.956,0.042c-3.377,1.688-7.082,3.268-10.828,3.922
					c-0.652-3.816-4.825-5.869-8.755-4.941c-0.232,0.055-0.412,0.161-0.553,0.295c-3.502,0.892-6.979,3.656-7.353,7.305
					c-0.081,0.803-0.018,1.55,0.156,2.239c-0.109,0.029-0.221,0.072-0.336,0.145c-1.229,0.783-2.625,1.526-4.125,1.456
					c-1.426-0.069-1.191-1.724-0.952-2.704c0.054-0.222,0.045-0.426-0.005-0.611c2.131-5.212,4.144-10.461,5.851-15.83
					c0.463-1.455-1.772-2.233-2.236-0.78c-0.749,2.355-1.566,4.684-2.415,7c-0.081-0.152-0.167-0.303-0.267-0.452
					c-0.902-1.334-2.413-1.894-3.953-2.086c-0.106-0.014-0.204-0.012-0.298,0c-4.048-0.572-7.538,2.066-8.453,6.226
					c-0.194,0.888-0.239,1.73-0.149,2.506c-0.068,0.054-0.133,0.117-0.193,0.191c-1.086,1.312-3.644,3.884-4.434,0.957
					c-0.522-1.939,0.52-4.032,1.603-5.561c0.826-1.168-0.722-2.294-1.761-1.555c-1.74,1.239-3.678,2.13-5.61,3.021
					c0.517-1.997,0.816-4.039,0.717-6.133c-0.099-2.065-1.299-4.018-3.616-3.314c-2.604,0.792-4.716,3.372-6.451,5.317
					c-0.387,0.435-0.766,0.88-1.143,1.325c0.365-1.215,0.648-2.454,0.817-3.724c0.115-0.877-0.952-1.559-1.71-1.137
					c-4.129,2.3-7.562,6.176-12.369,7.02c-0.253,0.044-0.444,0.148-0.59,0.288c-2.616,0.383-5.284-0.175-6.763-2.666
					c-0.919-1.546-0.277-3.038,0.776-4.204c2.767,1.277,5.682,2.333,8.544,3.018c1.462,0.35,3.718,0.808,4.814-0.575
					c1.26-1.589-0.281-3.741-1.197-5.06c-2.759-3.98-8.739-2.832-12.462-0.186c-0.877-0.414-1.742-0.844-2.571-1.323
					c-0.356-0.206-0.714-0.208-1.02-0.092c-0.342-0.119-0.736-0.072-1.092,0.244c-2.965,2.643-5.402,5.763-7.783,8.925
					c-0.902-3.483-1.551-7.013-2.068-10.583c-0.103-0.711-1.055-1.215-1.688-0.82c-2.125,1.324-4.274,2.566-6.505,3.682
					c0.631-3.069,0.37-5.853-2.295-6.888c-3.488-1.358-6.693,1.346-9.262,4.662c0.291-1.175-0.925-1.962-1.897-1.264
					c-3.274,2.348-6.287,5.376-10.438,5.972c-0.348,0.048-0.585,0.214-0.734,0.429c-3.378,0.295-7.448-0.723-7.43-4.015
					c3.495,0.664,7.557,0.815,10.843-0.202c4.821-1.495,2.53-6.577-1.006-8.182c-4.418-2.009-10.309,1.856-11.816,6.14
					c-0.023,0.016-0.049,0.026-0.07,0.044c-0.978,0.778-2.034,1.431-3.152,1.984c-0.128,0.062-0.229,0.142-0.316,0.227
					c-0.104,0.041-0.209,0.09-0.311,0.167c-0.723,0.536-2.17,1.759-3.195,1.451c-0.569-0.172-0.373-1.785-0.342-2.168
					c0.185-2.288,1.202-4.708,2.654-6.473c0.872-1.062-0.774-2.425-1.759-1.556c-1.829,1.613-4.018,2.592-6.121,3.784
					c-1.32,0.749-0.274,2.873,1.059,2.119c0.829-0.471,1.672-0.915,2.503-1.374c-0.606,1.759-0.883,3.631-0.65,5.35
					c0.59,4.365,5.232,2.261,7.411,0.648c0.007-0.006,0.01-0.011,0.018-0.017c0.035-0.015,0.07-0.023,0.106-0.04
					c0.61-0.302,1.205-0.638,1.783-1c0.624,5.161,7.962,6.398,12.454,5.023c0.331-0.101,0.557-0.302,0.698-0.543
					c2.442-0.824,4.55-2.337,6.618-3.915c-0.396,1.492-0.842,2.967-1.423,4.396c-0.01,0.017-0.021,0.035-0.029,0.049
					c-0.1,0.162-0.156,0.327-0.177,0.486c-0.485,1.352,1.674,2.061,2.262,0.698c0.026-0.063,0.051-0.127,0.076-0.191
					c2.224-3.694,5.219-9.605,9.609-10.661c4.817-1.158-0.879,12.267-1.489,13.959c-0.52,1.438,1.72,2.211,2.236,0.777
					c0.515-1.426,1.794-4.068,2.742-6.858c0.039-0.014,0.076-0.022,0.117-0.041c2.373-1.085,4.636-2.335,6.862-3.677
					c0.598,3.815,1.347,7.589,2.456,11.299c0.295,0.985,1.494,1.284,2.14,0.426c2.666-3.547,5.278-7.156,8.562-10.162
					c0.499,0.28,1.008,0.555,1.523,0.822c-0.115,0.137-0.226,0.275-0.327,0.413c-1.688,2.313-1.078,5.063,0.491,7.214
					c2.23,3.054,6.699,3.257,10.025,2.323c0.234-0.066,0.415-0.184,0.554-0.329c3.474-1.052,6.253-3.44,9.247-5.472
					c-0.584,2.2-1.501,4.322-2.54,6.332c-0.208,0.403-0.175,0.804-0.012,1.133c-0.225,1.077,1.386,1.965,2.165,0.876
					c2.633-3.677,5.478-7.466,9.004-10.334c1.6-1.3,2.297-1.553,2.307,0.686c0.021,4.805-2.1,9.237-3.886,13.573
					c-0.584,1.417,1.657,2.186,2.235,0.781c0.807-1.958,1.663-3.948,2.379-5.98c0.167,0.001,0.345-0.035,0.528-0.123
					c1.343-0.641,2.691-1.252,4.006-1.924c-0.555,1.987-0.473,4.088,0.82,5.855c1.928,2.633,4.973,0.564,6.814-1.28
					c0.928,1.431,2.506,2.339,4.467,2.477c0.23,0.184,0.533,0.29,0.896,0.248c1.062-0.121,2.03-0.477,2.906-0.993
					c0.01,0.259,0.124,0.479,0.291,0.65c-0.098,1.62,0.321,3.257,2.025,3.928c2.215,0.87,4.727-0.214,6.597-1.402
					c0.098-0.062,0.177-0.134,0.248-0.209c1.433,1.94,4.002,2.989,6.631,2.771c3.789-0.313,8.13-3.48,8.873-7.334
					c0.07,0,0.141-0.002,0.217-0.014c3.634-0.586,7.283-2.044,10.627-3.655c-0.118,2.163,0.006,4.451-0.276,6.611
					c-3.007-0.223-6.009-0.042-8.656,1.29c-2.494,1.253-5.876,5.077-2.709,7.404c2.614,1.92,7.348,0.521,9.707-1.12
					c1.926-1.34,2.925-3.085,3.466-5.026c1.731,0.213,3.453,0.515,5.114,0.751C265.33,273.614,265.478,271.249,263.975,271.037z
					 M183.244,255.385c0.044,0.189-6.345-1.565-7.146-1.877c-0.698-0.271-1.402-0.552-2.105-0.843
					C177.286,250.951,182.288,251.157,183.244,255.385z M126.56,244.811c0.663,0.463,2.095,2.042,1.208,2.803
					c-0.938,0.803-2.806,0.824-3.958,0.887c-2.112,0.116-4.397,0.06-6.531-0.307C118.729,245.139,123.609,242.747,126.56,244.811z
					 M223.325,264.402c-0.303,0.024-0.603,0.168-0.833,0.479c-0.788,1.057-1.757,1.841-2.933,2.257
					c-0.139-0.03-0.288-0.041-0.451-0.016c-7.048,1.042-4.377-10.875,2.481-8.816c0.179,0.053,0.346,0.065,0.501,0.048
					c0.537,0.167,1.012,0.444,1.388,0.932c0.616,0.8,0.459,2.12,0.337,3.037c-0.032,0.239,0.007,0.439,0.084,0.61
					C223.708,263.422,223.521,263.913,223.325,264.402z M243.923,267.079c-0.709,2.577-3.572,4.308-5.989,4.932
					c-2.909,0.75-6.535-1.181-5.833-4.608c0.606-2.951,4.134-5.181,6.986-5.227c0.247-0.003,0.453-0.074,0.627-0.182
					C242.395,262.093,244.783,263.947,243.923,267.079z M247.641,277.125c-1.238-0.258-1.181-0.833-0.513-1.754
					c1.254-1.732,3.269-2.474,5.284-2.79c1.298-0.204,2.626-0.222,3.964-0.148c-0.19,0.57-0.429,1.125-0.739,1.654
					C254.216,276.508,250.264,277.672,247.641,277.125z"/>
				<path fill="#D8A4B2" d="M111.583,236.867c-0.681-0.044-1.168,0.464-1.259,1.103c0.05-0.348,0.012-0.066-0.015,0.016
					c-0.01,0.033-0.101,0.239-0.107,0.27c-0.045,0.08-0.093,0.157-0.144,0.234c-0.039,0.047-0.054,0.069-0.059,0.079
					c-0.031,0.031-0.062,0.062-0.096,0.088c-0.485,0.424-0.535,1.187-0.111,1.671c0.426,0.485,1.186,0.535,1.671,0.11
					c0.668-0.582,1.098-1.44,1.223-2.311C112.777,237.487,112.19,236.909,111.583,236.867z"/>
				<path fill="#D8A4B2" d="M212.183,253.007c-0.264-1.504-2.584-1.027-2.319,0.477c0.026,0.145,0.004,0.333-0.09,0.509
					c-0.173,0.325-0.408,0.538-0.708,0.75c-0.528,0.372-0.504,1.222-0.111,1.669c0.458,0.524,1.144,0.483,1.67,0.111
					C211.735,255.738,212.423,254.371,212.183,253.007z"/>
			</g>
			<path fill="#2A2828" d="M344.365,170.707c-10.595,41.966-36.417,79.52-58.568,116.131c-1.365,2.257,2.083,4.454,3.448,2.198
				c22.325-36.898,48.336-74.778,59.018-117.09C348.905,169.396,345.01,168.152,344.365,170.707z"/>
			<path fill="#2A2828" d="M278.089,285.149c-37.334-2.921-74.803-4.832-112.075-8.431c-37.065-3.579-74.063-11.456-109.603-22.53
				c-2.521-0.786-3.752,3.114-1.238,3.896c35.084,10.935,71.538,18.634,108.094,22.459c38.089,3.987,76.481,5.704,114.664,8.692
				C280.562,289.441,280.71,285.354,278.089,285.149z"/>
			<g>
				<g>
					<path fill="#D8A4B2" d="M187.75,151.539c-0.333-0.613-1.781-0.838-2.614-0.513c0.28-1.518,1.105-3.096,1.734-4.573
						c0.122-0.284,0.353-0.474,0.613-0.589c0.605-0.357,1.407-0.39,1.44,0.318c0.006,0.026-0.001,0.05,0.002,0.074
						c0.015,0.063,0.006,0.141-0.007,0.22c0.042,1.747-0.355,3.492-1.121,5.186C187.783,151.621,187.771,151.579,187.75,151.539z"/>
					<path fill="#D8A4B2" d="M192.6,164.707c-0.362-0.089-0.757-0.064-1.117,0.045c0.356-0.961,0.919-1.865,1.688-2.71
						c0.162-0.274,0.317-0.549,0.486-0.816c0.683-1.062,2.307-0.377,1.761,0.646c-0.012,0.079-0.017,0.154-0.062,0.25
						c-0.599,1.207-1.151,2.427-1.732,3.636C193.582,165.282,193.213,164.86,192.6,164.707z"/>
					<path fill="#D8A4B2" d="M176.709,149.813c-0.341-0.177-0.832-0.23-1.288-0.155c-0.356,0.019-0.707,0.123-1,0.294
						c-0.006,0.002-0.012,0.002-0.016,0c0.505-1.396,1.209-2.75,2.169-4.037c0.449-0.603,1.197-0.608,1.614-0.318
						c0.313,0.087,0.552,0.303,0.531,0.708c-0.08,1.449-0.525,2.896-1.406,4.214C177.247,150.245,177.061,149.996,176.709,149.813z"
						/>
					<path fill="#D8A4B2" d="M160.109,158.232c0.217-0.806,1.857-1.304,2.111-0.304c0.334,1.299,0.24,2.612-0.168,3.925
						c0.003,0.04-0.007,0.085-0.012,0.127c-0.174-0.252-0.459-0.456-0.841-0.55c-0.527-0.133-1.128-0.023-1.579,0.244
						c-0.132,0.044-0.256,0.104-0.37,0.173c-0.047,0.023-0.097,0.042-0.141,0.068c-0.014,0.007-0.03,0.012-0.045,0.021
						c-0.013,0.006-0.027,0.013-0.037,0.02c0.011-0.002,0.023-0.008,0.035-0.013c-0.066,0.039-0.116,0.088-0.175,0.131
						c-0.038,0.007-0.259,0.227-0.293,0.237c0.049-0.256,1.026-3.096,1.479-4.028C160.082,158.263,160.099,158.249,160.109,158.232z
						"/>
					<path fill="#D8A4B2" d="M187.067,179.957c-0.419,0.663-1.699,0.698-2.503,0.28c-0.576-0.264-0.921-0.72-0.658-1.187
						c0.11-1.958,0.135-3.88,0.874-5.814c0.778-2.045,3.021-3.557,5.246-4.71c0.981-0.507,2.486-0.135,2.692,0.739
						C193.777,173.723,191.129,176.71,187.067,179.957z"/>
					<path fill="#D8A4B2" d="M157.167,165.889c0.366-0.582,1.492-0.615,2.198-0.246c0.505,0.233,0.808,0.631,0.577,1.042
						c-0.097,1.721-0.118,3.407-0.768,5.107c-0.684,1.795-2.654,3.123-4.605,4.135c-0.864,0.446-2.184,0.12-2.367-0.649
						C151.274,171.363,153.599,168.739,157.167,165.889z"/>
					<path fill="#D8A4B2" d="M179.978,172.594c-0.508,0.979-1.529,1.35-2.482,1.291c-1.595,0.494-3.543-0.222-3.012-1.837
						c1.878-5.732,2.461-11.073,7.189-16.112c1.496-1.596,3.871-0.76,4.242,0.696C187.406,162.442,182.886,166.993,179.978,172.594z
						"/>
					<path fill="#D8A4B2" d="M163.138,170.074c-0.338,1.011,0.389,1.719,1.42,2.042c1.207,1.035,3.846,1.201,4.723-0.348
						c3.117-5.498,7.225-10.164,6.794-16.198c-0.135-1.91-3.318-2.143-4.985-1.079C164.43,158.738,165.077,164.285,163.138,170.074z
						"/>
					<path fill="#D8A4B2" d="M151.349,188.336c0.15,0.166,0.342,0.267,0.548,0.318c3.201,3.673,8.797,5.572,14.408,6.143
						c4.444,0.452,10.209,0.373,14.252-2.22c1.581-0.586,2.83-1.732,3.214-3.611c0.706-3.481-1.865-6.346-5.538-7.243
						c-1.574-2.897-3.894-5.648-7.588-6.333c-4.196-0.779-7.987,0.855-11.344,3.22c-0.008,0-0.014-0.003-0.021-0.006
						c-3.068-0.292-6.538,0.41-8.581,2.857C148.704,183.849,149.684,186.493,151.349,188.336z"/>
				</g>
				<g>
					<path fill="#D8A4B2" d="M118.282,154.71c0.587-0.622,2.132-0.87,2.833-0.558c0.343-1.519,0.162-3.089,0.137-4.561
						c-0.006-0.282-0.16-0.47-0.374-0.58c-0.462-0.348-1.252-0.366-1.578,0.343c-0.015,0.028-0.018,0.052-0.031,0.077
						c-0.039,0.062-0.062,0.142-0.082,0.218c-0.759,1.754-1.077,3.5-1.003,5.187C118.216,154.794,118.245,154.75,118.282,154.71z"/>
					<path fill="#D8A4B2" d="M108.014,168.011c0.403-0.097,0.788-0.076,1.104,0.025c0.036-0.956-0.158-1.855-0.582-2.691
						c-0.051-0.271-0.094-0.542-0.153-0.81c-0.25-1.051-2.161-0.34-2.031,0.678c-0.021,0.079-0.047,0.156-0.04,0.249
						c0.105,1.204,0.159,2.415,0.247,3.62C106.795,168.604,107.339,168.173,108.014,168.011z"/>
					<path fill="#D8A4B2" d="M130.07,152.789c0.416-0.185,0.93-0.247,1.355-0.177c0.351,0.011,0.661,0.108,0.884,0.277
						c0.006,0,0.012,0,0.017,0c0.066-1.394-0.088-2.738-0.521-4.013c-0.204-0.599-0.953-0.591-1.49-0.293
						c-0.349,0.093-0.678,0.315-0.823,0.72c-0.515,1.454-0.66,2.898-0.314,4.202C129.355,153.229,129.643,152.978,130.07,152.789z"
						/>
					<path fill="#D8A4B2" d="M143.277,160.948c0.113-0.805-1.329-1.276-1.995-0.268c-0.869,1.31-1.312,2.624-1.44,3.936
						c-0.019,0.04-0.028,0.084-0.039,0.128c0.277-0.258,0.646-0.468,1.069-0.57c0.583-0.141,1.14-0.044,1.483,0.219
						c0.114,0.042,0.212,0.1,0.3,0.167c0.039,0.022,0.079,0.041,0.114,0.065c0.011,0.008,0.024,0.013,0.036,0.019
						c0.01,0.007,0.021,0.016,0.031,0.022c-0.012-0.004-0.023-0.01-0.031-0.014c0.049,0.039,0.081,0.086,0.119,0.129
						c0.037,0.005,0.168,0.225,0.198,0.233c0.057-0.255,0.239-3.092,0.167-4.018C143.292,160.977,143.277,160.966,143.277,160.948z"
						/>
					<path fill="#D8A4B2" d="M107.313,183.219c0.148,0.657,1.421,0.672,2.398,0.238c0.687-0.279,1.218-0.738,1.146-1.203
						c0.691-1.964,1.456-3.892,1.51-5.822c0.055-2.038-1.575-3.517-3.335-4.634c-0.775-0.493-2.438-0.091-3.006,0.789
						C103.138,177.08,104.569,180.032,107.313,183.219z"/>
					<path fill="#D8A4B2" d="M143.092,168.581c-0.131-0.578-1.249-0.588-2.105-0.209c-0.605,0.245-1.071,0.648-1.009,1.056
						c-0.607,1.725-1.278,3.417-1.324,5.113c-0.05,1.791,1.382,3.09,2.927,4.07c0.683,0.433,2.143,0.082,2.641-0.692
						C146.759,173.973,145.501,171.38,143.092,168.581z"/>
					<path fill="#D8A4B2" d="M117.448,175.706c0.107,0.973,0.981,1.329,1.962,1.252c1.398,0.468,3.645-0.284,3.776-1.896
						c0.465-5.72,2.071-11.069-0.607-16.046c-0.849-1.572-3.571-0.693-4.544,0.774C114.156,165.647,116.826,170.134,117.448,175.706
						z"/>
					<path fill="#D8A4B2" d="M135.382,172.884c-0.074,1.009-1.094,1.732-2.265,2.076c-1.635,1.057-4.349,1.27-4.595-0.268
						c-0.873-5.463-3.082-10.074-0.176-16.137c0.919-1.917,4.209-2.208,5.445-1.168
						C138.733,161.532,135.808,167.107,135.382,172.884z"/>
					<path fill="#D8A4B2" d="M143.196,184.095c-1.047-2.42-4.241-3.065-7.441-2.715c-0.006,0-0.015,0.002-0.023,0.002
						c-2.399-2.314-5.533-3.888-10.062-3.031c-3.988,0.75-7.444,3.551-10.213,6.485c-4.054,0.964-8.243,3.822-8.528,7.366
						c-0.272,3.403,1.812,9.405,15.138,5.547c5.669-1.642,12.259-2.673,16.977-6.414c0.229-0.056,0.462-0.161,0.682-0.331
						C142.148,189.128,144.218,186.457,143.196,184.095z"/>
				</g>
			</g>
			<g>
				<g>
					<path fill="#D8A4B2" d="M283.497,201.759c1.768-2.628,1.479-5.769-0.768-7.481c-0.45-0.342-1.035-0.179-1.331,0.142
						c-2.993,0.721-5.325,3.325-6.31,5.676c-0.848,2.013,0.04,5.049,2.672,5.277C280.186,205.582,282.349,203.47,283.497,201.759z"
						/>
					<path fill="#D8A4B2" d="M300.871,192.872c0.007-0.015,0.013-0.029,0.019-0.044c0.173-0.05,0.329-0.164,0.43-0.365
						c0.821-1.619,0.808-3.296-0.474-4.426c-1.375-1.209-3.602-0.618-5.188,0.604c-0.136,0.105-0.213,0.22-0.254,0.335
						c-2.342,1.736-4.425,3.984-5.77,6.185c-1.57,2.564-0.511,4.852,2.952,4.558C296.099,199.419,299.729,195.453,300.871,192.872z"
						/>
					<path fill="#D8A4B2" d="M309.914,199.035c1.028-1.19,1.605-2.32,1.706-3.322c0.028-0.123,0.061-0.243,0.079-0.364
						c0.154-0.148,0.233-0.358,0.149-0.624c-0.04-0.122-0.085-0.236-0.132-0.347c-0.201-1.551-1.539-2.725-3.885-2.412
						c-1.783,0.235-3.489,1.381-5.014,2.679c-0.924,0.533-1.767,1.1-2.43,1.609c-0.144,0.11-0.224,0.232-0.262,0.354
						c-0.707,0.648-1.29,1.367-1.686,2.164c-1.193,2.405,0.355,4.886,3.312,4.789C304.785,203.46,308.096,201.134,309.914,199.035z"
						/>
					<path fill="#D8A4B2" d="M314.58,205.435c0.705-1.241,0.464-2.29-0.111-3.325c-0.415-0.746-1.156-0.89-2.002-0.766
						c-0.248-0.146-0.575-0.199-0.915-0.049c-2.527,1.109-5.209,2.739-6.89,4.737c-1.775,2.109,0.138,3.721,2.438,3.925
						C309.923,210.21,313.373,207.548,314.58,205.435z"/>
					<path fill="#D8A4B2" d="M314.867,215.48c0.378-1.175-0.491-2.435-1.565-2.937c-0.941-0.442-1.945-0.504-2.968-0.252
						c-0.075,0.005-0.155,0.016-0.236,0.04c-2.462,0.774-6.215,2.238-7.415,4.448c-1.321,2.428,2.742,3.286,4.816,3.023
						C310.167,219.467,314.058,218,314.867,215.48z"/>
					<path fill="#D8A4B2" d="M296.86,203.822c-2.104-1.322-5.274-3.278-8.474-2.344c-1.899,0.553-3.525,2.196-5.053,3.625
						c-0.106,0.042-0.208,0.107-0.302,0.202c-0.179,0.183-0.357,0.37-0.538,0.564c-0.259,0.226-0.519,0.44-0.772,0.63
						c-0.23,0.17-0.31,0.37-0.291,0.556c-3.392,3.99-6.247,9.371-2.248,12.546c4.515,3.584,14.758,0.064,19.415-3.621
						C304.021,211.686,300.947,206.385,296.86,203.822z"/>
					<path fill="#D8A4B2" d="M281.023,192.61c0.381-0.154,0.791-0.259,1.219-0.285c0.797-0.049,1.518,0.173,2.037,0.575
						c0.189-0.216,0.385-0.482,0.642-0.836c1.44-2.004,3.089-3.871,5.022-5.608c0.119-0.11,0.196-0.221,0.244-0.336
						c0.626-0.66-0.023-1.646-0.943-1.073c-0.493,0.31-0.987,0.635-1.473,0.964c-2.326,1.332-4.643,2.847-5.778,4.878
						C281.498,191.396,281.082,192.017,281.023,192.61z"/>
					<path fill="#D8A4B2" d="M312.82,190.371c0.585,0.067,1.12,0.276,1.504,0.62c0.367,0.33,0.593,0.762,0.657,1.234
						c0.071,0.049,0.123,0.071,0.141,0.045c2.712-1.623,4.513-4.004,6.291-6.324c0.036-0.02,0.076-0.047,0.111-0.069
						c0.195-0.124,0.28-0.265,0.328-0.4c0.066-0.113,0.082-0.229,0.066-0.336c0.2-0.728-0.966-1.167-1.565-0.399
						c-0.814,0.459-1.586,0.97-2.319,1.516c-1.469,0.856-2.999,1.794-4.026,2.903C313.533,189.51,313.144,189.92,312.82,190.371z"/>
					<path fill="#D8A4B2" d="M316.688,211.648c0.474,0.42,0.803,1.117,0.658,1.776c-0.038,0.173-0.073,0.328-0.118,0.476
						c0.076-0.024,0.154-0.051,0.237-0.098c3.238-1.809,6.759-3.591,9.393-6.084c0.77-0.728-0.123-1.624-0.933-1.142
						c-0.078,0.016-0.157,0.027-0.248,0.064c-3.231,1.438-6.479,2.839-9.535,4.601c-0.018,0.009-0.026,0.021-0.039,0.03
						C316.319,211.371,316.521,211.493,316.688,211.648z"/>
					<path fill="#D8A4B2" d="M318.246,200.196c0.074,0.201,0.147,0.401,0.222,0.602c0.104,0.29,0.083,0.634-0.015,0.978
						c3.297-1.449,6.269-3.436,8.979-5.649c0.864-0.708-0.103-1.628-0.988-1.096c-3.147,1.156-6.254,2.5-8.967,4.406
						C317.805,199.633,318.062,199.884,318.246,200.196z"/>
					<path fill="#D8A4B2" d="M303.838,187.542c0.11-0.046,0.222-0.109,0.33-0.207c2.574-2.341,5.602-4.285,8.792-5.936
						c0.319-0.166,0.467-0.394,0.51-0.618c0.354-0.531-0.01-1.271-0.878-1.03c-3.823,1.075-7.354,3.375-10.364,5.761
						c-0.1,0.08-0.168,0.162-0.222,0.245C302.99,185.988,303.72,186.667,303.838,187.542z"/>
				</g>
				<g>
					<path fill="#D8A4B2" d="M262.758,193.947c0.886,1.998,4.785,1.982,7.037,0.861c2.63-1.313,5.257-3.729,5.444-6.227
						c0.32-0.305,0.383-0.794-0.137-1.066c-2.604-1.351-6.49-0.85-9.276,1.133C264.01,189.939,261.942,192.112,262.758,193.947z"/>
					<path fill="#D8A4B2" d="M266.204,181.103c0.443,2.766,3.471,3.058,6.226,1.243c2.364-1.555,4.618-3.696,6.19-5.919
						c0.129-0.055,0.251-0.146,0.348-0.277c1.118-1.515,1.321-3.386-0.469-4.174c-1.67-0.735-3.711-0.358-5.49,0.654
						c-0.221,0.125-0.321,0.271-0.345,0.419c-0.018,0.01-0.035,0.016-0.052,0.024C269.739,174.559,265.755,178.302,266.204,181.103z
						"/>
					<path fill="#D8A4B2" d="M259.409,174.858c0.563,2.325,3.939,2.956,6.591,1.473c0.879-0.495,1.617-1.115,2.24-1.815
						c0.141-0.059,0.27-0.147,0.37-0.284c0.467-0.638,0.961-1.421,1.396-2.265c1.226-1.487,2.226-3.079,2.098-4.52
						c-0.164-1.899-1.9-2.667-3.834-2.465c-0.146-0.009-0.293-0.018-0.452-0.021c-0.342-0.004-0.577,0.106-0.723,0.259
						c-0.144,0.043-0.283,0.097-0.425,0.148c-1.194,0.307-2.437,1.018-3.646,2.095C260.892,169.362,258.828,172.478,259.409,174.858
						z"/>
					<path fill="#D8A4B2" d="M250.389,172.182c0.784,1.745,3.186,2.857,5.341,0.988c2.04-1.771,3.4-4.234,4.168-6.459
						c0.103-0.294-0.036-0.54-0.274-0.697c-0.046-0.688-0.391-1.232-1.396-1.383c-1.393-0.209-2.725-0.152-4.066,0.684
						C251.869,166.741,249.429,170.042,250.389,172.182z"/>
					<path fill="#D8A4B2" d="M238.324,174.149c0.16,1.675,2.145,4.638,4.79,3.049c2.411-1.445,3.322-4.706,3.692-6.799
						c0.014-0.07,0.01-0.135-0.003-0.195c0.067-0.853-0.239-1.619-0.991-2.249c-0.86-0.721-2.596-1.104-3.938-0.54
						C238.997,168.627,238.113,171.996,238.324,174.149z"/>
					<path fill="#D8A4B2" d="M245.033,180.189c-3.403,4.477-5.317,13.263,0.089,15.947c4.788,2.376,10.672-1.091,14.738-4.654
						c0.231-0.029,0.453-0.138,0.609-0.355c0.174-0.243,0.375-0.493,0.591-0.749c0.19-0.184,0.38-0.368,0.56-0.547
						c0.094-0.095,0.149-0.19,0.177-0.28c1.386-1.52,3.005-3.165,3.238-4.772c0.395-2.706-2.72-4.72-4.812-6.051
						C256.159,176.141,248.999,174.977,245.033,180.189z"/>
					<path fill="#D8A4B2" d="M277.525,188.457c0.099-0.335,0.131-0.676,0.064-1.013c-0.12-0.635-0.562-1.144-1.171-1.454
						c0.22-0.198,0.497-0.414,0.868-0.692c2.107-1.588,3.994-3.302,5.66-5.208c0.106-0.119,0.223-0.204,0.354-0.269
						c0.657-0.638,2.004-0.359,1.521,0.487c-0.26,0.455-0.541,0.917-0.829,1.367c-1.083,2.123-2.389,4.271-4.597,5.627
						C278.893,187.805,278.232,188.273,277.525,188.457z"/>
					<path fill="#D8A4B2" d="M272.89,163.195c-0.219-0.438-0.597-0.805-1.104-1.026c-0.484-0.21-1.062-0.285-1.651-0.225
						c-0.075-0.044-0.115-0.08-0.09-0.099c1.348-2.485,3.828-4.439,6.236-6.359c0.018-0.031,0.039-0.069,0.059-0.102
						c0.108-0.181,0.258-0.281,0.409-0.348c0.125-0.078,0.26-0.116,0.396-0.13c0.839-0.324,1.643,0.48,0.849,1.124
						c-0.37,0.741-0.814,1.46-1.31,2.159c-0.701,1.343-1.487,2.747-2.599,3.804C273.77,162.442,273.36,162.84,272.89,163.195z"/>
					<path fill="#D8A4B2" d="M246.116,165.111c-0.624-0.269-1.549-0.366-2.315-0.103c-0.201,0.071-0.381,0.135-0.551,0.204
						c0.011-0.065,0.028-0.133,0.064-0.208c1.448-2.937,2.802-6.089,5.224-8.715c0.71-0.766,2.007-0.281,1.605,0.458
						c-0.001,0.068,0.005,0.132-0.021,0.21c-1.001,2.848-1.953,5.699-3.387,8.483c-0.006,0.015-0.016,0.025-0.023,0.037
						C246.537,165.334,246.34,165.207,246.116,165.111z"/>
					<path fill="#D8A4B2" d="M259.683,161.25c-0.262-0.012-0.521-0.025-0.783-0.036c-0.378-0.015-0.789,0.084-1.185,0.24
						c0.997-2.903,2.724-5.675,4.789-8.296c0.662-0.834,2.005-0.294,1.562,0.515c-0.678,2.717-1.591,5.446-3.283,7.998
						C260.471,161.461,260.105,161.319,259.683,161.25z"/>
					<path fill="#D8A4B2" d="M278.41,169.53c0.031-0.095,0.081-0.197,0.174-0.305c2.252-2.544,3.915-5.348,5.185-8.212
						c0.127-0.288,0.371-0.456,0.633-0.542c0.564-0.398,1.551-0.286,1.455,0.447c-0.423,3.224-2.404,6.503-4.606,9.395
						c-0.073,0.099-0.158,0.168-0.245,0.23C280.497,169.831,279.502,169.418,278.41,169.53z"/>
				</g>
			</g>
			<path fill="#2A2828" d="M298.9,255.457c-18.115-0.747-36.154-4.86-54.028-7.69c-19.733-3.127-39.383-6.748-59.021-10.405
				c-38.373-7.144-76.726-14.511-115.481-19.361c-2.692-0.336-2.925,3.747-0.25,4.082c38.755,4.85,77.11,12.206,115.482,19.362
				c18.749,3.495,37.514,6.911,56.342,9.972c18.716,3.042,37.731,7.339,56.708,8.123C301.354,259.652,301.61,255.57,298.9,255.457z"
				/>
		</g>
	</g>
</g>
</svg>
