<?xml version="1.0" encoding="utf-8"?>
<!-- Generator: Adobe Illustrator 16.0.0, SVG Export Plug-In . SVG Version: 6.00 Build 0)  -->
<!DOCTYPE svg PUBLIC "-//W3C//DTD SVG 1.1//EN" "http://www.w3.org/Graphics/SVG/1.1/DTD/svg11.dtd">
<svg version="1.1" xmlns="http://www.w3.org/2000/svg" xmlns:xlink="http://www.w3.org/1999/xlink" x="0px" y="0px"
	 width="194.09px" height="157.662px" viewBox="0 0 194.09 157.662" enable-background="new 0 0 194.09 157.662"
	 xml:space="preserve">
<g id="grid" display="none">
</g>
<g id="Layer_1">
	<g>
		<circle fill="#D1A2AF" cx="94.889" cy="78.618" r="66.949"/>
		<g>
			<circle fill="#BB8491" cx="28.375" cy="73.318" r="2.432"/>
			<circle fill="#BB8491" cx="30.992" cy="99.237" r="2.431"/>
			<circle fill="#BB8491" cx="46.669" cy="47.624" r="2.431"/>
			<circle fill="#BB8491" cx="55.115" cy="69.02" r="2.432"/>
			<circle fill="#BB8491" cx="145.005" cy="65.957" r="2.432"/>
			<circle fill="#BB8491" cx="163.274" cy="47.803" r="2.432"/>
			<circle fill="#BB8491" cx="147.769" cy="16.122" r="2.431"/>
			<circle fill="#BB8491" cx="178.44" cy="56.277" r="2.431"/>
			<circle fill="#BB8491" cx="173.785" cy="74.009" r="2.432"/>
			<circle fill="#BB8491" cx="132.3" cy="52.266" r="2.432"/>
			<circle fill="#BB8491" cx="177.635" cy="95.433" r="2.432"/>
			<circle fill="#BB8491" cx="160.35" cy="77.413" r="2.431"/>
			<circle fill="#BB8491" cx="84.185" cy="45.47" r="2.431"/>
			<circle fill="#BB8491" cx="86.079" cy="22.733" r="2.431"/>
			<circle fill="#BB8491" cx="139.269" cy="34.017" r="2.432"/>
			<circle fill="#BB8491" cx="125.2" cy="13.69" r="2.431"/>
			<circle fill="#BB8491" cx="108.445" cy="22.457" r="2.431"/>
			<circle fill="#BB8491" cx="99.562" cy="12.206" r="2.432"/>
			<circle fill="#BB8491" cx="24.91" cy="59.338" r="2.431"/>
			<circle fill="#BB8491" cx="46.722" cy="90.058" r="2.431"/>
			<circle fill="#BB8491" cx="14.216" cy="105.084" r="2.431"/>
			<circle fill="#BB8491" cx="35.855" cy="120.771" r="2.432"/>
			<circle fill="#BB8491" cx="95.567" cy="123.191" r="2.431"/>
			<circle fill="#BB8491" cx="61.671" cy="147.33" r="2.431"/>
			<circle fill="#BB8491" cx="95.567" cy="144.052" r="2.431"/>
			<circle fill="#BB8491" cx="132.919" cy="125.87" r="2.432"/>
			<circle fill="#BB8491" cx="130.735" cy="138.623" r="2.432"/>
			<circle fill="#BB8491" cx="162.18" cy="129.91" r="2.432"/>
			<circle fill="#BB8491" cx="113.658" cy="120.422" r="2.432"/>
			<circle fill="#BB8491" cx="74.145" cy="113.442" r="2.432"/>
			<circle fill="#BB8491" cx="48.887" cy="30.588" r="2.431"/>
			<circle fill="#BB8491" cx="42.421" cy="16.121" r="2.431"/>
			<circle fill="#BB8491" cx="74.091" cy="11.259" r="2.431"/>
			<circle fill="#BB8491" cx="32.148" cy="42.892" r="2.432"/>
			<circle fill="#BB8491" cx="65.908" cy="34.708" r="2.432"/>
			<circle fill="#BB8491" cx="70.244" cy="58.28" r="2.432"/>
			<circle fill="#BB8491" cx="10.621" cy="66.588" r="2.431"/>
			<circle fill="#BB8491" cx="21.592" cy="88.573" r="2.432"/>
			<circle fill="#BB8491" cx="59.239" cy="123.191" r="2.431"/>
			<circle fill="#BB8491" cx="134.353" cy="105.554" r="2.432"/>
			<circle fill="#BB8491" cx="164.356" cy="105.554" r="2.432"/>
			<circle fill="#BB8491" cx="132.919" cy="80.364" r="2.432"/>
			<circle fill="#BB8491" cx="149.061" cy="92.089" r="2.431"/>
			<circle fill="#BB8491" cx="39.579" cy="62.764" r="1.292"/>
			<circle fill="#BB8491" cx="59.239" cy="48.312" r="1.292"/>
			<circle fill="#BB8491" cx="87.219" cy="57.101" r="1.292"/>
			<circle fill="#BB8491" cx="55.115" cy="82.098" r="1.292"/>
			<circle fill="#BB8491" cx="48.887" cy="109.783" r="1.292"/>
			<circle fill="#BB8491" cx="13.099" cy="80.805" r="1.292"/>
			<circle fill="#BB8491" cx="149.062" cy="114.74" r="1.292"/>
			<circle fill="#BB8491" cx="146.629" cy="128.211" r="1.292"/>
			<circle fill="#BB8491" cx="130.488" cy="93.381" r="1.292"/>
			<circle fill="#BB8491" cx="130.179" cy="65.458" r="1.292"/>
			<circle fill="#BB8491" cx="124.425" cy="29.607" r="1.292"/>
			<circle fill="#BB8491" cx="95.567" cy="31.585" r="1.292"/>
			<circle fill="#BB8491" cx="66.054" cy="23.871" r="1.292"/>
			<circle fill="#BB8491" cx="164.356" cy="89.866" r="1.292"/>
			<circle fill="#BB8491" cx="13.099" cy="52.095" r="1.292"/>
			<circle fill="#BB8491" cx="54.472" cy="16.121" r="1.292"/>
			<circle fill="#BB8491" cx="29.514" cy="30.588" r="1.292"/>
			<circle fill="#BB8491" cx="112.168" cy="135.083" r="1.292"/>
			<circle fill="#BB8491" cx="77.554" cy="134.282" r="1.292"/>
			<circle fill="#BB8491" cx="50.393" cy="134.737" r="1.292"/>
			<circle fill="#BB8491" cx="183.518" cy="80.364" r="1.292"/>
			<circle fill="#BB8491" cx="164.612" cy="64.01" r="1.292"/>
			<circle fill="#BB8491" cx="142.574" cy="49.388" r="1.292"/>
			<circle fill="#BB8491" cx="157.104" cy="28.314" r="1.292"/>
			<circle fill="#BB8491" cx="108.334" cy="6.334" r="1.292"/>
			<circle fill="#BB8491" cx="183.296" cy="68.388" r="1.292"/>
		</g>
		<g>
			<g>
				<path fill="#2F2B2A" d="M126.99,113.712c0,1.071-0.868,1.94-1.941,1.94c0,0-20.624,1.091-32.27,1.091
					c-11.648,0-32.272-1.091-32.272-1.091c-1.072,0-1.941-0.87-1.941-1.94c0,0-1.125-10.907-1.125-18.564
					c0-7.656,1.125-19.531,1.125-19.531c0-1.072,0.869-1.942,1.941-1.942c0,0,23.292-1.456,32.272-1.456
					c8.977,0,32.27,1.456,32.27,1.456c1.073,0,1.941,0.87,1.941,1.942c0,0,0.454,12.464,0.454,19.428
					C127.444,102.01,126.99,113.712,126.99,113.712z"/>
				<path fill="#B7B7B7" d="M100.542,63.417V63.12c0-0.812-0.5-1.508-1.21-1.796c-0.054-0.039-0.122-0.072-0.208-0.085
					c-0.035-0.002-0.071-0.009-0.106-0.013c-0.064-0.014-0.133-0.018-0.199-0.025c-4.034-0.542-8.35-0.759-12.372-0.121
					c-0.046-0.01-0.093-0.021-0.15-0.014c-0.058,0.006-0.109,0.022-0.164,0.031c-0.064-0.005-0.132,0.003-0.208,0.031
					c-0.011,0.004-0.021,0.011-0.033,0.016c-0.172,0.052-0.323,0.133-0.463,0.225c-0.225,0.131-0.433,0.286-0.602,0.499
					c-0.089,0.11-0.114,0.229-0.105,0.342c-0.563,2.096-0.322,4.261-0.365,6.412c-0.054,2.795,0.063,5.537,0.381,8.315
					c0.023,0.212,0.157,0.342,0.314,0.404c0.352,0.498,0.928,0.823,1.584,0.823h11.964c1.072,0,1.941-0.867,1.941-1.94
					c0.079-0.371,0.094-0.745,0.074-1.117c0.289-1.754,0.311-3.596,0.386-5.331C101.097,67.639,100.981,65.507,100.542,63.417z"/>
				<path fill="#D8DADF" d="M99.468,66.407c0.034-0.056,0.059-0.117,0.057-0.196c-0.005-0.188-0.022-0.374-0.047-0.552
					c0.004-0.138,0.006-0.278,0.015-0.416c0.013-0.229-0.018-0.428-0.066-0.613c0-0.017,0.006-0.031,0.006-0.046v-0.06
					c0-0.481-0.213-0.915-0.537-1.241c-0.322-0.405-0.807-0.695-1.456-0.719C96.1,62.512,94.76,62.49,93.42,62.49
					c-1.69-0.125-3.379-0.132-5.078,0.035c-0.189-0.054-0.39-0.089-0.612-0.08c-0.898,0.035-1.838,0.837-1.842,1.788
					c-0.126,0.451-0.155,0.915-0.075,1.392c-0.121,1.677-0.144,3.353-0.072,5.031c-0.106,1.435,0.005,2.855,0.239,4.272
					c0.022,0.132,0.098,0.23,0.196,0.294c0.202,0.883,0.819,1.56,1.73,1.732c0.088,0.018,0.167,0.004,0.24-0.019
					c0.499,0.143,0.999,0.231,1.498,0.295c2.564,0.506,5.309,0.645,7.73-0.297c0.673-0.02,1.327-0.375,1.653-1.001
					c0.427-0.821,0.483-1.723,0.377-2.616C99.848,71.086,99.491,68.687,99.468,66.407z"/>
				<path fill="#272225" d="M70.258,77.093c-0.014-0.023-0.034-0.036-0.052-0.057c-0.042-0.516-0.984-0.474-0.964,0.055
					c0.419,11.083-0.634,22.149-0.271,33.247c-0.054,0.064-0.092,0.141-0.092,0.239v2.335c0,0.015-0.005,0.035,0,0.05v0.284
					c0,0.008,0.004,0.015,0.004,0.023c0.001,0.04,0.012,0.076,0.026,0.109c0.01,0.025,0.021,0.048,0.034,0.068
					c0.009,0.013,0.019,0.023,0.03,0.033c0.102,0.113,0.268,0.161,0.436,0.143c0.025-0.002,0.05-0.009,0.077-0.013
					c0.025-0.006,0.05-0.011,0.075-0.02c0.039-0.014,0.072-0.034,0.104-0.055c0.015-0.011,0.03-0.02,0.044-0.031
					c0.025-0.023,0.047-0.051,0.066-0.081c0.016-0.021,0.028-0.042,0.038-0.067c0.006-0.014,0.018-0.022,0.021-0.038
					c0.037-0.125,0.079-0.247,0.115-0.371c0.11-0.046,0.207-0.114,0.249-0.236c2.034-5.829,2.896-12.17,3.296-18.316
					C73.881,88.441,73.242,82.352,70.258,77.093z"/>
				<circle fill="#697171" cx="93.038" cy="95.045" r="18.58"/>
				<circle fill="#383A3A" stroke="#D8DADF" stroke-width="2" stroke-miterlimit="10" cx="93.039" cy="95.045" r="14.62"/>
				<path fill="#D8DADF" d="M92.745,85.901c-0.15-1.042-0.638-1.573-1.621-1.936c-0.994-0.366-2.114,0.514-2.333,1.449
					c-0.17,0.731,0.077,1.341,0.541,1.777c0.351,0.458,0.876,0.752,1.549,0.727C91.856,87.878,92.894,86.95,92.745,85.901z"/>
				<path fill="#D8DADF" d="M85.877,87.131c-2.802,2.181-4.384,5.282-4.171,8.871c0.149,2.496,4.028,2.348,3.879-0.153
					c-0.127-2.147,0.662-4.107,2.381-5.446C89.924,88.881,87.857,85.59,85.877,87.131z"/>
				<path fill="#A09F9F" d="M123.561,62.497c-0.005,0-0.006-0.003-0.01-0.003c-0.892-0.104-1.787-0.179-2.682-0.246
					c-1.607-0.32-3.523-0.17-4.733-0.161c-3.542,0.023-7.059,0.42-10.59,0.636c-0.16,0.01-0.275,0.083-0.351,0.182
					c-0.258,0.048-0.499,0.28-0.417,0.612c0.244,0.978,0.474,1.962,0.809,2.913c0.109,0.305,0.407,0.37,0.644,0.284
					c1.58,0.641,3.224,1.349,4.696,2.247c0.001,0.021-0.005,0.036-0.001,0.057c0.191,1.056,0.147,2.204,0.059,3.269
					c-0.005,0.066,0.006,0.121,0.021,0.173c0,0.251,0.162,0.519,0.484,0.536c1.355,0.069,2.71,0.068,4.066,0.005
					c0.259,0.267,0.847,0.14,0.847-0.347c0-1.097-0.005-2.196-0.149-3.283c2.487-0.476,4.824-1.405,6.962-2.761
					c0.155-0.098,0.208-0.236,0.209-0.374c0-0.002,0.002-0.004,0.002-0.006c0.328-1.017,0.548-2.091,0.648-3.153
					C124.107,62.732,123.825,62.516,123.561,62.497z"/>
				<path fill="#B7B7B7" d="M125.57,45.482c0-0.011-0.001-0.019-0.001-0.029c0.102-1.305-0.006-2.602-0.276-3.891v-0.511
					c0-1.071-0.868-1.941-1.942-1.941c0,0-5.459-0.619-8.916-0.619c-3.458,0-8.917,0.619-8.917,0.619
					c-1.073,0-1.941,0.87-1.941,1.941v0.293c-0.11,0.46-0.192,0.922-0.222,1.388c-0.605,2.958-0.557,6.079-0.45,9.056
					c0.069,1.956,0.232,3.908,0.396,5.859c0.113,1.343,0.055,2.521,0.275,3.698v0.805c0,1.011,0.776,1.833,1.764,1.923
					c2.994,1.201,6.157,1.493,9.373,1.419c3.16-0.072,7.187-0.32,10.04-1.795c0.109-0.057,0.175-0.132,0.208-0.216
					c0.219-0.244,0.294-0.534,0.26-0.858c0.04-0.153,0.072-0.31,0.072-0.473v-1.802c0.356-3.069,0.351-6.231,0.437-9.289
					C125.782,49.201,125.758,47.331,125.57,45.482z"/>
				<path fill="#FDFBE5" d="M123.433,53.928c0.203-3.479-0.322-7.003-0.327-10.519c-0.001-0.422-0.116-0.76-0.296-1.029
					c-0.111-0.627-0.533-1.166-1.351-1.297c-4.561-0.731-9.363-0.58-13.96-0.364c-1.323,0.063-1.844,1.273-1.646,2.31
					c-0.084,0.47-0.118,0.943-0.106,1.419c-0.595,5.099-0.585,10.391,0.143,15.458c0.022,0.148,0.065,0.279,0.111,0.409
					c0.008,0.111,0.034,0.215,0.06,0.32c0.002,0.078,0.017,0.158,0.065,0.239c0.017,0.026,0.038,0.044,0.054,0.069
					c0.09,0.181,0.204,0.35,0.369,0.48c0.125,0.135,0.265,0.247,0.407,0.357c0.029,0.181,0.172,0.356,0.433,0.374
					c0.055,0.004,0.11,0.004,0.165,0.006c0.925,0.47,2.041,0.602,3.124,0.64c0.001,0,0.001,0,0.001,0
					c2.149,0.144,4.377,0.23,6.538-0.029c1.593,0.124,3.206,0.003,4.752-0.398c0.104-0.027,0.171-0.078,0.224-0.14
					c0.797-0.375,1.07-1.283,1.085-2.201c0.002-0.139-0.054-0.233-0.129-0.304C123.419,57.802,123.512,55.872,123.433,53.928z"/>
				<g>
					<path fill="#697171" d="M71.329,69.489c-0.056-0.145-0.156-0.236-0.272-0.281c-0.055-0.107-0.144-0.199-0.281-0.248
						c-2.837-1.004-6.297-0.867-8.866,0.792c-0.088,0.057-0.138,0.131-0.173,0.208c-0.038,0.056-0.068,0.122-0.077,0.211
						c-0.002,0.018,0,0.034-0.002,0.051c-0.497,0.939-0.352,2.239-0.213,3.233c0.056,0.389,0.443,0.491,0.711,0.377
						c0-0.002,0-0.004,0-0.005c-0.256-1.125-0.329-2.234-0.132-3.373c0.041-0.239,0.208-0.349,0.39-0.362
						c0.02-0.009,0.034-0.024,0.057-0.031c0.163-0.046,0.324-0.102,0.484-0.162c0.202-0.075,0.361-0.008,0.469,0.11
						c0.099,0.06,0.168,0.16,0.189,0.297c0.048,0.064,0.088,0.139,0.095,0.238c0.088,0.985,0.2,1.969,0.285,2.953
						c0.006,0.08-0.011,0.143-0.033,0.203c1.812-0.148,3.624-0.295,5.438-0.373c-0.107-0.072-0.188-0.185-0.188-0.358
						c-0.003-0.974-0.048-1.943-0.162-2.911c-0.019-0.157,0.029-0.276,0.112-0.357c0.037-0.192,0.175-0.356,0.434-0.349
						c0.344,0.008,0.687,0.05,1.02,0.133c0.26,0.064,0.359,0.275,0.353,0.482c0.013,0.029,0.032,0.05,0.041,0.085
						c0.269,1.06,0.259,2.153,0.073,3.225c0.042,0,0.083-0.002,0.124-0.004c0.28,0.087,0.664-0.076,0.673-0.465
						C71.903,71.688,71.737,70.54,71.329,69.489z"/>
					<path fill="#272225" d="M63.708,70.547c-0.007-0.1-0.047-0.174-0.095-0.238c-0.021-0.138-0.091-0.238-0.189-0.297
						c-0.107-0.118-0.267-0.186-0.469-0.11c-0.16,0.061-0.321,0.116-0.484,0.162c-0.022,0.007-0.037,0.022-0.057,0.031
						c-0.182,0.013-0.349,0.124-0.39,0.362c-0.196,1.139-0.124,2.248,0.132,3.373c0,0.001,0,0.003,0,0.005
						c0.03-0.014,0.063-0.017,0.088-0.035c0.145,0.003,0.288,0.003,0.433-0.002c0.015,0,0.024,0.006,0.041,0.004
						c0.414-0.031,0.828-0.066,1.242-0.098c0.022-0.06,0.04-0.123,0.033-0.203C63.907,72.516,63.796,71.532,63.708,70.547z"/>
					<path fill="#272225" d="M71.007,70.055c-0.009-0.036-0.028-0.057-0.041-0.085c0.007-0.208-0.093-0.418-0.353-0.482
						c-0.333-0.083-0.676-0.125-1.02-0.133c-0.258-0.007-0.396,0.156-0.434,0.349c-0.083,0.081-0.131,0.2-0.112,0.357
						c0.114,0.968,0.159,1.937,0.162,2.911c0,0.174,0.08,0.286,0.188,0.358c0.562-0.023,1.122-0.042,1.683-0.049
						C71.266,72.208,71.275,71.115,71.007,70.055z"/>
				</g>
				<path fill="#FDFBE5" d="M109.541,34.914c-1.303-1.546-2.396-3.274-3.131-5.161c-0.451-1.16-2.306-0.581-1.85,0.588
					c0.866,2.221,2.133,4.182,3.664,6C109.028,37.298,110.335,35.861,109.541,34.914z"/>
				<path fill="#FDFBE5" d="M115.432,28.553c0-1.254-1.94-1.172-1.94,0.077c0,1.867,0.024,3.724,0.243,5.581
					c0.144,1.237,2.085,1.167,1.939-0.077C115.457,32.277,115.433,30.418,115.432,28.553z"/>
				<path fill="#FDFBE5" d="M123.536,29.482c-0.481,2.421-1.565,4.486-3.164,6.357c-0.812,0.95,0.61,2.27,1.425,1.317
					c1.808-2.114,3.085-4.493,3.63-7.232C125.672,28.697,123.781,28.255,123.536,29.482z"/>
			</g>
		</g>
	</g>
</g>
</svg>
