<?xml version="1.0" encoding="utf-8"?>
<!-- Generator: Adobe Illustrator 16.0.0, SVG Export Plug-In . SVG Version: 6.00 Build 0)  -->
<!DOCTYPE svg PUBLIC "-//W3C//DTD SVG 1.1//EN" "http://www.w3.org/Graphics/SVG/1.1/DTD/svg11.dtd">
<svg version="1.1" xmlns="http://www.w3.org/2000/svg" xmlns:xlink="http://www.w3.org/1999/xlink" x="0px" y="0px" width="393px"
	 height="170px" viewBox="0 0 393 170" enable-background="new 0 0 393 170" xml:space="preserve">
<g id="grid">
</g>
<g id="Layer_1">
	<g>
		<path fill="#FFFFFF" d="M66.242,50.938h2.547v20.216h12.703v2.354h-15.25V50.938z"/>
		<path fill="#FFFFFF" d="M110.275,50.938h2.547v22.569h-2.547V50.938z"/>
		<path fill="#FFFFFF" d="M143.283,50.938h9.607c2.578,0,4.609,0.742,5.9,1.999c0.936,0.967,1.451,2.16,1.451,3.611v0.064
			c0,2.934-1.807,4.449-3.58,5.223c2.676,0.806,4.836,2.354,4.836,5.449v0.064c0,3.869-3.256,6.158-8.189,6.158h-10.025V50.938z
			 M157.662,56.903c0-2.225-1.773-3.676-4.998-3.676h-6.867v7.771h6.674c3.062,0,5.191-1.386,5.191-4.03V56.903z M152.922,63.255
			h-7.125v7.964h7.576c3.418,0,5.547-1.516,5.547-4.03v-0.064C158.92,64.673,156.855,63.255,152.922,63.255z"/>
		<path fill="#FFFFFF" d="M190.408,50.938h9.705c2.773,0,4.998,0.838,6.416,2.257c1.096,1.096,1.74,2.676,1.74,4.45v0.064
			c0,3.74-2.578,5.932-6.125,6.577l6.932,9.221h-3.127l-6.545-8.77h-6.449v8.77h-2.547V50.938z M199.887,62.449
			c3.387,0,5.805-1.741,5.805-4.643v-0.064c0-2.773-2.129-4.45-5.771-4.45h-6.965v9.157H199.887z"/>
		<path fill="#FFFFFF" d="M236.568,62.288v-0.064c0-6.223,4.674-11.671,11.543-11.671c6.867,0,11.477,5.384,11.477,11.607v0.064
			c0,6.223-4.674,11.671-11.541,11.671C241.178,73.895,236.568,68.51,236.568,62.288z M256.945,62.288v-0.064
			c0-5.126-3.74-9.318-8.898-9.318c-5.16,0-8.836,4.127-8.836,9.253v0.064c0,5.126,3.74,9.318,8.9,9.318
			C253.27,71.541,256.945,67.414,256.945,62.288z"/>
		<path fill="#FFFFFF" d="M287.176,70.219l1.58-1.87c2.354,2.128,4.611,3.192,7.738,3.192c3.031,0,5.029-1.612,5.029-3.837V67.64
			c0-2.096-1.129-3.289-5.867-4.288c-5.191-1.128-7.578-2.805-7.578-6.513v-0.064c0-3.547,3.129-6.158,7.416-6.158
			c3.289,0,5.643,0.935,7.932,2.772l-1.482,1.967c-2.096-1.708-4.191-2.45-6.514-2.45c-2.934,0-4.803,1.612-4.803,3.644v0.064
			c0,2.128,1.16,3.321,6.125,4.385c5.029,1.096,7.352,2.934,7.352,6.384v0.064c0,3.869-3.225,6.384-7.707,6.384
			C292.818,73.83,289.885,72.637,287.176,70.219z"/>
		<path fill="#DD6F2E" d="M67.061,105.788h8.602v2.507h-8.602V105.788z"/>
		<path fill="#FFFFFF" d="M104.535,105.571v-0.062c0-6.127,4.58-11.202,10.953-11.202c3.93,0,6.283,1.393,8.449,3.435l-1.672,1.794
			c-1.826-1.733-3.867-2.971-6.809-2.971c-4.795,0-8.385,3.899-8.385,8.881v0.062c0,5.013,3.621,8.943,8.385,8.943
			c2.971,0,4.922-1.145,6.994-3.125l1.609,1.578c-2.26,2.29-4.734,3.807-8.664,3.807
			C109.145,116.712,104.535,111.792,104.535,105.571z"/>
		<path fill="#FFFFFF" d="M151.51,105.571v-0.062c0-5.973,4.486-11.202,11.078-11.202c6.59,0,11.016,5.168,11.016,11.14v0.062
			c0,5.972-4.486,11.202-11.078,11.202S151.51,111.544,151.51,105.571z M171.066,105.571v-0.062c0-4.92-3.59-8.943-8.541-8.943
			s-8.479,3.961-8.479,8.881v0.062c0,4.92,3.59,8.943,8.541,8.943S171.066,110.492,171.066,105.571z"/>
		<path fill="#FFFFFF" d="M203.527,94.679h8.107c4.891,0,8.107,2.6,8.107,6.87v0.062c0,4.673-3.898,7.086-8.51,7.086h-5.26v7.644
			h-2.445V94.679z M211.326,106.469c3.59,0,5.941-1.918,5.941-4.765v-0.062c0-3.095-2.32-4.704-5.818-4.704h-5.477v9.531H211.326z"
			/>
		<path fill="#FFFFFF" d="M249.172,94.679h2.443v21.662h-2.443V94.679z"/>
		<path fill="#FFFFFF" d="M290.73,94.524h2.289l9.871,21.816h-2.629l-2.537-5.725h-11.791l-2.568,5.725h-2.506L290.73,94.524z
			 M296.764,108.388l-4.92-11.017l-4.951,11.017H296.764z"/>
	</g>
</g>
</svg>
