<?xml version="1.0" encoding="utf-8"?>
<!-- Generator: Adobe Illustrator 16.0.0, SVG Export Plug-In . SVG Version: 6.00 Build 0)  -->
<!DOCTYPE svg PUBLIC "-//W3C//DTD SVG 1.1//EN" "http://www.w3.org/Graphics/SVG/1.1/DTD/svg11.dtd">
<svg version="1.1" xmlns="http://www.w3.org/2000/svg" xmlns:xlink="http://www.w3.org/1999/xlink" x="0px" y="0px"
	 width="194.09px" height="157.662px" viewBox="0 0 194.09 157.662" enable-background="new 0 0 194.09 157.662"
	 xml:space="preserve">
<g id="grid" display="none">
</g>
<g id="Layer_1">
	<g>
		<g>
			<circle fill="#A1D0CE" cx="97.053" cy="78.833" r="66.95"/>
		</g>
		
			<ellipse fill="none" stroke="#5FB2B0" stroke-width="3" stroke-miterlimit="10" cx="97.053" cy="78.833" rx="31.567" ry="26.816"/>
		
			<ellipse fill="none" stroke="#5FB2B0" stroke-width="3" stroke-miterlimit="10" cx="97.053" cy="78.833" rx="26.451" ry="22.471"/>
		<ellipse fill="none" stroke="#5FB2B0" stroke-width="3" stroke-miterlimit="10" cx="97.053" cy="78.833" rx="36.63" ry="31.118"/>
		<g>
			<path fill="#7FBAB6" d="M96.464,52.738c0.269-3.48,0.642-6.928,1.158-10.349c-5.496-0.589-10.879-0.199-15.863,1.069
				c5.062,5.065,9.703,10.56,14.21,16.119C96.13,57.3,96.287,55.021,96.464,52.738z"/>
			<path fill="#7FBAB6" d="M109.63,45.25c-0.937-0.35-1.875-0.669-2.815-0.96c-0.805,6.091-1.117,12.223-1.533,18.348
				c3.643-1.302,7.373-2.355,11.172-3.093c3.989-0.776,8.044-1.246,12.115-1.449C123.718,52.635,117.274,48.116,109.63,45.25z"/>
			<path fill="#7FBAB6" d="M82.166,57.818c-3.314-3.832-6.524-7.34-9.981-10.559c-6.691,3.763-11.942,9.478-14.67,16.755
				c-2.621,6.993-2.538,14.429-0.248,21.418c0.813-0.181,1.623-0.378,2.428-0.595c0.9-0.244,1.797-0.502,2.687-0.784
				c0.208-0.071,0.697-0.233,0.753-0.254c0.421-0.147,0.843-0.297,1.262-0.455c1.7-0.639,3.383-1.331,5.03-2.097
				c7.622-3.546,14.628-8.225,21.969-12.289C88.406,65.174,85.321,61.465,82.166,57.818z"/>
			<path fill="#7FBAB6" d="M111.885,81.504c4.501,7.121,8.5,14.562,11.79,22.32c0.607,1.429,1.172,2.878,1.74,4.323
				c5.01-3.648,8.928-8.551,11.157-14.5c3.233-8.624,2.352-17.922-1.71-26.227c-0.767-0.018-1.535-0.029-2.303-0.024
				c-2.307,0.012-3.209,0.032-5.148,0.186c-7.744,0.61-14.854,2.205-21.597,4.896C107.915,75.432,109.946,78.437,111.885,81.504z"/>
			<path fill="#7FBAB6" d="M99.682,97.611c-1.475,5.83-3.104,11.697-5.105,17.42c7.965,1.176,15.765,0.286,22.535-2.363
				c-0.31-0.771-0.619-1.545-0.934-2.318c-1.617-3.964-3.385-7.866-5.334-11.677c-1.904-3.722-3.945-7.374-6.137-10.933
				c-0.737-1.198-1.419-2.282-2.097-3.33C101.777,88.843,100.787,93.244,99.682,97.611z"/>
			<path fill="#7FBAB6" d="M85.379,112.744c0.786-2.252,1.51-4.526,2.205-6.81c2.66-8.743,4.796-17.177,6.267-26.009
				c0.091-0.546,0.178-1.095,0.261-1.643c-4.459,2.541-8.822,5.26-13.333,7.72c-6.195,3.377-12.555,6.327-19.373,8.126
				c5.006,7.875,12.991,14.51,23.052,18.282C84.765,112.525,85.072,112.636,85.379,112.744z"/>
			<g>
				<path fill="#7FBAB6" d="M98.459,37.54c-7.343-0.88-14.531-0.216-21.033,1.806c0.264,0.236,0.527,0.474,0.788,0.714
					c6.225-1.854,13.077-2.453,20.073-1.621C98.344,38.139,98.4,37.839,98.459,37.54z"/>
				<path fill="#7FBAB6" d="M111.339,40.691c-1.244-0.466-2.493-0.88-3.742-1.253c-0.06,0.301-0.116,0.603-0.171,0.903
					c1.2,0.359,2.398,0.759,3.592,1.206c9.473,3.551,17.297,9.396,22.856,16.427c0.387,0,0.775,0.009,1.162,0.015
					C129.353,50.572,121.23,44.399,111.339,40.691z"/>
				<path fill="#7FBAB6" d="M68.684,44.178c-0.249-0.206-0.5-0.411-0.752-0.615c-7.146,4.275-12.744,10.562-15.708,18.468
					c-2.974,7.934-2.875,16.381-0.274,24.324c0.307-0.038,0.613-0.08,0.919-0.123c-2.588-7.798-2.707-16.093,0.211-23.879
					C56.007,54.542,61.576,48.354,68.684,44.178z"/>
				<path fill="#7FBAB6" d="M127.157,112.392c0.124,0.281,0.25,0.562,0.377,0.842c6.486-4.241,11.559-10.214,14.329-17.605
					c3.427-9.142,2.773-18.967-1.087-27.915c-0.342-0.026-0.684-0.047-1.025-0.071c3.938,8.851,4.653,18.604,1.257,27.666
					C138.326,102.466,133.426,108.26,127.157,112.392z"/>
				<path fill="#7FBAB6" d="M92.836,119.712c9.246,1.599,18.357,0.727,26.281-2.239c-0.124-0.277-0.247-0.556-0.367-0.834
					c-7.71,2.876-16.572,3.732-25.574,2.206C93.065,119.133,92.95,119.422,92.836,119.712z"/>
				<path fill="#7FBAB6" d="M83.674,117.306c0.114-0.283,0.225-0.568,0.335-0.852c-0.314-0.11-0.627-0.222-0.939-0.34
					c-11.461-4.296-20.509-11.952-26.051-21.003c-0.319,0.06-0.639,0.12-0.959,0.174c5.629,9.352,14.905,17.267,26.688,21.684
					C83.057,117.085,83.365,117.196,83.674,117.306z"/>
			</g>
			<g>
				<path fill="#7FBAB6" d="M110.05,6.849c-17.566-4.107-35.5-3.29-51.599,2.508c-7.83,2.819-14.854,6.686-20.92,11.439
					c0.438,0.04,0.877,0.084,1.312,0.135c5.816-4.428,12.502-8.045,19.916-10.714c15.839-5.703,33.477-6.535,50.773-2.548
					C109.703,7.394,109.874,7.12,110.05,6.849z"/>
				<path fill="#7FBAB6" d="M171.794,51.839c-10.32-18.537-27.791-33.164-49.196-41.186c-0.982-0.369-1.968-0.716-2.955-1.053
					c-0.153,0.199-0.307,0.396-0.453,0.6c-0.042,0.057-0.08,0.114-0.121,0.171c1.072,0.362,2.143,0.738,3.209,1.136
					c21.202,7.947,38.503,22.428,48.717,40.776c2.653,4.765,4.739,9.64,6.264,14.565c0.366,0.154,0.732,0.307,1.098,0.464
					C176.796,62.079,174.61,56.896,171.794,51.839z"/>
				<path fill="#7FBAB6" d="M29.418,29.671c-0.39-0.019-0.78-0.034-1.17-0.048c-4.883,5.649-8.735,12.083-11.385,19.155
					c-3.345,8.925-4.584,18.338-3.77,27.8c0.321,0.202,0.645,0.403,0.969,0.601c-0.924-9.558,0.28-19.072,3.656-28.08
					C20.416,41.899,24.376,35.37,29.418,29.671z"/>
				<path fill="#7FBAB6" d="M149.863,140.435c0.265,0.195,0.531,0.389,0.797,0.581c12.373-7.797,21.584-18.837,26.566-32.131
					c3.6-9.603,4.764-19.772,3.55-29.959c-0.33-0.167-0.657-0.333-0.984-0.496c1.316,10.247,0.196,20.482-3.421,30.135
					C171.418,121.775,162.224,132.733,149.863,140.435z"/>
				<path fill="#7FBAB6" d="M65.469,143.526c-18.304-8.307-33.201-21.665-42.376-38.147c-2.956-5.309-5.209-10.758-6.765-16.256
					c-0.367-0.175-0.731-0.354-1.096-0.534c1.579,5.831,3.932,11.611,7.063,17.234c9.203,16.531,24.098,29.949,42.395,38.35
					C64.951,143.96,65.21,143.744,65.469,143.526z"/>
				<path fill="#7FBAB6" d="M140.737,145.275c-1.756,0.78-3.56,1.506-5.409,2.171c-18.72,6.74-39.951,6.678-60.162-0.104
					c-0.247,0.24-0.496,0.476-0.745,0.711c20.542,7.001,42.163,7.114,61.217,0.253c2.017-0.727,3.977-1.525,5.884-2.386
					C141.258,145.707,140.997,145.492,140.737,145.275z"/>
			</g>
			<g>
				<path fill="#7FBAB6" d="M106.132,13.981c-14.874-3.022-29.946-2.107-43.552,2.791c-4.735,1.706-9.137,3.841-13.171,6.358
					c0.385,0.115,0.771,0.234,1.154,0.357c3.795-2.304,7.917-4.267,12.328-5.854c13.382-4.819,28.204-5.738,42.845-2.801
					C105.865,14.548,105.997,14.264,106.132,13.981z"/>
				<path fill="#7FBAB6" d="M163.808,54.714c-9.218-16.556-24.821-29.62-43.938-36.784c-1.475-0.554-2.958-1.062-4.448-1.535
					c-0.137,0.277-0.272,0.553-0.406,0.831c1.518,0.479,3.03,0.996,4.533,1.56c18.913,7.088,34.348,20.006,43.459,36.373
					c1.439,2.585,2.691,5.206,3.759,7.852c0.375,0.116,0.748,0.236,1.121,0.356C166.749,60.449,165.392,57.56,163.808,54.714z"/>
				<path fill="#7FBAB6" d="M40.824,30.798c-0.244-0.044-0.488-0.086-0.733-0.125c-0.136-0.022-0.272-0.045-0.408-0.066
					c-6.334,5.98-11.189,13.206-14.254,21.382c-3.555,9.483-4.449,19.583-2.756,29.641c0.331,0.142,0.663,0.283,0.996,0.421
					c-1.798-10.091-0.949-20.233,2.615-29.742C29.381,44.049,34.34,36.777,40.824,30.798z"/>
				<path fill="#7FBAB6" d="M142.878,134.556c0.228,0.221,0.455,0.441,0.686,0.658c11.742-7,20.463-17.182,25.095-29.54
					c3.728-9.946,4.53-20.569,2.49-31.112c-0.335-0.131-0.671-0.26-1.007-0.39c2.148,10.564,1.396,21.22-2.338,31.181
					C163.218,117.588,154.552,127.656,142.878,134.556z"/>
				<path fill="#7FBAB6" d="M71.072,138.11c0.132-0.148,0.263-0.302,0.394-0.452c-17.51-7.297-31.773-19.683-40.386-35.155
					c-1.707-3.064-3.153-6.181-4.336-9.329c-0.366-0.112-0.732-0.227-1.097-0.346c1.244,3.416,2.786,6.798,4.634,10.119
					c8.666,15.565,22.977,28.042,40.543,35.434C70.956,138.234,71.079,138.098,71.072,138.11z"/>
				<path fill="#7FBAB6" d="M133.958,138.967c-0.908,0.37-1.826,0.726-2.76,1.062c-15.659,5.638-33.288,5.938-50.29,0.965
					c-0.039,0.049-0.078,0.099-0.116,0.148c-0.168,0.209-0.339,0.414-0.509,0.621c17.302,5.14,35.271,4.87,51.225-0.875
					c1.063-0.383,2.109-0.789,3.139-1.213C134.416,139.44,134.186,139.204,133.958,138.967z"/>
			</g>
			<g>
				<path fill="#7FBAB6" d="M135.45,126.272c0.188,0.242,0.377,0.482,0.567,0.723c9.953-5.803,17.758-14.444,21.853-25.366
					c3.794-10.123,3.897-20.863,0.958-31.071c-0.341-0.086-0.681-0.173-1.021-0.256c3.036,10.176,2.993,20.904-0.793,31.007
					C152.982,112.067,145.278,120.571,135.45,126.272z"/>
				<path fill="#7FBAB6" d="M86.269,133.228c14.378,3.528,28.77,2.579,41.034-2.082c-0.189-0.253-0.378-0.506-0.564-0.76
					c-11.964,4.488-25.971,5.404-39.982,2.021C86.597,132.68,86.432,132.954,86.269,133.228z"/>
				<path fill="#7FBAB6" d="M77.463,129.514c-17.527-6.713-30.859-19.203-37.861-33.646c-0.357-0.036-0.713-0.079-1.069-0.122
					c7.009,14.817,20.555,27.657,38.428,34.554C77.13,130.038,77.297,129.777,77.463,129.514z"/>
				<path fill="#7FBAB6" d="M116.435,27.096c-1.607-0.603-3.221-1.142-4.837-1.629c-0.105,0.287-0.209,0.573-0.312,0.859
					c1.613,0.485,3.224,1.023,4.829,1.625c16.978,6.363,30.072,18.133,37.375,31.878c0.378,0.066,0.755,0.134,1.132,0.203
					C147.285,45.826,133.885,33.635,116.435,27.096z"/>
				<path fill="#7FBAB6" d="M102.352,23.306c-14.374-2.41-28.489-0.421-40.19,5.19c0.327,0.179,0.655,0.359,0.98,0.543
					c11.376-5.3,25.013-7.161,38.906-4.861C102.148,23.887,102.25,23.596,102.352,23.306z"/>
				<path fill="#7FBAB6" d="M53.62,34.68c-0.321-0.141-0.644-0.279-0.968-0.414c-7.361,5.56-13.117,12.914-16.434,21.766
					c-3.609,9.628-3.878,19.815-1.367,29.571c0.125,0.026,0.222,0.047,0.235,0.05c0.251,0.048,0.503,0.092,0.753,0.141
					c-2.58-9.707-2.357-19.857,1.234-29.441C40.391,47.501,46.195,40.175,53.62,34.68z"/>
			</g>
			<g>
				<path fill="#7FBAB6" d="M100.499,29.065c-11.204-1.651-22.183-0.319-31.649,3.536c0.299,0.205,0.596,0.414,0.893,0.623
					c9.158-3.611,19.721-4.841,30.504-3.273C100.328,29.655,100.414,29.36,100.499,29.065z"/>
				<path fill="#7FBAB6" d="M114.354,32.648c-1.547-0.58-3.1-1.096-4.654-1.555c-0.089,0.292-0.175,0.583-0.261,0.875
					c1.535,0.453,3.068,0.962,4.594,1.535c13.781,5.165,24.692,14.329,31.445,25.177c0.383,0.043,0.766,0.089,1.147,0.136
					C139.802,47.531,128.588,37.983,114.354,32.648z"/>
				<path fill="#7FBAB6" d="M60.261,38.155c-0.287-0.175-0.574-0.349-0.862-0.517c-7.516,5.102-13.392,12.166-16.645,20.845
					c-3.434,9.161-3.485,18.887-0.75,28.11c0.323,0.026,0.648,0.045,0.972,0.065c-2.776-9.135-2.768-18.779,0.634-27.854
					C46.845,50.173,52.731,43.171,60.261,38.155z"/>
				<path fill="#7FBAB6" d="M131.65,120.873c0.161,0.258,0.324,0.515,0.486,0.771c8.737-5.179,15.584-12.826,19.196-22.464
					c3.69-9.844,3.471-20.342,0.09-30.166c-0.34-0.057-0.68-0.113-1.021-0.167c3.468,9.762,3.747,20.218,0.076,30.011
					C146.937,108.304,140.222,115.797,131.65,120.873z"/>
				<path fill="#7FBAB6" d="M89.237,127.807c12.037,2.603,24.006,1.714,34.329-2.098c-0.165-0.262-0.329-0.526-0.489-0.789
					c-10.058,3.674-21.7,4.537-33.422,2.044C89.517,127.245,89.376,127.526,89.237,127.807z"/>
				<path fill="#7FBAB6" d="M80.035,125.123c0.147-0.27,0.292-0.542,0.436-0.813c-0.139-0.05-0.278-0.098-0.417-0.15
					c-14.96-5.608-26.535-15.928-33.083-28c-0.342,0.007-0.685,0.013-1.026,0.015c6.608,12.441,18.444,23.088,33.789,28.839
					C79.834,125.052,79.935,125.085,80.035,125.123z"/>
			</g>
			<g>
				<path fill="#7FBAB6" d="M99.275,33.747c-8.964-1.182-17.741-0.255-25.521,2.495c0.279,0.222,0.555,0.448,0.831,0.675
					c7.488-2.55,15.895-3.397,24.482-2.278C99.134,34.341,99.205,34.044,99.275,33.747z"/>
				<path fill="#7FBAB6" d="M112.682,37.108c-1.414-0.53-2.833-1-4.254-1.418c-0.073,0.296-0.145,0.592-0.215,0.889
					c1.386,0.409,2.77,0.869,4.147,1.385c11.34,4.25,20.522,11.502,26.671,20.17c0.387,0.022,0.774,0.044,1.161,0.071
					C133.945,49.125,124.457,41.522,112.682,37.108z"/>
				<path fill="#7FBAB6" d="M65.086,41.379c-0.129-0.095-0.256-0.19-0.386-0.283c-0.138-0.101-0.277-0.194-0.415-0.292
					c-7.386,4.659-13.164,11.334-16.28,19.646c-3.212,8.568-3.147,17.685-0.407,26.276c0.212-0.006,0.423-0.013,0.635-0.021
					c0.069-0.004,0.184-0.012,0.307-0.02c-2.754-8.471-2.847-17.467,0.32-25.916C51.948,52.534,57.715,45.943,65.086,41.379z"/>
				<path fill="#7FBAB6" d="M129.024,116.269c0.14,0.271,0.283,0.539,0.428,0.807c7.553-4.668,13.466-11.42,16.631-19.864
					c3.559-9.492,3.094-19.658-0.574-29.038c-0.342-0.04-0.684-0.078-1.024-0.115c3.75,9.299,4.276,19.407,0.743,28.833
					C142.143,105.12,136.384,111.706,129.024,116.269z"/>
				<path fill="#7FBAB6" d="M91.325,123.35c10.4,2.003,20.691,1.138,29.621-2.15c-0.144-0.27-0.285-0.541-0.425-0.812
					c-8.694,3.176-18.703,4.021-28.828,2.105C91.573,122.778,91.449,123.066,91.325,123.35z"/>
				<path fill="#7FBAB6" d="M82.157,120.827c0.127-0.278,0.252-0.557,0.376-0.835c-0.269-0.097-0.539-0.192-0.808-0.292
					c-12.942-4.852-23.076-13.613-29.093-23.929c-0.329,0.038-0.659,0.074-0.988,0.107c6.093,10.646,16.469,19.695,29.761,24.677
					C81.656,120.648,81.907,120.737,82.157,120.827z"/>
			</g>
		</g>
		<g>
			<g>
				<circle fill="#11100D" cx="101.463" cy="75.425" r="44.268"/>
				<circle fill="#1A1C1A" cx="101.463" cy="75.425" r="42.471"/>
				<circle cx="101.463" cy="75.425" r="41.216"/>
				<circle fill="#1A1C1A" cx="101.462" cy="75.425" r="39.947"/>
				<circle fill="#11100D" cx="101.463" cy="75.425" r="38.417"/>
				<g>
					<circle fill="#D1ECF0" cx="101.463" cy="75.425" r="15.71"/>
					<path fill="#B0DBDD" d="M117.663,72.9c0.946,8.624-5.278,16.383-13.903,17.329c-8.624,0.946-16.383-5.279-17.328-13.905
						C99.126,74.897,108.363,74.033,117.663,72.9z"/>
					<circle fill="#070808" cx="101.463" cy="75.425" r="0.768"/>
				</g>
			</g>
			<g>
				<path fill="#D87C98" d="M170.49,59.728c-2.847-5.446-7.684-9.304-13.583-10.744c0.049,0.178,0.1,0.357,0.145,0.536
					c0.141,0.284,0.269,0.571,0.39,0.861c2.79,0.793,5.334,2.144,7.543,4.118c2.761,2.466,4.55,5.725,5.969,9.094
					c2.027,4.812,3.002,10.092,2.168,15.283c-1.559,9.706-9.273,16.824-17.415,21.508c-7.728,4.445-16.488,7.163-25.252,8.63
					c-7.832,1.31-16.137,1.732-23.937-0.005c-0.768-0.171-1.043,1.016-0.278,1.187c9.308,2.074,19.259,1.199,28.503-0.768
					c10.084-2.146,20.239-6.048,28.326-12.572c6.794-5.48,11.608-13.131,11.581-22.058C174.631,69.541,172.905,64.346,170.49,59.728
					z"/>
				<path fill="#BF4C62" d="M115.491,96.249c-2.663-8.354-4.333-16.951-6.112-25.524c-0.138-0.666-1.236-0.494-1.368,0.119
					c-0.329,0.127-0.637,0.299-0.922,0.56c-0.014,0.013-0.016,0.026-0.029,0.039c-0.268,0.081-0.497,0.272-0.523,0.576
					c-0.769,8.754,1.494,17.442,5.604,25.146c0.046,0.083,0.107,0.153,0.18,0.207c0.118,0.124,0.293,0.208,0.531,0.208
					c0.6,0,1.242,0.014,1.808-0.209c0.228-0.088,0.356-0.236,0.415-0.395C115.377,96.866,115.606,96.611,115.491,96.249z"/>
				<path fill="#E98EA5" d="M117.288,95.89c-2.794-8.295-5.058-16.84-6.079-25.545c-0.094-0.791-1.529-0.729-1.438,0.056
					c1.034,8.813,3.315,17.467,6.144,25.865C116.163,96.998,117.555,96.679,117.288,95.89z"/>
				<path fill="#BF4C62" d="M119.199,80.283c-0.913-3.978-2.736-7.592-5.702-10.537c-0.248-0.248-0.591-0.216-0.845-0.059
					c-0.437-0.208-1.119-0.022-1.083,0.533c0.551,8.61,2.813,17.266,6.323,25.146c0.152,0.34,0.557,0.437,0.896,0.364
					c0.001,0,0.001-0.002,0.003-0.002c0.017-0.004,0.034-0.007,0.051-0.011c0.259-0.036,0.505-0.163,0.615-0.406
					C121.449,90.879,120.955,85.357,119.199,80.283z"/>
				<path fill="#97324B" d="M117.109,72.701c-0.062-0.162-0.187-0.262-0.33-0.327c-0.465-1.062-1.223-2.003-2.202-2.627
					c-0.188-0.122-0.41-0.129-0.618-0.082c-0.451-0.235-1.253,0.086-1.099,0.717c0.052,0.208,0.11,0.417,0.161,0.626
					c-0.002,0.039-0.018,0.069-0.014,0.112c0.986,8.063,3.038,15.893,5.785,23.529c0.136,0.381,0.581,0.468,0.936,0.358
					c0.32,0.098,0.727-0.001,0.907-0.274c0.116-0.075,0.215-0.174,0.261-0.319c0.311-0.985,0.46-2.02,0.438-3.052
					c0.196-0.097,0.335-0.268,0.301-0.525C120.813,84.623,119.403,78.542,117.109,72.701z"/>
				<path fill="#E98EA5" d="M110.638,50.591c-0.264-0.533-1.151-0.454-1.374-0.051c-0.02,0-0.035-0.006-0.055-0.005
					c-0.088,0.003-0.17,0.027-0.255,0.036c-8.298-16.69-31.433-20.869-45.904-9.188c-0.71,0.573,0.447,1.301,1.049,0.816
					c13.701-11.061,35.54-7.01,43.449,8.681c-0.049,0.015-0.099,0.027-0.148,0.042c-0.044,0.014-0.069,0.039-0.107,0.057
					c-0.022,0.013-0.043,0.022-0.065,0.036c-0.081,0.049-0.143,0.105-0.188,0.17c-0.01,0.014-0.019,0.023-0.027,0.036
					c-0.033,0.056-0.052,0.114-0.061,0.174c-0.025,0.095-0.014,0.196,0.021,0.306c0.002,0.002,0.002,0.007,0.003,0.01
					c0.014,0.04,0.007,0.075,0.031,0.116c0.164,0.283,0.387,0.52,0.605,0.761c0.021,0.025,0.027,0.051,0.052,0.077
					c0.08,0.08,0.158,0.168,0.245,0.242c0.195,0.168,0.483,0.172,0.734,0.085c0.026,0,0.048,0.011,0.076,0.009
					c0.591-0.033,1.121-0.168,1.579-0.556c0.384,0.011,0.772-0.195,0.732-0.616C110.987,51.377,110.838,50.996,110.638,50.591z"/>
				<path fill="#E98EA5" d="M107.684,51.35c-5.225-5.389-11.383-10.503-18.724-12.64c-8.758-2.55-17.246-0.794-24.69,4.372
					c-0.182,0.127-0.267,0.276-0.29,0.425c-0.208,0.13-0.319,0.35-0.193,0.629c0.608,1.343,1.564,2.514,2.594,3.557
					c0.3,0.303,0.836,0.242,1.143,0.026c0.124-0.017,0.245-0.05,0.35-0.128c12.882-9.645,27.82-4.723,38.71,5.252
					c0.556,0.509,1.553-0.213,1.039-0.818C107.845,51.86,107.938,51.61,107.684,51.35z"/>
				<path fill="#BF4C62" d="M104.519,104.691c-7.45-4.6-15.376-8.292-23.253-12.086c-0.611-0.295-0.178-1.319,0.449-1.299
					c0.203-0.289,0.443-0.545,0.766-0.759c0.017-0.01,0.029-0.009,0.045-0.019c0.142-0.241,0.384-0.417,0.685-0.368
					c8.671,1.365,16.542,5.658,23.009,11.503c0.071,0.063,0.122,0.141,0.158,0.224c0.09,0.144,0.13,0.333,0.072,0.565
					c-0.146,0.58-0.288,1.208-0.641,1.703c-0.144,0.201-0.315,0.29-0.486,0.307C105.144,104.729,104.842,104.889,104.519,104.691z"
					/>
				<path fill="#E98EA5" d="M103.734,106.346c-7.36-4.711-15.091-8.967-23.28-12.06c-0.744-0.281-0.337-1.66,0.403-1.379
					c8.291,3.128,16.125,7.428,23.575,12.2C105.082,105.523,104.435,106.797,103.734,106.346z"/>
				<path fill="#BF4C62" d="M88.145,104.435c-3.634-1.845-6.692-4.484-8.828-8.072c-0.178-0.299-0.066-0.625,0.149-0.835
					c-0.094-0.472,0.251-1.09,0.779-0.919c8.212,2.611,16.051,6.895,22.834,12.199c0.294,0.23,0.29,0.647,0.134,0.959l0,0
					c-0.009,0.017-0.016,0.033-0.024,0.048c-0.098,0.241-0.281,0.45-0.543,0.498C97.868,109.174,92.636,107.363,88.145,104.435z"/>
				<path fill="#97324B" d="M81.304,100.578c-0.141-0.099-0.209-0.245-0.237-0.398c-0.916-0.707-1.643-1.671-2.012-2.771
					c-0.071-0.211-0.024-0.429,0.074-0.619c-0.122-0.495,0.386-1.194,0.959-0.893c0.189,0.1,0.377,0.206,0.567,0.306
					c0.039,0.007,0.072,0.001,0.112,0.016c7.574,2.9,14.664,6.779,21.398,11.286c0.336,0.226,0.313,0.677,0.12,0.996
					c0.017,0.333-0.179,0.705-0.487,0.813c-0.1,0.093-0.22,0.167-0.373,0.176c-1.03,0.063-2.068-0.042-3.064-0.312
					c-0.141,0.167-0.34,0.26-0.582,0.165C91.959,107.046,86.407,104.211,81.304,100.578z"/>
				<path fill="#E98EA5" d="M61.448,88.965c-0.453-0.383-0.16-1.226,0.284-1.343c0.005-0.019,0.001-0.035,0.009-0.059
					c0.025-0.081,0.068-0.156,0.096-0.235c-14.159-12.075-12.588-35.521,2.25-46.738c0.727-0.55,1.15,0.748,0.534,1.215
					C50.574,52.423,49.196,74.582,62.48,86.039c0.027-0.044,0.049-0.088,0.076-0.133c0.026-0.039,0.056-0.059,0.083-0.091
					c0.017-0.018,0.033-0.038,0.05-0.054c0.067-0.067,0.138-0.114,0.212-0.143c0.013-0.006,0.026-0.014,0.041-0.019
					c0.062-0.018,0.123-0.021,0.183-0.017c0.098-0.001,0.194,0.034,0.292,0.095c0.003,0.002,0.005,0.002,0.009,0.005
					c0.035,0.023,0.072,0.026,0.105,0.059c0.232,0.228,0.408,0.5,0.59,0.77c0.019,0.027,0.043,0.038,0.061,0.071
					c0.059,0.095,0.125,0.191,0.176,0.293c0.116,0.23,0.05,0.508-0.096,0.733c-0.006,0.025-0.002,0.049-0.009,0.076
					c-0.176,0.566-0.435,1.046-0.924,1.398c-0.08,0.374-0.375,0.703-0.774,0.562C62.126,89.495,61.794,89.258,61.448,88.965z"/>
				<path fill="#E98EA5" d="M63.572,86.388c0.461,0.644,1.404-0.147,1.044-0.81c-7.022-12.969-8.163-28.645,4.313-38.81
					c0.104-0.083,0.164-0.193,0.211-0.309c0.283-0.247,0.472-0.751,0.251-1.114c-0.761-1.252-1.663-2.462-2.816-3.374
					c-0.24-0.192-0.48-0.134-0.658,0.034c-0.15-0.014-0.314,0.033-0.482,0.179C58.62,48.156,54.857,55.966,55.2,65.075
					c0.287,7.636,3.749,14.841,7.7,21.209C63.093,86.593,63.356,86.564,63.572,86.388z"/>
				<path fill="#BF4C62" d="M111.998,51.35c-0.274-0.288-0.754-0.26-1.069-0.083c-0.038,0.006-0.073,0.002-0.113,0.016
					c-0.35,0.115-0.699,0.235-1.048,0.354c-0.192-0.002-0.375,0.06-0.511,0.172c-0.502,0.175-1.002,0.356-1.498,0.551
					c-0.265,0.104-0.392,0.286-0.432,0.477c-0.216,0.131-0.339,0.357-0.219,0.646c1.228,2.995,2.795,5.885,4.572,8.59
					c0.149,0.229,0.407,0.298,0.655,0.268c0,0.31,0.231,0.6,0.696,0.545c0.916-0.105,1.718-0.757,2.516-1.175
					c0.067-0.034,0.106-0.076,0.152-0.117c0.296-0.062,0.552-0.259,0.542-0.598C116.143,57.381,114.474,53.938,111.998,51.35z"/>
				<path fill="#515151" d="M118.395,70.319c0.002-0.051,0.002-0.103,0.004-0.155c0.006-0.123-0.033-0.218-0.087-0.301
					c-0.5-3.388-1.665-6.591-3.438-9.526c-0.396-0.659-1.669-0.091-1.216,0.657c1.735,2.874,2.872,6.051,3.3,9.381
					c-0.167,3.902-0.157,7.809-0.355,11.708c-0.04,0.791,1.397,0.739,1.437-0.056c0.196-3.87,0.189-7.749,0.353-11.62
					c-0.001-0.023,0.01-0.039,0.007-0.063C118.398,70.336,118.395,70.329,118.395,70.319z"/>
				<path fill="#BF4C62" d="M70.172,96.913c0.326,0.089,0.578-0.109,0.709-0.382c0.052-0.036,0.103-0.063,0.153-0.121
					c0.597-0.671,1.425-1.292,1.75-2.156c0.165-0.437-0.06-0.73-0.361-0.806c0.091-0.232,0.085-0.5-0.1-0.703
					c-2.19-2.374-4.61-4.589-7.215-6.504c-0.25-0.186-0.499-0.121-0.678,0.057c-0.195-0.007-0.402,0.073-0.567,0.304
					c-0.311,0.434-0.607,0.875-0.898,1.319c-0.141,0.106-0.246,0.267-0.291,0.453c-0.201,0.311-0.402,0.62-0.599,0.932
					c-0.022,0.038-0.028,0.07-0.043,0.107c-0.247,0.261-0.391,0.721-0.18,1.055C63.76,93.495,66.693,95.943,70.172,96.913z"/>
				<path fill="#515151" d="M78.685,101.25c-0.05-0.011-0.102-0.025-0.151-0.034c-0.121-0.024-0.205-0.085-0.271-0.157
					c-3.162-1.303-5.983-3.204-8.398-5.632c-0.54-0.545,0.319-1.643,0.933-1.023c2.364,2.377,5.168,4.247,8.292,5.467
					c3.821,0.779,7.606,1.73,11.434,2.481c0.774,0.153,0.375,1.532-0.404,1.379c-3.8-0.744-7.557-1.687-11.35-2.462
					c-0.021-0.006-0.039-0.001-0.061-0.008C78.699,101.257,78.693,101.253,78.685,101.25z"/>
				<path fill="#8C3D58" d="M106.926,109.163c-0.355-0.32-0.761-0.492-1.197-0.63c-0.006-0.099-0.018-0.2-0.047-0.308
					c-0.062-0.238-0.251-0.358-0.468-0.398c0.157-0.462-0.39-0.779-0.859-0.705c-0.155-0.624-1.292-0.724-1.376-0.041
					c-0.047,0.383-0.52,1.142-0.763,1.304c-0.726,0.486-0.017,1.339,0.637,1.068c0.188,0.396,1.008,0.542,1.337,0.079
					c0.021-0.03,0.037-0.063,0.059-0.092c0.007,0.006,0.01,0.015,0.016,0.019c0.221,0.172,0.48,0.183,0.72,0.105
					c0.03,0.011,0.049,0.029,0.083,0.037c0.353,0.093,0.604,0.211,0.876,0.457C106.525,110.585,107.602,109.777,106.926,109.163z"/>
			</g>
		</g>
	</g>
</g>
</svg>
