<?xml version="1.0" encoding="utf-8"?>
<!-- Generator: Adobe Illustrator 16.0.0, SVG Export Plug-In . SVG Version: 6.00 Build 0)  -->
<!DOCTYPE svg PUBLIC "-//W3C//DTD SVG 1.1//EN" "http://www.w3.org/Graphics/SVG/1.1/DTD/svg11.dtd">
<svg version="1.1" xmlns="http://www.w3.org/2000/svg" xmlns:xlink="http://www.w3.org/1999/xlink" x="0px" y="0px" width="393px"
	 height="170px" viewBox="0 0 393 170" enable-background="new 0 0 393 170" xml:space="preserve">
<g id="grid" display="none">
</g>
<g id="Layer_1">
	<g>
		<g>
			<path fill="#515566" d="M49.732,78.586c-1.01,0.486-2.297,0.902-3.861,1.248c2.033,0.382,3.436,1.145,4.211,2.288
				c0.773,1.144,1.162,3.033,1.162,5.667v2.392c0,0.139,0,0.347,0,0.624c0,2.495,0.791,3.743,2.373,3.743
				c1.617,0,2.426-1.48,2.426-4.443v-1.55v-1.292v-0.724c0-0.999,0.07-1.688,0.209-2.066c0.277-0.585,0.816-0.879,1.617-0.879
				c1.252,0,1.877,0.73,1.877,2.191c0,0.035-0.018,0.417-0.051,1.148v1.095c0,0.73,0,1.2,0,1.409v1.304
				c-0.035,0.208-0.053,0.521-0.053,0.938c0,2.018-0.566,3.591-1.695,4.721c-1.131,1.131-2.705,1.695-4.721,1.695
				c-4.104,0-6.156-2.068-6.156-6.207v-1.565v-1.773v-1.148c0-2.329-0.441-3.868-1.324-4.616c-0.883-0.747-2.711-1.121-5.48-1.121
				h-4.834c-1.107,0-1.662,0.678-1.662,2.034v4.017c0,2.574,0.035,4.034,0.105,4.382c0.312,1.739,1.182,2.608,2.607,2.608
				c0.486,0,0.852-0.021,1.096-0.063c0.59-0.062,1.043-0.094,1.355-0.094c1.113,0,1.67,0.575,1.67,1.723
				c0,1.216-0.748,1.824-2.244,1.824l-0.781-0.104l-2.816-0.365c-1.08-0.138-2.035-0.208-2.869-0.208
				c-1.043,0-2.262,0.087-3.652,0.261l-2.504,0.313c-0.557,0.069-0.816,0.104-0.781,0.104c-1.496,0-2.244-0.626-2.244-1.877
				c0-1.113,0.539-1.669,1.617-1.669c0.174,0,0.643,0.035,1.408,0.104c0.383,0.104,0.748,0.156,1.096,0.156
				c1.773,0,2.66-1.304,2.66-3.912V69.979c0-2.608-0.887-3.912-2.66-3.912c-0.279,0-0.695,0.044-1.252,0.13
				c-0.557,0.087-0.975,0.13-1.252,0.13c-0.451,0-0.834-0.165-1.146-0.496c-0.314-0.33-0.471-0.721-0.471-1.173
				c0-1.217,0.766-1.826,2.295-1.826c0.139,0,0.383,0.018,0.73,0.052l2.66,0.261c0.695,0.07,1.564,0.104,2.609,0.104
				c1.076,0,2.277-0.034,3.598-0.104l3.965-0.209c1.322-0.069,2.539-0.104,3.652-0.104c7.648,0,11.475,2.912,11.475,8.735
				C53.695,74.999,52.373,77.339,49.732,78.586z M35.283,78.169h4.902c2.922,0,5.111-0.417,6.572-1.252
				c1.773-1.008,2.66-2.694,2.66-5.06c0-3.964-2.721-5.946-8.164-5.946c-2.896,0-4.859,0.217-5.889,0.651
				c-1.029,0.436-1.561,1.296-1.596,2.582v1.669v5.999c0,0.592,0.105,0.965,0.312,1.122C34.291,78.091,34.691,78.169,35.283,78.169z
				"/>
			<path fill="#515566" d="M69.084,69.979c0-2.573-0.887-3.86-2.66-3.86c-0.488,0-0.854,0.035-1.096,0.104
				c-0.557,0.104-1.025,0.157-1.408,0.157c-0.453,0-0.834-0.165-1.148-0.496c-0.312-0.33-0.469-0.738-0.469-1.226
				c0-1.217,0.729-1.826,2.184-1.826c0.033,0,0.293,0.018,0.779,0.052c5.197,0.348,7.623,0.522,7.277,0.522h0.52l12.527-0.365
				c0.244,0,1.145-0.052,2.705-0.157c0.553-0.034,1.055-0.052,1.506-0.052c1.803,0,2.703,0.801,2.703,2.399
				c0,0.279-0.049,1.166-0.148,2.661c-0.074,1.113-0.111,2.139-0.111,3.078c0,1.218,0.027,2.069,0.086,2.556
				c0.117,1.009,0.174,1.757,0.174,2.243c0,1.322-0.617,1.982-1.852,1.982s-1.852-0.921-1.852-2.765v-2.713
				c0-2.921-0.609-4.643-1.826-5.164c-0.904-0.382-3.232-0.574-6.988-0.574c-2.471,0-3.932,0.052-4.383,0.157
				c-1.496,0.383-2.242,1.426-2.242,3.13v2.347c0,0.279,0,0.661,0,1.148c0,0.487,0,0.834,0,1.043v0.678
				c0,1.392,0.309,2.191,0.926,2.399c0.24,0.07,0.65,0.104,1.234,0.104h2.109c2.16,0,3.242-0.747,3.242-2.243
				c0-0.417-0.045-0.956-0.131-1.617c-0.088-0.661-0.131-1.252-0.131-1.774c0-1.39,0.617-2.086,1.852-2.086s1.852,0.748,1.852,2.243
				c0,0.279-0.111,1.356-0.336,3.234c-0.193,1.6-0.289,3.009-0.289,4.226c0,0.696,0.068,1.93,0.209,3.703
				c0.033,0.279,0.121,0.887,0.26,1.826c0.105,0.765,0.156,1.374,0.156,1.825c0,1.252-0.625,1.878-1.877,1.878
				c-1.219,0-1.826-0.73-1.826-2.19c0-0.383,0.043-0.939,0.131-1.669c0.086-0.73,0.131-1.286,0.131-1.669
				c0-1.495-0.992-2.243-2.975-2.243h-2.346c-1.01,0-1.627,0.174-1.854,0.521c-0.227,0.348-0.338,1.095-0.338,2.243v3.234
				c0,0.557,0.018,1.304,0.053,2.243c0.033,1.147,0.051,1.913,0.051,2.295c0.035,1.392,0.312,2.261,0.836,2.608
				c0.381,0.243,1.285,0.365,2.711,0.365h7.094c2.053,0,3.461-0.304,4.227-0.913c0.764-0.608,1.146-1.748,1.146-3.417
				c0-0.521-0.025-1.295-0.078-2.321c-0.051-1.025-0.078-1.8-0.078-2.321c0-1.565,0.617-2.347,1.854-2.347
				c1.303,0,1.955,0.8,1.955,2.399c0,0.626-0.027,1.583-0.078,2.869c-0.053,1.287-0.078,2.243-0.078,2.869
				c0,0.487,0.025,1.208,0.078,2.165c0.051,0.957,0.078,1.678,0.078,2.165c0,1.635-0.801,2.451-2.4,2.451
				c-0.383,0-0.99-0.035-1.824-0.104c-0.418-0.035-1.184-0.052-2.297-0.052c0.244,0-1.113-0.035-4.068-0.104
				s-5.512-0.104-7.668-0.104c-3.268,0-6.467,0.104-9.598,0.313c-0.139,0-0.295,0.017-0.469,0.052c-0.174,0-0.279,0-0.312,0
				c-1.461,0-2.191-0.626-2.191-1.877c0-1.113,0.539-1.669,1.617-1.669c0.174,0,0.643,0.035,1.408,0.104
				c0.383,0.104,0.748,0.156,1.096,0.156c1.773,0,2.66-1.304,2.66-3.912V69.979z"/>
		</g>
		<g>
			<path fill="#E03254" d="M115.301,86.278c-1.547,2.808-5.807,5.804-5.807,5.804s-4.232-3.009-5.803-5.804
				c-2.238-3.981,2.816-6.798,5.803-3.319C112.971,79.48,117.445,82.379,115.301,86.278z"/>
		</g>
		<g>
			<g>
				<path fill="#525667" d="M369.18,85.435c-3.738,5.317-11.748,14.574-19.064,10.338c-2.777-1.608-3.871-4.654-3.916-7.811
					c0.113-0.229,0.229-0.456,0.342-0.682c2.998,1.993,6.525,2.396,10.047,1.229c3.059-1.011,6.426-3.693,6.729-7.124
					c0.334-3.775-3.145-5.992-6.324-6.994c-3.426-1.079-6.904,0.238-9.275,2.775c-2.48,2.65-3.791,6.563-3.727,10.381
					c-1.729,3.554-3.49,7.198-7.348,8.807c-2.945,1.229-3.951-1.792-4.453-4.103c-1.338-6.157-0.27-12.589-0.48-18.839
					c2.311-0.044,4.621-0.142,6.924-0.369c1.387-0.136,1.324-2.312-0.078-2.174c-2.244,0.221-4.494,0.32-6.748,0.366
					c0.131-2.913-0.158-5.891-0.418-8.698c-0.131-1.388-2.307-1.324-2.176,0.076c0.281,3.003,0.379,5.854,0.168,8.656
					c-1.064,0.006-2.131,0.006-3.197,0.008c-1.402,0-1.324,2.174,0.076,2.174c0.963,0,1.928-0.001,2.891-0.006
					c-0.33,2.366-0.906,4.717-1.826,7.106c-1.783,4.618-4,9.381-7.305,13.112c-1.201,1.355-2.938,2.868-4.885,2.601
					c-2.516-0.343-3.211-3.659-3.529-5.696c-0.238-1.544-0.33-3.111-0.322-4.686c0.281-1.619,0.369-3.222,0.252-4.704
					c0.145-1.554,0.334-3.1,0.52-4.621c0.168-1.375-1.945-1.895-2.117-0.504c-0.084,0.684-0.166,1.37-0.246,2.058
					c-3.834-3.471-9.676-3.568-13.496,0.115c-0.139,0.062-0.275,0.161-0.395,0.318c-0.092,0.118-0.18,0.239-0.27,0.359
					c-3.594,3.926-5.992,8.99-9.016,13.331c-0.938,1.349-2.691,4.256-4.568,4.396c-1.617,0.119-1.582-5.062-1.602-5.94
					c-0.115-4.942,0.883-9.782,1.148-14.695c0.029-0.551-0.287-0.868-0.691-0.969c-0.488-0.369-1.201-0.375-1.484,0.347
					c-1.338,3.403-2.771,6.804-4.342,10.106c-1.617,3.399-3.82,8.137-7.553,9.633c-5.902,2.367-6.006-6.667-5.713-12.843
					c0.162-0.366,0.322-0.731,0.484-1.09c0.031-0.075,0.055-0.148,0.07-0.223c3.068-5.254,7.23-10.513,7.787-16.754
					c0.273-3.09,0.482-8.296-2.291-10.463c-2.898-2.263-6.475,2.265-7.27,4.681c-1.615,4.907-1.051,10.54-0.852,15.614
					c0.102,2.58,0.012,5.141-0.076,7.703c-2.318,5.098-8.973,18.824-12.012,13.329c-1.43-2.585-1.535-6.07-1.717-8.941
					c-0.207-3.279-0.15-6.582,0.041-9.86c0.076-1.28-1.74-1.313-2.105-0.243c-0.365,0.148-0.643,0.483-0.611,0.999
					c0.232,3.956-1.832,6.785-3.914,9.933c-2.02,3.051-4.564,5.848-7.566,7.95c-6.77,4.736-15.465,0.298-14.623-8.171
					c0.004-0.03,0-0.057,0-0.086c0.047-0.1,0.098-0.2,0.145-0.296c1.225-2.474,2.479-5.009,4.395-7.028
					c3.008-3.172,6.867-1.454,8.811,2.038c0.682,1.228,2.531,0.083,1.852-1.14c-1.59-2.858-4.488-5.402-7.982-4.767
					c-2.654,0.483-4.469,2.393-5.98,4.503c-1.861,2.603-3.119,5.632-4.557,8.475c-1.359,2.69-3.012,6.137-5.969,7.359
					c-0.037,0.015-0.068,0.035-0.104,0.053c-1.562-0.314-1.713-2.14-2.348-3.678c-0.639-1.555-0.664-3.242-0.699-4.898
					c-0.07-3.152,0.057-6.501-1.779-9.225c-1.852-2.746-5.605-3.442-8.533-2.293c-2.602,1.021-4.57,3.307-6.219,5.645
					c-0.205-1.672-0.701-3.281-1.791-4.614c-1.736-2.129-4.635-1.635-6.33,0.101c-2.494,2.551-3.621,6.125-5.84,8.868
					c-0.117,0.144-0.186,0.292-0.223,0.443c-2.334,2.721-5.293,2.467-7.887,0.823c0.166-4.608-1.898-8.876-6.895-10.409
					c-0.137-0.042-0.277-0.041-0.412-0.02c-0.043-0.384-0.295-0.722-0.812-0.795c-6.277-0.896-11.109,3.927-12.377,9.791
					c-0.158,0.731-0.229,1.473-0.229,2.213c-0.396-0.061-0.826,0.07-1.105,0.493c-2.719,4.152-6.645,7.76-11.727,8.438
					c-4.07,0.542-7.658-1.674-8.332-5.812c-0.592-3.643,1.148-7.553,3.617-10.141c2.482-2.6,7.043-4.481,8.469,0.063
					c0.42,1.336,2.504,0.708,2.084-0.634c-1.469-4.663-5.6-5.249-9.527-2.995c-4.508,2.585-7.072,8.094-6.875,13.17
					c0.176,4.66,3.896,8.357,8.541,8.561c6.42,0.281,11.59-3.787,15.113-8.809c0.875,4.069,3.934,7.684,8.047,8.667
					c4.977,1.191,9.896-2.465,11.502-7.035c0.283-0.808,0.502-1.628,0.66-2.451c3.383,1.835,7.193,1.804,10.076-2.059
					c0.107-0.145,0.176-0.297,0.209-0.449c1.373-1.823,2.406-3.912,3.611-5.842c0.727-1.166,1.525-2.447,2.652-3.27
					c1.451-1.06,2.885,1.099,3.252,2.16c0.83,2.401,0.465,5.293,0.279,7.773c-0.26,3.418-0.014,6.79,0.359,10.2
					c0.148,1.383,2.326,1.322,2.174-0.076c-0.459-4.201-0.441-8.16-0.221-12.348c0.006-0.104,0.01-0.209,0.016-0.315
					c0.072-0.065,0.145-0.14,0.205-0.234c2.043-3.104,4.729-7.355,8.861-7.525c4.518-0.185,5.1,4.999,5.182,8.259
					c0.107,4.085,0.223,12.969,6.115,12.472c0.498-0.042,0.805-0.348,0.936-0.716c2.543-1.464,4.242-4.041,5.643-6.723
					c1.506,6.599,8.707,10.443,15.475,7.397c3.943-1.771,7.051-5.208,9.58-8.613c1.244-1.673,2.467-3.381,3.414-5.19
					c0.043,1.412,0.127,2.822,0.258,4.23c0.289,3.071,0.734,6.612,2.768,9.07c1.846,2.229,4.607,0.85,6.35-0.672
					c2.885-2.521,4.846-5.945,6.504-9.48c0,0.025,0,0.048,0,0.073c0.031,3.487,0.719,8.652,4.736,9.781
					c7.381,2.071,11.75-7.732,14.463-14.497c-0.66,7.732-0.848,18.767,4.938,15.656c3.223-1.732,5.516-5.537,7.514-8.972
					c-0.039,0.685-0.027,1.375,0.055,2.072c0.426,3.634,3.885,7.476,7.682,7.586c4.963,0.142,8.613-3.325,10.709-7.723
					c0.07,0.424,0.148,0.848,0.238,1.27c1.033,4.678,5.072,7.428,9.418,4.661c4.646-2.956,7.332-9.237,9.383-14.087
					c0.256-0.602,0.5-1.213,0.74-1.825c-0.209,4.871-0.264,9.784,1.572,14.145c1.152,2.735,3.537,3.934,6.369,2.938
					c3.52-1.238,5.568-4.077,7.244-7.176c0.576,2.063,1.619,3.949,3.178,5.404c8.146,7.594,18.979-3.906,23.389-10.181
					C371.895,85.334,369.977,84.301,369.18,85.435z M261.689,65.008c0.064-2.077,0.223-4.288,0.98-6.244
					c0.348-0.892,2.568-4.245,3.826-3.262c2.178,1.698,1.613,7.125,1.289,9.46c-0.625,4.473-3.375,8.519-5.852,12.399
					C261.859,73.242,261.555,69.133,261.689,65.008z M154.1,96.683c-10.582-1.822-7.283-20.286,3.299-18.774
					c0.146,0.021,0.281,0.011,0.408-0.016c0.34,3.55,2.809,7.596,6.002,10.126C163.18,92.901,159.486,97.61,154.1,96.683z
					 M160.324,79.481c2.094,1.259,3.209,3.392,3.504,5.744C162.213,83.579,160.93,81.479,160.324,79.481z M309.139,85.99
					c-0.994,5.035-4.219,10.095-9.213,10.872c-3.895,0.608-6.594-3.581-6.699-6.969c-0.104-3.304,1.822-6.691,3.76-9.327
					c0.338-0.39,0.686-0.772,1.057-1.135c3.076-3.019,8.018-2.036,10.705,0.789c0.172,0.179,0.359,0.274,0.543,0.31
					c0.033,0.197,0.062,0.396,0.088,0.6C309.232,82.748,309.139,84.371,309.139,85.99z M347.867,80.73
					c1.129-2.189,2.982-3.876,5.406-4.438c2.752-0.639,6.953,1.079,7.828,3.88c0.85,2.731-2.6,5.17-4.656,6.067
					c-3.209,1.398-6.811,0.896-9.486-1.339c-0.143-0.119-0.295-0.192-0.445-0.231C346.803,83.234,347.275,81.875,347.867,80.73z"/>
			</g>
			<g>
				<path fill="#525667" d="M254.416,62.874c-3.791,1.734-7.189,4.068-10.412,6.699c-1.088,0.889,0.504,2.378,1.572,1.504
					c3.074-2.511,6.365-4.698,9.979-6.351C256.832,64.143,255.674,62.297,254.416,62.874z"/>
			</g>
			<g>
				<path fill="#525667" d="M282.559,68.531c-0.447-0.668-1.221-1.07-1.996-1.205c-0.398-0.068-0.895-0.093-1.246,0.148
					c-0.295,0.204-0.467,0.482-0.523,0.782c-0.115,0.13-0.203,0.283-0.258,0.457c-0.191,0.61-0.172,1.237,0.117,1.812
					c0.301,0.603,0.898,0.917,1.504,1.13c0.172,0.061,0.346,0.053,0.514,0.007c0.061,0.007,0.121,0.017,0.184,0.021
					c0.383,0.036,0.73-0.27,0.916-0.562c0.307-0.478,0.51-1.016,0.814-1.495C282.785,69.313,282.76,68.837,282.559,68.531z"/>
			</g>
		</g>
	</g>
</g>
</svg>
