<?xml version="1.0" encoding="utf-8"?>
<!-- Generator: Adobe Illustrator 16.0.0, SVG Export Plug-In . SVG Version: 6.00 Build 0)  -->
<!DOCTYPE svg PUBLIC "-//W3C//DTD SVG 1.1//EN" "http://www.w3.org/Graphics/SVG/1.1/DTD/svg11.dtd">
<svg version="1.1" xmlns="http://www.w3.org/2000/svg" xmlns:xlink="http://www.w3.org/1999/xlink" x="0px" y="0px" width="393px"
	 height="170px" viewBox="0 0 393 170" enable-background="new 0 0 393 170" xml:space="preserve">
<g id="grid" display="none">
</g>
<g id="Layer_1">
	<g>
		<g>
			<g>
				<path fill="#C08CBE" d="M165.158,28.689c-0.094,0.095,0.095,0,0,0.188v0.188c-0.188,0.377-0.377,5.75-0.377,10.745
					c0,2.262,0,4.524,0.188,6.221c0.095,1.885,0.942,4.053,2.64,4.619c1.225,0.094,2.545-0.377,3.11-1.508
					c0.377-1.037,0.471-2.262,0.471-3.487c0-0.471,0-1.131,0.283-3.299c0,0,2.733,0.094,3.958,0.094
					c1.697-0.094,3.771-0.094,5.938,0.66c0.66,1.979,1.037,3.771,1.037,5.184c0,7.352-5.75,14.043-13.573,14.421
					c-6.221,0.66-14.232-1.508-14.986-9.048c-0.188-3.864-0.282-7.917-0.282-13.761c0-3.205,0-6.786,0.094-11.499
					c-0.188-1.414,0.188-3.299,0.754-4.524c0.755-2.168,2.168-4.43,3.677-5.844c1.036-0.66,2.167-1.131,3.393-1.603
					c1.791-0.471,3.487-0.754,4.995-0.754c8.483,0,16.023,6.692,16.023,15.175c0,1.603-0.282,3.393-1.037,5.467
					c-1.319,0.377-2.827,0.471-4.146,0.471c-1.886,0-4.147-0.377-6.504-0.848c-0.188-0.849-0.282-1.979-0.282-2.922
					c-0.095-2.356-0.283-5.09-3.017-4.996c-0.094,0-0.282,0.094-0.377,0.094h0.095c-0.755,0.188-1.791,0.377-1.979,0.565H165.158z
					 M167.515,26.993c4.713-0.283,3.771,4.901,4.241,8.105c3.017,0.566,5.938,0.849,8.86,0.283
					c3.864-11.405-7.635-21.396-18.757-17.908c-1.131,0.377-2.262,0.754-3.11,1.414c-1.508,1.32-2.639,3.205-3.393,5.278
					c-0.377,1.32-0.755,2.733-0.566,4.053c-0.188,13.196-0.094,19.417,0.189,25.354c0.565,6.88,8.011,8.765,13.761,8.011
					c8.954-0.188,14.609-9.237,11.876-17.72c-2.356-0.66-5.844-0.094-8.2-0.377c-0.283,2.074,0.094,4.242-0.754,6.032
					c-0.849,1.791-2.64,2.356-4.336,2.168c-2.356-0.565-3.204-3.205-3.487-5.561c-0.472-5.655,0-16.777,0.283-17.342
					c0.094-0.188,0.188-0.66,0.377-0.849C164.97,27.37,166.572,27.181,167.515,26.993z"/>
				<path fill="#C08CBE" d="M214.923,61.583c-1.886,0.472-3.394,0.66-4.713,0.66c-1.886,0-3.959-0.283-5.75-0.66
					c-1.131-2.733-2.168-5.561-3.299-8.105c-1.131-0.188-1.225-0.095-1.696-0.095h-1.037c-0.377,0.849-0.659,2.356-0.848,3.771
					c-0.188,1.508-0.472,2.922-1.791,4.524c-0.377,0.188-1.979,0.282-2.733,0.282c-1.508-0.094-3.676-0.188-6.692-0.188
					l-1.036-0.471c0.094-0.283,0.188-1.979,0.282-2.639c1.226-7.352,4.524-26.202,9.52-42.791c1.319-0.283,1.791-0.283,2.356-0.283
					c1.131,0,3.676,0,7.069-0.283c0.471,1.696,1.885,7.729,3.016,12.724c1.037,4.147,1.886,8.671,2.451,10.557L214.923,61.583z
					 M208.984,38.774c-1.131-4.242-4.336-19.04-5.278-22.338c-5.467,0.472-6.503,0.095-7.729,0.283
					c-6.032,20.17-9.237,42.319-9.614,44.016c0.095,0.094,0.095,0.094,0.095,0.094c5.749-0.188,8.2,0.283,8.859,0
					c0.095,0,0.095,0,0.095,0c1.319-1.885,0.942-6.975,2.545-8.483c1.885,0.094,1.696-0.094,3.864,0.188
					c1.226,2.545,2.262,5.278,3.393,8.106c2.64,0.471,5.844,0.66,8.389,0.188L208.984,38.774z M197.769,42.827
					c1.791-12.63,3.11-7.163,4.712,0.188C200.973,43.016,199.276,42.921,197.769,42.827z M201.161,41.885
					c-0.754-3.016-1.319-5.561-1.319-5.561c-0.565,0,0,0-0.754,5.467C199.748,41.885,200.407,41.885,201.161,41.885z"/>
				<path fill="#C08CBE" d="M252.434,61.867c-1.132,0-2.263,0-3.582,0.094c-2.262,0.095-4.807,0.377-7.729,0.095
					c-1.509-3.299-4.431-9.614-7.164-13.95v1.037c0,3.487,0.283,7.823,0.378,10.273c0,0.377,0.094,1.414,0.094,1.697
					c-3.016,1.037-7.352,1.037-9.991,1.037c-1.036,0-2.922-0.094-2.922-0.094c-0.282-2.64,0-6.315,0-11.876
					c0-12.064-0.282-30.633-0.848-34.12c4.053-0.471,8.954-1.225,13.289-1.225c1.509,0,3.205,0.094,4.713,0.283
					c7.729,0.754,13.95,7.163,13.95,14.515c0,2.356-0.66,4.901-2.074,7.257l0.095-0.094c-1.603,2.922-4.053,5.278-7.729,5.938
					c0.849,1.508,2.074,3.393,3.488,5.184c2.544,3.958,5.184,7.823,6.975,12.536L252.434,61.867z M241.123,41.791v-0.094h0.094
					h0.188c4.053-0.188,6.692-2.356,8.2-5.373c5.278-8.766-1.131-19.604-11.027-20.17c-6.127-0.565-11.971,0.188-16.684,0.848
					c0.66,4.242,1.132,44.111,0.472,44.111c0.849-0.188,8.2,0.283,10.934-0.754c-0.188-3.205-0.66-11.593-0.188-15.363v0.188
					c3.676,4.335,7.069,11.97,8.766,15.834h0.094c3.771,0.188,7.446-0.188,10.463-0.188
					C249.889,53.949,244.704,48.011,241.123,41.791z M239.049,25.956c2.263,1.885,2.074,6.975-1.131,7.635
					c-2.073,0.283-4.43,0.094-6.409,0c-0.094,0-0.094,0-0.094,0c-0.188-1.885-0.095-5.561-0.188-7.729
					C234.054,24.636,237.164,24.354,239.049,25.956z M232.357,26.521v2.828c0,1.225-0.095,2.262,0.094,3.205
					c0.849,0.094,1.791,0.094,2.733,0.094c0.849,0,1.696,0,2.545-0.188c1.226-0.283,1.791-1.414,1.791-2.733
					c0-1.131-0.377-2.168-1.037-2.733c-0.848-0.754-1.791-1.131-2.922-1.131C234.619,25.862,233.394,26.144,232.357,26.521z"/>
				<path fill="#F280A2" d="M199.229,112.694c-0.754,1.885-3.676,1.696-6.315,1.508c-1.225-0.094-2.356-0.377-4.618,0.095
					c-2.356-4.996-4.336-9.897-6.126-14.893c-0.095,2.64-0.188,4.619-0.188,7.258v6.786c-2.451,0.849-4.336,0.66-6.41,0.472
					c-1.508-0.188-3.016-0.377-5.749,0v-5.655c0-3.582,0-7.258-0.095-10.839c-0.094-3.77-0.094-7.541-0.094-11.311
					c0-5.561,0.094-11.31,0.66-17.908c1.319-0.471,2.639-0.66,3.958-0.66c2.263,0,5.185,0.471,7.258,1.131
					c0.377,1.791,3.204,6.598,5.467,10.274c0.094,0.188,0.188,0.471,0.377,0.66c-0.095-0.942-0.095-1.696-0.188-2.828
					c-0.095-1.508-0.283-3.299-0.283-4.807c0-1.414,0.095-2.639,0.377-4.147c2.168-0.377,4.901-0.66,6.787-0.66
					c1.979,0,4.335,0.283,5.184,0.471l-0.095,21.019c0.095,3.11,0.095,7.352,0.095,10.556v6.221c0,2.074,0,4.147,0.094,6.221
					L199.229,112.694z M198.287,111.657c-0.283-7.541,0-15.364-0.188-22.998l0.094-20.17c-1.036-0.283-6.88-0.377-9.896,0.188
					c0,0.095,0,0.188,0,0.188c-0.849,4.807,0.66,11.028-0.094,14.044c-2.356-3.958-7.353-11.782-7.635-13.384v-0.094
					c-2.545-0.754-7.352-1.32-9.331-0.471c-1.131,14.138-0.188,29.407-0.283,43.733c0,0,0,0.094,0.095,0.094
					c2.922-0.565,7.352,0.848,9.802,0h0.095c-0.188-6.598-0.095-12.253,0.377-18.568c2.073,5.75,4.807,12.724,7.54,18.851
					c2.545-0.471,8.672,0.942,9.331-0.471L198.287,111.657z"/>
				<path fill="#F280A2" d="M236.837,113.636c-1.886,0.472-3.394,0.66-4.713,0.66c-1.886,0-3.959-0.283-5.75-0.66
					c-1.131-2.733-2.168-5.561-3.299-8.105c-1.131-0.188-1.225-0.095-1.696-0.095h-1.037c-0.377,0.849-0.659,2.356-0.848,3.771
					c-0.188,1.508-0.472,2.922-1.791,4.524c-0.377,0.188-1.979,0.282-2.733,0.282c-1.508-0.094-3.676-0.188-6.692-0.188
					l-1.036-0.471c0.094-0.283,0.188-1.979,0.282-2.639c1.226-7.352,4.524-26.202,9.52-42.791c1.319-0.283,1.791-0.283,2.356-0.283
					c1.131,0,3.676,0,7.069-0.283c0.471,1.696,1.885,7.729,3.016,12.724c1.037,4.147,1.886,8.671,2.451,10.557L236.837,113.636z
					 M230.898,90.827c-1.131-4.242-4.336-19.04-5.278-22.338c-5.467,0.472-6.503,0.095-7.729,0.283
					c-6.032,20.17-9.237,42.319-9.614,44.016c0.095,0.094,0.095,0.094,0.095,0.094c5.749-0.188,8.2,0.283,8.859,0
					c0.095,0,0.095,0,0.095,0c1.319-1.885,0.942-6.975,2.545-8.483c1.885,0.094,1.696-0.094,3.864,0.188
					c1.226,2.545,2.262,5.278,3.393,8.106c2.64,0.471,5.844,0.66,8.389,0.188L230.898,90.827z M219.683,94.88
					c1.791-12.63,3.11-7.163,4.712,0.188C222.887,95.068,221.19,94.974,219.683,94.88z M223.075,93.938
					c-0.754-3.016-1.319-5.561-1.319-5.561c-0.565,0,0,0-0.754,5.467C221.662,93.938,222.321,93.938,223.075,93.938z"/>
				<path fill="#94D6DE" d="M187.071,120.919c-3.11,15.458-6.881,30.255-11.122,44.959c-1.036,0.188-2.922,0.283-4.618,0.283
					c-1.979,0-4.241-0.094-6.127-0.66c-3.77-13.855-6.314-28.936-7.634-44.016c1.602-1.32,4.335-1.508,6.598-1.508
					c2.168,0,4.146,0.377,4.618,1.037c0.188,0.848,0.283,2.073,0.472,3.205c0.282,2.733,0.659,6.409,2.45,13.95
					c0.565-2.262,1.131-4.807,1.508-7.164c0.66-3.205,1.509-6.975,2.733-11.028c2.922,0.66,4.053,0.472,5.467,0.472
					c1.696,0,3.394-0.095,4.618,0.188L187.071,120.919z M176.703,121.296c-0.094,0-0.188,0-0.188,0.094
					c-1.79,6.975-2.922,14.704-4.807,21.301c-3.394-13.573-3.394-18.097-4.053-21.207v-0.094v-0.094
					c-0.283-0.283-7.352-0.66-8.954,0.66v0.094c1.131,14.327,3.676,29.03,7.352,42.603c2.545,0.566,7.54,0.471,9.049,0.283h0.094
					c4.053-14.703,7.635-28.182,10.557-43.074l-0.095-0.094C183.019,121.202,179.437,121.956,176.703,121.296z"/>
				<path fill="#94D6DE" d="M213.65,165.689c-1.886,0.472-3.394,0.66-4.713,0.66c-1.886,0-3.959-0.283-5.75-0.66
					c-1.131-2.733-2.168-5.561-3.299-8.105c-1.131-0.188-1.225-0.094-1.696-0.094h-1.037c-0.377,0.848-0.659,2.356-0.848,3.77
					c-0.188,1.508-0.472,2.922-1.791,4.524c-0.377,0.188-1.979,0.283-2.733,0.283c-1.508-0.094-3.676-0.188-6.692-0.188
					l-1.036-0.471c0.094-0.283,0.188-1.979,0.282-2.64c1.226-7.352,4.524-26.202,9.52-42.791c1.319-0.283,1.791-0.283,2.356-0.283
					c1.131,0,3.676,0,7.069-0.283c0.471,1.697,1.885,7.729,3.016,12.725c1.037,4.147,1.886,8.671,2.451,10.556L213.65,165.689z
					 M207.712,142.88c-1.131-4.242-4.336-19.039-5.278-22.338c-5.467,0.472-6.503,0.095-7.729,0.283
					c-6.032,20.17-9.237,42.32-9.614,44.016c0.095,0.094,0.095,0.094,0.095,0.094c5.749-0.188,8.2,0.283,8.859,0
					c0.095,0,0.095,0,0.095,0c1.319-1.885,0.942-6.975,2.545-8.482c1.885,0.094,1.696-0.095,3.864,0.188
					c1.226,2.545,2.262,5.278,3.393,8.105c2.64,0.472,5.844,0.66,8.389,0.188L207.712,142.88z M196.496,146.933
					c1.79-12.63,3.11-7.164,4.712,0.188C199.7,147.122,198.004,147.027,196.496,146.933z M199.889,145.99
					c-0.754-3.016-1.319-5.561-1.319-5.561c-0.565,0,0,0-0.754,5.467C198.476,145.99,199.135,145.99,199.889,145.99z"/>
				<path fill="#94D6DE" d="M247.674,162.862c0,3.487-0.565,3.393-2.922,3.393c-0.565-0.094-1.037,0-2.356,0
					c-1.697,0.094-4.901,0.188-9.52,0.188c-3.205,0-8.577-0.094-13.95-0.188v-2.168c0.377-8.389,0.472-14.327,0.472-19.887
					c0-3.865,0-7.541-0.095-11.688c-0.094-3.205-0.094-8.389-0.188-12.348c1.226-0.471,3.487-0.942,5.655-0.942
					c2.263,0,4.901,0.377,6.598,1.131c-0.094,2.451-0.094,5.75-0.094,8.2c0,3.487,0,7.164,0.094,10.651
					c0.095,3.77,0.095,7.729,0.095,11.405v3.393c1.603,0,4.241,0.188,6.881,0.283c3.487,0.188,7.068,0.377,9.425-0.094
					c0,0-0.188,3.77-0.094,5.089C247.674,160.882,247.674,162.013,247.674,162.862z M246.637,155.51
					c-1.979,0.377-14.609-0.66-16.306-0.283c0-0.094,0-0.094,0-0.094c0.188-10.839-0.283-23.186-0.095-34.025
					c-2.262-1.037-8.389-0.943-9.99-0.188c0.094,17.625,0.659,24.317-0.188,43.168c0,0.377,0,0.848,0,1.131
					c20.17,0.377,22.997-0.188,24.788,0c1.885,0,1.979,0.094,1.696-5.844C246.448,158.055,246.637,155.51,246.637,155.51z"/>
			</g>
			<g>
				<path fill="#F280A2" d="M160.037,25.328c-0.283,0.565-0.755,12.253-0.283,18.191c0.283,2.451,1.131,5.184,3.676,5.844
					c1.791,0.188,3.676-0.471,4.524-2.262c0.849-1.885,0.471-4.147,0.754-6.315c2.45,0.283,6.127-0.377,8.577,0.377
					c2.922,8.86-3.017,18.379-12.441,18.568c-6.032,0.754-13.761-1.225-14.421-8.388c-0.283-6.221-0.377-12.819-0.188-26.58
					c-0.188-1.414,0.188-2.922,0.66-4.241c0.754-2.168,1.979-4.147,3.487-5.562c0.942-0.659,2.073-1.131,3.299-1.508
					c11.688-3.676,23.752,6.881,19.698,18.756c-3.11,0.66-6.126,0.283-9.331-0.283c-0.471-3.299,0.472-8.766-4.43-8.482
					c-1.037,0.188-2.639,0.377-3.204,1.037C160.226,24.668,160.131,25.139,160.037,25.328z"/>
				<path fill="#F280A2" d="M210.366,58.882c-2.639,0.566-6.032,0.377-8.859-0.188c-1.132-2.922-2.263-5.844-3.488-8.483
					c-2.262-0.283-2.073-0.094-4.053-0.188c-1.696,1.603-1.319,6.881-2.639,8.86c0,0-0.095,0-0.188,0
					c-0.66,0.283-3.205-0.188-9.237,0c0,0,0,0-0.094-0.094c0.377-1.791,3.77-24.977,10.085-46.09
					c1.226-0.188,2.356,0.188,8.105-0.283c0.942,3.393,4.336,18.945,5.467,23.375L210.366,58.882z M193.777,40.031
					c1.509,0.094,3.299,0.188,4.901,0.188C196.982,32.491,195.663,26.835,193.777,40.031z"/>
				<path fill="#F280A2" d="M238.357,59.07h-0.095c-1.79-4.053-5.372-11.97-9.143-16.588l-0.094-0.188
					c-0.472,3.958,0.094,12.724,0.282,16.117c-2.922,1.131-10.65,0.565-11.499,0.754c0.66,0,0.189-41.754-0.471-46.184
					c4.901-0.66,11.027-1.508,17.437-0.848c10.368,0.565,17.154,11.876,11.594,21.113c-1.603,3.11-4.336,5.466-8.577,5.655h-0.188
					h-0.095v0.095c3.676,6.503,9.143,12.724,11.782,19.887C246.181,58.882,242.316,59.353,238.357,59.07z M227.33,30.323
					c0,0,0,0,0.094,0c2.073,0.188,4.524,0.377,6.692,0c3.393-0.66,3.581-6.032,1.131-7.917c-1.885-1.696-5.184-1.414-8.2-0.188
					C227.235,24.574,227.047,28.344,227.33,30.323z"/>
				<path fill="#94D6DE" d="M195.898,110.652c-0.66,1.508-7.069,0-9.708,0.471c-2.922-6.409-5.75-13.667-7.918-19.699
					c-0.471,6.598-0.659,12.536-0.377,19.416h-0.094c-2.64,0.942-7.258-0.565-10.368,0c-0.094,0-0.094-0.094-0.094-0.094
					c0.188-14.986-0.849-31.009,0.377-45.807c2.073-0.848,7.068-0.283,9.708,0.471v0.094c0.377,1.697,5.561,9.896,8.012,14.044
					c0.848-3.205-0.754-9.708,0.094-14.704c0,0,0-0.094,0-0.188c3.205-0.66,9.331-0.471,10.368-0.188l-0.095,21.113
					c0.188,8.012-0.094,16.211,0.188,24.129L195.898,110.652z"/>
				<path fill="#94D6DE" d="M231.337,110.935c-2.639,0.566-6.032,0.377-8.859-0.188c-1.132-2.922-2.263-5.844-3.488-8.483
					c-2.262-0.283-2.073-0.094-4.053-0.188c-1.696,1.603-1.319,6.881-2.639,8.86c0,0-0.095,0-0.188,0
					c-0.66,0.283-3.205-0.188-9.237,0c0,0,0,0-0.094-0.094c0.377-1.791,3.77-24.977,10.085-46.09
					c1.226-0.188,2.356,0.188,8.105-0.283c0.942,3.393,4.336,18.945,5.467,23.375L231.337,110.935z M214.748,92.084
					c1.509,0.094,3.299,0.188,4.901,0.188C217.953,84.543,216.634,78.888,214.748,92.084z"/>
				<path fill="#C08CBE" d="M181.385,117.84c-3.11,15.646-6.787,29.784-11.028,45.147c-0.094,0-0.188,0-0.188,0
					c-1.508,0.188-6.786,0.377-9.425-0.283c-3.865-14.232-6.504-29.596-7.729-44.676v-0.095c1.697-1.319,9.049-0.942,9.426-0.66
					v0.094v0.094c0.66,3.299,0.66,8.012,4.241,22.244c1.979-6.88,3.11-14.986,4.995-22.338c0-0.094,0.095-0.094,0.188-0.094
					c2.922,0.66,6.692-0.094,9.426,0.471L181.385,117.84z"/>
				<path fill="#C08CBE" d="M209.094,162.988c-2.639,0.565-6.032,0.377-8.859-0.188c-1.132-2.922-2.263-5.844-3.488-8.483
					c-2.262-0.282-2.073-0.094-4.053-0.188c-1.696,1.603-1.319,6.881-2.639,8.86c0,0-0.095,0-0.188,0
					c-0.66,0.282-3.205-0.188-9.237,0c0,0,0,0-0.094-0.095c0.377-1.791,3.77-24.977,10.085-46.09
					c1.226-0.188,2.356,0.188,8.105-0.283c0.942,3.393,4.336,18.945,5.467,23.375L209.094,162.988z M192.505,144.137
					c1.508,0.094,3.299,0.188,4.901,0.188C195.71,136.597,194.391,130.941,192.505,144.137z"/>
				<path fill="#C08CBE" d="M242.646,163.27c-1.885-0.188-4.807,0.472-26.014,0c0-0.282,0-0.754,0-1.131
					c0.942-19.793,0.377-26.768,0.188-45.242c1.696-0.848,8.105-0.942,10.557,0.188c-0.283,11.405,0.282,24.317,0.094,35.628
					c0,0,0,0,0,0.094c1.791-0.377,14.986,0.754,17.061,0.377c0,0-0.188,2.639-0.095,4.053
					C244.72,163.458,244.625,163.27,242.646,163.27z"/>
			</g>
		</g>
		<g>
			<g>
				<g>
					<path fill="#C08CBE" d="M152.356,119.178c-1.236,1.224-1.58,3.383-1.584,5.223c-0.756-1.209-1.525-2.408-2.32-3.589
						c1.824-1.467,2.861-3.704,3.27-5.972c0.268-1.484,0.543-3.621-0.328-4.966c-0.926-1.423-2.459,0.583-2.92,1.32
						c-1.531,2.447-1.363,5.099-1.258,7.825c-0.707-0.997-1.431-1.983-2.182-2.95c0.012-0.039,0.029-0.076,0.03-0.12
						c0.142-2.94-0.312-6.084-2.23-8.414c-1.091-1.319-2.903-2.478-4.579-1.599c-1.986,1.043-1.427,4.636-0.656,6.198
						c1.207,2.448,4.125,3.746,6.638,4.325c1.066,1.365,2.071,2.769,3.046,4.195c-1.598-1.028-3.189-2.075-5.037-2.603
						c-1.318-0.376-3.746,0.315-3.311,2.151c0.359,1.505,2.803,1.755,4.016,1.929c1.785,0.259,3.6,0.292,5.402,0.314
						c0.045,0,0.078-0.012,0.115-0.022c0.857,1.306,1.697,2.624,2.512,3.956c-1.539-0.834-3.326-1.462-5.033-1.617
						c-1.523-0.142-3.096,0.759-2.717,2.516c0.336,1.54,2.466,1.561,3.686,1.501c1.393-0.071,3.29-0.338,4.57-1.142
						c0.083,0.016,0.162-0.007,0.23-0.05c0.252,0.421,0.512,0.837,0.764,1.259c0.624,1.043,1.236,2.094,1.857,3.142
						c-0.709-0.533-1.416-1.049-2.277-1.33c-0.832-0.271-1.75-0.309-2.619-0.297c-1.197,0.017-3.303,0.299-3.516,1.794
						c-0.234,1.666,2.055,2.882,3.414,2.912c1.904,0.043,4.055-0.598,5.57-1.833c0.049-0.018,0.09-0.042,0.133-0.073
						c0.365,0.608,0.725,1.22,1.096,1.825c0.789,1.273,2.223,2.767,2.443,4.288c0.082,0.551,0.949,0.486,0.869-0.071
						c-0.184-1.244-1.067-2.366-1.734-3.391c-0.935-1.438-1.814-2.906-2.691-4.379c1.598-0.43,3.027-1.46,3.703-3.021
						c0.41-0.948,0.232-2.033-0.707-2.565c-0.871-0.495-1.998-0.136-2.697,0.481c-0.932,0.817-1.303,2.021-1.414,3.232
						c-0.686-1.156-1.375-2.307-2.076-3.451c1.792-0.607,2.855-1.937,3.451-3.725c0.398-1.182,0.768-2.792,0.121-3.952
						C154.661,117.1,152.985,118.554,152.356,119.178z M148.313,113.537c0.144-0.573,1.986-4.389,2.557-2.745
						c0.996,2.885-0.52,7.216-2.76,9.171C148.06,117.812,147.788,115.653,148.313,113.537z M148.032,127.779
						c-1.031,0.173-3.016,0.5-3.818-0.407c-0.453-0.51,0.008-1.424,0.539-1.647c0.694-0.292,1.605-0.058,2.299,0.103
						c1.184,0.266,2.387,0.731,3.486,1.312C149.745,127.485,148.81,127.648,148.032,127.779z M150.545,134.131
						c-0.808,0.138-1.653,0.122-2.411-0.21c-0.551-0.242-1.428-1.083-1.332-1.753c0.141-0.989,2.571-0.947,3.24-0.938
						c1.633,0.024,2.725,0.723,3.967,1.607C152.993,133.536,151.72,133.931,150.545,134.131z M155.69,127.181
						c0.43-0.498,1.18-0.863,1.832-0.606c0.621,0.243,0.634,0.921,0.421,1.463c-0.522,1.335-1.841,2.241-3.2,2.579
						C154.716,129.415,154.879,128.122,155.69,127.181z M138.979,112.633c-1.137-1.265-2.256-6.354,0.682-6.157
						c1.688,0.109,3.049,2.107,3.676,3.469c0.774,1.691,0.93,3.748,0.875,5.612C142.218,115.071,140.373,114.186,138.979,112.633z
						 M140.091,120.404c-0.68-0.471-0.036-1.273,0.516-1.532c0.846-0.395,2.062,0.202,2.822,0.541
						c1.299,0.579,2.475,1.375,3.666,2.143c-0.788-0.02-1.574-0.046-2.357-0.104C143.269,121.343,141.341,121.271,140.091,120.404z
						 M154.772,119.129c0.348,0.97-0.064,2.322-0.395,3.239c-0.5,1.393-1.349,2.373-2.705,2.884
						c-0.088-1.563,0.119-3.216,0.759-4.643C152.64,120.146,154.354,117.965,154.772,119.129z"/>
				</g>
			</g>
			<g>
				<g>
					<path fill="#F280A2" d="M168.607,10.591c-0.321,0.063-0.641,0.161-0.954,0.282c0.623-0.489,1.211-1.023,1.689-1.686
						c0.572-0.793,0.842-2.574-0.441-2.856c-1.094-0.239-2.336,1.071-3.018,1.737c-0.242,0.237-0.496,0.489-0.748,0.757
						c0.424-0.856,0.818-1.726,1.164-2.62c0.35-0.915,1.5-3.8-0.116-4.262c-1.136-0.323-1.891,1.03-2.354,2.159
						c0.05-1.404-0.268-4.54-2.415-4.052c-1.788,0.407-1.482,3.542-1.374,4.833c0.039,0.471,0.102,0.942,0.178,1.41
						c-0.056-0.118-0.105-0.237-0.162-0.354c-0.486-1.025-1.371-3.333-2.744-3.452c-0.506-0.047-0.834,0.542-0.947,0.946
						c-0.236,0.846,0.215,1.873,0.543,2.627c0.047,0.115,0.105,0.229,0.158,0.344c-0.627-0.594-1.364-1.059-2.119-0.879
						c-1.895,0.45,0.384,3.442,2.014,5.381c-0.569-0.378-1.166-0.72-1.723-1.045c-0.73-0.424-2.34-1.524-3.257-1.108
						c-1.112,0.507,0.53,2.141,0.95,2.477c0.48,0.389,1.014,0.727,1.574,1.033c-0.631-0.064-1.26-0.084-1.875-0.055
						c-0.479,0.024-1.395,0.32-0.832,0.931c0.727,0.794,2.015,1.167,3.023,1.423c2.383,0.607,4.973,0.667,7.408,0.464
						c0.062-0.004,0.105-0.031,0.137-0.069c1.245-0.191,2.486-0.586,3.674-0.979c1.15-0.383,2.976-0.894,3.684-1.983
						C170.28,11.135,169.497,10.415,168.607,10.591z"/>
				</g>
			</g>
			<g>
				<g>
					<path fill="#C08CBE" d="M249.946,153.239c-0.205-1.25-1.232-2-2.469-1.995c-0.959,0.005-1.855,0.418-2.658,1.013
						c0.492-0.978,0.84-2.018,0.916-3.219c0.096-1.498-0.006-3.513-1.557-4.255c-1.674-0.801-3.906,0.983-4.65,2.335
						c-0.967,1.753-0.519,3.992-0.184,5.998c-1.441-1.884-4.127-4.628-5.614-2.272c-0.694,1.102-0.021,2.719,0.474,3.741
						c1.21,2.502,3.431,4.127,5.276,6.109c0.114,0.122,0.247,0.133,0.362,0.084c0.031,0.008,0.059,0.02,0.094,0.02
						c2.881-0.053,5.85-1.302,8.014-3.192C249.155,156.551,250.222,154.907,249.946,153.239z"/>
				</g>
			</g>
			<g>
				<g>
					<path fill="#94D6DE" d="M227.485,85.962c0.475,4.985,3.697,9.198,3.971,14.217c0.006,0.126,0.064,0.217,0.139,0.288
						c-1.568,2.351-3.068,4.76-5.041,6.801c-0.389,0.402,0.208,1.035,0.598,0.632c2.016-2.085,3.558-4.535,5.156-6.939
						c1.551-1.104,3.379-1.857,5.273-2.067c0.084-0.01,0.146-0.041,0.195-0.08c3.155-0.662,6.156-1.94,8.482-4.233
						c0.251-0.246,0.11-0.773-0.285-0.75c-1.506,0.094-2.967,0.376-4.394,0.875c-0.276,0.096-0.854,0.388-1.464,0.684
						c2.074-2.164,3.227-5.397,2.932-8.239c-0.038-0.376-0.422-0.588-0.734-0.327c-1.182,0.973-2.168,2.112-3.085,3.312
						c0.491-1.442,0.796-2.945,0.829-4.544c0.01-0.444-0.564-0.593-0.805-0.241c-0.834,1.219-1.564,2.493-2.254,3.789
						c0.26-1.542,0.305-3.121,0.033-4.737c-0.064-0.382-0.607-0.431-0.791-0.125c-1.221,1.993-1.951,4.17-2.557,6.396
						c-0.133-2.552-0.643-5.047-1.703-7.452c-0.196-0.44-0.762-0.181-0.816,0.197c-0.266,1.829-0.24,3.657-0.156,5.487
						c-0.63-1.287-1.552-2.416-2.859-3.301C227.899,85.436,227.452,85.631,227.485,85.962z"/>
				</g>
			</g>
		</g>
	</g>
</g>
</svg>
