<?xml version="1.0" encoding="utf-8"?>
<!-- Generator: Adobe Illustrator 16.0.0, SVG Export Plug-In . SVG Version: 6.00 Build 0)  -->
<!DOCTYPE svg PUBLIC "-//W3C//DTD SVG 1.1//EN" "http://www.w3.org/Graphics/SVG/1.1/DTD/svg11.dtd">
<svg version="1.1" xmlns="http://www.w3.org/2000/svg" xmlns:xlink="http://www.w3.org/1999/xlink" x="0px" y="0px"
	 width="223.643px" height="184.372px" viewBox="0 0 223.643 184.372" enable-background="new 0 0 223.643 184.372"
	 xml:space="preserve">
<g id="grid" display="none">
</g>
<g id="Layer_1">
	<g>
		<circle fill="#EEE6D8" cx="111.822" cy="101.123" r="71.171"/>
		<g>
			<path fill="#F0D0A0" d="M181.402,131.585c-8.749,31.732-38.021,51.124-72.128,48.759c-20.789-1.442-38.852-11.737-50.757-26.947
				C80.14,136.907,145.976,119.682,181.402,131.585z"/>
			<path fill="#6DC8BA" d="M161.949,117.917c-0.102-0.188-0.301-0.312-0.578-0.257c-3.887,0.814-7.368,2.753-9.957,5.721
				c-1.2-6.276-7.074-11.317-13.645-10.661c-0.229,0.022-0.357,0.148-0.424,0.304c-0.233,0.088-0.433,0.296-0.414,0.612
				c0.404,6.848,6.861,11.252,13.265,11.831c0.137,0.015,0.247-0.025,0.341-0.082c0.014,0.085,0.043,0.159,0.082,0.228
				c2.144,7.438,3.92,14.967,5.436,22.558c1.103,5.525,2.544,11.409,2.749,17.064c0.026,0.75,1.175,0.549,1.147-0.19
				c-0.204-5.661-1.662-11.528-2.749-17.062c-1.481-7.555-3.272-15.052-5.402-22.453c4.744-0.025,8.401-2.634,10.213-7.094
				C162.097,118.227,162.049,118.052,161.949,117.917z"/>
			<path fill="#2C917E" d="M149.781,123.244c-0.328-0.208-0.643-0.438-0.962-0.656c0.017-0.032,0.041-0.055,0.055-0.09
				c0.291-0.759,0.335-1.607,0.213-2.404c-0.114-0.743-1.253-0.496-1.138,0.243c0.08,0.521,0.024,1.055-0.126,1.561
				c-0.556-0.408-1.1-0.828-1.636-1.259c0.001-0.11-0.021-0.219-0.072-0.316c0.46-1.111,0.763-2.294,0.717-3.506
				c-0.029-0.743-1.191-0.806-1.164-0.052c0.039,1.036-0.205,2.022-0.578,2.979c-0.578-0.491-1.15-0.99-1.711-1.503
				c0.206-1.055,0.21-2.104,0.164-3.18c-0.031-0.745-1.193-0.805-1.16-0.053c0.03,0.768,0.055,1.539-0.027,2.302
				c-0.894-0.842-1.776-1.701-2.644-2.573c-0.528-0.531-1.392,0.252-0.862,0.784c0.927,0.929,1.87,1.843,2.826,2.739
				c-0.453,0.252-0.961,0.345-1.479,0.267c-0.743-0.112-0.79,1.052-0.053,1.163c0.876,0.13,1.693-0.145,2.416-0.623
				c0.568,0.518,1.145,1.022,1.729,1.521c-0.364,0.142-0.737,0.252-1.132,0.332c-0.738,0.147-0.492,1.285,0.242,1.138
				c0.662-0.133,1.28-0.371,1.882-0.649c1.24,1.006,2.521,1.962,3.878,2.821C149.792,124.631,150.416,123.647,149.781,123.244z"/>
			<path fill="#2C917E" d="M159.821,119.017c-0.543,0.371-1.101,0.715-1.647,1.073c0.006-0.167,0.014-0.333-0.005-0.507
				c-0.085-0.748-1.222-0.496-1.14,0.243c0.029,0.254-0.023,0.513-0.084,0.761c-0.03,0.11-0.02,0.208,0.006,0.301
				c-1.591,1.01-3.193,2-4.811,2.967c-0.645,0.382-0.119,1.422,0.524,1.039c1.044-0.623,2.08-1.257,3.112-1.893
				c0.038,0.042,0.074,0.084,0.134,0.117c0.505,0.292,1.08,0.37,1.655,0.293c0.745-0.102,0.496-1.238-0.243-1.139
				c-0.119,0.016-0.246,0.01-0.37-0.006c1.142-0.717,2.279-1.449,3.395-2.21C160.958,119.638,160.438,118.597,159.821,119.017z"/>
			<path fill="#EEE6D8" d="M66.979,159.006c-1.716-1.03-3.421-2.069-4.862-3.472c-0.494-0.48-1.216,0.303-0.723,0.783
				c1.505,1.463,3.292,2.554,5.083,3.629C67.068,160.302,67.564,159.358,66.979,159.006z"/>
			<path fill="#EEE6D8" d="M68.754,156.166c-0.978-0.679-1.639-1.685-2.289-2.658c-0.38-0.57-1.28,0-0.896,0.574
				c0.762,1.143,1.543,2.231,2.685,3.024C68.817,157.499,69.311,156.552,68.754,156.166z"/>
			<path fill="#EEE6D8" d="M72.504,155.283c-0.75-1.518-1.391-3.12-2.574-4.365c-0.474-0.499-1.193,0.286-0.722,0.783
				c1.107,1.165,1.696,2.737,2.398,4.158C71.909,156.472,72.806,155.893,72.504,155.283z"/>
			<path fill="#EEE6D8" d="M76.114,152.567c-0.485-1.409-1.24-2.707-2.277-3.781c-0.479-0.496-1.199,0.29-0.723,0.782
				c0.908,0.941,1.561,2.09,1.984,3.323C75.322,153.539,76.338,153.218,76.114,152.567z"/>
			<path fill="#EEE6D8" d="M79.25,149.956c-0.662-1.025-1.111-2.169-1.775-3.196c-0.372-0.577-1.271-0.004-0.896,0.575
				c0.662,1.024,1.111,2.168,1.775,3.195C78.726,151.106,79.625,150.535,79.25,149.956z"/>
			<path fill="#EEE6D8" d="M82.447,148.18c-0.755-1.156-1.373-2.396-2.131-3.552c-0.375-0.573-1.275-0.001-0.896,0.575
				c0.756,1.156,1.374,2.395,2.13,3.552C81.925,149.329,82.825,148.756,82.447,148.18z"/>
			<path fill="#EEE6D8" d="M84.993,147.239c-0.427-1.202-1.131-2.264-1.834-3.32c-0.381-0.571-1.281,0-0.898,0.574
				c0.651,0.977,1.322,1.958,1.717,3.07C84.206,148.209,85.223,147.889,84.993,147.239z"/>
			<path fill="#EEE6D8" d="M71.951,161.493c-1.063-0.739-1.83-1.847-2.73-2.763c-0.483-0.491-1.205,0.295-0.724,0.782
				c0.977,0.993,1.801,2.119,2.952,2.921C72.014,162.826,72.507,161.879,71.951,161.493z"/>
			<path fill="#EEE6D8" d="M75.613,160.86c-1-1.018-1.841-2.177-2.842-3.196c-0.482-0.491-1.203,0.293-0.723,0.783
				c1.001,1.018,1.841,2.177,2.841,3.195C75.373,162.134,76.093,161.351,75.613,160.86z"/>
			<path fill="#EEE6D8" d="M79.309,159.315c-0.405-1.155-1.067-2.192-1.921-3.07c-0.479-0.494-1.199,0.291-0.723,0.782
				c0.723,0.744,1.285,1.634,1.63,2.611C78.522,160.284,79.539,159.963,79.309,159.315z"/>
			<path fill="#EEE6D8" d="M82.093,156.704c-0.51-0.993-1.159-1.915-1.777-2.842c-0.38-0.57-1.279,0-0.896,0.575
				c0.617,0.927,1.265,1.85,1.775,2.841C81.508,157.889,82.405,157.311,82.093,156.704z"/>
			<path fill="#EEE6D8" d="M86.059,155.409c-0.396-1.575-0.877-3.056-1.835-4.388c-0.399-0.553-1.301,0.016-0.899,0.575
				c0.908,1.26,1.345,2.647,1.719,4.135C85.209,156.398,86.225,156.073,86.059,155.409z"/>
			<path fill="#EEE6D8" d="M89.61,152.567c-0.29-0.929-0.307-1.954-0.711-2.842c-0.279-0.616-1.299-0.302-1.016,0.323
				c0.404,0.89,0.422,1.913,0.71,2.843C88.798,153.545,89.815,153.224,89.61,152.567z"/>
			<path fill="#EEE6D8" d="M90.97,146.403c-0.778-1.517-1.769-2.909-2.426-4.492c-0.263-0.627-1.28-0.312-1.016,0.325
				c0.694,1.668,1.722,3.14,2.545,4.742C90.387,147.589,91.283,147.012,90.97,146.403z"/>
			<path fill="#EEE6D8" d="M97.276,143.105c-1.052-1.093-1.726-2.46-2.396-3.803c-0.309-0.613-1.205-0.035-0.899,0.574
				c0.717,1.433,1.451,2.847,2.573,4.011C97.032,144.381,97.751,143.596,97.276,143.105z"/>
			<path fill="#EEE6D8" d="M102.336,142.498c-0.803-1.258-1.25-2.688-2.131-3.907c-0.4-0.552-1.303,0.017-0.898,0.575
				c0.883,1.218,1.328,2.648,2.131,3.907C101.807,143.651,102.706,143.078,102.336,142.498z"/>
			<path fill="#EEE6D8" d="M105.591,138.362c-0.156-0.668-1.171-0.341-1.016,0.323c0.28,1.201,0.352,2.432-0.012,3.624
				c-0.2,0.659,0.84,0.895,1.038,0.242C106.02,141.178,105.913,139.742,105.591,138.362z"/>
			<path fill="#EEE6D8" d="M98.489,147.951c-0.455-1.299-1.259-2.365-2.389-3.15c-0.564-0.392-1.058,0.554-0.501,0.94
				c0.89,0.619,1.519,1.518,1.874,2.533C97.699,148.92,98.716,148.601,98.489,147.951z"/>
			<path fill="#EEE6D8" d="M95.232,149.956c-0.544-1.108-0.97-2.255-1.36-3.426c-0.217-0.65-1.233-0.33-1.016,0.323
				c0.42,1.26,0.892,2.484,1.479,3.677C94.637,151.145,95.534,150.567,95.232,149.956z"/>
			<path fill="#EEE6D8" d="M92.391,149.956c-0.297-0.616-1.191-0.038-0.896,0.574c0.59,1.229,0.931,2.496,0.638,3.854
				c-0.145,0.672,0.895,0.915,1.039,0.243C93.528,152.97,93.114,151.452,92.391,149.956z"/>
			<path fill="#EEE6D8" d="M92.806,158.606c-0.387-1.162-0.812-2.289-1.479-3.323c-0.372-0.576-1.271-0.004-0.897,0.575
				c0.618,0.956,1.004,1.995,1.361,3.07C92.006,159.579,93.023,159.258,92.806,158.606z"/>
			<path fill="#EEE6D8" d="M87.42,157.769c-0.307-0.614-1.203-0.036-0.898,0.575c0.633,1.267,1.286,2.553,1.338,3.996
				c0.022,0.686,1.088,0.644,1.062-0.043C88.867,160.66,88.138,159.207,87.42,157.769z"/>
			<path fill="#EEE6D8" d="M83.425,160.151c-0.472-0.501-1.192,0.285-0.723,0.782c0.637,0.674,0.876,1.562,0.896,2.47
				c0.012,0.688,1.077,0.645,1.062-0.041C84.638,162.161,84.258,161.032,83.425,160.151z"/>
			<path fill="#EEE6D8" d="M81.381,165.937c-0.527-0.992-1.432-1.805-2.218-2.591c-0.486-0.487-1.208,0.298-0.723,0.782
				c0.726,0.727,1.556,1.466,2.044,2.384C80.807,167.119,81.704,166.543,81.381,165.937z"/>
			<path fill="#EEE6D8" d="M78.541,167.712c-0.79-1.136-1.903-1.91-3.039-2.669c-0.574-0.381-1.067,0.562-0.502,0.941
				c0.979,0.654,1.962,1.321,2.644,2.302C78.034,168.848,78.934,168.278,78.541,167.712z"/>
			<path fill="#EEE6D8" d="M74.902,167.964c-1.001-1.02-1.84-2.178-2.841-3.196c-0.482-0.492-1.203,0.293-0.722,0.782
				c0.999,1.018,1.839,2.179,2.84,3.196C74.661,169.237,75.381,168.453,74.902,167.964z"/>
			<path fill="#EEE6D8" d="M85.672,172.453c-1.534-0.414-2.956-1.356-3.936-2.609c-0.418-0.537-1.321,0.032-0.896,0.574
				c1.156,1.479,2.771,2.583,4.589,3.075C86.094,173.671,86.332,172.632,85.672,172.453z"/>
			<path fill="#EEE6D8" d="M87.577,170.371c-1.276-0.484-2.158-1.821-3.086-2.761c-0.483-0.491-1.204,0.293-0.723,0.781
				c0.995,1.011,1.936,2.4,3.307,2.921C87.709,171.553,88.217,170.614,87.577,170.371z"/>
			<path fill="#EEE6D8" d="M89.818,168.674c-0.622-0.623-1.27-1.242-1.688-2.027c-0.322-0.606-1.218-0.03-0.896,0.574
				c0.456,0.86,1.18,1.553,1.861,2.235C89.581,169.943,90.302,169.159,89.818,168.674z"/>
			<path fill="#EEE6D8" d="M93.102,167.358c-0.764-1.115-1.722-2.081-2.484-3.197c-0.389-0.564-1.289,0.006-0.899,0.575
				c0.765,1.116,1.722,2.08,2.486,3.197C92.59,168.497,93.491,167.926,93.102,167.358z"/>
			<path fill="#EEE6D8" d="M96.21,165.123c-0.772-0.813-1.267-1.919-1.628-2.968c-0.224-0.646-1.24-0.326-1.015,0.326
				c0.423,1.229,1.019,2.474,1.921,3.424C95.962,166.405,96.682,165.62,96.21,165.123z"/>
			<path fill="#EEE6D8" d="M100.559,161.676c-0.499-1.001-0.995-2.01-1.36-3.07c-0.223-0.648-1.241-0.33-1.016,0.322
				c0.396,1.146,0.938,2.239,1.479,3.323C99.969,162.864,100.865,162.286,100.559,161.676z"/>
			<path fill="#EEE6D8" d="M102.336,155.637c-0.371-0.578-1.269-0.006-0.898,0.575c0.548,0.857,0.957,1.902,0.982,2.93
				c0.017,0.688,1.082,0.644,1.064-0.042C103.454,157.889,102.983,156.65,102.336,155.637z"/>
			<path fill="#EEE6D8" d="M97.778,156.829c-0.369-1.105-0.753-2.209-1.567-3.07c-0.472-0.501-1.192,0.285-0.723,0.782
				c0.676,0.717,0.969,1.696,1.274,2.612C96.981,157.802,97.997,157.482,97.778,156.829z"/>
			<path fill="#EEE6D8" d="M101.981,149.601c-0.307-0.615-1.201-0.036-0.896,0.574c0.295,0.593,0.598,1.191,0.626,1.864
				c0.026,0.688,1.091,0.646,1.063-0.041C102.739,151.128,102.362,150.365,101.981,149.601z"/>
			<path fill="#EEE6D8" d="M106.952,150.666c-0.627-1.235-1.361-2.398-2.131-3.552c-0.379-0.569-1.28,0.002-0.896,0.575
				c0.768,1.151,1.504,2.314,2.131,3.551C106.365,151.853,107.261,151.274,106.952,150.666z"/>
			<path fill="#EEE6D8" d="M110.563,149.017c-0.448-1.294-1.085-2.533-1.834-3.677c-0.376-0.574-1.275-0.003-0.898,0.573
				c0.7,1.071,1.298,2.215,1.717,3.427C109.773,149.987,110.789,149.667,110.563,149.017z"/>
			<path fill="#EEE6D8" d="M112.694,145.463c-0.427-1.202-1.13-2.265-1.834-3.321c-0.381-0.571-1.28,0-0.898,0.574
				c0.651,0.977,1.323,1.957,1.718,3.07C111.908,146.433,112.924,146.114,112.694,145.463z"/>
			<path fill="#EEE6D8" d="M112.279,137.171c-0.297-0.618-1.192-0.039-0.896,0.573c0.611,1.267,0.956,2.588,0.981,3.996
				c0.011,0.688,1.076,0.645,1.064-0.042C113.4,140.093,112.975,138.61,112.279,137.171z"/>
			<path fill="#EEE6D8" d="M116.956,139.782c-0.771-1.859-1.934-3.42-3.343-4.845c-0.482-0.491-1.203,0.293-0.722,0.782
				c1.273,1.292,2.352,2.703,3.05,4.388C116.202,140.734,117.219,140.419,116.956,139.782z"/>
			<path fill="#EEE6D8" d="M119.086,138.006c-0.412-1.541-1.125-2.967-1.834-4.388c-0.307-0.614-1.202-0.035-0.898,0.575
				c0.67,1.341,1.328,2.682,1.717,4.135C118.249,138.993,119.265,138.668,119.086,138.006z"/>
			<path fill="#EEE6D8" d="M121.573,136.585c-0.303-1.265-0.418-2.551-1.123-3.676c-0.368-0.581-1.266-0.007-0.899,0.575
				c0.647,1.031,0.729,2.266,1.007,3.425C120.717,137.577,121.732,137.251,121.573,136.585z"/>
			<path fill="#EEE6D8" d="M124.414,136.94c-0.333-1.309-0.733-2.596-1.065-3.904c-0.171-0.667-1.185-0.342-1.017,0.322
				c0.332,1.309,0.734,2.598,1.067,3.906C123.569,137.929,124.584,137.605,124.414,136.94z"/>
			<path fill="#EEE6D8" d="M127.965,137.297c-0.399-1.229-0.665-2.473-0.686-3.768c-0.012-0.688-1.076-0.644-1.064,0.042
				c0.021,1.384,0.309,2.735,0.734,4.048C127.162,138.272,128.178,137.952,127.965,137.297z"/>
			<path fill="#EEE6D8" d="M130.453,131.823v3.196c0,0.688,1.064,0.644,1.064-0.042v-3.196
				C131.517,131.093,130.453,131.137,130.453,131.823z"/>
			<path fill="#EEE6D8" d="M109.794,138.944c-0.664-1.024-1.111-2.168-1.777-3.195c-0.372-0.576-1.271-0.003-0.896,0.574
				c0.664,1.027,1.11,2.169,1.774,3.197C109.269,140.096,110.167,139.524,109.794,138.944z"/>
			<path fill="#EEE6D8" d="M102.75,136.94c-0.166-0.666-1.182-0.341-1.016,0.324c0.161,0.648,0.315,1.319,0.332,1.989
				c0.014,0.688,1.078,0.644,1.062-0.042C103.112,138.45,102.933,137.677,102.75,136.94z"/>
			<path fill="#EEE6D8" d="M138.264,134.809c-0.434-1.646-1.281-3.08-2.632-4.135c-0.538-0.419-1.267,0.358-0.723,0.782
				c1.22,0.954,1.948,2.19,2.339,3.676C137.424,135.796,138.44,135.472,138.264,134.809z"/>
			<path fill="#EEE6D8" d="M143.592,133.745c-0.399-1.618-0.758-3.23-1.48-4.742c-0.296-0.619-1.19-0.04-0.896,0.573
				c0.677,1.418,0.986,2.974,1.361,4.491C142.743,134.734,143.756,134.409,143.592,133.745z"/>
			<path fill="#EEE6D8" d="M146.788,129.483c-0.216-0.652-1.232-0.332-1.015,0.322c0.332,1,0.66,1.993,0.687,3.055
				c0.015,0.689,1.08,0.644,1.062-0.042C147.496,131.663,147.149,130.569,146.788,129.483z"/>
			<path fill="#EEE6D8" d="M157.028,130.067c-0.373-0.577-1.271-0.004-0.896,0.575c0.581,0.9,0.959,1.848,0.982,2.929
				c0.013,0.688,1.076,0.645,1.062-0.042C158.151,132.267,157.707,131.121,157.028,130.067z"/>
			<path fill="#EEE6D8" d="M163.479,129.839c-0.19-0.661-1.206-0.338-1.016,0.321c0.316,1.092-0.085,2.216-0.671,3.139
				c-0.37,0.583,0.575,1.078,0.941,0.502C163.475,132.631,163.873,131.2,163.479,129.839z"/>
			<path fill="#EEE6D8" d="M166.763,131.168c-0.394,0.813-0.669,1.676-1.065,2.486c-0.3,0.618,0.64,1.121,0.94,0.501
				c0.395-0.812,0.673-1.672,1.065-2.484C168.003,131.052,167.063,130.55,166.763,131.168z"/>
			<path fill="#EEE6D8" d="M171.38,132.234c-0.684,1.059-1.101,2.203-1.126,3.468c-0.015,0.688,1.05,0.643,1.062-0.042
				c0.023-1.077,0.427-2.031,1.004-2.924C172.695,132.157,171.75,131.663,171.38,132.234z"/>
			<path fill="#EEE6D8" d="M177.063,132.589c-0.733,1.131-1.141,2.386-1.469,3.682c-0.169,0.668,0.869,0.906,1.038,0.243
				c0.309-1.215,0.687-2.365,1.371-3.422C178.378,132.512,177.434,132.019,177.063,132.589z"/>
			<path fill="#EEE6D8" d="M178.422,134.283c-0.027,0.667-0.355,1.273-0.649,1.86c-0.306,0.615,0.634,1.116,0.941,0.5
				c0.384-0.771,0.735-1.529,0.771-2.402C179.513,133.553,178.449,133.601,178.422,134.283z"/>
			<path fill="#EEE6D8" d="M175.91,138.715c-0.183-0.662-1.197-0.336-1.016,0.324c0.251,0.906-0.35,1.703-0.948,2.32
				c-0.479,0.493,0.303,1.214,0.782,0.721C175.613,141.168,176.267,140.012,175.91,138.715z"/>
			<path fill="#EEE6D8" d="M171.293,144.399c-0.314-1.357-0.331-2.736-0.332-4.122c0-0.687-1.064-0.643-1.062,0.041
				c0,1.487,0.042,2.95,0.379,4.403C170.433,145.39,171.448,145.064,171.293,144.399z"/>
			<path fill="#EEE6D8" d="M169.517,149.37c-0.298-0.932-0.411-1.907-0.71-2.84c-0.21-0.654-1.225-0.333-1.016,0.323
				c0.299,0.934,0.414,1.909,0.711,2.841C168.71,150.348,169.727,150.026,169.517,149.37z"/>
			<path fill="#EEE6D8" d="M174.133,145.108c-0.209-0.652-1.226-0.331-1.015,0.324c0.239,0.744,0.333,1.361-0.239,1.965
				c-0.473,0.496,0.311,1.22,0.784,0.721C174.5,147.234,174.491,146.214,174.133,145.108z"/>
			<path fill="#EEE6D8" d="M164.19,145.108c-0.379-1.51-0.8-2.979-1.479-4.387c-0.297-0.616-1.192-0.038-0.896,0.575
				c0.635,1.317,1.007,2.723,1.36,4.136C163.342,146.099,164.356,145.773,164.19,145.108z"/>
			<path fill="#EEE6D8" d="M158.532,137.437c-0.012-0.688-1.076-0.644-1.062,0.042c0.024,1.43,0.328,2.834,0.354,4.262
				c0.012,0.688,1.078,0.645,1.065-0.042C158.861,140.269,158.559,138.866,158.532,137.437z"/>
			<path fill="#EEE6D8" d="M164.842,140.012c-0.684-1.057-1.055-2.215-1.363-3.427c-0.17-0.665-1.184-0.34-1.016,0.324
				c0.332,1.3,0.748,2.546,1.481,3.677C164.317,141.161,165.215,140.589,164.842,140.012z"/>
			<path fill="#EEE6D8" d="M168.807,138.362c-0.154-0.668-1.17-0.341-1.016,0.323c0.325,1.406,0.296,2.88-0.316,4.205
				c-0.289,0.623,0.65,1.125,0.939,0.502C169.154,141.792,169.199,140.061,168.807,138.362z"/>
			<path fill="#EEE6D8" d="M164.754,151.983c-0.47-0.504-1.188,0.282-0.723,0.782c0.469,0.503,0.897,1.516,0.601,2.199
				c-0.271,0.627,0.667,1.13,0.94,0.501C166.077,154.304,165.58,152.869,164.754,151.983z"/>
			<path fill="#EEE6D8" d="M161.706,152.922c-0.203-0.657-1.219-0.334-1.016,0.322c0.309,1,0.328,2.02,0.328,3.056
				c0.002,0.688,1.066,0.643,1.066-0.041C162.083,155.127,162.042,154.012,161.706,152.922z"/>
			<path fill="#EEE6D8" d="M151.405,137.297c-0.276-0.619-1.296-0.305-1.016,0.322c0.402,0.899,0.271,1.999-0.011,2.913
				c-0.203,0.658,0.837,0.895,1.038,0.243C151.748,139.702,151.877,138.351,151.405,137.297z"/>
			<path fill="#EEE6D8" d="M147.498,141.912c-0.351-1.519-0.359-3.094-0.71-4.614c-0.153-0.67-1.168-0.345-1.015,0.322
				c0.351,1.521,0.358,3.095,0.71,4.617C146.636,142.905,147.651,142.579,147.498,141.912z"/>
			<path fill="#EEE6D8" d="M141.758,138.59c-0.376-0.573-1.276-0.002-0.899,0.575c0.638,0.975,1.292,2.091,1.339,3.285
				c0.024,0.687,1.089,0.646,1.062-0.042C143.207,141.026,142.498,139.724,141.758,138.59z"/>
			<path fill="#EEE6D8" d="M138.206,143.563c-0.626-1.236-1.363-2.398-2.131-3.551c-0.38-0.571-1.279,0-0.896,0.574
				c0.767,1.151,1.503,2.316,2.131,3.552C137.619,144.749,138.515,144.172,138.206,143.563z"/>
			<path fill="#EEE6D8" d="M131.457,145.693c-0.393-0.811-0.669-1.672-1.066-2.487c-0.299-0.615-1.194-0.035-0.896,0.575
				c0.394,0.811,0.671,1.675,1.065,2.487C130.859,146.885,131.755,146.306,131.457,145.693z"/>
			<path fill="#EEE6D8" d="M136.868,137.081c-0.027-0.687-1.091-0.644-1.062,0.042c0.027,0.728,0.326,1.407,0.355,2.131
				c0.027,0.687,1.091,0.646,1.062-0.042C137.195,138.484,136.897,137.805,136.868,137.081z"/>
			<path fill="#EEE6D8" d="M124.082,143.119c-0.105-0.668-1.17-0.635-1.063,0.042c0.314,2.006,0.354,4.012,0.356,6.038
				c0,0.688,1.064,0.643,1.063-0.042C124.438,147.131,124.398,145.125,124.082,143.119z"/>
			<path fill="#EEE6D8" d="M127.254,140.493c-0.157-0.669-1.171-0.341-1.016,0.322c0.355,1.518,0.42,3.087,0.711,4.617
				c0.129,0.673,1.143,0.344,1.016-0.324C127.675,143.577,127.611,142.012,127.254,140.493z"/>
			<path fill="#EEE6D8" d="M118.731,146.885c-0.43-1.766-0.768-3.583-1.834-5.098c-0.394-0.559-1.295,0.01-0.896,0.573
				c1.01,1.437,1.309,3.175,1.715,4.847C117.877,147.876,118.893,147.549,118.731,146.885z"/>
			<path fill="#EEE6D8" d="M120.887,141.384v4.262c0,0.689,1.064,0.643,1.064-0.041v-4.263
				C121.952,140.655,120.887,140.7,120.887,141.384z"/>
			<path fill="#EEE6D8" d="M115.388,148.43c-0.54-0.415-1.268,0.363-0.722,0.782c1.275,0.984,2.268,2.22,2.317,3.893
				c0.019,0.687,1.084,0.644,1.062-0.042C117.991,151.123,116.885,149.585,115.388,148.43z"/>
			<path fill="#EEE6D8" d="M112.694,155.762c-0.381-1.436-1.021-2.787-1.834-4.031c-0.375-0.574-1.275-0.004-0.898,0.574
				c0.766,1.172,1.357,2.428,1.718,3.782C111.856,156.751,112.871,156.426,112.694,155.762z"/>
			<path fill="#EEE6D8" d="M107.722,161.09c-0.708-1.86-0.982-3.776-0.699-5.754c0.095-0.676-0.941-0.922-1.038-0.243
				c-0.311,2.168-0.056,4.275,0.721,6.321C106.95,162.052,107.967,161.734,107.722,161.09z"/>
			<path fill="#EEE6D8" d="M113.613,165.477c-0.373-0.42-0.61-1.132-0.853-1.648c-0.278-0.597-0.543-1.204-0.834-1.798
				c-0.304-0.615-1.199-0.037-0.899,0.574c0.579,1.175,0.982,2.665,1.864,3.655C113.347,166.774,114.067,165.986,113.613,165.477z"
				/>
			<path fill="#EEE6D8" d="M112.279,158.835c-0.764-1.172-1.356-2.427-1.716-3.782c-0.175-0.665-1.191-0.34-1.016,0.322
				c0.382,1.438,1.023,2.788,1.835,4.033C111.757,159.983,112.657,159.412,112.279,158.835z"/>
			<path fill="#EEE6D8" d="M117.252,156.348c-0.895-1.385-1.511-2.922-2.486-4.261c-0.402-0.553-1.303,0.016-0.896,0.575
				c0.975,1.338,1.59,2.874,2.484,4.261C116.726,157.499,117.625,156.928,117.252,156.348z"/>
			<path fill="#EEE6D8" d="M122.224,157.059c-0.678-1.418-0.987-2.975-1.362-4.491c-0.165-0.667-1.18-0.341-1.016,0.324
				c0.4,1.617,0.758,3.231,1.481,4.741C121.623,158.251,122.518,157.671,122.224,157.059z"/>
			<path fill="#EEE6D8" d="M128.973,154.218c-0.671-1.09-0.627-2.405-0.629-3.64c0-0.689-1.064-0.644-1.063,0.041
				c0,1.44,0.017,2.908,0.793,4.173C128.433,155.376,129.331,154.805,128.973,154.218z"/>
			<path fill="#EEE6D8" d="M133.647,148.661c-0.17-0.666-1.185-0.342-1.016,0.323c0.318,1.25,0.666,2.467,0.687,3.766
				c0.012,0.688,1.075,0.645,1.065-0.041C134.36,151.315,133.988,150.001,133.647,148.661z"/>
			<path fill="#EEE6D8" d="M138.474,146.656c-0.466-0.507-1.186,0.281-0.725,0.782c0.95,1.034,0.896,2.579,0.896,3.893
				c0.001,0.687,1.064,0.642,1.064-0.043C139.707,149.638,139.645,147.933,138.474,146.656z"/>
			<path fill="#EEE6D8" d="M135.632,145.944c-1.089-1.128-1.827-2.543-2.754-3.802c-0.403-0.549-1.306,0.018-0.896,0.574
				c0.981,1.333,1.771,2.812,2.928,4.011C135.387,147.222,136.107,146.438,135.632,145.944z"/>
			<path fill="#EEE6D8" d="M143.237,150.437c-0.34-1.36-0.659-2.712-0.686-4.121c-0.014-0.688-1.078-0.645-1.064,0.041
				c0.027,1.501,0.373,2.953,0.734,4.403C142.387,151.426,143.402,151.101,143.237,150.437z"/>
			<path fill="#EEE6D8" d="M148.588,145.605c-0.015-0.688-1.078-0.645-1.064,0.041c0.027,1.311,0.334,2.596,0.356,3.907
				c0.01,0.688,1.074,0.644,1.063-0.042C148.922,148.199,148.616,146.915,148.588,145.605z"/>
			<path fill="#EEE6D8" d="M152.413,144.273c-0.298-0.617-1.194-0.039-0.899,0.575c0.612,1.266,0.957,2.587,0.981,3.995
				c0.014,0.688,1.078,0.644,1.066-0.041C153.532,147.195,153.106,145.714,152.413,144.273z"/>
			<path fill="#EEE6D8" d="M153.536,152.213c-0.164-0.669-1.18-0.342-1.016,0.322c0.31,1.258,0.706,2.694,0.344,3.979
				c-0.187,0.663,0.853,0.9,1.039,0.243C154.316,155.287,153.89,153.652,153.536,152.213z"/>
			<path fill="#EEE6D8" d="M150.694,151.147c-0.155-0.668-1.169-0.342-1.016,0.322c0.31,1.338,0.298,2.643-0.012,3.979
				c-0.154,0.671,0.885,0.911,1.04,0.245C151.057,154.167,151.047,152.669,150.694,151.147z"/>
			<path fill="#EEE6D8" d="M146.373,153.152c-0.36-0.584-1.259-0.012-0.896,0.575c0.594,0.963,0.611,2.082,0.285,3.144
				c-0.202,0.657,0.837,0.894,1.037,0.24C147.207,155.782,147.112,154.348,146.373,153.152z"/>
			<path fill="#EEE6D8" d="M141.816,154.698c-0.152-0.67-1.167-0.342-1.016,0.324c0.361,1.579,0.33,3.221,0.331,4.831
				c0,0.688,1.064,0.643,1.062-0.042C142.194,158.097,142.2,156.377,141.816,154.698z"/>
			<path fill="#EEE6D8" d="M137.909,155.762c-0.153-0.666-1.168-0.341-1.016,0.325c0.339,1.465,0.331,2.98,0.332,4.475
				c0,0.689,1.064,0.644,1.064-0.041C138.289,158.923,138.269,157.327,137.909,155.762z"/>
			<path fill="#EEE6D8" d="M133.67,156.97c-0.009-0.688-1.075-0.644-1.062,0.042c0.021,1.239,0.362,2.549,0.012,3.764
				c-0.189,0.662,0.85,0.9,1.039,0.243C134.038,159.701,133.694,158.31,133.67,156.97z"/>
			<path fill="#EEE6D8" d="M127.611,161.802c-0.413-1.542-1.125-2.966-1.835-4.388c-0.307-0.612-1.202-0.035-0.898,0.575
				c0.671,1.342,1.328,2.683,1.717,4.135C126.773,162.788,127.789,162.463,127.611,161.802z"/>
			<path fill="#EEE6D8" d="M123.645,162.742c-0.758-1.157-1.374-2.397-2.131-3.553c-0.376-0.573-1.275-0.002-0.898,0.575
				c0.757,1.155,1.374,2.396,2.131,3.551C123.123,163.889,124.022,163.318,123.645,162.742z"/>
			<path fill="#EEE6D8" d="M130.452,159.315c-0.161-0.67-1.174-0.342-1.016,0.322c0.294,1.24,0.282,2.387-0.012,3.625
				c-0.159,0.669,0.879,0.91,1.038,0.241C130.8,162.08,130.789,160.739,130.452,159.315z"/>
			<path fill="#EEE6D8" d="M119.086,163.932c-0.155-0.668-1.17-0.342-1.016,0.323c0.291,1.24,0.33,2.496,0.33,3.766
				c0.002,0.688,1.066,0.643,1.066-0.042C119.466,166.612,119.399,165.269,119.086,163.932z"/>
			<path fill="#EEE6D8" d="M116.6,164.999c-0.334-1.004-0.662-2.014-1.125-2.968c-0.299-0.617-1.193-0.038-0.896,0.574
				c0.419,0.867,0.703,1.805,1.006,2.715C115.801,165.972,116.817,165.652,116.6,164.999z"/>
			<path fill="#EEE6D8" d="M110.504,167.712c-0.685-1.351-1.51-2.573-2.574-3.655c-0.482-0.491-1.203,0.293-0.723,0.783
				c1,1.018,1.756,2.177,2.401,3.446C109.917,168.899,110.814,168.32,110.504,167.712z"/>
			<path fill="#EEE6D8" d="M104.821,169.844c-0.736-1.547-1.098-3.25-1.715-4.845c-0.247-0.638-1.265-0.32-1.016,0.322
				c0.652,1.686,1.055,3.46,1.834,5.097C104.218,171.037,105.114,170.458,104.821,169.844z"/>
			<path fill="#EEE6D8" d="M99.199,171.745c-0.439-1.363-0.708-2.803-1.479-4.032c-0.364-0.581-1.264-0.01-0.896,0.574
				c0.716,1.146,0.951,2.512,1.36,3.782C98.393,172.721,99.411,172.4,99.199,171.745z"/>
			<path fill="#EEE6D8" d="M93.813,170.199c-0.3-0.616-1.195-0.036-0.899,0.575c0.552,1.137,0.958,2.366,0.983,3.64
				c0.014,0.687,1.079,0.643,1.064-0.042C94.931,172.902,94.448,171.51,93.813,170.199z"/>
			<path fill="#EEE6D8" d="M92.904,175.698c-1.37-0.701-2.62-1.627-3.353-3.013c-0.321-0.606-1.218-0.03-0.898,0.575
				c0.812,1.533,2.23,2.601,3.749,3.379C93.014,176.952,93.515,176.012,92.904,175.698z"/>
			<path fill="#EEE6D8" d="M103.204,177.119c-1.449-0.717-3.031-1.354-4.062-2.658c-0.424-0.532-1.326,0.035-0.899,0.575
				c1.165,1.471,2.817,2.211,4.46,3.023C103.317,178.364,103.82,177.423,103.204,177.119z"/>
			<path fill="#EEE6D8" d="M106.865,175.776c-0.976-0.975-1.971-1.949-2.753-3.092c-0.386-0.565-1.286,0.005-0.896,0.575
				c0.832,1.217,1.887,2.261,2.928,3.299C106.628,177.047,107.349,176.262,106.865,175.776z"/>
			<path fill="#EEE6D8" d="M110.149,175.526c-0.659-1.02-0.964-2.072-0.983-3.286c-0.009-0.688-1.073-0.645-1.064,0.041
				c0.021,1.394,0.393,2.648,1.149,3.819C109.623,176.676,110.522,176.105,110.149,175.526z"/>
			<path fill="#EEE6D8" d="M113.401,177.032c-0.502-0.613-1.028-1.205-1.475-1.86c-0.389-0.565-1.288,0.004-0.899,0.573
				c0.36,0.528,0.772,1.017,1.181,1.507c0.188,0.224,0.374,0.449,0.555,0.677c0.058,0.073,0.319,0.457,0.312,0.391
				c0.089,0.676,1.154,0.641,1.064-0.041C114.075,177.789,113.704,177.401,113.401,177.032z"/>
			<path fill="#EEE6D8" d="M117.961,173.04c-0.709-1.064-1.419-2.129-2.131-3.196c-0.379-0.571-1.279,0-0.896,0.574
				c0.71,1.066,1.42,2.131,2.132,3.196C117.446,174.185,118.345,173.612,117.961,173.04z"/>
			<path fill="#EEE6D8" d="M114.922,173.922c-1.095-0.764-1.908-1.919-2.644-3.014c-0.382-0.567-1.281,0.002-0.896,0.575
				c0.847,1.257,1.783,2.503,3.04,3.379C114.985,175.256,115.478,174.31,114.922,173.922z"/>
			<path fill="#EEE6D8" d="M118.559,178.123c-0.765-0.024-1.2-0.518-1.223-1.265c-0.021-0.687-1.087-0.644-1.066,0.042
				c0.042,1.355,0.993,2.245,2.33,2.287C119.288,179.208,119.241,178.143,118.559,178.123z"/>
			<path fill="#EEE6D8" d="M122.284,169.26c-0.169-0.667-1.185-0.341-1.016,0.322c0.317,1.251,0.664,2.467,0.686,3.766
				c0.01,0.688,1.075,0.644,1.064-0.042C122.994,171.913,122.623,170.601,122.284,169.26z"/>
			<path fill="#EEE6D8" d="M129.385,171.391c-0.412-1.562-1.081-3.035-1.42-4.618c-0.144-0.671-1.158-0.344-1.016,0.323
				c0.339,1.582,1.007,3.056,1.42,4.617C128.546,172.379,129.561,172.053,129.385,171.391z"/>
			<path fill="#EEE6D8" d="M126.841,170.554c-0.714-1.122-1.062-2.427-1.777-3.551c-0.368-0.579-1.267-0.008-0.897,0.573
				c0.714,1.122,1.062,2.428,1.776,3.552C126.311,171.707,127.211,171.136,126.841,170.554z"/>
			<path fill="#EEE6D8" d="M126.398,177.198c-0.794-0.816-1.413-1.791-2.043-2.737c-0.38-0.569-1.279,0.001-0.898,0.575
				c0.681,1.021,1.358,2.062,2.219,2.945C126.157,178.473,126.877,177.689,126.398,177.198z"/>
			<path fill="#EEE6D8" d="M132.791,169.739c-0.722-0.742-1.284-1.632-1.629-2.609c-0.228-0.646-1.245-0.327-1.016,0.322
				c0.407,1.156,1.069,2.193,1.923,3.07C132.548,171.015,133.27,170.23,132.791,169.739z"/>
			<path fill="#EEE6D8" d="M137.909,167.839c-0.354-1.067-0.709-2.133-1.064-3.197c-0.219-0.652-1.233-0.33-1.016,0.323
				c0.355,1.064,0.71,2.131,1.064,3.195C137.11,168.813,138.125,168.492,137.909,167.839z"/>
			<path fill="#EEE6D8" d="M132.522,174.46c-0.085-0.13-0.199-0.195-0.317-0.22c-0.06-0.067-0.119-0.136-0.177-0.202
				c-0.216-0.252-0.426-0.511-0.657-0.747c-0.482-0.492-1.202,0.292-0.723,0.782c0.275,0.283,0.525,0.595,0.783,0.895
				c0.239,0.278,0.461,0.624,0.858,0.647c0.308,0.019,0.501-0.287,0.512-0.553C132.81,174.846,132.635,174.631,132.522,174.46z"/>
			<path fill="#EEE6D8" d="M138.561,172.331c-0.301-0.616-1.195-0.038-0.898,0.574c0.095,0.193,0.174,0.394,0.244,0.597
				c0.007,0.021,0.012,0.043,0.02,0.063c-0.374,0.166-0.535,0.74-0.064,0.943c0.494,0.212,1.021,0.141,1.175-0.447
				C139.18,173.505,138.793,172.809,138.561,172.331z"/>
			<path fill="#EEE6D8" d="M132.963,166.247v2.13c0,0.688,1.064,0.643,1.064-0.042v-2.131
				C134.028,165.517,132.963,165.561,132.963,166.247z"/>
			<path fill="#EEE6D8" d="M143.534,165.937c-0.715-1.122-1.062-2.427-1.775-3.552c-0.369-0.578-1.27-0.006-0.899,0.574
				c0.716,1.123,1.062,2.429,1.777,3.553C143.004,167.09,143.903,166.519,143.534,165.937z"/>
			<path fill="#EEE6D8" d="M149.985,160.736c-0.201-0.657-1.218-0.335-1.016,0.323c0.338,1.104,0.33,2.269,0.33,3.41
				c0.001,0.688,1.065,0.643,1.065-0.042C150.363,163.189,150.351,161.93,149.985,160.736z"/>
			<path fill="#EEE6D8" d="M155.311,160.024c-0.203-0.655-1.217-0.332-1.014,0.324c0.31,1,0.329,2.019,0.329,3.055
				c0,0.688,1.065,0.644,1.065-0.041C155.691,162.229,155.65,161.115,155.311,160.024z"/>
			<path fill="#EEE6D8" d="M148.208,168.193c-0.413-1.26-0.761-2.546-1.479-3.677c-0.367-0.58-1.266-0.007-0.897,0.574
				c0.667,1.051,0.977,2.255,1.361,3.426C147.407,169.168,148.422,168.848,148.208,168.193z"/>
			<path fill="#EEE6D8" d="M143.69,171.437c-0.656-0.371-0.91-1.309-1.223-1.948c-0.3-0.616-1.195-0.038-0.896,0.574
				c0.416,0.856,0.741,1.819,1.617,2.314C143.789,172.716,144.287,171.773,143.69,171.437z"/>
			<path fill="#EEE6D8" d="M93.162,143.333c-0.389-0.931-0.957-1.751-1.479-2.611c-0.355-0.585-1.254-0.012-0.896,0.575
				c0.47,0.774,1.01,1.519,1.36,2.359C92.409,144.284,93.427,143.968,93.162,143.333z"/>
		</g>
		<g>
			<polygon fill="#98D2C6" points="108.034,80.92 106.978,85.129 114.353,86.296 118.311,94.421 119.105,94.379 123.248,87.963 
				124.645,81.975 124.353,79.463 115.27,83.087 			"/>
			<path fill="none" d="M115.333,83.517c-0.06,0.021-0.115,0.024-0.168,0.026c-0.01,0.031-0.027,0.059-0.039,0.091
				c-2.062-0.76-4.145-1.462-6.246-2.106c-0.307,1.06-0.562,2.135-0.847,3.197c2.219,0.361,4.437,0.719,6.653,1.083
				c-0.003,0.055,0.002,0.11,0.001,0.165c0.012,0.009,0.017,0.022,0.026,0.032c0.088,0.054,0.164,0.128,0.211,0.242
				c1.08,2.65,2.372,5.25,3.825,7.72c3.511-3.847,5.931-8.693,5.246-13.999C121.082,81.085,118.265,82.44,115.333,83.517z
				 M119.454,91.663c-0.615-0.189-0.347-1.152,0.271-0.962C120.339,90.888,120.073,91.853,119.454,91.663z M121.701,88.61
				c-0.027,0.023-0.057,0.042-0.085,0.061c-0.409,0.294-0.791-0.167-0.701-0.562c-0.084-0.53,0.776-0.719,0.983-0.155
				c0.012,0.032,0.025,0.064,0.035,0.098C122.014,88.272,121.871,88.49,121.701,88.61z M123.231,85.333
				c-0.026,0.02-0.056,0.042-0.083,0.062c-0.41,0.294-0.793-0.17-0.7-0.564c-0.08-0.53,0.778-0.721,0.981-0.154
				c0.013,0.033,0.024,0.066,0.036,0.097C123.546,84.996,123.401,85.211,123.231,85.333z M122.843,82.277
				c-0.019-0.035-0.037-0.068-0.055-0.104c-0.303-0.568,0.564-1.07,0.865-0.501c0.018,0.034,0.036,0.07,0.056,0.104
				C124.01,82.346,123.145,82.846,122.843,82.277z"/>
			<g>
				<path fill="#5A58A6" d="M116.428,51.568c5.451-6.16,8.933-14.2,9.704-22.383c0.713-7.557-1.585-15.329-7.643-20.187
					c-6.922-5.553-17.065-6.256-25.318-3.873C83.257,7.986,74.492,14.45,66.5,20.749c-7.815,6.163-15.058,13.021-22.849,19.21
					c-0.279-0.051-0.595,0.094-0.584,0.458c0,0.01,0.002,0.018,0.002,0.027c-0.188,0.198-0.135,0.446,0.035,0.607
					c0.424,7.813,4.297,14.842,8.856,21.036c5.274,7.168,11.747,13.746,18.78,19.19c0.045,0.089,0.135,0.152,0.256,0.187
					c0.139,0.081,0.27,0.077,0.379,0.018c0.439-0.045,0.878-0.281,1.263-0.46c0.634-0.292,1.253-0.616,1.871-0.943
					c10.87,1.996,21.774,3.75,32.682,5.518c0.093,0.042,0.195,0.061,0.296,0.048c2.155,0.348,4.311,0.698,6.465,1.051
					c0.033,0.029,0.078,0.047,0.119,0.069c1.133,2.744,2.457,5.438,3.977,7.988c0.146,0.244,0.392,0.277,0.597,0.196
					c0.177,0.131,0.417,0.157,0.611-0.051c3.979-4.266,6.603-9.664,5.654-15.607c-0.051-0.322-0.324-0.413-0.567-0.344
					c-0.1-0.069-0.23-0.091-0.385-0.031c-2.993,1.132-5.875,2.53-8.877,3.634c-0.007,0.003-0.009,0.006-0.015,0.011
					c-9.561-3.492-19.625-5.444-29.207-8.871C96.177,66.403,107.917,61.183,116.428,51.568z M69.948,73.76
					c-9.968-9.52-18.553-20.341-22.071-33.915c-0.162-0.624,0.807-0.877,0.969-0.251c3.474,13.407,11.967,24.058,21.811,33.46
					C71.123,73.501,70.414,74.205,69.948,73.76z M72.371,72.479c-9.969-9.52-18.555-20.342-22.07-33.916
					c-0.162-0.623,0.805-0.877,0.967-0.252c3.473,13.409,11.967,24.06,21.812,33.462C73.546,72.218,72.836,72.923,72.371,72.479z
					 M108.88,81.527c2.102,0.644,4.184,1.346,6.246,2.106c0.012-0.032,0.028-0.06,0.039-0.091c0.053-0.001,0.108-0.004,0.168-0.026
					c2.932-1.077,5.749-2.432,8.664-3.549c0.685,5.305-1.735,10.152-5.246,13.999c-1.453-2.47-2.745-5.069-3.825-7.72
					c-0.047-0.114-0.123-0.188-0.211-0.242c-0.01-0.01-0.015-0.023-0.026-0.032c0.001-0.055-0.004-0.11-0.001-0.165
					c-2.217-0.364-4.435-0.722-6.653-1.083C108.318,83.663,108.574,82.587,108.88,81.527z M105.744,54.641
					c0.01-0.093,0-0.19-0.061-0.291c-4.119-6.935-8.494-13.726-12.717-20.597c-3.783-6.156-7.754-12.218-12.525-17.657
					c6.471-3.845,13.26-7.744,20.863-8.586c7.538-0.834,15.385,2.713,19.105,9.416c3.236,5.835,2.412,13.125,0.404,19.2
					C118.221,43.968,112.885,50.544,105.744,54.641z M98.488,45.66c-2.385-3.148-4.744-6.318-7.027-9.541
					c-3.999-5.646-7.821-11.559-10.549-17.943c4.387,5.248,8.078,11.017,11.657,16.84c3.543,5.763,7.187,11.47,10.69,17.259
					C101.629,50.103,100.126,47.82,98.488,45.66z"/>
				<path fill="#5A58A6" d="M122.843,82.277c0.302,0.569,1.167,0.069,0.866-0.501c-0.02-0.034-0.038-0.069-0.056-0.104
					c-0.301-0.569-1.168-0.067-0.865,0.501C122.806,82.209,122.825,82.243,122.843,82.277z"/>
				<path fill="#5A58A6" d="M123.148,85.395c0.027-0.02,0.057-0.042,0.083-0.062c0.17-0.123,0.315-0.338,0.234-0.561
					c-0.012-0.031-0.023-0.064-0.036-0.097c-0.203-0.567-1.062-0.376-0.981,0.154C122.355,85.225,122.738,85.689,123.148,85.395z"/>
				<path fill="#5A58A6" d="M121.616,88.671c0.028-0.019,0.058-0.038,0.085-0.061c0.17-0.121,0.313-0.338,0.232-0.558
					c-0.01-0.033-0.023-0.066-0.035-0.098c-0.207-0.564-1.067-0.375-0.983,0.155C120.825,88.504,121.207,88.965,121.616,88.671z"/>
				<path fill="#5A58A6" d="M119.454,91.663c0.619,0.19,0.886-0.774,0.271-0.962C119.107,90.51,118.838,91.473,119.454,91.663z"/>
			</g>
			<path fill="#98D2C6" d="M48.845,39.594c-0.162-0.626-1.131-0.373-0.969,0.251C51.395,53.419,59.98,64.241,69.948,73.76
				c0.466,0.444,1.175-0.259,0.708-0.706C60.812,63.652,52.319,53.001,48.845,39.594z"/>
			<path fill="#98D2C6" d="M51.267,38.311c-0.162-0.625-1.129-0.371-0.967,0.252c3.516,13.574,12.102,24.396,22.07,33.916
				c0.466,0.444,1.176-0.261,0.708-0.706C63.234,62.371,54.74,51.72,51.267,38.311z"/>
			<path fill="#61A0C5" d="M122.106,93.756c-0.47-0.44-1.15,0.292-0.68,0.734c1.72,1.615,3.071,3.829,3.694,6.107
				c0.17,0.624,1.128,0.34,0.959-0.281C125.41,97.865,123.956,95.495,122.106,93.756z"/>
			<path fill="#61A0C5" d="M124.667,89.682c-0.557-0.325-1.025,0.559-0.468,0.883c5.555,3.233,7.944,9.524,9.754,15.366
				c0.191,0.616,1.151,0.334,0.961-0.281C133.018,99.533,130.469,93.059,124.667,89.682z"/>
			<path fill="#61A0C5" d="M137.025,96.027c-2.249-4.33-5.813-7.858-10.645-9.055c-0.627-0.157-0.855,0.816-0.229,0.971
				c4.586,1.139,7.895,4.513,10.023,8.61C136.472,97.127,137.321,96.596,137.025,96.027z"/>
			<path fill="#61A0C5" d="M127.113,83.458c2.608,0.223,5.082,1.161,7.253,2.607c0.536,0.357,1.001-0.528,0.469-0.883
				c-2.323-1.55-4.964-2.488-7.747-2.725C126.444,82.402,126.478,83.402,127.113,83.458z"/>
			<path fill="#61A0C5" d="M104.89,54.745c-3.504-5.789-8.778-13.965-12.321-19.728c-3.579-5.823-8.042-12.898-12.429-18.146
				c1.709,5.917,5.25,13.08,9.25,18.937C93.937,42.464,102.682,53.287,104.89,54.745z"/>
		</g>
	</g>
</g>
</svg>
