<?xml version="1.0" encoding="utf-8"?>
<!-- Generator: Adobe Illustrator 16.0.0, SVG Export Plug-In . SVG Version: 6.00 Build 0)  -->
<!DOCTYPE svg PUBLIC "-//W3C//DTD SVG 1.1//EN" "http://www.w3.org/Graphics/SVG/1.1/DTD/svg11.dtd">
<svg version="1.1" xmlns="http://www.w3.org/2000/svg" xmlns:xlink="http://www.w3.org/1999/xlink" x="0px" y="0px" width="393px"
	 height="170px" viewBox="0 0 393 170" enable-background="new 0 0 393 170" xml:space="preserve">
<g id="grid">
</g>
<g id="Layer_1">
	<g>
		<g>
			<path fill="#F49D2A" d="M99.546,60.434v5.157c-0.051,1.532-0.357,2.91-0.919,4.084c-0.459,1.021-1.174,1.991-2.195,2.757
				c-1.021,0.817-2.399,1.276-4.237,1.276s-3.268-0.459-4.289-1.276c-1.021-0.766-1.685-1.736-2.145-2.757
				c-0.562-1.174-0.867-2.553-0.919-4.084V43.483c0.052-1.481,0.357-2.859,0.919-4.034c0.46-1.021,1.124-2.042,2.145-2.808
				c1.021-0.766,2.451-1.276,4.289-1.276s3.216,0.511,4.237,1.276s1.736,1.787,2.195,2.808c0.562,1.174,0.868,2.553,0.919,4.034
				v5.156H94.39v-5.156c0-1.021-0.256-1.736-0.817-2.349c-0.255-0.255-0.715-0.409-1.276-0.409c-0.97,0-1.43,0.715-1.685,1.378
				c-0.153,0.409-0.204,0.868-0.255,1.379V65.59c0.051,1.072,0.357,1.787,0.867,2.349c0.256,0.255,0.613,0.408,1.072,0.408
				c1.175,0,1.634-0.612,1.89-1.378c0.153-0.357,0.204-0.817,0.204-1.378v-5.157H99.546z"/>
			<path fill="#F49D2A" d="M118.742,65.59c-0.051,1.532-0.357,2.91-0.919,4.084c-0.459,1.021-1.174,1.991-2.195,2.757
				c-1.021,0.817-2.399,1.276-4.237,1.276s-3.268-0.459-4.289-1.276c-1.021-0.766-1.685-1.736-2.145-2.757
				c-0.562-1.174-0.867-2.553-0.919-4.084V43.483c0.052-1.481,0.357-2.859,0.919-4.034c0.46-1.021,1.124-2.042,2.145-2.808
				c1.021-0.766,2.451-1.276,4.289-1.276s3.217,0.511,4.237,1.276c1.021,0.766,1.736,1.787,2.195,2.808
				c0.562,1.174,0.868,2.553,0.919,4.034V65.59z M113.229,43.483c0-1.021-0.204-1.736-0.715-2.349
				c-0.255-0.255-0.664-0.409-1.123-0.409c-0.971,0-1.43,0.715-1.634,1.378c-0.153,0.409-0.204,0.868-0.204,1.379V65.59
				c0,1.072,0.255,1.787,0.766,2.349c0.255,0.255,0.612,0.408,1.072,0.408c0.97,0,1.43-0.612,1.634-1.378
				c0.153-0.357,0.204-0.817,0.204-1.378V43.483z"/>
			<path fill="#F49D2A" d="M129.821,53.746l-0.459-1.736h-0.307V73.3h-5.055V35.773h4.901l5.361,19.555l0.459,1.736h0.307V35.773
				h5.055V73.3h-4.901L129.821,53.746z"/>
			<path fill="#F49D2A" d="M155.706,35.773h5.361L155.349,73.3h-5.514l-5.718-37.526h5.36l2.757,20.627l0.204,1.583h0.307
				l0.204-1.583L155.706,35.773z"/>
			<path fill="#F49D2A" d="M165.101,35.773h12.611v5.667h-7.097v9.854h5.105v6.024h-5.105v10.313h7.097V73.3h-12.611V35.773z"/>
			<path fill="#F49D2A" d="M188.126,53.746l-0.459-1.736h-0.307V73.3h-5.055V35.773h4.901l5.361,19.555l0.459,1.736h0.307V35.773
				h5.055V73.3h-4.901L188.126,53.746z"/>
			<path fill="#F49D2A" d="M218.352,60.434v5.157c-0.051,1.532-0.357,2.91-0.919,4.084c-0.459,1.021-1.174,1.991-2.195,2.757
				c-1.021,0.817-2.399,1.276-4.237,1.276s-3.268-0.459-4.289-1.276c-1.021-0.766-1.685-1.736-2.145-2.757
				c-0.562-1.174-0.867-2.553-0.919-4.084V43.483c0.052-1.481,0.357-2.859,0.919-4.034c0.46-1.021,1.124-2.042,2.145-2.808
				c1.021-0.766,2.451-1.276,4.289-1.276s3.217,0.511,4.237,1.276c1.021,0.766,1.736,1.787,2.195,2.808
				c0.562,1.174,0.868,2.553,0.919,4.034v5.156h-5.156v-5.156c0-1.021-0.256-1.736-0.817-2.349
				c-0.255-0.255-0.715-0.409-1.276-0.409c-0.97,0-1.43,0.715-1.685,1.378c-0.153,0.409-0.204,0.868-0.255,1.379V65.59
				c0.051,1.072,0.357,1.787,0.867,2.349c0.256,0.255,0.613,0.408,1.072,0.408c1.175,0,1.634-0.612,1.89-1.378
				c0.153-0.357,0.204-0.817,0.204-1.378v-5.157H218.352z"/>
			<path fill="#F49D2A" d="M223.201,35.773h5.515V73.3h-5.515V35.773z"/>
			<path fill="#F49D2A" d="M248.678,65.59c-0.051,1.532-0.357,2.91-0.919,4.084c-0.459,1.021-1.174,1.991-2.195,2.757
				c-1.021,0.817-2.399,1.276-4.237,1.276s-3.268-0.459-4.289-1.276c-1.021-0.766-1.685-1.736-2.145-2.757
				c-0.562-1.174-0.867-2.553-0.919-4.084V43.483c0.052-1.481,0.357-2.859,0.919-4.034c0.46-1.021,1.124-2.042,2.145-2.808
				c1.021-0.766,2.451-1.276,4.289-1.276s3.217,0.511,4.237,1.276c1.021,0.766,1.736,1.787,2.195,2.808
				c0.562,1.174,0.868,2.553,0.919,4.034V65.59z M243.164,43.483c0-1.021-0.204-1.736-0.715-2.349
				c-0.255-0.255-0.664-0.409-1.123-0.409c-0.971,0-1.43,0.715-1.634,1.378c-0.153,0.409-0.204,0.868-0.204,1.379V65.59
				c0,1.072,0.255,1.787,0.766,2.349c0.255,0.255,0.612,0.408,1.072,0.408c0.97,0,1.43-0.612,1.634-1.378
				c0.153-0.357,0.204-0.817,0.204-1.378V43.483z"/>
			<path fill="#F49D2A" d="M259.756,53.746l-0.459-1.736h-0.307V73.3h-5.055V35.773h4.901l5.361,19.555l0.459,1.736h0.307V35.773
				h5.055V73.3h-4.901L259.756,53.746z"/>
			<path fill="#F49D2A" d="M275.635,35.773h12.611v5.667h-7.097v9.854h5.105v6.024h-5.105v10.313h7.097V73.3h-12.611V35.773z"/>
			<path fill="#F49D2A" d="M301.979,45.832c0-1.226-0.052-2.604-0.409-3.676c-0.357-1.021-0.919-1.736-1.787-1.736
				c-1.429,0.051-1.889,1.531-1.889,3.727c0,1.276,0.562,2.604,1.379,4.033c0.816,1.43,1.889,2.911,2.961,4.493
				c1.276,1.889,2.553,3.829,3.522,5.718c0.971,1.889,1.634,3.829,1.634,5.871c0,2.502-0.408,4.851-1.582,6.586
				c-1.175,1.736-3.063,2.859-6.076,2.859c-3.522,0-5.514-1.327-6.637-3.37c-1.124-2.042-1.379-4.748-1.379-7.556l5.412-0.511
				c0,1.583,0.051,3.166,0.459,4.34c0.357,1.226,0.971,2.042,2.145,2.042c1.634,0,2.247-1.736,2.247-4.136
				c0-1.225-0.613-2.655-1.43-4.135c-0.46-0.715-0.919-1.481-1.43-2.247c-1.072-1.532-2.247-3.268-3.472-5.157
				c-1.226-1.889-2.145-3.829-2.706-5.82c-0.307-0.97-0.46-1.991-0.46-3.012c0-2.042,0.46-4.238,1.634-5.922
				c1.175-1.634,2.962-2.809,5.565-2.859c3.318-0.051,5.259,1.327,6.331,3.318c1.072,2.042,1.378,4.544,1.378,6.638L301.979,45.832z
				"/>
			<path fill="#F49D2A" d="M129.082,106.068c0,0.919-0.246,1.771-0.735,2.553c-0.491,0.783-1.116,1.455-1.878,2.017
				c-0.761,0.562-1.589,1.004-2.485,1.328c-0.896,0.324-1.768,0.485-2.612,0.485c-0.102,0.204-0.152,0.485-0.152,0.842
				s0,0.638,0,0.843c0,0.136,0.009,0.34,0.025,0.612c0.017,0.273,0.059,0.545,0.126,0.817c0.066,0.273,0.158,0.511,0.275,0.715
				c0.117,0.205,0.26,0.307,0.427,0.307c0.536,0,0.997-0.153,1.382-0.459c0.385-0.307,0.662-0.697,0.829-1.174l0.051-0.051v0.153
				c0,0.238-0.077,0.451-0.23,0.638c-0.153,0.188-0.264,0.383-0.332,0.587c0.272-0.135,0.46-0.314,0.562-0.536
				c0.102-0.221,0.237-0.451,0.408-0.689c0.067,0.136,0.102,0.222,0.102,0.255c0,0.17-0.051,0.315-0.152,0.434
				c-0.103,0.12-0.171,0.264-0.205,0.434l0.357,0.051l-0.051,0.153l0.103,0.051v-0.051h0.152l-0.051-0.102h0.051l0.052-0.204h0.051
				l0.103-0.204v0.204c0.135-0.136,0.204-0.306,0.204-0.511l0.204-0.255c-0.068,0.749-0.392,1.345-0.97,1.787
				c-0.58,0.443-1.226,0.664-1.94,0.664c-1.566,0-2.783-0.477-3.65-1.43c-0.868-0.953-1.303-2.195-1.303-3.727
				c0-1.226,0.23-2.433,0.689-3.625c0.46-1.191,1.047-2.28,1.762-3.268c1.156-1.634,2.706-2.451,4.646-2.451
				c0.237,0,0.467,0.018,0.688,0.051c0.222,0.034,0.451,0.085,0.689,0.153l-1.021-1.889l0.408-0.102
				c1.021,0.34,1.846,0.911,2.477,1.71C128.767,103.984,129.082,104.945,129.082,106.068z M119.688,108.468
				c-0.034,0-0.051,0.018-0.051,0.051h0.051V108.468z M119.942,107.702l-0.153,0.255l0.103,0.051L119.942,107.702z M119.994,107.6
				l-0.052,0.051h0.052V107.6z M120.81,106.477c0-0.068,0.008-0.11,0.025-0.127s0.026-0.059,0.026-0.128l0.152-0.051
				c-0.068,0-0.119,0.018-0.152,0.051l-0.256,0.409l-0.102,0.153v0.051c-0.069,0.068-0.128,0.145-0.179,0.229
				c-0.052,0.085-0.111,0.179-0.179,0.281c0.17-0.068,0.288-0.238,0.357-0.511l0.102-0.204L120.81,106.477z M120.709,110.051
				c-0.035,0.035-0.052,0.12-0.052,0.255h0.052V110.051z M120.861,107.805v0.102v-0.051V107.805z M120.913,109.745
				c0.164-0.578,0.42-1.114,0.768-1.608c0.346-0.493,0.635-1.029,0.866-1.608c-0.364,0.375-0.728,0.868-1.09,1.48
				C121.094,108.622,120.913,109.201,120.913,109.745z M121.117,107.192c-0.034,0.068-0.052,0.136-0.052,0.204
				C121.1,107.362,121.117,107.294,121.117,107.192z M121.423,106.885c-0.034,0.035-0.06,0.077-0.076,0.128
				c-0.018,0.051-0.043,0.077-0.076,0.077h0.051C121.389,107.022,121.423,106.954,121.423,106.885z M126.376,105.149
				c-0.579,0.137-1.123,0.383-1.634,0.74c-0.511,0.357-0.962,0.775-1.354,1.251c-0.392,0.477-0.724,1.004-0.995,1.583
				c-0.273,0.579-0.46,1.141-0.562,1.685c0.441-0.033,0.936-0.237,1.48-0.612c0.544-0.375,1.038-0.808,1.48-1.302
				c0.442-0.493,0.817-1.021,1.123-1.583c0.307-0.562,0.46-1.08,0.46-1.557V105.149z M122.751,106.375
				c-0.034,0-0.086,0.034-0.153,0.102l0.204-0.102v-0.051L122.751,106.375z M126.069,107.958c-0.034,0.035-0.051,0.102-0.051,0.205
				l-0.153,0.102l0.153-0.051v-0.051L126.069,107.958z M126.325,107.651c0.067-0.136,0.102-0.221,0.102-0.255l-0.102,0.204V107.651z
				 M126.58,107.09c0.067,0,0.103-0.034,0.103-0.102h-0.103V107.09z M126.887,109.03l-0.103,0.102L126.887,109.03z M126.887,107.958
				h0.051l0.051-0.153L126.887,107.958z M126.938,109.03c0.067,0,0.119-0.017,0.153-0.051
				C127.022,108.979,126.971,108.997,126.938,109.03z M128.111,107.09c-0.068,0.102-0.152,0.238-0.255,0.408
				c-0.103,0.171-0.213,0.35-0.332,0.536c-0.119,0.188-0.222,0.366-0.307,0.536c-0.085,0.171-0.127,0.29-0.127,0.357
				c0.271-0.272,0.484-0.562,0.638-0.868C127.882,107.753,128.01,107.43,128.111,107.09z"/>
			<path fill="#F49D2A" d="M133.829,119.497c-0.749,0-1.438-0.29-2.068-0.868c-0.63-0.578-0.944-1.259-0.944-2.042
				c0-0.681,0.095-1.54,0.285-2.579c0.189-1.038,0.432-2.11,0.725-3.216c0.294-1.106,0.587-2.178,0.881-3.217
				c0.294-1.038,0.544-1.915,0.752-2.629c0.207-0.646,0.405-1.335,0.596-2.068c0.189-0.731,0.284-1.438,0.284-2.119
				c0-0.136-0.018-0.263-0.051-0.383c-0.034-0.119-0.068-0.247-0.102-0.383c0.067-0.17,0.235-0.255,0.505-0.255
				c0.066,0,0.184,0.043,0.351,0.127c0.168,0.085,0.285,0.145,0.352,0.179c0.604,0.306,1.098,0.766,1.482,1.378
				s0.578,1.276,0.578,1.991c0,0.749-0.111,1.668-0.332,2.757c-0.222,1.089-0.485,2.204-0.792,3.344
				c-0.306,1.141-0.638,2.255-0.995,3.344c-0.357,1.09-0.656,2.009-0.894,2.757l0.103,0.051c1.429-1.974,2.841-3.939,4.237-5.897
				c1.396-1.957,2.893-3.854,4.493-5.693c0.612-0.714,1.226-1.429,1.838-2.144s1.242-1.412,1.889-2.093
				c0.205-0.205,0.409-0.4,0.613-0.587c0.204-0.187,0.441-0.314,0.715-0.383c0.237,0.034,0.519,0.12,0.842,0.255
				c0.323,0.136,0.639,0.315,0.945,0.536c0.306,0.222,0.562,0.459,0.766,0.715c0.204,0.255,0.307,0.536,0.307,0.842
				c0,0.17-0.044,0.408-0.128,0.715c-0.086,0.306-0.188,0.638-0.307,0.996s-0.238,0.698-0.357,1.021
				c-0.119,0.324-0.213,0.57-0.28,0.74c-0.341,0.886-0.801,2.128-1.379,3.727c-0.579,1.601-1.141,3.268-1.685,5.004
				c-0.545,1.736-1.014,3.395-1.404,4.978c-0.392,1.583-0.587,2.799-0.587,3.65c0,0.579,0.204,0.987,0.612,1.226
				c0,0.34-0.171,0.51-0.511,0.51c-0.715,0-1.302-0.136-1.761-0.408c-0.46-0.273-0.817-0.638-1.072-1.098
				c-0.256-0.46-0.427-0.979-0.511-1.558c-0.086-0.579-0.128-1.174-0.128-1.787c0-0.817,0.085-1.685,0.255-2.604
				s0.384-1.846,0.639-2.783c0.255-0.936,0.536-1.864,0.843-2.783c0.306-0.919,0.578-1.769,0.816-2.553
				c0.238-0.783,0.511-1.532,0.817-2.247c0.306-0.715,0.595-1.446,0.867-2.195c-0.068,0.069-0.145,0.12-0.229,0.153
				c-0.085,0.034-0.162,0.085-0.229,0.153c-1.123,1.158-2.162,2.409-3.114,3.753c-0.953,1.345-1.855,2.698-2.706,4.059
				c-0.273,0.443-0.622,1.013-1.047,1.71c-0.426,0.698-0.877,1.413-1.353,2.144c-0.478,0.732-0.945,1.413-1.404,2.042
				c-0.46,0.629-0.86,1.098-1.2,1.404C134.407,119.395,134.135,119.497,133.829,119.497z M135.411,117.148l0.103-0.204
				C135.445,117.012,135.411,117.08,135.411,117.148z M137.097,112.961c-0.171,0.17-0.315,0.349-0.435,0.536
				s-0.229,0.366-0.332,0.536c0.17-0.17,0.307-0.349,0.409-0.536C136.841,113.311,136.96,113.132,137.097,112.961z M136.688,115.361
				l0.205-0.255c0.033-0.068,0.067-0.127,0.102-0.179c0.033-0.051,0.068-0.11,0.103-0.179c-0.069,0.069-0.146,0.162-0.23,0.281
				C136.781,115.149,136.722,115.259,136.688,115.361z M136.994,114.391l-0.051,0.051
				C136.977,114.442,136.994,114.425,136.994,114.391z M137.556,112.349c0.068-0.17,0.145-0.289,0.229-0.357
				c0.085-0.068,0.179-0.17,0.281-0.307c0.204-0.237,0.383-0.485,0.536-0.74s0.314-0.519,0.485-0.791
				c1.156-1.736,2.433-3.353,3.829-4.851c1.396-1.498,2.739-3.063,4.033-4.697l0.153-0.204l-0.103-0.102
				c-1.294,1.396-2.562,2.808-3.804,4.238c-1.242,1.429-2.408,2.928-3.497,4.493c-0.408,0.579-0.825,1.158-1.251,1.736
				c-0.426,0.579-0.791,1.192-1.098,1.838L137.556,112.349z M137.454,113.778v-0.051l-0.052,0.051H137.454z M137.556,114.033
				c0.17-0.204,0.323-0.408,0.46-0.612c0.136-0.205,0.271-0.425,0.408-0.664C138.016,113.234,137.726,113.659,137.556,114.033z
				 M138.321,112.195h-0.152c0,0.069-0.035,0.137-0.103,0.204h0.255l0.052-0.153L138.321,112.195z M139.088,111.634
				c-0.103,0.171-0.222,0.341-0.357,0.511c-0.137,0.17-0.239,0.357-0.307,0.562C138.73,112.332,138.951,111.975,139.088,111.634z
				 M138.628,111.787l-0.102-0.051v0.153c0,0.068,0.017,0.12,0.051,0.153c0.033-0.033,0.051-0.102,0.051-0.204h0.204
				C138.798,111.805,138.73,111.787,138.628,111.787z M138.526,113.063v0.102l0.051-0.051L138.526,113.063z M138.832,111.43h-0.102
				v0.102c0,0.068,0.017,0.12,0.051,0.153v0.103c0,0.034,0.017,0.051,0.051,0.051v-0.306c0.068,0,0.119-0.017,0.153-0.051h-0.102
				C138.849,111.48,138.832,111.464,138.832,111.43z M139.088,111.123l-0.103-0.051v0.153c0,0.103,0.017,0.171,0.051,0.205
				c0-0.17,0.068-0.255,0.205-0.255C139.206,111.141,139.155,111.123,139.088,111.123z M139.241,110.766h-0.052v0.102
				c0.034,0.069,0.052,0.171,0.052,0.307c0.033-0.068,0.051-0.17,0.051-0.307l0.102-0.051h-0.102
				C139.258,110.817,139.241,110.8,139.241,110.766z M139.445,111.225l0.051-0.204l-0.153,0.307L139.445,111.225z M141.845,108.009
				l0.204-0.307h0.103l0.255-0.255c0.033-0.068,0.136-0.212,0.307-0.434c0.17-0.221,0.288-0.365,0.357-0.434
				c0.033-0.068,0.118-0.204,0.255-0.408c0.136-0.205,0.298-0.409,0.485-0.613c0.187-0.204,0.365-0.4,0.536-0.587
				c0.17-0.187,0.288-0.297,0.357-0.332l-0.103-0.051v-0.204c-0.272,0.306-0.536,0.613-0.791,0.919
				c-0.256,0.306-0.554,0.579-0.894,0.817c0.067-0.136,0.255-0.391,0.562-0.766s0.638-0.774,0.995-1.2
				c0.357-0.425,0.706-0.833,1.047-1.225c0.34-0.391,0.578-0.672,0.715-0.843c-1.294,1.294-2.502,2.629-3.625,4.008
				c-1.123,1.378-2.195,2.817-3.217,4.314v0.153l0.052,0.204c0.237-0.374,0.459-0.689,0.663-0.944s0.442-0.553,0.715-0.894
				c-0.068,0.204-0.136,0.375-0.204,0.511l0.357-0.205h0.103c0.102-0.135,0.195-0.263,0.28-0.383
				c0.085-0.119,0.161-0.263,0.23-0.434l0.152-0.102c0.068-0.135,0.136-0.221,0.204-0.255L141.845,108.009z M140.262,109.949
				l-0.408,0.613c0.067-0.068,0.17-0.136,0.307-0.204v-0.051C140.228,110.238,140.262,110.12,140.262,109.949z M140.262,110.306
				l-0.051,0.051v0.102C140.244,110.426,140.262,110.375,140.262,110.306z M144.295,118.73h0.052v-0.153h-0.052V118.73z
				 M144.704,116.944l-0.357,1.276l0.153,0.051c0.067-0.238,0.109-0.459,0.127-0.664
				C144.644,117.403,144.67,117.182,144.704,116.944z M150.218,101.32l-0.153-0.051c-0.545,1.09-1.072,2.29-1.582,3.6
				c-0.511,1.311-0.996,2.655-1.455,4.034c-0.46,1.378-0.886,2.757-1.277,4.135c-0.392,1.379-0.74,2.647-1.046,3.804
				c0.067-0.067,0.136-0.17,0.204-0.306c0.441-1.157,0.816-2.331,1.123-3.523c0.307-1.191,0.664-2.365,1.072-3.523
				c0.477-1.395,0.995-2.757,1.558-4.084C149.223,104.077,149.741,102.716,150.218,101.32z M145.163,104.026
				c0.103-0.102,0.187-0.204,0.256-0.307c0.067-0.102,0.17-0.187,0.306-0.255c0.068-0.136,0.153-0.238,0.256-0.307
				c0.102-0.068,0.153-0.187,0.153-0.357l0.562-0.766l-1.991,2.195c0.067-0.068,0.136-0.119,0.204-0.153
				C144.976,104.044,145.062,104.026,145.163,104.026z M145.98,106.375l0.051-0.051h-0.051V106.375z M146.338,105.405
				c0,0.034-0.009,0.051-0.025,0.051c-0.018,0-0.026,0.018-0.026,0.051h0.052V105.405z M146.542,104.741l-0.153,0.357l0.153,0.051
				V104.741z M146.542,104.741l0.153-0.102c0.237-0.511,0.484-1.021,0.74-1.532c0.255-0.511,0.519-1.021,0.791-1.532v-0.255
				c-0.341,0.545-0.638,1.106-0.894,1.685C147.078,103.584,146.813,104.163,146.542,104.741z M148.84,102.239
				c-0.171,0.273-0.315,0.545-0.435,0.817c-0.119,0.273-0.229,0.562-0.332,0.868c0.136-0.272,0.272-0.553,0.409-0.843
				C148.617,102.793,148.737,102.512,148.84,102.239z M149.197,101.422l-0.052-0.051v0.204L149.197,101.422z"/>
			<path fill="#F49D2A" d="M174.826,90.751c0.578,0,1.089,0.12,1.532,0.357c0.441,0.239,0.808,0.562,1.098,0.97
				c0.288,0.408,0.51,0.86,0.663,1.353c0.153,0.494,0.23,0.996,0.23,1.506c0,0.443-0.044,0.834-0.128,1.174
				c-0.086,0.341-0.196,0.715-0.332,1.124c-0.068,0.17-0.111,0.349-0.128,0.536c-0.018,0.188-0.043,0.366-0.076,0.536
				c-0.307,1.089-0.732,2.213-1.276,3.37c-0.682,1.362-1.523,2.587-2.527,3.676c-1.005,1.089-2.034,2.178-3.089,3.268
				c-0.341,0.34-0.587,0.664-0.74,0.97c-0.153,0.307-0.265,0.698-0.332,1.174c-0.034,0.205-0.068,0.417-0.103,0.638
				c-0.034,0.222-0.085,0.434-0.153,0.638c0.442,0,0.902-0.084,1.379-0.255c0.477-0.17,0.936-0.357,1.379-0.562
				c0.441-0.204,0.824-0.391,1.148-0.562c0.323-0.17,0.553-0.255,0.689-0.255c0.307,0.069,0.553,0.128,0.74,0.179
				c0.187,0.051,0.365,0.102,0.536,0.153c0.17,0.051,0.289,0.077,0.357,0.077c-0.034,0.306-0.273,0.604-0.715,0.894
				c-0.442,0.29-0.944,0.545-1.506,0.766c-0.562,0.222-1.124,0.409-1.686,0.562c-0.562,0.153-0.979,0.264-1.251,0.332
				c0.034,0.204,0.103,0.392,0.205,0.562c0.51,1.09,0.884,2.332,1.123,3.727c0.237,1.396,0.357,2.688,0.357,3.88
				c0,1.293-0.12,2.672-0.357,4.136c-0.239,1.463-0.631,2.791-1.175,3.982c-0.579,1.293-1.515,1.94-2.808,1.94
				c-0.478,0-0.902-0.068-1.276-0.204c-0.613-0.17-1.064-0.494-1.354-0.97c-0.289-0.478-0.502-1.004-0.638-1.583
				c-0.204-0.886-0.35-1.796-0.435-2.731c-0.085-0.937-0.127-1.864-0.127-2.783c0-0.408,0.008-0.817,0.025-1.225
				c0.017-0.409,0.042-0.817,0.076-1.226c0.068-0.511,0.094-1.021,0.077-1.532c-0.018-0.511,0.008-1.021,0.076-1.532
				c0.17-1.974,0.451-4.059,0.843-6.254c0.391-2.195,0.894-4.391,1.506-6.586c0.612-2.195,1.327-4.322,2.145-6.382
				c0.816-2.059,1.77-3.923,2.859-5.591c0.34-0.544,0.782-1.055,1.327-1.532C173.532,90.99,174.145,90.751,174.826,90.751z
				 M165.177,121.641h-0.052c0,0.068,0.018,0.119,0.052,0.153V121.641z M165.33,118.424h-0.052v0.408h0.052V118.424z
				 M165.585,115.872l-0.051-0.051v0.204h0.051V115.872z M165.738,114.595h-0.051v0.255h0.051V114.595z M165.993,113.012v-0.153
				h-0.051v0.153H165.993z M166.096,124.5c0.033-0.171,0.051-0.341,0.051-0.511c0-0.17,0-0.34,0-0.51h-0.102
				c0,0.17,0.008,0.34,0.025,0.51C166.087,124.159,166.096,124.329,166.096,124.5z M166.096,112.042h0.051v-0.153h-0.051V112.042z
				 M166.249,120.262h-0.052v0.459h0.052V120.262z M166.402,118.68v-0.307h-0.052v0.307H166.402z M166.657,109.285v-0.255
				c-0.034,0.069-0.051,0.153-0.051,0.255H166.657z M166.811,108.724l-0.051-0.051c-0.069,0.137-0.103,0.239-0.103,0.307
				L166.811,108.724z M166.861,108.06c0,0.035,0.017,0.051,0.051,0.051v-0.051H166.861z M166.912,113.625h-0.051l0.051,0.051
				V113.625z M167.168,128.227c0.033-1.26,0.059-2.519,0.076-3.778c0.017-1.26,0.06-2.52,0.128-3.778
				c0.067-1.26,0.161-2.52,0.28-3.778s0.23-2.519,0.332-3.778c-0.171,0.511-0.323,1.302-0.459,2.375
				c-0.137,1.072-0.247,2.204-0.332,3.395c-0.086,1.191-0.153,2.34-0.204,3.446c-0.052,1.106-0.077,1.948-0.077,2.527
				c0,0.579,0.009,1.149,0.025,1.71C166.955,127.129,167.031,127.682,167.168,128.227z M167.015,107.651h0.051v-0.204h-0.051
				V107.651z M167.219,107.09h-0.051v-0.051C167.168,107.073,167.185,107.09,167.219,107.09z M167.27,106.477v0.051h0.052v-0.051
				H167.27z M167.627,105.456l-0.051-0.051l-0.153,0.153L167.627,105.456z M167.729,104.894v-0.153
				c-0.034,0.034-0.051,0.068-0.051,0.102L167.729,104.894z M167.883,104.435l-0.052-0.051l-0.102,0.204L167.883,104.435z
				 M168.087,103.567c0.067-0.068,0.102-0.136,0.102-0.204c-0.102,0-0.188,0.017-0.255,0.051L168.087,103.567z M167.984,107.958
				h-0.051v0.051h0.051V107.958z M168.188,111.889c0.068-0.238,0.136-0.527,0.205-0.868c-0.069,0-0.12-0.017-0.153-0.051
				l-0.204,0.868C168.104,111.838,168.154,111.855,168.188,111.889z M168.188,103.312l0.052-0.153h-0.052V103.312z M168.342,102.801
				h0.052v-0.204h-0.052V102.801z M168.342,106.273v0.051h0.052v-0.051H168.342z M168.495,126.797
				c0.34-0.919,0.587-2.008,0.74-3.268s0.229-2.383,0.229-3.37c0-0.681-0.034-1.353-0.102-2.017
				c-0.068-0.664-0.188-1.319-0.357-1.966c-0.137,0.613-0.238,1.311-0.307,2.093s-0.127,1.574-0.179,2.374
				c-0.051,0.8-0.085,1.591-0.102,2.375c-0.018,0.782-0.025,1.497-0.025,2.144c0,0.272,0,0.544,0,0.817
				S168.427,126.525,168.495,126.797z M168.598,102.137c0.033-0.034,0.051-0.102,0.051-0.204l-0.103,0.153v0.051H168.598z
				 M168.853,101.32l0.051-0.153h-0.051V101.32z M169.107,107.498c0.477-2.212,1.09-4.424,1.839-6.637
				c0.748-2.212,1.634-4.34,2.654-6.382c0.068-0.135,0.119-0.263,0.153-0.383c0.033-0.119,0.085-0.247,0.153-0.383
				c-0.612,0.953-1.166,2-1.659,3.14c-0.494,1.141-0.944,2.315-1.354,3.523c-0.408,1.208-0.774,2.417-1.098,3.625
				c-0.323,1.208-0.604,2.357-0.842,3.446L169.107,107.498z M169.006,100.708l0.051,0.051v-0.153L169.006,100.708z M169.107,100.555
				l0.307-0.664l-0.357,0.613v0.102L169.107,100.555z M169.159,103.312v0.051l0.051-0.051H169.159z M169.414,99.687
				c0-0.068,0.008-0.119,0.025-0.153c0.017-0.033,0.025-0.084,0.025-0.153l0.153-0.255v-0.051l-0.204,0.307V99.687z
				 M169.517,125.726h0.051v-0.153h-0.051V125.726z M169.618,99.074l0.153-0.102c-0.034-0.034-0.068-0.051-0.102-0.051
				L169.618,99.074z M169.67,124.449c0,0.102,0,0.212,0,0.332c0,0.119-0.018,0.23-0.052,0.332l0.153-0.153L169.67,124.449z
				 M169.67,124.449c0.135-0.103,0.204-0.222,0.204-0.357c0-0.069-0.009-0.146-0.025-0.23c-0.018-0.085-0.026-0.162-0.026-0.23
				L169.67,124.449z M169.874,123.53v-0.051l-0.052,0.051H169.874z M169.976,122.355c-0.034,0.17-0.06,0.357-0.076,0.562
				c-0.018,0.204-0.025,0.391-0.025,0.562c0.102-0.137,0.153-0.29,0.153-0.459c0-0.137-0.009-0.255-0.026-0.357
				S169.976,122.458,169.976,122.355z M170.078,100.657h-0.103l0.103,0.102V100.657z M170.078,100.759l-0.103,0.102L170.078,100.759
				z M170.078,120.007c-0.034,0.375-0.06,0.741-0.077,1.098s-0.025,0.723-0.025,1.098c0.136-0.239,0.204-0.511,0.204-0.817
				c0-0.205-0.018-0.409-0.051-0.613c-0.034-0.204-0.051-0.409-0.051-0.613V120.007z M170.129,97.849
				c0,0.068-0.018,0.12-0.051,0.153l0.255-0.408v-0.102L170.129,97.849z M171.304,95.398c-0.478,0.544-0.801,1.225-0.971,2.042
				c0.17-0.34,0.332-0.681,0.485-1.021C170.972,96.079,171.133,95.738,171.304,95.398z M170.385,99.789
				c0-0.034-0.018-0.051-0.052-0.051v0.051H170.385z M170.589,106.528c0.68-0.579,1.403-1.335,2.17-2.272
				c0.766-0.936,1.472-1.948,2.118-3.038c0.646-1.089,1.183-2.187,1.608-3.293c0.426-1.105,0.639-2.119,0.639-3.038
				c0-0.306-0.018-0.527-0.052-0.664c-0.068,0.136-0.102,0.222-0.102,0.255c-0.171,1.294-0.46,2.536-0.868,3.728
				s-0.937,2.349-1.583,3.472c-0.545,0.885-1.166,1.719-1.863,2.502C171.958,104.963,171.269,105.746,170.589,106.528z
				 M170.589,127.155h0.051v-0.051L170.589,127.155z M170.742,98.666v0.051l0.051-0.051H170.742z M170.946,126.083
				c0.067-0.375,0.136-0.732,0.204-1.072c0.067-0.341,0.118-0.698,0.153-1.072c0.067-0.579,0.109-1.149,0.127-1.71
				c0.017-0.562,0.043-1.132,0.077-1.71l-0.766,5.82L170.946,126.083z M170.742,126.645h0.051c0-0.137-0.018-0.239-0.051-0.307
				V126.645z M176.307,92.437c-0.375,0.238-0.698,0.536-0.97,0.894c-0.272,0.357-0.511,0.724-0.715,1.098
				c-0.886,1.736-1.617,3.557-2.195,5.463c-0.579,1.907-1.123,3.796-1.634,5.667h0.102c0.34-0.34,0.681-0.672,1.021-0.996
				c0.34-0.323,0.664-0.672,0.97-1.047c0.442-0.544,0.894-1.208,1.354-1.991c0.459-0.783,0.876-1.608,1.251-2.476
				c0.374-0.868,0.672-1.736,0.894-2.604c0.221-0.868,0.332-1.659,0.332-2.374c0-0.272-0.018-0.57-0.052-0.894
				C176.63,92.854,176.511,92.607,176.307,92.437z M171.252,97.542l-0.051,0.051v0.051l0.051-0.051V97.542z M171.456,95.041
				l0.153-0.307l-0.153,0.255V95.041z M171.661,94.581l0.102-0.103l0.103-0.357l0.051-0.051h-0.103c0,0.068-0.009,0.127-0.025,0.179
				c-0.018,0.051-0.025,0.111-0.025,0.179L171.661,94.581z M172.069,93.917c-0.068,0.102-0.12,0.153-0.153,0.153h0.153V93.917z
				 M172.171,93.713l-0.051,0.051c0.033-0.034,0.051-0.068,0.051-0.103V93.713z M172.171,93.56l0.052-0.102
				c0,0.034-0.009,0.051-0.025,0.051C172.18,93.509,172.171,93.526,172.171,93.56z M172.223,93.407l0.102-0.051h-0.102V93.407z
				 M172.427,93.304c-0.034,0.035-0.068,0.051-0.103,0.051h0.103c0-0.034,0.008-0.059,0.025-0.077
				c0.017-0.017,0.025-0.042,0.025-0.077c0,0.035-0.009,0.051-0.025,0.051C172.435,93.253,172.427,93.271,172.427,93.304z
				 M172.528,92.947l0.153-0.051l0.052-0.051h-0.052L172.528,92.947z M172.682,94.428v-0.051l-0.051,0.051H172.682z
				 M173.396,104.486h-0.051l-0.103,0.153L173.396,104.486z M173.55,104.333c0.067-0.033,0.136-0.119,0.204-0.255
				c-0.034,0.035-0.076,0.069-0.128,0.103C173.575,104.214,173.55,104.265,173.55,104.333z M173.703,104.69
				c0.237-0.136,0.391-0.289,0.459-0.459c-0.068,0.069-0.145,0.137-0.229,0.204C173.848,104.503,173.771,104.588,173.703,104.69z
				 M173.754,104.077c0.068-0.033,0.17-0.119,0.307-0.255h-0.051L173.754,104.077z M173.958,93.662l0.204-0.153l-0.152,0.051
				L173.958,93.662z M177.277,98.512c0.033,0,0.051,0.018,0.051,0.051l0.153-0.409h-0.052l0.256-0.766l0.204-0.153
				c-0.034-0.102-0.051-0.255-0.051-0.459c0.102-0.238,0.17-0.477,0.204-0.715c0.033-0.238,0.051-0.493,0.051-0.766
				c0-0.17,0-0.34,0-0.51c0-0.17-0.018-0.34-0.051-0.511h-0.511c-0.068,0.239-0.094,0.468-0.076,0.689
				c0.017,0.222-0.009,0.452-0.077,0.689c-0.408,2.179-1.09,4.153-2.042,5.923c-0.171,0.273-0.332,0.536-0.485,0.792
				c-0.153,0.255-0.314,0.519-0.484,0.791l-0.307,0.613c0.237-0.238,0.468-0.502,0.689-0.792c0.221-0.289,0.416-0.569,0.587-0.842
				v0.255l0.255-0.153v-0.255l-0.255,0.153l0.255-0.408v0.255h0.153v0.255l0.103-0.255h-0.103l0.103-0.153l0.051,0.102l0.103-0.102
				h-0.103l0.103-0.255v0.204l0.102-0.204l-0.102-0.051v-0.255l-0.256,0.103l0.766-1.685v0.051l0.409-1.021
				c0,0.137-0.009,0.255-0.026,0.357c-0.017,0.102-0.043,0.222-0.076,0.357l0.204-0.102l0.051,0.051
				c0.068-0.205,0.103-0.34,0.103-0.409l0.153-0.408L177.277,98.512z M174.214,93.355c0,0.034-0.009,0.06-0.025,0.077
				c-0.018,0.018-0.026,0.043-0.026,0.077h0.052V93.355z M174.214,93.355c0-0.102,0.017-0.17,0.051-0.204l0.051-0.051l-0.102,0.051
				V93.355z M174.315,104.128c0.034-0.068,0.052-0.153,0.052-0.255l-0.153,0.357l0.102-0.051h0.103
				c-0.034,0-0.051-0.008-0.051-0.026C174.367,104.137,174.35,104.128,174.315,104.128z M174.52,103.669l-0.152,0.153v0.051
				L174.52,103.669z M174.52,103.669c0.068,0,0.136-0.034,0.205-0.102l-0.052-0.051L174.52,103.669z M174.571,104.18h0.051v-0.051
				h-0.051V104.18z M174.725,103.567c0.033-0.068,0.051-0.153,0.051-0.255C174.741,103.38,174.725,103.465,174.725,103.567z
				 M174.775,103.209c0.067,0,0.136-0.034,0.204-0.102h-0.051L174.775,103.209z M174.877,103.567
				c0.034,0.034,0.085,0.051,0.153,0.051L174.877,103.567z M175.03,103.158v-0.204c-0.034,0.034-0.051,0.085-0.051,0.153
				L175.03,103.158z M175.03,102.852c0-0.034,0.025-0.059,0.077-0.077c0.051-0.017,0.093-0.042,0.127-0.077h-0.051l-0.153,0.102
				V102.852z M175.286,102.699c0-0.068,0.008-0.11,0.025-0.127c0.017-0.017,0.025-0.059,0.025-0.128
				c-0.068,0.137-0.103,0.222-0.103,0.255H175.286z M176.001,101.269h0.152v0.255l0.103-0.255h-0.103v-0.255L176.001,101.269z
				 M176.307,101.269h-0.051v0.051L176.307,101.269z M176.511,100.197l-0.102,0.204h0.102V100.197z M176.817,99.431
				c-0.068,0.069-0.119,0.111-0.153,0.128s-0.068,0.06-0.102,0.127v0.459c0.136-0.068,0.212-0.17,0.229-0.306
				C176.809,99.704,176.817,99.568,176.817,99.431z M176.562,100.401c0,0.102,0.017,0.17,0.051,0.204
				c0-0.102,0.017-0.17,0.051-0.204H176.562z M176.664,100.35c0.068-0.068,0.103-0.135,0.103-0.204h-0.103V100.35z M176.971,99.431
				v0.204l0.102-0.204H176.971z M177.736,97.134l-0.051,0.102v-0.102H177.736z"/>
			<path fill="#F49D2A" d="M193.31,112.859c0.067-0.17,0.152-0.314,0.255-0.434c0.103-0.119,0.204-0.263,0.307-0.434
				c-0.273,0.681-0.631,1.447-1.072,2.297c-0.443,0.852-0.928,1.694-1.455,2.527c-0.528,0.834-1.081,1.625-1.659,2.374
				c-0.579,0.749-1.142,1.344-1.686,1.787c-0.579-0.204-1.047-0.4-1.403-0.587c-0.357-0.188-0.536-0.638-0.536-1.353
				c0-1.396,0.127-2.765,0.383-4.11c0.255-1.344,0.519-2.697,0.791-4.059l-1.736,1.787c-0.272,0.273-0.57,0.596-0.893,0.97
				c-0.324,0.375-0.664,0.732-1.021,1.072c-0.357,0.34-0.74,0.63-1.148,0.868c-0.409,0.239-0.835,0.357-1.277,0.357
				c-0.306,0-0.646-0.068-1.021-0.204c-0.375-0.136-0.724-0.323-1.047-0.562c-0.324-0.238-0.587-0.511-0.791-0.817
				c-0.204-0.307-0.307-0.646-0.307-1.021c0-0.749,0.179-1.625,0.536-2.63c0.357-1.003,0.816-1.991,1.379-2.961
				c0.562-0.97,1.174-1.872,1.838-2.706c0.663-0.833,1.302-1.472,1.914-1.915c0.511-0.375,1.072-0.706,1.686-0.996
				c0.612-0.289,1.242-0.434,1.889-0.434s1.233,0.153,1.762,0.459c0.527,0.306,1.029,0.681,1.506,1.123
				c0.136,0.137,0.204,0.273,0.204,0.409c0,0.068-0.034,0.171-0.102,0.306l-1.481-0.408c-0.919,0.306-1.728,0.783-2.425,1.43
				c-0.698,0.647-1.327,1.37-1.889,2.17s-1.056,1.651-1.481,2.553c-0.426,0.902-0.825,1.761-1.199,2.578l0.102,0.102l0.817-0.612
				l4.901-4.391c0.442-0.408,0.782-0.842,1.021-1.302c0.237-0.459,0.646-0.808,1.225-1.047l0.052,0.511l-0.153,0.051
				c-0.068,0.102-0.095,0.162-0.077,0.179c0.018,0.018-0.025,0.077-0.127,0.179l0.153-0.051l0.051-0.255l0.153-0.102
				c0.067-0.136,0.17-0.204,0.306-0.204c0.068,0,0.153,0.051,0.256,0.153l-0.051,0.357l0.204-0.102v-0.051l0.255,0.103
				c-0.204,0.647-0.417,1.276-0.638,1.889c-0.223,0.613-0.452,1.226-0.689,1.838l-0.052,0.051c0.034,0,0.052-0.017,0.052-0.051
				c0.102-0.102,0.153-0.17,0.153-0.204c0.271-0.579,0.519-1.149,0.74-1.71c0.221-0.562,0.467-1.115,0.74-1.66
				c0.306,0.069,0.459,0.222,0.459,0.459c0,0.171-0.025,0.341-0.076,0.511c-0.051,0.171-0.111,0.341-0.179,0.511
				c-0.171,0.477-0.417,1.174-0.74,2.093c-0.324,0.919-0.647,1.881-0.971,2.885c-0.323,1.004-0.604,1.958-0.842,2.859
				c-0.238,0.902-0.357,1.557-0.357,1.966c0.34-0.204,0.638-0.467,0.894-0.792c0.255-0.323,0.519-0.621,0.791-0.894h0.103
				c-0.341,0.477-0.707,0.937-1.098,1.379c-0.393,0.442-0.707,0.937-0.945,1.48h-0.051v0.051c0.033,0,0.051-0.018,0.051-0.051
				c0.477-0.476,0.919-0.978,1.328-1.506c0.408-0.527,0.816-1.046,1.225-1.557c0.103-0.136,0.205-0.289,0.307-0.459
				c0.103-0.17,0.221-0.323,0.357-0.459l0.256-0.255c-0.545,0.919-1.175,1.812-1.89,2.681c-0.715,0.868-1.311,1.778-1.787,2.731
				l1.634-1.889l-0.459,0.868l0.357-0.255l0.051,0.204c0.033-0.136,0.103-0.273,0.204-0.408c0.103-0.136,0.187-0.272,0.256-0.409
				h0.051v-0.051l-0.051,0.051h-0.103c0.067-0.204,0.136-0.374,0.204-0.511c0.068-0.135,0.187-0.272,0.357-0.408v0.204l0.103-0.204
				l0.152-0.102l0.103-0.204c0.067-0.205,0.179-0.391,0.332-0.562c0.153-0.17,0.263-0.357,0.332-0.562
				c0.067-0.136,0.145-0.263,0.229-0.383c0.085-0.119,0.161-0.247,0.229-0.383h-0.051l0.103-0.205h-0.052l0.307-0.562l0.051,0.204
				c0.034-0.135,0.077-0.255,0.128-0.357c0.051-0.102,0.11-0.204,0.179-0.306h-0.051l0.152-0.102
				c0.068-0.102,0.136-0.255,0.205-0.459V112.859z M179.677,110.357c0,0.034-0.009,0.06-0.025,0.077
				c-0.018,0.018-0.025,0.043-0.025,0.077h0.051V110.357z M179.83,109.949c0.103-0.102,0.153-0.17,0.153-0.204
				c0.34-0.578,0.664-1.157,0.97-1.736c0.307-0.579,0.646-1.14,1.021-1.685c0.067-0.102,0.187-0.263,0.357-0.485
				c0.17-0.221,0.255-0.4,0.255-0.536l-0.102,0.204c-0.171,0.171-0.392,0.452-0.664,0.843c-0.272,0.392-0.536,0.817-0.791,1.276
				c-0.256,0.459-0.494,0.902-0.715,1.327C180.094,109.379,179.933,109.711,179.83,109.949c-0.068,0.069-0.102,0.153-0.102,0.255
				L179.83,109.949z M180.494,110.766l0.153-0.357c-0.069,0.035-0.103,0.085-0.103,0.153c0,0.069-0.034,0.136-0.102,0.204H180.494z
				 M180.596,113.166c-0.034,0.034-0.051,0.102-0.051,0.204h0.051V113.166z M180.801,112.706c0.476-1.293,1.046-2.57,1.71-3.83
				c0.664-1.259,1.438-2.416,2.323-3.472c-0.341,0.204-0.707,0.562-1.098,1.072c-0.392,0.511-0.767,1.064-1.123,1.659
				c-0.357,0.596-0.673,1.183-0.945,1.762c-0.272,0.579-0.477,1.055-0.612,1.43c-0.103,0.272-0.188,0.562-0.255,0.868
				c-0.069,0.307-0.137,0.596-0.205,0.868C180.664,112.996,180.731,112.876,180.801,112.706z M182.485,107.09
				c-0.341,0.477-0.647,0.937-0.919,1.378c-0.273,0.443-0.528,0.937-0.766,1.48c0.271-0.476,0.553-0.936,0.842-1.378
				c0.289-0.442,0.569-0.901,0.843-1.378V107.09z M182.74,105.149l0.153-0.102h-0.051L182.74,105.149z M183.098,106.324
				c-0.034,0.035-0.068,0.051-0.102,0.051h0.102V106.324z M183.302,105.966c-0.034,0-0.051,0.018-0.051,0.051h0.051V105.966z
				 M188.356,115.105h0.052v-0.102h-0.052V115.105z M188.561,119.905c-0.068,0-0.102,0.034-0.102,0.102L188.561,119.905z
				 M188.561,114.084l0.052,0.102v-0.153L188.561,114.084z M188.612,119.854c0.067-0.069,0.145-0.128,0.229-0.179
				c0.085-0.051,0.128-0.146,0.128-0.281L188.612,119.854z M188.867,112.961c-0.034,0.068-0.051,0.153-0.051,0.255h0.051V112.961z
				 M188.867,112.757l0.103-0.204h-0.052L188.867,112.757z M189.327,111.48c-0.137,0.307-0.256,0.647-0.357,1.021
				c0.136-0.17,0.221-0.34,0.255-0.511C189.258,111.821,189.292,111.651,189.327,111.48z M188.97,119.599
				c0.033,0,0.051-0.009,0.051-0.025c0-0.018,0.017-0.026,0.051-0.026C189.071,119.581,189.037,119.599,188.97,119.599z
				 M189.275,119.19c0-0.068,0.008-0.12,0.025-0.153c0.018-0.035,0.026-0.085,0.026-0.153l-0.307,0.459L189.275,119.19z
				 M189.685,106.273c-0.205,0.204-0.341,0.459-0.409,0.766L189.685,106.273z M189.327,119.139l0.051-0.051
				C189.378,119.122,189.36,119.139,189.327,119.139z M189.429,111.072c-0.034,0.034-0.051,0.085-0.051,0.153L189.429,111.072z
				 M189.582,119.037c-0.034,0-0.051,0.008-0.051,0.025c0,0.017-0.018,0.025-0.052,0.025h0.103V119.037z M189.582,110.562
				c-0.034,0.034-0.051,0.12-0.051,0.255l0.051-0.102V110.562z M189.939,118.578h-0.051l-0.153,0.102h0.051L189.939,118.578z
				 M190.348,106.681c-0.171,0.069-0.255,0.153-0.255,0.255v0.051c0,0.034,0.017,0.068,0.051,0.102L190.348,106.681z
				 M190.399,106.375c-0.035,0.068-0.052,0.153-0.052,0.255C190.382,106.562,190.399,106.477,190.399,106.375z M190.808,117.25
				c0.033-0.034,0.051-0.102,0.051-0.204C190.824,117.08,190.808,117.148,190.808,117.25z"/>
			<path fill="#F49D2A" d="M198.159,117.403c-0.682,0-1.32-0.221-1.915-0.664c-0.596-0.442-0.894-1.038-0.894-1.787
				c0-0.579,0.051-1.131,0.153-1.66c0.102-0.527,0.204-1.063,0.307-1.608c0.271-1.463,0.578-2.936,0.919-4.416
				c0.34-1.481,0.51-2.969,0.51-4.468c0-0.17-0.009-0.332-0.025-0.485c-0.018-0.153-0.094-0.297-0.229-0.434
				c-0.068-0.068-0.128-0.145-0.179-0.229s-0.128-0.145-0.229-0.179l0.051-0.153c-0.103-0.068-0.238-0.153-0.408-0.255
				c-0.171-0.102-0.256-0.221-0.256-0.357c0-0.204,0.161-0.357,0.485-0.459c0.323-0.102,0.569-0.153,0.74-0.153
				c0.272,0,0.587,0.051,0.944,0.153s0.655,0.239,0.894,0.409c0.885,0.579,1.498,1.183,1.838,1.812
				c0.34,0.63,0.511,1.473,0.511,2.527c0,0.34-0.076,0.911-0.229,1.71c-0.153,0.8-0.315,1.608-0.485,2.425s-0.408,1.856-0.715,3.115
				l0.052,0.204c1.43-2.11,2.91-4.195,4.441-6.254c1.532-2.059,3.302-3.906,5.311-5.54c0.237-0.205,0.484-0.375,0.74-0.511
				c0.255-0.136,0.553-0.204,0.894-0.204c0.271,0,0.646,0.094,1.123,0.281c0.476,0.188,0.799,0.4,0.97,0.638
				c0.136,0.171,0.221,0.366,0.256,0.587c0.033,0.222,0.051,0.434,0.051,0.638c0,0.307-0.034,0.613-0.103,0.919
				c-0.068,0.306-0.136,0.596-0.204,0.868c-0.102,0.375-0.213,0.792-0.332,1.251s-0.247,0.928-0.383,1.404
				c-0.137,0.477-0.264,0.944-0.383,1.404s-0.247,0.842-0.383,1.149l0.051,0.204c0.136-0.17,0.272-0.314,0.408-0.434
				c0.136-0.119,0.289-0.263,0.46-0.434c1.089-1.089,2.187-2.187,3.293-3.293c1.105-1.105,2.289-2.136,3.549-3.089l3.012-2.247
				c0.238-0.204,0.545-0.306,0.92-0.306c0.34,0,0.816,0.153,1.429,0.459c0.613,0.306,1.021,0.596,1.226,0.868
				c0.17,0.205,0.256,0.459,0.256,0.766c0,0.306-0.188,1.013-0.562,2.119c-0.375,1.106-0.801,2.307-1.277,3.6
				c-0.477,1.294-0.937,2.545-1.378,3.752c-0.443,1.209-0.749,2.085-0.919,2.629c-0.238,0.784-0.46,1.566-0.664,2.349
				c-0.204,0.784-0.426,1.566-0.664,2.349c-0.034,0.103-0.051,0.221-0.051,0.357c0,0.272,0.085,0.434,0.256,0.485
				c0.17,0.051,0.255,0.195,0.255,0.434c0,0.34-0.171,0.536-0.511,0.587c-0.341,0.051-0.63,0.077-0.868,0.077
				c-0.272,0-0.57-0.06-0.894-0.179c-0.323-0.12-0.63-0.273-0.919-0.459c-0.289-0.188-0.536-0.417-0.74-0.689
				c-0.204-0.273-0.323-0.562-0.357-0.868c-0.034-0.17-0.051-0.425-0.051-0.766c0-0.715,0.059-1.48,0.179-2.297
				c0.119-0.817,0.281-1.651,0.485-2.502c0.204-0.851,0.425-1.676,0.663-2.476c0.238-0.799,0.477-1.54,0.715-2.221
				c0.272-0.783,0.57-1.532,0.894-2.247s0.655-1.446,0.996-2.195c-0.988,0.613-1.933,1.378-2.834,2.297
				c-0.902,0.919-1.779,1.889-2.629,2.911c-0.852,1.021-1.678,2.051-2.477,3.089c-0.801,1.039-1.592,1.983-2.374,2.833
				c-0.239,0.273-0.443,0.434-0.613,0.485c-0.17,0.051-0.331,0.077-0.484,0.077s-0.307-0.008-0.46-0.025
				c-0.153-0.017-0.35,0.009-0.587,0.077l-1.48-0.919c-0.239-0.17-0.383-0.366-0.435-0.587c-0.051-0.221-0.076-0.467-0.076-0.74
				c0-0.511,0.051-1.072,0.153-1.685c0.102-0.612,0.229-1.233,0.383-1.863c0.153-0.629,0.323-1.242,0.511-1.838
				c0.187-0.595,0.365-1.131,0.536-1.608c0.102-0.272,0.221-0.553,0.357-0.843c0.135-0.289,0.237-0.569,0.306-0.842
				c0.034-0.068,0.052-0.153,0.052-0.255s0.033-0.187,0.102-0.255h-0.051c-0.273,0.375-0.579,0.707-0.919,0.996
				c-0.341,0.29-0.647,0.605-0.919,0.945c-0.715,0.885-1.388,1.796-2.017,2.731c-0.631,0.937-1.251,1.873-1.864,2.808
				c-0.612,0.937-1.242,1.881-1.889,2.833c-0.647,0.954-1.327,1.856-2.042,2.706C199.061,117.182,198.635,117.403,198.159,117.403z
				 M197.75,114.748h0.204c0.715-2.995,1.379-6.007,1.991-9.037l-0.152-0.051c-0.341,1.532-0.673,3.046-0.996,4.544
				C198.473,111.702,198.124,113.216,197.75,114.748z M204.133,109.03l0.102-0.204C204.166,108.894,204.133,108.962,204.133,109.03z
				 M204.643,106.63c-0.068,0.068-0.102,0.136-0.102,0.204L204.643,106.63z M208.166,110.204l-0.103,0.204h0.052l0.102-0.204
				H208.166z M208.319,109.643v-0.051h-0.052L208.319,109.643z M208.523,108.724c-0.034,0-0.052,0.018-0.052,0.051
				c0,0.035,0.018,0.051,0.052,0.051V108.724z M208.574,108.417h0.051l0.052-0.153L208.574,108.417z M208.778,107.83
				c0-0.017,0.017-0.025,0.051-0.025v-0.051l-0.102,0.102C208.761,107.855,208.778,107.848,208.778,107.83z M208.829,111.634
				l-0.051,0.051h0.051V111.634z M208.982,111.021h0.052v-0.255C208.999,110.834,208.982,110.919,208.982,111.021z M209.289,110.255
				l-0.103-0.051l-0.152,0.459L209.289,110.255z M209.289,109.745v0.051l0.051-0.051H209.289z M209.544,105.916
				c0.205-0.544,0.442-1.115,0.715-1.71c0.272-0.595,0.442-1.182,0.511-1.762c-0.272,0.58-0.528,1.167-0.766,1.762
				c-0.238,0.596-0.442,1.217-0.612,1.863L209.544,105.916z M209.442,109.336h-0.051v0.153h0.051V109.336z M209.493,108.979h0.051
				v-0.153C209.51,108.86,209.493,108.911,209.493,108.979z M209.596,111.736l0.204,0.051c0.102-0.136,0.221-0.375,0.357-0.715
				c0.374-1.293,0.757-2.561,1.148-3.804c0.391-1.242,0.774-2.51,1.148-3.804c0.068-0.272,0.128-0.527,0.179-0.766
				c0.052-0.238,0.11-0.476,0.179-0.715l-0.152-0.051L209.596,111.736z M209.697,108.417h-0.051c0,0.035,0.017,0.069,0.051,0.103
				V108.417z M209.8,108.009h0.102v-0.511L209.8,108.009z M210.157,107.141l-0.051-0.051c-0.035,0.068-0.069,0.127-0.103,0.179
				c-0.034,0.051-0.068,0.111-0.103,0.179C210.037,107.312,210.123,107.209,210.157,107.141z M210.361,106.222
				c0.271-0.408,0.459-0.833,0.562-1.276c0.103-0.442,0.237-0.885,0.408-1.328c-0.204,0.375-0.392,0.8-0.562,1.276
				C210.599,105.371,210.463,105.813,210.361,106.222z M211.638,102.852h-0.103l0.052,0.153L211.638,102.852z M211.995,106.783
				l0.051-0.051h-0.051V106.783z M218.734,114.493l-0.051-0.051C218.684,114.476,218.7,114.493,218.734,114.493z M218.837,113.727
				h-0.052v0.153h0.052V113.727z M219.041,112.706l-0.153,0.664h0.103c0-0.102,0.008-0.212,0.025-0.332
				C219.032,112.919,219.041,112.808,219.041,112.706z M219.041,112.706c0.271-0.409,0.408-0.936,0.408-1.583L219.041,112.706z
				 M223.023,102.341l-0.103-0.051c-0.715,1.429-1.378,2.868-1.991,4.314c-0.612,1.447-1.106,2.936-1.48,4.468
				c0.17-0.272,0.307-0.562,0.408-0.868c0.103-0.306,0.205-0.613,0.307-0.919c0.272-0.681,0.527-1.37,0.766-2.068
				c0.238-0.697,0.511-1.386,0.817-2.068c0.204-0.476,0.425-0.944,0.663-1.404S222.853,102.818,223.023,102.341z M219.5,115.157
				h0.052v-0.051L219.5,115.157z M219.552,115.003l0.153-0.204h-0.103L219.552,115.003z M219.705,114.442l0.051,0.051v-0.153
				C219.722,114.374,219.705,114.408,219.705,114.442z M219.909,117.914l0.102,0.051c0.204-0.579,0.365-1.166,0.485-1.762
				c0.119-0.595,0.263-1.182,0.434-1.761c0.307-1.157,0.655-2.306,1.047-3.446c0.391-1.14,0.809-2.272,1.251-3.396l2.042-5.361
				c0.068-0.136,0.103-0.263,0.103-0.383c0-0.119,0.017-0.247,0.051-0.383h-0.102c-0.682,1.634-1.354,3.242-2.018,4.825
				c-0.663,1.583-1.25,3.225-1.761,4.927c-0.341,1.09-0.673,2.196-0.996,3.319S220.011,116.791,219.909,117.914z M224.401,101.678
				l-0.102-0.051c-0.612,1.532-1.269,3.038-1.966,4.519c-0.698,1.481-1.251,3.021-1.659,4.621c-0.103,0.375-0.196,0.784-0.281,1.226
				c-0.085,0.443-0.213,0.851-0.383,1.225c0.17-0.272,0.298-0.578,0.383-0.919c0.085-0.34,0.179-0.646,0.281-0.919
				c0.34-0.953,0.672-1.897,0.995-2.833c0.323-0.936,0.672-1.88,1.047-2.834c0.272-0.68,0.562-1.353,0.868-2.017
				C223.892,103.031,224.163,102.359,224.401,101.678z M221.543,114.34h-0.052c0,0.068,0.018,0.12,0.052,0.153h0.051
				C221.56,114.459,221.543,114.408,221.543,114.34z M221.594,109.796l0.051,0.051v-0.051H221.594z M221.696,109.541l0.051,0.051
				v-0.051H221.696z M221.747,113.727h-0.051l0.051,0.051V113.727z M222.155,112.553c0,0.034-0.009,0.051-0.025,0.051
				c-0.018,0-0.025,0.018-0.025,0.051C222.138,112.622,222.155,112.587,222.155,112.553z M222.258,112.195l-0.052-0.051
				c0,0.068-0.018,0.12-0.051,0.153L222.258,112.195z M222.206,108.111v0.051l0.052-0.051H222.206z M222.359,107.855h-0.051v0.051
				C222.342,107.907,222.359,107.89,222.359,107.855z M222.41,111.659c0-0.017,0.018-0.025,0.052-0.025v-0.051l-0.103,0.102
				C222.394,111.685,222.41,111.677,222.41,111.659z M222.563,107.345c-0.034,0-0.051,0.017-0.051,0.051
				C222.546,107.396,222.563,107.379,222.563,107.345z M222.563,111.276h-0.051v0.102h0.051V111.276z M222.615,111.072h0.051v-0.051
				C222.632,111.021,222.615,111.039,222.615,111.072z M223.381,109.03l-0.103-0.051v0.153L223.381,109.03z M223.585,108.315
				c-0.034,0.035-0.051,0.085-0.051,0.153h0.051V108.315z M223.84,108.009l-0.102-0.102c-0.034,0.034-0.051,0.068-0.051,0.102
				H223.84z M224.249,106.783h-0.052c0,0.069-0.018,0.12-0.051,0.153L224.249,106.783z M224.351,106.324l-0.051,0.051h0.051V106.324
				z M224.401,106.068l0.052,0.051v-0.051H224.401z M224.555,105.813l-0.051,0.051h0.051V105.813z M224.606,105.609h0.051v-0.051
				L224.606,105.609z M224.811,105.251l-0.052,0.051h0.052V105.251z M225.116,104.333c0,0.035,0.018,0.051,0.052,0.051v-0.051
				H225.116z M225.474,103.567h-0.051v0.102C225.423,103.635,225.439,103.601,225.474,103.567z"/>
			<path fill="#F49D2A" d="M239.361,107.498l0.408-0.408l-0.051,0.306l0.153-0.306h-0.103l0.103-0.153v0.153l0.102-0.205h0.052
				l0.204-0.357l0.102,0.051c-0.477,1.192-1.063,2.332-1.761,3.421c-0.698,1.09-1.388,2.179-2.068,3.268
				c-0.375,0.613-0.749,1.234-1.123,1.864c-0.375,0.63-0.766,1.234-1.175,1.812c-0.51,0.749-1.132,1.608-1.863,2.578
				c-0.732,0.97-1.387,1.778-1.966,2.425c-0.17,0.17-0.332,0.272-0.484,0.306c-0.153,0.034-0.332,0.051-0.536,0.051
				c-0.749,0-1.362-0.196-1.838-0.587c-0.477-0.392-0.715-0.979-0.715-1.761c0-1.396,0.136-2.799,0.408-4.212
				c0.271-1.412,0.595-2.765,0.97-4.059c0.272-1.021,0.527-2.042,0.766-3.063c0.238-1.021,0.392-2.059,0.46-3.115v-0.204
				c0-0.136-0.025-0.263-0.076-0.383c-0.052-0.119-0.077-0.247-0.077-0.383c0-0.103,0.06-0.179,0.179-0.23s0.212-0.093,0.281-0.127
				c1.123,0.17,2.084,0.562,2.885,1.174c0.799,0.612,1.199,1.531,1.199,2.757c0,0.988-0.136,1.923-0.408,2.808
				c-0.272,0.886-0.545,1.787-0.817,2.706l-1.123,3.778c0,0.034-0.009,0.051-0.025,0.051c-0.018,0-0.025,0.018-0.025,0.051v0.051
				l0.051,0.102c0.715-0.884,1.387-1.812,2.017-2.782c0.63-0.97,1.268-1.932,1.915-2.885c0.374-0.579,0.782-1.124,1.226-1.634
				c0.441-0.511,0.868-1.038,1.276-1.583c0.237-0.272,0.45-0.578,0.638-0.919c0.187-0.34,0.417-0.646,0.689-0.919l-0.255,0.459
				l0.357-0.408c-0.409,0.681-0.843,1.353-1.303,2.017c-0.459,0.664-0.859,1.371-1.199,2.119c0.17-0.204,0.34-0.408,0.511-0.612
				c0.17-0.205,0.323-0.425,0.459-0.664c0.272-0.442,0.519-0.901,0.74-1.378c0.222-0.476,0.519-0.901,0.894-1.276L239.361,107.498z
				 M229.252,120.16h0.103c0.374-1.498,0.773-2.978,1.199-4.442c0.426-1.463,0.843-2.944,1.251-4.442
				c-0.306,0.545-0.528,1.115-0.663,1.71c-0.137,0.596-0.29,1.183-0.46,1.761c-0.272,0.886-0.545,1.779-0.816,2.681
				C229.592,118.33,229.388,119.241,229.252,120.16z M232.826,96.572l0.255,0.051v0.357c0.103-0.034,0.222-0.119,0.357-0.255
				l0.511,0.255l-0.102,0.357l0.612,0.102v0.511l0.255-0.051c0.34,0.239,0.511,0.528,0.511,0.868c0,0.613-0.094,1.2-0.28,1.761
				c-0.188,0.562-0.281,1.149-0.281,1.762c0,0.34,0.033,0.681,0.103,1.021c0.067,0.341,0.102,0.681,0.102,1.021
				c-0.171,0.102-0.324,0.153-0.459,0.153c-0.171,0-0.332-0.051-0.485-0.153s-0.315-0.135-0.485-0.102
				c-0.306-0.17-0.596-0.434-0.868-0.792s-0.519-0.748-0.74-1.174c-0.222-0.425-0.392-0.85-0.51-1.276
				c-0.12-0.425-0.179-0.825-0.179-1.2c0-0.204,0.033-0.493,0.102-0.868c0.068-0.374,0.17-0.748,0.307-1.123
				c0.136-0.374,0.298-0.706,0.484-0.996c0.188-0.289,0.4-0.434,0.639-0.434L232.826,96.572z M231.192,118.628
				c0.067-0.068,0.153-0.145,0.255-0.229c0.103-0.085,0.187-0.162,0.256-0.23c1.021-1.532,2.042-3.038,3.063-4.519
				c1.021-1.48,2.059-2.987,3.114-4.519c-0.408,0.443-0.817,0.886-1.226,1.328c-0.408,0.443-0.749,0.902-1.021,1.378
				c-0.442,0.715-0.894,1.422-1.353,2.119c-0.46,0.698-0.911,1.404-1.354,2.119c-0.272,0.443-0.57,0.86-0.894,1.251
				C231.711,117.718,231.43,118.151,231.192,118.628z M231.958,110.715h-0.102v0.306c0.033-0.033,0.051-0.077,0.051-0.127
				C231.907,110.842,231.924,110.783,231.958,110.715z M233.592,116.484c-0.137,0.034-0.229,0.102-0.28,0.204
				c-0.052,0.102-0.111,0.204-0.179,0.306L233.592,116.484z M234.256,115.616c-0.341,0.068-0.511,0.222-0.511,0.459v0.102
				L234.256,115.616z M235.686,113.625l0.204-0.153c0.067-0.136,0.136-0.263,0.204-0.383c0.067-0.119,0.136-0.263,0.204-0.434
				c-0.068,0.171-0.162,0.332-0.281,0.485C235.897,113.293,235.787,113.455,235.686,113.625z M237.013,111.991l0.153-0.153
				c-0.068,0-0.12-0.017-0.153-0.051c0.067-0.136,0.128-0.264,0.179-0.383c0.051-0.119,0.11-0.246,0.179-0.383l-0.612,0.868
				l0.255-0.102V111.991z M238.085,110.204h-0.103l0.153-0.255v-0.204c-0.204,0.273-0.357,0.528-0.459,0.766l0.204-0.103
				l0.102-0.204c0.034,0.034,0.052,0.102,0.052,0.204C238.067,110.375,238.085,110.306,238.085,110.204z M237.881,110.562
				l0.153-0.153h-0.103C237.897,110.443,237.881,110.494,237.881,110.562z M238.187,110h-0.051v0.102
				C238.17,110.068,238.187,110.034,238.187,110z M238.544,109.336c0-0.103,0.018-0.196,0.052-0.281
				c0.033-0.084,0.051-0.179,0.051-0.281l-0.46,0.868l0.205-0.102v0.153l0.102-0.153h-0.102L238.544,109.336z M238.544,109.336
				v0.153l0.103-0.153c0-0.103,0.017-0.17,0.051-0.205h-0.051v0.205H238.544z M239.361,107.498c0,0.137-0.068,0.273-0.204,0.409
				l0.204-0.051l0.051-0.204L239.361,107.498z M239.515,107.805l-0.103,0.051l-0.051,0.153L239.515,107.805z M239.412,107.192
				c0.068-0.136,0.119-0.255,0.153-0.357c0.033-0.102,0.068-0.221,0.103-0.357l0.102,0.051
				C239.735,106.699,239.616,106.92,239.412,107.192z M239.923,106.885v-0.051h-0.051v0.102L239.923,106.885z M239.974,106.681
				v0.153h-0.051L239.974,106.681z M240.025,106.834h-0.052v0.051L240.025,106.834z"/>
			<path fill="#F49D2A" d="M247.019,82.123c0.068-0.204,0.188-0.306,0.357-0.306c0.375,0,0.749,0.127,1.124,0.383
				c0.374,0.255,0.706,0.579,0.995,0.97c0.289,0.392,0.527,0.809,0.715,1.251c0.187,0.443,0.281,0.834,0.281,1.174
				c0,0.511-0.128,1.294-0.383,2.349c-0.256,1.056-0.554,2.17-0.894,3.344c-0.341,1.174-0.682,2.298-1.021,3.37
				c-0.341,1.072-0.596,1.915-0.766,2.527c-0.204,0.682-0.426,1.371-0.664,2.068c-0.238,0.698-0.459,1.387-0.664,2.068l-2.757,9.854
				c-0.477,1.634-0.868,3.302-1.174,5.003c-0.307,1.703-0.46,3.403-0.46,5.106c0,0.476,0.042,0.952,0.128,1.429
				c0.084,0.477,0.195,0.953,0.332,1.43c0.067,0.307,0.153,0.621,0.255,0.945c0.103,0.323,0.17,0.638,0.204,0.944
				c-0.068,0-0.145,0.008-0.229,0.025c-0.085,0.017-0.162,0.026-0.229,0.026c-0.682,0-1.303-0.205-1.864-0.613
				c-0.562-0.409-1.029-0.886-1.403-1.43c-0.478-0.647-0.767-1.362-0.868-2.145c-0.103-0.783-0.153-1.566-0.153-2.349
				c0-1.565,0.187-3.438,0.562-5.616c0.374-2.178,0.834-4.416,1.379-6.714c0.544-2.297,1.123-4.526,1.735-6.688
				c0.613-2.161,1.175-4.024,1.686-5.591c0.135-0.476,0.434-1.31,0.894-2.501c0.459-1.191,0.927-2.433,1.403-3.727
				c0.477-1.293,0.901-2.477,1.276-3.549c0.374-1.072,0.562-1.744,0.562-2.017C247.376,82.838,247.257,82.498,247.019,82.123z
				 M240.688,118.118c0.067-0.17,0.118-0.349,0.152-0.536c0.034-0.187,0.068-0.366,0.103-0.536c0.136-0.783,0.271-1.565,0.408-2.349
				c0.136-0.783,0.307-1.565,0.511-2.349c0.307-1.226,0.604-2.451,0.894-3.676c0.289-1.225,0.604-2.451,0.944-3.676
				c0.477-1.736,0.996-3.446,1.558-5.131s1.047-3.396,1.455-5.131c-0.103,0.171-0.256,0.554-0.46,1.149
				c-0.204,0.596-0.434,1.302-0.689,2.119c-0.255,0.817-0.519,1.703-0.791,2.655c-0.272,0.953-0.536,1.863-0.791,2.731
				c-0.256,0.868-0.478,1.659-0.664,2.374c-0.188,0.715-0.332,1.226-0.434,1.532c-0.511,1.77-0.963,3.557-1.354,5.361
				C241.139,114.459,240.858,116.28,240.688,118.118z M247.121,93.611c-0.171,0.136-0.255,0.324-0.255,0.562L247.121,93.611z
				 M247.274,93.151l-0.103-0.051c-0.034,0.102-0.051,0.273-0.051,0.511L247.274,93.151z M247.529,92.283l-0.051-0.051v0.051
				H247.529z"/>
			<path fill="#F49D2A" d="M259.222,107.498l0.408-0.408l-0.051,0.306l0.153-0.306h-0.103l0.103-0.153v0.153l0.102-0.205h0.052
				l0.204-0.357l0.102,0.051c-0.477,1.192-1.063,2.332-1.761,3.421c-0.698,1.09-1.388,2.179-2.068,3.268
				c-0.375,0.613-0.749,1.234-1.123,1.864c-0.375,0.63-0.766,1.234-1.175,1.812c-0.51,0.749-1.132,1.608-1.863,2.578
				c-0.732,0.97-1.387,1.778-1.966,2.425c-0.17,0.17-0.332,0.272-0.484,0.306c-0.153,0.034-0.332,0.051-0.536,0.051
				c-0.749,0-1.362-0.196-1.838-0.587c-0.477-0.392-0.715-0.979-0.715-1.761c0-1.396,0.136-2.799,0.408-4.212
				c0.271-1.412,0.595-2.765,0.97-4.059c0.272-1.021,0.527-2.042,0.766-3.063c0.238-1.021,0.392-2.059,0.46-3.115v-0.204
				c0-0.136-0.025-0.263-0.076-0.383c-0.052-0.119-0.077-0.247-0.077-0.383c0-0.103,0.06-0.179,0.179-0.23s0.212-0.093,0.281-0.127
				c1.123,0.17,2.084,0.562,2.885,1.174c0.799,0.612,1.199,1.531,1.199,2.757c0,0.988-0.136,1.923-0.408,2.808
				c-0.272,0.886-0.545,1.787-0.817,2.706l-1.123,3.778c0,0.034-0.009,0.051-0.025,0.051c-0.018,0-0.025,0.018-0.025,0.051v0.051
				l0.051,0.102c0.715-0.884,1.387-1.812,2.017-2.782c0.63-0.97,1.268-1.932,1.915-2.885c0.374-0.579,0.782-1.124,1.226-1.634
				c0.441-0.511,0.868-1.038,1.276-1.583c0.237-0.272,0.45-0.578,0.638-0.919c0.187-0.34,0.417-0.646,0.689-0.919l-0.255,0.459
				l0.357-0.408c-0.409,0.681-0.843,1.353-1.303,2.017c-0.459,0.664-0.859,1.371-1.199,2.119c0.17-0.204,0.34-0.408,0.511-0.612
				c0.17-0.205,0.323-0.425,0.459-0.664c0.272-0.442,0.519-0.901,0.74-1.378c0.222-0.476,0.519-0.901,0.894-1.276L259.222,107.498z
				 M249.112,120.16h0.103c0.374-1.498,0.773-2.978,1.199-4.442c0.426-1.463,0.843-2.944,1.251-4.442
				c-0.306,0.545-0.528,1.115-0.663,1.71c-0.137,0.596-0.29,1.183-0.46,1.761c-0.272,0.886-0.545,1.779-0.816,2.681
				C249.452,118.33,249.248,119.241,249.112,120.16z M252.687,96.572l0.255,0.051v0.357c0.103-0.034,0.222-0.119,0.357-0.255
				l0.511,0.255l-0.102,0.357l0.612,0.102v0.511l0.255-0.051c0.34,0.239,0.511,0.528,0.511,0.868c0,0.613-0.094,1.2-0.28,1.761
				c-0.188,0.562-0.281,1.149-0.281,1.762c0,0.34,0.033,0.681,0.103,1.021c0.067,0.341,0.102,0.681,0.102,1.021
				c-0.171,0.102-0.324,0.153-0.459,0.153c-0.171,0-0.332-0.051-0.485-0.153s-0.315-0.135-0.485-0.102
				c-0.306-0.17-0.596-0.434-0.868-0.792s-0.519-0.748-0.74-1.174c-0.222-0.425-0.392-0.85-0.51-1.276
				c-0.12-0.425-0.179-0.825-0.179-1.2c0-0.204,0.033-0.493,0.102-0.868c0.068-0.374,0.17-0.748,0.307-1.123
				c0.136-0.374,0.298-0.706,0.484-0.996c0.188-0.289,0.4-0.434,0.639-0.434L252.687,96.572z M251.053,118.628
				c0.067-0.068,0.153-0.145,0.255-0.229c0.103-0.085,0.187-0.162,0.256-0.23c1.021-1.532,2.042-3.038,3.063-4.519
				c1.021-1.48,2.059-2.987,3.114-4.519c-0.408,0.443-0.817,0.886-1.226,1.328c-0.408,0.443-0.749,0.902-1.021,1.378
				c-0.442,0.715-0.894,1.422-1.353,2.119c-0.46,0.698-0.911,1.404-1.354,2.119c-0.272,0.443-0.57,0.86-0.894,1.251
				C251.571,117.718,251.29,118.151,251.053,118.628z M251.818,110.715h-0.102v0.306c0.033-0.033,0.051-0.077,0.051-0.127
				C251.768,110.842,251.784,110.783,251.818,110.715z M253.452,116.484c-0.137,0.034-0.229,0.102-0.28,0.204
				c-0.052,0.102-0.111,0.204-0.179,0.306L253.452,116.484z M254.116,115.616c-0.341,0.068-0.511,0.222-0.511,0.459v0.102
				L254.116,115.616z M255.546,113.625l0.204-0.153c0.067-0.136,0.136-0.263,0.204-0.383c0.067-0.119,0.136-0.263,0.204-0.434
				c-0.068,0.171-0.162,0.332-0.281,0.485C255.758,113.293,255.647,113.455,255.546,113.625z M256.873,111.991l0.153-0.153
				c-0.068,0-0.12-0.017-0.153-0.051c0.067-0.136,0.128-0.264,0.179-0.383c0.051-0.119,0.11-0.246,0.179-0.383l-0.612,0.868
				l0.255-0.102V111.991z M257.945,110.204h-0.103l0.153-0.255v-0.204c-0.204,0.273-0.357,0.528-0.459,0.766l0.204-0.103
				l0.102-0.204c0.034,0.034,0.052,0.102,0.052,0.204C257.928,110.375,257.945,110.306,257.945,110.204z M257.741,110.562
				l0.153-0.153h-0.103C257.758,110.443,257.741,110.494,257.741,110.562z M258.047,110h-0.051v0.102
				C258.03,110.068,258.047,110.034,258.047,110z M258.404,109.336c0-0.103,0.018-0.196,0.052-0.281
				c0.033-0.084,0.051-0.179,0.051-0.281l-0.46,0.868l0.205-0.102v0.153l0.102-0.153h-0.102L258.404,109.336z M258.404,109.336
				v0.153l0.103-0.153c0-0.103,0.017-0.17,0.051-0.205h-0.051v0.205H258.404z M259.222,107.498c0,0.137-0.068,0.273-0.204,0.409
				l0.204-0.051l0.051-0.204L259.222,107.498z M259.375,107.805l-0.103,0.051l-0.051,0.153L259.375,107.805z M259.272,107.192
				c0.068-0.136,0.119-0.255,0.153-0.357c0.033-0.102,0.068-0.221,0.103-0.357l0.102,0.051
				C259.596,106.699,259.477,106.92,259.272,107.192z M259.783,106.885v-0.051h-0.051v0.102L259.783,106.885z M259.834,106.681
				v0.153h-0.051L259.834,106.681z M259.886,106.834h-0.052v0.051L259.886,106.834z"/>
			<path fill="#F49D2A" d="M273.058,112.859c0.067-0.17,0.152-0.314,0.255-0.434c0.103-0.119,0.204-0.263,0.307-0.434
				c-0.273,0.681-0.631,1.447-1.072,2.297c-0.443,0.852-0.928,1.694-1.455,2.527c-0.528,0.834-1.081,1.625-1.659,2.374
				c-0.579,0.749-1.142,1.344-1.686,1.787c-0.579-0.204-1.047-0.4-1.403-0.587c-0.357-0.188-0.536-0.638-0.536-1.353
				c0-1.396,0.127-2.765,0.383-4.11c0.255-1.344,0.519-2.697,0.791-4.059l-1.736,1.787c-0.272,0.273-0.57,0.596-0.893,0.97
				c-0.324,0.375-0.664,0.732-1.021,1.072c-0.357,0.34-0.74,0.63-1.148,0.868c-0.409,0.239-0.835,0.357-1.277,0.357
				c-0.306,0-0.646-0.068-1.021-0.204c-0.375-0.136-0.724-0.323-1.047-0.562c-0.324-0.238-0.587-0.511-0.791-0.817
				c-0.204-0.307-0.307-0.646-0.307-1.021c0-0.749,0.179-1.625,0.536-2.63c0.357-1.003,0.816-1.991,1.379-2.961
				c0.562-0.97,1.174-1.872,1.838-2.706c0.663-0.833,1.302-1.472,1.914-1.915c0.511-0.375,1.072-0.706,1.686-0.996
				c0.612-0.289,1.242-0.434,1.889-0.434s1.233,0.153,1.762,0.459c0.527,0.306,1.029,0.681,1.506,1.123
				c0.136,0.137,0.204,0.273,0.204,0.409c0,0.068-0.034,0.171-0.102,0.306l-1.481-0.408c-0.919,0.306-1.728,0.783-2.425,1.43
				c-0.698,0.647-1.327,1.37-1.889,2.17s-1.056,1.651-1.481,2.553c-0.426,0.902-0.825,1.761-1.199,2.578l0.102,0.102l0.817-0.612
				l4.901-4.391c0.442-0.408,0.782-0.842,1.021-1.302c0.237-0.459,0.646-0.808,1.225-1.047l0.052,0.511l-0.153,0.051
				c-0.068,0.102-0.095,0.162-0.077,0.179c0.018,0.018-0.025,0.077-0.127,0.179l0.153-0.051l0.051-0.255l0.153-0.102
				c0.067-0.136,0.17-0.204,0.306-0.204c0.068,0,0.153,0.051,0.256,0.153l-0.051,0.357l0.204-0.102v-0.051l0.255,0.103
				c-0.204,0.647-0.417,1.276-0.638,1.889c-0.223,0.613-0.452,1.226-0.689,1.838l-0.052,0.051c0.034,0,0.052-0.017,0.052-0.051
				c0.102-0.102,0.153-0.17,0.153-0.204c0.271-0.579,0.519-1.149,0.74-1.71c0.221-0.562,0.467-1.115,0.74-1.66
				c0.306,0.069,0.459,0.222,0.459,0.459c0,0.171-0.025,0.341-0.076,0.511c-0.051,0.171-0.111,0.341-0.179,0.511
				c-0.171,0.477-0.417,1.174-0.74,2.093c-0.324,0.919-0.647,1.881-0.971,2.885c-0.323,1.004-0.604,1.958-0.842,2.859
				c-0.238,0.902-0.357,1.557-0.357,1.966c0.34-0.204,0.638-0.467,0.894-0.792c0.255-0.323,0.519-0.621,0.791-0.894h0.103
				c-0.341,0.477-0.707,0.937-1.098,1.379c-0.393,0.442-0.707,0.937-0.945,1.48h-0.051v0.051c0.033,0,0.051-0.018,0.051-0.051
				c0.477-0.476,0.919-0.978,1.328-1.506c0.408-0.527,0.816-1.046,1.225-1.557c0.103-0.136,0.205-0.289,0.307-0.459
				c0.103-0.17,0.221-0.323,0.357-0.459l0.256-0.255c-0.545,0.919-1.175,1.812-1.89,2.681c-0.715,0.868-1.311,1.778-1.787,2.731
				l1.634-1.889l-0.459,0.868l0.357-0.255l0.051,0.204c0.033-0.136,0.103-0.273,0.204-0.408c0.103-0.136,0.187-0.272,0.256-0.409
				h0.051v-0.051l-0.051,0.051h-0.103c0.067-0.204,0.136-0.374,0.204-0.511c0.068-0.135,0.187-0.272,0.357-0.408v0.204l0.103-0.204
				l0.152-0.102l0.103-0.204c0.067-0.205,0.179-0.391,0.332-0.562c0.153-0.17,0.263-0.357,0.332-0.562
				c0.067-0.136,0.145-0.263,0.229-0.383c0.085-0.119,0.161-0.247,0.229-0.383h-0.051l0.103-0.205h-0.052l0.307-0.562l0.051,0.204
				c0.034-0.135,0.077-0.255,0.128-0.357c0.051-0.102,0.11-0.204,0.179-0.306H272.7l0.152-0.102
				c0.068-0.102,0.136-0.255,0.205-0.459V112.859z M259.425,110.357c0,0.034-0.009,0.06-0.025,0.077
				c-0.018,0.018-0.025,0.043-0.025,0.077h0.051V110.357z M259.578,109.949c0.103-0.102,0.153-0.17,0.153-0.204
				c0.34-0.578,0.664-1.157,0.97-1.736c0.307-0.579,0.646-1.14,1.021-1.685c0.067-0.102,0.187-0.263,0.357-0.485
				c0.17-0.221,0.255-0.4,0.255-0.536l-0.102,0.204c-0.171,0.171-0.392,0.452-0.664,0.843c-0.272,0.392-0.536,0.817-0.791,1.276
				c-0.256,0.459-0.494,0.902-0.715,1.327C259.842,109.379,259.681,109.711,259.578,109.949c-0.068,0.069-0.102,0.153-0.102,0.255
				L259.578,109.949z M260.242,110.766l0.153-0.357c-0.069,0.035-0.103,0.085-0.103,0.153c0,0.069-0.034,0.136-0.102,0.204H260.242z
				 M260.344,113.166c-0.034,0.034-0.051,0.102-0.051,0.204h0.051V113.166z M260.549,112.706c0.476-1.293,1.046-2.57,1.71-3.83
				c0.664-1.259,1.438-2.416,2.323-3.472c-0.341,0.204-0.707,0.562-1.098,1.072c-0.392,0.511-0.767,1.064-1.123,1.659
				c-0.357,0.596-0.673,1.183-0.945,1.762c-0.272,0.579-0.477,1.055-0.612,1.43c-0.103,0.272-0.188,0.562-0.255,0.868
				c-0.069,0.307-0.137,0.596-0.205,0.868C260.412,112.996,260.479,112.876,260.549,112.706z M262.233,107.09
				c-0.341,0.477-0.647,0.937-0.919,1.378c-0.273,0.443-0.528,0.937-0.766,1.48c0.271-0.476,0.553-0.936,0.842-1.378
				c0.289-0.442,0.569-0.901,0.843-1.378V107.09z M262.488,105.149l0.153-0.102h-0.051L262.488,105.149z M262.846,106.324
				c-0.034,0.035-0.068,0.051-0.102,0.051h0.102V106.324z M263.05,105.966c-0.034,0-0.051,0.018-0.051,0.051h0.051V105.966z
				 M268.104,115.105h0.052v-0.102h-0.052V115.105z M268.309,119.905c-0.068,0-0.102,0.034-0.102,0.102L268.309,119.905z
				 M268.309,114.084l0.052,0.102v-0.153L268.309,114.084z M268.36,119.854c0.067-0.069,0.145-0.128,0.229-0.179
				c0.085-0.051,0.128-0.146,0.128-0.281L268.36,119.854z M268.615,112.961c-0.034,0.068-0.051,0.153-0.051,0.255h0.051V112.961z
				 M268.615,112.757l0.103-0.204h-0.052L268.615,112.757z M269.075,111.48c-0.137,0.307-0.256,0.647-0.357,1.021
				c0.136-0.17,0.221-0.34,0.255-0.511C269.006,111.821,269.04,111.651,269.075,111.48z M268.718,119.599
				c0.033,0,0.051-0.009,0.051-0.025c0-0.018,0.017-0.026,0.051-0.026C268.819,119.581,268.785,119.599,268.718,119.599z
				 M269.023,119.19c0-0.068,0.008-0.12,0.025-0.153c0.018-0.035,0.026-0.085,0.026-0.153l-0.307,0.459L269.023,119.19z
				 M269.433,106.273c-0.205,0.204-0.341,0.459-0.409,0.766L269.433,106.273z M269.075,119.139l0.051-0.051
				C269.126,119.122,269.108,119.139,269.075,119.139z M269.177,111.072c-0.034,0.034-0.051,0.085-0.051,0.153L269.177,111.072z
				 M269.33,119.037c-0.034,0-0.051,0.008-0.051,0.025c0,0.017-0.018,0.025-0.052,0.025h0.103V119.037z M269.33,110.562
				c-0.034,0.034-0.051,0.12-0.051,0.255l0.051-0.102V110.562z M269.688,118.578h-0.051l-0.153,0.102h0.051L269.688,118.578z
				 M270.096,106.681c-0.171,0.069-0.255,0.153-0.255,0.255v0.051c0,0.034,0.017,0.068,0.051,0.102L270.096,106.681z
				 M270.147,106.375c-0.035,0.068-0.052,0.153-0.052,0.255C270.13,106.562,270.147,106.477,270.147,106.375z M270.556,117.25
				c0.033-0.034,0.051-0.102,0.051-0.204C270.572,117.08,270.556,117.148,270.556,117.25z"/>
		</g>
		<g>
			<g>
				<path fill="#F49D2A" d="M292.529,108.756c-7.268-3.523-14.427,2.874-16.223,9.697c-0.04,0.058-0.076,0.141-0.105,0.263
					c-1.373,5.863-0.59,12.874,5.623,15.493c6.104,2.573,12.896-1.606,15.5-7.116C300.178,121.051,298.979,111.883,292.529,108.756z
					 M295.521,127.147c-2.401,4.009-7.337,6.182-11.9,5.565c-5.7-0.772-7.315-5.744-6.77-10.642c0.06-0.087,0.102-0.229,0.119-0.453
					c0.032-0.415,0.084-0.824,0.155-1.228c0.028-0.125,0.055-0.253,0.084-0.378c0-0.002,0-0.006,0.002-0.008
					c1.291-6.198,7.147-10.877,13.625-9.807C298.723,111.501,298.819,121.638,295.521,127.147z"/>
			</g>
			<g>
				<path fill="#F49D2A" d="M281.006,117.32c-0.859,0.429-0.066,2.979,0.611,2.642C282.479,119.533,281.687,116.983,281.006,117.32z
					"/>
			</g>
			<g>
				<path fill="#F49D2A" d="M291.082,114.707c-0.254,0.538-0.059,1.261,0.188,1.76l0.063,0.13c0.162,0.323,0.648,0.79,0.895,0.265
					c0.256-0.538,0.062-1.261-0.187-1.761l-0.063-0.129C291.818,114.646,291.33,114.181,291.082,114.707z"/>
			</g>
			<g>
				<path fill="#F49D2A" d="M291.73,121.627c-0.239-0.307-0.619-0.278-0.672,0.157c-0.208,1.708-0.914,3.285-2.281,4.372
					c-1.664,1.323-3.343,0.255-4.205-1.37c-0.646-1.214-0.916,0.593-0.58,1.224c0.947,1.783,2.543,3.433,4.693,2.543
					c2.072-0.856,3.129-3.41,3.381-5.475C292.125,122.582,292.045,122.033,291.73,121.627z"/>
			</g>
		</g>
	</g>
</g>
</svg>
