<?xml version="1.0" encoding="utf-8"?>
<!-- Generator: Adobe Illustrator 16.0.0, SVG Export Plug-In . SVG Version: 6.00 Build 0)  -->
<!DOCTYPE svg PUBLIC "-//W3C//DTD SVG 1.1//EN" "http://www.w3.org/Graphics/SVG/1.1/DTD/svg11.dtd">
<svg version="1.1" xmlns="http://www.w3.org/2000/svg" xmlns:xlink="http://www.w3.org/1999/xlink" x="0px" y="0px"
	 width="194.09px" height="157.662px" viewBox="0 0 194.09 157.662" enable-background="new 0 0 194.09 157.662"
	 xml:space="preserve">
<g id="grid" display="none">
</g>
<g id="Layer_1">
	<g>
		<circle fill="#D1A2AF" cx="95.844" cy="77.641" r="66.95"/>
		<g>
			<path fill="#BB8491" d="M126.805,25.97L126.805,25.97c0.085,0,0.173-0.017,0.258-0.048c7.896-2.904,15.608-7.773,22.253-13.976
				c-0.506-0.2-1.014-0.396-1.523-0.591c-6.381,5.84-13.713,10.424-21.202,13.179c-0.346,0.127-0.535,0.459-0.47,0.827
				C126.185,25.72,126.466,25.97,126.805,25.97z"/>
			<path fill="#BB8491" d="M105.311,12.426L105.311,12.426c-22.858,0.677-43.153,6.127-60.32,16.2
				c-9.167,5.379-17.519,12.231-24.822,20.368c-3.438,3.831-6.141,8.271-8.755,12.565c-1.404,2.309-2.841,4.66-4.396,6.931
				c0.028,0.849,0.062,1.697,0.102,2.546c1.944-2.681,3.676-5.568,5.384-8.418c0.792-1.321,1.54-2.569,2.313-3.805
				c2.745-4.384,5.816-8.309,9.387-11.997c3.748-3.87,7.897-7.512,12.335-10.824c15.953-11.906,36.304-19.337,58.85-21.49
				c3.19-0.306,6.452-0.504,9.972-0.609c0.408-0.012,0.701-0.322,0.695-0.738S105.74,12.426,105.311,12.426z"/>
			<path fill="#BB8491" d="M127.476,8.238c-0.126-0.266-0.396-0.444-0.672-0.444c-0.203,0-0.391,0.093-0.529,0.263
				c-3.04,3.737-7.663,5.843-11.351,7.26c-4.459,1.714-9.187,2.909-13.758,4.066l-0.968,0.246
				c-12.775,3.239-22.389,6.125-31.172,9.354C57.9,33.075,48.448,37.784,40.129,43.378c-4.485,3.017-8.805,6.458-12.838,10.229
				c-4.227,3.952-7.991,8.317-11.428,12.444c-0.706,0.849-1.411,1.701-2.116,2.553c-2.065,2.496-4.15,5.015-6.311,7.477
				c0.053,0.675,0.111,1.351,0.173,2.025c2.097-2.345,4.142-4.777,6.182-7.246l0.873-1.06c3.195-3.874,6.5-7.88,10.028-11.563
				c3.819-3.988,8.116-7.751,12.769-11.185c18.407-13.585,40.597-20.129,59.951-25.197c1.237-0.324,2.478-0.639,3.718-0.954
				c4.346-1.104,8.84-2.245,13.145-3.781c4.274-1.525,9.625-3.823,13.104-8.1C127.564,8.794,127.601,8.501,127.476,8.238z"/>
			<path fill="#BB8491" d="M154.412,33.076c-0.096-0.324-0.385-0.551-0.702-0.551c-0.136,0-0.271,0.041-0.394,0.119
				c-2.386,1.538-4.9,2.589-7.475,3.126c-1.554,0.325-3.287,0.477-5.457,0.477c-0.582,0-1.208-0.011-1.971-0.033
				c-3.63-0.103-7.261-0.199-10.891-0.296c-2.031-0.055-4.062-0.11-6.093-0.164c-1.318-0.035-2.637-0.074-3.956-0.115
				c-4.334-0.128-8.815-0.261-13.225-0.261c-5.737,0-10.498,0.221-14.982,0.698c-10.935,1.164-21.525,4.393-31.478,9.596
				c-8.05,4.208-15.705,10.479-23.402,19.169c-3.565,4.026-6.991,8.38-10.304,12.588c-4.435,5.634-8.949,11.367-13.979,16.559
				c0.131,0.563,0.267,1.125,0.408,1.685c5.353-5.429,10.116-11.474,14.792-17.41c3.214-4.082,6.538-8.302,9.976-12.213
				c7.608-8.66,15.324-14.968,23.589-19.288c9.837-5.143,20.618-8.298,32.041-9.376c3.973-0.375,8.333-0.556,13.33-0.556
				c4.422,0,8.92,0.138,13.27,0.272c1.775,0.055,3.549,0.11,5.321,0.157c1.725,0.044,3.477,0.071,5.172,0.095
				c1.226,0.019,2.451,0.038,3.675,0.062c1.262,0.025,2.545,0.085,3.788,0.142c1.366,0.063,2.78,0.128,4.174,0.15
				c0.182,0.002,0.356,0.004,0.546,0.005c5.366,0,9.922-1.255,13.926-3.833C154.384,33.704,154.503,33.387,154.412,33.076z"/>
			<path fill="#BB8491" d="M140.448,9.157c-0.129-0.268-0.391-0.439-0.666-0.439c-0.206,0-0.394,0.096-0.531,0.27
				c-6.522,8.271-16.561,11.775-25.521,14.112c-3.516,0.917-7.103,1.792-10.571,2.64c-6.454,1.575-13.127,3.204-19.61,5.164
				c-10.465,3.165-19.413,6.905-27.354,11.438c-8.68,4.953-16.783,11.025-24.084,18.048c-4.018,3.864-7.831,8.051-11.519,12.1
				c-2.427,2.664-4.937,5.42-7.478,8.054c-1.511,1.564-3.061,3.135-4.66,4.675c0.086,0.588,0.177,1.175,0.272,1.762
				c4.525-4.25,8.733-8.851,12.846-13.349l1.075-1.175c2.872-3.142,5.841-6.388,8.895-9.451c2.994-3.006,6.362-5.968,10.597-9.325
				c8.226-6.518,17.074-11.832,26.299-15.794c9.839-4.226,20.161-7.054,29.853-9.48c2.455-0.615,4.957-1.221,7.377-1.809
				c2.301-0.557,4.68-1.134,7.017-1.716c4.008-1.001,9.241-2.437,14.165-4.676c5.611-2.551,10.157-6.003,13.514-10.259
				C140.544,9.715,140.575,9.42,140.448,9.157z"/>
			<path fill="#BB8491" d="M167.074,39.577c-0.091-0.441-0.534-0.691-0.944-0.514c-4.579,1.986-9.714,2.911-16.163,2.911
				c-0.328,0-0.656-0.003-0.986-0.007c-5.301-0.071-10.968-0.368-17.836-0.933c-1.771-0.146-3.543-0.304-5.316-0.461
				c-6.414-0.571-13.047-1.162-19.59-1.162c-2.58,0-4.964,0.089-7.291,0.27c-10.918,0.853-21.916,4.352-31.806,10.12
				c-9.456,5.515-17.44,12.846-23.34,18.617c-3.791,3.708-7.535,7.646-11.155,11.454c-6.617,6.96-13.385,14.075-20.884,20.273
				c0.156,0.501,0.315,1,0.48,1.498c7.553-6.197,14.389-13.365,21.095-20.403c1.493-1.565,2.98-3.125,4.469-4.669
				c7.88-8.168,14.706-14.77,22.405-20.438c9.439-6.95,19.55-11.579,30.05-13.758c4.822-1.001,10.062-1.488,16.018-1.488
				c5.435,0,10.832,0.398,15.854,0.83c1.174,0.1,2.347,0.203,3.521,0.305c4.42,0.389,8.991,0.791,13.5,1.046l0.838,0.048
				c3.165,0.181,6.437,0.368,9.669,0.368h0c2.68,0,5.052-0.128,7.252-0.394c3.311-0.398,6.581-1.29,9.719-2.65
				C166.976,40.294,167.151,39.947,167.074,39.577z"/>
			<path fill="#BB8491" d="M111.126,30.603c-2.793,0-5.745-0.078-9.023-0.236c-0.004,0-0.034-0.001-0.039-0.001
				c-0.384,0-0.67,0.284-0.678,0.675c-0.009,0.367,0.24,0.769,0.719,0.792c3.247,0.158,6.184,0.234,8.979,0.234c0.001,0-0.002,0,0,0
				c21.693,0,36.492-4.861,46.562-15.297c0.205-0.213,0.262-0.497,0.149-0.762c-0.12-0.281-0.401-0.471-0.701-0.471
				c-0.192,0-0.376,0.08-0.517,0.227c-9.77,10.124-24.211,14.84-45.449,14.84C111.128,30.603,111.127,30.603,111.126,30.603z"/>
			<path fill="#BB8491" d="M96.644,45.556c-0.06-0.448-0.498-0.753-0.931-0.634c-10.296,2.833-18.523,6.87-25.15,12.34
				C65.04,61.82,60.333,67.828,56.57,75.118c-3.699,7.168-6.337,15.202-8.458,21.657l-0.565,1.721
				c-2.398,7.314-4.877,14.877-8.003,22.054c-1.656,3.804-3.352,7.144-5.181,10.208c-0.414,0.694-0.865,1.427-1.349,2.181
				c0.042,0.038,0.081,0.075,0.123,0.112c0.332,0.293,0.665,0.584,0.999,0.872c1.175-1.82,2.236-3.658,3.219-5.409
				c2.218-3.955,4.002-8.334,5.5-12.128c2.18-5.522,4.058-11.253,5.874-16.792c0.702-2.145,1.428-4.362,2.161-6.535
				c2.361-6.993,5.104-14.4,9.162-21.188c4.139-6.926,9.574-12.627,16.152-16.944c5.499-3.609,12.018-6.421,19.928-8.599
				C96.488,46.229,96.693,45.919,96.644,45.556z"/>
			<path fill="#BB8491" d="M65.395,59.934c-0.1-0.313-0.38-0.531-0.684-0.531c-0.142,0-0.283,0.047-0.409,0.136
				c-12.987,9.187-23.895,21.033-34.444,32.486c-4.648,5.048-9.454,10.266-14.366,15.179c-0.278,0.278-0.553,0.546-0.83,0.82
				c0.205,0.473,0.416,0.945,0.631,1.413c5.486-5.395,10.697-11.04,15.81-16.584c5.84-6.334,11.881-12.884,18.206-18.921
				c5.424-5.175,10.594-9.485,15.808-13.173C65.385,60.571,65.493,60.246,65.395,59.934z"/>
			<path fill="#BB8491" d="M24.527,124.224c0.185,0.221,0.374,0.44,0.561,0.659c4.183-6.331,7.547-13.175,10.825-19.861
				c4.404-8.983,8.958-18.273,15.441-26.154c0.188-0.228,0.225-0.521,0.101-0.783c-0.126-0.268-0.397-0.447-0.673-0.447
				c-0.203,0-0.391,0.092-0.529,0.261c-6.534,7.942-11.106,17.269-15.528,26.288c-3.224,6.577-6.529,13.305-10.613,19.533
				C24.28,123.923,24.499,124.19,24.527,124.224z"/>
			<path fill="#BB8491" d="M162.498,53.447c-3.046,0.271-6.299,0.401-9.946,0.401c-1.741,0-3.585-0.03-5.64-0.091
				c-4.758-0.141-9.591-0.45-14.265-0.749c-5.277-0.339-10.734-0.688-16.115-0.795c-1.03-0.021-2.045-0.032-3.018-0.032
				c-9.768,0-17.611,1.042-24.684,3.278c-9.293,2.938-17.928,8.664-24.973,16.558c-0.197,0.219-0.244,0.508-0.125,0.772
				c0.123,0.274,0.399,0.459,0.687,0.459c0.197,0,0.384-0.087,0.523-0.244c7.291-8.168,16.028-13.769,25.972-16.644
				c6.404-1.851,13.56-2.713,22.519-2.713c1.967,0,4.057,0.039,6.391,0.122c4.357,0.154,8.784,0.437,13.065,0.709
				c5.304,0.339,10.789,0.689,16.199,0.798c0.956,0.02,1.922,0.029,2.875,0.029h0.001c4.15,0,8.333-0.187,12.43-0.556
				c5.203-0.469,10.698-1.154,15.655-3.861c0.288-0.157,0.421-0.458,0.343-0.768c-0.087-0.34-0.397-0.586-0.736-0.586
				c-0.123,0-0.244,0.031-0.359,0.094c-5.094,2.782-10.938,3.298-16.589,3.798L162.498,53.447z"/>
			<path fill="#BB8491" d="M105.879,59.024c0.456-0.073,0.67-0.488,0.643-0.84c-0.033-0.411-0.344-0.689-0.777-0.619
				C87.289,60.549,70.006,71.6,58.328,87.883c-9.84,13.721-14.749,30.005-13.821,45.853c0.023,0.396,0.333,0.685,0.738,0.685l0,0
				c0.21,0,0.409-0.082,0.544-0.226c0.131-0.139,0.196-0.327,0.185-0.53c-1.108-18.917,6.292-38.277,20.299-53.118
				C77.134,69.041,91.199,61.397,105.879,59.024z"/>
			<path fill="#BB8491" d="M186.639,67.41c-0.062-0.554-0.134-1.106-0.21-1.659c-2.933,2.013-6.227,3.641-10.07,4.973
				c-6.766,2.347-13.942,3.518-19.438,4.274c-7.979,1.099-16.143,1.765-24.037,2.409c-7.052,0.575-14.345,1.172-21.487,2.071
				c-13.34,1.684-28.646,4.475-41.018,12.408c-9.34,5.989-15.928,14.935-19.049,25.87c-0.063,0.221-0.027,0.438,0.103,0.609
				c0.137,0.182,0.364,0.29,0.607,0.291c0.339,0,0.619-0.21,0.711-0.536c2.048-7.169,5.506-13.341,10.28-18.345
				c4.256-4.459,9.845-8.202,16.612-11.124c13.444-5.804,28.33-7.559,43.675-8.977c3.565-0.329,7.206-0.616,10.727-0.894
				c10.997-0.867,22.369-1.764,33.332-4.092c5.089-1.08,9.673-2.509,14.015-4.37C183.267,69.516,185.032,68.485,186.639,67.41z"/>
			<path fill="#BB8491" d="M184.938,58.421c-12.367,6.189-27.091,7.501-42.33,8.259c-2.311,0.116-4.682,0.216-6.976,0.312
				c-16.926,0.714-34.428,1.453-49.967,8.834c-1.742,0.829-3.517,1.791-5.275,2.86c-0.279,0.17-0.403,0.482-0.317,0.792
				c0.094,0.331,0.387,0.563,0.714,0.563l0,0c0.133,0,0.261-0.038,0.382-0.111c16.084-9.796,35.354-10.632,53.991-11.442
				l3.658-0.161c15.229-0.672,32.216-1.428,46.489-8.461C185.189,59.386,185.068,58.903,184.938,58.421z"/>
			<path fill="#BB8491" d="M187.072,75.833c-13.809,13.708-30.104,28.369-48.695,38.948c-11.55,6.571-22.111,10.548-32.286,12.159
				c-6.709,1.061-13.61,1.377-20.285,1.684c-4.94,0.227-10.049,0.461-15.05,0.996c-7.801,0.834-14.024,2.304-19.583,4.626
				c-0.34,0.143-0.519,0.486-0.446,0.855c0.069,0.343,0.341,0.583,0.663,0.583l0,0c0.093,0,0.188-0.02,0.281-0.059
				c10.653-4.449,22.414-5,33.788-5.532l0.592-0.028c5.794-0.271,11.784-0.552,17.734-1.318c5.664-0.729,11.254-2.073,16.62-3.997
				c23.533-8.438,42.921-24.626,57.183-37.786c3.02-2.786,6.11-5.739,9.451-9.035C187.058,77.229,187.069,76.53,187.072,75.833z"/>
			<path fill="#BB8491" d="M124.411,94.937c8.179-0.872,16.637-1.775,24.854-3.406c3.28-0.649,6.223-1.386,8.995-2.25
				c0.352-0.109,0.551-0.428,0.495-0.793c-0.068-0.451-0.503-0.742-0.937-0.606c-7.779,2.422-16.097,3.552-23.283,4.419
				c-3.223,0.389-6.505,0.746-9.68,1.09c-5.278,0.574-10.735,1.167-16.084,1.928c-16.198,2.306-32.745,6.061-44.056,17.831
				c-2.518,2.621-4.713,5.677-6.525,9.081c-0.124,0.231-0.12,0.485,0.009,0.7c0.136,0.227,0.396,0.374,0.663,0.374
				c0.262,0,0.497-0.143,0.623-0.383c3.589-6.745,9.254-12.451,16.38-16.503c6.06-3.445,13.366-5.965,22.99-7.93
				C107.29,96.763,115.994,95.834,124.411,94.937z"/>
			<path fill="#BB8491" d="M81.365,121.779c0.094,0,0.189-0.02,0.282-0.06c9.12-3.84,18.976-7.769,29.252-10.483
				c3.793-1.002,7.679-1.915,11.438-2.797c5.662-1.328,11.518-2.702,17.188-4.416c7.901-2.388,14.389-5.237,19.837-8.712
				c6.345-4.048,11.728-9.41,15.998-15.938c0.13-0.2,0.155-0.429,0.07-0.632c-0.068-0.16-0.2-0.292-0.366-0.372
				c-0.151-0.326-0.518-0.498-0.876-0.374c-5.483,1.89-11.476,3.215-19.43,4.299c-4.741,0.645-9.82,1.313-14.841,1.827
				c-2.822,0.287-5.696,0.557-8.476,0.817c-6.96,0.653-14.157,1.328-21.199,2.35c-11.075,1.605-19.832,3.817-27.558,6.962
				c-9.162,3.726-16.951,9.034-23.151,15.777c-0.199,0.216-0.25,0.504-0.134,0.768c0.122,0.278,0.399,0.464,0.692,0.464
				c0.196,0,0.381-0.085,0.521-0.237c6.393-6.953,14.617-12.381,24.446-16.134c10.112-3.86,20.74-5.57,28.869-6.628
				c5.893-0.767,11.909-1.33,17.729-1.872c3.406-0.319,6.929-0.646,10.389-1.013c5.238-0.556,10.443-1.273,14.395-1.836
				c6.561-0.935,11.941-2.113,16.833-3.692c-5.285,7.608-12.451,13.626-21.316,17.901c-8.914,4.3-18.815,6.637-27.55,8.702
				l-1.864,0.438c-6.469,1.524-13.157,3.099-19.624,5.089c-7.095,2.182-14.055,5.115-20.786,7.951l-0.987,0.416
				c-0.34,0.143-0.518,0.487-0.444,0.856C80.773,121.54,81.045,121.779,81.365,121.779z"/>
			<path fill="#BB8491" d="M186.578,85.037c0.014-0.139,0.025-0.277,0.038-0.417c-2.365,2.851-4.768,5.506-7.257,8.016
				c-7.594,7.655-16.228,14.554-25.661,20.504c-8.815,5.559-18.621,10.396-29.144,14.377c-10.632,4.021-21.308,7.032-31.729,8.948
				c-3.493,0.642-7.125,1.115-10.639,1.571c-9.293,1.209-18.885,2.46-27.341,6.966c0.593,0.245,1.186,0.491,1.778,0.733
				c8.001-3.959,17.078-5.135,25.884-6.276c1.699-0.22,3.456-0.448,5.165-0.692c10.125-1.439,20.632-4.05,32.124-7.979
				c21.371-7.307,40.067-18.173,55.57-32.297c3.95-3.598,7.618-7.362,10.958-11.235C186.423,86.496,186.51,85.752,186.578,85.037z"
				/>
			<path fill="#BB8491" d="M66.405,149.583c0.253,0.095,0.508,0.189,0.762,0.284c9.549-2.77,19.514-4.424,29.312-6.046
				c1.651-0.273,3.299-0.545,4.938-0.824c9.535-1.61,20.573-3.638,30.891-7.315c8.424-3.001,17.164-7.568,27.503-14.373
				c7.271-4.786,14.322-10.146,21.037-15.982c0.7-1.25,1.388-2.507,2.059-3.772c-4.82,4.36-9.98,8.582-15.44,12.618
				c-8.846,6.54-17.936,12.1-27.021,16.529c-10.179,4.962-21.084,7.471-30.408,9.271c-4.651,0.896-9.443,1.686-14.078,2.449
				c-10.359,1.705-20.945,3.451-31.1,6.574C65.376,149.191,65.892,149.392,66.405,149.583z"/>
		</g>
		<g>
			<g>
				<g>
					<path fill="#CAE4E5" d="M143.113,118.372c-0.153,0-0.307-0.02-0.458-0.06l-20.844-5.593l-22.755,5.602
						c-0.304,0.075-0.623,0.067-0.923-0.02l-22.346-6.597c-0.752-0.222-1.268-0.912-1.268-1.695V42.767
						c0-0.545,0.251-1.06,0.681-1.395c0.43-0.335,0.99-0.452,1.519-0.319l21.92,5.522l22.77-5.606
						c0.29-0.07,0.593-0.068,0.881,0.009l21.283,5.711c0.772,0.207,1.309,0.907,1.309,1.708v68.207c0,0.551-0.255,1.068-0.692,1.403
						C143.876,118.247,143.498,118.372,143.113,118.372z M78.054,108.688l20.621,6.085l22.732-5.596
						c0.29-0.071,0.593-0.068,0.881,0.009l19.057,5.113V49.753l-19.534-5.241l-22.755,5.602c-0.281,0.068-0.575,0.068-0.854-0.002
						l-20.147-5.076V108.688z"/>
				</g>
				<rect x="121.838" y="65.037" fill="none" width="0" height="0.401"/>
				<rect x="121.838" y="75.204" fill="none" width="0" height="1.742"/>
				<rect x="121.837" y="69.808" fill="none" width="0.001" height="2.388"/>
				<rect x="121.838" y="50.727" fill="none" width="0" height="0.825"/>
				<rect x="121.838" y="45.851" fill="none" width="0" height="3.062"/>
				<rect x="121.838" y="52.582" fill="none" width="0" height="3.268"/>
				<rect x="121.838" y="93.902" fill="none" width="0" height="4.043"/>
				<rect x="121.838" y="98.737" fill="none" width="0" height="2.811"/>
				<rect x="121.838" y="105.686" fill="none" width="0" height="0.129"/>
				<rect x="121.838" y="57.626" fill="none" width="0" height="0.64"/>
				<rect x="121.838" y="60.669" fill="none" width="0" height="0.89"/>
				<rect x="121.838" y="80.469" fill="none" width="0" height="12.618"/>
				<rect x="121.838" y="107.828" fill="none" width="0" height="0.691"/>
				<path fill="#D1ECF0" d="M77.956,103.777c-0.039-0.013-0.076-0.03-0.115-0.042c-0.564-0.18-0.363-1.19,0.202-1.009
					c0.019,0.007,0.038,0.016,0.058,0.02c0.103-0.002,0.205,0.022,0.302,0.107c1.789,0.624,4.659,4.231,5.469,6.585
					c-1.813-5.382-5.07-13.57-4.416-19.819c-1.067,0.252-2.016,0.752-2.718,1.701c0.188,1.859,0.341,3.729,0.355,5.602
					c0.004,0.522-0.518,0.686-0.799,0.456v12.59l5.455,1.61c-0.719-2.189-1.419-4.442-2.193-6.023
					C79.073,104.914,78.539,104.315,77.956,103.777z"/>
				<path fill="#D1ECF0" d="M96.179,75.766c-0.482,0.354-1.378,1.167-0.586,1.823c0.861,0.711,1.972,0.687,3.047,0.341v-2.401
					c-0.138-0.037-0.278-0.067-0.42-0.089C97.54,75.339,96.783,75.324,96.179,75.766z"/>
				<path fill="#D1ECF0" d="M94.845,63.249c-0.644,0.125-1.287,0.258-1.928,0.404c0.398-0.017,0.796-0.027,1.194-0.032
					C94.327,63.437,94.575,63.316,94.845,63.249z"/>
				<path fill="#D1ECF0" d="M94.673,77.25c-0.193-1.362,1.21-2.401,2.257-2.546c0.601-0.084,1.167-0.038,1.71,0.101v-3.829
					c-0.282-0.08-0.57-0.167-0.859-0.267c-3.136,0.065-6.249,0.345-9.325,0.892c2.368-0.148,4.749-0.1,7.136,0.194h0.003v0.002
					c0.042,0.005,0.082,0.007,0.127,0.012c0.277,0.036,0.384,0.277,0.369,0.526c0.322,0.005,0.644,0.001,0.968,0.014
					c0.625,0.025,0.673,1.045,0.041,1.106c-4.006,0.389-7.962,1.096-11.864,2.113c2.962-0.276,5.934-0.443,8.897-0.731
					c0.645-0.062,0.644,0.989,0.043,1.105c-2.624,0.508-5.221,1.14-7.791,1.88c-0.838,0.513-1.673,1.025-2.514,1.527
					c3.259-0.225,5.628-0.261,7.582-0.366c0.638-0.036,0.656,1.014,0.042,1.103c-3.156,0.462-6.259,1.264-9.387,1.904
					c1.578,0.298,3.15,0.641,4.735,0.898c0.641,0.08,1.286,0.168,1.933,0.253c0.57,0.073,0.438,0.963-0.058,1.064
					c-0.045,0.017-0.091,0.033-0.147,0.028c-0.117-0.008-0.369-0.049-0.698-0.106c-2.634-0.36-5.278-0.758-7.67,0.167
					c-0.073,0.14-0.146,0.277-0.219,0.417c2.208-0.18,4.597,0.515,6.837,0.561c0.082-0.018,0.162-0.027,0.245-0.045
					c0.124-0.031,0.229-0.002,0.322,0.049c0.302-0.012,0.604-0.031,0.899-0.075c0.625-0.091,0.659,1.012,0.042,1.105
					c-0.037,0.005-0.075,0.004-0.112,0.009c-0.04,0.147-0.132,0.27-0.314,0.312c-0.859,0.203-1.707,0.165-2.561-0.032
					c-0.769,0.06-1.538,0.056-2.315-0.012c-0.113-0.011-0.202-0.063-0.277-0.13c-0.996,0.004-1.989,0.024-2.979,0.169
					c-0.579,0.329-1.097,0.776-1.543,1.337c2.883-0.792,6.031,0.405,9.022,0.282c0.17-0.007,0.293,0.071,0.376,0.187
					c0.357,0.202,0.303,0.978-0.212,1.058c-1.919,0.294-4.525-0.248-6.814-0.044c-0.536,5.282,2.133,9.524,4.729,13.655
					c0.716-6.685,4.251-12.713,8.155-17.646l0.024-0.048c0.043-0.08,0.095-0.134,0.153-0.175c0.073-0.092,0.148-0.189,0.222-0.281
					c0.399-0.492,1.058,0.223,0.662,0.714c-0.106,0.129-0.212,0.266-0.318,0.399c-2.807,5.331-5.169,11.492-6.337,17.686
					C90.14,98.702,95.443,96.02,98.64,91.6V78.674c-0.461,0.131-0.924,0.203-1.378,0.2C96.35,78.866,94.853,78.503,94.673,77.25z"/>
				<path fill="#D1ECF0" d="M93.265,66.738c-0.024-0.121-0.041-0.244-0.052-0.369c-0.792,0.107-1.583,0.226-2.372,0.364
					C91.648,66.707,92.457,66.709,93.265,66.738z"/>
				<path fill="#D1ECF0" d="M95.197,105.151c1.707-1.283,2.82,0.91,3.443,3.051V95.901c-2.173,3.035-5.137,4.919-7.498,8.804
					c-1.896,3.117-2.296,6.314-2.636,8.867l7.448,2.199c-0.762-2.254-1.697-4.433-1.758-6.911
					C94.167,107.694,94.212,105.892,95.197,105.151z"/>
				<path fill="#D1ECF0" d="M89.469,60.801c2.932-1.447,6.021-2.565,9.171-3.283v-3.759C95.396,55.759,92.322,58.098,89.469,60.801z
					"/>
				<path fill="#D1ECF0" d="M94.997,60.517c1.208-0.147,2.424-0.212,3.643-0.193v-0.912C97.418,59.747,96.202,60.113,94.997,60.517z
					"/>
				<path fill="#D1ECF0" d="M95.078,63.204c0.78-0.104,1.674,0.168,2.33,0.531c0.411,0.032,0.821,0.073,1.232,0.12v-1.223
					C97.448,62.79,96.261,62.98,95.078,63.204z"/>
				<path fill="#D1ECF0" d="M94.421,47.292l-2.388-0.602c-1.988,3.567-3.776,7.283-5.286,11.135
					C88.979,53.999,91.522,50.458,94.421,47.292z"/>
				<path fill="#D1ECF0" d="M90.365,46.271l-2.71-0.682c-2.462,4.947-4.367,10.22-5.312,15.766
					C84.271,55.895,87.16,50.94,90.365,46.271z"/>
				<path fill="#D1ECF0" d="M95.431,68.802c0.07,0.058,0.143,0.112,0.217,0.167c1.003,0.14,2.001,0.326,2.993,0.569v-0.806
					C97.567,68.724,96.498,68.747,95.431,68.802z"/>
				<path fill="#D1ECF0" d="M78.813,50.673c0.157-0.55,1.003-0.573,0.961,0.095c-0.273,4.299-0.448,8.612-0.239,12.895
					c0.226-6.088,1.308-12.059,3.952-17.551c0.261-0.543,1.036-0.237,0.906,0.377c-0.316,1.521-0.616,3.05-0.898,4.582
					c0.746-2.035,1.693-3.981,2.9-5.798l-10.102-2.545v24.79c0.091,0.511,0.189,1.019,0.298,1.524
					C76.137,62.872,77.093,56.668,78.813,50.673z"/>
				<path fill="#D1ECF0" d="M93.954,66.27c0.02,0.174,0.052,0.343,0.095,0.505c1.531,0.09,3.062,0.29,4.591,0.609v-1.533
					C97.072,65.941,95.51,66.076,93.954,66.27z"/>
				<path fill="#D1ECF0" d="M98.64,51.063v-2.707l-2.701-0.681c-3.293,3.72-6.168,7.893-8.644,12.37
					C90.64,56.357,94.459,53.288,98.64,51.063z"/>
				<path fill="#A3CBCE" d="M101.662,76.472c0.034,0.027,0.058,0.06,0.079,0.092c1.747,0.631,3.571,1.421,5.073,2.658
					c-1.759-2.886-3.797-5.55-6.052-7.875c-0.592-0.034-1.335-0.159-2.121-0.372v3.829C99.723,75.08,100.708,75.724,101.662,76.472z
					"/>
				<path fill="#A3CBCE" d="M112.472,70.913c1.438,0.042,2.917-0.737,3.527-2.267c0.308-0.766,0.736-2.338,0.053-3.028
					c-0.981-0.995-2.471,0.542-2.935,1.486c-0.52,1.061-1.04,2.558-0.649,3.773C112.472,70.891,112.469,70.901,112.472,70.913z"/>
				<path fill="#A3CBCE" d="M121.838,42.646l-0.479,0.117c0.163,0.195,0.323,0.395,0.479,0.598V42.646z"/>
				<path fill="#A3CBCE" d="M120.154,81.896c0.613-0.82,1.363-1.842,1.52-2.946c0.179-1.257-0.707-2.506-1.892-2.444
					c-2.838,0.146-4.037,6.211-3.477,9.019C117.632,84.351,119.039,83.388,120.154,81.896z"/>
				<path fill="#A3CBCE" d="M100.902,76.764c-0.704-0.532-1.437-1.016-2.262-1.235v2.401
					C99.456,77.667,100.253,77.219,100.902,76.764z"/>
				<path fill="#A3CBCE" d="M109.298,63.715c-0.085-1.025-0.271-3.181-1.251-3.7c-0.752-0.4-1.701,0.586-1.982,1.333
					c-0.374,0.989-0.293,2.071,0.016,3.073c0.453,1.462,1.153,2.833,2.083,3.974C108.892,66.899,109.441,65.459,109.298,63.715z"/>
				<path fill="#A3CBCE" d="M119.7,98.823c0.717-0.256,1.445-0.529,2.138-0.878v-4.043C120.49,94.875,119.965,97.015,119.7,98.823z"
					/>
				<path fill="#A3CBCE" d="M116.304,86.454c-0.008,0.017-0.012,0.034-0.021,0.051c-1.448,2.184-2.3,4.71-2.656,7.401
					c-0.009,0.076-0.039,0.129-0.073,0.174c0.377,1.483,0.724,2.979,1.048,4.484c0.046,0.12,0.098,0.237,0.146,0.357
					c0.043,0.112,0.032,0.207-0.01,0.282c0.335,1.584,0.644,3.177,0.932,4.778c0.425-0.872,0.918-1.709,1.463-2.498
					c-0.028-0.069-0.06-0.138-0.085-0.21c-0.022-0.062-0.016-0.118,0.007-0.163c-0.029-0.101,0.004-0.225,0.121-0.25
					c0.154-0.031,0.308-0.055,0.46-0.073c0.433-0.571,0.893-1.113,1.375-1.621c0-0.012-0.004-0.023-0.003-0.039
					c0.26-2.022,0.632-4.02,2.04-5.432c0.225-0.226,0.496-0.436,0.79-0.61V80.469C120.46,83.186,118.344,84.517,116.304,86.454z"/>
				<path fill="#A3CBCE" d="M118.532,100.74c1.131,0.021,2.244,0.333,3.306,0.808v-2.811c-0.779,0.37-1.591,0.657-2.358,0.929
					C119.153,100.01,118.837,100.369,118.532,100.74z"/>
				<path fill="#A3CBCE" d="M99.205,70.414c0.484,0.097,0.947,0.159,1.362,0.19c-0.114-0.637-0.266-1.316-0.468-1.986
					c-0.075,0.086-0.181,0.141-0.317,0.136c-0.381-0.011-0.762-0.019-1.142-0.022v0.806c0.083,0.021,0.167,0.038,0.25,0.06
					C99.239,69.688,99.334,70.12,99.205,70.414z"/>
				<path fill="#A3CBCE" d="M117.954,47.091c-0.045,0.82-0.275,1.697-0.424,2.35c-0.245,1.067-0.513,2.174-0.914,3.188
					c0.013,0.039,0.011,0.086-0.012,0.134c-0.088,0.188-0.182,0.375-0.274,0.561c1.84-0.544,3.657-1.243,5.509-1.771v-0.825
					C120.71,49.312,119.292,48.25,117.954,47.091z"/>
				<path fill="#A3CBCE" d="M120.997,53.213c-1.721,1.542-3.786,2.293-5.915,2.332c-0.573,0.896-1.208,1.738-1.912,2.477
					c-0.001,0.001-0.002,0.003-0.005,0.005c2.956-0.513,5.895-1.059,8.673-2.177v-3.268
					C121.567,52.809,121.286,53.019,120.997,53.213z"/>
				<path fill="#A3CBCE" d="M121.031,75.565c-0.004,0.023-0.011,0.044-0.016,0.068c-0.056,0.282-0.442,0.184-0.387-0.1
					c0.244-1.208,0.664-2.317,1.209-3.338v-2.389c-1.148,1.122-2.37,2.12-3.731,2.614h-0.003c-0.063,0.262-0.43,0.162-0.381-0.115
					c0.513-2.892,2.115-5.146,4.115-6.868v-0.401c-1.61,1.199-3.164,2.49-4.638,3.904c-0.048,0.047-0.101,0.062-0.153,0.056
					c-0.06,0.269-0.432,0.168-0.383-0.112c0.019-0.104,0.044-0.202,0.065-0.304c-0.05,0.141-0.104,0.279-0.162,0.409
					c-0.813,1.818-2.485,2.721-4.24,2.637c-2.273,2.092-3.516,5.096-4.013,8.32c-0.017,0.115-0.071,0.192-0.138,0.235
					c1.856,3.259,3.369,6.765,4.414,10.354c0.206,0.701,0.392,1.411,0.583,2.117c0.439-2.355,1.278-4.544,2.549-6.502
					c0.006-0.033,0.019-0.068,0.04-0.1c-0.783-2.865,0.649-11.04,4.32-10.245c0.792,0.172,1.382,0.584,1.756,1.14v-1.742
					C121.571,75.332,121.304,75.453,121.031,75.565z"/>
				<path fill="#A3CBCE" d="M102.95,65.717c-1.147,0.005-2.293,0.036-3.435,0.088c0.929,1.438,1.46,3.246,1.737,4.983
					c0.006,0.028,0,0.056,0,0.082c2.352,2.432,4.493,5.245,6.33,8.299c0.309-3.345,0.654-6.792,0.269-10.133
					c-0.038-0.018-0.076-0.042-0.11-0.084c-1.297-1.582-2.714-4.091-2.574-6.353c0.088-1.423,1.054-3.582,2.586-3.421
					c1.415,0.148,1.866,2.203,2.075,3.494c0.386,2.382-0.185,4.243-1.22,6.325c-0.027,0.056-0.065,0.09-0.104,0.12
					c0.277,2.488,0.151,5.031-0.055,7.549c0.702-2.085,1.789-3.96,3.324-5.45c0.015-0.056,0.04-0.11,0.072-0.158
					c-0.493-1.604,0.241-3.835,1.17-5.061c0.708-0.929,2.527-2.142,3.484-0.907c0.528,0.68,0.619,1.623,0.478,2.519
					c0.837-2.741,2.641-4.647,4.862-6.05v-0.891c-2.873,1.547-5.788,2.991-8.753,4.284c-0.157,0.068-0.326-0.16-0.232-0.323
					c2.062-3.574,5.438-5.167,8.985-6.364v-0.64c-2.885,1.488-6.287,1.78-9.389,1.102c-0.454,0.401-0.962,0.75-1.486,0.851
					c-0.637,0.123-0.442-0.697-0.257-1.062c0.241-0.471,0.521-0.926,0.828-1.36c-0.436,0.266-0.882,0.498-1.338,0.667
					c-0.396,0.15-2.158,0.583-2.017-0.484c0.115-0.878,1.514-1.541,2.099-1.877c0.331-0.189,0.682-0.388,1.038-0.577
					c-0.093-0.035-0.186-0.076-0.278-0.114c-1.884,0.225-4.165,0.271-3.712-1.174c0.202-0.644,0.818-0.967,1.469-1.146
					c-0.098-0.016-0.195-0.029-0.29-0.048c-0.631-0.118-1.493-0.277-1.944-0.857c-0.216-0.277-0.462-0.802-0.218-1.154
					c0.66-0.959,2.54-0.507,3.413-0.376c0.101,0.016,0.2,0.036,0.301,0.051c-0.337-0.17-0.671-0.348-0.995-0.544
					c-0.217-0.132-0.512-0.309-0.825-0.521c-3.327,1.289-6.537,2.872-9.595,4.757v3.759c2.618-0.597,5.278-0.921,7.925-0.921
					c0.64,0,0.656,1.009,0.042,1.107c-2.685,0.42-5.344,0.99-7.967,1.709v0.912c1.864,0.027,3.738,0.254,5.613,0.706
					c0.545,0.132,0.47,1.065-0.083,1.093c-1.852,0.096-3.697,0.265-5.53,0.508v1.223c1.469,0.164,2.937,0.415,4.395,0.77
					C103.569,64.752,103.51,65.713,102.95,65.717z"/>
				<path fill="#A3CBCE" d="M98.799,65.841c-0.053,0.002-0.106,0.007-0.159,0.01v1.533c0.374,0.077,0.747,0.161,1.121,0.255
					C99.503,66.983,99.186,66.368,98.799,65.841z"/>
				<path fill="#A3CBCE" d="M120.429,108.017c-0.173,0.418-0.277,0.875-0.364,1.337c0.618-0.076,1.288-0.398,1.773-0.834v-0.691
					C121.384,107.963,120.908,108.02,120.429,108.017z"/>
				<path fill="#A3CBCE" d="M116.405,45.919c0.025-0.073,0.058-0.139,0.092-0.2c-0.208-0.22-0.408-0.452-0.6-0.689
					c0.159,0.567,0.242,1.145,0.289,1.73C116.24,46.469,116.312,46.186,116.405,45.919z"/>
				<path fill="#A3CBCE" d="M113.353,112.729c-1.207,0.432-2.694,0.592-3.823-0.172c-0.93-0.628-1.344-2.439-0.641-3.44
					c0.7-0.995,2.025-0.726,2.914-0.245c1.224,0.664,2.045,1.698,2.042,3.284c0.304,0.127,0.6,0.277,0.888,0.445l1.595-0.393
					c-0.256-1.864-0.528-3.733-0.831-5.603c-0.08-0.013-0.158-0.065-0.204-0.178c-0.931-2.21-2.851-3.312-4.842-3.946
					c-1.576,0.66-3.591,1.336-5.214,0.502c-0.813-0.418-1.705-1.375-1.092-2.458c0.59-1.042,1.797-1.617,2.875-1.523
					c1.564,0.135,2.747,1.271,3.533,2.752c1.782,0.562,3.529,1.5,4.653,3.152c-0.343-2.003-0.732-3.994-1.156-5.973
					c-1.308-3.346-3.208-6.459-5.956-8.464c-0.009,0.002-0.016,0.009-0.028,0.009c-1.835,0.13-7.103-0.704-6.31-3.936
					c0.461-1.88,2.243-2.144,3.539-1.226c1.566,1.11,2.783,2.743,3.391,4.722c0,0.003,0,0.007,0,0.009
					c1.94,1.496,3.454,3.501,4.647,5.755c-0.415-1.704-0.854-3.398-1.357-5.057c-0.922-3.048-2.152-6.023-3.637-8.837
					c-0.048-0.025-0.091-0.061-0.129-0.121c-1.529-2.493-4.288-3.686-6.754-4.564c-0.825,0.613-1.812,1.165-2.816,1.448V91.6
					c0.68-0.94,1.267-1.958,1.708-3.095c0.096-0.246,0.284-0.308,0.459-0.258c0.274-0.036,0.599,0.208,0.541,0.616
					c-0.456,3.14-1.449,5.282-2.708,7.038v12.301c0.146,0.502,0.264,0.999,0.357,1.449c0.47-2.022,0.931-4.313,2.385-5.551
					c1.117-0.954,3.627-1.688,4.715-0.229c1.008,1.35,0.341,3.283-0.293,4.648c-0.51,1.095-1.185,1.925-1.957,2.635
					c0.887-0.221,1.781-0.23,2.578,0.17c1.024,0.515,1.595,1.653,1.301,2.913c-0.007,0.032-0.018,0.064-0.026,0.096l5.991-1.476
					c-0.108-0.047-0.217-0.093-0.329-0.135C113.357,112.727,113.357,112.728,113.353,112.729z"/>
				<path fill="#A3CBCE" d="M118.436,111.69l3.402-0.837v-1.464c-0.629,0.444-1.374,0.735-2.069,0.709
					C119.283,110.586,118.843,111.123,118.436,111.69z"/>
				<path fill="#A3CBCE" d="M109.755,45.62l-0.508,0.125c0.354,0.195,0.673,0.416,0.905,0.6
					C110.014,46.12,109.875,45.873,109.755,45.62z"/>
				<path fill="#A3CBCE" d="M121.838,48.912v-3.062c-0.667-0.903-1.348-1.797-1.995-2.715L116.335,44
					c1.343,0.938,2.676,1.911,3.874,3.071C120.785,47.627,121.358,48.232,121.838,48.912z"/>
				<path fill="#A3CBCE" d="M106.97,47.916c-0.374-0.442-0.614-0.942-0.54-1.478l-7.79,1.918v2.707
					C101.282,49.658,104.066,48.587,106.97,47.916z"/>
				<path fill="#A3CBCE" d="M111.659,109.604c-0.569-0.31-1.948-0.877-2.325,0.073c-0.496,1.25,0.3,2.429,1.397,2.614
					c0.817,0.139,1.65,0.021,2.436-0.26c0.01-0.004,0.019-0.001,0.029-0.004C113.148,110.885,112.58,110.103,111.659,109.604z"/>
				<path fill="#A3CBCE" d="M117.47,102.171c-0.552,0.817-1.044,1.685-1.459,2.594c-0.042,0.094-0.103,0.143-0.17,0.169
					c0.413,2.368,0.775,4.745,1.111,7.121l0.519-0.128c0.563-0.876,1.185-1.7,1.91-2.414c0.001-0.002,0.002-0.006,0.003-0.009
					c0.002-0.012-0.002-0.022,0-0.034c0.093-0.509,0.203-1.021,0.369-1.495c-0.553-0.063-1.098-0.193-1.603-0.364
					c-0.144-0.047-0.139-0.284-0.014-0.352c1.19-0.629,2.426-1.109,3.702-1.445v-0.129
					C120.229,104.911,118.445,103.845,117.47,102.171z"/>
				<path fill="#A3CBCE" d="M105.221,86.126c-0.575-0.408-1.481-0.985-2.136-0.442c-0.498,0.409-1.045,1.323-0.639,2.028
					c0.963,1.667,3.768,2.129,5.449,2.047C107.35,88.302,106.406,86.967,105.221,86.126z"/>
				<path fill="#A3CBCE" d="M113.786,47.64c-0.069-0.313-0.127-0.623-0.178-0.914c-0.091-0.514-0.254-1.308-0.213-2.002
					l-1.164,0.287c0.14,0.204,0.254,0.384,0.337,0.513C113.006,46.208,113.406,46.917,113.786,47.64z"/>
				<path fill="#A3CBCE" d="M107.043,99.733c-0.776-0.011-1.937,0.248-2.332,1.139c-0.588,1.326,1.535,1.779,2.269,1.746
					c1.005-0.047,1.966-0.321,2.91-0.688C109.252,100.815,108.267,99.75,107.043,99.733z"/>
				<path fill="#E0EDEE" d="M128.123,65.872c3.082-1.919,6.423-3.242,9.822-4.238c-0.769-0.615-1.548-1.214-2.333-1.803
					c-0.015,0.041-0.041,0.077-0.086,0.105c-3.546,2.095-7.438,3.741-10.544,6.663c-1.021,0.959-2.05,2.139-3.144,3.208v2.388
					C123.294,69.473,125.667,67.399,128.123,65.872z"/>
				<path fill="#E0EDEE" d="M132.569,57.585c-0.02-0.015-0.039-0.029-0.059-0.044c-0.779-0.573-1.566-1.143-2.364-1.694
					c-0.016,0.029-0.038,0.055-0.07,0.074c-2.71,1.654-5.455,3.25-8.238,4.748v0.89C125.093,59.501,129.245,58.524,132.569,57.585z"
					/>
				<path fill="#E0EDEE" d="M122.026,51.498c0.05-0.044,0.102-0.055,0.152-0.042c0.054-0.015,0.107-0.029,0.162-0.044
					c-0.159-0.238-0.329-0.465-0.503-0.685v0.825C121.901,51.534,121.963,51.515,122.026,51.498z"/>
				<path fill="#E0EDEE" d="M129.52,55.625c0.013-0.005,0.024-0.003,0.036-0.005c0.038-0.031,0.075-0.061,0.11-0.094
					c-0.723-0.489-1.458-0.957-2.203-1.398c-0.326-0.172-0.657-0.339-0.985-0.506c-0.028,0.053-0.059,0.106-0.09,0.158
					c-0.008,0.035-0.028,0.066-0.058,0.095c-0.336,0.516-0.773,0.926-1.24,1.286c-0.955,1.04-2.06,1.852-3.25,2.465v0.64
					C124.458,57.383,127.171,56.714,129.52,55.625z"/>
				<path fill="#E0EDEE" d="M125.661,53.815c0.048-0.062,0.094-0.125,0.142-0.187c0.047-0.091,0.086-0.186,0.126-0.28
					c-0.745-0.373-1.494-0.736-2.247-1.089c-0.359-0.141-0.722-0.272-1.089-0.391c-0.241,0.257-0.493,0.494-0.755,0.714v3.268
					C123.153,55.32,124.434,54.662,125.661,53.815z"/>
				<path fill="#E0EDEE" d="M122.929,51.385c0.002,0.014,0.002,0.028,0.002,0.04c0.333,0.155,0.668,0.309,1,0.464
					c0.549,0.218,1.091,0.46,1.625,0.721c-0.026-0.113-0.051-0.226-0.083-0.335v-0.001c-0.795-2.433-2.179-4.452-3.634-6.424v3.062
					C122.351,49.641,122.754,50.454,122.929,51.385z"/>
				<path fill="#E0EDEE" d="M141.466,113.417c-1.064-0.284-2.086-0.943-3.082-1.411c-1.49-0.701-2.984-1.382-4.471-2.089
					c-2.557-1.221-5.098-2.52-7.478-4.146c-0.251-0.172-0.503-0.345-0.751-0.524c-0.049,0.134-0.107,0.264-0.161,0.395
					c-0.211,0.536-0.444,1.062-0.713,1.566c-0.529,0.989-1.023,2.06-1.714,2.918c-0.288,0.356-0.533,0.291-0.602-0.021
					c-0.095-0.019-0.181-0.116-0.138-0.249c0.132-0.401,0.232-0.818,0.326-1.235c-0.237,0.283-0.527,0.543-0.844,0.768v1.464
					l20.854,5.596c-0.413-0.949-0.819-1.903-1.237-2.851C141.423,113.529,141.433,113.467,141.466,113.417z"/>
				<path fill="#CAE4E5" d="M140.368,80.064c0.513,1.146,0.942,2.336,1.11,3.592c0.06-0.07,0.118-0.14,0.177-0.208
					c0.346-0.989,0.843-1.902,1.464-2.698v-2.652c-0.981,0.577-1.965,1.147-2.952,1.713
					C140.294,79.776,140.436,79.92,140.368,80.064z"/>
				<path fill="#E0EDEE" d="M141.355,89.936c-0.071,0.417-0.141,0.833-0.212,1.25c-0.746,4.403-1.486,8.786-1.715,13.274
					c1.143,2.532,2.41,4.989,3.691,7.436V90.21c-0.44,0.002-0.88-0.045-1.312-0.148C141.655,90.027,141.505,89.985,141.355,89.936z"
					/>
				<path fill="#E0EDEE" d="M122.695,97.455c-0.014-0.015-0.028-0.032-0.042-0.047c-0.159-0.163,0.033-0.478,0.195-0.313
					c0.048,0.05,0.093,0.103,0.139,0.153c0.042-0.029,0.085-0.058,0.126-0.088c0.553-0.424,1.196-1.015,1.27-1.832
					c0.072-0.814-0.138-2.011-1.068-1.953c-0.581,0.037-1.065,0.229-1.476,0.526v4.043
					C122.131,97.797,122.418,97.636,122.695,97.455z"/>
				<path fill="#E0EDEE" d="M122.062,108.298c0.182-0.204,0.408-0.486,0.555-0.794c-0.25,0.138-0.51,0.245-0.778,0.324v0.691
					C121.917,108.448,121.993,108.374,122.062,108.298z"/>
				<path fill="#E0EDEE" d="M122.007,105.767c-0.056-0.026-0.113-0.054-0.169-0.081v0.129
					C121.894,105.8,121.95,105.781,122.007,105.767z"/>
				<path fill="#E0EDEE" d="M123.444,102.398c-0.305-1.373-0.645-2.748-0.665-4.162c-0.304,0.185-0.621,0.349-0.941,0.501v2.811
					C122.388,101.794,122.925,102.081,123.444,102.398z"/>
				<path fill="#E0EDEE" d="M124.539,63.527c3.331-1.94,6.956-3.084,10.584-4.062c-0.602-0.446-1.204-0.888-1.806-1.33
					c-2.908,1.271-5.746,3.002-8.431,4.77c-1.034,0.68-2.052,1.389-3.048,2.132v0.401C122.685,64.709,123.601,64.073,124.539,63.527
					z"/>
				<path fill="#E0EDEE" d="M137.842,60.456c-0.022,0.059-0.059,0.092-0.099,0.108c0.324,0.273,0.651,0.546,0.972,0.825
					c0.057-0.037,0.499,0.343,0.418,0.366c0.592,0.521,1.173,1.055,1.756,1.587c0.008-0.027,0.017-0.055,0.024-0.082
					c0.767-5.53-0.605-11.048-2.553-16.183l-0.288-0.077C139.724,51.103,139.479,56.412,137.842,60.456z"/>
				<path fill="#E0EDEE" d="M141.299,63.357c-0.012,0.093-0.023,0.185-0.037,0.278c-0.003,0.015-0.01,0.021-0.013,0.032
					c0.183,0.169,0.373,0.333,0.556,0.503c0.44,0.407,0.878,0.82,1.314,1.236V56.27c-0.573-2.779-1.213-5.548-1.65-8.356
					l-0.407-0.109c0.381,1.142,0.655,2.333,0.836,3.505C142.505,55.254,142.426,59.529,141.299,63.357z"/>
				<path fill="#E0EDEE" d="M131.103,55.679c0.555,0.34,1.107,0.689,1.648,1.057c0.275,0.186,0.545,0.384,0.816,0.575
					c0.079,0,0.137,0.049,0.168,0.12c0.752,0.538,1.494,1.092,2.224,1.669c-1.72-4.403-4.153-8.245-6.498-12.242
					c-0.476-0.811-0.987-1.669-1.483-2.565l-0.258-0.069c0.9,1.916,1.682,3.909,2.318,5.958
					C130.53,51.766,131.415,53.933,131.103,55.679z"/>
				<path fill="#E0EDEE" d="M136.359,58.947c0.024,0.085,0.049,0.171,0.077,0.257c0.052,0.137,0.11,0.273,0.16,0.412
					c0.295,0.238,0.588,0.477,0.878,0.719c0.001-0.028,0.007-0.059,0.019-0.09c0.016-0.041,0.031-0.083,0.048-0.126
					c-0.009-0.033-0.012-0.073,0-0.119c0.816-2.972-0.004-6.505-0.83-9.361c-0.426-1.468-0.919-2.972-1.522-4.411l-2.601-0.698
					c0.844,2.154,1.628,4.342,2.333,6.56C135.618,54.286,136.277,56.597,136.359,58.947z"/>
				<path fill="#E0EDEE" d="M126.2,52.732c0.022,0.077,0.044,0.157,0.077,0.232c0,0.003,0,0.008,0.001,0.012
					c0.393,0.205,0.781,0.416,1.165,0.64c1.017,0.527,2.022,1.083,3.013,1.67c-1.048-3.507-3.119-6.624-4.999-9.596
					c-0.521-0.824-1.035-1.654-1.543-2.488l-2.076-0.557v0.716c2.049,2.667,3.542,5.991,4.361,9.263
					C126.208,52.663,126.207,52.7,126.2,52.732z"/>
				<path fill="#E0EDEE" d="M133.239,73.841c-3.276,2.405-6.812,4.985-10.759,5.571c-0.141,0.021-0.262-0.194-0.182-0.332
					c4.613-7.783,12.544-12.291,20.712-12.729c0.031-0.002,0.056,0.006,0.08,0.015c-0.422-0.447-0.847-0.889-1.28-1.321
					c-1.066-1.06-2.183-2.043-3.33-2.982c-3.098,1.99-5.831,4.633-8.606,7.139c-2.494,2.253-5.076,4.585-8.036,6.002v1.742
					c0.623,0.927,0.644,2.252,0.001,3.522c0,0,0,0-0.001,0.002v12.618c0.792-0.467,1.762-0.657,2.492-0.077
					c1.084,0.86,0.845,2.995,0.015,3.942c-0.277,0.315-0.584,0.591-0.911,0.839c0.565,0.776,0.987,1.694,1.267,2.65
					c0.218-0.831,0.433-1.662,0.625-2.502c0.015-0.065,0.05-0.101,0.092-0.114c-0.015-0.036-0.027-0.072-0.043-0.106
					c-0.097-0.222,0.21-0.383,0.306-0.163c0.962,2.189,0.932,4.521,0.32,6.716c0.078,0.026,0.156,0.059,0.234,0.088
					c0.19,0.071,0.382,0.143,0.57,0.218c2.292,0.906,4.483,2.091,6.701,3.206c2.154,1.088,4.372,1.869,6.569,2.801
					c-1.108-3.051-2.864-5.888-4.481-8.598c-1.765-2.958-3.595-5.866-5.315-8.857c-0.054-0.094-0.107-0.186-0.162-0.278
					c-0.028-0.05-0.058-0.099-0.086-0.148c-2.467,0.631-5.131,0.093-7.228-1.525c-0.144-0.11-0.046-0.33,0.088-0.342
					c0.013-0.014,0.023-0.028,0.041-0.038c1.001-0.594,2.133-0.793,3.251-0.725c-1.251-0.673-2.285-1.855-2.909-3.249
					c-0.029-0.069-0.019-0.128,0.009-0.177c-0.074-0.123-0.017-0.33,0.144-0.297c1.396,0.274,2.777,0.738,4.08,1.379
					c-1.242-1.894-2.309-4.112-2.169-6.523c0.008-0.155,0.145-0.198,0.241-0.148c0.046-0.02,0.098-0.02,0.15,0.018
					c1.952,1.43,3.44,3.754,4.41,6.136c0.445-1.569,1.052-3.078,2.017-4.326l0.002-0.001c0.017-0.188,0.29-0.224,0.331-0.007
					c0.318,1.667-0.008,3.403-0.509,4.994c0.798-0.825,1.758-1.333,2.844-1.518c0.101-0.019,0.165,0.055,0.187,0.142
					c0.013,0.018,0.025,0.042,0.034,0.072c0.038,0.152,0,0.309-0.049,0.453c-0.222,1.886-1.264,3.493-2.64,4.541
					c-0.401,0.306-0.829,0.567-1.275,0.771c0.066,0.099,0.132,0.203,0.198,0.301c2.35,3.507,4.413,7.267,6.664,10.855
					c0.017-0.065,0.031-0.129,0.043-0.197c0.023-0.14,0.044-0.282,0.052-0.424c0.008-0.107,0.074-0.157,0.146-0.164
					c0.248-2.309,0.63-4.619,0.954-6.915c0.242-1.713,0.518-3.417,0.88-5.099c0.088-0.407,0.174-0.815,0.275-1.221
					c-0.106-0.058-0.209-0.124-0.313-0.188c-0.363-0.227-0.706-0.483-1.031-0.767c-0.248,0.245-0.496,0.49-0.742,0.736
					c-0.16,0.161-0.44-0.029-0.318-0.261c0.17-0.327,0.349-0.652,0.533-0.975c-1.256-1.293-2.167-3.005-2.647-4.881
					c-0.016-0.058-0.006-0.105,0.016-0.141c-0.02-0.117,0.04-0.251,0.171-0.227c1.112,0.201,2.121,0.779,2.909,1.662
					c-0.257-1.608,0.298-3.288,1.203-4.551c0.01-0.013,0.021-0.02,0.03-0.03c-2.263,1.3-4.53,2.592-6.762,3.96
					c-0.156,0.098-0.396-0.098-0.277-0.299c2.388-4.009,6.05-6.78,10.052-8.503v-3.089c-4.945,2.691-9.311,6.655-13.725,10.315
					c-0.167,0.137-0.365-0.11-0.279-0.298c1.645-3.596,4.442-6.461,7.472-8.53c2.021-1.383,4.228-2.533,6.533-3.183v-3.056
					c-1.465,0.895-2.979,1.662-4.403,2.651C136.86,71.104,135.065,72.497,133.239,73.841z"/>
				<path fill="#B0DBDD" d="M98.64,108.202c-0.623-2.142-1.736-4.334-3.443-3.051c-0.985,0.741-1.03,2.543-1,3.71
					c0.061,2.478,0.996,4.656,1.758,6.911l2.685,0.793V108.202z"/>
				<path fill="#8BB7B8" d="M106.425,111.326c-0.797-0.4-1.691-0.391-2.578-0.17c0.772-0.709,1.447-1.54,1.957-2.635
					c0.634-1.365,1.301-3.299,0.293-4.648c-1.088-1.459-3.598-0.725-4.715,0.229c-1.454,1.237-1.915,3.528-2.385,5.551
					c-0.093-0.45-0.211-0.947-0.357-1.449v8.362l9.059-2.23c0.008-0.032,0.019-0.064,0.026-0.096
					C108.02,112.979,107.449,111.841,106.425,111.326z"/>
				<rect x="121.838" y="97.945" fill="#8BB7B8" width="0" height="0.792"/>
				<rect x="121.838" y="108.519" fill="#8BB7B8" width="0" height="0.87"/>
				<rect x="121.838" y="105.814" fill="#8BB7B8" width="0" height="2.013"/>
				<rect x="121.838" y="93.087" fill="#8BB7B8" width="0" height="0.814"/>
				<rect x="121.838" y="101.548" fill="#8BB7B8" width="0" height="4.138"/>
				<rect x="121.838" y="61.559" fill="#8BB7B8" width="0" height="3.479"/>
				<rect x="121.838" y="51.552" fill="#8BB7B8" width="0" height="1.03"/>
				<rect x="121.838" y="58.266" fill="#8BB7B8" width="0" height="2.403"/>
				<rect x="121.838" y="76.946" fill="#8BB7B8" width="0" height="3.524"/>
				<rect x="121.837" y="48.912" fill="#8BB7B8" width="0.001" height="1.815"/>
				<rect x="121.838" y="55.85" fill="#8BB7B8" width="0" height="1.775"/>
				<rect x="121.838" y="72.196" fill="#8BB7B8" width="0" height="3.008"/>
				<rect x="121.838" y="65.438" fill="#8BB7B8" width="0" height="4.369"/>
				<rect x="121.837" y="43.361" fill="#8BB7B8" width="0.001" height="2.489"/>
				<path fill="#B0DBDD" d="M98.64,95.901V91.6c-3.197,4.419-8.5,7.102-10.752,12.144c1.168-6.193,3.53-12.355,6.337-17.686
					c0.106-0.133,0.212-0.27,0.318-0.399c0.396-0.491-0.263-1.207-0.662-0.714c-0.074,0.092-0.149,0.188-0.222,0.281
					c-0.058,0.041-0.109,0.096-0.153,0.175l-0.024,0.048c-3.904,4.934-7.439,10.961-8.155,17.646
					c-2.596-4.131-5.265-8.373-4.729-13.655c2.289-0.204,4.896,0.338,6.814,0.044c0.515-0.08,0.569-0.856,0.212-1.058
					c-0.083-0.115-0.206-0.193-0.376-0.187c-2.991,0.123-6.14-1.074-9.022-0.282c0.446-0.561,0.965-1.008,1.543-1.337
					c0.99-0.145,1.983-0.165,2.979-0.169c0.075,0.067,0.164,0.119,0.277,0.13c0.777,0.067,1.546,0.071,2.315,0.012
					c0.854,0.197,1.701,0.235,2.561,0.032c0.182-0.042,0.274-0.165,0.314-0.312c0.037-0.004,0.075-0.004,0.112-0.009
					c0.617-0.093,0.583-1.197-0.042-1.105c-0.295,0.044-0.597,0.063-0.899,0.075c-0.093-0.052-0.198-0.081-0.322-0.049
					c-0.083,0.019-0.163,0.028-0.245,0.045c-2.24-0.045-4.629-0.74-6.837-0.561c0.073-0.14,0.146-0.277,0.219-0.417
					c2.392-0.925,5.037-0.527,7.67-0.167c0.329,0.057,0.581,0.098,0.698,0.106c0.056,0.005,0.102-0.011,0.147-0.028
					c0.496-0.101,0.628-0.991,0.058-1.064c-0.647-0.085-1.292-0.173-1.933-0.253c-1.585-0.257-3.157-0.6-4.735-0.898
					c3.128-0.64,6.231-1.441,9.387-1.904c0.614-0.088,0.596-1.138-0.042-1.103c-1.954,0.105-4.323,0.142-7.582,0.366
					c0.841-0.502,1.676-1.015,2.514-1.527c2.57-0.741,5.167-1.373,7.791-1.88c0.601-0.116,0.602-1.167-0.043-1.105
					c-2.964,0.288-5.936,0.456-8.897,0.731c3.902-1.017,7.858-1.725,11.864-2.113c0.632-0.061,0.584-1.081-0.041-1.106
					c-0.324-0.013-0.646-0.009-0.968-0.014c0.016-0.249-0.092-0.49-0.369-0.526c-0.045-0.005-0.085-0.007-0.127-0.012v-0.002h-0.003
					c-2.388-0.294-4.769-0.342-7.136-0.194c3.076-0.547,6.188-0.827,9.325-0.892c0.289,0.1,0.577,0.188,0.859,0.267v-1.438
					c-0.992-0.243-1.99-0.429-2.993-0.569c-0.074-0.055-0.147-0.11-0.217-0.167c1.067-0.055,2.137-0.078,3.209-0.069v-1.349
					c-1.529-0.319-3.06-0.52-4.591-0.609c-0.043-0.162-0.075-0.331-0.095-0.505c1.556-0.193,3.118-0.329,4.686-0.418v-1.997
					c-0.411-0.047-0.821-0.088-1.232-0.12c-0.656-0.363-1.55-0.635-2.33-0.531c1.183-0.224,2.37-0.414,3.562-0.573v-2.307
					c-1.219-0.019-2.435,0.046-3.643,0.193c1.205-0.404,2.421-0.77,3.643-1.104v-1.895c-3.15,0.718-6.24,1.836-9.171,3.283
					c2.854-2.703,5.927-5.042,9.171-7.042v-2.696c-4.181,2.225-8,5.293-11.344,8.982c2.475-4.478,5.351-8.65,8.644-12.37
					l-1.519-0.383c-2.898,3.166-5.442,6.707-7.674,10.533c1.51-3.852,3.298-7.568,5.286-11.135l-1.668-0.42
					c-3.205,4.67-6.095,9.624-8.022,15.084c0.945-5.546,2.851-10.819,5.312-15.766l-1.26-0.317c-1.207,1.817-2.154,3.763-2.9,5.798
					c0.282-1.532,0.582-3.061,0.898-4.582c0.13-0.614-0.646-0.92-0.906-0.377c-2.645,5.492-3.727,11.463-3.952,17.551
					c-0.209-4.282-0.034-8.595,0.239-12.895c0.042-0.668-0.805-0.646-0.961-0.095c-1.72,5.996-2.676,12.199-2.221,18.367
					c-0.108-0.505-0.207-1.013-0.298-1.524v29.862c0.282,0.229,0.803,0.066,0.799-0.456c-0.014-1.872-0.167-3.742-0.355-5.602
					c0.702-0.948,1.65-1.448,2.718-1.701c-0.655,6.249,2.603,14.437,4.416,19.819c-0.81-2.354-3.68-5.961-5.469-6.585
					c-0.097-0.085-0.199-0.11-0.302-0.107c-0.02-0.004-0.039-0.013-0.058-0.02c-0.565-0.182-0.767,0.829-0.202,1.009
					c0.039,0.012,0.076,0.029,0.115,0.042c0.583,0.538,1.117,1.137,1.6,1.777c0.774,1.581,1.474,3.834,2.193,6.023l6.758,1.994
					c0.34-2.553,0.74-5.75,2.636-8.867C93.503,100.821,96.467,98.937,98.64,95.901z M94.845,63.249
					c-0.27,0.067-0.518,0.188-0.734,0.372c-0.398,0.004-0.796,0.015-1.194,0.032C93.558,63.507,94.201,63.375,94.845,63.249z
					 M93.212,66.369c0.011,0.125,0.028,0.249,0.052,0.369c-0.808-0.029-1.616-0.031-2.424-0.005
					C91.629,66.595,92.42,66.476,93.212,66.369z"/>
				<path fill="#A5C6C5" d="M95.593,77.588c-0.792-0.655,0.104-1.469,0.586-1.823c0.604-0.441,1.361-0.426,2.041-0.326
					c0.143,0.021,0.283,0.052,0.42,0.089v-0.723c-0.543-0.139-1.11-0.185-1.71-0.101c-1.047,0.145-2.45,1.185-2.257,2.546
					c0.18,1.252,1.677,1.615,2.589,1.623c0.454,0.003,0.917-0.068,1.378-0.2V77.93C97.565,78.275,96.454,78.3,95.593,77.588z"/>
				<path fill="#8BB7B8" d="M121.838,43.36c-0.156-0.203-0.316-0.402-0.479-0.598l-1.516,0.373c0.647,0.918,1.328,1.812,1.995,2.715
					V43.36z"/>
				<path fill="#8BB7B8" d="M106.97,47.916c-2.903,0.671-5.688,1.742-8.33,3.147v2.696c3.058-1.885,6.268-3.468,9.595-4.757
					c0.313,0.212,0.607,0.388,0.825,0.521c0.323,0.196,0.657,0.374,0.995,0.544c-0.101-0.016-0.2-0.036-0.301-0.051
					c-0.873-0.131-2.753-0.583-3.413,0.376c-0.244,0.353,0.002,0.877,0.218,1.154c0.451,0.58,1.312,0.739,1.944,0.857
					c0.095,0.02,0.192,0.032,0.29,0.048c-0.651,0.179-1.267,0.502-1.469,1.146c-0.453,1.445,1.828,1.398,3.712,1.174
					c0.093,0.038,0.185,0.079,0.278,0.114c-0.356,0.189-0.707,0.387-1.038,0.577c-0.585,0.336-1.983,0.999-2.099,1.877
					c-0.142,1.067,1.621,0.634,2.017,0.484c0.456-0.17,0.902-0.402,1.338-0.667c-0.307,0.435-0.587,0.89-0.828,1.36
					c-0.185,0.365-0.38,1.185,0.257,1.062c0.524-0.1,1.032-0.449,1.486-0.851c3.102,0.679,6.504,0.386,9.389-1.102V55.85
					c-2.778,1.118-5.718,1.664-8.673,2.177c0.002-0.002,0.004-0.004,0.005-0.005c0.705-0.739,1.339-1.581,1.912-2.477
					c2.129-0.039,4.194-0.789,5.915-2.332c0.29-0.194,0.571-0.404,0.841-0.631v-1.03c-1.852,0.528-3.668,1.227-5.509,1.771
					c0.093-0.186,0.186-0.373,0.274-0.561c0.023-0.048,0.024-0.095,0.012-0.134c0.401-1.014,0.669-2.121,0.914-3.188
					c0.149-0.652,0.379-1.53,0.424-2.35c1.338,1.159,2.757,2.221,3.884,3.636v-1.815c-0.479-0.68-1.053-1.285-1.629-1.841
					c-1.198-1.16-2.531-2.133-3.874-3.071l-2.94,0.724c-0.041,0.694,0.123,1.488,0.213,2.002c0.051,0.291,0.109,0.6,0.178,0.914
					c-0.38-0.723-0.78-1.432-1.218-2.115c-0.083-0.129-0.198-0.31-0.337-0.513l-2.476,0.609c0.12,0.253,0.259,0.5,0.397,0.725
					c-0.232-0.184-0.55-0.405-0.905-0.6l-2.817,0.693C106.356,46.974,106.596,47.474,106.97,47.916z M116.498,45.719
					c-0.035,0.062-0.067,0.127-0.092,0.2c-0.094,0.267-0.165,0.55-0.219,0.841c-0.047-0.585-0.13-1.164-0.289-1.73
					C116.09,45.267,116.289,45.499,116.498,45.719z"/>
				<path fill="#8BB7B8" d="M112.853,64.63c-0.094,0.163,0.075,0.391,0.232,0.323c2.965-1.293,5.88-2.737,8.753-4.284v-2.403
					C118.29,59.463,114.915,61.056,112.853,64.63z"/>
				<path fill="#8BB7B8" d="M101.348,88.863c0.058-0.408-0.267-0.652-0.541-0.616c-0.175-0.05-0.363,0.012-0.459,0.258
					c-0.44,1.137-1.027,2.155-1.708,3.095v4.301C99.898,94.145,100.892,92.003,101.348,88.863z"/>
				<path fill="#8BB7B8" d="M113.845,112.157c0.003-1.586-0.818-2.62-2.042-3.284c-0.889-0.481-2.214-0.75-2.914,0.245
					c-0.703,1-0.29,2.812,0.641,3.44c1.129,0.764,2.616,0.604,3.823,0.172c0.005-0.001,0.005-0.003,0.009-0.005
					c0.111,0.042,0.22,0.088,0.329,0.135l1.042-0.257C114.444,112.435,114.148,112.285,113.845,112.157z M113.167,112.031
					c-0.786,0.281-1.619,0.398-2.436,0.26c-1.097-0.185-1.893-1.364-1.397-2.614c0.377-0.951,1.756-0.383,2.325-0.073
					c0.921,0.499,1.489,1.281,1.537,2.423C113.186,112.03,113.177,112.027,113.167,112.031z"/>
				<path fill="#8BB7B8" d="M120.064,109.354c0.087-0.462,0.191-0.919,0.364-1.337c0.479,0.003,0.955-0.054,1.409-0.189v-2.013
					c-1.276,0.336-2.512,0.816-3.702,1.445c-0.125,0.068-0.13,0.305,0.014,0.352c0.504,0.171,1.049,0.301,1.603,0.364
					c-0.166,0.473-0.276,0.986-0.369,1.495c-0.002,0.012,0.002,0.022,0,0.034c-0.001,0.003-0.002,0.007-0.003,0.009
					c-0.725,0.714-1.347,1.538-1.91,2.414l0.965-0.238c0.407-0.567,0.847-1.104,1.333-1.592c0.695,0.025,1.44-0.266,2.069-0.709
					v-0.87C121.352,108.955,120.683,109.277,120.064,109.354z"/>
				<path fill="#8BB7B8" d="M104.253,61.03c-1.875-0.452-3.749-0.679-5.613-0.706v2.307c1.833-0.244,3.678-0.413,5.53-0.508
					C104.723,62.095,104.798,61.163,104.253,61.03z"/>
				<path fill="#8BB7B8" d="M106.565,56.597c-2.647,0-5.307,0.324-7.925,0.921v1.895c2.624-0.719,5.283-1.289,7.967-1.709
					C107.222,57.605,107.205,56.597,106.565,56.597z"/>
				<path fill="#8BB7B8" d="M121.015,75.634c0.005-0.024,0.012-0.045,0.016-0.068c0.273-0.112,0.54-0.234,0.807-0.362v-3.007
					c-0.546,1.021-0.966,2.129-1.209,3.338C120.573,75.817,120.959,75.916,121.015,75.634z"/>
				<path fill="#8BB7B8" d="M117.723,72.307c-0.049,0.277,0.317,0.377,0.381,0.115h0.003c1.361-0.494,2.583-1.492,3.731-2.614
					v-4.369C119.838,67.161,118.236,69.415,117.723,72.307z"/>
				<path fill="#8BB7B8" d="M116.011,104.765c0.415-0.91,0.907-1.777,1.459-2.594c0.976,1.674,2.76,2.74,4.368,3.515v-4.138
					c-1.062-0.474-2.174-0.787-3.306-0.808c0.305-0.371,0.621-0.73,0.948-1.074c0.767-0.271,1.579-0.559,2.358-0.929v-0.792
					c-0.692,0.349-1.421,0.622-2.138,0.878c0.265-1.808,0.79-3.948,2.138-4.921v-0.814c-0.294,0.174-0.565,0.385-0.79,0.61
					c-1.408,1.412-1.78,3.409-2.04,5.432c-0.001,0.016,0.003,0.026,0.003,0.039c-0.482,0.507-0.942,1.05-1.375,1.621
					c-0.152,0.019-0.306,0.042-0.46,0.073c-0.117,0.024-0.149,0.148-0.121,0.25c-0.023,0.045-0.03,0.1-0.007,0.163
					c0.025,0.072,0.057,0.141,0.085,0.21c-0.545,0.789-1.038,1.626-1.463,2.498c-0.288-1.601-0.597-3.193-0.932-4.778
					c0.042-0.075,0.053-0.17,0.01-0.282c-0.048-0.12-0.1-0.237-0.146-0.357c-0.325-1.505-0.671-3.001-1.048-4.484
					c0.034-0.044,0.064-0.098,0.073-0.174c0.355-2.691,1.208-5.218,2.656-7.401c0.009-0.017,0.013-0.034,0.021-0.051
					c2.04-1.937,4.156-3.269,5.534-5.985v-3.524c-0.374-0.556-0.963-0.968-1.756-1.14c-3.671-0.795-5.103,7.38-4.32,10.245
					c-0.021,0.032-0.034,0.067-0.04,0.1c-1.271,1.958-2.109,4.147-2.549,6.502c-0.191-0.707-0.377-1.417-0.583-2.117
					c-1.045-3.589-2.558-7.096-4.414-10.354c0.066-0.043,0.121-0.12,0.138-0.235c0.497-3.224,1.739-6.228,4.013-8.32
					c1.755,0.084,3.427-0.818,4.24-2.637c0.058-0.13,0.112-0.268,0.162-0.409c-0.021,0.103-0.046,0.2-0.065,0.304
					c-0.049,0.28,0.323,0.38,0.383,0.112c0.052,0.005,0.104-0.009,0.153-0.056c1.474-1.415,3.028-2.705,4.638-3.904v-3.478
					c-2.222,1.403-4.025,3.309-4.862,6.05c0.141-0.896,0.05-1.839-0.478-2.519c-0.957-1.234-2.776-0.022-3.484,0.907
					c-0.929,1.226-1.663,3.457-1.17,5.061c-0.032,0.048-0.057,0.102-0.072,0.158c-1.535,1.489-2.622,3.364-3.324,5.45
					c0.206-2.519,0.332-5.061,0.055-7.549c0.039-0.03,0.077-0.064,0.104-0.12c1.035-2.082,1.605-3.943,1.22-6.325
					c-0.209-1.291-0.66-3.346-2.075-3.494c-1.532-0.161-2.498,1.998-2.586,3.421c-0.14,2.262,1.277,4.771,2.574,6.353
					c0.034,0.042,0.072,0.067,0.11,0.084c0.385,3.341,0.04,6.788-0.269,10.133c-1.836-3.054-3.978-5.868-6.33-8.299
					c0-0.026,0.006-0.054,0-0.082c-0.276-1.737-0.808-3.544-1.737-4.983c1.142-0.052,2.288-0.083,3.435-0.088
					c0.56-0.004,0.619-0.965,0.084-1.093c-1.458-0.354-2.925-0.605-4.395-0.77v1.997c0.053-0.003,0.106-0.007,0.159-0.01
					c0.387,0.526,0.704,1.142,0.961,1.797c-0.374-0.094-0.747-0.178-1.121-0.255v1.349c0.38,0.004,0.761,0.011,1.142,0.022
					c0.136,0.004,0.242-0.05,0.317-0.136c0.202,0.669,0.354,1.349,0.468,1.986c-0.415-0.031-0.877-0.094-1.362-0.19
					c0.129-0.294,0.034-0.727-0.315-0.816c-0.083-0.021-0.167-0.038-0.25-0.06v1.438c0.786,0.213,1.529,0.337,2.121,0.372
					c2.255,2.325,4.293,4.989,6.052,7.875c-1.502-1.237-3.326-2.027-5.073-2.658c-0.021-0.032-0.044-0.065-0.079-0.092
					c-0.954-0.749-1.939-1.392-3.022-1.667v0.723c0.826,0.22,1.558,0.703,2.262,1.235c-0.649,0.455-1.446,0.903-2.262,1.166v0.744
					c1.004-0.283,1.991-0.835,2.816-1.448c2.466,0.878,5.225,2.071,6.754,4.564c0.038,0.06,0.081,0.095,0.129,0.121
					c1.485,2.814,2.715,5.79,3.637,8.837c0.502,1.659,0.942,3.354,1.357,5.057c-1.193-2.254-2.707-4.259-4.647-5.755
					c0-0.002,0-0.005,0-0.009c-0.607-1.979-1.825-3.611-3.391-4.722c-1.296-0.918-3.077-0.654-3.539,1.226
					c-0.792,3.232,4.475,4.066,6.31,3.936c0.012,0,0.019-0.007,0.028-0.009c2.748,2.004,4.648,5.118,5.956,8.464
					c0.423,1.979,0.812,3.97,1.156,5.973c-1.124-1.652-2.871-2.59-4.653-3.152c-0.786-1.481-1.969-2.617-3.533-2.752
					c-1.078-0.093-2.285,0.482-2.875,1.523c-0.613,1.082,0.279,2.04,1.092,2.458c1.623,0.833,3.638,0.157,5.214-0.502
					c1.991,0.634,3.911,1.735,4.842,3.946c0.046,0.113,0.124,0.166,0.204,0.178c0.303,1.87,0.575,3.739,0.831,5.603l0.625-0.153
					c-0.336-2.376-0.699-4.753-1.111-7.121C115.908,104.908,115.969,104.859,116.011,104.765z M119.782,76.507
					c1.185-0.062,2.071,1.187,1.892,2.444c-0.157,1.104-0.907,2.125-1.52,2.946c-1.115,1.491-2.522,2.454-3.849,3.629
					C115.745,82.718,116.944,76.653,119.782,76.507z M113.118,67.104c0.463-0.945,1.953-2.481,2.935-1.486
					c0.683,0.69,0.254,2.262-0.053,3.028c-0.61,1.53-2.09,2.309-3.527,2.267c-0.003-0.012,0-0.022-0.003-0.035
					C112.078,69.663,112.598,68.166,113.118,67.104z M106.081,64.42c-0.309-1.001-0.39-2.083-0.016-3.073
					c0.281-0.747,1.23-1.733,1.982-1.333c0.979,0.52,1.166,2.675,1.251,3.7c0.144,1.744-0.406,3.184-1.135,4.68
					C107.233,67.253,106.533,65.883,106.081,64.42z M102.446,87.712c-0.407-0.706,0.141-1.619,0.639-2.028
					c0.654-0.543,1.561,0.034,2.136,0.442c1.186,0.841,2.129,2.176,2.675,3.633C106.214,89.842,103.41,89.379,102.446,87.712z
					 M106.98,102.618c-0.733,0.034-2.856-0.419-2.269-1.746c0.395-0.891,1.555-1.15,2.332-1.139
					c1.223,0.017,2.209,1.082,2.847,2.196C108.946,102.297,107.986,102.571,106.98,102.618z"/>
				<path fill="#CAE4E5" d="M141.656,83.448c-0.06,0.068-0.118,0.138-0.177,0.208c-0.168-1.255-0.598-2.446-1.11-3.592
					c0.068-0.144-0.074-0.288-0.2-0.253c0.986-0.565,1.971-1.136,2.952-1.713v-3.094c-4.002,1.723-7.665,4.494-10.052,8.503
					c-0.119,0.201,0.121,0.396,0.277,0.299c2.231-1.368,4.499-2.66,6.762-3.96c-0.01,0.01-0.021,0.017-0.03,0.03
					c-0.905,1.263-1.46,2.943-1.203,4.551c-0.788-0.883-1.797-1.46-2.909-1.662c-0.132-0.024-0.191,0.11-0.171,0.227
					c-0.022,0.036-0.032,0.083-0.016,0.141c0.479,1.875,1.391,3.588,2.647,4.881c-0.184,0.323-0.363,0.647-0.533,0.975
					c-0.122,0.232,0.158,0.422,0.318,0.261c0.246-0.246,0.494-0.491,0.742-0.736c0.325,0.283,0.668,0.54,1.031,0.767
					c0.104,0.064,0.207,0.13,0.313,0.188c-0.102,0.406-0.188,0.813-0.275,1.221c-0.362,1.682-0.638,3.386-0.88,5.099
					c-0.324,2.296-0.706,4.606-0.954,6.915c-0.073,0.007-0.139,0.057-0.146,0.164c-0.008,0.143-0.029,0.285-0.052,0.424
					c-0.012,0.068-0.027,0.131-0.043,0.197c-2.251-3.588-4.314-7.349-6.664-10.855c-0.066-0.098-0.132-0.202-0.198-0.301
					c0.446-0.204,0.875-0.465,1.275-0.771c1.375-1.048,2.418-2.655,2.64-4.541c0.049-0.144,0.087-0.301,0.049-0.453
					c-0.008-0.03-0.021-0.054-0.034-0.072c-0.022-0.086-0.086-0.16-0.187-0.142c-1.086,0.185-2.046,0.693-2.844,1.518
					c0.501-1.591,0.827-3.327,0.509-4.994c-0.041-0.217-0.314-0.181-0.331,0.007l-0.002,0.001c-0.965,1.248-1.572,2.757-2.017,4.326
					c-0.97-2.382-2.458-4.707-4.41-6.136c-0.052-0.037-0.104-0.037-0.15-0.018c-0.097-0.049-0.233-0.007-0.241,0.148
					c-0.14,2.411,0.927,4.63,2.169,6.523c-1.303-0.641-2.684-1.105-4.08-1.379c-0.161-0.033-0.218,0.174-0.144,0.297
					c-0.028,0.049-0.038,0.108-0.009,0.177c0.624,1.394,1.658,2.575,2.909,3.249c-1.119-0.068-2.25,0.131-3.251,0.725
					c-0.018,0.01-0.028,0.023-0.041,0.038c-0.135,0.012-0.232,0.232-0.088,0.342c2.097,1.618,4.761,2.156,7.228,1.525
					c0.028,0.049,0.058,0.098,0.086,0.148c0.054,0.093,0.108,0.185,0.162,0.278c1.72,2.991,3.55,5.899,5.315,8.857
					c1.617,2.71,3.373,5.547,4.481,8.598c-2.197-0.932-4.415-1.713-6.569-2.801c-2.217-1.115-4.409-2.3-6.701-3.206
					c-0.188-0.075-0.38-0.146-0.57-0.218c-0.078-0.029-0.156-0.062-0.234-0.088c0.612-2.194,0.642-4.526-0.32-6.716
					c-0.096-0.22-0.402-0.059-0.306,0.163c0.016,0.034,0.028,0.07,0.043,0.106c-0.042,0.013-0.077,0.048-0.092,0.114
					c-0.192,0.84-0.407,1.671-0.625,2.502c-0.279-0.956-0.701-1.874-1.267-2.65c0.327-0.248,0.634-0.524,0.911-0.839
					c0.831-0.947,1.069-3.082-0.015-3.942c-0.73-0.58-1.7-0.39-2.492,0.077v0.814c0.411-0.297,0.895-0.49,1.476-0.526
					c0.931-0.059,1.141,1.139,1.068,1.953c-0.073,0.817-0.717,1.408-1.27,1.832c-0.041,0.031-0.084,0.059-0.126,0.088
					c-0.046-0.051-0.091-0.104-0.139-0.153c-0.162-0.165-0.354,0.15-0.195,0.313c0.015,0.015,0.028,0.032,0.042,0.047
					c-0.276,0.181-0.564,0.343-0.857,0.49v0.792c0.321-0.152,0.637-0.316,0.941-0.501c0.02,1.415,0.359,2.789,0.665,4.162
					c-0.519-0.317-1.056-0.604-1.606-0.851v4.138c0.056,0.027,0.113,0.055,0.169,0.081c-0.057,0.015-0.113,0.033-0.169,0.048v2.013
					c0.269-0.08,0.529-0.187,0.778-0.324c-0.146,0.308-0.373,0.591-0.555,0.794c-0.068,0.076-0.145,0.15-0.224,0.221v0.87
					c0.316-0.224,0.607-0.485,0.844-0.768c-0.094,0.417-0.194,0.834-0.326,1.235c-0.043,0.133,0.042,0.23,0.138,0.249
					c0.069,0.312,0.314,0.377,0.602,0.021c0.691-0.858,1.186-1.929,1.714-2.918c0.269-0.504,0.502-1.03,0.713-1.566
					c0.054-0.131,0.112-0.261,0.161-0.395c0.248,0.18,0.5,0.353,0.751,0.524c2.38,1.626,4.921,2.925,7.478,4.146
					c1.487,0.707,2.981,1.388,4.471,2.089c0.996,0.468,2.018,1.127,3.082,1.411c-0.033,0.05-0.043,0.112-0.012,0.181
					c0.418,0.947,0.824,1.901,1.237,2.851l0.428,0.116v-4.668c-1.281-2.446-2.548-4.903-3.691-7.436
					c0.229-4.488,0.969-8.872,1.715-13.274c0.071-0.417,0.141-0.834,0.212-1.25c0.149,0.049,0.299,0.091,0.452,0.125
					c0.432,0.104,0.873,0.151,1.312,0.148V80.75C142.499,81.546,142.002,82.459,141.656,83.448z"/>
				<path fill="#CAE4E5" d="M129.115,81.933c-0.086,0.188,0.112,0.436,0.279,0.298c4.414-3.66,8.78-7.624,13.725-10.315V70.22
					c-2.305,0.65-4.512,1.8-6.533,3.183C133.558,75.472,130.76,78.336,129.115,81.933z"/>
				<path fill="#CAE4E5" d="M143.12,48.356l-1.65-0.443c0.437,2.809,1.077,5.577,1.65,8.356V48.356z"/>
				<path fill="#CAE4E5" d="M121.839,80.467c0.643-1.27,0.622-2.595-0.001-3.522v3.524
					C121.839,80.468,121.839,80.467,121.839,80.467z"/>
				<path fill="#CAE4E5" d="M125.472,52.274L125.472,52.274c0.032,0.111,0.057,0.224,0.083,0.336
					c-0.534-0.261-1.076-0.503-1.625-0.721c-0.332-0.156-0.667-0.31-1-0.464c0-0.012,0-0.026-0.002-0.04
					c-0.174-0.932-0.578-1.745-1.091-2.472v1.814c0.174,0.22,0.344,0.446,0.503,0.685c-0.055,0.015-0.108,0.029-0.162,0.044
					c-0.051-0.013-0.103-0.003-0.152,0.042c-0.063,0.017-0.125,0.036-0.188,0.054v1.03c0.262-0.22,0.514-0.457,0.755-0.714
					c0.367,0.119,0.73,0.25,1.089,0.391c0.753,0.353,1.502,0.717,2.247,1.089c-0.04,0.095-0.08,0.189-0.126,0.28
					c-0.047,0.062-0.094,0.124-0.142,0.187c-1.228,0.847-2.508,1.505-3.823,2.035v1.775c1.19-0.614,2.295-1.425,3.25-2.465
					c0.467-0.36,0.904-0.771,1.24-1.286c0.03-0.029,0.05-0.06,0.058-0.095c0.031-0.051,0.062-0.105,0.09-0.158
					c0.328,0.167,0.659,0.334,0.985,0.506c0.745,0.441,1.48,0.909,2.203,1.398c-0.035,0.033-0.072,0.063-0.11,0.094
					c-0.011,0.002-0.022,0-0.036,0.005c-2.348,1.089-5.062,1.758-7.682,2.641v2.403c2.784-1.499,5.528-3.094,8.238-4.748
					c0.032-0.02,0.054-0.045,0.07-0.074c0.797,0.551,1.584,1.122,2.364,1.694c0.021,0.015,0.04,0.029,0.059,0.044
					c-3.324,0.939-7.476,1.917-10.731,3.974v3.479c0.997-0.743,2.015-1.452,3.048-2.132c2.685-1.768,5.523-3.498,8.431-4.77
					c0.603,0.442,1.205,0.884,1.806,1.33c-3.629,0.978-7.253,2.122-10.584,4.062c-0.938,0.546-1.854,1.182-2.701,1.912v4.369
					c1.094-1.069,2.124-2.249,3.144-3.208c3.105-2.922,6.998-4.568,10.544-6.663c0.045-0.029,0.072-0.064,0.086-0.105
					c0.785,0.588,1.564,1.188,2.333,1.803c-3.399,0.996-6.74,2.319-9.822,4.238c-2.456,1.527-4.829,3.601-6.285,6.323v3.008
					c2.96-1.417,5.542-3.75,8.036-6.002c2.776-2.506,5.509-5.149,8.606-7.139c1.147,0.939,2.264,1.922,3.33,2.982
					c0.434,0.432,0.858,0.874,1.28,1.321c-0.024-0.009-0.049-0.017-0.08-0.015c-8.168,0.438-16.099,4.946-20.712,12.729
					c-0.08,0.138,0.041,0.353,0.182,0.332c3.947-0.586,7.483-3.166,10.759-5.571c1.826-1.344,3.621-2.737,5.477-4.025
					c1.424-0.99,2.938-1.756,4.403-2.651v-1.757c-0.436-0.416-0.874-0.829-1.314-1.236c-0.183-0.17-0.373-0.334-0.556-0.503
					c0.003-0.011,0.01-0.017,0.013-0.032c0.013-0.093,0.024-0.186,0.037-0.278c1.126-3.829,1.206-8.104,0.599-12.048
					c-0.182-1.172-0.455-2.364-0.836-3.505l-2.702-0.726c1.948,5.135,3.32,10.653,2.553,16.183
					c-0.007,0.027-0.016,0.054-0.024,0.082c-0.583-0.532-1.164-1.066-1.756-1.587c0.081-0.023-0.361-0.403-0.418-0.366
					c-0.321-0.279-0.647-0.552-0.972-0.825c0.04-0.017,0.076-0.05,0.099-0.108c1.637-4.044,1.882-9.354,0.23-13.455l-2.884-0.774
					c0.604,1.439,1.097,2.943,1.522,4.411c0.826,2.855,1.646,6.389,0.83,9.361c-0.012,0.046-0.009,0.086,0,0.119
					c-0.017,0.043-0.032,0.085-0.048,0.126c-0.012,0.031-0.018,0.062-0.019,0.09c-0.29-0.243-0.583-0.481-0.878-0.719
					c-0.05-0.138-0.108-0.274-0.16-0.412c-0.028-0.085-0.053-0.171-0.077-0.257c-0.082-2.35-0.741-4.661-1.438-6.857
					c-0.705-2.218-1.489-4.406-2.333-6.56l-4.61-1.237c0.497,0.896,1.008,1.754,1.483,2.565c2.345,3.998,4.778,7.839,6.498,12.242
					c-0.73-0.578-1.472-1.131-2.224-1.669c-0.031-0.071-0.089-0.12-0.168-0.12c-0.271-0.191-0.541-0.389-0.816-0.575
					c-0.541-0.368-1.093-0.717-1.648-1.057c0.312-1.746-0.572-3.913-1.064-5.498c-0.637-2.048-1.418-4.042-2.318-5.958l-3.806-1.021
					c0.508,0.834,1.021,1.664,1.543,2.488c1.88,2.972,3.951,6.089,4.999,9.596c-0.99-0.587-1.996-1.143-3.013-1.67
					c-0.384-0.224-0.772-0.436-1.165-0.64c-0.001-0.004-0.001-0.008-0.001-0.012c-0.033-0.075-0.055-0.155-0.077-0.232
					c0.007-0.033,0.007-0.069-0.001-0.108c-0.819-3.271-2.312-6.596-4.361-9.263v2.489
					C123.293,47.822,124.677,49.842,125.472,52.274z"/>
			</g>
			<g>
				<path fill="#FFFFFF" d="M87.006,123.036c0,0.923-0.749,1.671-1.672,1.671H50.241c-0.923,0-1.672-0.749-1.672-1.671V63.5
					c0-0.922,0.749-1.671,1.672-1.671h35.093c0.923,0,1.672,0.75,1.672,1.671V123.036z"/>
				<circle fill="#B0DBDD" cx="51.86" cy="64.807" r="1.619"/>
				<circle fill="#B2B3B3" cx="80.562" cy="64.807" r="0.47"/>
				<circle fill="#B2B3B3" cx="82.39" cy="64.807" r="0.47"/>
				<circle fill="#B2B3B3" cx="84.479" cy="64.807" r="0.47"/>
				<rect x="50.24" y="67.469" fill="#D1ECF0" width="35.041" height="45.227"/>
				<path fill="#F27797" d="M52.643,115.205c-0.14-0.65-0.852-0.559-1.292-0.299c-0.449-0.271-1.14-0.312-1.208,0.359
					c-0.077,0.759,0.705,1.292,1.329,1.499c0.019,0.006,0.036,0.006,0.052,0.006c0.028,0.006,0.057,0.006,0.091-0.009
					C52.215,116.483,52.797,115.926,52.643,115.205z"/>
				<path fill="#B2B3B3" d="M57.146,116.88c-0.04-0.167-0.072-0.333-0.076-0.505c0-0.015-0.005-0.026-0.008-0.039
					c0.076-0.168,0.118-0.352,0.118-0.54c0-0.721-0.587-1.308-1.308-1.308c-0.767,0-1.28,0.572-1.28,1.425
					c0,0.7,0.526,1.191,1.28,1.191c0.17,0,0.336-0.034,0.492-0.099c0.17,0.062,0.346,0.109,0.523,0.144
					c0.07,0.088,0.215,0.06,0.27-0.033C57.219,117.046,57.225,116.932,57.146,116.88z M56.404,116.676
					c-0.068-0.028-0.132-0.009-0.178,0.029c-0.113,0.045-0.231,0.069-0.354,0.069c-0.569,0-0.95-0.345-0.95-0.86
					c0-0.676,0.364-1.094,0.95-1.094c0.539,0,0.978,0.439,0.978,0.977c0,0.151-0.039,0.299-0.106,0.434
					c-0.031,0.051-0.032,0.12-0.002,0.174c0.004,0.131,0.022,0.261,0.047,0.39C56.657,116.764,56.528,116.727,56.404,116.676z"/>
				<path fill="#B2B3B3" d="M61.606,114.647c-0.879,0.055-1.762,0.055-2.643,0.055c-0.142,0-0.182,0.145-0.13,0.243
					c0.009,0.025,0.023,0.051,0.052,0.071c0.313,0.225,0.644,0.424,0.965,0.636c-0.003,0.438-0.025,0.876-0.054,1.315
					c-0.013,0.21,0.317,0.196,0.33-0.013c0.001-0.015,0.001-0.028,0.003-0.041c0.521-0.61,1.058-1.209,1.524-1.862
					c0.024-0.02,0.042-0.042,0.052-0.07c0.009-0.012,0.019-0.023,0.026-0.036c0.017-0.024,0.024-0.047,0.027-0.068
					C61.798,114.775,61.747,114.639,61.606,114.647z M59.496,115.032c0.482-0.001,0.964-0.011,1.446-0.029
					c-0.295,0.127-0.589,0.261-0.878,0.403c-0.008-0.008-0.015-0.016-0.025-0.024C59.859,115.264,59.678,115.147,59.496,115.032z
					 M60.178,115.714c0.281-0.138,0.566-0.269,0.852-0.393c-0.281,0.357-0.574,0.706-0.871,1.051
					C60.17,116.152,60.176,115.933,60.178,115.714z"/>
				<path fill="#B2B3B3" d="M57.394,118.625c0,0.282-0.229,0.51-0.51,0.51h-6.141c-0.281,0-0.509-0.228-0.509-0.51l0,0
					c0-0.281,0.228-0.509,0.509-0.509h6.141C57.165,118.116,57.394,118.344,57.394,118.625L57.394,118.625z"/>
				<path fill="#B2B3B3" d="M56.319,120.595c0,0.243-0.198,0.44-0.44,0.44h-5.205c-0.243,0-0.44-0.197-0.44-0.44l0,0
					c0-0.244,0.197-0.441,0.44-0.441h5.205C56.122,120.154,56.319,120.351,56.319,120.595L56.319,120.595z"/>
				<path fill="#B2B3B3" d="M72.49,120.595c0,0.243-0.198,0.44-0.441,0.44H57.645c-0.244,0-0.44-0.197-0.44-0.44l0,0
					c0-0.244,0.196-0.441,0.44-0.441h14.404C72.292,120.154,72.49,120.351,72.49,120.595L72.49,120.595z"/>
				<path fill="#8FD4D5" d="M56.74,122.324c0,0.251-0.204,0.455-0.455,0.455h-5.597c-0.251,0-0.454-0.204-0.454-0.455l0,0
					c0-0.251,0.203-0.455,0.454-0.455h5.597C56.537,121.87,56.74,122.073,56.74,122.324L56.74,122.324z"/>
				<path fill="#8FD4D5" d="M61.118,122.324c0,0.289-0.234,0.523-0.523,0.523h-2.312c-0.29,0-0.523-0.234-0.523-0.523l0,0
					c0-0.289,0.234-0.522,0.523-0.522h2.312C60.884,121.802,61.118,122.036,61.118,122.324L61.118,122.324z"/>
				<path fill="#8FD4D5" d="M64.67,122.324c0,0.289-0.234,0.523-0.524,0.523H62.44c-0.289,0-0.524-0.234-0.524-0.523l0,0
					c0-0.289,0.235-0.522,0.524-0.522h1.706C64.436,121.802,64.67,122.036,64.67,122.324L64.67,122.324z"/>
				<g>
					<defs>
						<rect id="SVGID_113_" x="50.24" y="67.469" width="35.041" height="45.227"/>
					</defs>
					<clipPath id="SVGID_2_">
						<use xlink:href="#SVGID_113_"  overflow="visible"/>
					</clipPath>
					<g clip-path="url(#SVGID_2_)">
						<path fill="#B0DBDD" d="M73.146,115.041c-0.611-0.306-1.298-0.3-1.978-0.131c0.593-0.543,1.11-1.18,1.501-2.021
							c0.487-1.047,0.998-2.53,0.225-3.567c-0.834-1.118-2.76-0.555-3.617,0.177c-1.114,0.949-1.469,2.706-1.829,4.258
							c-0.071-0.345-0.162-0.727-0.273-1.112c-0.478-1.643-1.332-3.325-2.641-2.341c-0.756,0.569-0.791,1.951-0.768,2.847
							c0.046,1.9,0.764,3.572,1.349,5.301l2.06,0.607l6.949-1.71c0.007-0.023,0.015-0.049,0.021-0.074
							C74.369,116.309,73.931,115.437,73.146,115.041z"/>
						<path fill="#B0DBDD" d="M80.963,70.014c0.308-0.777,0.513-1.626,0.701-2.445c0.115-0.501,0.291-1.174,0.326-1.803
							c1.027,0.89,2.115,1.704,2.979,2.789v-1.391c-0.368-0.522-0.808-0.986-1.25-1.413c-0.919-0.89-1.942-1.636-2.972-2.356
							l-2.255,0.556c-0.031,0.532,0.094,1.141,0.163,1.535c0.04,0.225,0.084,0.461,0.137,0.701
							c-0.292-0.554-0.599-1.098-0.934-1.622c-0.064-0.1-0.152-0.238-0.259-0.394L75.7,64.637c0.092,0.195,0.199,0.384,0.305,0.556
							c-0.179-0.14-0.423-0.311-0.694-0.46l-2.162,0.532c-0.057,0.411,0.127,0.794,0.415,1.133c-2.227,0.515-4.363,1.337-6.39,2.414
							c-3.208,1.708-6.137,4.062-8.702,6.891c1.898-3.435,4.104-6.635,6.63-9.49l-1.165-0.293c-2.224,2.428-4.175,5.145-5.887,8.08
							c1.159-2.955,2.53-5.805,4.056-8.542l-1.279-0.322c-2.459,3.582-4.676,7.382-6.154,11.57c0.725-4.254,2.187-8.3,4.075-12.095
							L57.78,64.37c-0.926,1.395-1.652,2.887-2.225,4.449c0.216-1.177,0.446-2.349,0.689-3.515c0.1-0.472-0.496-0.706-0.695-0.29
							c-2.029,4.213-2.859,8.793-3.032,13.464c-0.16-3.285-0.025-6.594,0.184-9.891c0.032-0.513-0.617-0.495-0.737-0.073
							c-1.319,4.599-2.053,9.357-1.704,14.089c-0.083-0.387-0.158-0.777-0.229-1.169v22.908c0.217,0.175,0.617,0.05,0.613-0.35
							c-0.011-1.437-0.128-2.871-0.272-4.297c0.539-0.728,1.266-1.112,2.084-1.306c-0.502,4.794,1.996,11.075,3.388,15.204
							c-0.622-1.806-2.823-4.574-4.195-5.051c-0.075-0.066-0.153-0.085-0.232-0.082c-0.015-0.004-0.03-0.011-0.044-0.016
							c-0.434-0.139-0.588,0.637-0.155,0.774c0.03,0.009,0.058,0.022,0.088,0.032c0.447,0.413,0.857,0.872,1.228,1.364
							c0.593,1.213,1.13,2.941,1.682,4.621l5.185,1.529c0.261-1.959,0.567-4.411,2.021-6.802c1.811-2.98,5.159-5.667,5.752-6.753
							c0.614-1.124,1.597-2.912,1.926-5.179c0.043-0.308-0.2-0.491-0.407-0.464c-0.131-0.037-0.273,0.009-0.346,0.194
							c-0.305,0.788-0.711,1.494-1.172,2.155v-0.005c-2.452,3.39-6.521,5.448-8.249,9.317c0.896-4.751,2.708-9.479,4.861-13.568
							c0.082-0.102,0.163-0.206,0.245-0.306c0.304-0.376-0.202-0.925-0.507-0.548c-0.058,0.071-0.114,0.145-0.171,0.215
							c-0.044,0.032-0.084,0.074-0.117,0.136l-0.019,0.036c-2.995,3.785-5.706,8.409-6.255,13.537
							c-1.992-3.169-4.039-6.423-3.627-10.475c1.756-0.157,3.755,0.259,5.228,0.033c0.395-0.06,0.436-0.657,0.162-0.812
							c-0.063-0.088-0.157-0.148-0.288-0.143c-2.295,0.094-4.71-0.824-6.922-0.217c0.343-0.43,0.741-0.772,1.185-1.025
							c0.759-0.111,1.521-0.127,2.285-0.129c0.057,0.051,0.126,0.091,0.212,0.099c0.596,0.051,1.187,0.055,1.776,0.009
							c0.654,0.151,1.305,0.18,1.964,0.025c0.14-0.032,0.211-0.126,0.241-0.239c0.028-0.003,0.057-0.003,0.086-0.007
							C59.735,95.776,59.71,94.93,59.23,95c-0.227,0.034-0.458,0.048-0.689,0.057c-0.071-0.04-0.152-0.062-0.247-0.038
							c-0.064,0.015-0.125,0.021-0.188,0.035c-1.718-0.035-3.551-0.568-5.244-0.43c0.056-0.107,0.111-0.212,0.168-0.319
							c1.835-0.71,3.863-0.404,5.884-0.128c0.253,0.044,0.446,0.075,0.536,0.081c0.043,0.004,0.079-0.007,0.113-0.021
							c0.381-0.077,0.482-0.76,0.045-0.816c-0.496-0.065-0.991-0.132-1.482-0.194c-1.216-0.198-2.422-0.46-3.632-0.689
							c2.399-0.491,4.78-1.105,7.201-1.46c0.471-0.067,0.458-0.873-0.032-0.845c-1.499,0.08-3.316,0.108-5.816,0.28
							c0.645-0.386,1.285-0.778,1.929-1.171c1.972-0.569,3.963-1.053,5.977-1.443c0.46-0.09,0.461-0.896-0.033-0.848
							c-2.273,0.221-4.553,0.35-6.826,0.562c2.994-0.78,6.028-1.323,9.102-1.621c0.485-0.047,0.448-0.829-0.032-0.849
							c-0.249-0.01-0.495-0.007-0.742-0.011c0.012-0.191-0.071-0.376-0.283-0.403c-0.034-0.004-0.065-0.006-0.097-0.01v0h-0.003
							c-1.832-0.227-3.658-0.263-5.475-0.15c2.36-0.419,4.748-0.634,7.153-0.684c0.222,0.077,0.442,0.144,0.659,0.204
							c0.603,0.165,1.173,0.26,1.627,0.286c1.73,1.784,3.294,3.828,4.643,6.041c-1.152-0.949-2.551-1.555-3.891-2.04
							c-0.016-0.024-0.034-0.049-0.061-0.07c-0.731-0.575-1.487-1.069-2.317-1.28c-0.417-0.106-0.852-0.142-1.312-0.077
							c-0.803,0.111-1.879,0.909-1.73,1.953c0.138,0.962,1.286,1.239,1.986,1.245c0.348,0.002,0.704-0.053,1.057-0.153
							c0.771-0.217,1.527-0.641,2.16-1.11c1.891,0.674,4.008,1.589,5.181,3.501c0.029,0.046,0.062,0.073,0.099,0.093
							c1.139,2.158,2.083,4.441,2.79,6.779c0.385,1.272,0.722,2.572,1.041,3.879c-0.916-1.729-2.077-3.267-3.565-4.415
							c0-0.001,0-0.004,0-0.007c-0.466-1.518-1.4-2.77-2.602-3.622c-0.994-0.705-2.36-0.502-2.714,0.94
							c-0.608,2.479,3.433,3.12,4.84,3.019c0.009,0,0.015-0.006,0.021-0.006c2.108,1.537,3.566,3.925,4.569,6.492
							c0.325,1.518,0.624,3.045,0.887,4.582c-0.862-1.268-2.203-1.987-3.57-2.418c-0.603-1.137-1.51-2.007-2.71-2.111
							c-0.827-0.072-1.753,0.369-2.206,1.168c-0.47,0.829,0.213,1.565,0.837,1.885c1.245,0.64,2.791,0.122,4-0.385
							c1.527,0.487,3,1.332,3.714,3.027c0.035,0.088,0.096,0.126,0.157,0.136c0.233,1.434,0.441,2.868,0.638,4.298l0.479-0.117
							c-0.258-1.823-0.536-3.646-0.853-5.463c0.052-0.021,0.099-0.059,0.131-0.129c0.318-0.699,0.696-1.364,1.119-1.991
							c0.748,1.284,2.117,2.102,3.351,2.696v-3.174c-0.814-0.363-1.668-0.604-2.536-0.62c0.235-0.284,0.477-0.56,0.728-0.824
							c0.588-0.208,1.211-0.428,1.809-0.713v-0.607c-0.531,0.268-1.09,0.477-1.64,0.674c0.203-1.387,0.606-3.029,1.64-3.775v-0.625
							c-0.226,0.134-0.434,0.295-0.606,0.468c-1.08,1.083-1.365,2.616-1.564,4.167c0,0.013,0.002,0.02,0.002,0.03
							c-0.37,0.389-0.723,0.805-1.055,1.242c-0.116,0.015-0.235,0.033-0.353,0.057c-0.09,0.018-0.114,0.114-0.093,0.191
							c-0.018,0.034-0.022,0.077-0.005,0.125c0.02,0.055,0.043,0.108,0.065,0.161c-0.418,0.605-0.795,1.248-1.122,1.916
							c-0.221-1.228-0.458-2.45-0.715-3.666c0.032-0.058,0.041-0.13,0.008-0.216c-0.037-0.093-0.076-0.183-0.112-0.273
							c-0.249-1.155-0.515-2.302-0.804-3.441c0.026-0.034,0.049-0.074,0.056-0.133c0.273-2.065,0.927-4.003,2.038-5.678
							c0.007-0.014,0.01-0.026,0.016-0.039c1.565-1.485,3.188-2.508,4.245-4.592v-2.703c-0.287-0.426-0.739-0.742-1.347-0.874
							c-2.815-0.609-3.914,5.661-3.314,7.859c-0.016,0.025-0.026,0.051-0.03,0.077c-0.975,1.501-1.618,3.181-1.956,4.988
							c-0.146-0.542-0.289-1.086-0.447-1.624c-0.802-2.754-1.962-5.442-3.386-7.942c0.051-0.033,0.093-0.092,0.105-0.181
							c0.381-2.473,1.334-4.777,3.078-6.381c1.347,0.063,2.629-0.628,3.253-2.023c0.044-0.101,0.086-0.206,0.125-0.313
							c-0.016,0.077-0.035,0.153-0.049,0.232c-0.038,0.215,0.247,0.292,0.293,0.086c0.04,0.004,0.08-0.007,0.117-0.043
							c1.13-1.084,2.323-2.075,3.558-2.995v-2.667c-1.704,1.076-3.087,2.538-3.73,4.64c0.108-0.688,0.039-1.411-0.367-1.932
							c-0.733-0.947-2.129-0.017-2.672,0.696c-0.713,0.94-1.276,2.652-0.898,3.882c-0.025,0.037-0.043,0.078-0.055,0.122
							c-1.178,1.143-2.011,2.58-2.55,4.181c0.158-1.933,0.255-3.882,0.043-5.792c0.029-0.023,0.059-0.049,0.079-0.092
							c0.795-1.597,1.232-3.024,0.936-4.852c-0.16-0.99-0.506-2.567-1.591-2.681c-1.175-0.123-1.916,1.534-1.984,2.625
							c-0.107,1.735,0.979,3.661,1.975,4.874c0.026,0.032,0.055,0.051,0.084,0.065c0.295,2.563,0.03,5.207-0.206,7.773
							c-1.409-2.343-3.052-4.501-4.856-6.367c0-0.02,0.005-0.041,0-0.063c-0.212-1.332-0.62-2.719-1.333-3.821
							c0.876-0.041,1.755-0.063,2.635-0.068c0.429-0.003,0.475-0.74,0.065-0.838c-1.118-0.271-2.244-0.464-3.371-0.59
							c-0.315-0.036-0.63-0.067-0.945-0.092c-0.503-0.278-1.188-0.487-1.787-0.407c0.907-0.172,1.817-0.317,2.732-0.439
							c1.406-0.187,2.821-0.317,4.242-0.39c0.424-0.021,0.481-0.737,0.063-0.838c-1.438-0.347-2.876-0.521-4.306-0.542
							c-0.936-0.014-1.868,0.035-2.795,0.148c0.924-0.31,1.857-0.591,2.795-0.848c2.013-0.551,4.052-0.988,6.112-1.311
							c0.471-0.075,0.458-0.849-0.032-0.849c-2.031,0-4.071,0.249-6.08,0.707c-2.416,0.551-4.787,1.408-7.036,2.518
							c2.189-2.073,4.546-3.868,7.036-5.402c2.346-1.446,4.808-2.659,7.36-3.649c0.24,0.163,0.466,0.298,0.633,0.399
							c0.248,0.15,0.504,0.287,0.763,0.418c-0.077-0.012-0.153-0.027-0.231-0.039c-0.669-0.102-2.112-0.447-2.618,0.288
							c-0.187,0.27,0.002,0.673,0.168,0.886c0.346,0.444,1.007,0.566,1.491,0.657c0.073,0.016,0.147,0.024,0.222,0.037
							c-0.499,0.138-0.972,0.386-1.126,0.879c-0.348,1.108,1.402,1.073,2.847,0.9c0.071,0.029,0.143,0.061,0.214,0.088
							c-0.272,0.145-0.542,0.296-0.796,0.442c-0.449,0.258-1.521,0.766-1.609,1.439c-0.109,0.819,1.243,0.486,1.547,0.371
							c0.35-0.13,0.692-0.308,1.026-0.513c-0.236,0.334-0.451,0.684-0.635,1.044c-0.143,0.281-0.292,0.909,0.197,0.816
							c0.402-0.078,0.792-0.346,1.14-0.652c2.379,0.52,4.989,0.295,7.202-0.846v-1.362c-2.131,0.858-4.386,1.275-6.653,1.67
							c0.002-0.003,0.003-0.004,0.004-0.004c0.541-0.566,1.027-1.212,1.467-1.9c1.633-0.029,3.217-0.605,4.538-1.789
							c0.222-0.149,0.438-0.31,0.645-0.484v-0.789c-1.42,0.404-2.814,0.94-4.226,1.358c0.071-0.144,0.143-0.286,0.21-0.431
							C80.971,70.08,80.973,70.044,80.963,70.014z M67.174,89.423c-0.825,0.265-1.677,0.284-2.338-0.262
							c-0.607-0.503,0.08-1.126,0.449-1.398c0.464-0.339,1.044-0.327,1.565-0.249c0.11,0.015,0.217,0.04,0.323,0.066
							c0.633,0.169,1.195,0.54,1.735,0.948C68.411,88.877,67.8,89.222,67.174,89.423z M70.094,96.927
							c-0.312-0.541,0.107-1.242,0.49-1.557c0.502-0.416,1.197,0.027,1.638,0.34c0.909,0.645,1.633,1.67,2.052,2.787
							C72.983,98.561,70.833,98.205,70.094,96.927z M73.571,108.36c-0.562,0.027-2.191-0.321-1.74-1.339
							c0.302-0.683,1.193-0.881,1.789-0.873c0.938,0.013,1.694,0.83,2.184,1.684C75.08,108.115,74.343,108.326,73.571,108.36z
							 M83.392,88.331c0.909-0.048,1.589,0.91,1.451,1.874c-0.12,0.848-0.695,1.631-1.165,2.261
							c-0.856,1.144-1.936,1.882-2.953,2.785C80.295,93.096,81.215,88.443,83.392,88.331z M78.279,81.119
							c0.355-0.726,1.498-1.904,2.251-1.14c0.524,0.529,0.195,1.735-0.041,2.323c-0.468,1.173-1.603,1.771-2.706,1.738
							c-0.002-0.009,0-0.017-0.002-0.026C77.482,83.081,77.88,81.933,78.279,81.119z M72.881,79.059
							c-0.237-0.768-0.299-1.598-0.012-2.357c0.216-0.572,0.943-1.33,1.521-1.022c0.751,0.398,0.895,2.053,0.96,2.837
							c0.11,1.339-0.312,2.444-0.871,3.592C73.765,81.232,73.229,80.182,72.881,79.059z M68.293,82.28
							c0.154,0.513,0.271,1.034,0.358,1.523c-0.318-0.024-0.673-0.072-1.044-0.146c0.099-0.226,0.026-0.558-0.242-0.626
							c-0.064-0.017-0.128-0.03-0.192-0.046c-0.761-0.187-1.526-0.33-2.296-0.437c-0.057-0.042-0.113-0.084-0.166-0.128
							c0.818-0.042,1.639-0.061,2.462-0.053c0.292,0.002,0.583,0.008,0.876,0.018C68.153,82.388,68.235,82.346,68.293,82.28z
							 M67.174,80.158c0.041-0.002,0.081-0.006,0.122-0.008c0.297,0.404,0.54,0.876,0.737,1.379
							c-0.287-0.072-0.573-0.137-0.859-0.195c-1.173-0.245-2.348-0.398-3.522-0.468c-0.033-0.124-0.058-0.254-0.072-0.387
							C64.772,80.33,65.971,80.226,67.174,80.158z M64.263,78.161c-0.208,0.051-0.397,0.144-0.564,0.286
							c-0.305,0.003-0.61,0.01-0.916,0.024C63.275,78.359,63.769,78.257,64.263,78.161z M63.01,80.554
							c0.008,0.097,0.021,0.19,0.04,0.284c-0.62-0.023-1.24-0.024-1.859-0.003C61.796,80.728,62.402,80.637,63.01,80.554z
							 M80.802,64.868c-0.072,0.204-0.127,0.42-0.168,0.644c-0.036-0.449-0.1-0.892-0.222-1.327c0.147,0.183,0.3,0.36,0.46,0.528
							C80.846,64.761,80.821,64.811,80.802,64.868z"/>
						<path fill="#B0DBDD" d="M78.076,79.22c-0.072,0.125,0.058,0.299,0.179,0.248c2.274-0.992,4.51-2.1,6.714-3.286v-1.843
							C82.247,75.257,79.658,76.479,78.076,79.22z"/>
						<path fill="#B0DBDD" d="M77.271,113.16c-0.682-0.37-1.698-0.575-2.235,0.188c-0.539,0.767-0.222,2.157,0.491,2.639
							c0.866,0.585,2.007,0.463,2.934,0.131c0.004,0,0.004-0.003,0.007-0.004c0.085,0.032,0.169,0.068,0.252,0.104l0.799-0.197
							c-0.221-0.128-0.448-0.244-0.681-0.342C78.84,114.462,78.209,113.669,77.271,113.16z M78.317,115.583
							c-0.604,0.216-1.242,0.305-1.869,0.199c-0.841-0.141-1.453-1.046-1.072-2.005c0.289-0.729,1.347-0.294,1.784-0.055
							c0.706,0.381,1.142,0.982,1.179,1.858C78.332,115.582,78.325,115.58,78.317,115.583z"/>
						<path fill="#B0DBDD" d="M82.14,112.193c0.388,0.131,0.806,0.23,1.229,0.278c-0.127,0.364-0.212,0.757-0.283,1.147
							c-0.001,0.009,0.001,0.018,0,0.026c-0.001,0.002-0.001,0.005-0.002,0.007c-0.557,0.548-1.034,1.18-1.466,1.852l0.741-0.182
							c0.312-0.435,0.649-0.847,1.022-1.221c0.533,0.02,1.104-0.204,1.587-0.544v-0.667c-0.372,0.334-0.886,0.582-1.36,0.64
							c0.067-0.354,0.147-0.705,0.28-1.025c0.368,0.002,0.732-0.041,1.081-0.145v-1.544c-0.979,0.258-1.927,0.626-2.839,1.108
							C82.033,111.974,82.029,112.155,82.14,112.193z"/>
						<path fill="#B0DBDD" d="M81.812,85.109c-0.037,0.212,0.244,0.289,0.293,0.088h0.002c1.044-0.378,1.981-1.145,2.862-2.004
							v-3.352C83.435,81.162,82.206,82.891,81.812,85.109z"/>
					</g>
				</g>
			</g>
		</g>
	</g>
</g>
</svg>
