<?xml version="1.0" encoding="utf-8"?>
<!-- Generator: Adobe Illustrator 16.0.0, SVG Export Plug-In . SVG Version: 6.00 Build 0)  -->
<!DOCTYPE svg PUBLIC "-//W3C//DTD SVG 1.1//EN" "http://www.w3.org/Graphics/SVG/1.1/DTD/svg11.dtd">
<svg version="1.1" xmlns="http://www.w3.org/2000/svg" xmlns:xlink="http://www.w3.org/1999/xlink" x="0px" y="0px"
	 width="340.245px" height="409.63px" viewBox="0 0 340.245 409.63" enable-background="new 0 0 340.245 409.63"
	 xml:space="preserve">
<g id="grid" display="none">
</g>
<g id="Layer_1">
	<g>
		<path fill="#805E8E" d="M283.091,345.387c-1.101,0.646-2.369,1.158-3.662,1.098c0.293-0.957,0.537-1.938,0.77-2.913
			c0.309-1.299-1.696-1.831-2.011-0.528c-0.296,1.24-0.574,2.497-1.005,3.701h-0.004c-0.124,0.042-0.246,0.107-0.365,0.213
			c-2.383,2.052-4.979,3.747-7.813,5.053c0.665-2.677,1.333-5.352,1.919-8.042c1.99,0.505,4.014,0.272,5.983-0.396
			c1.264-0.426,0.716-2.432-0.558-2c-1.294,0.438-2.551,0.655-3.817,0.562c0.661-0.448,1.24-1.04,1.705-1.739
			c0.74-1.115-1.065-2.149-1.796-1.042c-0.477,0.719-1.152,1.438-2.062,1.504c-0.233-1.041-0.45-2.083-0.499-3.148
			c-0.066-1.333-2.144-1.315-2.081,0.021c0.081,1.479,0.394,2.94,0.729,4.374c0.082,0.354,0.289,0.558,0.544,0.662
			c-0.559,2.635-1.214,5.244-1.859,7.854c-0.749-1.959-1.47-3.926-2.25-5.871c1.174-0.802,1.92-2.059,2.182-3.472
			c0.24-1.308-1.764-1.842-2.009-0.527c-0.101,0.57-0.286,1.08-0.571,1.523c-0.407-0.927-0.805-1.864-1.223-2.787
			c-0.545-1.223-2.339-0.167-1.795,1.041c0.429,0.951,0.836,1.902,1.251,2.858c-0.053-0.036-0.085-0.084-0.162-0.101
			c-1.329-0.355-2.383-1.125-2.923-2.423c-0.513-1.22-2.519-0.677-2.004,0.556c0.83,1.998,2.297,3.317,4.399,3.872
			c0.318,0.084,0.592,0.025,0.797-0.115c1.119,2.789,2.093,5.629,3.227,8.415c0.066,0.148,0.152,0.277,0.255,0.378
			c-0.036,0.047-0.08,0.08-0.11,0.142c-3.443,7.007-6.713,14.128-9.604,21.38c-1.648-3.615-4.02-6.941-6.5-10.036
			c0.167-0.125,0.298-0.307,0.336-0.588c0.188-1.496,0.039-2.778-0.619-4.135c-0.587-1.211-2.373-0.154-1.792,1.042
			c0.227,0.472,0.338,0.958,0.394,1.452c-0.547-0.515-1.202-0.89-1.972-1.009c-1.312-0.199-1.857,1.81-0.529,2.009
			c0.216,0.036,0.379,0.137,0.552,0.214c-0.527,0.093-1.061,0.17-1.603,0.179c-1.336,0.011-1.315,2.09,0.024,2.073
			c1.084-0.01,2.15-0.219,3.209-0.455c0.007,0.011,0.007,0.02,0.007,0.02c2.66,3.258,5.214,6.826,6.909,10.685
			c0.227,0.329,0.418,0.678,0.617,1.018c-0.811,2.113-1.589,4.231-2.322,6.37c-0.371,0.281-0.457,0.69-0.341,1.062
			c-0.575,1.694-1.109,3.396-1.621,5.108c-2.115-2.994-4.323-5.906-6.764-8.64c0.538-1.226,1.05-2.453,1.474-3.721
			c0.421-1.274-1.59-1.794-2.011-0.533c-0.26,0.793-0.599,1.555-0.917,2.321c-0.604-0.703-1.24-1.372-1.955-1.985
			c-1.008-0.869-2.483,0.597-1.47,1.469c0.586,0.504,1.131,1.041,1.644,1.605c-1.082,0.239-2.155,0.619-3.074,1.146
			c-1.165,0.661-0.121,2.453,1.043,1.788c1.001-0.57,2.267-0.937,3.438-1.057c2.656,2.931,5.011,6.086,7.276,9.326
			c0.182,0.264,0.435,0.399,0.692,0.442c-1.089,3.815-2.044,7.669-2.789,11.59c-0.264,1.403-0.44,2.807-0.642,4.208
			c-2.101-3.022-4.803-5.474-7.93-7.435l0.014-0.012c0.25-1.065,0.505-2.122,0.87-3.144c0.45-1.254-1.562-1.777-2.012-0.529
			c-0.289,0.82-0.498,1.654-0.706,2.493c-0.508-0.489-1.014-0.979-1.479-1.512c-0.877-1.018-2.338,0.461-1.467,1.459
			c0.38,0.449,0.807,0.848,1.229,1.253c-0.533,0.094-1.077,0.167-1.63,0.171c-1.341,0.016-1.321,2.093,0.021,2.077
			c1.145-0.011,2.247-0.229,3.358-0.489c0.013,0,0.017-0.013,0.036-0.019c0.254,0.171,0.528,0.195,0.778,0.095
			c3.202,2.009,5.951,4.53,7.944,7.796c0.152,0.247,0.358,0.379,0.572,0.444c-1.806,15.589,0.205,31.251,5.651,46.074
			c0.462,1.246,2.471,0.701,2.004-0.558c-3.956-10.757-5.977-21.781-6.124-32.946c0,0,0.029-0.022,0.039-0.04
			c2.228-3.387,5.716-6.659,9.122-8.893c0.024,0.017,0.041,0.033,0.075,0.047c1.399,0.452,2.804,0.893,4.258,1.14
			c1.312,0.222,1.848-1.783,0.53-2.01c-0.726-0.122-1.44-0.292-2.149-0.493c0.898-0.451,1.736-1.022,2.498-1.732
			c0.979-0.92-0.498-2.385-1.47-1.474c-0.964,0.904-2.056,1.508-3.287,1.895c-0.092-1.255-0.159-2.523,0.099-3.747
			c0.279-1.307-1.729-1.841-2.008-0.527c-0.382,1.809-0.182,3.634-0.087,5.463c-2.737,1.864-5.418,4.261-7.576,6.898
			c0.115-5.124,0.572-10.263,1.476-15.423c0.121-0.682,0.272-1.36,0.405-2.035c0.079-0.028,0.157-0.04,0.235-0.095
			c3.921-2.569,8.18-4.108,12.73-5.042c0.073,0.029,0.139,0.077,0.234,0.095c1.054,0.179,2.066,0.507,2.731,1.396
			c0.798,1.06,2.604,0.023,1.796-1.045c-0.497-0.663-1.068-1.17-1.721-1.553c0.711-0.167,1.419-0.372,2.101-0.666
			c1.229-0.533,0.167-2.316-1.045-1.795c-0.836,0.359-1.721,0.552-2.621,0.678c0.156-0.925,0.447-1.823,0.737-2.724
			c0.41-1.271-1.596-1.797-2.008-0.528c-0.438,1.368-0.844,2.735-0.897,4.17c-4.165,0.874-8.097,2.285-11.749,4.448
			c1.062-4.836,2.427-9.595,4.016-14.294c4.25-2.439,8.687-4.495,13.222-6.349c0.159-0.066,0.269-0.166,0.366-0.271
			c0.041,0.008,0.062,0.034,0.107,0.038c1.191,0.227,2.213,0.789,3.146,1.555c1.029,0.841,2.505-0.623,1.469-1.471
			c-0.49-0.398-1.005-0.757-1.542-1.081c0.466-0.149,0.931-0.299,1.387-0.499c1.229-0.528,0.166-2.312-1.046-1.792
			c-0.826,0.357-1.69,0.587-2.559,0.802c-0.117-0.965-0.252-1.916-0.305-2.885c-0.06-1.336-2.139-1.319-2.071,0.022
			c0.058,1.219,0.271,2.418,0.376,3.628c-3.919,1.609-7.768,3.353-11.493,5.354c0.543-1.517,1.142-3.015,1.728-4.519
			c0.084-0.114,0.134-0.252,0.149-0.4c3.036-7.753,6.525-15.345,10.173-22.771c0.089-0.18,0.115-0.355,0.104-0.515
			c3.588-1.433,6.782-3.426,9.724-5.902c1.194,1.289,2.806,2.057,4.51,2.498c1.294,0.336,1.821-1.668,0.529-2.004
			c-0.696-0.184-1.452-0.432-2.14-0.789c1.171-0.204,2.302-0.643,3.348-1.265C285.291,346.493,284.242,344.701,283.091,345.387z"/>
		<path fill="#805E8E" d="M258.286,335.896c-1.378-0.967-3.819,0.115-3.222,2.183c0.4,1.388,1.521,1.883,2.87,1.64
			c1.117-0.203,1.726-1.545,1.441-2.559C259.202,336.538,258.793,336.125,258.286,335.896z"/>
		<path fill="#805E8E" d="M263.494,333.678c-0.105-0.065-0.208-0.128-0.31-0.193c-2.278-1.422-4.352,2.177-2.09,3.588
			c0.105,0.065,0.213,0.132,0.311,0.193C263.688,338.688,265.761,335.091,263.494,333.678z"/>
		<path fill="#805E8E" d="M268.184,330.415l-0.319,0.072c-2.612,0.608-1.489,4.607,1.113,4.003l0.318-0.072
			C271.909,333.81,270.791,329.811,268.184,330.415z"/>
		<path fill="#805E8E" d="M274.619,333.182l-0.252,0.062c-2.612,0.608-1.491,4.602,1.113,3.998l0.249-0.058
			C278.341,336.576,277.223,332.578,274.619,333.182z"/>
		<path fill="#805E8E" d="M279.916,336.483c-2.614,0.607-1.491,4.602,1.111,3.998C283.636,339.875,282.52,335.878,279.916,336.483z"
			/>
		<path fill="#805E8E" d="M286.517,340.813c-2.614,0.604-1.499,4.604,1.11,3.999C290.239,344.204,289.123,340.209,286.517,340.813z"
			/>
		<path fill="#805E8E" d="M285.333,350.236l0.057,0.252c0.607,2.609,4.607,1.494,4.004-1.112l-0.061-0.255
			C288.729,346.516,284.727,347.63,285.333,350.236z"/>
		<path fill="#805E8E" d="M272.402,328.988l0.059,0.256c0.609,2.61,4.608,1.49,4.003-1.114l-0.06-0.254
			C275.8,325.266,271.798,326.387,272.402,328.988z"/>
		<path fill="#805E8E" d="M257.494,329.43l-0.505,0.12c-2.613,0.605-1.495,4.603,1.112,4l0.501-0.115
			C261.216,332.824,260.102,328.827,257.494,329.43z"/>
		<path fill="#805E8E" d="M286.057,334.254l-0.249,0.062c-2.615,0.604-1.494,4.607,1.108,4.003l0.257-0.062
			C289.781,337.65,288.666,333.651,286.057,334.254z"/>
		<path fill="#805E8E" d="M291.5,343.917l-0.253,0.061c-2.609,0.604-1.493,4.602,1.113,3.998l0.252-0.056
			C295.224,347.312,294.107,343.312,291.5,343.917z"/>
		<path fill="#805E8E" d="M242.784,365.531c-0.312-0.809-0.854-1.531-1.78-1.646c-1.129-0.142-2.224,0.274-2.542,1.476
			c-0.235,0.894,0.271,2.086,1.204,2.42c0.459,0.336,1.031,0.485,1.672,0.304C242.348,367.805,243.197,366.586,242.784,365.531z"/>
		<path fill="#805E8E" d="M242.104,357.254l-0.504,0.119c-2.616,0.61-1.495,4.603,1.111,4l0.507-0.115
			C245.828,360.647,244.708,356.65,242.104,357.254z"/>
		<path fill="#805E8E" d="M247.821,354.328l-0.255,0.059c-2.609,0.606-1.491,4.61,1.114,4l0.252-0.057
			C251.545,357.724,250.424,353.724,247.821,354.328z"/>
		<path fill="#805E8E" d="M234.105,380.163l-0.257,0.059c-2.61,0.608-1.494,4.607,1.114,4.005l0.251-0.061
			C237.827,383.557,236.711,379.557,234.105,380.163z"/>
		<path fill="#805E8E" d="M238.979,372.682c-0.104-0.064-0.208-0.131-0.31-0.195c-2.284-1.418-4.355,2.18-2.088,3.593
			c0.104,0.064,0.209,0.128,0.309,0.192C239.17,377.688,241.244,374.095,238.979,372.682z"/>
		<path fill="#805E8E" d="M247.027,371.708c-0.862-0.666-2.021-0.795-2.857,0.041c-0.741,0.74-0.876,2.218-0.004,2.938
			c0.487,0.404,0.907,0.829,1.568,0.93c1.115,0.175,2.223-0.3,2.533-1.479C248.512,373.214,247.981,372.029,247.027,371.708z"/>
		<path fill="#805E8E" d="M231.125,392.579c-2.616,0.604-1.495,4.607,1.109,4.002C234.847,395.975,233.729,391.976,231.125,392.579z
			"/>
		<path fill="#805E8E" d="M230.071,400.273c-1.379-0.97-3.819,0.109-3.223,2.18c0.401,1.392,1.524,1.878,2.87,1.64
			c1.116-0.199,1.724-1.54,1.446-2.554C230.989,400.912,230.577,400.504,230.071,400.273z"/>
		<path fill="#805E8E" d="M241.067,390.847c-0.105-0.062-0.209-0.132-0.311-0.19c-2.281-1.424-4.353,2.173-2.089,3.589
			c0.104,0.067,0.209,0.126,0.312,0.196C241.262,395.86,243.333,392.261,241.067,390.847z"/>
		<path fill="#805E8E" d="M258.236,401.476l-0.503,0.114c-2.615,0.609-1.495,4.603,1.109,3.998l0.507-0.114
			C261.963,404.865,260.841,400.866,258.236,401.476z"/>
		<path fill="#805E8E" d="M266.028,406.325c-2.618,0.603-1.494,4.606,1.108,3.999C269.75,409.719,268.632,405.72,266.028,406.325z"
			/>
		<path fill="#805E8E" d="M271.4,397.35l-0.248,0.06c-2.616,0.604-1.497,4.603,1.109,3.999l0.251-0.06
			C275.125,400.741,274.006,396.745,271.4,397.35z"/>
		<path fill="#805E8E" d="M273.723,391.191c-0.741-0.196-1.623,0.094-2.134,0.682c-1.728,1.137-0.631,4.337,1.717,3.695
			c0.927-0.249,1.72-0.837,1.897-1.84C275.393,392.613,274.887,391.5,273.723,391.191z"/>
		<path fill="#805E8E" d="M268.608,385.516c-0.104-0.063-0.214-0.126-0.314-0.193c-2.278-1.422-4.353,2.177-2.084,3.59
			c0.104,0.064,0.208,0.131,0.311,0.197C268.801,390.527,270.874,386.929,268.608,385.516z"/>
		<path fill="#805E8E" d="M269.765,367.35c-2.612,0.608-1.496,4.608,1.11,4.004C273.488,370.749,272.367,366.746,269.765,367.35z"/>
		<path fill="#805E8E" d="M275.607,371.856l-0.506,0.118c-2.613,0.604-1.494,4.604,1.111,3.999l0.506-0.114
			C279.333,375.249,278.211,371.25,275.607,371.856z"/>
		<path fill="#805E8E" d="M276.821,378.238l-0.254,0.055c-2.61,0.61-1.492,4.607,1.113,4.003l0.253-0.06
			C280.544,381.633,279.427,377.634,276.821,378.238z"/>
	</g>
	<g>
		<path fill="#805E8E" d="M326.281,372.226c-0.803,0.471-1.726,0.845-2.669,0.802c0.214-0.696,0.393-1.41,0.562-2.123
			c0.226-0.944-1.234-1.332-1.465-0.381c-0.213,0.902-0.418,1.816-0.732,2.69v0.004c-0.091,0.03-0.179,0.075-0.267,0.153
			c-1.734,1.494-3.626,2.729-5.689,3.679c0.484-1.95,0.971-3.895,1.398-5.854c1.449,0.368,2.92,0.198,4.354-0.292
			c0.921-0.305,0.522-1.767-0.405-1.456c-0.94,0.319-1.856,0.478-2.781,0.408c0.484-0.324,0.904-0.758,1.245-1.264
			c0.54-0.812-0.776-1.566-1.308-0.757c-0.349,0.524-0.84,1.047-1.503,1.093c-0.17-0.757-0.326-1.516-0.363-2.29
			c-0.046-0.971-1.559-0.959-1.513,0.017c0.055,1.072,0.284,2.138,0.526,3.18c0.062,0.261,0.213,0.409,0.399,0.482
			c-0.406,1.92-0.886,3.819-1.358,5.718c-0.541-1.428-1.067-2.857-1.636-4.273c0.858-0.584,1.399-1.497,1.593-2.527
			c0.173-0.952-1.291-1.344-1.464-0.387c-0.074,0.417-0.207,0.791-0.416,1.112c-0.294-0.676-0.584-1.357-0.893-2.031
			c-0.397-0.891-1.701-0.122-1.306,0.761c0.312,0.69,0.606,1.385,0.91,2.079c-0.039-0.021-0.064-0.059-0.116-0.071
			c-0.971-0.261-1.735-0.823-2.132-1.766c-0.37-0.889-1.832-0.492-1.456,0.406c0.604,1.451,1.673,2.414,3.203,2.82
			c0.233,0.06,0.428,0.017,0.58-0.086c0.816,2.031,1.521,4.1,2.348,6.123c0.048,0.11,0.111,0.205,0.185,0.277
			c-0.025,0.033-0.059,0.061-0.079,0.103c-2.506,5.105-4.888,10.287-6.992,15.566c-1.199-2.631-2.925-5.054-4.733-7.305
			c0.124-0.091,0.22-0.226,0.247-0.429c0.137-1.088,0.029-2.024-0.452-3.012c-0.425-0.879-1.727-0.111-1.302,0.762
			c0.162,0.34,0.245,0.695,0.284,1.055c-0.397-0.376-0.874-0.646-1.435-0.732c-0.953-0.149-1.352,1.316-0.386,1.461
			c0.159,0.024,0.274,0.098,0.404,0.152c-0.386,0.075-0.773,0.128-1.167,0.133c-0.976,0.01-0.959,1.521,0.013,1.512
			c0.792-0.009,1.568-0.162,2.337-0.333l0.01,0.019c1.933,2.366,3.793,4.964,5.026,7.773c0.168,0.238,0.304,0.489,0.447,0.741
			c-0.587,1.538-1.153,3.079-1.687,4.638c-0.272,0.203-0.336,0.501-0.251,0.771c-0.416,1.232-0.807,2.472-1.18,3.715
			c-1.538-2.175-3.146-4.296-4.921-6.288c0.39-0.891,0.761-1.784,1.074-2.709c0.303-0.925-1.16-1.304-1.467-0.388
			c-0.188,0.58-0.436,1.133-0.669,1.692c-0.437-0.512-0.902-0.998-1.421-1.444c-0.733-0.636-1.807,0.434-1.069,1.068
			c0.427,0.368,0.822,0.757,1.193,1.171c-0.783,0.169-1.565,0.447-2.238,0.829c-0.846,0.482-0.087,1.791,0.762,1.306
			c0.729-0.414,1.649-0.681,2.501-0.768c1.934,2.128,3.649,4.428,5.297,6.788c0.132,0.19,0.314,0.292,0.501,0.323
			c-0.791,2.777-1.487,5.582-2.025,8.436c-0.192,1.017-0.322,2.044-0.467,3.062c-1.53-2.196-3.497-3.984-5.771-5.411l0.007-0.013
			c0.183-0.771,0.369-1.537,0.635-2.281c0.324-0.917-1.14-1.295-1.466-0.384c-0.209,0.592-0.363,1.199-0.511,1.809
			c-0.374-0.358-0.744-0.712-1.079-1.1c-0.639-0.739-1.703,0.334-1.07,1.066c0.278,0.322,0.59,0.617,0.895,0.905
			c-0.388,0.073-0.784,0.125-1.185,0.128c-0.976,0.012-0.96,1.524,0.015,1.51c0.833-0.007,1.638-0.163,2.446-0.356
			c0.008,0,0.013-0.008,0.024-0.008c0.187,0.124,0.388,0.137,0.567,0.062c2.331,1.466,4.334,3.302,5.784,5.682
			c0.111,0.178,0.26,0.272,0.416,0.32c-1.312,11.347,0.148,22.751,4.116,33.542c0.335,0.906,1.797,0.509,1.458-0.405
			c-2.881-7.834-4.353-15.855-4.457-23.986c0.009-0.007,0.019-0.012,0.019-0.012c1.628-2.482,4.167-4.863,6.647-6.491
			c0.02,0.01,0.033,0.026,0.054,0.034c1.021,0.329,2.043,0.648,3.102,0.829c0.958,0.164,1.347-1.296,0.387-1.464
			c-0.534-0.088-1.048-0.212-1.564-0.356c0.652-0.332,1.264-0.744,1.816-1.261c0.714-0.672-0.359-1.737-1.07-1.073
			c-0.699,0.656-1.493,1.1-2.393,1.381c-0.065-0.916-0.112-1.836,0.075-2.73c0.201-0.951-1.261-1.341-1.461-0.383
			c-0.28,1.315-0.135,2.647-0.065,3.978c-1.993,1.354-3.944,3.103-5.516,5.019c0.083-3.731,0.417-7.469,1.074-11.229
			c0.091-0.496,0.198-0.987,0.297-1.48c0.056-0.017,0.112-0.029,0.171-0.069c2.852-1.869,5.957-2.988,9.265-3.672
			c0.057,0.027,0.103,0.058,0.171,0.068c0.771,0.133,1.505,0.372,1.988,1.018c0.582,0.77,1.896,0.023,1.309-0.757
			c-0.359-0.486-0.775-0.851-1.253-1.132c0.519-0.119,1.033-0.269,1.527-0.486c0.896-0.383,0.124-1.688-0.758-1.306
			c-0.611,0.263-1.252,0.404-1.908,0.493c0.114-0.672,0.324-1.329,0.537-1.981c0.3-0.928-1.163-1.307-1.463-0.383
			c-0.32,0.992-0.614,1.989-0.655,3.031c-3.029,0.638-5.892,1.666-8.553,3.243c0.776-3.523,1.768-6.99,2.925-10.409
			c3.092-1.774,6.325-3.271,9.626-4.621c0.115-0.051,0.197-0.12,0.266-0.199c0.03,0.008,0.043,0.024,0.078,0.03
			c0.866,0.161,1.612,0.571,2.291,1.128c0.748,0.617,1.822-0.45,1.069-1.069c-0.357-0.289-0.732-0.548-1.123-0.783
			c0.338-0.111,0.676-0.222,1.01-0.368c0.898-0.381,0.121-1.68-0.762-1.301c-0.603,0.261-1.232,0.425-1.864,0.583
			c-0.084-0.703-0.182-1.397-0.22-2.1c-0.046-0.975-1.559-0.962-1.506,0.017c0.042,0.885,0.194,1.761,0.271,2.642
			c-2.853,1.171-5.656,2.439-8.365,3.896c0.395-1.104,0.83-2.197,1.262-3.292c0.056-0.08,0.091-0.18,0.103-0.29
			c2.21-5.646,4.75-11.172,7.407-16.577c0.063-0.131,0.084-0.259,0.074-0.374c2.612-1.044,4.938-2.496,7.081-4.296
			c0.869,0.937,2.044,1.494,3.282,1.818c0.942,0.247,1.326-1.219,0.387-1.461c-0.509-0.132-1.059-0.311-1.562-0.574
			c0.855-0.146,1.681-0.465,2.438-0.92C327.883,373.033,327.118,371.728,326.281,372.226z"/>
		<path fill="#805E8E" d="M308.225,365.32c-1.006-0.703-2.781,0.079-2.347,1.585c0.289,1.015,1.107,1.373,2.088,1.194
			c0.813-0.145,1.259-1.124,1.051-1.861C308.89,365.788,308.592,365.486,308.225,365.32z"/>
		<path fill="#805E8E" d="M312.014,363.705c-0.077-0.051-0.15-0.098-0.227-0.146c-1.659-1.029-3.164,1.59-1.521,2.614
			c0.08,0.048,0.155,0.1,0.231,0.142C312.154,367.35,313.666,364.732,312.014,363.705z"/>
		<path fill="#805E8E" d="M315.429,361.329l-0.233,0.051c-1.9,0.443-1.086,3.356,0.812,2.919l0.231-0.056
			C318.142,363.799,317.324,360.887,315.429,361.329z"/>
		<path fill="#805E8E" d="M320.112,363.343l-0.181,0.042c-1.905,0.444-1.09,3.352,0.808,2.913l0.183-0.043
			C322.82,365.812,322.008,362.904,320.112,363.343z"/>
		<path fill="#805E8E" d="M323.966,365.745c-1.898,0.441-1.082,3.352,0.815,2.914C326.676,368.214,325.865,365.305,323.966,365.745z
			"/>
		<path fill="#805E8E" d="M328.773,368.896c-1.899,0.442-1.089,3.356,0.81,2.912C331.486,371.367,330.669,368.457,328.773,368.896z"
			/>
		<path fill="#805E8E" d="M327.916,375.759l0.041,0.185c0.438,1.898,3.352,1.085,2.911-0.81l-0.043-0.187
			C330.385,373.047,327.473,373.86,327.916,375.759z"/>
		<path fill="#805E8E" d="M318.5,360.289l0.044,0.188c0.44,1.899,3.353,1.086,2.915-0.814l-0.044-0.183
			C320.974,357.581,318.061,358.396,318.5,360.289z"/>
		<path fill="#805E8E" d="M307.647,360.615l-0.367,0.083c-1.905,0.443-1.091,3.352,0.808,2.913l0.369-0.083
			C310.356,363.083,309.544,360.17,307.647,360.615z"/>
		<path fill="#805E8E" d="M328.439,364.128l-0.18,0.038c-1.905,0.442-1.09,3.355,0.807,2.915l0.184-0.043
			C331.149,366.597,330.337,363.684,328.439,364.128z"/>
		<path fill="#805E8E" d="M332.401,371.155l-0.185,0.045c-1.899,0.441-1.082,3.354,0.811,2.912l0.185-0.044
			C335.114,373.632,334.301,370.719,332.401,371.155z"/>
		<path fill="#805E8E" d="M296.936,386.889c-0.226-0.586-0.622-1.11-1.295-1.194c-0.821-0.104-1.618,0.198-1.85,1.073
			c-0.167,0.652,0.2,1.52,0.876,1.762c0.336,0.243,0.751,0.353,1.216,0.22C296.625,388.546,297.237,387.661,296.936,386.889z"/>
		<path fill="#805E8E" d="M296.442,380.865l-0.366,0.09c-1.904,0.441-1.089,3.35,0.81,2.908l0.367-0.084
			C299.153,383.341,298.339,380.429,296.442,380.865z"/>
		<path fill="#805E8E" d="M300.603,378.737l-0.183,0.042c-1.903,0.443-1.087,3.355,0.811,2.914l0.186-0.043
			C303.316,381.207,302.5,378.296,300.603,378.737z"/>
		<path fill="#805E8E" d="M290.623,397.544l-0.19,0.044c-1.899,0.442-1.086,3.351,0.814,2.911l0.179-0.041
			C293.328,400.015,292.516,397.107,290.623,397.544z"/>
		<path fill="#805E8E" d="M294.168,392.1c-0.077-0.048-0.151-0.1-0.226-0.146c-1.66-1.031-3.167,1.589-1.523,2.616
			c0.081,0.051,0.152,0.097,0.229,0.146C294.31,395.743,295.816,393.123,294.168,392.1z"/>
		<path fill="#805E8E" d="M300.028,391.388c-0.632-0.486-1.476-0.576-2.081,0.028c-0.542,0.542-0.639,1.619-0.002,2.143
			c0.354,0.295,0.66,0.603,1.143,0.673c0.81,0.129,1.619-0.212,1.843-1.071C301.108,392.485,300.722,391.626,300.028,391.388z"/>
		<path fill="#805E8E" d="M288.449,406.584c-1.902,0.438-1.087,3.351,0.81,2.913C291.161,409.055,290.346,406.143,288.449,406.584z"
			/>
		<path fill="#805E8E" d="M295.688,405.32c-0.076-0.042-0.153-0.094-0.227-0.135c-1.66-1.035-3.169,1.582-1.52,2.606
			c0.074,0.053,0.15,0.095,0.226,0.146C295.828,408.969,297.338,406.352,295.688,405.32z"/>
		<path fill="#805E8E" d="M319.463,405.571c-0.541-0.14-1.183,0.068-1.555,0.5c-1.259,0.825-0.458,3.155,1.249,2.69
			c0.676-0.184,1.252-0.615,1.384-1.342C320.677,406.612,320.31,405.796,319.463,405.571z"/>
		<path fill="#805E8E" d="M315.738,401.441c-0.072-0.048-0.155-0.093-0.229-0.141c-1.66-1.035-3.169,1.582-1.52,2.614
			c0.077,0.046,0.153,0.094,0.229,0.142C315.877,405.091,317.384,402.467,315.738,401.441z"/>
		<path fill="#805E8E" d="M316.578,388.216c-1.9,0.44-1.087,3.354,0.81,2.917C319.292,390.689,318.473,387.776,316.578,388.216z"/>
		<path fill="#805E8E" d="M320.834,391.5l-0.372,0.083c-1.898,0.438-1.086,3.351,0.813,2.912l0.367-0.084
			C323.543,393.967,322.727,391.055,320.834,391.5z"/>
		<path fill="#805E8E" d="M321.719,396.144l-0.188,0.039c-1.898,0.44-1.086,3.354,0.812,2.917l0.186-0.048
			C324.428,398.613,323.612,395.701,321.719,396.144z"/>
	</g>
	<path fill="#298A95" d="M8.838,40.918c-1.537,3.973-3.868,7.665-6.67,10.88c-3.633,1.581-7.748,3.341-10.29,6.521
		c-1.657,2.066-1.739,6.328,0.865,7.765c2.411,1.325,5.51-0.301,7.191-2.143c2.848-3.124,3.254-7.148,3.404-11.196
		c0-0.026-0.011-0.047-0.008-0.074c2.648-3.049,4.87-6.558,6.442-10.284c0.98,3.08,2.012,6.142,3.091,9.192
		c-0.076,0.153-0.081,0.34,0.04,0.551c0.127,0.228,0.27,0.447,0.402,0.673c1.043,2.88,2.129,5.748,3.288,8.584
		c-0.065,0.093-0.123,0.199-0.128,0.36c-0.225,5.385-1.588,10.569-4.363,15.223c-0.021,0.032-0.024,0.066-0.033,0.102
		c-4.157,4.306-8.604,7.443-11.104,13.131c-1.862,4.246,0.09,8.366,4.912,8.759c8.369,0.686,9.838-15.763,7.486-21.219
		c0.037-0.074,0.062-0.144,0.066-0.214c2.424-4.161,3.834-8.677,4.316-13.42c0.577,1.341,1.145,2.697,1.745,4.029
		c3.104,6.83,7.221,13.371,12.062,19.347c-0.142,0.1-0.246,0.261-0.263,0.5c-0.423,6.469-2.562,12.684-7.198,17.351
		c-3.939,0.256-7.485,2.437-8.917,6.214c-0.919,2.416-1.069,5.794,0.981,7.671c2.404,2.204,6.206-0.625,7.586-2.627
		c1.82-2.632,2.992-7.206,1.545-10.246c0.063-0.106,0.111-0.219,0.128-0.336c3.117-3.304,5.145-7.255,6.271-11.535
		c0.072,5.013,0.335,10.053,1.477,14.891c-0.077,0.069-0.156,0.145-0.204,0.262c-1.874,4.352-2.758,8.161-1.386,12.757
		c0.74,2.495,2.182,6.435,5.371,6.386c3.457-0.054,5.157-4.536,5.055-7.364c-0.16-4.489-3.859-9.093-7.094-11.897
		c-0.086-0.077-0.176-0.118-0.266-0.144c-1.567-6.491-1.525-13.364-1.549-20.035c4.756,5.579,10.137,10.606,15.904,14.835
		c-0.002,0.055-0.006,0.107,0.01,0.165c1.52,5.151,4.396,10.504,9.506,12.743c2.622,1.152,7.499,1.722,8.869-1.637
		c3.969-9.742-10.896-12.688-17.391-12.329c-5.53-4.04-10.648-8.799-15.193-14.062c3.622,2.075,7.863,3.194,11.896,4.018
		c0.058,0.059,0.118,0.12,0.199,0.164c3.437,1.875,6.993,3.27,10.947,2.348c2.311-0.539,5.225-2.922,4.502-5.558
		c-0.664-2.422-4.088-2.781-6.131-2.58c-3.223,0.324-6.516,2.207-9.018,4.255c-5.694-1.14-12.108-2.823-16.057-7.372
		c-0.096-0.105-0.201-0.17-0.318-0.204c-3.909-5.19-7.287-10.766-9.992-16.542c-1.475-3.153-2.818-6.383-4.105-9.64
		c3.146,4.152,6.953,7.744,11.604,10.221l0.002,0.012c1.777,3.759,4.84,6.684,8.576,8.498c3.089,1.5,7.012,0.546,7.643-3.268
		c1.09-6.559-10.856-6.938-14.932-6.237c-0.021,0.002-0.036,0.018-0.053,0.019c-6.568-3.281-11.471-8.97-15.105-15.247
		c-1.363-3.794-2.653-7.625-3.849-11.492c2.865,2.99,6.965,4.416,11.069,5.098c2.066,2.732,4.95,4.686,8.475,4.574
		c2.427-0.076,5.006-1.496,6.1-3.69c1.141-2.276-1.056-3.95-2.958-4.58c-3.806-1.255-8.163,0.56-11.54,2.24
		c-4.59-0.769-9.105-2.48-11.659-6.608c-0.131-0.214-0.308-0.303-0.49-0.304c-1.435-4.819-2.741-9.65-4.006-14.465
		c1.925,1.487,4.172,2.529,6.513,3.13c0.336,3.124,2.393,4.963,5.261,5.979c2.092,0.739,5.11,0.946,6.459-1.182
		c1.362-2.144,0.056-5.608-2.158-6.625c-2.681-1.232-5.976-0.562-8.578,0.578c-0.007,0.005-0.014,0.01-0.014,0.01
		c-2.906-0.593-5.671-1.994-7.832-4.027c-0.082-0.082-0.169-0.129-0.25-0.162c-0.251-0.954-0.514-1.915-0.756-2.869
		c-0.229-0.894-1.663-0.699-1.434,0.208c0.527,2.069,1.07,4.143,1.621,6.216c-0.186,0.05-0.352,0.167-0.463,0.38
		c-1.271,2.511-2.761,4.892-4.65,6.973c-2.35,0.175-4.807,1.778-6.205,3.621c-0.868,1.138-1.825,3.177-0.898,4.541
		c1.109,1.637,3.681,0.642,4.971-0.188c2.386-1.518,2.872-4.208,3.124-6.833c0.001-0.026-0.007-0.047-0.006-0.068
		c0,0,0.009-0.007,0.009-0.018c1.854-1.997,3.31-4.304,4.582-6.707c1.344,4.974,2.754,9.945,4.293,14.879
		C9.041,40.609,8.913,40.727,8.838,40.918z"/>
	<path fill="#778184" d="M153.976,376.562c-1.101,0.217-2.199,0.551-3.276,0.965c2.143-1.681,4.157-3.507,5.802-5.785
		c1.958-2.721,2.886-8.832-1.521-9.804c-3.75-0.825-8.022,3.676-10.355,5.958c-0.839,0.812-1.707,1.686-2.568,2.6
		c1.45-2.94,2.811-5.922,3.989-8.991c1.206-3.139,5.161-13.047-0.393-14.631c-3.899-1.11-6.497,3.535-8.087,7.413
		c0.174-4.826-0.916-15.589-8.285-13.913c-6.14,1.395-5.088,12.163-4.719,16.596c0.136,1.615,0.353,3.226,0.605,4.833
		c-0.185-0.407-0.358-0.814-0.549-1.214c-1.668-3.521-4.709-11.441-9.417-11.86c-1.742-0.153-2.868,1.872-3.259,3.254
		c-0.809,2.904,0.736,6.431,1.858,9.019c0.173,0.395,0.369,0.788,0.549,1.183c-2.151-2.038-4.682-3.63-7.274-3.018
		c-6.502,1.546,1.321,11.812,6.915,18.475c-1.957-1.298-4.003-2.472-5.921-3.587c-2.502-1.456-8.026-5.234-11.175-3.804
		c-3.823,1.733,1.824,7.346,3.262,8.499c1.651,1.33,3.483,2.493,5.398,3.544c-2.157-0.218-4.32-0.294-6.43-0.188
		c-1.641,0.084-4.792,1.099-2.865,3.198c2.501,2.722,6.924,4.009,10.384,4.888c8.183,2.08,17.073,2.287,25.439,1.595
		c0.208-0.022,0.36-0.111,0.462-0.244c4.278-0.656,8.542-2.01,12.615-3.363c3.954-1.313,10.217-3.059,12.647-6.807
		C159.717,378.425,157.028,375.957,153.976,376.562z M153.953,382.92c-3.813,2.402-8.361,3.778-12.647,5.066
		c-3.2,0.962-6.536,1.948-9.862,2.368c-0.146,0.021-0.254,0.08-0.349,0.157c-9.994,0.757-21.142,0.442-30.337-3.83
		c-1.189-0.551-2.367-1.205-3.336-2.095c-1.34-1.235,2.764-1.177,3.344-1.187c2.886-0.033,5.885,0.253,8.818,0.865
		c3.029,1.314,6.174,2.375,9.215,3.214c0.742,0.209,1.128-0.899,0.467-1.249c-2.683-1.405-5.637-2.427-8.68-3.117
		c-2.376-1.05-4.699-2.23-6.917-3.563c-2.405-1.447-5.114-3.359-6.264-6.03c-0.832-1.934,0.239-2.338,1.951-1.967
		c3.874,0.842,7.611,3.33,10.924,5.404c2.886,1.802,6.043,3.722,8.37,6.238c0.522,0.558,1.464-0.213,1.038-0.84
		c-2.418-3.56-5.583-6.642-8.243-10.019c-1.315-1.67-8.988-11.371-3.439-11.977c2.855-0.311,5.968,2.853,8.352,5.814
		c2.823,5.11,6.337,9.931,9.917,14.445c0.527,0.668,1.573,0.072,1.147-0.704c-2.554-4.577-5.575-9.002-8.912-13.037
		c-0.088-0.107-0.177-0.222-0.271-0.329c-0.38-0.646-0.774-1.286-1.138-1.938c-1.594-2.861-3.019-5.875-3.753-9.083
		c-0.363-1.602-0.231-6.526,2.644-5.232c1.869,0.844,3.16,3.185,4.194,4.837c1.583,2.537,2.886,5.258,4.137,7.975
		c0.76,1.648,1.461,3.317,2.145,4.995c0.079,0.32,0.151,0.648,0.239,0.967c0.682,2.567,1.489,5.604,3.29,7.653
		c0.435,0.497,1.36-0.069,1.104-0.683c-1.123-2.738-2.207-5.49-3.328-8.222c-0.761-2.934-1.293-5.933-1.665-8.934
		c-0.496-4.037-2.106-15.381,3.229-17.149c3.182-1.056,5.445,2.487,6.203,4.979c1.084,3.55,0.792,7.592,0.431,11.232
		c-0.031,0.315-0.072,0.636-0.11,0.948c-2.079,5.898-3.771,12.333-4.312,18.542c-0.057,0.65,1.035,0.907,1.267,0.293
		c2.358-6.213,3.86-12.999,4.486-19.678c2.145-6.205,4.957-11.131,8.217-9.798c4.668,1.914-1.134,13.925-2.267,16.54
		c-1.595,3.688-3.427,7.256-5.328,10.791c-0.8,1.198-1.504,2.431-2.008,3.697c-0.312,0.782,0.76,1.409,1.186,0.633
		c0.567-1.042,1.131-2.091,1.692-3.132c1.323-1.99,2.976-3.825,4.492-5.533c2.678-3.014,5.941-6.51,9.862-7.826
		c2.309-0.771,3.409,0.974,3.7,3.048c0.406,2.888-2.138,5.601-3.974,7.458c-3.566,3.607-8.08,6.029-11.896,9.321
		c-0.576,0.503,0.233,1.495,0.842,1.035c2.97-2.214,6.262-4.174,9.69-5.586c1.46-0.6,4.714-1.906,5.517,0.204
		C157.696,380.666,155.124,382.186,153.953,382.92z"/>
	<path fill="#298A95" d="M227.471,353.366c-3.497,1.559-7.084,2.895-10.446,4.687c1.896-2.14,3.903-4.167,6.105-6.009
		c0.86-0.723-0.414-1.916-1.261-1.202c-1.583,1.328-3.071,2.751-4.49,4.235c1.307-2.737,2.627-5.467,4.289-8.016
		c0.618-0.941-0.924-1.756-1.536-0.82c-1.904,2.917-3.363,6.069-4.857,9.212c0.417-2.59,0.726-5.198,0.837-7.818
		c0.054-1.119-1.69-1.048-1.738,0.065c-0.157,3.448-0.636,6.874-1.314,10.262c-0.776-3.784-1.069-7.624-1.302-11.484
		c-0.069-1.121-1.811-1.065-1.745,0.059c0.308,5.028,0.687,10.019,2.074,14.881c0.049,0.179,0.146,0.299,0.255,0.387
		c-2.515,7.21-5.229,14.342-7.799,21.536c-1.157-10.76-4.308-21.257-8.034-31.38l0.004-0.02c0.063-0.111,0.097-0.244,0.107-0.384
		c2.573-5.229,4.076-10.651,3.526-16.552c-0.104-1.111-1.845-1.055-1.739,0.066c0.361,3.918-0.215,7.565-1.413,11.104
		c0.368-4.049,0.116-8.142-0.481-12.183c-0.159-1.102-1.903-1.052-1.736,0.064c0.583,3.956,0.841,7.958,0.489,11.927
		c-0.724-4.129-2.127-8.125-4.099-11.833c-0.534-0.995-2.013-0.077-1.491,0.912c1.444,2.707,2.575,5.58,3.337,8.547
		c-1.909-2.468-4.286-4.63-6.637-6.733c-0.84-0.75-2.04,0.515-1.205,1.26c3.324,2.976,6.728,6.017,8.583,9.993
		c-3.144-3.385-7.223-5.9-11.849-6.535c-1.105-0.153-1.502,1.544-0.387,1.698c4.335,0.597,8.136,2.909,11.052,6.077
		c-4.125-1.213-8.528-1.68-12.778-1.41c-1.122,0.068-1.062,1.812,0.063,1.741c4.904-0.31,10.106,0.368,14.708,2.168
		c0.033,0.044,0.062,0.082,0.093,0.124c0.021,0.115,0.066,0.223,0.128,0.311c3.683,9.98,6.832,20.342,8.002,30.948
		c-2.703-2.388-5.605-4.587-8.405-6.843c-0.066-0.162-0.158-0.312-0.297-0.414c-0.771-3.73-1.946-7.306-3.501-10.781
		c-0.46-1.025-1.941-0.099-1.49,0.911c1.065,2.372,1.917,4.817,2.589,7.313c-1.899-1.993-3.772-4.012-5.457-6.192
		c-0.678-0.883-2.169,0.025-1.484,0.911c2.019,2.611,4.273,5,6.551,7.384c-2.905-1.343-5.78-2.731-8.589-4.25
		c-0.99-0.537-1.811,0.997-0.822,1.532c2.38,1.292,4.807,2.48,7.259,3.625c-2.327-0.004-4.642-0.226-6.948-0.741
		c-1.098-0.248-1.483,1.452-0.382,1.699c2.298,0.514,4.614,0.754,6.943,0.782c-1.916,0.793-3.902,1.393-5.988,1.742
		c-1.104,0.187-0.59,1.852,0.505,1.668c3.484-0.586,6.732-1.838,9.772-3.582c0.061-0.007,0.11-0.007,0.168-0.011
		c0.108-0.012,0.186-0.06,0.267-0.104c3.088,2.476,6.281,4.885,9.184,7.568c1.522,6.08,1.261,12.374,1.067,18.616
		c-0.495-0.503-0.997-1-1.531-1.455l-0.021-0.009c-2.507-2.254-4.849-4.675-7.278-7.004c-1.184-3.169-2.642-6.214-4.461-9.071
		c-0.603-0.946-2.091-0.035-1.488,0.915c1.045,1.636,1.962,3.333,2.781,5.08c-2.026-1.77-4.239-3.315-6.561-4.708
		c-0.961-0.577-1.782,0.961-0.825,1.535c2.018,1.205,3.932,2.548,5.715,4.048c-2.141-0.844-4.382-1.48-6.561-2.038
		c-1.088-0.276-1.472,1.423-0.384,1.703c2.458,0.627,4.99,1.324,7.338,2.377c-2.124,0.489-4.254,0.978-6.382,1.451
		c-1.099,0.249-0.586,1.913,0.503,1.67c2.75-0.612,5.494-1.248,8.238-1.878c0.126,0.076,0.264,0.132,0.388,0.217
		c0.153,0.093,0.294,0.129,0.432,0.133c0.148,0.208,0.362,0.312,0.593,0.344c2.3,2.225,4.528,4.514,6.916,6.644
		c0.016,0.012,0.032,0.018,0.032,0.018c0.882,0.753,1.711,1.562,2.438,2.448c0.016,0.02,0.037,0.02,0.05,0.038
		c-0.011,0.612-0.028,1.226-0.03,1.831c-0.005,0.332,0.155,0.545,0.363,0.677c0.021,1.419,0.048,2.835,0.073,4.258
		c0.012,1.125,1.756,1.061,1.742-0.058c-0.055-3.173-0.101-6.325-0.142-9.471c2.394-4.305,4.863-8.581,7.105-12.971
		c0.103,0.053,0.193,0.111,0.324,0.115c4.054,0.195,7.798-1.102,11.309-3.031c0.987-0.541,0.071-2.022-0.907-1.484
		c-2.336,1.284-4.753,2.228-7.317,2.609c2.257-1.231,4.416-2.616,6.486-4.174c0.89-0.669-0.013-2.159-0.914-1.487
		c-1.736,1.307-3.545,2.508-5.419,3.595c1.876-2.273,3.48-4.766,4.9-7.372c0.538-0.986-0.997-1.81-1.533-0.825
		c-1.386,2.545-2.944,4.961-4.771,7.162c0.607-2.547,0.903-5.137,0.749-7.796c-0.064-1.121-1.809-1.063-1.743,0.062
		c0.183,3.153-0.296,6.17-1.198,9.144c-0.321-3.105-0.879-6.281-2.034-9.139c-0.416-1.035-2.087-0.536-1.668,0.501
		c1.332,3.306,1.865,6.992,2.142,10.529c0.018,0.207,0.107,0.347,0.223,0.462c-1.827,3.59-3.805,7.094-5.773,10.604
		c-0.042-5.148-0.023-10.301,0.183-15.483c0.042-0.067,0.089-0.134,0.12-0.213c2.699-7.587,5.582-15.104,8.223-22.708
		c0.084-0.059,0.165-0.111,0.248-0.167c0.071,0,0.143,0.014,0.22,0c3.609-0.706,7.283-1.229,10.958-1.268
		c1.125-0.018,1.062-1.759-0.061-1.746c-2.391,0.034-4.775,0.275-7.142,0.625c3.101-1.609,6.39-2.856,9.605-4.291
		C228.987,354.584,228.5,352.907,227.471,353.366z"/>
	<path fill="#BF4C62" d="M65.266,148.159c-0.32-1.944-1.918-3.115-3.842-3.108c-1.494,0.011-2.889,0.654-4.138,1.577
		c0.766-1.52,1.306-3.138,1.427-5.01c0.146-2.327-0.014-5.463-2.422-6.616c-2.608-1.251-6.08,1.526-7.237,3.631
		c-1.504,2.728-0.807,6.21-0.29,9.332c-2.24-2.934-6.42-7.2-8.732-3.533c-1.084,1.711-0.035,4.233,0.735,5.821
		c1.879,3.892,5.337,6.422,8.212,9.506c0.176,0.189,0.382,0.208,0.563,0.135c0.049,0.007,0.092,0.025,0.147,0.025
		c4.482-0.082,9.102-2.022,12.47-4.969C64.035,153.314,65.691,150.754,65.266,148.159z"/>
	<path fill="#BF4C62" d="M89.583,349.023c-24.07,7.902-32.353,34.149-37.923,57.072c0.249-6.11,1.087-12.114,2.482-17.987
		c0.389-1.367,0.793-2.719,1.207-4.062c1.052-3.438,2.29-6.805,3.655-10.12c1.518-2.985,3.14-5.912,4.886-8.744
		c8.222-11.091,17.733-21.717,23.177-32.615c0.268-0.542-0.228-1.237-0.842-1.027c-14.518,4.909-23.802,18.356-29.847,31.75
		c-5.646,12.514-9.139,26.481-9.815,40.278c-7.972-30.146,18.135-57.231,32.839-81.061c0.321-0.519-0.266-1.248-0.842-1.025
		c-6.019,2.278-10.945,6.489-15.072,11.552c2.88-4.39,5.215-9.034,6.163-14.298c0.104-0.587-0.533-1.128-1.079-0.77
		c-7.431,4.846-13.181,11.396-17.696,18.879c5.359-10.96,11.077-21.85,14.947-33.44c0.188-0.57-0.601-1.131-1.08-0.77
		c-19.129,14.524-27.07,38.694-33.697,61.025c0.699-30.992,26.637-51.441,40.213-77.555c0.27-0.521-0.231-1.266-0.841-1.028
		c-12.724,5.044-21.623,15.904-28.319,27.454c-6.09,10.491-10.446,21.983-13.942,33.622c0.823-6.889,2.886-13.592,5.418-20.06
		c2.909-7.409,6.419-15.078,10.887-21.685c7.166-10.595,21.531-18.605,23.513-32.135c0.095-0.643-0.503-1.045-1.076-0.771
		c-19.64,9.544-26.973,32.44-36.055,50.805c-3.135-12.903,4.115-24.94,11.719-34.985c7.347-9.703,16.483-18.414,22.231-29.238
		c0.295-0.553-0.239-1.205-0.842-1.025c-20.939,6.208-33.852,25.875-38.628,46.504c0.674-14.109,1.556-28.243-1.188-42.195
		c-0.102-0.508-0.888-0.694-1.206-0.29c-17.039,21.998-2.706,50.136,1.182,74.263C7.497,319.321,7.844,294.608,3.536,273.347
		c-0.157-0.795-1.17-0.539-1.385,0.048c-4.713,12.817-1.665,26.459,2.868,38.863c4.7,12.864,11.517,24.815,16.58,37.519
		c-18.298-14.353-23.238-38.31-32.19-58.71c-0.276-0.636-1.193-0.695-1.389,0.05c-3.361,12.788,3.517,24.922,10.506,35.157
		c7.635,11.185,18.123,21.826,22.552,34.881c-18.453-7.326-24.391-27.046-35.335-41.994c-0.389-0.527-1.425-0.379-1.332,0.401
		c1.381,11.662,7.155,21.134,15.046,29.586c7.951,8.523,17.104,15.882,23.584,25.653c-16.348-6.621-25.218-22.666-39.25-32.666
		c-0.444-0.319-1.097,0.157-1.057,0.653c0.843,9.974,8.644,17.182,16.024,23.046c8.116,6.452,17.801,11.766,24.764,19.586
		c-14.875-5.978-26.565-17.188-40.688-24.611c-0.535-0.281-1.238,0.239-1.028,0.843c3.326,9.491,12.4,15.46,20.65,20.375
		c9.491,5.659,20.066,10.062,28.744,17.009c-20.586-0.764-32.879-21.689-52.381-26.079c-0.554-0.124-1.176,0.566-0.771,1.079
		c14.122,17.682,37.953,20.921,54.845,34.801c-15.451-3.442-27.729-14.912-43.297-18.158c-0.597-0.123-1.114,0.541-0.771,1.078
		c7.99,12.4,24.097,15.661,37.072,21.475c-10.631-1.913-20.765-6.052-31.51-7.46c-0.542-0.077-0.989,0.347-0.846,0.903
		c0.962,3.805,4.516,6.051,7.824,7.672c5.32,2.614,11.267,3.996,17.008,5.325c6.76,1.569,13.587,2.828,20.355,4.358
		c5.648,1.276,11.68,2.59,16.706,5.582c0.46,0.273,1.104-0.128,1.06-0.659c-2.105-26.086,20.31-45.185,32.246-65.967
		c0.301-0.524-0.253-1.261-0.841-1.031c-21.066,8.162-26.591,33.204-33.425,52.698c0.136-25.542,19.332-46.753,35.829-64.446
		C90.786,349.687,90.271,348.792,89.583,349.023z M38.251,392.325c-0.024-6.397,1.11-12.721,2.802-18.92
		c1.998-7.333,4.705-14.779,8.659-21.294c2.678-4.424,6.057-8.577,9.292-12.821c-3.047,4.795-5.588,9.908-7.785,14.657
		C45.562,366.163,41.309,379.175,38.251,392.325z"/>
	<path fill="#AC7A2B" d="M51.856,231.199c-1.798-0.079-3.565-0.378-5.342-0.618c0.964-0.181,1.931-0.369,2.908-0.493
		c0.558-0.068,0.482-0.812-0.048-0.847c-1.408-0.09-2.801-0.248-4.197-0.396c2.751-0.469,5.494-0.954,8.022-2.228
		c0.393-0.195,0.132-0.803-0.265-0.776c-2.171,0.154-4.324,0.087-6.457,0.389c3.145-2.057,6.897-2.913,10.14-4.854
		c0.386-0.231,0.132-0.776-0.262-0.776c-1.188,0-2.369-0.098-3.553-0.109c0.991-1.394,1.797-2.936,3.003-4.152
		c0.362-0.363-0.166-0.844-0.557-0.63c-2.631,1.422-4.79,3.422-6.887,5.51c0.361-1.234,0.719-2.469,1.202-3.666
		c0.172-0.421-0.399-0.865-0.702-0.459c-1.497,2.017-3.136,3.92-4.762,5.833c0.236-1.398,0.334-2.815,0.652-4.199
		c0.093-0.405-0.48-0.698-0.74-0.356c-1.672,2.222-3.646,4.202-5.242,6.478c-0.21-1.152-0.473-2.302-0.603-3.468
		c-0.037-0.343-0.508-0.571-0.745-0.255c-1.818,2.431-2.936,5.149-3.529,8.079c-0.201-0.033-0.414,0.062-0.437,0.325
		c-0.083,0.938-0.258,1.875-0.53,2.782c-0.039,0.005-0.08,0.013-0.126,0.029c-0.246,0.131-0.504,0.243-0.758,0.362
		c-0.146,0-0.26,0.058-0.334,0.158c-1.184,0.54-2.403,1.001-3.641,1.41c-0.095-0.118-0.194-0.217-0.304-0.308
		c-0.002-0.033-0.006-0.072-0.016-0.104c0.026-0.03,0.056-0.055,0.078-0.095c2.34-4.237,5.95-7.917,6.927-12.799
		c0.08-0.41-0.472-0.698-0.74-0.364c-1.182,1.497-2.687,2.688-3.933,4.127c-0.232-0.711-0.441-1.423-0.644-2.143
		c-0.1-0.344-0.653-0.398-0.784-0.056c-1.191,3.092-1.529,6.399-2.288,9.604c-0.283,0.034-0.543,0.339-0.325,0.642
		c0.306,0.429,0.606,0.861,0.875,1.313c-0.021,0.156,0.033,0.33,0.208,0.437l0.035,0.039c-2.168,0.669-4.393,1.187-6.61,1.645
		c0.095-0.253,0.159-0.507,0.176-0.781c0.085-0.028,0.167-0.084,0.226-0.182c2.636-4.316,5.007-8.912,6.062-13.895
		c0.092-0.43-0.454-0.664-0.737-0.362c-1.752,1.907-3.498,3.603-4.729,5.846c-0.277-0.694-0.539-1.395-0.774-2.111
		c-0.115-0.349-0.632-0.396-0.782-0.051c-1.419,3.201-1.697,6.69-1.365,10.144c-0.062,0.093-0.088,0.208-0.041,0.344
		c0.128,0.399,0.323,0.949,0.636,1.311c-2.204,0.425-4.4,0.793-6.61,1.061c1.349-6.17,7.154-10.96,6.655-17.68
		c-0.026-0.371-0.503-0.537-0.748-0.252c-1.35,1.559-2.738,2.719-3.615,4.506c-0.674-1.32-1.614-2.475-2.312-3.798
		c-0.153-0.285-0.618-0.223-0.736,0.05c-2.269,5.154-2.092,10.757-0.52,16.083c0.089,0.316,0.412,0.341,0.625,0.201
		c-0.082,0.306-0.171,0.612-0.229,0.924c-0.004,0.02,0,0.038,0,0.055c-1.498,0.171-3.002,0.289-4.512,0.387
		c-0.006,0-0.018,0-0.025,0c-0.649,0.045-1.301,0.089-1.958,0.115c-1.236,0.047-2.473,0.086-3.709,0.124
		c0.46-0.263,0.851-0.603,1.155-1.017c0.112-0.049,0.196-0.142,0.209-0.298v-0.013c0.362-0.607,0.582-1.332,0.623-2.175
		c0.014-0.225-0.13-0.34-0.301-0.372c1.098-6.914,4.017-13.39,8.586-18.764c0.257-0.302-0.06-0.848-0.461-0.677
		c-1.36,0.562-2.5,1.383-3.61,2.302c0.128-0.378-0.465-0.729-0.737-0.378c-1.572,2.031-3.417,3.615-4.505,5.919
		c-0.557-0.966-1.164-1.904-1.552-2.96c-0.157-0.417-0.709-0.353-0.82,0.049c-1.566,5.737-0.828,11.715-0.931,17.575
		c0,0.056,0.011,0.099,0.027,0.146c-0.153,0.155-0.139,0.341-0.038,0.476c-0.103,0.063-0.156,0.167-0.177,0.281
		c-2.801,0.11-5.597,0.294-8.375,0.715c-0.49,0.072-1.011,0.149-1.543,0.24c0.009-0.005,0.017-0.005,0.024-0.011
		c4.001-2.652,6.651-6.655,5.968-11.585c-0.047-0.32-0.521-0.591-0.751-0.247c-2.232,3.36-4.131,6.898-5.785,10.582
		c-0.014,0.018-0.02,0.042-0.03,0.062l-0.006,0.01c0,0-0.001,0.021-0.007,0.024c-0.009,0.032-0.021,0.053-0.028,0.086
		c-0.062,0.463-0.199,0.879-0.442,1.266c-2.006,0.368-4.136,0.913-5.913,1.86c2.495-3.871,5.023-7.72,7.422-11.651
		c4.176-6.375,8.614-12.615,13.446-18.506c0.253-0.311,0.521-0.6,0.773-0.902c0.205-0.072,0.409-0.132,0.608-0.193
		c9.073,0.721,16.605,10.71,26.105,6.981c0.126-0.053,0.203-0.144,0.242-0.244c0.158-0.214,0.112-0.604-0.232-0.703
		c-8.634-2.448-16.412-9.479-25.683-7.052c1.947-2.159,4.007-4.139,6.182-5.965c0.216-0.004,0.42-0.146,0.426-0.362
		c0.329-0.268,0.664-0.527,0.999-0.797c0.09,0.027,0.179,0.052,0.269,0.078c0.055,0.038,0.113,0.064,0.195,0.071
		c0.021,0,0.042,0,0.065,0c8.818,2.56,15.257,11.958,25.055,11.182c0.108-0.006,0.179-0.051,0.24-0.106
		c0.708,0.089,1.415,0.179,2.118,0.286c0.504,0.073,0.667-0.549,0.269-0.8c-2.864-1.797-6-3.041-9.173-4.173
		c-1.429-0.511-2.874-0.988-4.316-1.465c-1.216-0.399-1.082-0.826-1.69-1.801c-2.169-3.469-8.521-3.701-12.175-3.942
		c1.563-1.197,3.179-2.325,4.847-3.398c0.162,0.021,0.327,0.042,0.489,0.064c8.374,4.446,16.88,9.014,26.568,9.362
		c0.474,0.018,0.474-0.608,0.16-0.808c-1.587-0.994-3.211-1.896-4.88-2.738c-0.725-0.366-1.466-0.704-2.205-1.047
		c-0.181-0.083-2.227-0.77-1.534-1.197c0.321-0.201,0.19-0.695-0.156-0.771c-1.537-0.32-3.04-0.766-4.58-1.06
		c-1.321-0.253-0.317-0.575-0.395-1.531c-0.019-0.243-0.213-0.389-0.45-0.394c-3.902-0.04-7.821-0.103-11.703-0.566
		c0.009-0.057,0.017-0.115,0.022-0.17c1.811-1.115,3.673-2.172,5.6-3.177c0.734-0.378,1.485-0.74,2.223-1.111
		c0.054,0.072,0.139,0.132,0.263,0.145c9.725,0.97,15.775,11.85,25.748,11.513c0.414-0.012,0.487-0.49,0.269-0.722
		c0.041-0.137,0.014-0.292-0.136-0.407c-6.612-5.281-15.178-11.105-23.959-11.616c2.192-1.063,4.396-2.098,6.594-3.138
		c0.072-0.016,0.146-0.051,0.209-0.098c0.208-0.101,0.413-0.204,0.621-0.301c4.811,4.573,10.784,10.439,18.025,8.568
		c0.451-0.115,0.321-0.709-0.053-0.802c-0.038-0.047-0.084-0.084-0.149-0.115c-5.587-2.701-10.737-6.38-16.72-8.184
		c1.793-0.864,3.584-1.738,5.347-2.657c4.848,2.419,9.124,7.337,15.021,5.57v-0.006c0.042,0.022,0.083,0.04,0.119,0.056
		c0.499,0.232,0.87-0.535,0.37-0.766c-4.628-2.104-9.218-4.484-14.221-5.532c1.226-0.657,2.443-1.32,3.639-2.024
		c0.042,0.023,0.074,0.053,0.124,0.068c5.608,1.438,11.43,2.468,17.234,1.872c0.139-0.014,0.298-0.098,0.355-0.239
		c0.994-2.518-6.317-3.053-11.32-3.119c3.896-0.599,7.872-0.742,11.7-1.778c0.341-0.093,0.4-0.66,0.05-0.788
		c-1.967-0.715-3.849-1.481-5.837-1.936c3.604-0.698,7.14-1.696,10.165-3.875c0.292-0.218,0.215-0.7-0.158-0.771
		c-1.792-0.354-3.543-0.294-5.229,0.088c3.316-2.26,6.383-4.845,8.467-8.35c0.2-0.338-0.189-0.686-0.52-0.592
		c-4.726,1.399-7.998,4.861-11.256,8.333c0.99-2.052,2.029-4.08,3.182-6.048c0.22-0.376-0.287-0.757-0.623-0.541
		c-2.55,1.687-4.324,4.072-6.033,6.525c0.771-1.587,1.459-3.21,1.91-4.932c0.095-0.357-0.363-0.649-0.654-0.438
		c-2.652,1.99-4.595,4.604-6.31,7.384c0.375-1.627,0.5-3.3,0.27-5c-0.047-0.335-0.505-0.574-0.748-0.246
		c-2.509,3.406-3.86,7.475-4.852,11.554c-0.059,0.074-0.096,0.168-0.083,0.292c0.002,0.018,0.002,0.034,0.002,0.034
		c-0.021,0.11-0.049,0.203-0.07,0.297c-0.037,0.159,0.014,0.276,0.102,0.364c0.01,0.307,0.027,0.608,0.048,0.906
		c-1.601,0.962-3.235,1.844-4.889,2.708c-0.153,0-0.28,0.074-0.35,0.185c-0.616,0.323-1.232,0.65-1.854,0.966
		c3.637-5.697,3.954-13.022,8.447-18.311c0.229-0.267,0.024-0.74-0.344-0.7c-9.041,1.018-9.762,12.184-9.37,19.378l-0.005,0.004
		c-0.073,0.101-0.092,0.204-0.077,0.306c-1.123,0.554-2.247,1.099-3.374,1.634c-0.456-3.156,0.526-6.454,1.303-9.478
		c0.851-3.323,1.759-6.652,1.803-10.106c0.002-0.329-0.41-0.49-0.663-0.322c-6.986,4.523-3.823,13.845-4.218,20.681
		c-0.002,0.028,0.007,0.044,0.009,0.064c-1.496,0.712-2.997,1.415-4.491,2.129c2.36-6.565,2.59-13.601,4.237-20.344
		c0.097-0.385-0.356-0.617-0.653-0.435c-6.703,4.015-6.287,14.332-5.371,21.036c0.017,0.114,0.07,0.195,0.142,0.259
		c-0.02,0.067-0.021,0.145,0.001,0.23l0.012,0.042c-1.083,0.524-2.158,1.047-3.225,1.587c-1.868,0.955-3.684,1.955-5.452,3.013
		c0.023-0.282,0.038-0.567,0.044-0.848c0.712-2.828,1.998-5.621,2.863-8.307c1.184-3.672,2.563-7.887,1.749-11.771
		c-0.064-0.302-0.554-0.403-0.722-0.144c-1.364,2.048-2.52,4.142-3.135,6.472c-0.524-1.625-1.363-3.048-2.138-4.697
		c-0.179-0.383-0.71-0.383-0.821,0.051c-1.551,6.106,1.553,12.167,1.368,18.311c-0.138,0.542-0.249,1.086-0.34,1.627
		c-0.267,0.165-0.531,0.343-0.801,0.514c-0.102,0.022-0.175,0.077-0.233,0.15c-1.894,1.217-3.723,2.507-5.489,3.892
		c-0.093,0.027-0.17,0.089-0.222,0.17c-0.072,0.06-0.146,0.114-0.221,0.174c-0.353-7.822,3.521-15.603,1.652-23.428
		c-0.073-0.323-0.528-0.373-0.723-0.142c-1.969,2.308-3.391,4.845-3.808,7.832c-0.796-0.657-1.652-1.236-2.449-1.895
		c-0.237-0.196-0.645-0.086-0.697,0.242c-1.014,6.456,2.084,12.744,4.726,18.463c-2.323,1.959-4.534,4.085-6.603,6.442
		c-0.197,0.222-0.387,0.456-0.584,0.682c-0.062,0.048-0.118,0.103-0.146,0.169c-4.761,5.54-9.101,11.608-13.087,17.707
		c-0.22,0.335-0.437,0.669-0.654,1c-0.024,0.026-0.053,0.046-0.076,0.085c-0.126,0.208-0.258,0.414-0.382,0.622
		c-1.404,2.155-2.808,4.315-4.262,6.439c-0.533,0.786-1.163,1.868-1.876,2.877c-1.371-4.901-1.826-9.96-1.614-15.034
		c4.383-0.963,8.317-3.049,10.719-7.036c0.021-0.034,0.025-0.067,0.039-0.104c0.309-0.229,0.043-0.843-0.425-0.736
		c-3.872,0.896-7.661,2.921-10.233,6.003c0.135-1.805,0.351-3.604,0.646-5.398c0.047-0.018,0.098-0.039,0.146-0.081
		c3.815-3.346,9.931-2.47,12.981-6.864c0.107-0.159,0.094-0.329,0.023-0.465c1.667-0.948,3.188-2.121,4.511-3.548
		c0.207-0.226,0.089-0.492-0.109-0.618c-0.064-0.208-0.266-0.386-0.535-0.316c-6.563,1.601-12.142,4.814-16.617,9.768
		c0.522-2.614,1.182-5.209,1.985-7.76c5.848-2.093,11.923-2.976,16.196-7.957c0.173-0.196,0.121-0.554-0.138-0.661
		c-0.388-0.156-0.772-0.097-1.165-0.021c1.297-1.276,2.465-2.668,3.757-3.947c0.352-0.35-0.168-0.881-0.562-0.629
		c-5.435,3.482-12.299,5.131-16.919,9.771c1.138-3.125,2.443-6.173,3.888-9.095l0.032-0.017c0.095,0.085,0.227,0.138,0.384,0.103
		c4.698-1.056,11.141-0.33,13.491-5.54c0.088-0.195,0.021-0.489-0.2-0.566c-0.655-0.234-1.32-0.306-1.982-0.486
		c0.603-0.74,1.076-1.388,1.284-2.432c0.069-0.349-0.356-0.663-0.656-0.433c-3.671,2.788-7.767,4.965-11.489,7.681
		c0.23-0.447,0.458-0.897,0.698-1.341c0.13,0.035,0.274,0.002,0.385-0.146c0.61-0.829,1.239-1.83,2.064-2.467
		c0.147-0.111,0.183-0.269,0.16-0.413c3.016-2.102,5.609-4.782,7.408-8.006c0.19-0.341-0.188-0.677-0.519-0.587
		c-0.673,0.188-1.325,0.414-1.967,0.659c2.655-2.027,5.222-4.172,6.241-7.498c0.091-0.295-0.275-0.609-0.549-0.486
		c-1.372,0.604-2.531,1.423-3.602,2.377c1.784-3.007,2.959-6.29,2.886-9.888c-0.006-0.401-0.499-0.5-0.745-0.252
		c-1.927,1.943-3.331,4.268-4.356,6.77c-0.067-1.153-0.209-2.29-0.637-3.406c-0.131-0.357-0.602-0.375-0.78-0.046
		c-0.89,1.602-1.4,3.32-1.595,5.088c-0.342-0.971-0.905-1.61-1.863-1.338c-0.149,0.039-0.25,0.177-0.285,0.32
		c-0.743,3.156-0.932,6.417-0.146,9.585c0.034,0.135,0.107,0.219,0.201,0.257c0.156,1.42-0.021,2.802-0.593,4.095
		c-1.171-2.721-2.067-5.558-2.617-8.465c-0.069-0.387-0.61-0.588-0.804-0.157c-0.214,0.469-0.237,0.902-0.196,1.337
		c-0.084-0.056-0.169-0.103-0.26-0.136c-0.276-0.091-0.51,0.201-0.51,0.44c0.041,3.021,0.659,5.937,1.526,8.804
		c-0.095,0.093-0.143,0.234-0.067,0.404c0.345,0.822,0.491,1.669,0.481,2.564c0,0.046,0.017,0.08,0.022,0.118
		c-0.919,1.702-1.792,3.458-2.624,5.254c0.475-5.471-1.545-10.768-2.97-16.142c-0.1-0.363-0.645-0.384-0.785-0.052
		c-0.991,2.258-1.464,4.791-0.957,7.194c-0.315-0.405-0.641-0.809-1.002-1.184c-0.236-0.244-0.625-0.044-0.692,0.24
		c-1.24,5.065,2.601,9.504,4.693,13.758l0.026,0.039c-0.526,1.29-1.004,2.602-1.464,3.926c-1.247-2.883-2.652-5.694-4.104-8.479
		c-0.168-0.309-0.745-0.197-0.772,0.16c-0.017,0.281-0.014,0.566-0.016,0.851c-0.827-2.292-1.798-4.522-2.944-6.673
		c-0.176-0.338-0.709-0.184-0.769,0.153c-0.293,1.668-0.382,3.35-0.278,5.035c-0.493-0.688-0.952-1.394-1.373-2.143
		c-0.172-0.307-0.733-0.207-0.766,0.155c-0.56,6.249,3.791,12.729,10.341,12.898c-0.043,0.132-0.091,0.266-0.133,0.398
		c-0.278,0.114-0.312,0.403-0.198,0.607c-0.652,2.087-1.218,4.208-1.678,6.341c-1.556-2.521-3.665-4.85-5.772-6.906
		c-0.369-0.362-1.619-1.411-2.369-1.458c-0.461-1.434-0.998-2.839-1.326-4.313c-0.091-0.396-0.624-0.339-0.788-0.052
		c-4.027,7.128,2.743,13.696,9.849,13.95c0.06,0.004,0.114-0.009,0.16-0.025c-0.597,2.972-0.986,5.975-1.15,8.972
		c-0.074,0.016-0.157,0.031-0.235,0.043c-3.086-4.65-8.722-7.171-10.677-12.694c-0.155-0.43-0.739-0.306-0.821,0.046
		c-0.039,0.04-0.071,0.089-0.098,0.158c-0.287,0.747-0.344,1.479-0.199,2.163c-0.447-0.465-0.839-1.005-1.166-1.527
		c0.002-0.079,0.002-0.155,0.011-0.23c0.04-0.541-0.792-0.712-0.836-0.166c0,0.016,0,0.034,0,0.05
		c-0.123,0.127-0.188,0.325-0.069,0.519c0.017,0.031,0.038,0.06,0.053,0.087c-0.076,3.377,1.235,6.02,4.103,8.012
		c3.125,2.167,6.951,3.129,9.786,5.75c0.028,0.025,0.056,0.034,0.084,0.049c-0.07,4.708,0.453,9.39,1.747,13.938
		c-0.312,0.456-0.604,0.924-0.881,1.4c-0.17,0.148-0.337,0.308-0.515,0.423c0.336-4.271-1.461-8.309-4.478-11.798
		c-0.08-0.088-0.175-0.131-0.269-0.142c-0.179-0.201-0.556-0.253-0.718,0.062c-0.506,0.989-1.003,2.146-1.251,3.288
		c-2.529-4.135-4.592-8.544-7.423-12.496c-0.218-0.297-0.697-0.215-0.771,0.154c-0.853,4.297,0.499,8.716,2.83,12.344
		c-1.369-0.527-2.752-0.974-4.184-1.319c-0.451-0.108-0.634,0.455-0.36,0.74c2.242,2.309,5.589,3.284,8.514,4.409
		c2.571,0.987,6.347,2.269,7.214,5.135c-0.033,0.294-0.075,0.591-0.132,0.89c-2.204,4.325-4.265,8.73-6.284,13.146
		c-0.032,0.06-0.056,0.122-0.084,0.182c-2.106,4.606-4.175,9.231-6.321,13.823c-4.405,9.409-9.321,18.65-14.962,27.387
		c-0.298,0.46,0.472,0.827,0.766,0.369c5.493-8.505,10.27-17.491,14.606-26.633c1.618-3.41,3.174-6.844,4.728-10.274
		c0.072-0.038,0.136-0.099,0.178-0.197c0.282-0.709,0.575-1.417,0.876-2.125c0.429-0.927,0.853-1.855,1.277-2.781
		c1.717-3.597,3.678-7.068,5.762-10.475c0.408-0.476,0.806-0.965,1.168-1.481c0.035-0.047,0.056-0.095,0.068-0.14
		c0.511-0.375,1.071-0.69,1.663-0.941c0.011,0.008,0.021,0.02,0.033,0.028c0.036,0.993,0.017,2.054,0.25,3.003
		c2.327,5.978,3.959,16.997,12.739,15.473c0.212-0.038,0.327-0.19,0.363-0.357c0.057,0.012,0.108,0.035,0.168,0.052
		c0.537,0.119,0.696-0.716,0.163-0.84c-1.687-0.377-2.91-1.528-3.518-3.09c0.306-0.097,0.541-0.319,0.686-0.663
		c0.276-0.1,0.451-0.476,0.158-0.718c-3.59-2.948-4.725-7.85-7.631-11.373c-0.197-0.233-0.495-0.187-0.672-0.029
		c-0.638-0.587-1.266-1.198-1.874-1.817c0.842-0.294,1.718-0.526,2.555-0.751c0.498-0.131,0.998-0.25,1.502-0.365
		c0.09,0.051,0.193,0.066,0.29,0.042c0.756,0.495,1.626,0.821,2.47,1.122c5.294,2.882,5.799,10.797,8.224,15.728
		c2.778,5.664,9.107,7.678,14.231,3.455c0.262-0.212,0.178-0.574-0.028-0.723c-0.032-0.194-0.17-0.35-0.422-0.309
		c-1.184,0.198-2.411,0.205-3.584-0.012c0.361-0.072,0.721-0.158,1.063-0.29c0.012,0,0.018,0.002,0.024,0.01
		c0.201,0.041,0.352-0.056,0.428-0.194c0.048-0.021,0.101-0.031,0.148-0.059c0.487-0.247,0.008-0.949-0.477-0.706
		c-0.051,0.029-0.11,0.042-0.165,0.067c-2.868-0.633-5.613-1.865-7.712-3.958c-1.69-1.683-2.764-3.954-3.833-6.048
		c-1.859-3.649-3.879-7.025-8.068-8.149c-0.158-0.043-0.278,0.005-0.356,0.091c-0.282-0.103-0.555-0.224-0.822-0.349
		c1.642-0.326,3.289-0.574,4.967-0.733c1.027-0.094,2.056-0.163,3.083-0.218c0.035,0.033,0.074,0.065,0.132,0.089
		c0.964,0.4,1.912,0.826,2.857,1.264c-0.063,0.149-0.049,0.323,0.113,0.461c4.175,3.504,5.561,8.593,8.91,12.68
		c3.188,3.892,8.11,4.505,12.834,4.416c0.458,0.021,0.928,0.009,1.403-0.043c0.296-0.013,0.597-0.026,0.893-0.041
		c0.466-0.028,0.49-0.635,0.155-0.802c-0.065-0.089-0.18-0.145-0.333-0.115c-0.281,0.056-0.557,0.085-0.83,0.111
		c-0.505,0.017-1.006,0.029-1.503,0.035c-4.856-0.333-8.177-4.774-10.877-8.603c-2.405-3.402-4.961-6.565-8.835-8.051
		c-0.037-0.056-0.086-0.104-0.152-0.142c-0.945-0.489-1.916-0.925-2.893-1.344c2.648-0.104,5.295-0.159,7.936-0.282
		c0.351,0.254,0.733,0.48,1.135,0.649c-0.06,0.181-0.022,0.396,0.195,0.511c4.684,2.527,6.521,7.61,10.134,11.238
		c3.498,3.511,8.776,3.562,13.185,1.937c0.179-0.063,0.256-0.204,0.272-0.346c0.251-0.244,0.138-0.782-0.303-0.73
		c-4.958,0.571-8.8-3.197-12.215-6.255c-2.916-2.61-5.938-5.304-9.716-6.485c0.007-0.182-0.089-0.361-0.326-0.392
		c-0.271-0.039-0.526-0.115-0.78-0.212c4.079-0.268,8.109-0.972,12.11-1.781c0.604-0.122,1.205-0.25,1.807-0.385
		c0.274,0.326,0.634,0.595,1.029,0.787c-0.019,0.119,0.019,0.243,0.157,0.337c0.081,0.049,0.154,0.108,0.23,0.163
		c-0.076,4.878,2.593,10.205,7.949,10.575c0.153,0.007,0.275-0.056,0.362-0.154c2.212,2.023,5.028,2.654,7.98,2.043
		c0.494-0.102,0.301-0.774-0.142-0.81c-0.051-0.101-0.141-0.181-0.285-0.208c-7.04-1.396-9.68-8.04-15.039-11.892
		c-0.024-0.077-0.068-0.132-0.124-0.176c0.014-0.191-0.077-0.399-0.312-0.468c-0.276-0.077-0.577-0.231-0.827-0.421
		c1.429-0.341,2.846-0.729,4.246-1.18c0.031,0.034,0.059,0.064,0.104,0.086c0.222,0.105,0.448,0.179,0.68,0.229
		c0.013,0.03,0.013,0.061,0.029,0.09c1.895,2.925,4.325,5.688,7.641,6.997c3.08,1.204,6.066,0.115,8.471-1.862
		c0.185,0,0.371,0.008,0.558,0c0.496-0.02,0.496-0.707,0.095-0.826c-0.081-0.263-0.475-0.451-0.75-0.201
		c-0.07,0.066-0.138,0.121-0.206,0.179c-5.336-0.15-9.907-4.166-15.115-5.127c-0.024-0.004-0.036,0.01-0.057,0.003
		c-0.017,0-0.031-0.007-0.053-0.012c-0.03,0-0.061-0.009-0.09-0.013c1.011-0.361,2.017-0.75,2.992-1.2
		c4.444,0.637,8.782,2.226,13.321,1.498c0.373-0.059,0.6-0.643,0.156-0.809c-1.483-0.549-2.953-1.129-4.437-1.69
		c3.662,0.638,7.417,1.014,10.799-0.538C52.464,231.821,52.35,231.219,51.856,231.199z M12.302,221.504
		c0.771,1.251,1.686,2.397,2.206,3.803c0.118,0.314,0.658,0.421,0.785,0.045c0.668-1.899,1.879-3.049,3.14-4.394
		c-0.141,5.614-4.65,9.97-6.314,15.15C10.708,231.286,10.471,226.218,12.302,221.504z M29.166,216.604
		c-8,2.319-14.971-5.177-22.666-7.013C14.533,208.362,21.625,214.104,29.166,216.604z M25.247,207.02
		c0.039,0.207,0.139,0.318,0.343,0.385c4.312,1.436,8.735,2.782,12.755,4.932c-0.629-0.076-1.26-0.158-1.888-0.252
		c-0.272-0.042-0.449,0.15-0.489,0.363c-7.565-0.467-13.288-6.992-20.114-10.135C19.679,202.655,24.577,203.551,25.247,207.02z
		 M30.661,198.604c-0.13,0.423-0.462,0.829-0.549,1.261c-0.044,0.207,0.105,0.477,0.335,0.499c1.732,0.153,3.392,0.626,5.077,1.022
		c-0.086,0.097-0.164,0.208-0.23,0.332c-0.075,0.128-0.049,0.299,0.026,0.422c0.638,1.018,2.94,1.522,4.014,2.033
		c1.398,0.667,2.765,1.399,4.099,2.177c-8.11-0.705-15.42-4.369-22.546-8.145C24.131,198.505,27.405,198.569,30.661,198.604z
		 M52.375,203.539c-4.723-0.188-8.729-3.266-12.476-5.876c-2.969-2.066-6.049-4.106-9.519-5.084
		C38.404,193.413,46.254,198.697,52.375,203.539z M53.457,196.1c-5.746,0.801-10.68-3.537-14.742-7.396
		C43.933,190.465,48.552,193.625,53.457,196.1z M57.084,189.913c-4.233,0.722-7.711-2.245-11.245-4.505
		C49.75,186.435,53.416,188.209,57.084,189.913z M72.388,164.011c-2.874,4.19-7.283,6.968-11.555,9.606
		C64.357,169.981,67.588,165.875,72.388,164.011z M48.932,179.803c0.873-3.645,2.025-7.308,4.077-10.46
		c0.104,2.841-0.767,5.564-2.059,8.106c-0.251,0.49,0.496,0.843,0.765,0.371c2.138-3.765,4.242-7.682,7.514-10.558
		c-0.968,2.866-2.539,5.481-3.855,8.199c-0.213,0.434,0.392,0.843,0.701,0.463c2.51-3.092,4.37-6.759,7.343-9.4
		c-1.183,2.17-2.267,4.398-3.305,6.646c-0.178,0.379,0.221,0.69,0.545,0.562c-0.404,0.305,0.05,0.958,0.499,0.68
		c2.502-1.569,5.24-2.371,8.135-2.081c-3.43,2.129-7.409,2.921-11.365,3.577c-0.546,0.094-0.491,0.817,0.054,0.847
		c2.396,0.132,4.556,0.945,6.753,1.772c-4.792,1.052-9.771,0.977-14.508,2.353c-0.472,0.138-0.309,0.854,0.161,0.827
		c2.757-0.144,5.511-0.25,8.269-0.028c1.148,0.089,2.278,0.299,3.395,0.557c0.806,0.192,1.578,0.503,2.329,0.835
		c0.598,0.268,0.997,0.259,0.504,0.31c-5.275,0.542-10.702-0.5-15.816-1.788c0.017-0.085-0.004-0.162-0.039-0.244
		c-0.011-0.156-0.02-0.31-0.025-0.468C48.982,180.519,48.961,180.161,48.932,179.803z M48.176,167.167
		c-3.784,5.118-4.302,11.811-7.583,17.15C40.368,177.922,41.148,168.763,48.176,167.167z M38.555,168.759
		c-0.32,5.34-2.956,10.663-3.188,15.998C35.023,179.051,33.854,172.453,38.555,168.759z M33.241,170.967
		c-1.424,6.431-1.718,13.108-4.012,19.332c-0.07,0.193-0.006,0.364,0.113,0.479c-0.045,0.021-0.09,0.042-0.134,0.062
		c-0.019-0.042-0.04-0.085-0.071-0.111c0.008-0.031,0.013-0.066,0.008-0.106C28.312,184.539,27.791,175.175,33.241,170.967z
		 M18.199,177.943c0.883,1.729,1.749,3.333,1.972,5.381c0.054,0.461,0.786,0.556,0.842,0.061c0.307-2.654,1.372-4.96,2.747-7.18
		c0.39,3.755-1.112,7.841-2.243,11.303c-0.526,1.604-1.207,3.26-1.794,4.943C19.261,187.593,17.439,182.755,18.199,177.943z
		 M6.399,184.892c0.829,0.635,1.684,1.223,2.438,1.942c0.217,0.203,0.671,0.075,0.696-0.243c0.227-2.882,1.416-5.292,3.154-7.503
		c1.384,7.44-2.188,14.905-1.86,22.361C8.436,196.294,5.778,190.646,6.399,184.892z M-1.861,205.383
		c-1.422,1.372-3.039,2.504-4.837,3.35c-0.489,0.229-0.225,1.039,0.269,0.806c0.039-0.018,0.072-0.042,0.111-0.059
		c-2.646,2.856-7.012,2.951-10.413,4.755C-12.647,209.871-7.672,206.976-1.861,205.383z M0.942,185.955
		c-0.291,0.462-0.66,0.854-1.044,1.334c-0.291,0.368,0.138,0.826,0.485,0.678c0.592,0.192,1.202,0.27,1.8,0.422
		c-2.183,4.006-7.492,3.794-11.648,4.458C-6.109,190.389-2.445,188.371,0.942,185.955z M-18.226,186.591
		c0.562,0.677,1.048,1.402,1.601,2.086c0.315,0.384,0.922,0.026,0.759-0.366c0.052-0.085,0.059-0.197,0.008-0.325
		c-1.016-2.289-0.859-4.795-0.081-7.107c1.615,5.745,3.642,11.425,2.11,17.365C-15.776,194.635-18.767,190.791-18.226,186.591z
		 M-8.978,189.445c-0.034-0.014-0.065-0.025-0.101-0.032c-0.019-0.194-0.035-0.385-0.063-0.577c0.109-0.098,0.173-0.25,0.111-0.43
		c-0.963-2.905-1.72-5.86-1.91-8.912c0.07,0.11,0.126,0.209,0.167,0.265c0.128,0.177,0.361,0.208,0.539,0.13
		c0.59,2.244,1.36,4.438,2.327,6.553c0.025,0.142,0.136,0.246,0.274,0.294l0.008,0.004c0.05,0.018,0.099,0.025,0.146,0.025
		c0,0,0.02,0,0.027-0.004c0.037,0,0.076-0.003,0.116-0.017c0.138-0.037,0.251-0.136,0.283-0.272
		c1.033-1.801,1.321-3.835,0.955-5.872c-0.025-0.161-0.132-0.264-0.252-0.324c-0.545-2.538-0.43-5.115,0.047-7.664
		c0.072-0.402-0.043-0.938,0.268-0.513c0.479,0.656,0.707,1.455,0.833,2.246c0.163,1.018,0.085,2.09,0.107,3.122
		c0.011,0.531,0.81,0.488,0.844-0.018c0.265,0.077,0.583-0.064,0.521-0.405c-0.537-2.848-0.327-5.719,0.844-8.346
		c0.32,1.377,0.311,2.784,0.37,4.208c0.025,0.499,0.725,0.488,0.832,0.068c0.031-0.043,0.059-0.086,0.077-0.141
		c0.887-2.712,2.217-5.267,4.089-7.413c-0.217,4.048-2.078,7.682-4.476,10.926c-0.282,0.385,0.17,0.856,0.504,0.677
		c0.148,0.056,0.322,0.037,0.456-0.114c1.335-1.504,2.724-2.88,4.462-3.844c-1.526,3.502-5.074,5.58-7.983,7.893
		c-0.294,0.235-0.16,0.635,0.089,0.754c0.094,0.104,0.233,0.157,0.406,0.071c1.177-0.578,2.363-1.101,3.596-1.519
		c-1.83,2.914-4.347,5.327-7.227,7.208c-0.205,0.143-0.217,0.358-0.128,0.528C-8.243,188.444-8.62,188.945-8.978,189.445z
		 M-25.862,193.912c0.322,0.501,0.663,0.997,1.032,1.476c0.14,0.184,0.342,0.196,0.507,0.132c0.255,0.221,0.758,0.103,0.709-0.323
		c-0.154-1.464-0.15-2.929,0.012-4.39c1.206,2.437,2.207,4.967,3.019,7.56c0.135,0.441,0.721,0.313,0.809-0.045
		c0.052-0.066,0.084-0.142,0.086-0.242c0.004-0.442-0.013-0.885-0.019-1.327c1.263,2.456,2.476,4.937,3.546,7.485
		c0.035,0.074,0.079,0.128,0.126,0.167l-0.004,0.024C-21.717,204.463-25.672,199.263-25.862,193.912z M-15.299,204.829
		c0.06-0.026,0.118-0.063,0.174-0.126c3.885-4.809,10.027-6.644,15.389-9.449c-0.847,0.923-1.7,1.846-2.65,2.69
		c-0.231,0.207-0.05,0.659,0.244,0.693c0.397,0.042,0.881-0.132,1.333-0.205c-3.974,4.131-9.397,5.068-14.64,6.864
		C-15.4,205.14-15.35,204.984-15.299,204.829z M-28.322,201.287c0.416,1.434,0.961,2.832,1.359,4.273
		c0.146,0.535,0.953,0.261,0.806-0.267c-0.011-0.045-0.027-0.089-0.044-0.136c-0.019-0.213,0.027-0.064,0.361,0.171
		c0.328,0.225,0.625,0.506,0.923,0.774c0.867,0.791,1.664,1.676,2.442,2.562c1.188,1.351,2.391,2.762,3.354,4.297
		C-25.161,212.566-30.812,207.299-28.322,201.287z M-32.903,212.464c0.514,0.637,1.11,1.216,1.781,1.606
		c0.06,0.033,0.119,0.051,0.173,0.058c0.094,0.115,0.185,0.23,0.292,0.337c0.384,0.392,0.935-0.251,0.555-0.644
		c-0.646-0.658-0.964-1.459-0.884-2.307c2.296,4.837,7.428,7.293,10.281,11.668c-0.004,0.018-0.015,0.033-0.017,0.05
		C-25.412,219.933-32.293,218.724-32.903,212.464z M-9.359,216.688c-2.148,3.131-5.434,4.901-9.044,5.8
		C-16.14,219.631-12.856,217.688-9.359,216.688z M-24.816,236.247c-2.932-1.337-6.472-2.114-9.18-3.986
		c0.9,0.275,1.792,0.584,2.671,0.936c0.415,0.172,0.733-0.311,0.552-0.608c0.178-0.116,0.276-0.351,0.128-0.575
		c-2.121-3.192-3.438-7.07-3.021-10.906c2.649,3.909,4.663,8.192,7.172,12.192c0.07,0.11,0.167,0.166,0.265,0.184
		c0.206,0.233,0.733,0.11,0.761-0.315c0.078-1.125,0.575-2.343,1.093-3.39c2.43,2.904,4.02,6.187,4.114,9.684
		C-21.328,237.995-23.118,237.017-24.816,236.247z M-14.58,244.312c0.19,0.166,0.406,0.118,0.55-0.017
		c2.655,3.432,3.871,7.937,7.143,10.863c-0.077,0.258-0.161,0.296-0.453,0.234c-0.011,0-0.017,0.003-0.017,0.003
		c-0.018-0.003-0.027-0.003-0.038-0.003c-0.184-0.021-0.313,0.075-0.386,0.207c-0.059,0.094-0.083,0.209-0.045,0.346
		c0.484,1.673,1.579,3,3.083,3.729c-7.658,0.747-9.075-9.528-11.201-14.983c0.017,0.072-0.027-0.29-0.037-0.375
		c-0.027-0.313-0.051-0.623-0.074-0.927c-0.01-0.173-0.021-0.344-0.027-0.508C-15.591,243.365-15.085,243.847-14.58,244.312z
		 M-10.488,237.945c1.404-3.08,2.981-6.054,4.797-8.906C-5.626,232.721-7.571,235.73-10.488,237.945z M-0.944,251.392
		c2.116,3.876,5.249,6.387,9.321,7.647c-0.436,0.034-0.875,0.038-1.294-0.007c-0.079-0.01-0.149,0.004-0.207,0.028l-0.007-0.004
		c-0.494-0.243-0.862,0.523-0.369,0.767c1.623,0.8,3.463,1.082,5.265,0.928c-2.88,1.91-6.48,2.161-9.355-0.059
		c-2.225-1.715-3.309-4.645-4.219-7.196c-1.233-3.436-2.173-7.659-4.628-10.526C-3.899,245.065-2.556,248.436-0.944,251.392z
		 M12.345,251.866c1.587,2.106,3.573,4.069,5.884,5.229c-3.729-0.479-7.045-1.926-9.418-5.559
		c-2.256-3.443-3.758-7.085-6.614-10.009C6.855,243.42,9.384,247.933,12.345,251.866z M0.258,237.85
		c0.002-0.145-0.059-0.284-0.225-0.371l-0.023-0.007c0.007-0.03,0.019-0.055,0.019-0.085c0.09-5.378-0.526-10.85,0.621-16.142
		c0.477,0.923,1.044,1.792,1.526,2.726c0.14,0.274,0.627,0.232,0.734-0.052c0.833-2.261,2.43-3.801,3.927-5.543
		c0.091,0.22,0.426,0.353,0.621,0.188c0.771-0.67,1.542-1.299,2.366-1.848c-4.398,5.791-7.071,12.693-7.764,19.963
		C1.645,237.261,1.026,237.65,0.258,237.85z M21.216,248.471c2.465,2.129,5.241,4.122,8.45,4.505
		c-2.123,0.519-4.305,0.591-6.473,0.046c-2.495-0.625-4.346-2.551-5.85-4.52c-2.078-2.732-3.754-5.638-6.341-7.777
		C14.917,242.413,18.028,245.721,21.216,248.471z M19.886,235.271c0.011,0.199-0.035,0.387-0.095,0.565
		c-0.156-0.211-0.264-0.516-0.346-0.77c0.025-0.055,0.038-0.117,0.031-0.197c-0.294-2.979-0.136-5.982,0.869-8.801
		c0.237,0.652,0.487,1.291,0.748,1.931c0.142,0.322,0.622,0.408,0.788,0.045c0.968-2.104,2.398-3.677,3.915-5.295
		c-1.171,4.308-3.284,8.315-5.601,12.109C20.021,234.9,19.875,235.041,19.886,235.271z M31.362,245.281
		c1.916,2.122,4.138,3.637,6.775,4.482c-2.08-0.027-4.002-0.81-5.555-2.39c-0.263-0.266-0.602-0.044-0.667,0.248
		c-4.574-0.479-6.83-4.855-6.99-9.088C27.389,240.462,29.258,242.952,31.362,245.281z M27.269,233.049
		c-0.068-0.1-0.135-0.197-0.202-0.292c0.023-0.037,0.046-0.079,0.059-0.128c0.693-2.813,1.009-5.735,1.869-8.507
		c0.157,0.54,0.323,1.073,0.519,1.605c0.112,0.285,0.521,0.405,0.725,0.136c0.96-1.234,2.138-2.257,3.223-3.369
		C32.148,226.359,29.282,229.526,27.269,233.049z M43.506,240.691c-5.196,3.563-10.395-0.154-13.702-4.941
		C34.524,236.824,38.7,240.146,43.506,240.691z M36.451,230.838c-0.451-0.072-0.739,0.642-0.265,0.801
		c2.508,0.837,4.962,1.81,7.429,2.75c-3.375,0.115-6.663-0.852-9.992-1.447c0.229-0.706,0.409-1.423,0.528-2.157
		c0.174-0.002,0.339-0.097,0.378-0.326c0.449-2.867,1.365-5.531,2.951-7.931c0.195,1.163,0.466,2.309,0.622,3.484
		c0.055,0.44,0.578,0.516,0.804,0.158c1.349-2.155,3.106-3.996,4.721-5.95c-0.203,1.414-0.325,2.835-0.734,4.211
		c-0.124,0.423,0.481,0.67,0.74,0.364c1.439-1.72,2.914-3.408,4.32-5.153c-0.305,0.991-0.579,1.997-0.894,2.988
		c-0.143,0.445,0.465,0.631,0.735,0.359c1.855-1.87,3.7-3.733,5.831-5.254c-0.658,0.974-1.261,1.992-1.997,2.907
		c-0.236,0.286-0.024,0.716,0.347,0.703c0.941-0.037,1.882,0.018,2.82,0.054c-3.473,1.747-7.312,2.65-10.325,5.264
		c-0.354,0.309-0.112,0.895,0.373,0.757c1.882-0.518,3.785-0.574,5.701-0.63c-2.74,0.912-5.676,1.196-8.508,1.768l0,0
		c-0.033,0.008-0.071,0.012-0.107,0.021c-0.513,0.107-0.272,0.8,0.161,0.826c1.36,0.085,2.719,0.239,4.076,0.384
		c-1.084,0.208-2.18,0.404-3.285,0.498c-0.548,0.045-0.489,0.848,0.054,0.851c2.343,0.008,4.634,0.465,6.952,0.736
		C45.549,232.976,40.754,231.508,36.451,230.838z"/>
</g>
</svg>
