<?xml version="1.0" encoding="utf-8"?>
<!-- Generator: Adobe Illustrator 16.0.0, SVG Export Plug-In . SVG Version: 6.00 Build 0)  -->
<!DOCTYPE svg PUBLIC "-//W3C//DTD SVG 1.1//EN" "http://www.w3.org/Graphics/SVG/1.1/DTD/svg11.dtd">
<svg version="1.1" xmlns="http://www.w3.org/2000/svg" xmlns:xlink="http://www.w3.org/1999/xlink" x="0px" y="0px"
	 width="340.245px" height="409.63px" viewBox="0 0 340.245 409.63" enable-background="new 0 0 340.245 409.63"
	 xml:space="preserve">
<g id="grid" display="none">
</g>
<g id="Layer_1">
	<g>
		<g>
			<path fill="#298C99" d="M48.329,452.241c-1.775-5.395-3.973-10.569-6.426-15.62c-0.375-2.205-0.699-4.419-1.014-6.637
				c0.138-0.17,0.23-0.385,0.214-0.664c-0.604-10.856,0.644-21.684,0.349-32.533c-0.033-1.336-2.111-1.265-2.074,0.076
				c0.158,5.865-0.129,11.724-0.333,17.582c-0.82-7.94-1.528-15.894-2.465-23.816c0.149-0.122,0.279-0.27,0.347-0.497
				c1.48-4.719,3.316-9.313,5.092-13.929c0.474-1.232-1.347-2.228-1.828-0.979c-1.416,3.671-2.854,7.329-4.151,11.041
				c-1.262-9.607-2.953-19.14-5.71-28.504c-0.375-1.288-2.359-0.682-1.985,0.6c6.931,23.552,7.161,48.228,10.569,72.398
				c-2.965-5.566-6.167-11.014-9.433-16.43c0.164-0.221,0.244-0.51,0.159-0.846c-1.617-6.719-1.33-14.686-0.993-21.543
				c0.065-1.336-2.009-1.251-2.073,0.077c-0.202,4.113-0.356,8.575-0.127,12.953c-3.325-10.552-7.772-21.047-13.872-30.146
				c-0.745-1.107-2.517-0.026-1.768,1.084c6.196,9.246,10.641,19.886,13.95,30.592c-4.059-6.75-8.025-13.542-11.49-20.601
				c-0.594-1.205-2.356-0.104-1.771,1.084c8.495,17.293,20.017,33.005,28.432,50.295c0.041,0.246,0.088,0.493,0.126,0.74
				c-3.534-3.168-7.405-5.913-11.609-8.198c-1.174-0.633-2.154,1.194-0.979,1.832c5.627,3.049,10.626,6.945,15.002,11.608
				c0.079,0.08,0.165,0.12,0.246,0.17c1.322,3.078,2.573,6.195,3.629,9.411C46.756,454.108,48.752,453.515,48.329,452.241z"/>
			<path fill="#298C99" d="M32.191,358.021c0,1.792-1.452,3.244-3.239,3.244c-1.794,0-3.248-1.452-3.248-3.244
				c0-1.794,1.454-3.246,3.248-3.246C30.739,354.775,32.191,356.228,32.191,358.021z"/>
			<path fill="#298C99" d="M43.093,375.412c0,1.501-1.221,2.725-2.725,2.725c-1.506,0-2.727-1.224-2.727-2.725
				c0-1.504,1.221-2.727,2.727-2.727C41.872,372.686,43.093,373.908,43.093,375.412z"/>
			<path fill="#298C99" d="M41.926,396.241c0,0.823-0.666,1.49-1.492,1.49s-1.495-0.667-1.495-1.49c0-0.826,0.669-1.496,1.495-1.496
				S41.926,395.415,41.926,396.241z"/>
			<path fill="#298C99" d="M29.337,390.855c0,1-0.81,1.813-1.815,1.813c-1.003,0-1.818-0.813-1.818-1.813
				c0-1.005,0.815-1.818,1.818-1.818C28.528,389.038,29.337,389.851,29.337,390.855z"/>
			<path fill="#298C99" d="M14.539,386.053c0,1.36-1.098,2.465-2.462,2.465c-1.358,0-2.465-1.104-2.465-2.465
				c0-1.365,1.106-2.466,2.465-2.466C13.441,383.586,14.539,384.688,14.539,386.053z"/>
			<path fill="#298C99" d="M13.243,374.504c0,2.289-1.855,4.151-4.153,4.151c-2.289,0-4.15-1.862-4.15-4.151
				c0-2.295,1.861-4.157,4.15-4.157C11.387,370.347,13.243,372.209,13.243,374.504z"/>
		</g>
		<g>
			<g>
				<path fill="#298C99" d="M60.347,365.288c-1.95,4.48-3.867,8.969-5.8,13.454c-0.271-3.815-0.497-7.645-0.691-11.468
					c0.081-4.778,0.015-9.554-0.207-14.333c-0.061-1.338-2.138-1.264-2.077,0.078c0.017,0.306,0.015,0.611,0.027,0.917
					c-0.222,0.177-0.391,0.441-0.371,0.81c0.149,3.953,0.318,7.895,0.516,11.838c-0.022,1.76-0.022,3.517-0.09,5.273
					c-1.459-1.009-2.695-2.637-3.776-3.88c-2.039-2.351-3.885-4.896-5.455-7.58c-0.676-1.159-2.444-0.069-1.766,1.087
					c1.664,2.844,3.656,5.479,5.791,7.995c1.396,1.649,3.097,3.811,5.141,4.739c0.019,0.448,0.29,0.711,0.627,0.815
					c0.164,2.607,0.359,5.21,0.558,7.816c-0.012,0.03-0.026,0.06-0.038,0.095c-0.175,0.4-0.084,0.76,0.119,1.042
					c0.742,9.206,1.756,18.382,3.221,27.515c0.206,1.303,2.283,1.243,2.073-0.075c-1.5-9.39-2.501-18.828-3.248-28.284
					c2.444-5.617,4.831-11.259,7.279-16.87C62.711,365.055,60.886,364.067,60.347,365.288z"/>
				<circle fill="#298C99" cx="51.919" cy="353.281" r="3.44"/>
				<circle fill="#298C99" cx="42.056" cy="360.678" r="2.467"/>
				<path fill="#298C99" d="M63.988,365.481c0,1.503-1.219,2.726-2.723,2.726c-1.508,0-2.727-1.222-2.727-2.726
					c0-1.503,1.219-2.727,2.727-2.727C62.769,362.755,63.988,363.979,63.988,365.481z"/>
			</g>
			<g>
				<path fill="#298C99" d="M69.492,364.195c0.111-0.082,0.217-0.195,0.302-0.346c2.104-3.786,3.282-8.524,4.251-12.72
					c0.301-1.302-1.726-1.762-2.028-0.459c-0.864,3.739-1.912,7.913-3.676,11.395c-3.368-6.131-7.057-12.059-10.705-17.765
					c2.226-1.244,4.573-2.86,6.111-4.794c0.827-1.04-0.673-2.479-1.502-1.431c-1.562,1.959-3.975,3.542-6.212,4.742
					c-3.772-1.724-7.406-4.274-9.804-7.686c-0.768-1.095-2.539-0.013-1.768,1.086c2.702,3.849,6.791,6.783,11.074,8.652
					c11.229,17.493,22.991,37.105,24.417,58.328c0.092,1.334,2.161,1.26,2.074-0.08C81.113,389.445,76.005,376.429,69.492,364.195z"
					/>
				<path fill="#298C99" d="M65.423,339.4c0,1.579-1.281,2.852-2.862,2.852c-1.575,0-2.857-1.273-2.857-2.852
					c0-1.58,1.282-2.858,2.857-2.858C64.142,336.542,65.423,337.82,65.423,339.4z"/>
				<path fill="#298C99" d="M48.027,335.632c0,1.647-1.335,2.983-2.988,2.983c-1.644,0-2.983-1.336-2.983-2.983
					c0-1.648,1.339-2.986,2.983-2.986C46.692,332.646,48.027,333.983,48.027,335.632z"/>
				<path fill="#298C99" d="M76.186,350.231c0,1.688-1.366,3.049-3.049,3.049c-1.683,0-3.051-1.361-3.051-3.049
					c0-1.685,1.368-3.053,3.051-3.053C74.82,347.179,76.186,348.546,76.186,350.231z"/>
			</g>
			<g>
				<path fill="#298C99" d="M94.806,405.972c2.071-3.645,4.097-7.311,6.131-10.973c0.65-1.176-1.178-2.156-1.828-0.986
					c-1.679,3.024-3.362,6.04-5.057,9.05c-0.976-3.794-1.947-7.592-2.919-11.39c2.376-5.374,4.212-11.003,5.749-16.664
					c0.356-1.291-1.679-1.749-2.022-0.459c-1.273,4.666-2.75,9.309-4.572,13.796c-1.055-4.121-2.107-8.24-3.161-12.362
					c0.192-0.123,0.357-0.314,0.411-0.629c0.333-1.993,1.844-4.168,2.715-5.968c1.348-2.777,2.728-5.541,4.108-8.305
					c0.597-1.198-1.23-2.181-1.831-0.985c-1.377,2.768-2.756,5.531-4.108,8.308c-0.758,1.563-1.89,3.357-2.521,5.124
					c-3.114-3.931-5.741-8.448-8.182-12.788c-0.658-1.17-2.422-0.078-1.771,1.084c2.646,4.703,5.504,9.544,8.929,13.739
					c1.375,5.348,2.744,10.704,4.106,16.054c-0.015,0.229,0.046,0.43,0.157,0.608c1.153,4.484,2.294,8.969,3.446,13.457
					c-0.016,0.034-0.038,0.067-0.057,0.096c-0.33,0.598-0.027,1.134,0.442,1.375c1.997,7.772,4.002,15.542,6.056,23.298
					c0.34,1.298,2.329,0.694,1.989-0.601C98.91,421.9,96.853,413.938,94.806,405.972z"/>
				<path fill="#298C99" d="M80.733,360.319c0,2.101-1.705,3.798-3.801,3.798s-3.795-1.698-3.795-3.798
					c0-2.094,1.699-3.793,3.795-3.793S80.733,358.226,80.733,360.319z"/>
				<circle fill="#298C99" cx="92.928" cy="361.976" r="3.633"/>
				<path fill="#298C99" d="M98.378,376.122c0,1.504-1.221,2.726-2.728,2.726c-1.502,0-2.724-1.221-2.724-2.726
					c0-1.503,1.222-2.726,2.724-2.726C97.158,373.396,98.378,374.619,98.378,376.122z"/>
				<path fill="#298C99" d="M102.402,394.873c0,1.113-0.898,2.015-2.012,2.015s-2.012-0.902-2.012-2.015
					c0-1.11,0.898-2.008,2.012-2.008S102.402,393.763,102.402,394.873z"/>
			</g>
			<g>
				<path fill="#298C99" d="M134.918,375.793c-2.395,2.354-5.122,4.716-8.06,6.452c-0.085-6.809-0.287-13.619-0.696-20.42
					l0.011-0.002c3.765-1.759,6.852-4.854,9.023-8.352c0.712-1.143-1.129-2.115-1.82-0.982c-1.805,2.901-4.345,5.383-7.348,7.027
					c-0.202-3.003-0.436-6-0.742-8.997c-0.131-1.326-2.21-1.262-2.075,0.076c0.5,4.875,0.837,9.757,1.083,14.644
					c-0.113-0.046-0.228-0.062-0.343-0.069c-0.26-0.109-0.52-0.096-0.753,0.013c-0.042-0.021-0.064-0.05-0.107-0.064
					c-4.375-1.609-8.714-4.815-12.312-7.7c-1.04-0.833-2.479,0.667-1.434,1.506c3.935,3.155,8.513,6.468,13.291,8.217
					c0.206,0.078,0.379,0.069,0.539,0.025c0.327,0.236,0.681,0.358,1.119,0.247c0.036-0.008,0.07-0.033,0.101-0.045
					c0.387,8.748,0.459,17.517,0.463,26.28c-1.32-5.787-3.534-11.54-5.5-17.091c-0.445-1.256-2.432-0.665-1.986,0.601
					c1.998,5.642,4.255,11.484,5.562,17.359c-4.115-1.771-8.032-4.198-11.468-6.992c-1.032-0.837-2.474,0.659-1.434,1.503
					c4.418,3.59,9.456,6.576,14.825,8.488c-0.008,7.894-0.041,15.79,0.089,23.679c0.019,1.336,2.091,1.265,2.068-0.077
					c-0.191-12.149-0.013-24.314-0.122-36.467c3.488-1.84,6.736-4.674,9.528-7.42C137.381,376.287,135.871,374.862,134.918,375.793z
					"/>
				<path fill="#298C99" d="M112.656,358.604c0,1.146-0.929,2.074-2.08,2.074c-1.144,0-2.072-0.928-2.072-2.074
					c0-1.149,0.929-2.078,2.072-2.078C111.727,356.526,112.656,357.455,112.656,358.604z"/>
				<path fill="#298C99" d="M129.525,349.777c0,2.724-2.203,4.928-4.931,4.928c-2.717,0-4.93-2.204-4.93-4.928
					c0-2.722,2.213-4.932,4.93-4.932C127.322,344.845,129.525,347.055,129.525,349.777z"/>
				<path fill="#298C99" d="M137.396,354.56c0,1.865-1.507,3.372-3.369,3.372c-1.866,0-3.378-1.506-3.378-3.372
					s1.512-3.378,3.378-3.378C135.889,351.182,137.396,352.694,137.396,354.56z"/>
				<circle fill="#298C99" cx="135.884" cy="376.122" r="2.465"/>
				<path fill="#298C99" d="M120.44,376.9c0,1.078-0.867,1.947-1.946,1.947c-1.074,0-1.947-0.869-1.947-1.947
					c0-1.071,0.873-1.945,1.947-1.945C119.573,374.955,120.44,375.829,120.44,376.9z"/>
				<path fill="#298C99" d="M112.656,387.935c0,1.145-0.929,2.073-2.08,2.073c-1.144,0-2.072-0.929-2.072-2.073
					c0-1.149,0.929-2.081,2.072-2.081C111.727,385.854,112.656,386.785,112.656,387.935z"/>
			</g>
			<g>
				<path fill="#298C99" d="M201.544,370.135c-3.423,6.86-8.292,12.74-13.336,18.458c0.025-0.945,0.053-1.888,0.079-2.831
					c0.072-2.508,0.218-5.06-0.016-7.56c-0.122-1.327-2.204-1.26-2.073,0.077c0.229,2.499,0.084,5.054,0.016,7.56
					c-0.043,1.507-0.317,3.337-0.15,4.944c-1.935,1.993-3.836,4.027-5.764,6.028c-0.409-4.99-0.93-9.999-1.95-14.873
					c0.241-0.345,0.306-0.823,0.038-1.189c2.604-4.491,4.95-9.171,6.744-14.046c0.462-1.252-1.564-1.702-2.024-0.458
					c-1.445,3.92-3.289,7.716-5.32,11.384c0.967-5.822,0.692-12.001-0.244-17.765c-0.209-1.304-2.292-1.249-2.079,0.072
					c0.996,6.093,1.287,12.693,0.027,18.766c0,0,0.004,0.007,0,0.013c-2.554-2.1-4.692-4.957-6.406-7.593
					c-0.73-1.124-2.5-0.038-1.771,1.086c2.203,3.389,5.033,7.03,8.506,9.312c0.05,0.268,0.226,0.486,0.456,0.629
					c1.641,7.67,2.05,15.684,2.607,23.469c0.376,5.242,0.02,11.023,1.129,16.182c0.28,1.31,2.269,0.699,1.988-0.601
					c-1.238-5.729-0.788-12.262-1.22-18.095c-0.089-1.192-0.18-2.392-0.264-3.594c0.067-0.042,0.138-0.071,0.199-0.135
					c1.928-1.937,3.786-3.943,5.668-5.923c0.2-0.029,0.394-0.117,0.562-0.309c0.223-0.245,0.44-0.495,0.662-0.742
					c0.219-0.091,0.406-0.239,0.509-0.458c0.013-0.021,0.02-0.042,0.035-0.062c0.02-0.043,0.016-0.08,0.03-0.124
					c5.688-6.404,11.342-12.928,15.193-20.64C203.974,369.922,202.141,368.938,201.544,370.135z"/>
				<circle fill="#298C99" cx="167.984" cy="371.104" r="3.374"/>
				<path fill="#298C99" d="M178.109,359.425c0,1.075-0.875,1.948-1.946,1.948c-1.076,0-1.95-0.873-1.95-1.948
					c0-1.077,0.874-1.949,1.95-1.949C177.234,357.476,178.109,358.348,178.109,359.425z"/>
				<path fill="#298C99" d="M185.632,366.169c0,1.08-0.867,1.952-1.945,1.952c-1.076,0-1.943-0.872-1.943-1.952
					c0-1.072,0.867-1.945,1.943-1.945C184.765,364.224,185.632,365.097,185.632,366.169z"/>
				<path fill="#298C99" d="M189.266,377.724c0,1.004-0.811,1.818-1.817,1.818c-1.005,0-1.816-0.814-1.816-1.818
					c0-1.006,0.812-1.819,1.816-1.819C188.455,375.904,189.266,376.718,189.266,377.724z"/>
				<path fill="#298C99" d="M206.398,370.194c0,2.224-1.801,4.023-4.021,4.023c-2.225,0-4.022-1.799-4.022-4.023
					c0-2.219,1.798-4.025,4.022-4.025C204.597,366.169,206.398,367.976,206.398,370.194z"/>
			</g>
		</g>
	</g>
	<path fill="#298C99" d="M325.92,161.801c-2.212,3.042-3.834,6.458-4.908,10.057c-0.256-0.497-0.509-1.009-0.791-1.493
		c-1.285-4.264-3.171-8.773-6.452-11.867c-0.851-0.788-1.859-1.57-3.041-1.729c-0.972-0.131-1.679,0.54-1.809,1.459
		c-0.23,1.652,1.083,3.479,1.958,4.731c2.134,3.035,4.959,5.586,7.783,7.955c0.119,0.098,0.237,0.131,0.348,0.131
		c0.017,0.056,0.038,0.112,0.05,0.167c0.057,0.188,0.172,0.312,0.31,0.394c0.118,0.219,0.219,0.445,0.333,0.662
		c-3.427-1.896-7.987-2.896-11.612-2.896c-0.716,0-0.92,0.841-0.395,1.257c3.436,2.711,7.7,3.934,12,3.215
		c0.359,0.221,0.725,0.45,1.047,0.693c0.031,0.026,0.062,0.026,0.096,0.047c1.086,2.422,1.966,4.943,2.712,7.517
		c-2.834-2.947-5.47-5.302-9.88-3.576c-0.523,0.207-0.429,0.902-0.058,1.184c2.693,2.01,6.316,3.853,9.609,4.631
		c0.37,0.087,0.65-0.114,0.782-0.378c0.021-0.008,0.044-0.017,0.062-0.025c0.654,2.451,1.217,4.94,1.756,7.438
		c-2.859-2.856-5.673-5.42-10.063-4.769c-0.535,0.082-0.677,0.754-0.363,1.125c2.691,3.18,6.384,4.806,10.377,5.692
		c0.069,0.021,0.131,0.011,0.195,0.003c0.095,0.077,0.214,0.119,0.332,0.14c0.62,2.84,1.235,5.669,1.981,8.432
		c-2.589-2.491-5.328-4.425-9.11-4.876c-0.625-0.066-0.892,0.715-0.539,1.138c2.559,3.112,5.981,4.642,9.734,5.742
		c0.064,0.066,0.122,0.129,0.19,0.189c0.122,0.131,0.26,0.183,0.403,0.197c1.314,4.33,3.044,8.451,5.606,12.173
		c-0.058,0.009-0.119,0.013-0.18,0.017c-10.389-2.227-17.484-9.134-24.002-16.938c0.057-0.167,0.038-0.338-0.03-0.501
		c1.916-4.011,2.084-8.863-1.634-11.869c-0.375-0.306-0.854,0.013-1.014,0.371c-1.211,2.739-0.856,5.787-0.037,8.662
		c-1.901-2.368-3.796-4.756-5.734-7.091c-0.007-0.04-0.02-0.071-0.03-0.11c1.977-4.339,3.259-9.543,0.126-13.647
		c-0.296-0.384-0.827-0.218-1.079,0.096c-2.543,3.177-1.97,7.413-1.029,11.289c-1.514-1.729-3.07-3.407-4.708-4.976
		c0.03-0.139,0.02-0.281-0.08-0.444c-0.131-0.213-0.269-0.434-0.41-0.66v-0.013c0.235-4.212,0.762-9.926-3.273-12.604
		c-0.382-0.255-0.853-0.029-1.01,0.375c-1.377,3.577,0.005,7.376,1.813,10.697c-1.449-1.197-2.953-2.308-4.549-3.3
		c-0.011-0.132-0.06-0.264-0.198-0.383c-2.36-2.007-4.873-3.854-7.707-5.14c-1.48-0.667-3.236-1.261-4.881-0.988
		c-1.102,0.183-1.905,0.991-1.768,2.137c0.154,1.271,1.477,2.258,2.467,2.875c3.267,2.02,7.433,2.548,11.181,2.735
		c0.1,0.007,0.176-0.017,0.253-0.044c1.943,1.217,3.753,2.604,5.473,4.093c-3.229-0.17-6.299,0.863-9.183,2.44
		c-0.406,0.222-0.552,0.944-0.054,1.18c3.427,1.622,7.565,0.587,9.917-2.208c0.218,0.028,0.429,0.04,0.648,0.083
		c0.112,0.02,0.22,0.011,0.316-0.015c1.975,1.853,3.825,3.851,5.615,5.915c-3.638-0.781-7.34-1.009-10.929,0.252
		c-0.362,0.127-0.737,0.565-0.466,0.972c2.753,4.086,8.637,2.256,12.571,0.812c0.177,0.222,0.471,0.282,0.731,0.217
		c1.533,1.85,3.038,3.73,4.545,5.608c-2.54-1.226-5.276-1.776-8.109-0.592c-0.439,0.184-0.447,0.742-0.194,1.07
		c2.761,3.572,7.524,3.129,11.558,3.554l0.031-0.003c5.918,7.094,12.286,13.498,21.189,16.474c-3.68,0.453-7.328,1.083-10.997,1.596
		c-2.257-3.852-5.519-8.735-10.514-8.602c-0.509,0.011-0.873,0.5-0.639,0.985c1.659,3.475,4.181,6.599,7.737,8.059
		c-2.104,0.232-4.224,0.417-6.363,0.462c-0.237,0.009-0.479,0.005-0.725,0c-0.015-0.024-0.019-0.053-0.041-0.08
		c-2.93-3.526-6.46-8.342-11.499-8.469c-0.545-0.014-0.825,0.515-0.643,0.988c1.281,3.284,3.749,5.731,6.735,7.381
		c-1.835-0.129-3.668-0.299-5.492-0.56c-0.142-0.208-0.371-0.343-0.619-0.31c-1.825-4.261-5.565-8.513-10.308-9.242
		c-0.444-0.072-0.785,0.428-0.697,0.817c0.712,3.412,3.252,5.956,6.166,7.777c-2.405-0.503-4.804-1.087-7.18-1.754
		c-0.046-0.064-0.091-0.127-0.168-0.178c-2.049-1.508-4.356-2.869-6.907-3.262c-1.328-0.208-2.842-0.017-3.745,1.069
		c-0.73,0.894-0.383,2.156,0.354,2.92c1.167,1.206,3.051,1.495,4.654,1.52c1.722,0.024,3.441-0.305,5.096-0.766
		c0.045-0.007,0.066-0.038,0.109-0.051c2.616,0.732,5.24,1.367,7.883,1.899c-3.074,1.316-5.863,3.262-7.88,5.963
		c-0.251,0.344-0.028,0.911,0.375,1.01c4.556,1.178,9.303-3.089,12.381-6.133c1.657,0.242,3.324,0.438,5.001,0.579
		c-2.435,1.311-4.461,3.243-5.8,5.776c-0.26,0.486,0.02,0.956,0.539,1.045c4.351,0.728,7.673-4.183,10.795-6.575
		c2.37,0.015,4.712-0.145,7.033-0.382c-3.019,2.195-5.537,5.053-6.729,8.669c-0.171,0.498,0.293,0.966,0.785,0.869
		c4.651-0.869,6.87-5.57,9.03-9.274c0.134-0.231,0.115-0.448,0.026-0.631c5.28-0.703,10.516-1.704,15.856-2.128
		c0.488,0.102,0.975,0.209,1.475,0.289c1.542,1.963,3.332,3.808,5.5,5.472c0.693,0.538,1.416-0.618,0.728-1.15
		c-6.453-4.951-9.729-11.48-11.907-18.577c1.335-0.75,2.773-1.299,4.013-2.211c1.47-1.091,1.939-2.88,2.047-4.61
		c0.029-0.513-0.535-0.873-0.988-0.64c-2.39,1.223-3.966,3.24-5.741,5.14c-0.781-2.875-1.426-5.824-2.057-8.784
		c3.832-2.91,6.705-6.114,6.364-11.254c-0.038-0.539-0.671-1.001-1.14-0.536c-2.593,2.593-4.479,5.566-5.853,8.869
		c-0.429-2.036-0.896-4.062-1.411-6.063c3.518-3.594,5.512-7.656,4.357-12.773c-0.143-0.639-0.872-0.657-1.239-0.223
		c-2.231,2.655-3.462,5.765-4.212,9.053c-0.661-2.133-1.436-4.206-2.342-6.226c0-0.028,0.012-0.06,0.02-0.089
		c3.906-3.021,6.277-6.421,5.225-11.604C327.037,161.404,326.26,161.331,325.92,161.801z M312.828,163.282
		c-0.983-1.208-2.07-2.711-2.457-4.125c-0.034-0.12-0.057-0.239-0.076-0.354c-0.016-0.055-0.02-0.11-0.027-0.162l-0.004-0.012
		c0,0,0-0.005,0-0.016c-0.004-0.091,0-0.185,0.008-0.274c0-0.029,0-0.038,0-0.038s0.015-0.042,0.034-0.103l0.004-0.009
		c0.013-0.013,0.013-0.021,0.027-0.038l0.008-0.004c0,0,0.053-0.013,0.11-0.031c0.04,0,0.131,0,0.166,0
		c0.034,0.007,0.042,0.007,0.048,0.007c0,0,0.032,0.007,0.089,0.024c0.093,0.024,0.188,0.054,0.286,0.089
		c0.205,0.077,0.12,0.045,0.251,0.115c0.526,0.269,1.005,0.644,1.399,1.004c2.696,2.458,4.398,5.979,5.603,9.463
		C316.336,167.114,314.461,165.302,312.828,163.282z M301.525,177.121c1.779,3.012,1.055,6.645-0.188,9.848
		C300.483,183.64,299.85,180.001,301.525,177.121z M291.45,169.878c2.191,2.089,2.207,5.698,2.035,8.79
		C291.974,175.929,290.757,172.847,291.45,169.878z M278.185,174.166c-0.849-0.328-1.663-0.75-2.406-1.281
		c-0.451-0.319-0.925-0.802-1.136-1.167c-0.146-0.256-0.119-0.17-0.161-0.455v-0.009c0-0.047,0.005-0.091,0.009-0.128
		c-0.023,0.242,0.118-0.248,0.006-0.016c0.078-0.164,0.058-0.1,0.058-0.1c0.029-0.028,0.058-0.058,0.091-0.084l0.008-0.004
		c0.257-0.159,0.227-0.133,0.543-0.186c1.435-0.272,3.324,0.518,4.681,1.182c2.048,1,3.935,2.336,5.701,3.778
		C283.062,175.499,280.544,175.085,278.185,174.166z M285.395,184.121c1.912-0.898,3.932-1.533,6.017-1.608
		C289.782,183.913,287.502,184.56,285.395,184.121z M290.184,189.871c2.968-0.806,5.967-0.631,8.954-0.024
		C296.227,190.854,292.31,191.838,290.184,189.871z M308.65,189.086c2.146,2.331,2.019,5.718,0.865,8.586
		C308.547,194.92,307.847,191.871,308.65,189.086z M299.651,196.777c2.96-0.788,5.814,0.57,8.334,2.226
		C305.033,198.834,301.838,198.794,299.651,196.777z M283.537,216.13c-0.008,0.04-0.008,0.085-0.016,0.127
		c-1.947,0.461-4.028,0.714-5.944,0.141c-0.598-0.18-1.144-0.479-1.49-0.856c-0.258-0.272-0.334-0.497-0.304-0.813
		c0.006-0.03,0.023-0.09,0.042-0.136c0.011-0.014,0.084-0.158,0.111-0.196l0,0l0.015-0.012c0.039-0.038,0.076-0.075,0.119-0.11
		c0.1-0.09,0.025-0.043,0.233-0.153c0.463-0.25,1.079-0.296,1.689-0.253C279.975,213.989,281.877,215.01,283.537,216.13z
		 M286.913,224.971c2.242-2.556,5.321-4.305,8.558-5.339c0.21,0.037,0.421,0.081,0.634,0.114
		C293.657,222.117,290.199,225.067,286.913,224.971z M288.306,210.761c3.33,0.976,6.02,4.032,7.612,7.131
		C292.765,216.433,289.511,214.1,288.306,210.761z M298.744,226.057c1.668-2.562,4.115-4.356,7.034-5.302
		c0.172,0.008,0.344,0.008,0.51,0.016C304.056,222.845,301.575,225.771,298.744,226.057z M298.771,212.404
		c3.61,0.712,6.36,4.151,8.656,6.988C303.736,218.157,300.534,215.861,298.771,212.404z M310.418,228.252
		c1.299-2.907,3.556-5.253,6.181-7.054C315.053,223.953,313.328,227.062,310.418,228.252z M310.337,211.403
		c3.347,0.566,5.741,3.777,7.504,6.665C314.427,217.055,312.012,214.469,310.337,211.403z M321.252,198.974
		c1.795,0.583,3.334,1.575,4.751,2.789C324.271,201.078,322.669,200.199,321.252,198.974z M334.614,198.469
		c-0.264,1.03-0.787,1.898-1.785,2.558c-0.601,0.396-1.264,0.71-1.917,1.021C332.075,200.763,333.204,199.464,334.614,198.469z
		 M317.39,187.861c2.746,0.102,4.784,1.8,6.718,3.712C321.606,190.815,319.294,189.684,317.39,187.861z M332.369,183.329
		c-0.309,3.151-2.081,5.379-4.449,7.383C329.011,188.011,330.449,185.544,332.369,183.329z M315.524,179.383
		c2.812-0.52,4.755,1.24,6.663,3.254C319.88,181.899,317.544,180.724,315.524,179.383z M328.617,172.939
		c0.342,3.543-1.04,6.437-3.39,9.093C325.793,178.77,326.757,175.661,328.617,172.939z M317.444,172.689
		c-2.413,0.03-4.731-0.61-6.854-1.784C312.857,171.172,315.283,171.773,317.444,172.689z M322.63,171.271
		c0.842-2.539,1.974-4.961,3.414-7.223C326.15,167.06,324.769,169.293,322.63,171.271z"/>
	<path fill="#298C99" d="M230.278,304.439c-0.359-2.19-2.157-3.507-4.326-3.5c-1.684,0.01-3.252,0.732-4.664,1.776
		c0.865-1.711,1.469-3.539,1.607-5.646c0.164-2.618-0.015-6.152-2.731-7.455c-2.934-1.401-6.842,1.723-8.142,4.091
		c-1.696,3.075-0.911,7.002-0.33,10.514c-2.523-3.301-7.229-8.113-9.838-3.981c-1.216,1.932-0.037,4.767,0.83,6.558
		c2.123,4.385,6.014,7.229,9.249,10.704c0.195,0.218,0.428,0.235,0.636,0.152c0.052,0.014,0.103,0.031,0.159,0.031
		c5.054-0.094,10.256-2.283,14.049-5.596C228.889,310.243,230.755,307.362,230.278,304.439z"/>
	<path fill="#AC7A2B" d="M353.799,305.841c0.062-0.225,0.054-0.476-0.137-0.737c-0.543-0.749-1.183-1.328-1.868-1.841
		c-0.235-0.203-0.458-0.411-0.721-0.59c-0.051-0.049-0.089-0.116-0.155-0.161c-0.46-0.311-0.947-0.572-1.422-0.846
		c-0.203-0.142-0.421-0.274-0.66-0.397c-12.707-6.966-29.75-2.5-41.069,5.504c0.057-0.292,0.118-0.586,0.18-0.878
		c0.661-0.768,1.365-1.475,2.127-2.135c0.168-0.14,0.249-0.295,0.295-0.451c10.533-9.517,23.332-11.145,37.085-8.12
		c0.245,0.054,0.452,0.009,0.646-0.09c0.575,0.176,1.137,0.128,1.646-0.34c0.577-0.533,0.291-1.226-0.229-1.549
		c-0.028-0.206-0.111-0.4-0.334-0.58c-0.719-0.586-1.511-1.049-2.329-1.43c-12.075-9.672-27.991,1.021-38.035,9.79
		c0.23-1.479,0.436-2.961,0.62-4.451c0.088-0.06,0.168-0.115,0.248-0.219c4.322-5.722,9.834-9.501,16.535-11.994
		c3.142-1.163,6.595-2.154,9.94-2.201c1.09-0.013,2.296,0.314,3.354,0.226c0.654,0.089,1.504,0.175,2.085-0.084
		c0.766,0.126,1.641-0.699,1.102-1.562c-0.317-0.499-0.701-0.904-1.136-1.235c-0.076-0.115-0.168-0.223-0.306-0.307
		c-11.089-6.95-24.396,2.785-31.254,12.332c0.055-0.534,0.126-1.065,0.176-1.603c0.013-0.02,0.024-0.032,0.024-0.06
		c1.378-7.543,8.59-11.245,14.388-15.111c2.831-1.89,9.276-5.04,10.118-8.776c0.933-4.139-8.125-0.847-9.135-0.343
		c-6.31,3.137-11.393,10.125-14.702,16.715c0.214-2.567,0.423-5.131,0.667-7.68c0.146-0.082,0.284-0.191,0.399-0.372
		c2.199-3.631,4.185-7.504,5.205-11.649c0.579-2.354,0.854-5.011,0.039-7.349c-1.145-3.275-4.804-4.707-7.654-2.487
		c-2.207,1.721-3.021,4.527-3.08,7.225c-0.036,2.021,0.353,4.024,1.007,5.963c0.639,2.676,1.159,5.403,2.041,8.021
		c0,0,0.004,0.013,0.013,0.026c-0.08,0.852-0.168,1.703-0.241,2.555c-1.289-2.417-2.808-5.06-4.605-7.438
		c-0.906-1.39-1.854-2.734-2.856-3.986c-2.514-3.156-5.991-5.659-9.999-3.701c-0.395,0.191-0.531,0.512-0.504,0.831
		c-0.195,0.456-0.065,1.062,0.424,1.37c7.075,4.375,13.667,9.884,17.112,17.647c-0.237,2.628-0.485,5.247-0.759,7.868
		c-0.04-0.094-0.091-0.174-0.136-0.268c-3.764-11.565-11.651-19.36-24.235-20.925c-0.254-0.033-0.471,0.038-0.657,0.14
		c-0.521,0.022-1.025,0.381-1.007,1.048c0.101,3.761,6.785,6.651,9.391,8.252c3.555,2.176,7.13,4.309,10.42,6.865
		c1.859,1.443,3.063,3.033,3.962,4.846c0.288,0.85,0.562,1.715,0.808,2.614c0.08,0.308,0.253,0.503,0.474,0.614
		c0.154,0.477,0.291,0.966,0.433,1.473l0.016,0.034c-0.161,1.391-0.349,2.781-0.535,4.169
		c-6.564-11.608-23.938-25.482-35.906-14.358c-0.438,0.413-0.316,1.072,0.043,1.478c0.508,0.587,0.711,0.852,1.078,1.042
		c0.177,0.286,0.444,0.515,0.854,0.549c5.699,0.485,11.502,0.37,17.094,1.686c6.827,1.611,12.71,7.376,16.31,13.228
		c-0.244,1.557-0.513,3.115-0.808,4.669c-8.338-11.926-25.669-20.125-39.733-15.853c-0.24-0.058-0.495-0.055-0.757,0.077
		c-0.75,0.383-1.726,0.82-2.064,1.655c-0.476,1.175,0.485,1.963,1.463,2.373c0.249,0.103,0.486,0.089,0.689,0.035
		c6.341,1.349,12.795,1.511,19.209,2.41c8.44,1.177,15.764,5.537,20.506,12.62c-0.051,0.278-0.104,0.545-0.166,0.819
		c-0.199,0.894-0.452,1.775-0.68,2.661c-5.593-6.974-14.429-12.527-22.94-14.666c-2.04-0.507-4.473-0.919-7.013-1.113
		c-5.892-0.964-12.926-1.208-15.87,3.462c-0.198,0.07-0.379,0.181-0.505,0.406c-0.47,0.814-1.082,1.644-0.492,2.607
		c0.187,0.31,0.477,0.501,0.806,0.625c0.153,0.11,0.324,0.205,0.555,0.216c8.258,0.666,15.882-2.235,24.216-0.668
		c7.174,1.345,16.758,5.309,20.437,12.135c-0.257,0.88-0.547,1.756-0.827,2.631c-0.033,0.04-0.048,0.083-0.075,0.122
		c-11.195-10.047-32.226-18.197-45.38-7.628c-0.535,0.433-0.492,1.115-0.198,1.559c0.146,0.351,0.468,0.604,0.96,0.548
		c13.758-1.471,33.522-3.343,43.704,8.334c-0.738,2.107-1.541,4.199-2.383,6.276c-1.604-1.713-3.348-3.292-5.188-4.744
		c-0.083-0.133-0.19-0.251-0.362-0.344c-0.081-0.05-0.173-0.091-0.253-0.137c-10.733-8.17-24.837-11.482-37.415-4.702
		c-0.466,0.253-0.566,0.678-0.46,1.066c0.054,0.524,0.475,1.011,1.103,0.991c0.13,0.052,0.287,0.078,0.466,0.047
		c7.49-1.128,15.563-1.841,23.076-0.299c2.448,0.581,4.873,1.36,7.274,2.364c1.095,0.508,2.178,1.069,3.217,1.729
		c0.253,0.15,0.486,0.171,0.697,0.124c0.32,0.171,0.654,0.299,0.971,0.476c2.165,1.667,4.185,3.522,6.01,5.542
		c-0.223,0.52-0.455,1.034-0.674,1.553c-0.142,0.159-0.21,0.35-0.241,0.551c-0.382,0.886-0.799,1.751-1.194,2.627
		c-4.982-4.795-11.302-8.678-18.061-10.798c-7.635-3.015-15.368-3.759-23.829,0.374c-0.61,0.298-0.635,0.889-0.354,1.333
		c-0.017,0.611,0.478,1.303,1.284,1.167c0.451-0.077,0.888-0.18,1.342-0.264c0.017,0,0.036,0.008,0.054,0.004
		c13.598-2.441,27.82,1.823,38.609,10.287c-0.479,1.057-0.982,2.092-1.476,3.144c-12.121-11.809-32.26-13.328-46.94-5.797
		c-0.383,0.192-0.509,0.504-0.503,0.824c-0.231,0.652,0.09,1.481,0.958,1.37c15.613-2.044,31.946-4.114,45.292,6.135
		c-0.542,1.142-1.103,2.257-1.653,3.392c-0.386-0.392-0.818-0.732-1.223-1.1c-11.506-11.488-31.928-10.61-44.825-1.878
		c-0.104,0.068-0.165,0.148-0.229,0.23c-0.543,0.349-1.075,0.699-1.604,1.077c-0.106,0.072-0.18,0.166-0.248,0.254
		c-0.585,0.252-0.998,1.117-0.448,1.776c0.031,0.036,0.054,0.069,0.085,0.099c0.173,0.208,0.431,0.277,0.699,0.273
		c0.211,0.122,0.467,0.191,0.758,0.137c0.417-0.081,0.818-0.192,1.224-0.285c0.881-0.07,1.756-0.203,2.597-0.449
		c0.145-0.009,0.306-0.051,0.475-0.162l0.019-0.013c0.613-0.21,1.213-0.465,1.802-0.748c5.523-1.828,10.874-4.23,16.723-4.954
		c0.122-0.017,0.229-0.066,0.332-0.116c7.746-0.381,15.561,1.453,21.133,6.198c0.521,0.514,1.041,1.025,1.52,1.586
		c0.068,0.073,0.134,0.108,0.202,0.153c-0.142,0.273-0.271,0.555-0.409,0.832c-1.427,2.835-2.876,5.67-4.357,8.506
		c-0.32-0.409-0.653-0.794-0.994-1.17c-9.336-14.415-34.643-8.921-47.07-1.92c-0.313,0.179-0.455,0.439-0.489,0.715
		c-0.578,0.626-0.325,1.88,0.732,1.74c13.172-1.694,34.525-10.887,45.273,0.844c0.364,0.603,0.705,1.219,1.011,1.896
		c0.054,0.142,0.148,0.251,0.241,0.345c-0.72,1.363-1.458,2.722-2.193,4.08c-14.69-13.292-36.948-8.389-53.097-0.401
		c-1.021,0.508-0.387,1.837,0.557,1.887c0.009,0.006,0.024,0.006,0.024,0.006c0.038,0,0.073,0,0.103,0
		c0.111,0.011,0.215,0.023,0.338,0c8.637-1.726,17.216-3.642,26.028-4.124c8.889-0.484,16.616,1.705,24.571,5.314
		c-0.722,1.3-1.467,2.573-2.21,3.855h-0.004c-1.393-0.674-2.776-1.241-4.153-1.729c-0.176-0.099-0.359-0.212-0.547-0.306
		c-0.161-0.095-0.322-0.209-0.494-0.299c-0.087-0.11-0.206-0.208-0.375-0.278c-0.279-0.12-0.55-0.198-0.823-0.306
		c-1.123-0.541-2.282-0.965-3.448-1.341c-12.891-4.608-27.708-2.828-39.737,4.283c-0.237,0.137-0.355,0.318-0.425,0.513
		c-0.157,0.22-0.207,0.483-0.195,0.736c-0.11,0.498,0.104,1.056,0.758,1.184c6.287,1.225,12.217-0.836,18.071-2.923
		c9.051-1.847,17.331-2.51,26.102,0.531c1.283,0.752,2.545,1.58,3.742,2.615c-1.452,2.481-2.961,4.925-4.518,7.334
		c-0.819-0.52-1.668-0.982-2.528-1.419c-9.77-8.975-27.77-5.448-39.202-2.417c-0.826,0.223-0.88,1.102-0.478,1.626
		c0.11,0.419,0.441,0.77,0.994,0.768c12.836-0.164,26.193-3.046,38.326,2.474c0.428,0.476,0.86,0.953,1.239,1.499
		c-2.001,2.977-4.116,5.869-6.282,8.737c-12.2-13.44-33.612-13.593-50.235-11.148c-0.046,0.009-0.073,0.031-0.115,0.044
		c-1.147,0.071-1.515,1.865-0.252,2.019l0,0c0.007,0,0.007,0,0.007,0c17.018,2.132,33.562,2.993,48.941,11.275
		c-3.088,4.014-6.222,8-9.288,12.033c-0.099,0.091-0.18,0.191-0.225,0.307c-0.261,0.34-0.517,0.697-0.766,1.042
		c-0.94-2.456-2.368-4.653-4.093-6.637c-3.323-4.761-7.56-8.524-13.375-11.348c-7.903-3.836-17.01-4.097-25.031-0.662
		c-0.1,0.022-0.202,0.068-0.302,0.12c-0.114,0.052-0.241,0.087-0.359,0.142c-0.223,0.101-0.349,0.251-0.428,0.414
		c-0.326,0.215-0.683,0.402-1.065,0.518c-1.208,0.362-0.757,2.095,0.35,2.028c0.062,0,0.109,0.025,0.163,0.016
		c0.186-0.009,0.372-0.016,0.56-0.025c0.046,0.009,0.08,0.025,0.137,0.025c0.866,0.018,1.744,0.029,2.636,0.051
		c7.884,1.057,15.839,1.454,23.607,3.134c0.154,0.056,0.317,0.098,0.475,0.153c2.269,0.887,4.479,1.943,6.591,3.28
		c2.073,1.384,3.941,3.043,5.496,5.087c1.078,1.779,2.088,3.644,2.953,5.65c0.033,0.068,0.08,0.115,0.123,0.173
		c-0.827,1.125-1.673,2.237-2.483,3.377c-0.019,0.031-0.019,0.064-0.042,0.094c-0.601,0.818-1.239,1.618-1.853,2.423
		c-0.108,0.078-0.228,0.14-0.335,0.222c-0.307,0.213-0.437,0.506-0.448,0.799c-0.164,0.222-0.347,0.436-0.511,0.659
		c-9.276-16.518-27.632-24.677-46.081-25.416c-0.137-0.045-0.29-0.066-0.477-0.032c-0.012,0-0.04,0-0.055,0.004
		c-0.038,0-0.079-0.004-0.119-0.004c-0.099-0.006-0.172,0.024-0.267,0.045c-0.944,0.141-1.887,0.256-2.854,0.298
		c-0.265,0.015-0.452,0.146-0.606,0.31c-0.208,0.013-0.411,0.033-0.625,0.037c-0.246,0.011-0.433,0.104-0.59,0.227
		c-1.024,0.252-0.925,1.899,0.2,2.011c0.098,0.076,0.23,0.137,0.379,0.169c16.615,3.956,34.887,5.004,46.488,19.23
		c0.058,0.07,0.13,0.116,0.199,0.166c1.082,1.496,2.106,3.044,3.005,4.714c-1.468,1.896-2.944,3.791-4.459,5.645
		c-0.849,1.041,0.659,2.479,1.511,1.44c0.382-0.474,0.758-0.951,1.133-1.427c0.148,0.025,0.317,0.025,0.5-0.035
		c27.682-8.98,53.37,8.215,79.67,13.768c1.167,0.241,1.66-1.332,0.822-1.878c-0.066-0.224-0.201-0.43-0.441-0.583
		c-12.093-7.37-25.188-12.4-38.985-15.459c-12.243-2.702-26.259-4.228-38.348,0.094c0.894-1.136,1.815-2.256,2.691-3.41
		c0.053-0.008,0.101,0.005,0.157-0.012c12.921-3.757,25.838-3.922,38.943-0.989c13.083,2.925,24.21,9.548,36.461,14.482
		c0.241,0.093,0.467,0.087,0.673,0.035c0.518,0.872,2.116,0.271,1.866-0.914c-1.373-6.454-7.932-10.841-13.344-13.943
		c-6.855-3.94-14.769-6.04-22.522-7.274c-12.587-2.014-27.291-1.555-39.034,4.316c1.232-1.705,2.469-3.405,3.732-5.086
		c24.424-11.956,49.109,2.384,72.721,9.044c0.254,0.067,0.468,0.051,0.647-0.03c0.194,0.064,0.382,0.135,0.574,0.2
		c0.841,0.302,1.308-0.508,1.162-1.214c0.146-0.436,0.064-0.945-0.444-1.244c-0.477-0.28-0.979-0.544-1.48-0.794
		c-9.638-8.398-24.545-12.181-36.853-14.236c-10.775-1.802-22.542-1.691-32.467,3.159c2.758-3.586,5.546-7.158,8.258-10.778
		c0.102,0.035,0.207,0.076,0.329,0.082c10.496,0.483,20.688,2.43,30.802,5.202c10.071,2.757,19.814,7.137,30,9.387
		c1.186,0.257,1.666-1.371,0.765-1.9c-0.046-0.075-0.084-0.154-0.165-0.221c-16.011-14.024-38.556-22.224-59.471-15.65
		c1.416-1.937,2.832-3.87,4.174-5.863c0.146-0.212,0.283-0.438,0.424-0.654c0.135-0.031,0.277-0.089,0.414-0.196
		c9.598-7.379,21.825-1.967,31.085,3.235c9.303,5.238,17.335,12.268,26.163,18.195c0.707,0.478,1.354-0.094,1.453-0.77
		c0.133-0.341,0.107-0.75-0.245-1.081c-0.661-0.636-1.326-1.278-1.98-1.917c-0.042-0.055-0.05-0.122-0.111-0.17
		c-0.956-0.936-1.974-1.892-3.021-2.863c-5.397-5.233-10.832-10.278-17.518-14.02c-1.963-1.1-3.997-2.028-6.082-2.816
		c-8.786-4.155-18.157-5.912-27.112-2.363c1.282-2.078,2.521-4.188,3.733-6.319c0.163,0.052,0.337,0.072,0.524,0.037
		c8.996-1.642,16.818,0.511,24.04,4.378c0.119,0.139,0.265,0.266,0.479,0.34c0.123,0.038,0.253,0.084,0.374,0.124
		c10.396,5.784,19.622,14.992,29.464,21.346c0.169,0.11,0.34,0.132,0.508,0.123c0.553,0.446,1.133,0.86,1.7,1.282
		c1.066,0.792,2.523-0.715,1.441-1.516c-0.097-0.072-0.208-0.15-0.307-0.222c-0.038-0.136-0.092-0.269-0.186-0.386
		c-2.136-6.175-7.406-10.922-13.561-14.584c-12.267-9.38-27.856-15.411-42.797-13.86c0.887-1.602,1.754-3.208,2.607-4.822
		c0,0,0.03-0.007,0.053-0.016c0.072-0.004,0.119,0.004,0.188-0.019c0.861-0.258,1.706-0.437,2.559-0.625
		c3.543,0.076,7.038,0.472,10.496,1.177c0.122,0.148,0.279,0.273,0.508,0.339c7.057,2.074,14.447,5.585,21.196,9.968
		c4.803,3.371,9.323,7.175,13.625,11.343c0.166,0.159,0.338,0.219,0.51,0.251c0.426,0.436,0.838,0.874,1.239,1.313
		c0.425,0.49,0.987,0.378,1.348,0.024c0.695-0.08,1.308-0.778,0.772-1.5c-0.761-1.055-1.62-2.039-2.509-2.993
		c0-0.24-0.074-0.476-0.269-0.697c-11.799-13.36-28.651-25.206-47.122-21.318c-0.203-0.003-0.406-0.017-0.607-0.02
		c-0.285-0.004-0.489,0.098-0.651,0.248l0,0c1.002-1.92,2-3.852,2.977-5.774c0.188,0.066,0.386,0.102,0.627,0.046
		c19.021-4.718,34.382,13.123,47.384,24.156c0.52,0.44,1.147,0.263,1.499-0.119c0.37-0.378,0.516-1.013,0.076-1.522
		c-0.092-0.104-0.18-0.207-0.268-0.304c0.077-0.244,0.092-0.507-0.085-0.792c-9.795-15.382-29.019-28.12-47.826-24.237
		c0.517-1.014,1.021-2.022,1.531-3.033c0.478-0.19,0.84-0.787,0.679-1.363c0.199-0.421,0.395-0.846,0.602-1.268
		c0.653-0.233,1.318-0.392,1.984-0.58c18.728-1.294,33.526,10.938,46.584,22.75c0.042,0.045,0.081,0.083,0.127,0.117
		c0.033,0.029,0.065,0.057,0.099,0.087c1.002,0.904,2.444-0.607,1.442-1.514c-0.038-0.034-0.08-0.071-0.118-0.107
		c-1.007-2.072-2.253-4.07-3.685-5.979c-1.896-3.647-5.24-6.62-9.21-9.025c-10.251-7.624-23.806-11.566-35.515-8.405
		c-0.057,0.003-0.11,0-0.164,0.003c-0.118,0.013-0.227,0.054-0.321,0.093c0.761-1.593,1.554-3.169,2.283-4.77
		c0.045-0.007,0.087-0.014,0.122-0.014c17.14,0.363,32.661,7.785,45.861,18.409c1.041,0.844,2.49-0.668,1.442-1.505
		c-0.026-0.028-0.055-0.05-0.08-0.07c-0.009-0.108-0.042-0.219-0.101-0.336c-8.491-16.18-28.957-20.614-45.749-18.748
		c0-0.188-0.085-0.375-0.233-0.546c0.447-0.983,0.902-1.966,1.331-2.963c17.27-4.056,31.793,6.396,46.928,12.761
		c0.244,0.108,0.482,0.098,0.693,0.038c0.803,0.013,1.521-1.06,0.776-1.797l-0.582-0.59c-0.019-0.215-0.088-0.432-0.287-0.632
		c-12.733-12.464-29.437-18.497-46.351-12.63c0.287-0.692,0.581-1.383,0.857-2.082c0.657-0.511,1.364-0.958,2.069-1.384
		c7.327-1.656,14.495-2.193,22.001-0.834c7.355,1.342,14.186,4.555,21.022,7.493c0.145,0.121,0.305,0.227,0.438,0.336
		c0.279,0.236,0.59,0.281,0.868,0.226c0.011,0.011,0.042,0.018,0.052,0.027c0.399,0.166,0.758,0.077,1.042-0.127
		c0.777,0.025,1.534-0.741,0.957-1.512c-7.643-10.041-22.22-13.75-34.632-11.352c-4.455,0.303-8.743,1.438-12.533,3.71
		c0.569-1.538,1.147-3.071,1.667-4.624c0.069-0.01,0.119,0.004,0.195-0.018c8.188-2.458,16.52-1.904,24.804-0.257
		c7.292,1.454,13.805,4.663,20.851,6.711c1.147,0.332,1.629-1.23,0.829-1.848c-0.023-0.051-0.027-0.101-0.057-0.152
		c-4.23-7.308-14.303-9.229-21.991-10.151c-7.729-0.934-16.45-0.627-23.667,2.722c0.083-0.271,0.18-0.535,0.252-0.802
		c0.054-0.069,0.1-0.132,0.133-0.212c0.04-0.01,0.085-0.015,0.134-0.035c3.148-1.635,6.621-2.982,10.231-3.951
		c2.515-0.391,4.974-0.63,7.387-0.741c9.336-0.012,18.487,2.432,26.749,6.984c1.065,0.586,1.961-0.862,1.247-1.62
		c-0.032-0.093-0.058-0.186-0.123-0.285c-9.532-13.537-31.796-11.076-44.798-3.413c0.042-0.159,0.096-0.316,0.134-0.479
		c0.187-0.682,0.34-1.371,0.509-2.061c0.026-0.02,0.064-0.026,0.1-0.051c11.899-9.037,27.33-5.028,41.175-4.25
		c1.496,0.188,2.983,0.438,4.457,0.776C353.547,307.442,354.026,306.525,353.799,305.841z"/>
	<path fill="#BF4C62" d="M407.694,144.508c-4.514-5.564-8.958-11.18-13.533-16.682c0.042-0.04,0.088-0.087,0.119-0.154
		c0.26-0.481,0.497-0.971,0.745-1.458c11.759-14.664,25.38-34.651,16.274-53.681c-0.232-0.478-1.055-0.393-1.154,0.145
		c-3.225,18.208-7.703,36.369-16.191,52.895c-0.284,0.346-0.55,0.678-0.827,1.018c-2.083-2.481-4.199-4.948-6.383-7.351
		c10.085-5.301,14.217-19.003,16.539-29.239c2.544-11.246,4.283-24.889,0.65-36.096c-0.162-0.5-0.873-0.67-1.147-0.163
		c-10.828,19.967-7.211,44.012-17.255,64.203c-0.67-0.718-1.328-1.447-2.012-2.157c-1.61-1.69-3.26-3.36-4.903-5.026
		c0.18,0.048,0.374,0.022,0.546-0.159c7.971-8.437,12.173-21.092,13.589-32.398c1.359-10.923,0.318-24.538-10.188-30.753
		c-0.455-0.267-1.095,0.166-0.93,0.701c6.269,19.914,6.224,42.567-3.848,61.247c-0.093,0.171-0.082,0.324-0.038,0.469
		c-1.817-1.826-3.646-3.649-5.481-5.446c0.016-0.021,0.027-0.047,0.038-0.072c0.313,0.201,0.834,0.144,1.003-0.319
		c0.497-1.32,0.929-2.667,1.308-4.01c4.654-9.582,6.881-20.147,6.502-30.857c-0.211-6.045-1.431-12.037-3.401-17.747
		c-0.947-2.772-2.173-5.451-3.524-8.045c-0.754-1.433-1.604-2.825-2.469-4.189c-0.428-0.685-1.197-2.507-2.05-2.737
		c-3.271-0.876-0.218,5.86,0.008,6.566c2.009,6.488,3.48,13.137,4.552,19.839c1.927,12,2.509,24.953-0.826,36.799
		c-0.654,1.311-1.339,2.606-2.081,3.874c-2.191-2.131-4.402-4.239-6.648-6.322c0.07-0.263,0.143-0.525,0.212-0.792
		c0.148-0.099,0.263-0.251,0.271-0.485c0.005-0.185,0-0.367-0.004-0.55c2.686-10.445,3.523-22.005,3.206-32.608
		c-0.324-11.203-2.865-23.51-11.709-31.165c-0.394-0.341-1.097-0.164-1.078,0.429c0.574,21.358,8.836,41.73,8.335,63.19
		c-0.084,0.334-0.184,0.673-0.271,1.014c-2.57-2.383-5.156-4.75-7.772-7.066c-0.558-0.494-1.147-0.974-1.706-1.467
		c0.016-0.033,0.034-0.049,0.045-0.087c0.054-0.257,0.096-0.517,0.146-0.771c3.989-10.502,4.704-22.382,3.221-33.426
		c-1.473-10.933-6.102-22.552-16.256-28.054c-0.574-0.31-1.129,0.283-0.864,0.844c8.514,18.51,16.795,39.626,12.694,60.316
		c-0.03,0.077-0.06,0.153-0.092,0.226c-1.79-1.551-3.562-3.115-5.378-4.63c0.264-0.054-1.09-1.172-1.277-1.074
		c-0.979-0.815-1.98-1.616-2.972-2.417c0.126-0.043,0.241-0.127,0.32-0.284c8.991-17.668,7.089-44.785-13.394-53.438
		c-0.64-0.277-1.231,0.4-0.762,0.976c5.786,7.122,9.184,16.3,11.667,25.018c2.291,8.043,4.494,17.977,1.583,26.135
		c-0.038,0.128-0.03,0.234-0.011,0.333c-0.053,0.114-0.107,0.225-0.157,0.339c-0.047,0.083-0.069,0.168-0.073,0.253
		c-0.888-0.713-1.79-1.41-2.688-2.108c-0.157-0.396-0.32-0.779-0.474-1.17c-0.073-0.239-0.139-0.481-0.21-0.724
		c0.003-6.545-1.825-13.052-3.788-19.247c-2.348-7.405-5.025-14.708-7.989-21.883c-2.954-7.141-6.167-14.422-10.707-20.72
		c-1.84-2.559-5.128-6.631-8.689-5.646c-0.008-0.702-1.159-0.675-1.244,0.085c-1.423,11.671,6.17,23.444,11.961,32.93
		c6.966,11.411,14.225,22.392,19.175,34.855c-2.242-1.694-4.527-3.33-6.839-4.923c-0.092-0.199-0.265-0.34-0.521-0.352
		c-0.834-0.567-1.668-1.151-2.513-1.704c-1.672-1.086-3.377-2.129-5.087-3.143c1.182-4.814-1.381-10.958-2.766-15.424
		c-1.887-6.114-4.283-12.085-7.134-17.825c-4.991-10.081-12.615-21.992-24.33-24.789c-0.486-0.115-1.01,0.434-0.696,0.911
		c6.162,9.492,11.941,19.199,18.188,28.645c5.608,8.5,11.811,17.423,14.733,27.307c-3.067-1.754-6.173-3.423-9.333-5.021
		c-1.188-0.667-2.396-1.307-3.611-1.927l-0.002-0.031c-0.093-0.212-0.159-0.433-0.215-0.66c0.02-0.085,0.034-0.187,0-0.294
		c-3.358-13.912-11.556-28.363-23.627-36.437c-0.539-0.356-1.147,0.319-0.865,0.844c6.514,12.057,17.912,21.29,22.243,34.523v0.006
		c0.084,0.309,0.156,0.63,0.225,0.941c-1.663-0.788-3.347-1.534-5.055-2.211c-1.042-0.478-2.079-0.941-3.11-1.411
		c0-0.038,0-0.076-0.004-0.113c-0.865-5.051-4.476-8.982-8.12-12.346c-4.771-4.404-10.309-7.954-15.694-11.551
		c-0.528-0.354-1.151,0.319-0.868,0.846c5.438,9.815,16.547,14.06,22.824,23.053c-0.181,0.035-0.345,0.065-0.517,0.098
		c-0.158-0.047-0.321-0.021-0.482,0.094c-12.168,2.471-23.948,7.146-36.582,5.939c-0.804-0.076-0.804,1.181,0,1.258
		c0.069,0.002,0.141,0.009,0.214,0.013c11.009,4.84,23.405,4.339,32.922-2.563c1.845-0.997,3.588-2.147,5.189-3.542
		c1.147,0.373,2.281,0.791,3.397,1.22c2.344,1.082,4.663,2.184,6.988,3.316c-0.146,0.26-0.272,0.516-0.438,0.764
		c-0.159,0.169-0.309,0.332-0.459,0.502c-13.353,7.392-28.294,8.818-43.25,10.506c-0.667,0.076-0.9,1.043-0.173,1.232
		c14,3.604,30.431,1.667,41.455-8.072c1.519-0.941,2.941-2.031,4.059-3.425c0.099-0.071,0.16-0.157,0.195-0.259
		c0.11-0.135,0.205-0.281,0.302-0.426c1.021,0.51,2.046,1.018,3.063,1.539c2.309,1.319,4.571,2.711,6.806,4.165
		c-0.116,0.084-0.231,0.161-0.357,0.247c-0.033,0.005-0.071-0.006-0.121,0.009c-17.753,6.428-41.643,6.12-53.65,22.946
		c-0.313,0.44,0.196,1.095,0.701,0.925c18.724-6.354,36.911-14.329,54.678-22.976c0.111-0.056,0.179-0.125,0.229-0.202
		c2.463,1.635,4.889,3.318,7.287,5.013c0.061,0.039,0.118,0.08,0.172,0.127c-18.915,3.917-46.188,7.823-51.492,29.428
		c-0.193,0.766,0.967,1.093,1.193,0.354c0.161,0.025,0.33-0.014,0.489-0.137c7.792-6.067,16.226-11.215,24.951-15.814
		c8.683-4.577,17.839-9.032,27.165-12.208c1.859,1.302,3.716,2.611,5.562,3.93c-11.57,2.261-23.145,4.987-33.887,9.96
		c-10.173,4.708-19.75,12.204-22.516,23.556c-0.179,0.767,0.967,1.09,1.194,0.365h0.015c8.506-2.341,15.536-10.114,22.36-15.32
		c10.14-7.736,22.625-11.825,34.057-17.203c0.146-0.066,0.23-0.174,0.279-0.285c2.418,1.736,4.819,3.505,7.181,5.305
		c-10.852,2.346-21.558,5.604-31.515,10.552c-10.886,5.417-21.438,13.703-24.744,25.928c-0.201,0.774,1.003,1.107,1.214,0.323
		c0.016-0.064,0.041-0.124,0.059-0.188c10.593-3.354,19.777-10.1,28.644-16.584c9.049-6.622,17.969-13.63,27.981-18.77
		c3.521,2.754,6.943,5.634,10.191,8.712c1.327,1.251,2.612,2.534,3.905,3.836c-0.076-0.03-0.157-0.056-0.252-0.056
		c-25.857,0.191-51.411,11.726-66.856,32.791c-0.269,0.375,0.094,0.99,0.546,0.952c12.539-1.133,23.991-7.867,34.604-14.146
		c5.917-3.501,11.747-7.153,17.756-10.5c5.025-2.811,10.366-4.856,15.486-7.457c0.069-0.03,0.104-0.072,0.149-0.116
		c2.56,2.65,5.042,5.375,7.493,8.125c-10.637,0.324-21.009,4.071-30.263,9.151c-9.8,5.377-18.959,12.988-24.545,22.781
		c-0.294,0.515,0.306,1.227,0.845,0.864c17.562-11.765,34.938-24.816,55.44-30.971c0.046-0.007,0.068-0.038,0.11-0.058
		c2.475,2.815,4.938,5.646,7.396,8.467c-19.353,2.357-39.671,10.541-51.483,26.576c-0.394,0.546,0.338,1.119,0.851,0.872
		c17.448-8.555,35.544-15.808,52.545-25.248c2.15,2.463,4.235,4.952,6.282,7.469c-18.295,3.823-35.085,17.353-45.036,32.758
		c-0.417,0.626,0.448,1.188,0.968,0.766c14.337-11.672,29.198-22.785,45.127-32.202c5.424,6.795,10.515,13.804,15.372,21.124
		c0.165,0.251,0.422,0.318,0.65,0.276c0.074,0.021,0.158,0.038,0.241,0.029c1.753-0.149,3.286-0.881,4.598-2.047
		c0.237-0.217,0.233-0.487,0.122-0.698C407.838,144.788,407.794,144.644,407.694,144.508z"/>
</g>
</svg>
