<?xml version="1.0" encoding="utf-8"?>
<!-- Generator: Adobe Illustrator 16.0.0, SVG Export Plug-In . SVG Version: 6.00 Build 0)  -->
<!DOCTYPE svg PUBLIC "-//W3C//DTD SVG 1.1//EN" "http://www.w3.org/Graphics/SVG/1.1/DTD/svg11.dtd">
<svg version="1.1" id="Layer_1" xmlns="http://www.w3.org/2000/svg" xmlns:xlink="http://www.w3.org/1999/xlink" x="0px" y="0px"
	 width="373.033px" height="288px" viewBox="0 0 373.033 288" enable-background="new 0 0 373.033 288" xml:space="preserve">
<path fill="#BF4C62" d="M145.543,173.207c-44.03,14.46-59.188,62.487-69.38,104.429c0.453-11.178,1.987-22.16,4.539-32.903
	c0.714-2.503,1.453-4.981,2.209-7.438c1.924-6.285,4.193-12.446,6.693-18.52c2.77-5.466,5.743-10.817,8.938-15.996
	c15.044-20.298,32.443-39.736,42.408-59.682c0.488-0.989-0.416-2.26-1.539-1.879c-26.572,8.979-43.557,33.589-54.614,58.093
	c-10.331,22.899-16.724,48.457-17.959,73.701c-14.588-55.161,33.18-104.716,60.085-148.322c0.59-0.952-0.486-2.278-1.537-1.876
	c-11.017,4.171-20.033,11.878-27.581,21.137c5.271-8.032,9.544-16.532,11.275-26.166c0.194-1.074-0.972-2.06-1.972-1.407
	c-13.598,8.869-24.117,20.855-32.383,34.547c9.803-20.056,20.271-39.976,27.35-61.186c0.343-1.046-1.095-2.076-1.973-1.411
	c-35.007,26.574-49.537,70.802-61.662,111.658c1.283-56.7,48.74-94.118,73.584-141.901c0.496-0.951-0.426-2.316-1.539-1.881
	c-23.281,9.221-39.567,29.102-51.824,50.228c-11.139,19.205-19.112,40.234-25.509,61.524c1.509-12.605,5.278-24.864,9.916-36.701
	c5.322-13.562,11.743-27.591,19.923-39.684c13.106-19.385,39.395-34.043,43.022-58.793c0.175-1.181-0.919-1.921-1.972-1.415
	c-35.936,17.46-49.354,59.358-65.975,92.961c-5.731-23.604,7.53-45.632,21.447-64.014c13.44-17.757,30.156-33.691,40.677-53.499
	c0.538-1.014-0.438-2.204-1.537-1.878C60.336,16.298,36.708,52.281,27.973,90.023c1.23-25.81,2.845-51.675-2.176-77.201
	c-0.184-0.931-1.628-1.276-2.208-0.53c-31.18,40.248-4.955,91.738,2.161,135.885C-4.65,118.862-4.009,73.643-11.894,34.734
	c-0.287-1.455-2.141-0.987-2.537,0.088c-8.625,23.453-3.044,48.416,5.255,71.116c8.596,23.536,21.065,45.406,30.336,68.646
	c-33.487-26.262-42.526-70.099-58.906-107.426c-0.505-1.164-2.18-1.273-2.538,0.09c-6.153,23.396,6.434,45.608,19.219,64.328
	c13.975,20.467,33.161,39.941,41.267,63.827c-33.765-13.408-44.631-49.489-64.651-76.841c-0.713-0.963-2.608-0.691-2.439,0.735
	c2.528,21.34,13.092,38.671,27.527,54.14c14.555,15.598,31.303,29.061,43.148,46.948c-29.9-12.122-46.135-41.485-71.809-59.789
	c-0.816-0.582-2.01,0.291-1.935,1.206c1.538,18.249,15.815,31.436,29.321,42.168c14.852,11.804,32.571,21.532,45.314,35.839
	c-27.217-10.939-48.617-31.456-74.451-45.034c-0.981-0.515-2.271,0.434-1.883,1.538c6.087,17.372,22.688,28.299,37.785,37.29
	c17.37,10.35,36.72,18.408,52.599,31.115c-37.667-1.395-60.161-39.679-95.847-47.719c-1.014-0.226-2.15,1.039-1.411,1.973
	c25.84,32.36,69.447,38.286,100.356,63.687c-28.271-6.297-50.748-27.287-79.225-33.228c-1.09-0.227-2.043,0.996-1.411,1.973
	c14.621,22.688,44.094,28.659,67.833,39.299c-19.452-3.501-37.992-11.078-57.658-13.658c-0.988-0.137-1.805,0.641-1.545,1.655
	c1.76,6.963,8.26,11.068,14.312,14.041c9.738,4.778,20.621,7.308,31.124,9.747c12.37,2.867,24.862,5.172,37.247,7.973
	c10.336,2.334,21.371,4.735,30.57,10.215c0.841,0.494,2.016-0.242,1.937-1.214c-3.852-47.726,37.166-82.676,59.004-120.71
	c0.547-0.952-0.463-2.296-1.538-1.88c-38.549,14.935-48.654,60.758-61.161,96.425c0.249-46.737,35.374-85.552,65.563-117.925
	C147.756,174.425,146.812,172.791,145.543,173.207z M51.627,252.438c-0.048-11.7,2.033-23.274,5.128-34.616
	c3.656-13.417,8.611-27.045,15.843-38.968c4.902-8.092,11.085-15.692,17.007-23.457c-5.581,8.773-10.229,18.135-14.246,26.816
	C65.007,204.565,57.223,228.389,51.627,252.438z"/>
<path fill="#805E8E" d="M200.325,188.046c-2.026,3.194-5.107,5.341-8.611,6.513c-0.567-3.876-0.224-7.776,0.396-11.665
	c0.345-2.13-2.935-2.871-3.276-0.724c-0.74,4.592-1.05,9.157-0.265,13.715c-0.117,0.214-0.18,0.444-0.18,0.7
	c-0.083,0.088-0.176,0.161-0.248,0.282c-0.42,0.771-0.789,1.571-1.203,2.349c-1.953-1.894-3.592-4.072-4.522-6.68
	c-0.728-2.04-3.942-1.055-3.212,0.989c1.24,3.473,3.46,6.356,6.146,8.788c-0.688,1.351-1.415,2.681-2.073,4.049
	c-2.539-2.102-3.948-5.168-4.645-8.369c-0.451-2.119-3.659-1.109-3.211,0.992c0.905,4.187,2.977,7.876,6.381,10.449
	c-0.007,0.062-0.007,0.125-0.014,0.187c-0.81,1.757-1.644,3.515-2.405,5.296c-2.738-2.022-4.741-4.82-5.789-8.101
	c-0.658-2.066-3.871-1.075-3.21,0.993c1.351,4.22,4.028,7.771,7.655,10.252c-0.833,2.033-1.65,4.083-2.425,6.144
	c-2.911-2.209-4.902-5.205-5.307-8.985c-0.23-2.144-3.586-2.016-3.358,0.142c0.562,5.205,3.331,9.205,7.497,12.1
	c-0.565,1.568-1.162,3.125-1.686,4.706c-4.733-1.278-7.834-5.154-9.667-9.809c-0.789-2.009-4.003-1.03-3.211,0.988
	c2.194,5.589,6.07,10.488,11.858,12.038c-0.627,1.971-1.306,3.925-1.874,5.909c-4.458-2.202-7.831-5.875-9.717-10.536
	c-0.799-2.002-4.017-1.023-3.203,0.989c2.287,5.685,6.362,10.395,11.993,12.892c-0.44,1.644-0.886,3.29-1.296,4.944
	c-4.926-1.523-8.771-5.103-10.853-10.005c-0.837-1.981-4.055-1.007-3.207,0.992c2.536,5.978,7.184,10.55,13.313,12.326
	c-0.338,1.492-0.704,2.98-1.014,4.483c-5.344-1.989-9.357-6.205-11.79-11.473c-0.902-1.968-3.749-0.166-2.853,1.77
	c2.804,6.086,7.742,10.897,14.016,13.048c-0.311,1.63-0.641,3.249-0.916,4.876c-5.658-0.435-10.72-7.442-13.186-11.714
	c-1.086-1.882-3.932-0.098-2.857,1.77c3.036,5.271,8.79,12.613,15.521,13.341c-0.205,1.374-0.457,2.746-0.637,4.12
	c-5.347-1.1-10.142-5.513-13.563-9.487c-1.416-1.644-3.697,0.822-2.305,2.449c3.845,4.461,9.439,9.347,15.483,10.394
	c-0.196,1.737-0.44,3.459-0.594,5.199c-5.994-1.605-11.823-7.324-15.248-12.245c-1.233-1.776-4.094-0.006-2.86,1.775
	c3.983,5.723,10.509,11.951,17.455,13.771c0.151,0.041,0.275,0.021,0.409,0.024c-0.141,1.998-0.348,3.993-0.431,5.995
	c-0.041-0.018-0.059-0.046-0.1-0.06c-3.125-1.085-5.86-3.583-8.349-5.675c-3.417-2.872-6.655-6.065-9.488-9.529
	c-1.35-1.656-4.216,0.104-2.855,1.771c5.112,6.246,12.117,13.987,19.972,16.717c0.27,0.093,0.51,0.109,0.733,0.076
	c-0.023,0.991-0.068,1.987-0.075,2.979c-7.537-2.137-14.707-6.815-20.567-11.801c-1.651-1.402-3.952,1.04-2.306,2.446
	c6.54,5.562,14.437,10.656,22.846,12.838c0.021,2.164,0.059,4.32,0.145,6.48c-9.664-2.901-18.477-8.428-23.772-17.23
	c-1.119-1.86-3.965-0.079-2.853,1.771c5.86,9.746,15.721,15.827,26.467,18.908c0.093,0.192,0.225,0.354,0.39,0.489
	c0.064,1.105,0.11,2.208,0.199,3.313c0.169,2.153,3.521,2.019,3.349-0.146c-0.079-1.074-0.113-2.152-0.168-3.23
	c8.575-1.475,16.134-5.42,22.817-11.087c1.653-1.399-0.812-3.684-2.446-2.306c-5.975,5.068-12.875,8.672-20.555,10.037
	c-0.075-2.296-0.109-4.596-0.109-6.895c7.938-0.555,15.6-3.617,22.352-7.7c1.861-1.124,0.084-3.972-1.774-2.856
	c-6.231,3.766-13.261,6.619-20.564,7.187c0.015-0.84-0.019-1.69,0.008-2.535c7.276-1.062,14.125-3.438,20.655-6.835
	c1.933-1.003,0.134-3.85-1.776-2.856c-5.933,3.087-12.182,5.277-18.775,6.288c0.097-2.236,0.217-4.463,0.386-6.694
	c0.283,0.344,0.707,0.589,1.289,0.575c6.188-0.125,12.016-1.753,17.643-4.276c1.953-0.878,0.982-4.093-0.991-3.207
	c-5.368,2.404-10.882,4.004-16.794,4.124c-0.402,0.007-0.691,0.147-0.934,0.337c0.125-1.461,0.217-2.932,0.379-4.389
	c6.953,0.917,13.754,0.448,20.441-1.905c2.036-0.717,1.058-3.927-0.996-3.207c-6.238,2.193-12.534,2.639-19.028,1.757
	c0.245-1.909,0.431-3.824,0.724-5.729c0.129,0.045,0.244,0.1,0.396,0.113c8.455,0.695,16.424-1.487,23.497-6.133
	c1.812-1.188,0.034-4.041-1.777-2.853c-6.564,4.311-13.758,6.224-21.575,5.641c0.213-1.266,0.413-2.525,0.652-3.787
	c6.666,1.052,12.783-0.665,18.08-4.878c1.678-1.337-0.086-4.203-1.778-2.856c-4.479,3.565-9.475,5.244-15.11,4.511
	c-0.12-0.139-0.273-0.263-0.463-0.352c0.343-1.637,0.735-3.264,1.106-4.89c0.107,0.018,0.193,0.062,0.311,0.06
	c5.202-0.118,9.991-1.747,14.702-3.859c1.955-0.875,0.98-4.094-0.993-3.207c-4.258,1.907-8.555,3.424-13.24,3.645
	c0.427-1.67,0.874-3.331,1.344-4.988c6.681-0.142,12.971-1.888,18.742-5.285c1.867-1.1,0.09-3.948-1.777-2.856
	c-4.962,2.925-10.284,4.403-15.977,4.689c0.462-1.547,0.913-3.094,1.402-4.631c5.81,1.537,11.693,0.12,16.771-3.08
	c1.837-1.157,0.059-4.01-1.777-2.855c-4.176,2.635-8.751,3.848-13.468,2.872c0-0.316-0.052-0.62-0.244-0.867
	c0.527-1.544,1.103-3.073,1.674-4.596c6.354,0.719,12.326-0.693,18.019-3.797c1.909-1.037,0.114-3.884-1.781-2.853
	c-4.759,2.59-9.732,3.872-15.024,3.431c0.724-1.86,1.461-3.714,2.229-5.554c5.854,2.467,12.124,1.351,17.513-2.164
	c1.818-1.185,0.041-4.038-1.779-2.853c-4.502,2.937-9.529,3.97-14.397,1.93c0.687-1.584,1.334-3.201,2.061-4.771
	c4.444,1.037,9.023-0.276,12.854-2.705c1.834-1.165,0.055-4.014-1.771-2.853c-2.946,1.867-6.216,2.891-9.571,2.408
	c0.724-1.495,1.434-2.994,2.19-4.466c0.944,0.114,1.833-0.591,2.006-1.405c3.486,0.2,6.712-0.795,9.667-2.925
	c1.75-1.265-0.017-4.123-1.777-2.856c-2.325,1.678-4.724,2.562-7.436,2.464c0.136-0.255,0.263-0.506,0.4-0.758
	c0.354-0.135,0.669-0.372,0.89-0.687c4.746-1.305,8.802-4.275,11.458-8.468C204.458,187.786,201.476,186.228,200.325,188.046z"/>
<path fill="#805E8E" d="M367.267,222.279c-4.659,2.077-9.439,3.855-13.92,6.251c2.526-2.855,5.201-5.562,8.134-8.016
	c1.147-0.96-0.55-2.554-1.681-1.603c-2.109,1.769-4.092,3.665-5.981,5.646c1.738-3.646,3.501-7.28,5.716-10.681
	c0.823-1.254-1.229-2.338-2.047-1.095c-2.539,3.893-4.483,8.092-6.474,12.277c0.558-3.45,0.962-6.927,1.113-10.419
	c0.073-1.493-2.251-1.397-2.319,0.086c-0.206,4.598-0.842,9.165-1.748,13.672c-1.035-5.032-1.424-10.157-1.734-15.304
	c-0.092-1.492-2.414-1.416-2.324,0.083c0.409,6.703,0.914,13.352,2.763,19.833c0.064,0.241,0.195,0.398,0.341,0.515
	c-3.351,9.607-6.969,19.114-10.395,28.699c-1.543-14.335-5.738-28.327-10.707-41.817c0-0.008,0.003-0.018,0.007-0.031
	c0.082-0.147,0.13-0.323,0.141-0.508c3.429-6.968,5.429-14.195,4.697-22.057c-0.141-1.48-2.456-1.411-2.315,0.084
	c0.48,5.228-0.286,10.085-1.883,14.799c0.491-5.396,0.154-10.852-0.64-16.236c-0.213-1.467-2.536-1.399-2.316,0.084
	c0.777,5.275,1.124,10.608,0.653,15.895c-0.969-5.502-2.834-10.823-5.467-15.77c-0.704-1.326-2.681-0.099-1.983,1.215
	c1.926,3.609,3.434,7.438,4.447,11.39c-2.543-3.284-5.711-6.165-8.845-8.97c-1.117-0.999-2.718,0.684-1.604,1.682
	c4.429,3.961,8.96,8.016,11.436,13.317c-4.186-4.512-9.622-7.865-15.789-8.712c-1.471-0.204-2,2.059-0.511,2.264
	c5.771,0.794,10.84,3.878,14.726,8.097c-5.497-1.613-11.369-2.233-17.032-1.878c-1.491,0.093-1.412,2.411,0.086,2.32
	c6.535-0.412,13.469,0.489,19.604,2.89c0.04,0.058,0.082,0.112,0.122,0.167c0.027,0.151,0.086,0.292,0.169,0.417
	c4.91,13.3,9.105,27.103,10.665,41.239c-3.604-3.184-7.47-6.113-11.201-9.12c-0.089-0.216-0.21-0.411-0.396-0.55
	c-1.027-4.973-2.591-9.738-4.669-14.37c-0.612-1.367-2.581-0.131-1.979,1.217c1.42,3.162,2.554,6.416,3.449,9.742
	c-2.531-2.657-5.025-5.341-7.273-8.25c-0.903-1.173-2.89,0.034-1.979,1.215c2.69,3.478,5.696,6.663,8.729,9.843
	c-3.87-1.79-7.7-3.64-11.442-5.667c-1.32-0.711-2.417,1.331-1.1,2.044c3.175,1.718,6.412,3.299,9.676,4.831
	c-3.103-0.007-6.186-0.303-9.257-0.99c-1.464-0.328-1.979,1.936-0.512,2.267c3.064,0.687,6.15,1.004,9.257,1.044
	c-2.553,1.051-5.205,1.855-7.986,2.322c-1.47,0.247-0.783,2.468,0.674,2.22c4.643-0.779,8.972-2.449,13.025-4.77
	c0.079-0.011,0.148-0.011,0.225-0.021c0.144-0.012,0.247-0.075,0.354-0.129c4.116,3.291,8.369,6.509,12.24,10.077
	c2.03,8.109,1.68,16.494,1.418,24.812c-0.656-0.668-1.326-1.333-2.037-1.938c-0.007-0.011-0.018-0.011-0.027-0.014
	c-3.34-3.003-6.461-6.233-9.701-9.336c-1.573-4.223-3.521-8.277-5.944-12.084c-0.807-1.262-2.786-0.045-1.982,1.216
	c1.394,2.182,2.615,4.445,3.705,6.773c-2.698-2.365-5.649-4.424-8.741-6.274c-1.282-0.767-2.375,1.282-1.101,2.047
	c2.69,1.608,5.24,3.392,7.614,5.391c-2.852-1.126-5.841-1.971-8.741-2.711c-1.45-0.37-1.962,1.891-0.513,2.265
	c3.275,0.836,6.652,1.77,9.783,3.169c-2.834,0.653-5.67,1.305-8.508,1.938c-1.464,0.326-0.779,2.546,0.671,2.223
	c3.665-0.814,7.322-1.663,10.978-2.504c0.168,0.106,0.354,0.178,0.519,0.29c0.202,0.126,0.393,0.171,0.574,0.174
	c0.196,0.281,0.485,0.418,0.79,0.46c3.065,2.962,6.035,6.021,9.219,8.859c0.018,0.013,0.039,0.017,0.057,0.026
	c1.157,1,2.263,2.075,3.232,3.258c0.021,0.026,0.052,0.026,0.072,0.048c-0.017,0.818-0.041,1.636-0.045,2.443
	c-0.007,0.441,0.207,0.725,0.484,0.896c0.031,1.893,0.065,3.783,0.097,5.68c0.021,1.498,2.343,1.412,2.322-0.081
	c-0.071-4.225-0.137-8.427-0.192-12.622c3.195-5.734,6.483-11.435,9.474-17.287c0.134,0.072,0.259,0.147,0.433,0.158
	c5.401,0.261,10.391-1.475,15.071-4.041c1.315-0.725,0.093-2.698-1.213-1.982c-3.11,1.711-6.333,2.976-9.748,3.478
	c3.006-1.636,5.886-3.484,8.642-5.559c1.186-0.892-0.018-2.882-1.218-1.98c-2.312,1.742-4.724,3.34-7.222,4.79
	c2.502-3.03,4.639-6.35,6.535-9.823c0.715-1.32-1.333-2.413-2.048-1.1c-1.848,3.391-3.924,6.607-6.36,9.542
	c0.814-3.392,1.203-6.842,1-10.391c-0.086-1.495-2.409-1.414-2.322,0.089c0.243,4.195-0.393,8.219-1.595,12.185
	c-0.433-4.138-1.172-8.372-2.711-12.181c-0.557-1.378-2.782-0.72-2.224,0.669c1.773,4.401,2.485,9.318,2.856,14.026
	c0.021,0.278,0.141,0.468,0.292,0.618c-2.434,4.784-5.068,9.457-7.697,14.134c-0.056-6.866-0.027-13.729,0.247-20.639
	c0.06-0.088,0.12-0.171,0.163-0.284c3.592-10.112,7.435-20.129,10.956-30.262c0.11-0.075,0.221-0.147,0.33-0.223
	c0.097,0.003,0.192,0.021,0.296,0c4.807-0.939,9.703-1.637,14.603-1.691c1.498-0.018,1.413-2.339-0.082-2.323
	c-3.188,0.043-6.364,0.368-9.521,0.833c4.138-2.146,8.522-3.809,12.804-5.719C369.288,223.903,368.634,221.667,367.267,222.279z"/>
<g>
	<path fill="#3E3795" d="M289.729,231.937c-2.308-4.963-8.443-5.195-12.34-2.125c-0.221,0.174-0.349,0.383-0.438,0.598
		c-3.104,2.641-5.027,7.215-2.007,10.742c0.573,0.666,1.265,1.181,1.994,1.616c-6.428,9.328-13.455,18.236-20.6,27.022
		c0.267-4.298,0.459-8.602,0.481-12.887c0.25-0.098,0.48-0.249,0.665-0.51c8.426-12.109,14.016-26.008,18.729-39.919
		c2.735,0.752,5.893,0.23,8.246-1.356c3.332-2.246,4.803-7.116,3.043-10.766c-2.647-5.466-9.308-5.461-13.818-2.426
		c-0.469,0.312-0.626,0.754-0.607,1.193c-2.781,2.802-3.684,6.751-1.243,10.308c0.519,0.759,1.178,1.343,1.889,1.835
		c-0.05,0.095-0.12,0.163-0.149,0.262c-4.313,12.759-9.445,25.494-16.805,36.833c-0.174-8.965-1.008-17.832-2.873-26.483
		c0.943-0.312,1.895-0.775,2.801-1.482c3.385-2.643,3.664-7.28,1.676-10.842c-2.843-5.107-9.049-4.94-13.638-2.623
		c-0.565,0.289-0.735,0.764-0.676,1.232c-5.418,6.013,0.341,14.009,7.048,14.138c3.147,14.298,3.424,29.216,2.456,44.159
		c-0.899-1.738-1.815-3.47-2.755-5.189c0.191-0.295,0.262-0.679,0.078-1.124c-4.246-10.338-8.818-20.535-13.336-30.764
		c1.468-11.697,2.925-23.427,2.806-35.239c0.445-0.041,0.896-0.117,1.332-0.255c3.518-1.09,6.35-5.595,4.72-9.122
		c-1.599-3.451-6.092-4.876-9.634-4.343c-0.171,0.029-0.315,0.093-0.455,0.162c-0.485-0.243-1.085-0.226-1.58,0.277
		c-2.613,2.675-3.188,6.358-1.304,9.626c0.922,1.587,2.416,2.744,4.099,3.307c0.142,10.244-0.942,20.407-2.192,30.561
		c-3.949-9.017-7.818-18.068-11.316-27.283c0.142-0.11,0.301-0.203,0.445-0.318c3.084-2.704,2.949-8.137-0.244-10.604
		c-3.293-2.561-8.571-2.219-11.895,0.086c-0.51-0.081-1.02,0.122-1.285,0.754c-1.645,3.966-0.695,7.726,2.847,10.21
		c2.207,1.546,5.085,1.917,7.604,1.151c7.951,20.826,17.695,40.887,26.207,61.476c-0.276,0.399-0.374,0.921-0.08,1.465
		c1.921,3.521,3.809,7.054,5.525,10.685c-0.083,0.979-0.2,1.952-0.294,2.932c-0.614-0.649-1.219-1.315-1.761-2.033
		c-0.14-0.179-0.302-0.313-0.476-0.406c-0.047-0.156-0.11-0.312-0.235-0.474c-12.242-15.724-32.211-31.586-35.491-52.291
		c1.387-0.37,2.689-1.059,3.683-2.153c2.716-2.983,2.026-7.957-0.26-10.935c-3.339-4.338-8.96-3.261-12.343,0.365
		c-0.525,0.562-0.448,1.222-0.111,1.709c-1.271,2.79-1.236,6.144,0.848,8.64c1.355,1.634,3.344,2.484,5.392,2.641
		c3.435,21.33,23.275,37.32,35.876,53.5c0.14,0.186,0.306,0.318,0.476,0.411c0.044,0.157,0.107,0.313,0.232,0.476
		c1.144,1.488,2.427,2.838,3.758,4.164c0.015,0.018,0.039,0.023,0.056,0.041c-1.209,11.722-2.891,23.368-4.34,34.632
		c-0.233,1.79,2.518,2.432,2.753,0.626c1.705-13.246,3.757-27.006,4.942-40.818c0.309-0.411,0.446-0.967,0.18-1.533
		c-0.018-0.036-0.034-0.07-0.052-0.105c0.029-0.323,0.04-0.648,0.063-0.973c0.18-0.075,0.36-0.197,0.517-0.389
		c8.011-9.811,15.905-19.741,23.083-30.195c2.49,0.498,5.194-0.052,7.211-1.742C289.671,239.699,291.366,235.458,289.729,231.937z
		 M275.688,204.504c0.283-0.214,0.425-0.487,0.503-0.77c3.021-1.57,6.743-1.646,8.683,1.639c1.427,2.42,0.147,5.732-1.895,7.337
		C277.186,217.286,269.269,209.433,275.688,204.504z M246.67,213.458c0.159-0.151,0.27-0.313,0.339-0.474
		c3.059-1.298,6.446-1.305,8.655,1.58c1.683,2.2,1.532,5.229-0.302,7.256C250.181,227.525,240.732,219.046,246.67,213.458z
		 M222.42,198.799c-1.646,1.686-4.573,1.257-6.464,0.336c-2.517-1.232-3.398-3.765-2.588-6.29c0.121-0.045,0.243-0.074,0.37-0.167
		c2.183-1.541,5.184-1.923,7.685-0.921C224.427,192.962,224.515,196.657,222.42,198.799z M235.845,193.008
		c-1.254-1.946-0.788-4.129,0.591-5.792c0.138,0.023,0.274,0.053,0.438,0.023c2.283-0.342,5.1,0.162,6.604,2.08
		c1.754,2.234-0.702,5.274-2.93,5.959C238.67,195.858,236.809,194.502,235.845,193.008z M208.974,219.667
		c-2.271-2.288-1.012-6.058,0.986-7.976c0.153-0.145,0.246-0.301,0.315-0.457c2.004-1.002,4.269-0.916,5.901,1.217
		c1.452,1.887,1.764,4.639,0.634,6.74C215.31,221.989,210.925,221.629,208.974,219.667z M285.536,239.466
		c-1.942,2.074-4.862,2.131-7.266,0.875c-3.37-1.767-1.928-5.896,0.42-7.772c0.188-0.145,0.317-0.324,0.408-0.51
		c2.617-1.916,6.203-2.234,8.03,0.943C288.343,235.111,286.998,237.903,285.536,239.466z"/>
	<path fill="#BF4C62" d="M214.37,213.886c-0.345-0.196-0.692-0.417-1.065-0.556c-0.544-0.209-1.043-0.121-1.42,0.12
		c0.007-0.016,0.012-0.033,0.024-0.052c-0.047,0.029-0.076,0.065-0.113,0.093c-0.02,0.012-0.037,0.029-0.062,0.047
		c-0.038,0.034-0.07,0.063-0.111,0.098c-0.271,0.133-0.492,0.365-0.651,0.639c-0.551,0.684-0.817,1.523-0.392,2.455
		c0.041,0.093,0.119,0.145,0.174,0.22c0.255,0.51,0.773,0.88,1.335,0.956c1.969,0.289,3.028-1.043,3.028-2.827
		C215.116,214.575,214.79,214.13,214.37,213.886z"/>
	<path fill="#BF4C62" d="M221.599,195.515c-0.262-0.77-1.021-1.99-1.939-2.188c-0.471-0.318-1.073-0.387-1.514-0.034
		c-0.559,0.081-1.017,0.295-1.458,0.794c-0.394,0.271-0.64,0.618-0.686,1.169c-0.046,0.625,0.471,1.257,1.085,1.778
		c0.331,0.423,0.76,0.747,1.318,0.933c0.039,0.018,0.076,0.045,0.105,0.063c0.267,0.155,0.556,0.162,0.847,0.115
		c0.077,0.006,0.142,0.035,0.219,0.04c0.716,0.036,1.122-0.381,1.256-0.902c0.154-0.127,0.309-0.244,0.435-0.389
		C221.599,196.529,221.757,195.996,221.599,195.515z"/>
	<path fill="#BF4C62" d="M252.575,217.563c0.069-0.556-0.012-1.11-0.487-1.563c-0.438-0.416-0.987-0.492-1.54-0.434
		c-0.451-0.082-0.863,0.04-1.166,0.307c-0.029,0.012-0.059,0.018-0.078,0.022c-0.282,0.115-0.471,0.296-0.62,0.499
		c-0.44,0.203-0.77,0.62-0.735,1.262c0.104,2.011,1.434,3.069,3.412,2.532c0.246-0.065,0.427-0.192,0.574-0.337
		c0.173-0.121,0.322-0.284,0.433-0.521C252.663,218.68,252.692,218.102,252.575,217.563z"/>
	<path fill="#BF4C62" d="M284.532,234.082c-0.154-0.546-0.594-0.998-1.338-0.945c-0.679,0.04-1.264,0.232-1.738,0.521
		c-0.417,0.011-0.816,0.226-1.042,0.753c-0.388,0.898-0.388,1.68-0.114,2.264c0,0.019,0,0.029,0.007,0.048
		c0.166,0.718,0.71,0.995,1.271,0.973c0.434,0.104,0.955,0.098,1.546-0.029c0.203-0.047,0.359-0.122,0.499-0.215
		c0.507-0.081,0.984-0.388,1.176-1.007C285.11,235.435,284.987,234.614,284.532,234.082z"/>
	<path fill="#BF4C62" d="M282.22,208.14c0.068-0.3,0.02-0.643-0.242-0.983c-1.338-1.772-3.422-2.108-4.563,0.069
		c-0.373,0.707-0.093,1.344,0.399,1.714c0.626,1.703,2.351,1.803,3.88,0.863C282.366,209.393,282.447,208.708,282.22,208.14z"/>
	<path fill="#BF4C62" d="M241.733,190.385c-0.614-1.031-1.685-1.379-2.843-1.198c-0.018,0-0.025,0.011-0.039,0.016
		c-0.321-0.005-0.645,0.11-0.935,0.424c-0.511,0.544-0.705,1.146-0.604,1.731c-0.088,0.318-0.036,0.677,0.251,1.036
		c0.938,1.193,2.032,1.453,3.357,0.644c0.055-0.041,0.081-0.087,0.13-0.127c0.51-0.267,0.889-0.806,0.84-1.431
		C241.989,191.15,241.969,190.773,241.733,190.385z"/>
</g>
</svg>
