<?xml version="1.0" encoding="utf-8"?>
<!-- Generator: Adobe Illustrator 16.0.0, SVG Export Plug-In . SVG Version: 6.00 Build 0)  -->
<!DOCTYPE svg PUBLIC "-//W3C//DTD SVG 1.1//EN" "http://www.w3.org/Graphics/SVG/1.1/DTD/svg11.dtd">
<svg version="1.1" xmlns="http://www.w3.org/2000/svg" xmlns:xlink="http://www.w3.org/1999/xlink" x="0px" y="0px" width="36px"
	 height="36px" viewBox="0 0 36 36" enable-background="new 0 0 36 36" xml:space="preserve">
<g id="grid">
</g>
<g id="Layer_1">
	<g>
		<g>
			<path fill="#2A2828" d="M22.381,10.371c1.415,1.537,2.766,3.178,4.072,4.878c-6.605,0.531-13.271-0.386-19.898-0.367
				c-0.723,0.002-1.238,0.995-1.155,1.896c0.091,1.014,0.757,1.62,1.478,1.618c6.41-0.019,12.854,0.839,19.248,0.414
				c-1.645,2.374-3.27,4.771-5.223,6.716c-1.338,1.335,0.266,4.23,1.607,2.892c2.926-2.917,5.18-6.771,7.748-10.188
				c0.188-0.253,0.273-0.589,0.279-0.94c0.197-0.699-0.026-1.451-0.445-2.03c-1.934-2.67-3.941-5.255-6.103-7.601
				C22.639,6.194,21.025,8.902,22.381,10.371z"/>
		</g>
	</g>
</g>
</svg>
