<?xml version="1.0" encoding="utf-8"?>
<!-- Generator: Adobe Illustrator 16.0.0, SVG Export Plug-In . SVG Version: 6.00 Build 0)  -->
<!DOCTYPE svg PUBLIC "-//W3C//DTD SVG 1.1//EN" "http://www.w3.org/Graphics/SVG/1.1/DTD/svg11.dtd">
<svg version="1.1" id="Layer_1" xmlns="http://www.w3.org/2000/svg" xmlns:xlink="http://www.w3.org/1999/xlink" x="0px" y="0px"
	 width="388px" height="61.515px" viewBox="0 0 388 61.515" enable-background="new 0 0 388 61.515" xml:space="preserve">
<g>
	<path fill="#E03254" d="M188.886,30.626c-0.096-0.772-0.197-1.55-0.293-2.323c-0.364-2.79-1.242-13.251-1.704-15.107
		c-0.399-1.548-2.897-1.805-2.991,0.027c-0.131,2.321,0.668,4.482,0.27,7.071c-0.404,1.316-1.266,2.339-2.863,2.604
		c-4.578,0.729-3.797-8.155-3.467-10.321c0.305-1.928-2.7-2.276-2.997-0.36c-0.702,4.608-0.439,13.812,6.345,13.677
		c1.508-0.028,2.678-0.499,3.582-1.246c0.365,2.28,0.773,4.564,1.115,6.806c-1.399,0.652-2.807,1.7-4.184,3.202
		c-4.754,5.158-10.104,16.196-4.436,22.492c2.021,2.245,6.461,3.454,9.148,1.845c3.47-2.079,3.576-7.583,3.678-11.085
		c0.152-4.883-0.297-9.791-0.877-14.665c2.65-0.224,5.354,1.704,7.622,7.162c0.741,1.799,3.508,0.596,2.755-1.204
		C197.317,33.69,193.306,30.275,188.886,30.626z M182.165,56.483c-7.573-1.133-2.709-17.65,4.115-22.143
		c0.023,0.199,0.053,0.385,0.066,0.582C186.84,39.291,190.032,57.662,182.165,56.483z"/>
	<path fill="#E03254" d="M7.861,4.123L7.604,49.789c0,0,5.215,0,6.592,0c1.123,0,2.221,0.25,2.201,2.605
		c-0.03,2.363-2.676,2.038-6.708,2.055c-6.085,0.031-6.805,1.536-6.698-5.422C3.087,42.068,3.509,3.584,3.509,3.584
		s-0.303-2.417,2.149-2.44C8.104,1.125,7.861,4.123,7.861,4.123z"/>
	<g>
		<path fill="#E03254" d="M37.865,8.227c-3.313,0-12.854,3.606-12.854,15.683c0,18.357,13.297,17.725,14.074,17.725
			c0.781,0,12.487,0.435,12.604-15.131C51.798,10.946,43.591,7.603,37.865,8.227z M40.39,36.937
			c-2.957,0.354-9.348,0.83-10.787-9.124c-1.547-10.691,4.918-14.473,7.357-14.961c1.788-0.362,8.336-0.845,9.832,8.297
			C48.929,34.249,44.346,36.467,40.39,36.937z"/>
	</g>
	<g>
		<path fill="#E03254" d="M79.434,23.425c0,0,5.302-1.83,4.841-10.157C83.595,0.932,70.968,0.894,68.026,1.021
			c-2.391,0.104-3.089,2.371-2.941,4.543c0.134,2.17,1.123,32.804,1.168,41.484c0.035,8.694,1.333,7.128,5.731,7.371
			c4.39,0.247,19.716,0.402,19.962-12.78C92.199,28.455,79.434,23.425,79.434,23.425z M69.865,5.659c0,0,8.526,0.101,9.646,7.771
			c1.122,7.668-9.027,8.181-9.027,8.181L69.865,5.659z M71.092,49.847l-0.608-22.864c0,0,14.939-1.362,16.75,13.855
			C88.517,51.642,71.092,49.847,71.092,49.847z"/>
	</g>
	<g>
		<path fill="#E03254" d="M142.593,28.508c-0.764-19.974-12.955-23.085-17.835-23.108c-4.815-0.021-19.343,5.002-18.806,23.158
			c0.529,18.149,10.723,23.199,18.806,23.15C132.84,51.659,143.356,48.48,142.593,28.508z M125.577,46.536
			c-4.875-0.102-15.949-2.734-14.645-18.717c1.303-15.986,11.406-17.049,13.104-16.853c4.182,0.49,12.274,0.471,13.473,16.774
			C138.714,44.042,130.444,46.645,125.577,46.536z"/>
	</g>
	<g>
		<path fill="#E03254" d="M309.767,25.8c-0.33-17.864-10.016-20.4-16.418-20.4c-5.566,0-16.143,5.996-16.127,20.4
			c0.018,16.228,9.271,20.681,16.502,20.644C300.937,46.397,310.101,43.427,309.767,25.8z M293.968,41.38
			c-4.363-0.093-12.842-3.526-11.988-16.121c0.98-14.298,10.256-14.931,11.775-14.755c3.74,0.437,9.916,0.29,10.988,14.863
			C305.825,39.938,298.321,41.477,293.968,41.38z"/>
	</g>
	<g>
		<path fill="#E03254" d="M385.284,28.938c-0.662-15.364-8.414-17.779-13.723-17.779c-4.621,0-14.803,3.853-14.395,17.818
			c0.412,13.967,7.65,17.326,13.861,17.544C378.925,46.809,385.888,42.765,385.284,28.938z M372.253,41.876
			c-3.75-0.083-10.623-0.846-10.281-13.135c0.342-12.335,7.809-12.927,9.109-12.769c3.221,0.373,9.289,0.204,9.75,12.769
			C381.226,39.676,376.005,41.96,372.253,41.876z"/>
	</g>
	<path fill="#E03254" d="M231.87,3.695l14.445,19.646c0,0,10.789-10.827,15.664-18.725c1.396-2.27,4.803-1.618,4.65,2.298
		c-0.148,3.966-0.273,35.669-0.273,38.9c0,3.238-0.188,4.433-2.154,4.643c-1.971,0.206-2.734-0.751-2.668-7.096
		c0.076-6.346,0.766-30.435,0.766-30.435s-3.875,4.548-8.055,9.079c-3.1,3.345-6.393,7.055-8.24,7.001
		c-2.164-0.06-5.434-5.098-8.549-9.328c-3.122-4.223-6.076-7.638-6.076-7.638s0.248,34.042,0.248,35.562
		c0,1.519-0.088,3.925-2.762,4.104c-2.672,0.184-1.53-5.137-1.518-6.165c0.023-1.025-0.563-36.258-0.609-38.553
		C226.667,2.496,229.954,1.396,231.87,3.695z"/>
	<path fill="#E03254" d="M320.669,44.193c0,2.241,0.135,3.701,1.926,3.701c1.781,0,2.617-1.271,2.131-9.751
		c-0.502-8.482,0.07-13.126,0.07-13.126s15.324,20.696,19.719,21.97c3.127,0.907,2.867-2.478,2.912-3.862
		c0.09-2.612,0.447-19.175,0.447-21.55c0-2.377,0.16-4.124-1.996-4.184c-2.158-0.062-2.418,2.956-2.266,7.56
		c0.156,4.606-0.102,15.622-0.102,15.622s-8.506-8.975-9.809-10.685c-1.299-1.704-8.447-11.027-9.129-12.04
		c-1.068-1.599-3.686-1.221-3.781,1.472C320.653,22.909,320.669,44.193,320.669,44.193z"/>
</g>
</svg>
