<?xml version="1.0" encoding="utf-8"?>
<!-- Generator: Adobe Illustrator 16.0.0, SVG Export Plug-In . SVG Version: 6.00 Build 0)  -->
<!DOCTYPE svg PUBLIC "-//W3C//DTD SVG 1.1//EN" "http://www.w3.org/Graphics/SVG/1.1/DTD/svg11.dtd">
<svg version="1.1" id="Layer_1" xmlns="http://www.w3.org/2000/svg" xmlns:xlink="http://www.w3.org/1999/xlink" x="0px" y="0px"
	 width="329px" height="333px" viewBox="0 0 329 333" enable-background="new 0 0 329 333" xml:space="preserve">
<g>
	<circle fill="#696F70" cx="167.255" cy="165.629" r="157.717"/>
	<g>
		<path fill="#778184" d="M52.041,54.089c-61.92,61.92-61.92,162.307,0,224.225c54.525,54.528,138.879,61.011,200.527,19.498
			c-1.654-0.484-3.229-1.334-4.535-2.64c-4.15-4.151-4.15-10.881,0-15.026c4.148-4.151,10.879-4.151,15.033,0
			c2.041,2.041,3.066,4.709,3.1,7.387c3.457-2.913,6.846-5.961,10.098-9.219c61.924-61.918,61.918-162.305,0-224.225
			C214.348-7.831,113.957-7.831,52.041,54.089z M162.932,314.674c-0.242,0.243-0.637,0.243-0.875,0
			c-0.246-0.244-0.248-0.638-0.006-0.881c0.244-0.245,0.643-0.245,0.885,0C163.18,314.037,163.18,314.43,162.932,314.674z
			 M186.735,316.475c-0.145,0.147-0.388,0.147-0.535,0c-0.152-0.151-0.152-0.39-0.004-0.542c0.151-0.151,0.395-0.149,0.543,0
			C186.89,316.081,186.89,316.324,186.735,316.475z M233.248,68.173c-1.266-1.271-1.266-3.333,0-4.606
			c1.271-1.271,3.332-1.266,4.602,0c1.271,1.273,1.275,3.331,0,4.606C236.58,69.443,234.52,69.443,233.248,68.173z M180.399,303.095
			c-0.279,0.279-0.731,0.279-1.012-0.003c-0.282-0.276-0.282-0.732,0-1.013c0.28-0.279,0.732-0.279,1.012,0
			C180.685,302.36,180.685,302.816,180.399,303.095z M195.879,307.333c-0.152,0.151-0.394,0.149-0.541,0
			c-0.148-0.148-0.152-0.39,0-0.541c0.151-0.148,0.393-0.146,0.541,0C196.025,306.944,196.03,307.183,195.879,307.333z
			 M206.45,311.433c-0.144,0.148-0.39,0.148-0.538,0c-0.146-0.15-0.146-0.391,0-0.543c0.148-0.15,0.395-0.15,0.543,0
			C206.604,311.042,206.604,311.283,206.45,311.433z M198.949,297.679c-0.375,0.375-0.982,0.375-1.355,0
			c-0.372-0.373-0.372-0.979,0-1.355c0.373-0.371,0.983-0.373,1.355,0C199.324,296.7,199.324,297.306,198.949,297.679z
			 M208.926,300.347c0.104,0.355-0.106,0.727-0.462,0.829c-0.35,0.103-0.722-0.104-0.824-0.46c-0.104-0.353,0.103-0.724,0.457-0.826
			C208.455,299.785,208.823,299.994,208.926,300.347z M220.682,304.38c-0.182,0.186-0.486,0.186-0.674,0
			c-0.189-0.186-0.188-0.49-0.002-0.678c0.186-0.186,0.494-0.186,0.676,0C220.871,303.892,220.871,304.195,220.682,304.38z
			 M215.605,292.804c-0.148,0.147-0.391,0.147-0.539-0.004c-0.15-0.147-0.15-0.39,0-0.537c0.148-0.152,0.391-0.152,0.539,0
			C215.756,292.411,215.756,292.653,215.605,292.804z M230.445,303.986c-0.152,0.15-0.395,0.15-0.543,0
			c-0.15-0.148-0.15-0.39,0-0.541c0.148-0.146,0.391-0.146,0.543,0.002C230.592,303.596,230.592,303.837,230.445,303.986z
			 M224.486,297.353c-0.189,0.183-0.49,0.184-0.68-0.002c-0.186-0.189-0.182-0.492,0-0.674c0.189-0.188,0.49-0.193,0.68-0.005
			C224.672,296.859,224.672,297.166,224.486,297.353z M232.738,295.312c-0.148,0.152-0.391,0.147-0.539,0
			c-0.15-0.149-0.15-0.391-0.004-0.539c0.152-0.15,0.395-0.15,0.545-0.002C232.889,294.919,232.889,295.163,232.738,295.312z
			 M218.992,278.448c-0.371,0.374-0.98,0.374-1.355-0.001c-0.369-0.372-0.369-0.977,0-1.352c0.375-0.375,0.98-0.375,1.355,0
			C219.363,277.47,219.367,278.075,218.992,278.448z M229.289,286.449c-0.254,0.261-0.68,0.261-0.941,0
			c-0.262-0.262-0.262-0.688-0.002-0.947c0.264-0.263,0.686-0.261,0.947,0C229.555,285.765,229.555,286.187,229.289,286.449z
			 M240.598,296.264c-0.146,0.151-0.395,0.151-0.539,0c-0.15-0.147-0.15-0.39,0-0.538c0.148-0.15,0.393-0.15,0.539,0
			C240.752,295.875,240.752,296.117,240.598,296.264z M195.428,246.632c-1.787,1.786-4.688,1.784-6.473,0
			c-1.79-1.791-1.79-4.692-0.006-6.479c1.791-1.788,4.691-1.79,6.479,0C197.219,241.94,197.219,244.843,195.428,246.632z
			 M237.811,280.89c-0.186,0.184-0.49,0.184-0.678-0.005c-0.186-0.185-0.186-0.487,0-0.674c0.188-0.186,0.492-0.186,0.678,0
			C237.998,280.4,237.998,280.703,237.811,280.89z M227.859,270.46c-0.32,0.32-0.834,0.318-1.15,0c-0.318-0.317-0.318-0.831,0-1.15
			c0.32-0.317,0.834-0.316,1.15,0C228.176,269.629,228.176,270.143,227.859,270.46z M226.371,261.864
			c-0.562,0.566-1.471,0.562-2.033,0c-0.562-0.56-0.562-1.468,0-2.029c0.562-0.562,1.471-0.562,2.033,0
			C226.934,260.396,226.934,261.304,226.371,261.864z M300.234,185.453c0.221-0.225,0.588-0.225,0.809,0
			c0.227,0.224,0.227,0.587,0.004,0.812c-0.225,0.226-0.592,0.226-0.812-0.002C300.006,186.04,300.006,185.676,300.234,185.453z
			 M120.354,31.507c1.787-1.789,4.689-1.787,6.479,0c1.785,1.787,1.79,4.686,0,6.477c-1.789,1.789-4.691,1.789-6.479,0
			C118.565,36.193,118.565,33.294,120.354,31.507z M261.949,189.73c0.279-0.281,0.738-0.281,1.016-0.002
			c0.279,0.279,0.279,0.734-0.002,1.018c-0.281,0.277-0.734,0.277-1.014,0C261.666,190.464,261.666,190.009,261.949,189.73z
			 M264.01,196.871c0.303-0.299,0.787-0.299,1.088,0c0.299,0.299,0.299,0.784,0,1.084c-0.299,0.298-0.785,0.298-1.088,0
			C263.715,197.655,263.715,197.169,264.01,196.871z M268.82,204.25c0.371-0.373,0.979-0.373,1.354,0
			c0.373,0.374,0.373,0.981,0,1.355c-0.375,0.375-0.982,0.375-1.354,0C268.443,205.231,268.443,204.624,268.82,204.25z
			 M278.32,215.457c-0.043-0.153,0.043-0.309,0.197-0.354s0.312,0.042,0.357,0.198c0.043,0.15-0.045,0.312-0.201,0.354
			C278.525,215.697,278.363,215.611,278.32,215.457z M249.895,203.812c0.318-0.319,0.834-0.317,1.152-0.002
			c0.314,0.319,0.32,0.832,0,1.153c-0.318,0.317-0.834,0.317-1.152,0C249.578,204.644,249.576,204.131,249.895,203.812z
			 M260.527,214.238c0.146,0.148,0.15,0.389,0,0.539c-0.152,0.15-0.391,0.15-0.545,0c-0.15-0.147-0.15-0.391,0-0.539
			C260.137,214.085,260.379,214.087,260.527,214.238z M195.254,163.181c0.555-0.551,1.446-0.551,1.995,0
			c0.555,0.555,0.555,1.447,0,1.999c-0.549,0.552-1.44,0.552-1.995-0.001C194.704,164.628,194.704,163.732,195.254,163.181z
			 M242.857,231.907c0.279-0.284,0.734-0.28,1.014,0c0.279,0.277,0.281,0.733,0,1.015c-0.279,0.279-0.734,0.279-1.014-0.002
			C242.576,232.64,242.576,232.184,242.857,231.907z M236.152,240.979c0.283-0.284,0.738-0.278,1.018,0
			c0.279,0.279,0.279,0.732,0,1.015c-0.279,0.28-0.734,0.279-1.018,0C235.873,241.711,235.873,241.258,236.152,240.979z
			 M234.359,265.658c-0.223,0.223-0.586,0.224-0.812,0c-0.229-0.228-0.223-0.591,0-0.812c0.227-0.227,0.59-0.229,0.812-0.002
			C234.586,265.067,234.584,265.43,234.359,265.658z M242.695,270.067c-0.148,0.151-0.391,0.149-0.537,0
			c-0.148-0.149-0.152-0.391,0-0.538c0.148-0.152,0.389-0.151,0.541-0.002C242.846,269.676,242.85,269.916,242.695,270.067z
			 M114.391,136.345c-1.786,1.787-4.688,1.789-6.479,0c-1.785-1.787-1.785-4.689,0-6.477c1.791-1.788,4.689-1.788,6.479,0
			C116.178,131.658,116.178,134.555,114.391,136.345z M253.314,270.8c-0.113,0.112-0.295,0.112-0.406,0
			c-0.107-0.11-0.113-0.295,0-0.406c0.115-0.112,0.293-0.111,0.406,0.001C253.426,270.505,253.43,270.69,253.314,270.8z
			 M248.449,263.771c-0.297,0.299-0.779,0.296-1.076-0.002c-0.301-0.3-0.301-0.783,0-1.081c0.297-0.301,0.781-0.303,1.076-0.003
			C248.754,262.984,248.754,263.47,248.449,263.771z M239.303,249.203c-0.299,0.299-0.785,0.299-1.084,0s-0.299-0.786,0-1.086
			c0.299-0.299,0.785-0.299,1.084,0C239.604,248.417,239.604,248.904,239.303,249.203z M262.867,265.726
			c-0.227,0.225-0.59,0.227-0.814,0.002c-0.225-0.226-0.225-0.588,0.004-0.814c0.221-0.221,0.584-0.222,0.811,0.003
			C263.088,265.14,263.088,265.502,262.867,265.726z M254.941,260.464c-0.711,0.708-1.863,0.708-2.57,0
			c-0.715-0.713-0.715-1.863,0-2.574c0.707-0.711,1.859-0.711,2.57,0C255.65,258.6,255.65,259.753,254.941,260.464z
			 M250.947,245.953c-0.229,0.224-0.592,0.224-0.814,0c-0.227-0.223-0.223-0.588,0-0.812c0.223-0.223,0.586-0.223,0.814,0
			C251.17,245.366,251.17,245.73,250.947,245.953z M237.201,230.044c-0.146,0.147-0.391,0.147-0.541,0
			c-0.146-0.151-0.146-0.393,0-0.542c0.154-0.149,0.395-0.149,0.541,0C237.354,229.65,237.354,229.893,237.201,230.044z
			 M261.961,252.833c-0.223,0.227-0.588,0.227-0.814,0.002c-0.221-0.225-0.221-0.589,0-0.812c0.227-0.226,0.588-0.226,0.814,0
			C262.186,252.249,262.186,252.613,261.961,252.833z M249.727,238.777c-0.594,0.6-1.566,0.6-2.164,0
			c-0.598-0.598-0.598-1.569,0-2.166c0.598-0.598,1.57-0.598,2.168,0C250.328,237.208,250.326,238.181,249.727,238.777z
			 M278.979,264.773c-0.152,0.146-0.395,0.146-0.543,0c-0.15-0.15-0.15-0.391,0-0.543c0.148-0.148,0.391-0.146,0.543,0
			C279.121,264.382,279.125,264.621,278.979,264.773z M260.969,245.953c-0.527,0.522-1.371,0.522-1.896-0.002
			c-0.525-0.523-0.525-1.369,0-1.896c0.525-0.522,1.369-0.522,1.896,0C261.492,244.582,261.492,245.427,260.969,245.953z
			 M227.932,207.654c-0.488-0.492-0.488-1.284,0-1.774c0.488-0.487,1.281-0.487,1.771,0c0.49,0.49,0.49,1.282,0,1.772
			C229.213,208.138,228.42,208.138,227.932,207.654z M245.736,221.915c0.492-0.489,1.287-0.489,1.773,0
			c0.486,0.487,0.49,1.28-0.004,1.77c-0.486,0.488-1.277,0.488-1.77,0C245.25,223.195,245.25,222.402,245.736,221.915z
			 M254.541,230.173c0.148,0.148,0.148,0.392-0.002,0.543c-0.148,0.149-0.391,0.149-0.539,0c-0.15-0.15-0.15-0.393,0-0.543
			C254.148,230.025,254.391,230.025,254.541,230.173z M269.57,247.234c-0.26-0.265-0.26-0.688,0-0.947
			c0.264-0.262,0.689-0.263,0.949-0.004c0.258,0.264,0.258,0.687,0,0.951C270.26,247.492,269.834,247.494,269.57,247.234z
			 M277.564,252.926c-0.377,0.374-0.982,0.374-1.355,0c-0.375-0.376-0.373-0.98,0-1.351c0.373-0.379,0.979-0.379,1.355-0.006
			C277.939,251.946,277.939,252.55,277.564,252.926z M268.486,241.14c-0.113,0.111-0.291,0.109-0.404-0.002
			c-0.109-0.111-0.113-0.291,0-0.406c0.113-0.112,0.297-0.112,0.404,0C268.598,240.845,268.602,241.027,268.486,241.14z
			 M262.467,235.246c-0.449,0.452-1.18,0.449-1.625,0c-0.451-0.448-0.451-1.174,0-1.626c0.449-0.447,1.176-0.447,1.625,0
			C262.918,234.07,262.918,234.797,262.467,235.246z M244.322,214.394c-0.299,0.299-0.787,0.299-1.08,0
			c-0.303-0.299-0.303-0.783,0-1.082c0.299-0.301,0.785-0.301,1.08-0.002C244.625,213.61,244.625,214.095,244.322,214.394z
			 M258.799,225.373c-0.375,0.374-0.979,0.374-1.355,0c-0.373-0.374-0.373-0.978,0-1.353c0.377-0.374,0.98-0.376,1.361,0
			C259.174,224.392,259.172,225.001,258.799,225.373z M244.621,208.358c0.047,0.151-0.043,0.312-0.199,0.356
			c-0.148,0.043-0.307-0.045-0.352-0.201c-0.043-0.149,0.045-0.308,0.195-0.354C244.416,208.118,244.578,208.206,244.621,208.358z
			 M275.252,237.514c-0.223,0.224-0.592,0.224-0.814,0c-0.221-0.225-0.221-0.589,0-0.812c0.223-0.225,0.586-0.225,0.814,0
			C275.475,236.925,275.475,237.291,275.252,237.514z M268.953,228.757c-0.148,0.151-0.391,0.151-0.539,0
			c-0.15-0.148-0.15-0.391,0-0.54c0.148-0.151,0.396-0.149,0.543-0.002C269.104,228.367,269.104,228.609,268.953,228.757z
			 M253.992,212.171c-0.449,0.447-1.172,0.447-1.621,0c-0.453-0.449-0.453-1.177,0-1.624c0.449-0.452,1.172-0.452,1.621,0
			C254.443,210.997,254.443,211.722,253.992,212.171z M291.984,246.236c-0.521,0.523-1.375,0.523-1.896,0
			c-0.523-0.525-0.523-1.369,0-1.896c0.521-0.523,1.375-0.523,1.896,0C292.508,244.867,292.508,245.71,291.984,246.236z
			 M282.699,235.46c-0.113,0.11-0.293,0.11-0.408-0.002c-0.111-0.112-0.111-0.291,0-0.402c0.115-0.115,0.295-0.113,0.408,0
			C282.811,235.167,282.811,235.346,282.699,235.46z M268.145,217.656c-0.152,0.146-0.396,0.146-0.543,0
			c-0.152-0.154-0.146-0.393,0-0.543c0.152-0.15,0.395-0.15,0.543,0C268.291,217.26,268.291,217.501,268.145,217.656z
			 M277.082,225.373c-0.188,0.188-0.492,0.188-0.678,0c-0.188-0.188-0.188-0.491-0.004-0.676c0.189-0.19,0.494-0.188,0.682-0.002
			S277.27,225.185,277.082,225.373z M265.709,211.021c-0.299,0.299-0.791,0.299-1.09,0s-0.295-0.784,0-1.084
			c0.299-0.298,0.787-0.298,1.09,0C266.008,210.237,266.008,210.722,265.709,211.021z M261.033,206.078
			c-0.225,0.223-0.588,0.226-0.811,0c-0.223-0.225-0.223-0.59,0-0.812c0.223-0.224,0.586-0.224,0.812,0
			C261.26,205.491,261.26,205.855,261.033,206.078z M272.008,214.283c-0.105-0.355,0.102-0.728,0.455-0.83
			c0.359-0.102,0.729,0.105,0.832,0.459c0.098,0.355-0.104,0.729-0.459,0.829C272.48,214.843,272.109,214.636,272.008,214.283z
			 M297.59,233.021c-1.906,1.91-4.994,1.906-6.904,0c-1.904-1.904-1.91-4.996,0-6.903c1.91-1.905,4.998-1.905,6.904,0
			C299.5,228.025,299.5,231.117,297.59,233.021z M288.66,214.478c-0.223,0.225-0.588,0.227-0.812,0.002
			c-0.227-0.226-0.227-0.591,0-0.814c0.225-0.225,0.59-0.225,0.812,0.004C288.885,213.892,288.885,214.254,288.66,214.478z
			 M277.625,203.845c-0.713,0.709-1.867,0.71-2.578,0.002c-0.709-0.715-0.709-1.867,0-2.577c0.711-0.709,1.865-0.709,2.578,0
			C278.332,201.98,278.332,203.132,277.625,203.845z M276.738,194.704c-0.221,0.226-0.586,0.226-0.809,0
			c-0.225-0.225-0.225-0.589,0-0.812c0.223-0.226,0.588-0.222,0.809,0C276.967,194.115,276.967,194.48,276.738,194.704z
			 M262.996,178.797c-0.148,0.147-0.389,0.147-0.537-0.005c-0.152-0.146-0.152-0.391,0-0.539c0.148-0.15,0.391-0.15,0.537-0.002
			C263.145,178.402,263.145,178.646,262.996,178.797z M303.734,217.427c-0.188,0.188-0.492,0.188-0.678,0
			c-0.189-0.187-0.189-0.49,0-0.678c0.186-0.188,0.484-0.184,0.674,0C303.918,216.937,303.92,217.241,303.734,217.427z
			 M293.09,206.923c-0.225,0.224-0.586,0.224-0.809,0c-0.223-0.225-0.223-0.591-0.004-0.813c0.227-0.222,0.588-0.222,0.812,0
			C293.314,206.336,293.314,206.7,293.09,206.923z M287.752,201.586c-0.219,0.222-0.584,0.222-0.809,0
			c-0.223-0.226-0.229-0.587,0-0.813c0.225-0.223,0.586-0.224,0.809,0.002C287.98,201,287.98,201.364,287.752,201.586z
			 M275.523,187.529c-0.6,0.598-1.566,0.598-2.166-0.001c-0.602-0.599-0.602-1.568,0-2.166c0.6-0.601,1.566-0.601,2.166-0.003
			C276.119,185.959,276.119,186.929,275.523,187.529z M268.65,181.669c-0.279-0.279-0.279-0.732,0-1.014
			c0.283-0.281,0.736-0.281,1.016-0.002c0.281,0.283,0.283,0.736,0,1.016C269.387,181.954,268.93,181.952,268.65,181.669z
			 M261.709,172.089c-0.145-0.15-0.145-0.393,0.004-0.541c0.15-0.151,0.391-0.149,0.539,0c0.15,0.148,0.15,0.391,0,0.541
			C262.104,172.239,261.859,172.239,261.709,172.089z M286.76,194.704c-0.52,0.524-1.371,0.524-1.895-0.002
			c-0.52-0.521-0.52-1.371,0-1.894c0.523-0.523,1.371-0.521,1.895,0C287.281,193.331,287.287,194.182,286.76,194.704z
			 M309.244,209.728c-0.225,0.222-0.586,0.224-0.814-0.001c-0.223-0.224-0.223-0.589,0-0.812c0.229-0.22,0.59-0.226,0.814-0.002
			C309.471,209.14,309.465,209.505,309.244,209.728z M280.33,179.464c-0.143,0.15-0.387,0.148-0.535-0.002
			c-0.15-0.149-0.15-0.388-0.004-0.539c0.152-0.148,0.396-0.147,0.543,0C280.482,179.074,280.486,179.315,280.33,179.464z
			 M296.314,195.037c0.258,0.262,0.258,0.686,0,0.949c-0.262,0.259-0.686,0.26-0.947,0c-0.264-0.264-0.264-0.691,0-0.949
			C295.625,194.778,296.053,194.773,296.314,195.037z M273.305,172.438c-0.492,0.489-1.283,0.485-1.77,0
			c-0.49-0.489-0.494-1.284,0-1.771c0.486-0.489,1.281-0.489,1.77,0C273.791,171.154,273.791,171.949,273.305,172.438z
			 M303.354,201.678c-0.371,0.371-0.977,0.371-1.348-0.001c-0.373-0.375-0.373-0.98-0.004-1.353c0.375-0.376,0.98-0.376,1.352-0.002
			C303.73,200.697,303.73,201.303,303.354,201.678z M294.281,189.887c-0.109,0.114-0.289,0.114-0.402,0.003
			c-0.115-0.111-0.115-0.295,0-0.407c0.113-0.11,0.293-0.11,0.402,0C294.395,189.595,294.395,189.779,294.281,189.887z
			 M288.26,183.999c-0.447,0.446-1.178,0.446-1.623,0c-0.451-0.45-0.451-1.179,0-1.627c0.449-0.448,1.176-0.45,1.623,0
			C288.709,182.82,288.709,183.548,288.26,183.999z M270.117,163.146c-0.299,0.299-0.787,0.299-1.086,0
			c-0.293-0.299-0.299-0.785,0-1.084c0.299-0.3,0.787-0.3,1.086,0C270.416,162.361,270.416,162.845,270.117,163.146z
			 M253.184,151.099c-1.785,1.789-4.688,1.789-6.473,0c-1.791-1.791-1.791-4.688,0-6.479c1.785-1.786,4.688-1.785,6.473,0
			C254.973,146.411,254.973,149.308,253.184,151.099z M284.59,174.125c-0.369,0.375-0.975,0.375-1.35,0
			c-0.373-0.375-0.373-0.981,0-1.355c0.375-0.375,0.98-0.375,1.355,0C284.967,173.143,284.967,173.75,284.59,174.125z
			 M309.082,193.589c-0.521,0.522-1.371,0.522-1.893,0c-0.523-0.523-0.527-1.372,0-1.896c0.521-0.522,1.371-0.521,1.893,0.001
			C309.605,192.217,309.605,193.068,309.082,193.589z M294.748,177.507c-0.15,0.15-0.391,0.148-0.543,0
			c-0.146-0.151-0.146-0.39,0-0.541c0.152-0.148,0.395-0.148,0.547,0C294.898,177.117,294.898,177.356,294.748,177.507z
			 M286.318,163.529c-0.148,0.148-0.391,0.146-0.539,0c-0.146-0.148-0.15-0.391,0-0.543c0.148-0.148,0.391-0.146,0.541,0
			C286.469,163.138,286.469,163.378,286.318,163.529z M308.494,184.208c-0.117,0.115-0.295,0.115-0.406,0
			c-0.113-0.107-0.113-0.289,0-0.403c0.111-0.114,0.289-0.112,0.406,0C308.605,183.919,308.605,184.099,308.494,184.208z
			 M293.936,166.406c-0.148,0.148-0.387,0.148-0.539-0.003c-0.15-0.147-0.15-0.39-0.002-0.538c0.154-0.15,0.393-0.15,0.541-0.002
			C294.088,166.013,294.088,166.255,293.936,166.406z M302.873,174.125c-0.188,0.184-0.49,0.185-0.674,0
			c-0.189-0.188-0.189-0.49,0-0.679c0.184-0.187,0.486-0.187,0.674,0C303.061,173.634,303.061,173.935,302.873,174.125z
			 M277.416,147.99c-0.447,0.451-1.176,0.451-1.623,0c-0.449-0.448-0.449-1.176,0-1.625c0.447-0.447,1.176-0.447,1.623,0.002
			C277.867,146.816,277.867,147.542,277.416,147.99z M316.207,178.38c-0.287,0.283-0.736,0.283-1.02,0.002
			c-0.281-0.281-0.281-0.739,0.004-1.018c0.279-0.281,0.732-0.279,1.016,0C316.486,177.643,316.486,178.099,316.207,178.38z
			 M296.307,157.941c-0.152,0.152-0.391,0.15-0.541,0c-0.148-0.149-0.148-0.39,0-0.539c0.15-0.151,0.395-0.151,0.541,0
			C296.453,157.549,296.453,157.792,296.307,157.941z M293.338,150.483c-0.152,0.149-0.391,0.149-0.541,0s-0.15-0.388,0-0.54
			c0.15-0.15,0.393-0.148,0.541,0C293.488,150.091,293.488,150.333,293.338,150.483z M307.137,160.107
			c0.105,0.357-0.102,0.73-0.457,0.831c-0.355,0.104-0.727-0.104-0.828-0.46c-0.1-0.354,0.102-0.724,0.457-0.826
			C306.666,159.548,307.035,159.757,307.137,160.107z M315.867,165.441c0.045,0.153-0.043,0.311-0.199,0.355
			c-0.15,0.044-0.311-0.045-0.355-0.195c-0.043-0.154,0.045-0.314,0.195-0.359C315.658,165.201,315.824,165.289,315.867,165.441z
			 M312.887,157.417c-0.244,0.243-0.639,0.246-0.881,0c-0.242-0.241-0.242-0.639,0-0.881c0.246-0.243,0.637-0.242,0.881,0
			C313.129,156.779,313.133,157.175,312.887,157.417z M289.254,139.382c-1.787,1.786-4.691,1.786-6.48,0
			c-1.785-1.789-1.785-4.691,0-6.477c1.789-1.79,4.693-1.79,6.48,0C291.041,134.691,291.041,137.593,289.254,139.382z
			 M305.373,145.333c0.041,0.152-0.043,0.312-0.201,0.355c-0.15,0.045-0.309-0.043-0.354-0.197c-0.043-0.15,0.045-0.311,0.199-0.355
			C305.168,145.093,305.33,145.179,305.373,145.333z M300.994,137.041c-0.186,0.186-0.488,0.186-0.678,0
			c-0.188-0.189-0.188-0.491,0-0.68c0.189-0.187,0.492-0.184,0.674,0C301.18,136.549,301.182,136.851,300.994,137.041z
			 M316.008,147.314c-0.373,0.373-0.982,0.373-1.352,0.002c-0.375-0.374-0.375-0.98,0-1.357c0.369-0.371,0.979-0.372,1.352,0.002
			C316.385,146.333,316.381,146.942,316.008,147.314z M296.51,126.052c-0.117,0.113-0.297,0.113-0.406,0
			c-0.111-0.109-0.111-0.295,0-0.406c0.109-0.111,0.295-0.111,0.406,0.003C296.623,125.757,296.623,125.943,296.51,126.052z
			 M292.824,118.714c-0.26,0.26-0.686,0.262-0.949,0c-0.26-0.264-0.26-0.688,0-0.949c0.264-0.26,0.689-0.26,0.949,0
			C293.086,118.027,293.086,118.451,292.824,118.714z M309.238,131.606c-0.15,0.148-0.391,0.148-0.541-0.001
			c-0.148-0.15-0.148-0.391-0.004-0.541c0.154-0.148,0.398-0.148,0.545,0C309.385,131.21,309.385,131.455,309.238,131.606z
			 M306.672,119.14c-0.562,0.562-1.471,0.562-2.029,0c-0.562-0.559-0.566-1.467-0.004-2.027c0.562-0.562,1.471-0.562,2.033-0.004
			C307.232,117.669,307.232,118.582,306.672,119.14z M298.891,111.24c-0.104-0.35,0.102-0.725,0.457-0.825
			c0.355-0.105,0.727,0.104,0.83,0.458c0.104,0.352-0.104,0.727-0.459,0.828C299.365,111.804,298.992,111.595,298.891,111.24z
			 M280.592,91.171c-0.484,0.488-1.277,0.488-1.77-0.001c-0.484-0.487-0.484-1.28,0-1.771c0.492-0.488,1.285-0.488,1.775,0
			C281.084,89.89,281.084,90.683,280.592,91.171z M268.754,76.632c-4.154,4.15-10.883,4.15-15.033,0.002
			c-4.15-4.151-4.15-10.881,0-15.031c4.15-4.148,10.883-4.15,15.033,0S272.898,72.484,268.754,76.632z"/>
	</g>
	<path fill="#FFFEF4" d="M54.828,251.548c0.488,0.142,2.618,0.328,3.121,0.418c0,0,1.964,0.223,1.973,0.223
		c2.111,0.17,4.242,0.138,6.357,0.168c3.33,0.039,15.974,0.099,18.979,0.326c2.826,0.211,5.299,0.187,8.471,0.374
		c0.025-0.018,0.057-0.032,0.089-0.04c-0.131-0.147-0.131-0.432,0.116-0.526c0.808-0.331,2.768-0.005,3.619-0.209
		c-0.953-0.336-2.547-1.241-3.561-1.399c-0.187-0.025-0.295-0.443-0.096-0.465c1.201-0.123,1.547-0.076,2.491-0.506
		c-0.788-0.352-1.577-0.705-2.312-1.158c-0.207-0.127-0.251-0.516,0.045-0.58c1.43-0.289,2.854-0.594,4.26-0.973
		c-4.678-0.553-9.347-1.097-13.979-2.092c-6.03-1.295-11.991-3.004-17.894-4.775c-5.405-1.623-11.887-4.475-16.633-7.569
		c0.712,4.521,2.166,10.715,3.436,15.124C53.311,247.888,54.469,251.214,54.828,251.548z"/>
	<path fill="#BF4C62" d="M195.425,202.299c3.497-0.698,6.354-4.328,4.552-7.804c-0.178-0.348-0.682-0.021-0.505,0.32
		c1.714,3.314-1.723,7.221-5.198,6.969c-1.856-0.135-3.322-1.521-3.967-3.214c-0.629-1.637-0.713-3.624,0.223-5.175
		c1.26-2.088,3.644-2.613,5.932-2.517c0.387,0.014,0.352-0.586-0.033-0.601c-2.566-0.108-5.455,0.648-6.619,3.191
		c-0.896,1.973-0.73,4.394,0.39,6.252C191.299,201.542,193.258,202.732,195.425,202.299z"/>
	<g>
		<path fill="#653B46" d="M157.225,79.933c-4.535,2.522-8.867,5.629-12.59,9.255c-0.012-0.003-0.027-0.009-0.041-0.011
			c-0.17,0.234-0.334,0.471-0.493,0.713c3.589,0.881,7.161,1.807,10.624,3.08c0.188-0.35,0.375-0.703,0.533-1.066
			c0.456-3.949,1.746-7.743,2.447-11.642C157.755,79.984,157.463,79.805,157.225,79.933z"/>
		<path fill="#653B46" d="M136.811,70.871c-3.496,4.732-4.561,10.596-6.873,15.895v0.002c-0.078-0.008-0.167-0.008-0.248-0.014
			c-0.02,0.207-0.034,0.411-0.055,0.617c3.025,0.195,6.016,0.584,8.981,1.135c0.264,0.069,0.519,0.133,0.78,0.205
			c0.053-0.279,0.109-0.551,0.18-0.821c-1.713-5.434-1.638-11.205-2.22-16.823C137.332,70.82,136.985,70.64,136.811,70.871z"/>
		<path fill="#D6D5D7" d="M127.119,87.886c0.939,0.023,1.881,0.074,2.818,0.142v-0.003c2.312-5.559,3.377-11.721,6.873-16.684
			c0.175-0.248,0.521-0.057,0.546,0.202c0.585,5.958,0.497,12.075,2.263,17.831c0.068,0.02,0.143,0.037,0.217,0.061
			c0.689,0.141,1.375,0.284,2.064,0.451c-0.047-0.168,0.035-0.342,0.16-0.418c-0.343-9.421-1.236-19.096-4.482-27.953
			c-3.861,8.518-6.473,17.598-10.511,26.031c0.052,0.051,0.076,0.122,0.072,0.213C127.14,87.782,127.127,87.83,127.119,87.886z"/>
		<path fill="#D6D5D7" d="M143.758,89.793c0.088,0.024,0.18,0.054,0.267,0.075c3.725-3.805,8.061-7.067,12.595-9.714
			c0.238-0.138,0.525,0.048,0.479,0.343c-0.727,4.254-2.102,8.385-2.504,12.706c0.154,0.06,0.311,0.13,0.469,0.194
			c0.089,0.031,0.18,0.063,0.264,0.096c0.02,0.008,0.031,0.003,0.057,0.014c0.016,0.011,0.039,0.018,0.055,0.027
			c0.24,0.088,0.475,0.167,0.711,0.256c2.064-7.019,3.599-14.357,3.148-21.74c-5.98,5.297-11.479,12.184-17.68,17.229
			C141.543,89.339,143.307,89.626,143.758,89.793z"/>
		<path fill="#D6D5D7" d="M249.691,261.3c-0.789,0.297-1.967,0.285-2.746,0.238c-0.811-0.051,1.664-6.209,2.283-8.846
			c0.561-2.103,2.404-8.118,0.295-13.104c-3.336,5.754-3.963,8.792-7.785,14.265c-0.234,0.341-0.711,0.075-0.59-0.294
			c1.021-3.002,0.666-4.801,1.178-7.906c-3.521,6.152-2.617,4.669-6.83,10.376c-0.236,0.315-0.77,0.032-0.607-0.34
			c2.842-6.727,2.244-5.864,4.471-12.833c-2.1,2.529-4.576,5.059-6.738,7.554c-0.25,0.291-0.76,0.051-0.605-0.34
			c0.969-2.452,1.045-5.921,1.793-8.441c-0.752,1.394-6.557,9.653-10.141,14.017c-1.459,1.771-2.689,2.662-2.977,2.558
			c-0.289-0.103,0.107-1.932,0.107-1.932s-6.459,10.308-10.408,14.597c-2.74,2.975-6.803,6.514-8.938,7.933
			c-2.139,1.419-4.999,4.365-9.601,6.624c-4.444,2.181-17.808,4.893-23.45,5.383c-0.282,0.023-0.578-0.266-0.332-0.51
			c0.183-0.186,0.411-0.5,0.658-0.811c-2.049,0.486-56.625,10.48-87.576,0.088C77.315,288.285,64.538,283.341,59,278.9
			c-5.531-4.443-8.924-7.365-12.557-11.822c-0.57-0.803-0.57-0.803,0.383-0.51c11.003,5.022,22.777,7.484,34.664,9.371
			c1.982,0.314,3.976,0.627,5.964,0.949c1.416-0.496,2.896-0.799,4.362-1.09c-0.521-0.377-1.088-0.682-1.639-1.023
			c-0.243-0.155-0.207-0.586,0.124-0.594c1.116-0.024,2.203,0.127,3.297,0.27c-0.51-0.434-0.978-0.92-1.325-1.518
			c-0.154-0.254,0.057-0.498,0.328-0.479c0.988,0.078,3.32,0.35,4.264,0.107c-2.226-0.666-8.07-2.711-8.096-2.768
			c-2.687-1.07-5.252-2.381-7.872-3.641c-2.958-1.421-5.951-2.758-8.909-4.17c-4.695-2.241-9.477-4.704-13.549-8.01
			c-3.257-2.781-3.914-2.812-4.885-6.74h-0.004c-1.924-6.666-3.404-13.363-3.869-20.357c-0.535-8.002,0.263-16.102,2.698-23.756
			c2.397-7.537,6.576-14.668,11.022-21.171c4.544-6.642,9.988-12.784,16.586-17.442c0.018-0.011,0.027-0.011,0.041-0.014
			c0.486-0.394,0.474-0.151,0.837,0.104c4.659,5.061,8.8,10.758,10.356,17.568c1.23,5.424,0.457,11.308-2.715,15.941
			c-0.415,0.607-0.877,1.171-1.363,1.705c1.159-0.48,2.261-1.134,3.437-1.591c0.259-0.099,0.507,0.208,0.378,0.443
			c-0.873,1.579-1.705,3.181-2.636,4.725c1.46-0.642,2.927-1.259,4.446-1.763c0.216-0.073,0.471,0.131,0.401,0.359
			c-0.44,1.574-1.757,2.582-2.611,3.902c1.485-0.402,3.114-0.83,4.645-0.781c0.69-0.865,1.069-1.472,1.603-2.201
			c4.187-5.707,5.056-13.241,4.079-20.077c-1.261-8.792-5.983-16.321-10.819-23.54c-0.248-0.373-0.048-0.367,0.25-0.691
			c1.168-1.137,7.284-5.916,11.494-8.738c8.554-5.739,19.033-10.887,19.994-11.378c-0.338-2.02-13.568,4.135-21.43,6.981
			c-0.387,0.143-2.239,1.311-1.962,1.033c0.595-0.595,2.054-2.461,2.628-3.07c-3.182,1.758-4.557,1.391-7.781,3.07
			c-0.224,0.117-3.588,2.676-4.251,2.432c-0.78-0.292-0.865-1.156-0.637-1.941c-8.662,5.365-12.686,7.83-21.14,13.526
			c-0.315,0.216-1.971,1.271-1.719,0.937c2.898-3.84,5.494-4.957,8.815-8.424c0.985-1.549,1.127-2.946-3.095-1.447
			c2.539-3.615,8.703-9.949,7.733-9.475c-0.299,0.145-2.571,0.626-2.331,0.365c5.074-5.484,16.364-15.697,15.637-15.222
			c-0.311,0.2-2.084,0.061-1.792-0.253c5.928-6.375,11.073-10.349,18.218-15.358c-0.783,0.27,0.004-1.43-0.759-1.105
			c-0.37,0.152-2.981,0.868-2.679,0.612c7.73-6.471,13.705-8.168,23.176-11.883c5.166-2.027,15.178-4.793,24.429-1.252
			c10.301,3.938,17.875,13.734,21.749,17.604c3.722,3.71,7.861,7.408,12.279,10.287c5.133,3.344,9.845,5.545,15.821,6.898
			c0.232,0.053,0.639,0.064,0.609,0.247c1.757-0.103,3.481-1.636,4.254-2.403c-1.36-0.586-2.711-1.197-4.039-1.856
			c-0.202-0.105-0.198-0.323-0.091-0.462c0.012-0.083,0.057-0.155,0.148-0.205c0.45-0.244,0.637-0.852,0.718-1.328
			c-1.249-1.492-3.04-2.457-4.897-2.982c-0.391,0.381-0.768,0.869-0.919,1.391c-0.013,0.027-0.024,0.045-0.041,0.066
			c-0.046,0.129-0.164,0.225-0.336,0.176c-1.586-0.434-3.156-0.934-4.73-1.412c-0.159,0.125-0.422,0.116-0.478-0.135
			c-0.352-1.607-0.955-3.195-1.679-4.684c0.023-0.307,0.036-0.613,0.04-0.926c0.112-0.082,0.223-0.166,0.333-0.252
			c1.73-0.26,3.335-0.898,4.809-1.807c-0.076-0.058-0.15-0.115-0.228-0.172c0.08-0.035,0.151-0.072,0.231-0.104
			c-2.745-1.876-5.385-3.893-8.177-5.709c-3.578-2.332-7.262-4.518-11.018-6.549c-6.853-3.702-13.908-6.994-21.016-10.17
			c-5.672-2.302-11.699-3.43-17.595-5.016c-3.676-0.68-7.396-1.132-11.167-1.252c-0.027,0.011-0.051,0.02-0.092,0.02
			c-12.832,0.279-25.081,6.061-35.943,12.451c-5.414,3.186-10.615,6.722-15.672,10.441c-4.344,3.198-15.386,11.818-16.427,12.506
			c-0.456,0.305-0.456,0.305-0.856-0.123c-4.486-6.297-8.301-13.619-7.631-21.559c0.555-6.59,4.768-11.205,9.623-15.624
			c0.818-0.749,2.702-2.03,3.895-2.619c-0.932,0.278-1.991-1.804-2.906-1.481c-0.066,0.04-2.515,1.096-2.486,1.086
			c0.027-0.076,1.276-1.384,1.432-1.897c-0.878,0.378-4.143,1.089-4.115,0.933c0.232-1.199,0.543-2.382,0.771-3.578
			c0-0.007,0-0.007,0.003-0.013c-7.079,4.913-12.797,11.622-14.776,20.212c-2.655,11.491,2.825,23.357,9.632,32.388
			c0.115,0.157-0.562,0.868-0.645,0.964c-11.061,13.705-18.121,29.779-22.541,46.744c-2.414,9.268-3.928,18.768-4.783,28.303
			c-0.85,9.574-1.191,19.353,0.111,28.893c0.773,5.638,4.201,16.647,4.236,16.755c2.887,8.69,7.188,16.825,12.184,24.479
			c4.843,7.419,8.471,12.623,17.002,20.474c12.84,11.815,36.98,20.689,45.148,23.442c8.156,2.752,16.606,4.514,25.154,5.491
			c9.113,1.04,18.295,0.984,27.453,1.128c0.495,0.009,0.992,0.017,1.479,0.023c-0.404-0.257-1.71-1.8-1.301-1.771
			c11.5,0.81,22.669-2.724,33.793-5.153c-0.335-0.179-0.641-0.427-0.856-0.622c-0.528-0.487-0.528-0.487,0.275-0.774
			c5.106-1.832,11.237-3.916,17.702-6.855c5.746-2.611,9.035-4.517,10.594-6.184c-0.898-0.059-1.787-0.178-2.666-0.337
			c-0.393-0.067-0.387-0.329,0.098-0.608c1.488-0.968,3.281-2.096,6.414-4.509c5.361-4.46,14.02-11.68,19.979-18.638
			c-0.453,0.119-0.938,0.147-1.387,0.043c-0.111-0.024-0.174-0.092-0.209-0.172c-0.225-0.029-0.412-0.305-0.205-0.51
			C244.346,275.61,247.342,268.453,249.691,261.3z"/>
		<g>
			<path fill="#FFFFFF" d="M184.666,139.796c-1.061,0.508-2.213,0.778-3.242,1.354c1.006,0.731,2.026,1.438,3.05,2.131
				C184.693,142.166,184.586,140.951,184.666,139.796z"/>
			<path fill="#FFFFFF" d="M176.461,134.11c-0.855,0.304-1.748,0.54-2.535,1.007c0.887,0.787,1.785,1.555,2.691,2.301
				C176.757,136.343,176.598,135.19,176.461,134.11z"/>
			<path fill="#FFFFFF" d="M181.162,137.05c-1.312,0.283-2.684,0.393-3.948,0.865c1.058,0.855,2.126,1.68,3.211,2.488
				C180.87,139.372,181.078,138.174,181.162,137.05z"/>
			<path fill="#FFFFFF" d="M173.148,134.431c0.088-1.119-0.076-2.236-0.348-3.326c-0.637,0.246-1.254,0.523-1.868,0.836
				c-0.03,0.018-0.062,0.024-0.099,0.031c0,0.004-0.009,0.01-0.014,0.013c-0.035,0.06-0.1,0.11-0.18,0.134
				c0.799,0.75,1.604,1.492,2.409,2.227C173.086,134.376,173.117,134.402,173.148,134.431z"/>
			<path fill="#FFFFFF" d="M188.153,143.052c-0.903,0.329-1.854,0.506-2.749,0.852c0.68,0.45,1.365,0.895,2.064,1.338
				C187.771,144.547,187.899,143.777,188.153,143.052z"/>
			<path fill="#FFFFFF" d="M182.404,130.762c0.906-0.602,1.886-1.146,2.663-1.902c-1.083-0.359-2.175-0.718-3.264-1.083
				C181.873,128.796,182.121,129.785,182.404,130.762z"/>
			<path fill="#FFFFFF" d="M175.326,125.575c-0.014,0.985,0.112,1.946,0.402,2.886c0.758-0.598,1.398-1.331,1.998-2.096
				c0.004-0.002,0.004-0.002,0.004-0.004c-0.787-0.279-1.568-0.563-2.35-0.846C175.365,125.535,175.351,125.558,175.326,125.575z"/>
			<path fill="#FFFFFF" d="M172.088,126.458c0.91-0.292,1.815-0.642,2.596-1.194c-1.156-0.414-2.305-0.842-3.455-1.271
				C171.404,124.849,171.746,125.656,172.088,126.458z"/>
			<path fill="#FFFFFF" d="M195.492,132.289c0.197,0.822,0.502,1.7,1.001,2.379c0.853-0.33,1.739-0.85,2.411-1.486
				c-1.141-0.262-2.268-0.576-3.389-0.914C195.503,132.276,195.498,132.282,195.492,132.289z"/>
			<path fill="#FFFFFF" d="M166.49,128.204c0.08-0.723-0.069-1.458-0.066-2.188c-0.626,0.081-1.271,0.108-1.877,0.294
				c0.375,0.373,0.744,0.743,1.128,1.111C165.938,127.683,166.221,127.943,166.49,128.204z"/>
			<path fill="#FFFFFF" d="M191.231,130.905c0.219,0.912,0.621,1.778,0.934,2.665c0.944-0.389,1.873-0.833,2.646-1.505v-0.007
				c-0.512-0.162-1.013-0.32-1.528-0.484C192.599,131.355,191.917,131.126,191.231,130.905z"/>
			<path fill="#FFFFFF" d="M178.777,129.24c0.764-0.563,1.61-1.025,2.266-1.722c-0.83-0.276-1.651-0.575-2.477-0.864
				C178.479,127.533,178.531,128.397,178.777,129.24z"/>
			<path fill="#FFFFFF" d="M186.967,132.374c1.096-0.513,2.255-1.03,3.17-1.831c-1.417-0.463-2.828-0.936-4.239-1.403
				C186.033,130.244,186.512,131.359,186.967,132.374z"/>
			<path fill="#FFFFFF" d="M170.104,131.47c0.09-1.075-0.151-2.211-0.295-3.297c-0.889,0.252-1.826,0.256-2.72,0.509
				c-0.026,0.011-0.06,0.005-0.086,0.005c1.048,1.01,2.101,2.001,3.165,2.996C170.123,131.622,170.1,131.553,170.104,131.47z"/>
		</g>
		<path fill="#FFFEF4" d="M176.801,116.746c-7.395-7.251-14.969-17.256-25.029-20.154c-8.447-2.44-16.508-0.85-24.441,1.81
			c-8.729,2.923-16.268,7.769-23.352,13.505c0.873-0.311,1.75-0.596,2.647-0.856c0.342-0.101,0.724,0.362,0.358,0.597
			c-7.334,4.676-13.246,11.012-19.118,17.348c0.841-0.474,1.702-0.912,2.592-1.311c0.368-0.162,0.661,0.345,0.358,0.6
			c-5.861,5.004-11.421,10.33-16.707,15.943c0.92-0.434,1.845-0.861,2.754-1.308c0.304-0.146,0.667,0.269,0.428,0.528
			c-2.936,3.182-5.33,6.768-7.774,10.324c1.004-0.652,2.04-1.246,3.055-1.9c0.383-0.25,0.755,0.227,0.442,0.547
			c-3.504,3.518-6.795,7.221-9.86,11.119c8.081-5.35,16.417-10.305,24.646-15.415c0.233-0.147,0.504-0.056,0.569,0.226
			c0.218,1.018-0.45,1.465-0.953,2.068c3.572-1.765,7.338-3.162,10.691-5.339c0.318-0.204,0.777,0.151,0.506,0.481
			c-0.697,0.847-1.447,1.641-2.211,2.428c8.225-3.033,16.33-6.386,24.515-9.521c0.224-0.086,0.406,0.059,0.465,0.229
			c2.663-1.348,5.347-2.658,8.033-3.947c4.78-2.292,11.017-6.101,15.292-5.645c4.279,0.455,20.275,7.338,28.586,13.738
			c0.104,0.075,0.287,0.435,0.263,0.586c-0.031,0.227-0.159,2.404-0.04,3.265c0.793-0.418,2.543-1.446,2.668-1.443l0.004-0.003
			c0.354-0.191,0.321,2.539,0.326,3.534c0.868-0.216,2.592-0.938,2.619-0.948c0.01,0,0.01-0.003,0.01-0.003
			c0.01-0.002,0.01-0.002,0.01-0.002c0.012-0.001,0.015-0.007,0.015-0.007c0.176-0.06,0.31,0.044,0.353,0.191
			c0.028,0.053-0.025,1.723,0.189,2.459c0.818-0.309,1.608-0.753,2.307-1.281c0.246-0.186,0.497,0.074,0.461,0.318
			c0.045,0.059-0.04,2.072,0.285,2.925c2.33-1.646,4.666-3.301,6.877-5.106c-2.908-1.732-5.834-3.465-8.553-5.497
			c-2.702-2.024-8.586-7.133-8.891-7.406c-2.621-2.38-5.211-4.827-7.744-7.308c-2.359-2.314-4.289-4.976-5.947-7.87
			c-0.236-0.417-0.111-0.685,0.545-0.396c7.811,3.424,25.822,9.414,26.849,9.75c1.391,0.457,13.634,4.388,17.4,4.627
			c0.027-0.028,0.874-0.316,1.231-0.475c-5.464-1.247-10.95-3.342-15.73-6.295C184.393,123.733,180.488,120.363,176.801,116.746z
			 M82.337,149.052c-1.834,1.281-3.851,2.291-5.94,3.095c-0.421,0.161-0.7-0.479-0.279-0.642c2.026-0.781,3.996-1.756,5.777-3
			C82.27,148.247,82.703,148.795,82.337,149.052z M87.316,138.443c-1.407,1.646-2.875,3.28-3.979,5.154
			c-0.235,0.393-0.799-0.027-0.566-0.415c1.105-1.876,2.571-3.512,3.983-5.155C87.048,137.685,87.615,138.101,87.316,138.443z
			 M106.203,121.249c0.654-0.051,1.367-0.466,1.952-0.737c0.735-0.339,1.472-0.697,2.174-1.109c0.386-0.23,0.664,0.417,0.279,0.645
			c-0.825,0.484-1.69,0.903-2.567,1.285c-0.539,0.234-1.148,0.566-1.738,0.615C105.852,121.984,105.748,121.287,106.203,121.249z
			 M91.736,133.743c1.822-1.784,3.934-3.348,5.562-5.325c0.286-0.348,0.856,0.068,0.564,0.417c-1.665,2.022-3.818,3.628-5.684,5.459
			C91.854,134.609,91.418,134.058,91.736,133.743z M100.379,137.103c-1.691,1.639-3.719,2.795-5.94,3.564
			c-0.425,0.145-0.71-0.499-0.282-0.646c2.168-0.75,4.135-1.869,5.783-3.465C100.264,136.24,100.707,136.791,100.379,137.103z
			 M104.518,118.173c-2.225,1.278-4.418,2.639-6.481,4.164c-0.368,0.271-0.807-0.275-0.438-0.545
			c2.107-1.563,4.361-2.955,6.64-4.266C104.627,117.299,104.906,117.949,104.518,118.173z M111.627,136.402
			c-1.977,1.197-4.104,2.075-6.172,3.094c-0.408,0.195-0.687-0.447-0.28-0.646c2.01-0.988,4.091-1.83,6.017-2.994
			C111.568,135.615,112.012,136.164,111.627,136.402z M115.379,125.153c-1.929,1.577-4.021,3.017-6.174,4.265
			c-0.396,0.229-0.67-0.421-0.283-0.644c2.1-1.218,4.142-2.63,6.011-4.172C115.287,124.316,115.727,124.865,115.379,125.153z
			 M116.886,107.451c2.244-1.037,4.932-1.379,7.358-1.668c0.447-0.051,0.552,0.645,0.1,0.703c-2.367,0.271-4.994,0.6-7.175,1.611
			C116.758,108.288,116.479,107.64,116.886,107.451z M117.592,113.31c1.525-0.777,2.985-1.699,4.451-2.578
			c0.392-0.232,0.664,0.413,0.285,0.645c-1.471,0.88-2.932,1.801-4.457,2.574C117.468,114.162,117.188,113.513,117.592,113.31z
			 M126.775,131.997c-2.016,0.988-4.176,1.813-6.416,2.137c-0.443,0.063-0.551-0.633-0.098-0.698
			c2.173-0.314,4.268-1.123,6.234-2.084C126.904,131.151,127.183,131.798,126.775,131.997z M127.247,126.607
			c-1.239,0.525-2.491,1.021-3.751,1.488c-0.833,0.314-1.771,0.793-2.667,0.883c-0.45,0.041-0.554-0.654-0.101-0.699
			c0.926-0.09,1.926-0.609,2.778-0.938c1.16-0.441,2.317-0.894,3.457-1.379C127.387,125.786,127.666,126.429,127.247,126.607z
			 M127.791,116.488c-1.33,0.864-2.794,1.629-4.295,2.155c-0.428,0.146-0.707-0.497-0.279-0.646c1.439-0.503,2.86-1.228,4.138-2.062
			C127.729,115.689,128.176,116.236,127.791,116.488z M131.42,115.884c1.797-1.004,3.713-1.807,5.62-2.574
			c0.424-0.17,0.702,0.475,0.28,0.641c-1.908,0.772-3.826,1.57-5.621,2.58C131.305,116.753,131.025,116.103,131.42,115.884z
			 M131.996,122.856c1.748-1.403,3.829-2.374,5.938-3.097c0.424-0.148,0.711,0.496,0.279,0.645
			c-2.049,0.704-4.074,1.631-5.776,2.999C132.081,123.683,131.643,123.138,131.996,122.856z M138.971,125.961
			c-1.308,1.042-2.671,2.008-3.983,3.05c-0.354,0.282-0.792-0.268-0.44-0.545c1.311-1.041,2.673-2.012,3.984-3.052
			C138.887,125.134,139.326,125.681,138.971,125.961z M140.047,108.122c-2.01,0.026-4.094,0.308-6.007,0.911
			c-0.427,0.135-0.707-0.508-0.28-0.642c1.982-0.628,4.11-0.938,6.184-0.965C140.39,107.416,140.497,108.115,140.047,108.122z
			 M140.803,105.055c-1.609-0.468-3.184-1.081-4.839-1.388c-0.438-0.079-0.358-0.779,0.089-0.694
			c1.706,0.312,3.344,0.94,5.011,1.426C141.498,104.527,141.236,105.181,140.803,105.055z M160.003,109.2
			c-0.075,0.395-0.687,0.268-0.614-0.132c0.45-2.379-0.156-5.066-2.01-6.717c-2.93-2.606-6.715,0.758-7.66,3.596
			c-0.125,0.378-0.742,0.256-0.615-0.132c1.057-3.185,4.437-6.181,7.913-4.468C159.723,102.681,160.513,106.503,160.003,109.2z"/>
		<path fill="#BF4C62" d="M249.492,206.708c-0.508-1.658-0.854-1.93-0.971-0.68c-0.857,5.773-2.578,11.394-4.646,16.841
			c-2.213,5.836-9.125,16.847-9.031,16.551c-0.043-0.14,0.266-1.876-0.443-0.337c-0.592,1.276-4.932,8.707-6.85,11.536
			c2.033-1.159,3.445-3.394,4.145-4.551c0.836-1.372,1.43-1.127,0.826,0.778c-0.807,2.566-2.887,6.588-2.252,6.984
			c0.643,0.391,4.691-4.434,6.605-7.215c0.252-0.35,0.717-0.025,0.617,0.337c-1.865,6.653-2.682,7.425-3.83,10.558
			c-0.344,1.279,0.637,1.376,1.314,0.25c1.07-1.774,3.348-4.77,6.244-9.986c0.172-0.306,0.691-0.083,0.633,0.25
			c-0.553,3.038-1.111,8.771-0.547,8.963c0.564,0.193,3.98-5.584,6.516-11.409c0.766-1.766,1.236-0.888,1.258-0.637
			c0.168,2.093-1.621,6.482-0.891,11.192c3.148-6.771,3.199-18.014,3.426-21.849c0.256-4.298,0.299-8.61,0.076-12.911
			C251.434,216.395,249.994,208.367,249.492,206.708z"/>
		<path fill="#BF4C62" d="M126.395,254.592c-1.296-1.515-3.238-1.925-5.013-2.646c1.161-0.319,2.288-0.738,3.449-1.068
			c0.833-0.239,0.732-0.78,0.071-0.896c-0.609-0.104-1.21-0.22-1.814-0.278c-0.042-0.021-7.77-0.836-10.336-1.186
			c-3.121-0.43-6.253-0.579-9.38-0.973c-0.969-0.123-8.729-0.824-8.628-0.783c0.106,0.045,1.02,0.465,2.613,0.738
			c-1.148,0.231-2.275,0.433-3.236,0.674c-0.292,0.076-0.252,0.453-0.045,0.58c0.734,0.453,1.523,0.807,2.312,1.158
			c-1.063,0.116-1.294,0.022-2.642,0.152c-0.516,0.047-0.795,0.757-0.199,0.977c1.135,0.422,1.705,0.723,2.658,1.061
			c-0.854,0.203-1.423,0.197-2.271,0.39c-0.723,0.161-0.18,0.549-0.205,0.566c-0.17,0.005,10.258,1.12,14.842,2.401
			c4.398,1.225,8.543,3.092,12.641,5.062c0.308,0.151,0.511-0.159,0.411-0.446c-0.265-0.73-0.366-1.258-0.507-1.899
			c1.037,0.109,2.077,0.109,3.118,0.146c0.282,0.01,0.378-0.374,0.191-0.549c-0.95-0.892-2.054-1.561-3.114-2.303
			c1.606-0.331,3.254-0.262,4.896-0.335C126.505,255.125,126.561,254.787,126.395,254.592z"/>
		<path fill="#BF4C62" d="M120.706,282.049c-1.174-0.903-2.615-1.243-3.972-1.769c-0.071-0.028-0.144-0.059-0.211-0.092
			c1.479-0.363,2.962-0.949,4.129-1.918c0.201-0.164,0.188-0.512-0.103-0.57c-1.316-0.261-2.647-0.415-3.976-0.6
			c1.117-0.784,2.281-1.493,3.369-2.319c0.268-0.201,0.124-0.562-0.188-0.581c-2.303-0.125-4.607-0.1-6.881,0.184
			c-5.388-0.045-19.373-2.912-20.484-3.298c0.9,0.384,2.707,1.253,3.297,1.402c-0.049,0.22-2.67-0.294-3.655-0.37
			c-0.271-0.02-0.484,0.221-0.331,0.479c0.346,0.598,1.388,1.42,1.897,1.854c-1.094-0.143-2.181-0.294-3.297-0.27
			c-0.331,0.008-0.367,0.438-0.124,0.594c0.551,0.342,1.117,0.646,1.639,1.023c-1.467,0.291-2.946,0.594-4.362,1.09
			c-0.281-0.049,18.78,3.988,27.403,8.072c0.024,0.016,0.052,0.014,0.075,0.016c0.015,0.027,0.036,0.055,0.063,0.079
			c0.332,0.31,0.631,0.398,1.076,0.3c0.133-0.033,0.229-0.124,0.271-0.244c0.104-0.016,0.196-0.076,0.234-0.209
			c0.264-0.786-0.227-1.568-0.779-2.15c-0.018-0.021-0.029-0.045-0.04-0.062c1.565,0.198,3.216,0.191,4.755-0.092
			C120.753,282.549,120.947,282.236,120.706,282.049z"/>
		<path fill="#BF4C62" d="M56.27,81.386c-0.027,0.156,0.068,0.35,0.245,0.371c0.859,0.102,2.206-0.41,3.084-0.787
			c-0.358,0.512-0.901,1.211-1.155,1.67c-0.344,0.663-0.17,1.154,0.566,0.787c1.031-0.519,1.621-0.604,2.555-0.885
			c-0.459,0.957-0.547,1.312-1.488,3.164c3.102-2.152,7.555-4.935,11.469-6.363c8.939-3.263,13.918-4.835,22.399-3.721
			c8.942,1.172,13.585,2.681,22.045,5.693c0.216,0.075,0.714-0.026,0.136-0.842c-0.91-1.286-1.818-1.92-2.873-3.081
			c1.484,0.267,2.458,0.304,3.973,0.481c0.555,0.064,0.866-0.504,0.631-0.686c-1.52-1.188-2.376-1.787-3.871-3.01
			c1.901,0.064,4.99,0.34,5.289-0.238c0.3-0.578-2.982-1.866-4.656-2.473c1.495-0.561,2.957-0.438,4.492-0.883
			c0.504-0.147,0.684-0.641-0.441-0.932c-15.592-4.078-28.707-5.602-44.141-0.789c-6.653,2.076-16.096,7.589-16.99,8.227
			c-0.566,0.401-3.232,2.479-3.316,2.821c1.01-0.687,2.212-1.274,2.668-1.359C56.885,78.556,56.502,80.187,56.27,81.386z"/>
		<path fill="#653B46" d="M198.502,115.198c-0.462-0.25-0.758-0.108-1.125,0.095c-0.19,0.103-4.038,2.479-5.769,2.738
			c-0.11,0.086-0.149,0.008-0.333,0.252c-0.184,0.25-0.04,0.926,0.112,1.208c0.146,0.28,1.091,2.933,1.442,4.542
			c0.06,0.252,3.706,0.973,5.292,1.406c0.172,0.049,0.29-0.047,0.336-0.176c0.017-0.021,0.569-1.076,0.96-1.457
			c1.857,0.525,3.648,1.49,4.897,2.982c-0.081,0.477-0.268,1.084-0.718,1.328c-0.092,0.05-0.137,0.122-0.148,0.205
			c-0.107,0.139-0.111,0.356,0.091,0.462c1.328,0.659,5.107,2.511,5.771,2.511c0.516-0.003,4.268-3.483,4.734-4.611
			s0.133-0.88,0.152-1.108C208.985,122.096,204.035,118.177,198.502,115.198z"/>
		<path fill="#BF4C62" d="M54.971,208.277c-0.229,0.469,0.291,0.814,0.645,0.99c0.931,0.47,1.959,0.693,2.903,1.135
			c0.06,0.026,0.12,0.029,0.171,0.021c0.191,0.082,0.383,0.156,0.579,0.219c0.008,0.004,0.012,0.004,0.015,0.01
			c12.18,5.456,29.068,4.67,37.173-7.211c0.107-0.16-3.703,1.696-5.187,2.097c0.854-1.318,1.461-1.978,1.901-3.552
			c0.069-0.229-0.186-0.433-0.401-0.359c-1.52,0.504-2.986,1.121-4.446,1.763c0.931-1.544,1.763-3.146,2.636-4.725
			c0.129-0.235-0.119-0.542-0.378-0.443c-1.176,0.457-1.017,0.53-2.181,1.013c0.904-0.913,1.877-3.898,1.57-3.695
			c-0.255,0.5-0.893,1.707-1.208,2.183c-2.718,4.185-7.586,6.358-12.576,6.774c-5.282,0.443-10.313-1.411-14.388-4.646h-0.004
			c-0.01-0.006-0.028-0.021-0.039-0.024h-0.005c-0.481-0.319-0.964-0.654-1.482-0.92c-0.366-0.193-0.833-0.448-1.263-0.372
			c-1.221,0.203-0.186,1.938,0.433,2.801c0.081,0.141,0.093,0.25-0.026,0.332c-0.427,0.023-1.069-0.104-1.257-0.123
			c-0.515-0.057-1.196-0.221-1.698-0.037c-0.498,0.188-0.475,0.686-0.188,1.066c0.487,0.633,1.097,1.051,1.739,1.451
			c0.004,0.002,0.007,0.006,0.017,0.01c0.147,0.099,0.389,0.245,0.426,0.436c0.003,0.032-0.004,0.062-0.02,0.096
			c-0.137,0.044-0.3,0.08-0.34,0.09c-0.028,0.006-0.049,0.021-0.076,0.037c-0.642-0.037-1.441-0.346-1.917-0.315
			c-0.55,0.037-1.466,0.108-1.667,0.759c-0.191,0.611,0.393,1.129,0.825,1.455c0.679,0.512,1.48,0.754,2.245,1.093
			c-0.462,0.01-0.916,0.034-1.367,0.104C55.781,207.838,55.158,207.9,54.971,208.277z"/>
		<g>
			<path fill="#653B46" d="M157.102,101.179c-0.699-0.347-1.424-0.521-2.158-0.521c-2.842,0-5.179,2.564-6.023,5.097
				c-0.047,0.147-0.028,0.295,0.057,0.41c0.092,0.123,0.247,0.199,0.418,0.199c0.23,0,0.43-0.139,0.504-0.359
				c0.705-2.125,2.945-4.404,5.152-4.404c0.799,0,1.54,0.301,2.205,0.893c1.678,1.494,2.422,4,1.944,6.539
				c-0.027,0.151,0.009,0.295,0.104,0.408c0.096,0.117,0.25,0.186,0.405,0.186c0.245,0,0.431-0.152,0.478-0.391
				C160.735,106.336,159.839,102.531,157.102,101.179z"/>
			<path fill="#C6203C" d="M136.053,102.973c-0.447-0.085-0.527,0.615-0.089,0.694c1.655,0.307,3.229,0.92,4.839,1.388
				c0.434,0.126,0.695-0.528,0.261-0.656C139.396,103.914,137.759,103.285,136.053,102.973z"/>
			<path fill="#C6203C" d="M139.943,107.426c-2.073,0.027-4.201,0.337-6.184,0.965c-0.427,0.134-0.146,0.776,0.28,0.642
				c1.913-0.604,3.997-0.885,6.007-0.911C140.497,108.115,140.39,107.416,139.943,107.426z"/>
			<path fill="#C6203C" d="M137.04,113.31c-1.907,0.768-3.823,1.57-5.62,2.574c-0.395,0.219-0.115,0.869,0.279,0.646
				c1.795-1.01,3.713-1.808,5.621-2.58C137.742,113.785,137.464,113.14,137.04,113.31z"/>
			<path fill="#C6203C" d="M137.934,119.759c-2.108,0.723-4.189,1.693-5.938,3.097c-0.354,0.282,0.085,0.827,0.44,0.547
				c1.702-1.368,3.728-2.295,5.776-2.999C138.645,120.255,138.357,119.611,137.934,119.759z"/>
			<path fill="#C6203C" d="M138.531,125.415c-1.312,1.04-2.674,2.011-3.984,3.052c-0.352,0.277,0.086,0.827,0.44,0.545
				c1.312-1.042,2.676-2.008,3.983-3.05C139.326,125.681,138.887,125.134,138.531,125.415z"/>
			<path fill="#C6203C" d="M124.244,105.783c-2.427,0.289-5.114,0.631-7.358,1.668c-0.406,0.189-0.128,0.837,0.283,0.646
				c2.181-1.012,4.808-1.34,7.175-1.611C124.796,106.427,124.691,105.732,124.244,105.783z"/>
			<path fill="#C6203C" d="M122.043,110.732c-1.466,0.879-2.926,1.801-4.451,2.578c-0.403,0.203-0.124,0.852,0.279,0.641
				c1.525-0.773,2.986-1.694,4.457-2.574C122.707,111.145,122.435,110.5,122.043,110.732z"/>
			<path fill="#C6203C" d="M127.354,115.935c-1.277,0.835-2.698,1.56-4.138,2.062c-0.428,0.148-0.148,0.791,0.279,0.646
				c1.501-0.526,2.965-1.291,4.295-2.155C128.176,116.236,127.729,115.689,127.354,115.935z"/>
			<path fill="#C6203C" d="M126.964,125.961c-1.14,0.485-2.297,0.938-3.457,1.379c-0.853,0.329-1.853,0.849-2.778,0.938
				c-0.453,0.045-0.35,0.74,0.101,0.699c0.896-0.09,1.834-0.568,2.667-0.883c1.26-0.467,2.512-0.963,3.751-1.488
				C127.666,126.429,127.387,125.786,126.964,125.961z"/>
			<path fill="#C6203C" d="M126.496,131.351c-1.967,0.961-4.062,1.77-6.234,2.084c-0.453,0.065-0.346,0.762,0.098,0.698
				c2.24-0.323,4.4-1.148,6.416-2.137C127.183,131.798,126.904,131.151,126.496,131.351z"/>
			<path fill="#C6203C" d="M111.191,135.855c-1.926,1.164-4.007,2.006-6.017,2.994c-0.406,0.199-0.128,0.842,0.28,0.646
				c2.067-1.019,4.195-1.896,6.172-3.094C112.012,136.164,111.568,135.615,111.191,135.855z"/>
			<path fill="#C6203C" d="M114.933,124.602c-1.869,1.542-3.911,2.954-6.011,4.172c-0.387,0.223-0.113,0.872,0.283,0.644
				c2.152-1.248,4.245-2.688,6.174-4.265C115.727,124.865,115.287,124.316,114.933,124.602z"/>
			<path fill="#C6203C" d="M106.303,121.947c0.59-0.049,1.199-0.381,1.738-0.615c0.877-0.382,1.742-0.801,2.567-1.285
				c0.385-0.228,0.106-0.875-0.279-0.645c-0.702,0.412-1.438,0.771-2.174,1.109c-0.585,0.271-1.298,0.687-1.952,0.737
				C105.748,121.287,105.852,121.984,106.303,121.947z"/>
			<path fill="#C6203C" d="M97.863,128.834c0.292-0.349-0.278-0.765-0.564-0.417c-1.629,1.978-3.74,3.541-5.562,5.325
				c-0.318,0.315,0.117,0.866,0.443,0.551C94.045,132.462,96.198,130.857,97.863,128.834z"/>
			<path fill="#C6203C" d="M104.237,117.527c-2.278,1.311-4.532,2.702-6.64,4.266c-0.368,0.27,0.07,0.816,0.438,0.545
				c2.063-1.525,4.257-2.886,6.481-4.164C104.906,117.949,104.627,117.299,104.237,117.527z"/>
			<path fill="#C6203C" d="M86.755,138.027c-1.412,1.644-2.878,3.279-3.983,5.155c-0.232,0.388,0.331,0.808,0.566,0.415
				c1.104-1.874,2.571-3.508,3.979-5.154C87.615,138.101,87.048,137.685,86.755,138.027z"/>
			<path fill="#C6203C" d="M81.895,148.505c-1.781,1.244-3.751,2.219-5.777,3c-0.421,0.162-0.142,0.803,0.279,0.642
				c2.09-0.804,4.106-1.813,5.94-3.095C82.703,148.795,82.27,148.247,81.895,148.505z"/>
			<path fill="#C6203C" d="M99.939,136.556c-1.648,1.596-3.615,2.715-5.783,3.465c-0.428,0.147-0.143,0.791,0.282,0.646
				c2.222-0.77,4.249-1.926,5.94-3.564C100.707,136.791,100.264,136.24,99.939,136.556z"/>
		</g>
	</g>
	<path fill="#BF4C62" d="M203.289,284.884"/>
	<g>
		<path fill="#BF4C62" d="M184.23,296.503c-0.268,0.113-1.533,0.527-1.646,0.553c0.043,0.129,0.234,0.583,0.271,0.715
			c0.483,1.564,1.117,5.454,2.118,5.041c1.124-0.461,0.361-3.244,0.107-4.124C184.9,298.072,184.492,297.094,184.23,296.503z"/>
		<path fill="#BF4C62" d="M181.257,297.289c-0.317,0.041-0.626,0.164-0.951,0.184c0.279,0.782,0.526,1.82,0.608,2.645
			c0.027,0.297,0.359,3.479,1.021,3.133c0.96-0.502-0.247-4.361-0.428-5.051C181.461,298.019,181.304,297.471,181.257,297.289z"/>
		<path fill="#FFFEF4" d="M204.151,191.937c3.87,0.59,9.103-3.104,9.181-3.094c0.1-0.062,1.271-1.194,1.375-1.078
			c3.014,3.364,6.977,3.982,9.648,0.161c0.045-0.056,0.807-2.208,0.852-2.222c1.52-3.518,2.117-7.609,2.85-11.321
			c0.818-4.128,2.461-12.624,2.58-12.718c0.539-0.422,1.072-0.865,1.658-1.223c-0.244-0.604-0.6-1.218-1.236-1.445
			c-0.646-0.228-1.307,0.153-1.781,0.568c-0.549,0.391-0.549,0.391-0.623,0.072c-0.326-1.472-1.33-2.213-2.748-2.184
			c2.158,10.487-11.311,18.319-19.582,11.772c-7.476,2.726-11.43,9.097-11.398,15.396
			C196.357,188.018,200.531,191.389,204.151,191.937z M206.91,181.634c1.633-0.543,3.679-1.443,4.045-3.328
			c0.367-1.863-1.962-2.973-3.359-3.424c-0.363-0.115-0.245-0.703,0.127-0.588c1.781,0.574,3.852,1.698,3.848,3.827
			c-0.01,2.253-2.691,3.492-4.469,4.083C206.732,182.328,206.546,181.758,206.91,181.634z"/>
		<path fill="#815155" d="M148.406,257.416c-2.592-1.404-5.505-2.839-8.152-4.158c-0.229,2.412-1.857,5.615-1.145,7.135
			c1.766,3.766,3.225,12.07,2.954,14.035c-0.562,4.092-7.475,14.895-7.475,15.412c0,0.693,0.285,1.25,0.404,1.514
			c0.501,0.129,0.933,0.271,1.445,0.383c0.635,0.123,1.165-0.203,1.799-0.176c0.211,0.01,0.421,0.014,0.63-0.001
			c0.082-0.001,0.171,0,0.251-0.005c1.376-0.145,2.636-0.661,3.807-1.368c-1.603-0.259-5.237-1.117-4.974-1.364
			c4.129-3.852,9.633-11.842,9.941-14.602c0.064-0.598,0.19-1.41,0.223-2.168C148.555,267.773,148.379,257.457,148.406,257.416z"/>
		<path fill="#BF4C62" d="M120.083,292.515c-0.462,1.607-1.438,6.331-0.507,6.322c0.686-0.008,1.416-3.336,1.611-4.131
			c0.088-0.347,0.589-0.264,0.589,0.05c0.021,0.04-0.066,7.411,1.065,7.394c1.842-0.035,1.023-5.865,1.063-6.519
			c0.041-0.653,0.312-0.115,0.312-0.115c0.742,2.315,2.747,8.273,3.949,7.838c1.851-0.674-2.187-7.911-2.148-7.989
			c-0.23-0.439,0.188-0.514,0.496-0.165c1.574,1.771,3.631,9.306,6.271,8.235c2.044-0.825-2.982-7.904-5.705-10.29
			C125.297,294.363,121.833,293.625,120.083,292.515z"/>
		<path fill="#815155" d="M193.009,283.544c-0.865,0.163-1.016,0.071-1.016-0.164c0-4.307,0.438-8.531,1.145-12.728
			c0.394-2.243,1.051-5.573,1.55-7.712c1.462-6.302,4.074-14.293,6.546-20.281c-2.532,2.393-9.625,7.837-9.651,7.879
			c-1.355,2.283-1.523,1.76-2.476,4.226c0.041,0.052,0.353,30.019,0.442,30.786c0.09,0.77,2.6,2.855,2.843,3.268
			c0.617,0,1.103-0.105,1.554-0.313c-0.322-0.379-0.594-0.603-1.024-1.067c-0.431-0.464,0.133-0.604,0.479-0.427
			c0.636,0.333,1,0.561,1.599,0.938c0.439-0.271,0.858-0.562,1.252-0.888c-0.561-0.327-1.127-0.653-1.718-0.903
			c-0.571-0.241-0.251-0.708,0.21-0.637c1,0.148,1.992,0.365,2.936,0.729c0.059-0.443,0.123-0.886,0.199-1.323
			c-0.541-0.114-0.989-0.282-1.607-0.384c-0.307-0.051-0.402-0.341-0.108-0.436c0.297-0.094,1.249-0.287,1.919-0.256
			c0.061-0.301,0.12-0.6,0.184-0.9C196.386,282.871,193.381,283.474,193.009,283.544z"/>
		<path fill="#BF4C62" d="M205.308,286.801c0.809-0.637-0.837-1.942-1.72-2.456c-0.885-0.518-3.782-1.547-5.746-1.4
			c0.221,0.344,0.299,0.609,0.238,0.906c0.58,0.041,2.064,0.351,3.396,1.102C203.209,285.928,204.609,287.347,205.308,286.801z"/>
		<path fill="#BF4C62" d="M203.329,288.269c-1.224-1.678-3.567-2.919-5.636-3.385c0.075,0.519-0.049,0.837-0.449,1.209
			c0.703,0.286,1.963,0.849,2.581,1.304c1.231,0.917,3.085,4.978,4.438,4.221C205.06,291.17,203.848,288.981,203.329,288.269z"/>
		<path fill="#653B46" d="M214.451,186.746c-0.383,0.012-0.756,0.856-1.162,1.242c-2.299,2.205-5.121,3.447-8.469,3.194
			c-3.859-0.292-8.447-2.892-9.029-7.271c-0.208-4.663,3.865-11.024,6.314-12.533c-2.452,1.706-5.816,4.484-7.967,6.532
			c-3.502,3.354-7.213,6.933-9.943,10.958c0.02,0.028,0.039,0.058,0.057,0.102c1.473,5.12,2.255,10.403,2.378,15.733
			c-0.613,14.215-10.966,28.068-23.598,34.138c-6.35,3.056-13.335,4.617-20.374,3.596c-7.426-1.083-13.646-5.28-18.768-10.579
			c-5.598-5.787-9.834-12.953-11.412-20.89c-1.467-7.37-0.164-14.964,2.642-21.85c5.222-12.798,16.995-24.918,31.394-26.036
			c9.074-0.702,20.6,2.941,26.244,10.729c0,0.017,2.385,3.621,3.924,3.307c1.018-0.214,0.717-2.147,0.602-2.817
			c-0.566-3.359-2.197-6.622-4.434-9.181c-5.249-5.243-11.317-12.944-31.03-10.078c-8.046,1.173-15.601,7.063-20.875,13.108
			c-5.364,6.145-8.296,14.156-10.496,21.896c-1.199,4.225-2.206,8.494-2.487,12.889c-0.298,4.638,0.267,9.294,1.516,13.757
			c1.657,5.919,4.728,11.191,8.574,15.946c3.807,4.709,10.288,10.47,11.125,11.371c0.969,1.047,1.467,2.113,1.59,2.498
			c1.954,7.38,0.396,15.203-1.725,22.417c0,0-1.631,5.13-1.791,5.579c-0.031,0.137-1.746,4.951-2.52,7.12
			c-1.224,3.421-2.93,6.634-4.316,9.983c-0.023,0.057-0.291,0.771-0.363,1.009c2.102,1.529,5.838,1.776,7.143,0.632
			c-0.768-0.674-2.541-2.275-2.57-2.332c-0.164-0.191,6.801-12.08,9.72-17.982c0.511-1.034,2.085-4.48,2.112-4.54
			c0,0,3.768-8.917,3.95-14.397c0.026-0.609,0.171-0.464,0.577-0.232c3.215,1.836,6.123,4.137,9.557,5.562
			c3.053,1.263,6.358,1.937,9.631,2.353c6.354,0.812,19.418-2.337,19.502-2.245c0.593-2.739,1.334-5.075,1.949-7.552
			c0.094-0.371,0.682-0.25,0.586,0.127c-1.851,7.385-2.496,15.916-3.172,23.493c-0.504,5.64-2.773,15.626-2.383,16.778
			c0.199,0.594,2.83,3.125,3.653,5.193c0.035,0.09,0.051,0.18,0.082,0.268c0.323-0.022,0.646-0.053,0.97-0.098
			c-0.279-1.066-0.592-2.152-1.044-3.143c-0.32-0.531,0.227-0.649,0.478-0.357c0.85,0.998,1.491,2.035,1.922,3.251
			c0.111-0.028,0.219-0.051,0.33-0.079c0.459-0.127,0.906-0.295,1.339-0.487c-0.407-0.919-1.495-2.85-1.431-2.937
			c-0.083-0.195,0.235-0.535,0.555-0.195c0.003,0.002,1.474,1.554,2.101,2.447c0.516-0.336,0.984-0.717,1.407-1.142
			c-0.798-0.812-1.683-1.542-2.583-2.173c-0.242-0.169-0.06-0.468,0.179-0.5c0.061-0.033,2.412,0.889,3.325,1.597
			c0.327-0.454,0.614-0.936,0.864-1.446c-2.123-1.61-4.871-2.538-7.318-2.605c-0.11-0.001-0.187-0.053-0.239-0.126
			c-0.063-0.063-0.099-0.147-0.079-0.259c0.965-4.509,1.766-9.172,2.689-13.823c1.651-8.104,3.956-17.111,8.085-24.171
			c-0.056-0.096,0.978-1.16,1.085-1.263c4.321-4.048,8.147-6.594,11.689-11.396c3.725-5.052,6.076-11.313,8.262-17.14
			c2.182-5.834,4.205-11.758,6.1-17.688c1.785-5.597,3.404-11.254,5.535-16.727c-2.449,2.44-5.973,2.89-8.732,0.687
			C215.396,187.585,214.828,186.731,214.451,186.746z M197.323,194.255c0.123,0.4,0.176,0.799,0.206,1.203
			c0.359,0.592,0.583,1.283,0.388,1.971c-0.116,0.423-0.347,0.758-0.645,1.031c-0.051,0.098-0.107,0.193-0.194,0.279
			c-0.469,0.489-1.048,0.793-1.677,0.865c-0.292,0.16-0.663,0.187-1.053-0.016c-0.983-0.51-1.874-1.221-2.184-2.301
			c-0.309-0.311-0.359-0.713-0.239-1.074c-0.057-0.354,0.099-0.725,0.352-0.998c-0.002-0.206,0.042-0.416,0.133-0.59
			c0.197-0.381,0.52-0.571,0.872-0.615c0.249-0.489,0.797-0.816,1.366-0.662c0.234-0.08,0.496-0.095,0.744-0.016
			c0.188-0.008,0.387,0.036,0.57,0.117C196.536,193.354,197.152,193.679,197.323,194.255z"/>
		<path fill="#BF4C62" d="M186.89,294.876c-0.435,0.428-0.847,0.816-1.372,1.146c0.452,0.654,0.994,1.558,1.285,2.271
			c0.543,1.34,1.811,4.58,2.77,4.104c1.487-0.737-0.004-3.825-0.593-4.856C188.469,296.662,187.612,295.626,186.89,294.876z"/>
		<path fill="#BF4C62" d="M188.584,292.319c-0.251,0.506-0.499,1.03-0.829,1.476c0.442,0.352,1.293,1.26,1.985,2.336
			c0.838,1.299,1.988,4.049,3.018,3.363C193.945,298.701,190.59,293.876,188.584,292.319z"/>
		<path fill="#BF4C62" d="M152.139,293.876c-2.246-2.482-6.169-3.196-9.533-3.741c-0.657,0.385-1.117,0.732-1.842,0.987
			c-0.629,0.219-3.795,0.335-4.424,0.199c-0.506-0.096-1.009-0.209-1.511-0.331c0.728,1.647,3.674,7.495,4.63,6.81
			c0.377-0.271-1.334-3.6-1.796-4.478c-0.307-0.586,0.319-0.657,0.785-0.046c0.466,0.614,4.624,5.932,5.976,5.377
			c0.881-0.363-3.672-5.723-3.685-5.737c-0.493-0.401,0.003-0.765,0.308-0.525c3.277,2.609,5.889,7.397,7.57,6.463
			c0.934-0.515-2.158-5.534-4.611-6.687c-0.626-0.295,0.273-0.279,0.521-0.249c2.045,0.269,6.932,5.446,7.97,4.825
			C153.473,296.162,152.671,294.466,152.139,293.876z"/>
		<path fill="#BF4C62" d="M193.787,288.318c-0.459,0.278-0.778,0.43-1.396,0.5c1.231,0.996,1.411,1.66,1.93,2.623
			c0.497,0.939,1.08,2.42,1.859,2.221c0.897-0.232,0.177-1.992-0.229-2.663C195.527,290.307,194.325,288.97,193.787,288.318z"/>
		<path fill="#BF4C62" d="M199.326,289.37c-0.879-0.874-1.99-1.669-3.076-2.309c-0.4,0.325-0.838,0.573-1.379,0.81
			c0.859,0.574,1.886,1.225,2.703,2.095c0.988,1.058,2.512,4.405,3.659,3.963C202.676,293.371,200.116,290.158,199.326,289.37z"/>
		<path fill="#BF4C62" d="M198.447,196.367c0,2.011-2.197,3.611-4.122,3.611c-1.931,0-2.938-1.76-2.938-3.77
			s1.493-3.307,3.495-3.461C196.885,192.591,198.447,194.359,198.447,196.367z"/>
		<path fill="#BF4C62" d="M195.425,202.299c-2.167,0.433-4.126-0.757-5.227-2.577c-1.12-1.858-1.286-4.279-0.39-6.252
			c1.164-2.543,4.053-3.3,6.619-3.191c0.385,0.015,0.42,0.614,0.033,0.601c-2.288-0.097-4.672,0.429-5.932,2.517
			c-0.936,1.551-0.852,3.538-0.223,5.175c0.645,1.693,2.11,3.079,3.967,3.214c3.476,0.252,6.912-3.654,5.198-6.969
			c-0.177-0.341,0.327-0.668,0.505-0.32C201.779,197.971,198.922,201.601,195.425,202.299z"/>
		<g>
			<path fill="#815155" d="M189.387,206.509c-0.416,2.186-1.01,4.382-2.062,6.354c-0.231,0.432,0.479,0.705,0.705,0.277
				c1.079-2.025,1.681-4.294,2.109-6.543C190.23,206.119,189.479,206.031,189.387,206.509z"/>
			<path fill="#815155" d="M193.368,207.457c-0.388,2.148-0.75,4.297-1.137,6.447c-0.092,0.482,0.665,0.568,0.749,0.09
				c0.391-2.146,0.749-4.301,1.14-6.445C194.209,207.063,193.452,206.978,193.368,207.457z"/>
			<path fill="#815155" d="M216.879,199.492c-0.02,2-0.256,4.078-0.926,5.973c-0.158,0.463,0.545,0.742,0.711,0.281
				c0.686-1.959,0.951-4.096,0.973-6.164C217.641,199.099,216.885,199.005,216.879,199.492z"/>
			<path fill="#815155" d="M212.136,201.759c-0.037-0.489-0.785-0.377-0.754,0.105c0.144,2.201-0.14,4.382-0.925,6.446
				c-0.175,0.458,0.533,0.735,0.706,0.28C211.99,206.402,212.287,204.089,212.136,201.759z"/>
			<path fill="#815155" d="M206.443,205.93c-0.049-0.487-0.799-0.378-0.748,0.108c0.154,1.527-0.009,3.289-0.547,4.736
				c-0.173,0.459,0.538,0.738,0.705,0.279C206.438,209.472,206.614,207.601,206.443,205.93z"/>
			<path fill="#815155" d="M200.576,208.594c-0.534,2.247-0.745,4.516-0.758,6.827c-0.008,0.483,0.744,0.578,0.748,0.09
				c0.016-2.311,0.228-4.576,0.758-6.826C201.438,208.207,200.687,208.123,200.576,208.594z"/>
			<path fill="#815155" d="M195.64,217.126c-0.228,2.412-1.188,4.451-2.77,6.269c-0.322,0.37,0.294,0.814,0.613,0.446
				c1.661-1.91,2.675-4.092,2.913-6.625C196.441,216.732,195.689,216.641,195.64,217.126z"/>
			<path fill="#815155" d="M188.695,221.118c-1.434,1.788-2.949,3.524-4.673,5.049c-0.361,0.325,0.114,0.92,0.479,0.593
				c1.768-1.57,3.328-3.357,4.807-5.193C189.616,221.187,189.003,220.74,188.695,221.118z"/>
			<path fill="#815155" d="M189.645,226.619c-1.145,1.842-2.766,3.385-4.773,4.24c-0.453,0.188-0.15,0.884,0.301,0.693
				c2.125-0.9,3.876-2.537,5.088-4.484C190.514,226.654,189.906,226.203,189.645,226.619z"/>
			<path fill="#815155" d="M181.823,224.24c-0.758,1.475-1.753,2.829-2.917,4.014c-0.34,0.346,0.135,0.941,0.479,0.592
				c1.257-1.284,2.324-2.727,3.147-4.329C182.758,224.082,182.047,223.805,181.823,224.24z"/>
			<path fill="#815155" d="M188.461,216.463c-0.551,1.068-1.32,2.024-2.161,2.877c-0.341,0.345,0.137,0.94,0.476,0.591
				c0.944-0.951,1.773-1.998,2.396-3.189C189.393,216.306,188.684,216.033,188.461,216.463z"/>
			<path fill="#815155" d="M206.152,216.773c-0.412,2.139-1.109,4.193-2.201,6.081c-0.246,0.419,0.364,0.87,0.611,0.448
				c1.159-2.005,1.909-4.168,2.343-6.437C207,216.382,206.247,216.298,206.152,216.773z"/>
			<path fill="#815155" d="M198.749,224.343c-0.936,1.643-2.097,3.244-3.535,4.479c-0.371,0.316,0.104,0.911,0.476,0.594
				c1.488-1.283,2.705-2.924,3.668-4.626C199.598,224.371,198.988,223.917,198.749,224.343z"/>
			<path fill="#815155" d="M196.094,232.876c-1.339,1.688-2.939,3.078-4.965,3.857c-0.455,0.175-0.152,0.871,0.302,0.697
				c2.144-0.83,3.857-2.32,5.273-4.105C197.008,232.942,196.396,232.492,196.094,232.876z"/>
			<path fill="#815155" d="M211.762,213.525c-0.388,1.807-1.118,3.449-2.202,4.939c-0.29,0.395,0.321,0.844,0.607,0.451
				c1.17-1.6,1.932-3.365,2.347-5.301C212.614,213.134,211.86,213.05,211.762,213.525z"/>
			<path fill="#815155" d="M205.905,230.119c-0.894,2.543-2.365,4.921-4.247,6.857c-0.334,0.346,0.137,0.94,0.479,0.592
				c1.97-2.033,3.536-4.496,4.474-7.172C206.773,229.933,206.067,229.654,205.905,230.119z"/>
			<path fill="#815155" d="M203.255,227.842c-0.436,1.466-1.081,2.888-2.04,4.085c-0.305,0.382,0.305,0.83,0.611,0.448
				c0.997-1.243,1.68-2.733,2.129-4.257C204.094,227.654,203.389,227.373,203.255,227.842z"/>
			<path fill="#815155" d="M197.417,242.927c-1.215,1.559-2.89,2.684-4.771,3.288c-0.469,0.149-0.16,0.845,0.302,0.694
				c2.002-0.643,3.786-1.875,5.083-3.534C198.334,242.988,197.722,242.541,197.417,242.927z"/>
			<path fill="#815155" d="M179.662,233.564c-1.562,1.519-3.396,2.715-5.408,3.549c-0.455,0.187-0.152,0.885,0.299,0.696
				c2.072-0.859,3.981-2.091,5.588-3.655C180.488,233.816,180.019,233.221,179.662,233.564z"/>
			<path fill="#815155" d="M165.823,240.389c-1.467,0.898-3.03,1.589-4.745,1.816c-0.484,0.065-0.378,0.815,0.107,0.751
				c1.855-0.246,3.529-1.008,5.112-1.977C166.717,240.727,166.233,240.138,165.823,240.389z"/>
			<path fill="#815155" d="M178.148,240.769c-1.305,1.083-2.867,1.939-4.557,2.195c-0.482,0.072-0.381,0.824,0.108,0.75
				c1.821-0.274,3.521-1.188,4.922-2.354C178.998,241.046,178.522,240.457,178.148,240.769z"/>
			<path fill="#815155" d="M188.509,236.478c-0.849,1.467-1.909,2.791-3.345,3.723c-0.411,0.265,0.066,0.854,0.477,0.592
				c1.48-0.965,2.596-2.349,3.482-3.865C189.365,236.509,188.755,236.056,188.509,236.478z"/>
			<path fill="#815155" d="M191.42,242.475c-1.536,1.567-2.847,3.358-3.525,5.469c-0.152,0.46,0.55,0.74,0.707,0.276
				c0.633-1.982,1.849-3.678,3.296-5.154C192.236,242.72,191.766,242.125,191.42,242.475z"/>
			<path fill="#815155" d="M184.488,251.608c-0.215,1.776-0.532,3.538-0.764,5.312c-0.063,0.483,0.689,0.572,0.754,0.088
				c0.228-1.773,0.549-3.531,0.757-5.31C185.291,251.21,184.539,251.124,184.488,251.608z"/>
			<path fill="#815155" d="M186.73,255.81c-0.012,1.007-0.182,1.998-0.546,2.939c-0.171,0.459,0.534,0.734,0.705,0.279
				c0.384-1.002,0.581-2.059,0.595-3.13C187.493,255.417,186.739,255.323,186.73,255.81z"/>
			<path fill="#815155" d="M184.837,263.771c-0.016,0.954-0.161,1.922-0.383,2.848c-0.111,0.475,0.642,0.557,0.753,0.088
				c0.225-0.924,0.371-1.89,0.384-2.842C185.594,263.378,184.84,263.287,184.837,263.771z"/>
			<path fill="#815155" d="M181.574,274.666c-0.142-0.47-0.836-0.16-0.691,0.303c0.155,0.512,0.15,1.093-0.004,1.604
				c-0.145,0.469,0.562,0.749,0.706,0.279C181.801,276.132,181.796,275.385,181.574,274.666z"/>
			<path fill="#815155" d="M183.123,269.363c0-0.484-0.752-0.579-0.752-0.089c0,1.106-0.009,2.228,0.189,3.32
				c0.087,0.479,0.834,0.374,0.75-0.105C183.123,271.458,183.123,270.406,183.123,269.363z"/>
			<path fill="#815155" d="M183.311,262.058c-0.068-0.484-0.82-0.377-0.75,0.108c0.172,1.183-0.036,2.331-0.545,3.408
				c-0.212,0.444,0.497,0.721,0.704,0.278C183.283,264.666,183.502,263.362,183.311,262.058z"/>
			<path fill="#815155" d="M180.046,245.32c-1.07,0.986-2.612,1.581-3.896,2.223c-0.439,0.217-0.139,0.914,0.299,0.695
				c1.344-0.67,2.957-1.295,4.071-2.328C180.875,245.581,180.399,244.987,180.046,245.32z"/>
			<path fill="#815155" d="M178.714,249.494c-1.076,1.024-2.521,1.69-3.895,2.221c-0.454,0.175-0.151,0.871,0.302,0.698
				c1.433-0.553,2.951-1.263,4.071-2.329C179.541,249.748,179.072,249.156,178.714,249.494z"/>
			<path fill="#815155" d="M176.629,254.99c-1.885,1.214-4.029,1.966-6.26,2.195c-0.488,0.051-0.377,0.803,0.105,0.752
				c2.371-0.248,4.627-1.068,6.632-2.356C177.52,255.317,177.041,254.728,176.629,254.99z"/>
			<path fill="#815155" d="M184.715,236.289c-0.48,0.637-1.021,1.213-1.741,1.583c-0.433,0.225-0.13,0.923,0.3,0.695
				c0.842-0.434,1.488-1.081,2.055-1.829C185.627,236.349,185.014,235.9,184.715,236.289z"/>
			<path fill="#815155" d="M168.564,243.75c-1.74,0.77-3.508,1.479-5.31,2.086c-0.468,0.158-0.159,0.852,0.302,0.697
				c1.805-0.611,3.57-1.318,5.312-2.087C169.314,244.248,169.012,243.554,168.564,243.75z"/>
			<path fill="#815155" d="M171.598,247.923c-2.152,0.744-4.368,1.055-6.629,0.729c-0.485-0.073-0.574,0.683-0.092,0.754
				c2.392,0.341,4.748,0.001,7.024-0.79C172.361,248.457,172.057,247.765,171.598,247.923z"/>
			<path fill="#815155" d="M169.515,252.472c-1.724,0.541-3.528,0.701-5.302,0.35c-0.482-0.094-0.57,0.663-0.092,0.756
				c1.909,0.376,3.846,0.17,5.692-0.41C170.279,253.022,169.973,252.327,169.515,252.472z"/>
			<path fill="#815155" d="M166.385,259.082c-2.241,0.496-4.35,0.17-6.441-0.736c-0.451-0.193-0.725,0.512-0.28,0.706
				c2.202,0.95,4.474,1.3,6.827,0.783C166.966,259.732,166.863,258.976,166.385,259.082z"/>
			<path fill="#815155" d="M152.548,257.019c-1.55-0.397-3.073-0.897-4.552-1.518c-0.451-0.189-0.73,0.518-0.277,0.706
				c1.475,0.62,2.999,1.118,4.549,1.519C152.736,257.845,153.022,257.139,152.548,257.019z"/>
			<path fill="#815155" d="M141.355,249.98c-1.289,0.25-2.281,1.053-3.094,2.049c-0.311,0.378,0.298,0.824,0.609,0.447
				c0.682-0.829,1.51-1.535,2.59-1.744C141.941,250.638,141.837,249.889,141.355,249.98z"/>
			<path fill="#815155" d="M149.323,250.57c-1.472-0.377-2.923-0.849-4.362-1.323c-0.461-0.157-0.74,0.552-0.279,0.702
				c1.439,0.479,2.895,0.953,4.361,1.328C149.512,251.398,149.797,250.694,149.323,250.57z"/>
			<path fill="#815155" d="M145.91,253.416c-0.81-0.213-1.518-0.598-2.191-1.092c-0.395-0.286-0.842,0.322-0.446,0.613
				c0.717,0.527,1.495,0.956,2.359,1.184C146.098,254.247,146.381,253.544,145.91,253.416z"/>
			<path fill="#815155" d="M151.787,246.947c-1.866,0.171-3.725,0.171-5.589,0c-0.491-0.046-0.579,0.707-0.092,0.752
				c1.93,0.178,3.854,0.176,5.788-0.002C152.381,247.652,152.268,246.901,151.787,246.947z"/>
			<path fill="#815155" d="M156.904,249.602c-1.471,0.353-2.938,0.538-4.453,0.378c-0.486-0.053-0.576,0.699-0.092,0.754
				c1.58,0.168,3.115-0.012,4.654-0.383C157.482,250.239,157.379,249.486,156.904,249.602z"/>
			<path fill="#815155" d="M159.747,252.446c-1.331,0.363-2.69,0.548-4.069,0.376c-0.488-0.061-0.578,0.696-0.093,0.756
				c1.442,0.178,2.88,0,4.269-0.381C160.322,253.07,160.217,252.316,159.747,252.446z"/>
			<path fill="#815155" d="M156.806,243.56c-0.926,0.432-2.013,0.532-3.026,0.539c-0.482,0.008-0.578,0.759-0.092,0.756
				c1.152-0.012,2.369-0.106,3.425-0.598C157.551,244.05,157.252,243.353,156.806,243.56z"/>
			<path fill="#815155" d="M140.031,243.367c-1.667-0.582-3.165-1.486-4.656-2.418c-0.41-0.258-0.862,0.352-0.447,0.609
				c1.548,0.968,3.098,1.91,4.824,2.514C140.215,244.231,140.494,243.529,140.031,243.367z"/>
			<path fill="#815155" d="M136.715,244.669c-1.033-0.189-2.017-0.646-2.784-1.379c-0.35-0.332-0.943,0.14-0.589,0.479
				c0.917,0.878,2.037,1.423,3.279,1.654C137.105,245.512,137.193,244.757,136.715,244.669z"/>
			<path fill="#815155" d="M138.225,247.923c-1.248,0.436-2.344,1.191-3.189,2.207c-0.309,0.377,0.299,0.824,0.609,0.45
				c0.762-0.917,1.762-1.569,2.883-1.964C138.986,248.457,138.683,247.761,138.225,247.923z"/>
			<path fill="#815155" d="M137.432,257.326c-0.037,1.272-0.486,2.421-1.256,3.426c-0.299,0.387,0.312,0.836,0.611,0.445
				c0.84-1.094,1.357-2.391,1.395-3.779C138.197,256.931,137.445,256.836,137.432,257.326z"/>
			<path fill="#815155" d="M134.391,254.853c-0.088-0.479-0.838-0.375-0.75,0.105c0.334,1.878,0.189,3.73-0.547,5.497
				c-0.189,0.454,0.516,0.729,0.701,0.278C134.582,258.857,134.744,256.849,134.391,254.853z"/>
			<path fill="#815155" d="M133.062,266.419c-0.07-0.483-0.821-0.377-0.749,0.108c0.151,1.051,0.091,2.239-0.359,3.222
				c-0.203,0.442,0.503,0.719,0.706,0.277C133.167,268.933,133.234,267.594,133.062,266.419z"/>
			<path fill="#815155" d="M136.291,264.532c-0.019,1.043-0.35,1.964-0.876,2.853c-0.242,0.42,0.362,0.873,0.614,0.449
				c0.585-1,0.991-2.036,1.017-3.213C137.057,264.136,136.304,264.044,136.291,264.532z"/>
			<path fill="#815155" d="M130.627,274.488c-0.391,1.286-1.025,2.461-1.85,3.52c-0.299,0.383,0.311,0.832,0.613,0.446
				c0.862-1.104,1.535-2.347,1.942-3.687C131.473,274.3,130.771,274.017,130.627,274.488z"/>
			<path fill="#815155" d="M127.215,277.332c-0.379,1.1-0.88,2.141-1.473,3.141c-0.244,0.414,0.363,0.869,0.615,0.445
				c0.622-1.052,1.163-2.148,1.563-3.307C128.079,277.149,127.373,276.869,127.215,277.332z"/>
			<path fill="#815155" d="M125.863,284.254c-0.032,0.804-0.57,1.718-1.189,2.212c-0.381,0.308,0.095,0.897,0.475,0.594
				c0.758-0.608,1.429-1.727,1.467-2.718C126.637,283.855,125.885,283.763,125.863,284.254z"/>
			<path fill="#815155" d="M135.384,157.851c-1.272,0.723-2.558,1.404-3.692,2.328c-0.379,0.312,0.096,0.9,0.475,0.592
				c1.084-0.881,2.304-1.535,3.516-2.223C136.104,158.31,135.806,157.611,135.384,157.851z"/>
			<path fill="#815155" d="M148.37,158.583c-2.296,0.041-4.572,0.536-6.824,0.948c-0.479,0.09-0.376,0.841,0.108,0.753
				c2.251-0.415,4.523-0.909,6.822-0.948C148.968,159.328,148.857,158.574,148.37,158.583z"/>
			<path fill="#815155" d="M136.053,162.457c-1.754,1.159-3.557,2.252-5.311,3.412c-0.405,0.271,0.073,0.859,0.477,0.591
				c1.756-1.161,3.555-2.249,5.307-3.413C136.936,162.776,136.455,162.187,136.053,162.457z"/>
			<path fill="#815155" d="M127.264,165.183c-0.926,1.455-2.031,2.774-3.034,4.169c-0.286,0.397,0.323,0.847,0.61,0.45
				c1.008-1.395,2.107-2.719,3.034-4.173C128.135,165.218,127.527,164.768,127.264,165.183z"/>
			<path fill="#815155" d="M120.577,171.526c-1.139,2.093-2.251,4.188-3.034,6.444c-0.159,0.463,0.548,0.742,0.706,0.279
				c0.783-2.257,1.894-4.355,3.034-6.446C121.519,171.375,120.809,171.1,120.577,171.526z"/>
			<path fill="#815155" d="M124.229,172.385c-0.849,1.239-1.966,2.337-3.262,3.103c-0.413,0.246-0.114,0.944,0.305,0.695
				c1.415-0.834,2.637-1.993,3.567-3.346C125.113,172.435,124.504,171.982,124.229,172.385z"/>
			<path fill="#815155" d="M114.319,181.763c-0.57,1.667-1.323,3.264-1.895,4.93c-0.158,0.461,0.547,0.742,0.707,0.279
				c0.57-1.666,1.322-3.262,1.893-4.932C115.184,181.58,114.479,181.298,114.319,181.763z"/>
			<path fill="#815155" d="M116.217,182.523c-0.18,0.67-0.518,1.236-0.9,1.81c-0.271,0.407,0.337,0.858,0.613,0.448
				c0.414-0.621,0.797-1.25,0.994-1.979C117.046,182.335,116.344,182.051,116.217,182.523z"/>
			<path fill="#815155" d="M111.477,191.814c-0.732,1.676-1.311,3.392-1.541,5.211c-0.061,0.487,0.691,0.577,0.752,0.092
				c0.227-1.758,0.789-3.408,1.494-5.025C112.377,191.644,111.672,191.365,111.477,191.814z"/>
			<path fill="#815155" d="M114.326,218.952c-0.77-0.596-1.322-1.38-1.82-2.205c-0.255-0.419-0.841,0.062-0.596,0.473
				c0.539,0.887,1.145,1.71,1.971,2.345C114.269,219.863,114.719,219.251,114.326,218.952z"/>
			<path fill="#815155" d="M109.711,208.677c-0.336-0.697-0.543-1.428-0.729-2.176c-0.12-0.471-0.869-0.369-0.755,0.105
				c0.208,0.811,0.424,1.617,0.79,2.373C109.228,209.419,109.926,209.12,109.711,208.677z"/>
			<path fill="#815155" d="M110.504,201.769c0,0.476-0.049,0.926-0.307,1.335c-0.258,0.413,0.352,0.865,0.61,0.45
				c0.33-0.527,0.45-1.08,0.45-1.696C111.258,201.375,110.504,201.279,110.504,201.769z"/>
			<path fill="#815155" d="M117.053,227.361c-0.695-0.705-1.303-1.483-1.896-2.273c-0.291-0.391-0.881,0.086-0.59,0.477
				c0.596,0.791,1.2,1.57,1.897,2.277C116.804,228.185,117.395,227.712,117.053,227.361z"/>
			<path fill="#815155" d="M111.417,211.712l-0.565-1.708c-0.158-0.463-0.851-0.158-0.699,0.304l0.57,1.707
				C110.879,212.476,111.572,212.171,111.417,211.712z"/>
			<path fill="#815155" d="M110.852,215.123l-0.57-1.705c-0.156-0.462-0.85-0.156-0.694,0.303l0.565,1.705
				C110.309,215.894,111.002,215.585,110.852,215.123z"/>
			<path fill="#815155" d="M116.349,223.469c-0.319-0.6-0.897-1.111-1.535-1.342c-0.458-0.165-0.743,0.542-0.278,0.705
				c0.441,0.164,0.896,0.515,1.118,0.937C115.883,224.201,116.578,223.902,116.349,223.469z"/>
			<path fill="#815155" d="M121.156,232.602c-0.938-0.573-1.652-1.33-2.153-2.306c-0.224-0.436-0.916-0.135-0.698,0.3
				c0.564,1.093,1.356,1.975,2.401,2.618C121.119,233.471,121.574,232.861,121.156,232.602z"/>
			<path fill="#815155" d="M124.568,234.123c-0.537-0.361-1.068-0.722-1.448-1.26c-0.278-0.402-0.866,0.076-0.589,0.475
				c0.41,0.591,1,1.003,1.591,1.396C124.523,235.003,124.975,234.392,124.568,234.123z"/>
			<path fill="#815155" d="M120.844,229.83c-0.326-0.488-0.721-0.912-1.135-1.328c-0.145-0.146-0.359-0.199-0.535-0.057
				c-0.148,0.117-0.199,0.387-0.057,0.531c0.415,0.416,0.807,0.841,1.137,1.326C120.529,230.71,121.119,230.232,120.844,229.83z"/>
			<path fill="#815155" d="M126.273,238.292c-0.977-0.599-1.853-1.317-2.581-2.206c-0.312-0.378-0.903,0.097-0.592,0.477
				c0.765,0.935,1.695,1.711,2.728,2.343C126.237,239.157,126.693,238.549,126.273,238.292z"/>
			<path fill="#815155" d="M129.602,237.869c-0.76-0.214-1.479-0.761-1.93-1.402c-0.277-0.402-0.867,0.075-0.588,0.475
				c0.518,0.736,1.367,1.387,2.24,1.632C129.79,238.703,130.073,237.998,129.602,237.869z"/>
			<path fill="#815155" d="M131.206,242.274c-0.602-0.401-1.218-0.846-1.636-1.446c-0.277-0.403-0.869,0.075-0.59,0.475
				c0.455,0.654,1.125,1.148,1.778,1.584C131.161,243.159,131.611,242.548,131.206,242.274z"/>
			<path fill="#815155" d="M144.579,156.308c-1.448,0.406-2.914,0.73-4.36,1.137c-0.463,0.131-0.363,0.885,0.106,0.751
				c1.448-0.406,2.915-0.731,4.36-1.138C145.154,156.926,145.05,156.177,144.579,156.308z"/>
			<path fill="#815155" d="M153.209,161.806c-2.367-0.562-4.77-0.745-7.203-0.759c-0.486-0.002-0.578,0.752-0.092,0.753
				c2.434,0.015,4.835,0.198,7.207,0.759C153.596,162.671,153.681,161.919,153.209,161.806z"/>
			<path fill="#815155" d="M160.893,157.279c-1.871-0.732-3.77-1.309-5.785-1.353c-0.484-0.009-0.578,0.745-0.092,0.754
				c1.957,0.042,3.787,0.595,5.597,1.304C161.066,158.164,161.346,157.458,160.893,157.279z"/>
			<path fill="#815155" d="M153.875,157.088c-1.521-0.413-3.085-0.587-4.644-0.782c-0.487-0.061-0.579,0.693-0.092,0.754
				c1.49,0.188,3.003,0.34,4.456,0.736C154.062,157.921,154.344,157.218,153.875,157.088z"/>
			<path fill="#815155" d="M161.365,162.752c-1.546-0.235-3.078-0.749-4.373-1.636c-0.401-0.275-0.852,0.337-0.447,0.614
				c1.404,0.96,3.055,1.517,4.729,1.775C161.76,163.583,161.849,162.828,161.365,162.752z"/>
			<path fill="#815155" d="M166.285,162.826c-2.089-1.51-4.254-2.852-6.721-3.65c-0.463-0.15-0.746,0.555-0.28,0.705
				c2.407,0.779,4.513,2.086,6.555,3.557C166.233,163.722,166.683,163.112,166.285,162.826z"/>
		</g>
	</g>
	<path fill="#653B46" d="M207.777,174.117c-0.27-0.089-0.541,0.087-0.585,0.374c-0.04,0.26,0.099,0.493,0.344,0.573
		c0.853,0.272,3.603,1.308,3.231,3.205c-0.347,1.783-2.274,2.64-3.917,3.187c-0.233,0.075-0.36,0.29-0.319,0.533
		c0.04,0.245,0.239,0.423,0.469,0.423c0.053,0,0.108-0.008,0.162-0.027c2.092-0.699,4.591-2.005,4.6-4.26
		C211.765,175.865,209.597,174.698,207.777,174.117z"/>
</g>
</svg>
