<?xml version="1.0" encoding="utf-8"?>
<!-- Generator: Adobe Illustrator 16.0.0, SVG Export Plug-In . SVG Version: 6.00 Build 0)  -->
<!DOCTYPE svg PUBLIC "-//W3C//DTD SVG 1.1//EN" "http://www.w3.org/Graphics/SVG/1.1/DTD/svg11.dtd">
<svg version="1.1" xmlns="http://www.w3.org/2000/svg" xmlns:xlink="http://www.w3.org/1999/xlink" x="0px" y="0px" width="1280px"
	 height="406.904px" viewBox="0 0 1280 406.904" enable-background="new 0 0 1280 406.904" xml:space="preserve">
<g id="grid" display="none">
</g>
<g id="Layer_1">
	<path fill="#EBF2F1" d="M1352.022,230.067c-1.181-0.567-2.489-0.93-3.843-1.115c-7.832-60.698-34.359-117.977-48.182-177.53
		c-1.342-5.783-8.225-8.98-14.107-8.332c-2.075-1.283-4.748-1.927-8.018-1.546c-78.305,9.164-157.037-1.018-234.525-11.9
		c-39.246-5.513-78.455-11.332-117.908-15.389c-41.155-4.233-82.611-5.79-123.958-7.365C630.721,0.382,459.341,4.435,289.551,23.443
		C184.5,35.204,79.702,49.792-21.33,80.425c-12.053,3.654-10.421,17.836-2.041,22.516c-8.845,97.896-11.468,196.877-2.405,294.819
		c1.232,13.322,19.99,14.401,24.865,4.837c72.021-8.104,142.923-24.576,213.74-38.897c37.436-7.57,74.955-14.849,112.79-20.424
		c43.069-6.346,86.656-9.676,130.201-11.112c172.51-5.689,343.53,22.75,515.186,33.645c55.759,3.538,112.226,7.044,168.084,3.942
		c53.377-2.967,109.02-13.27,153.383-43.077c29.719-19.966,51.856-48.152,65.253-80.08
		C1360.338,240.367,1358.78,233.313,1352.022,230.067z"/>
</g>
</svg>
