<?xml version="1.0" encoding="utf-8"?>
<!-- Generator: Adobe Illustrator 16.0.0, SVG Export Plug-In . SVG Version: 6.00 Build 0)  -->
<!DOCTYPE svg PUBLIC "-//W3C//DTD SVG 1.1//EN" "http://www.w3.org/Graphics/SVG/1.1/DTD/svg11.dtd">
<svg version="1.1" id="Layer_1" xmlns="http://www.w3.org/2000/svg" xmlns:xlink="http://www.w3.org/1999/xlink" x="0px" y="0px"
	 width="432.6px" height="288px" viewBox="0 0 432.6 288" enable-background="new 0 0 432.6 288" xml:space="preserve">
<g>
	<g>
		<path fill="#3E3795" d="M71.333,325.339c-2.657-8.083-5.947-15.837-9.624-23.398c-0.56-3.308-1.051-6.624-1.518-9.948
			c0.206-0.251,0.344-0.57,0.32-0.996c-0.906-16.256,0.96-32.478,0.522-48.733c-0.056-2.004-3.164-1.892-3.112,0.116
			c0.242,8.782-0.191,17.562-0.498,26.336c-1.224-11.893-2.287-23.812-3.695-35.674c0.228-0.185,0.422-0.411,0.525-0.746
			c2.219-7.067,4.969-13.954,7.629-20.865c0.711-1.847-2.019-3.34-2.74-1.47c-2.12,5.499-4.283,10.979-6.219,16.542
			c-1.893-14.394-4.42-28.675-8.551-42.7c-0.562-1.927-3.541-1.02-2.977,0.9c10.387,35.282,10.727,72.244,15.83,108.453
			c-4.438-8.336-9.237-16.496-14.126-24.609c0.241-0.331,0.365-0.766,0.237-1.272c-2.423-10.062-1.992-21.998-1.492-32.27
			c0.103-2-3.003-1.876-3.102,0.116c-0.307,6.16-0.532,12.845-0.188,19.405c-4.983-15.807-11.643-31.531-20.782-45.162
			c-1.117-1.661-3.771-0.039-2.651,1.627c9.284,13.844,15.944,29.785,20.9,45.825c-6.078-10.111-12.021-20.287-17.214-30.861
			c-0.887-1.805-3.527-0.155-2.65,1.628c12.727,25.904,29.98,49.442,42.588,75.337c0.062,0.374,0.133,0.741,0.189,1.113
			c-5.295-4.745-11.094-8.863-17.388-12.279c-1.763-0.953-3.229,1.785-1.468,2.742c8.431,4.568,15.914,10.402,22.473,17.386
			c0.113,0.121,0.241,0.183,0.363,0.259c1.987,4.609,3.859,9.281,5.44,14.098C68.982,328.138,71.966,327.246,71.333,325.339z"/>
		<path fill="#AC7A2B" d="M47.164,184.188c0,2.689-2.18,4.86-4.857,4.86c-2.688,0-4.861-2.171-4.861-4.86
			c0-2.682,2.174-4.857,4.861-4.857C44.984,179.331,47.164,181.507,47.164,184.188z"/>
		<path fill="#AC7A2B" d="M63.492,210.244c0,2.251-1.825,4.082-4.078,4.082c-2.258,0-4.09-1.831-4.09-4.082
			c0-2.255,1.832-4.086,4.09-4.086C61.667,206.158,63.492,207.989,63.492,210.244z"/>
		<path fill="#AC7A2B" d="M61.741,241.445c0,1.235-0.995,2.237-2.231,2.237c-1.237,0-2.239-1.002-2.239-2.237
			c0-1.233,1.002-2.235,2.239-2.235C60.746,239.21,61.741,240.212,61.741,241.445z"/>
		<path fill="#AC7A2B" d="M42.887,233.376c0,1.504-1.215,2.721-2.722,2.721c-1.501,0-2.72-1.217-2.72-2.721
			c0-1.503,1.219-2.721,2.72-2.721C41.672,230.655,42.887,231.873,42.887,233.376z"/>
		<circle fill="#AC7A2B" cx="17.027" cy="226.183" r="3.692"/>
		<path fill="#AC7A2B" d="M18.777,208.881c0,3.436-2.781,6.22-6.223,6.22c-3.432,0-6.22-2.784-6.22-6.22s2.788-6.222,6.22-6.222
			C15.996,202.659,18.777,205.445,18.777,208.881z"/>
	</g>
	<g>
		<g>
			<path fill="#3E3795" d="M101.351,231.662c-2.918,6.708-5.791,13.434-8.688,20.151c-0.404-5.719-0.745-11.451-1.034-17.179
				c0.118-7.161,0.02-14.317-0.31-21.475c-0.093-2-3.201-1.895-3.113,0.115c0.025,0.459,0.02,0.918,0.039,1.381
				c-0.338,0.261-0.582,0.654-0.557,1.212c0.223,5.915,0.477,11.823,0.776,17.733c-0.035,2.634-0.035,5.269-0.138,7.896
				c-2.185-1.512-4.039-3.95-5.658-5.813c-3.049-3.522-5.818-7.337-8.17-11.355c-1.016-1.735-3.662-0.101-2.646,1.627
				c2.492,4.264,5.477,8.209,8.675,11.979c2.091,2.47,4.644,5.71,7.704,7.1c0.025,0.674,0.432,1.068,0.939,1.221
				c0.248,3.911,0.535,7.809,0.834,11.71c-0.02,0.045-0.037,0.089-0.059,0.141c-0.26,0.599-0.123,1.145,0.182,1.564
				c1.113,13.789,2.631,27.536,4.821,41.222c0.312,1.952,3.425,1.861,3.105-0.118c-2.244-14.062-3.743-28.198-4.86-42.365
				c3.658-8.415,7.234-16.866,10.901-25.273C104.89,231.312,102.156,229.828,101.351,231.662z"/>
			<path fill="#AC7A2B" d="M93.878,213.674c0,2.846-2.308,5.151-5.15,5.151c-2.848,0-5.154-2.306-5.154-5.151
				c0-2.845,2.307-5.15,5.154-5.15C91.57,208.523,93.878,210.829,93.878,213.674z"/>
			<path fill="#AC7A2B" d="M77.648,224.753c0,2.038-1.657,3.697-3.698,3.697c-2.037,0-3.693-1.659-3.693-3.697
				c0-2.04,1.656-3.696,3.693-3.696C75.991,221.057,77.648,222.713,77.648,224.753z"/>
			<circle fill="#AC7A2B" cx="102.724" cy="231.949" r="4.08"/>
		</g>
		<g>
			<path fill="#3E3795" d="M115.048,230.022c0.169-0.124,0.326-0.294,0.451-0.516c3.156-5.672,4.922-12.775,6.369-19.058
				c0.453-1.953-2.585-2.641-3.037-0.686c-1.292,5.598-2.862,11.848-5.504,17.066c-5.047-9.186-10.572-18.066-16.04-26.61
				c3.338-1.864,6.854-4.286,9.155-7.186c1.241-1.557-1.003-3.712-2.251-2.144c-2.333,2.938-5.95,5.311-9.306,7.106
				c-5.648-2.583-11.098-6.404-14.685-11.515c-1.149-1.635-3.802-0.015-2.648,1.631c4.045,5.766,10.175,10.158,16.592,12.961
				c16.821,26.206,34.444,55.587,36.577,87.375c0.133,1.998,3.24,1.894,3.107-0.117C132.458,267.85,124.809,248.346,115.048,230.022
				z"/>
			<path fill="#AC7A2B" d="M108.952,192.874c0,2.368-1.914,4.277-4.282,4.277c-2.359,0-4.278-1.909-4.278-4.277
				c0-2.366,1.919-4.278,4.278-4.278C107.038,188.596,108.952,190.508,108.952,192.874z"/>
			<path fill="#AC7A2B" d="M82.892,187.232c0,2.469-1.996,4.472-4.471,4.472c-2.465,0-4.471-2.003-4.471-4.472
				c0-2.468,2.006-4.471,4.471-4.471C80.896,182.762,82.892,184.765,82.892,187.232z"/>
			<path fill="#AC7A2B" d="M125.079,209.106c0,2.522-2.045,4.567-4.565,4.567c-2.524,0-4.571-2.045-4.571-4.567
				c0-2.526,2.047-4.573,4.571-4.573C123.034,204.533,125.079,206.58,125.079,209.106z"/>
		</g>
		<g>
			<path fill="#3E3795" d="M144.654,259.026c4.334-4.547,8.615-9.134,12.904-13.718c1.374-1.468-0.932-3.559-2.298-2.091
				c-3.543,3.777-7.086,7.55-10.643,11.308c-0.037-5.867-0.064-11.743-0.094-17.613c5.403-6.946,10.124-14.461,14.416-22.124
				c0.983-1.747-1.801-3.152-2.775-1.402c-3.545,6.319-7.381,12.524-11.662,18.385c-0.033-6.373-0.064-12.743-0.101-19.116
				c0.331-0.105,0.642-0.325,0.832-0.763c1.211-2.778,4.194-5.392,6.116-7.684c2.97-3.551,5.984-7.064,8.995-10.579
				c1.3-1.52-0.999-3.613-2.304-2.092c-3.012,3.517-6.017,7.036-8.996,10.576c-1.668,1.994-3.967,4.187-5.526,6.527
				c-3.093-6.843-5.266-14.363-7.232-21.561c-0.532-1.942-3.492-0.993-2.971,0.936c2.133,7.79,4.523,15.87,7.973,23.207
				c0.049,8.274,0.096,16.555,0.13,24.826c-0.106,0.325-0.088,0.644,0.008,0.939c0.037,6.938,0.07,13.869,0.109,20.806
				c-0.034,0.049-0.076,0.091-0.115,0.127c-0.701,0.742-0.457,1.635,0.144,2.157c0.075,12.019,0.157,24.039,0.322,36.059
				c0.021,2.012,3.134,1.854,3.108-0.148C144.823,283.668,144.732,271.35,144.654,259.026z"/>
			<path fill="#AC7A2B" d="M140.814,187.565c-0.764,3.051-3.858,4.899-6.905,4.137c-3.042-0.763-4.894-3.85-4.13-6.899
				c0.762-3.044,3.85-4.896,6.893-4.134C139.719,181.432,141.577,184.521,140.814,187.565z"/>
			<circle fill="#AC7A2B" cx="157.934" cy="194.41" r="5.445"/>
			<path fill="#AC7A2B" d="M160.707,216.95c-0.547,2.184-2.765,3.516-4.952,2.968c-2.184-0.547-3.515-2.768-2.968-4.951
				c0.548-2.189,2.767-3.516,4.951-2.968C159.925,212.546,161.255,214.761,160.707,216.95z"/>
			<circle fill="#AC7A2B" cx="156.808" cy="244.933" r="3.014"/>
		</g>
		<g>
			<path fill="#3E3795" d="M220.297,227.103c-6.515,9.458-14.972,17.161-23.65,24.588c0.237-1.397,0.478-2.794,0.716-4.188
				c0.628-3.702,1.38-7.454,1.56-11.211c0.093-1.996-3.004-2.331-3.095-0.325c-0.18,3.762-0.933,7.516-1.559,11.22
				c-0.379,2.227-1.173,4.884-1.257,7.299c-3.289,2.55-6.533,5.171-9.812,7.734c0.438-7.483,0.716-15.02,0.221-22.468
				c0.433-0.46,0.623-1.157,0.306-1.754c4.806-6.12,9.265-12.571,12.946-19.425c0.945-1.761-1.968-2.847-2.908-1.102
				c-2.963,5.507-6.496,10.755-10.274,15.772c2.653-8.433,3.541-17.657,3.358-26.407c-0.04-1.974-3.137-2.33-3.095-0.324
				c0.195,9.247-0.756,19.099-3.894,27.841c-0.001,0.007,0.006,0.012-0.002,0.016c-3.354-3.646-5.921-8.333-7.912-12.604
				c-0.848-1.815-3.703-0.576-2.855,1.244c2.559,5.484,5.994,11.482,10.665,15.595c0.021,0.406,0.234,0.764,0.546,1.029
				c0.827,11.718-0.24,23.689-1.043,35.353c-0.543,7.857-2.285,16.36-1.721,24.241c0.139,2.003,3.219,1.515,3.073-0.474
				c-0.633-8.754,1.405-18.35,1.985-27.094c0.119-1.785,0.238-3.589,0.36-5.39c0.106-0.049,0.218-0.077,0.322-0.156
				c3.27-2.473,6.442-5.06,9.651-7.603c0.299-0.002,0.607-0.085,0.896-0.334c0.382-0.323,0.762-0.646,1.141-0.97
				c0.341-0.082,0.65-0.265,0.852-0.569c0.02-0.028,0.035-0.055,0.059-0.084c0.038-0.06,0.039-0.12,0.07-0.177
				c9.781-8.311,19.531-16.804,26.864-27.437C223.943,227.296,221.435,225.453,220.297,227.103z"/>
			<path fill="#AC7A2B" d="M175.318,222.214c-0.391,2.767-2.945,4.693-5.709,4.304c-2.769-0.392-4.692-2.951-4.302-5.718
				c0.39-2.763,2.946-4.686,5.715-4.295C173.787,216.896,175.709,219.451,175.318,222.214z"/>
			<path fill="#AC7A2B" d="M187.776,206.306c-0.225,1.592-1.703,2.703-3.295,2.479c-1.598-0.226-2.706-1.702-2.481-3.294
				c0.225-1.596,1.7-2.709,3.297-2.483C186.889,203.231,188.002,204.711,187.776,206.306z"/>
			<circle fill="#AC7A2B" cx="194.64" cy="217.483" r="2.916"/>
			<path fill="#AC7A2B" d="M200.498,235.783c-0.21,1.49-1.585,2.526-3.078,2.315c-1.488-0.21-2.521-1.586-2.312-3.076
				c0.21-1.488,1.584-2.524,3.073-2.313C199.674,232.92,200.709,234.296,200.498,235.783z"/>
			<path fill="#AC7A2B" d="M227.485,228.207c-0.466,3.298-3.514,5.589-6.811,5.123c-3.298-0.465-5.591-3.51-5.125-6.809
				c0.465-3.292,3.513-5.59,6.81-5.124C225.657,221.862,227.95,224.914,227.485,228.207z"/>
		</g>
	</g>
</g>
<g>
	<path fill="#298C99" d="M246.98,147.428c-0.676,0-1.309-0.289-1.783-0.814c-1.436-1.543-3.01-3.061-4.529-4.528
		c-4.031-3.89-8.199-7.911-10.811-13.307c-1.67-3.435-3.619-8.435-1.275-12.161c1.729-2.734,3.902-3.308,5.42-3.308
		c3.273,0,6.695,2.548,9.613,5.587c-0.562-4.409-0.625-8.969,1.525-12.871c1.779-3.237,6.834-8.027,12.027-8.027
		c1.152,0,2.24,0.241,3.234,0.716c5.977,2.859,5.473,10.96,5.309,13.622c-0.125,1.913-0.48,3.79-1.078,5.67
		c1.529-0.619,3.055-0.935,4.561-0.943c4.453,0,7.871,2.801,8.555,6.97c0.76,4.626-1.561,9.809-6.207,13.863
		c-6.637,5.8-15.572,9.354-23.902,9.508c-0.066-0.012-0.168-0.005-0.24-0.012C247.26,147.416,247.121,147.428,246.98,147.428z
		 M247.242,144.283l0.477,0.118c7.598-0.174,15.76-3.445,21.848-8.766c2.98-2.6,5.916-6.886,5.221-11.118
		c-0.443-2.707-2.619-4.455-5.543-4.455c-2.18,0.012-4.441,0.889-6.76,2.604l-5.072,3.756l2.84-5.636
		c1.492-2.961,2.275-5.706,2.465-8.641c0.365-5.88-0.816-9.39-3.609-10.726c-0.586-0.281-1.238-0.423-1.939-0.423
		c-3.441,0-7.715,3.412-9.4,6.474c-2.365,4.292-1.43,9.87-0.525,15.266l1.139,6.875l-3.654-4.782
		c-4.076-5.335-8.086-8.521-10.725-8.521c-0.719,0-1.801,0.198-2.881,1.907c-1.727,2.745,0.654,7.643,1.436,9.253
		c2.381,4.916,6.176,8.579,10.193,12.457c1.465,1.412,2.975,2.869,4.406,4.39L247.242,144.283z"/>
</g>
<path fill="#AC7A2B" d="M481.7,107.408c0.105-0.391,0.093-0.819-0.24-1.266c-0.93-1.284-2.026-2.28-3.209-3.16
	c-0.398-0.346-0.788-0.704-1.236-1.01c-0.078-0.092-0.149-0.198-0.265-0.278c-0.786-0.535-1.624-0.982-2.438-1.457
	c-0.354-0.242-0.719-0.469-1.132-0.682c-21.816-11.958-51.073-4.291-70.504,9.451c0.103-0.505,0.203-1.009,0.31-1.511
	c1.131-1.314,2.345-2.532,3.65-3.659c0.287-0.243,0.426-0.506,0.506-0.775c18.079-16.341,40.052-19.134,63.665-13.941
	c0.425,0.092,0.778,0.01,1.11-0.151c0.983,0.3,1.949,0.214,2.821-0.589c0.993-0.911,0.499-2.106-0.39-2.658
	c-0.05-0.349-0.195-0.691-0.577-0.999c-1.234-1.006-2.589-1.795-3.998-2.451c-20.724-16.604-48.047,1.748-65.287,16.803
	c0.388-2.536,0.743-5.081,1.062-7.637c0.152-0.101,0.287-0.197,0.425-0.37c7.422-9.83,16.885-16.319,28.389-20.594
	c5.388-1.998,11.317-3.702,17.06-3.782c1.868-0.021,3.944,0.54,5.763,0.386c1.124,0.159,2.581,0.304,3.575-0.144
	c1.315,0.218,2.818-1.201,1.893-2.679c-0.542-0.86-1.207-1.555-1.95-2.121c-0.128-0.199-0.288-0.386-0.526-0.531
	c-19.032-11.928-41.875,4.786-53.654,21.174c0.093-0.915,0.223-1.828,0.303-2.749c0.022-0.035,0.045-0.062,0.045-0.102
	c2.356-12.953,14.743-19.306,24.701-25.945c4.855-3.246,15.922-8.654,17.367-15.062c1.602-7.112-13.947-1.456-15.686-0.594
	c-10.826,5.388-19.555,17.382-25.239,28.694c0.369-4.403,0.737-8.804,1.147-13.185c0.253-0.138,0.49-0.332,0.686-0.637
	c3.78-6.233,7.184-12.882,8.938-20.004c0.996-4.04,1.464-8.599,0.065-12.614c-1.971-5.62-8.245-8.077-13.138-4.267
	c-3.792,2.955-5.192,7.769-5.283,12.403c-0.067,3.47,0.596,6.907,1.721,10.232c1.099,4.604,1.994,9.282,3.507,13.773
	c0,0.016,0.007,0.021,0.021,0.045c-0.135,1.466-0.285,2.927-0.41,4.386c-2.213-4.155-4.825-8.688-7.904-12.773
	c-1.559-2.376-3.187-4.691-4.905-6.838c-4.319-5.417-10.29-9.716-17.164-6.353c-0.687,0.327-0.918,0.878-0.866,1.427
	c-0.333,0.783-0.117,1.82,0.729,2.35c12.146,7.507,23.463,16.97,29.376,30.297c-0.413,4.507-0.838,9.003-1.306,13.504
	c-0.07-0.16-0.15-0.296-0.23-0.455c-6.461-19.86-20.001-33.231-41.61-35.923c-0.431-0.058-0.801,0.062-1.123,0.238
	c-0.891,0.04-1.762,0.648-1.727,1.803c0.169,6.453,11.638,11.415,16.115,14.162c6.1,3.736,12.238,7.397,17.887,11.782
	c3.196,2.484,5.258,5.211,6.804,8.32c0.493,1.461,0.965,2.949,1.391,4.49c0.135,0.526,0.431,0.858,0.807,1.048
	c0.267,0.82,0.507,1.661,0.749,2.533c0.011,0.021,0.021,0.035,0.021,0.057c-0.272,2.39-0.596,4.775-0.913,7.16
	c-11.274-19.931-41.098-43.741-61.64-24.647c-0.755,0.707-0.55,1.837,0.072,2.53c0.87,1.011,1.226,1.462,1.854,1.795
	c0.298,0.49,0.756,0.88,1.465,0.944c9.787,0.833,19.74,0.636,29.343,2.892c11.72,2.762,21.814,12.658,27.996,22.707
	c-0.421,2.675-0.878,5.351-1.384,8.014c-14.316-20.475-44.07-34.541-68.209-27.211c-0.412-0.102-0.852-0.098-1.299,0.134
	c-1.292,0.655-2.967,1.409-3.549,2.841c-0.816,2.017,0.836,3.367,2.518,4.072c0.425,0.177,0.827,0.155,1.181,0.058
	c10.884,2.319,21.964,2.597,32.972,4.137c14.496,2.021,27.062,9.505,35.207,21.671c-0.091,0.47-0.184,0.932-0.284,1.402
	c-0.345,1.534-0.78,3.042-1.17,4.565c-9.599-11.972-24.769-21.502-39.388-25.176c-3.496-0.872-7.674-1.58-12.029-1.908
	c-10.113-1.659-22.193-2.073-27.244,5.946c-0.346,0.113-0.653,0.304-0.871,0.693c-0.801,1.397-1.854,2.819-0.844,4.474
	c0.316,0.531,0.823,0.864,1.384,1.072c0.261,0.195,0.562,0.349,0.95,0.377c14.173,1.142,27.266-3.838,41.576-1.151
	c12.312,2.311,28.765,9.113,35.082,20.837c-0.447,1.51-0.942,3.012-1.423,4.516c-0.056,0.062-0.082,0.138-0.128,0.201
	c-19.223-17.241-55.321-31.23-77.903-13.09c-0.916,0.746-0.846,1.914-0.341,2.679c0.248,0.6,0.803,1.033,1.646,0.942
	c23.623-2.532,57.547-5.739,75.031,14.305c-1.274,3.621-2.648,7.205-4.096,10.774c-2.747-2.94-5.748-5.653-8.898-8.146
	c-0.146-0.226-0.332-0.43-0.63-0.592c-0.136-0.085-0.296-0.155-0.434-0.232c-18.427-14.029-42.642-19.717-64.226-8.072
	c-0.803,0.43-0.976,1.164-0.789,1.828c0.089,0.899,0.812,1.739,1.89,1.705c0.224,0.088,0.49,0.127,0.801,0.081
	c12.854-1.942,26.717-3.158,39.612-0.512c4.207,0.99,8.367,2.333,12.492,4.059c1.876,0.868,3.736,1.832,5.519,2.962
	c0.439,0.259,0.837,0.296,1.196,0.217c0.549,0.288,1.119,0.509,1.67,0.813c3.712,2.864,7.184,6.048,10.311,9.511
	c-0.376,0.892-0.778,1.777-1.154,2.673c-0.244,0.268-0.359,0.601-0.416,0.941c-0.651,1.517-1.363,3.004-2.049,4.512
	c-8.548-8.23-19.395-14.902-31.001-18.544c-13.106-5.169-26.385-6.449-40.91,0.649c-1.045,0.512-1.089,1.524-0.606,2.285
	c-0.026,1.054,0.822,2.24,2.208,2.006c0.77-0.135,1.523-0.306,2.302-0.451c0.026,0,0.057,0.008,0.094,0.005
	c23.338-4.188,47.752,3.127,66.275,17.659c-0.821,1.811-1.686,3.589-2.529,5.392c-20.809-20.269-55.381-22.875-80.588-9.946
	c-0.65,0.332-0.866,0.865-0.86,1.408c-0.396,1.12,0.152,2.548,1.639,2.354c26.81-3.505,54.854-7.056,77.758,10.533
	c-0.928,1.963-1.895,3.881-2.833,5.822c-0.663-0.676-1.406-1.26-2.106-1.884c-19.749-19.724-54.809-18.217-76.951-3.226
	c-0.175,0.115-0.275,0.258-0.388,0.396c-0.933,0.602-1.851,1.196-2.752,1.845c-0.185,0.13-0.31,0.286-0.425,0.44
	c-1.008,0.431-1.716,1.913-0.77,3.053c0.049,0.058,0.092,0.114,0.138,0.167c0.301,0.358,0.747,0.476,1.203,0.468
	c0.367,0.208,0.801,0.329,1.306,0.231c0.712-0.137,1.399-0.328,2.098-0.485c1.514-0.123,3.015-0.347,4.458-0.771
	c0.252-0.018,0.527-0.092,0.812-0.278c0.011-0.008,0.033-0.019,0.033-0.024c1.057-0.354,2.088-0.794,3.094-1.284
	c9.485-3.139,18.674-7.261,28.711-8.505c0.203-0.028,0.391-0.109,0.573-0.19c13.29-0.66,26.707,2.486,36.271,10.632
	c0.893,0.883,1.788,1.76,2.611,2.726c0.115,0.129,0.23,0.186,0.345,0.266c-0.242,0.47-0.46,0.952-0.7,1.421
	c-2.451,4.869-4.938,9.742-7.479,14.612c-0.552-0.704-1.123-1.374-1.708-2.011c-16.026-24.746-59.471-15.317-80.803-3.3
	c-0.538,0.307-0.78,0.755-0.838,1.227c-0.996,1.077-0.562,3.224,1.25,2.995c22.617-2.917,59.278-18.698,77.722,1.444
	c0.628,1.032,1.214,2.092,1.739,3.253c0.094,0.242,0.254,0.433,0.416,0.591c-1.24,2.342-2.509,4.674-3.77,7.006
	c-25.216-22.818-63.423-14.405-91.148-0.69c-1.751,0.873-0.663,3.15,0.953,3.24c0.021,0.004,0.043,0.004,0.065,0.009
	c0.048,0,0.103,0,0.158,0c0.187,0.019,0.367,0.04,0.577,0c14.823-2.967,29.557-6.249,44.68-7.079
	c15.257-0.838,28.526,2.924,42.182,9.119c-1.24,2.236-2.518,4.422-3.792,6.621l-0.011-0.005c-2.394-1.148-4.765-2.122-7.124-2.96
	c-0.312-0.172-0.622-0.367-0.944-0.527c-0.275-0.166-0.551-0.362-0.846-0.518c-0.15-0.19-0.354-0.354-0.641-0.472
	c-0.482-0.204-0.951-0.345-1.421-0.526c-1.926-0.926-3.917-1.657-5.913-2.307c-22.131-7.907-47.568-4.852-68.221,7.354
	c-0.403,0.235-0.61,0.551-0.728,0.882c-0.272,0.382-0.351,0.829-0.339,1.262c-0.187,0.859,0.184,1.815,1.307,2.036
	c10.791,2.103,20.966-1.438,31.022-5.015c15.536-3.178,29.752-4.311,44.797,0.908c2.209,1.286,4.375,2.708,6.435,4.481
	c-2.496,4.266-5.086,8.464-7.753,12.599c-1.408-0.89-2.866-1.687-4.345-2.435c-16.77-15.408-47.667-9.355-67.293-4.153
	c-1.42,0.38-1.515,1.893-0.823,2.795c0.195,0.716,0.752,1.323,1.704,1.313c22.041-0.279,44.97-5.227,65.795,4.25
	c0.732,0.817,1.479,1.639,2.131,2.57c-3.437,5.108-7.066,10.074-10.779,14.996c-20.954-23.068-57.709-23.329-86.243-19.129
	c-0.08,0.01-0.128,0.05-0.195,0.069c-1.971,0.125-2.604,3.201-0.437,3.468l0,0c0,0,0.01,0,0.024,0.009
	c29.199,3.646,57.603,5.129,83.999,19.342c-5.295,6.896-10.68,13.738-15.938,20.66c-0.172,0.157-0.31,0.327-0.39,0.522
	c-0.445,0.591-0.881,1.202-1.314,1.798c-1.615-4.218-4.057-7.995-7.023-11.398c-5.703-8.175-12.982-14.637-22.958-19.482
	c-13.567-6.583-29.204-7.03-42.974-1.13c-0.173,0.037-0.346,0.111-0.518,0.203c-0.197,0.086-0.413,0.146-0.62,0.239
	c-0.376,0.178-0.592,0.435-0.731,0.713c-0.561,0.373-1.168,0.692-1.831,0.889c-2.078,0.621-1.298,3.601,0.605,3.476
	c0.103,0.005,0.181,0.046,0.273,0.037c0.32-0.019,0.643-0.037,0.961-0.05c0.084,0.013,0.14,0.05,0.231,0.05
	c1.491,0.025,3,0.048,4.535,0.084c13.533,1.814,27.186,2.495,40.523,5.376c0.265,0.099,0.548,0.173,0.812,0.269
	c3.895,1.515,7.689,3.33,11.317,5.627c3.556,2.377,6.759,5.223,9.434,8.737c1.854,3.06,3.583,6.255,5.071,9.698
	c0.049,0.118,0.138,0.199,0.209,0.301c-1.422,1.925-2.878,3.833-4.262,5.799c-0.035,0.052-0.035,0.11-0.072,0.156
	c-1.03,1.404-2.129,2.778-3.182,4.163c-0.186,0.132-0.391,0.239-0.575,0.377c-0.527,0.366-0.743,0.872-0.766,1.374
	c-0.288,0.376-0.598,0.749-0.881,1.13c-15.927-28.357-47.43-42.362-79.109-43.628c-0.229-0.079-0.49-0.114-0.813-0.062
	c-0.021,0.004-0.065,0.004-0.094,0.012c-0.065,0-0.136-0.008-0.201-0.012c-0.175-0.005-0.298,0.043-0.462,0.081
	c-1.624,0.246-3.24,0.442-4.901,0.518c-0.445,0.02-0.77,0.242-1.043,0.529c-0.354,0.021-0.699,0.059-1.067,0.067
	c-0.425,0.014-0.743,0.174-1.008,0.384c-1.762,0.435-1.589,3.264,0.335,3.457c0.17,0.129,0.4,0.227,0.65,0.292
	c28.526,6.787,59.896,8.588,79.807,33.007c0.102,0.126,0.229,0.2,0.342,0.282c1.859,2.571,3.621,5.232,5.157,8.095
	c-2.52,3.25-5.051,6.503-7.652,9.694c-1.464,1.779,1.132,4.254,2.589,2.47c0.663-0.811,1.304-1.633,1.946-2.453
	c0.253,0.045,0.549,0.045,0.86-0.053c47.521-15.419,91.621,14.098,136.766,23.632c2.006,0.418,2.857-2.289,1.412-3.227
	c-0.115-0.385-0.345-0.739-0.758-0.996c-20.757-12.655-43.236-21.285-66.926-26.535c-21.016-4.643-45.072-7.263-65.829,0.16
	c1.536-1.957,3.114-3.878,4.624-5.852c0.094-0.017,0.164,0.005,0.267-0.026c22.18-6.449,44.357-6.732,66.848-1.699
	c22.468,5.027,41.565,16.389,62.598,24.862c0.411,0.162,0.801,0.15,1.156,0.057c0.885,1.505,3.634,0.474,3.2-1.56
	c-2.351-11.081-13.611-18.61-22.904-23.943c-11.765-6.759-25.354-10.362-38.664-12.486c-21.607-3.457-46.847-2.665-67.011,7.418
	c2.11-2.934,4.24-5.852,6.401-8.738c41.936-20.523,84.312,4.094,124.848,15.522c0.433,0.123,0.798,0.089,1.11-0.048
	c0.331,0.115,0.65,0.235,0.981,0.349c1.447,0.515,2.25-0.875,1.996-2.084c0.254-0.748,0.116-1.629-0.756-2.139
	c-0.823-0.486-1.686-0.934-2.546-1.368c-16.54-14.414-42.137-20.902-63.263-24.435c-18.499-3.094-38.695-2.899-55.732,5.421
	c4.73-6.156,9.52-12.285,14.172-18.5c0.182,0.063,0.354,0.133,0.571,0.14c18.01,0.833,35.515,4.17,52.87,8.933
	c17.287,4.732,34.014,12.253,51.496,16.111c2.041,0.447,2.864-2.351,1.318-3.256c-0.078-0.134-0.147-0.263-0.285-0.386
	c-27.483-24.071-66.187-38.149-102.09-26.863c2.431-3.323,4.859-6.648,7.163-10.064c0.251-0.367,0.491-0.757,0.733-1.129
	c0.226-0.048,0.47-0.151,0.708-0.332c16.475-12.672,37.464-3.383,53.365,5.556c15.972,8.99,29.752,21.055,44.908,31.23
	c1.211,0.824,2.328-0.16,2.496-1.319c0.23-0.589,0.187-1.289-0.421-1.854c-1.135-1.094-2.278-2.195-3.404-3.294
	c-0.069-0.097-0.08-0.199-0.185-0.291c-1.646-1.606-3.39-3.249-5.186-4.909c-9.271-8.984-18.596-17.652-30.077-24.07
	c-3.369-1.893-6.861-3.482-10.438-4.837c-15.084-7.134-31.173-10.145-46.543-4.053c2.197-3.569,4.326-7.189,6.412-10.85
	c0.273,0.084,0.575,0.125,0.894,0.062c15.441-2.82,28.871,0.877,41.27,7.515c0.204,0.239,0.456,0.464,0.823,0.585
	c0.208,0.065,0.434,0.149,0.641,0.216c17.853,9.933,33.684,25.74,50.583,36.645c0.283,0.19,0.585,0.226,0.868,0.208
	c0.951,0.766,1.947,1.479,2.92,2.204c1.834,1.36,4.336-1.23,2.475-2.603c-0.169-0.123-0.355-0.256-0.526-0.381
	c-0.067-0.235-0.16-0.464-0.317-0.663c-3.668-10.604-12.718-18.749-23.283-25.04c-21.055-16.102-47.819-26.453-73.467-23.795
	c1.52-2.743,3.012-5.5,4.478-8.27c0.022-0.015,0.058-0.019,0.093-0.031c0.115-0.01,0.203,0.007,0.318-0.028
	c1.479-0.448,2.936-0.757,4.399-1.079c6.073,0.131,12.077,0.813,18.011,2.022c0.215,0.251,0.482,0.469,0.87,0.58
	c12.119,3.558,24.806,9.595,36.388,17.115c8.247,5.785,16.014,12.319,23.393,19.471c0.29,0.271,0.584,0.376,0.881,0.429
	c0.721,0.752,1.434,1.501,2.119,2.259c0.735,0.84,1.696,0.646,2.316,0.039c1.19-0.137,2.244-1.332,1.328-2.573
	c-1.306-1.81-2.786-3.499-4.308-5.137c0-0.407-0.125-0.819-0.46-1.196c-20.254-22.931-49.193-43.274-80.891-36.599
	c-0.355-0.005-0.7-0.029-1.048-0.035c-0.49-0.004-0.844,0.172-1.118,0.425l0,0c1.718-3.3,3.437-6.604,5.107-9.916
	c0.324,0.122,0.664,0.183,1.076,0.086c32.652-8.099,59.025,22.528,81.345,41.466c0.892,0.759,1.97,0.458,2.575-0.206
	c0.632-0.646,0.885-1.739,0.127-2.611c-0.158-0.178-0.309-0.351-0.46-0.521c0.14-0.417,0.164-0.87-0.146-1.356
	c-16.812-26.409-49.817-48.28-82.099-41.611c0.883-1.741,1.751-3.473,2.624-5.202c0.821-0.332,1.441-1.355,1.166-2.343
	c0.347-0.726,0.678-1.456,1.033-2.177c1.125-0.397,2.266-0.676,3.412-0.992c32.147-2.222,57.549,18.775,79.967,39.052
	c0.07,0.077,0.138,0.143,0.216,0.199c0.06,0.054,0.117,0.099,0.173,0.15c1.718,1.554,4.196-1.044,2.476-2.593
	c-0.067-0.066-0.138-0.128-0.205-0.191c-1.729-3.557-3.864-6.988-6.323-10.259c-3.253-6.264-8.995-11.366-15.812-15.501
	c-17.598-13.079-40.866-19.849-60.97-14.425c-0.093,0.005-0.188,0-0.273,0.005c-0.209,0.023-0.395,0.093-0.555,0.164
	c1.307-2.735,2.661-5.439,3.918-8.192c0.07-0.015,0.142-0.019,0.207-0.023c29.422,0.625,56.071,13.363,78.729,31.607
	c1.788,1.443,4.274-1.15,2.478-2.593c-0.049-0.041-0.092-0.076-0.141-0.111c-0.023-0.188-0.068-0.376-0.169-0.578
	c-14.585-27.78-49.71-35.389-78.538-32.187c0-0.321-0.146-0.641-0.396-0.934c0.764-1.696,1.542-3.378,2.277-5.093
	c29.651-6.959,54.58,10.982,80.561,21.91c0.425,0.187,0.827,0.168,1.19,0.064c1.378,0.023,2.616-1.817,1.333-3.088l-0.996-1.01
	c-0.035-0.371-0.15-0.743-0.497-1.08c-21.855-21.402-50.531-31.758-79.561-21.687c0.489-1.188,0.996-2.372,1.462-3.571
	c1.133-0.882,2.351-1.644,3.554-2.378c12.579-2.846,24.895-3.768,37.773-1.43c12.623,2.297,24.354,7.817,36.086,12.863
	c0.255,0.202,0.527,0.384,0.758,0.578c0.479,0.398,1.01,0.483,1.486,0.386c0.022,0.017,0.069,0.029,0.095,0.044
	c0.686,0.288,1.306,0.132,1.786-0.217c1.328,0.039,2.636-1.276,1.638-2.599c-13.119-17.239-38.139-23.602-59.447-19.487
	c-7.652,0.52-15.007,2.475-21.516,6.369c0.974-2.643,1.972-5.271,2.864-7.94c0.115-0.012,0.203,0.006,0.333-0.027
	c14.056-4.222,28.354-3.27,42.584-0.438c12.51,2.491,23.693,7.999,35.788,11.521c1.971,0.566,2.798-2.114,1.423-3.177
	c-0.037-0.091-0.045-0.175-0.095-0.261c-7.262-12.546-24.552-15.842-37.759-17.432c-13.264-1.597-28.229-1.071-40.621,4.674
	c0.146-0.463,0.304-0.917,0.431-1.372c0.095-0.122,0.175-0.231,0.229-0.367c0.068-0.018,0.146-0.022,0.232-0.062
	c5.404-2.803,11.36-5.112,17.559-6.779c4.319-0.672,8.537-1.082,12.684-1.277c16.027-0.017,31.736,4.175,45.917,11.99
	c1.833,1.015,3.369-1.475,2.144-2.78c-0.058-0.16-0.102-0.319-0.218-0.486c-16.359-23.239-54.579-19.01-76.894-5.858
	c0.065-0.271,0.16-0.545,0.226-0.82c0.322-1.174,0.581-2.355,0.87-3.541c0.05-0.032,0.115-0.04,0.175-0.085
	c20.427-15.514,46.912-8.631,70.685-7.297c2.566,0.319,5.121,0.75,7.645,1.326C481.265,110.159,482.089,108.585,481.7,107.408z"/>
</svg>
