<?xml version="1.0" encoding="utf-8"?>
<!-- Generator: Adobe Illustrator 16.0.0, SVG Export Plug-In . SVG Version: 6.00 Build 0)  -->
<!DOCTYPE svg PUBLIC "-//W3C//DTD SVG 1.1//EN" "http://www.w3.org/Graphics/SVG/1.1/DTD/svg11.dtd">
<svg version="1.1" xmlns="http://www.w3.org/2000/svg" xmlns:xlink="http://www.w3.org/1999/xlink" x="0px" y="0px" width="264px"
	 height="264px" viewBox="0 0 264 264" enable-background="new 0 0 264 264" xml:space="preserve">
<g id="grid" display="none">
</g>
<g id="Layer_1">
	<g>
		<defs>
			<rect id="SVGID_153_" width="264" height="264"/>
		</defs>
		<clipPath id="SVGID_2_">
			<use xlink:href="#SVGID_153_"  overflow="visible"/>
		</clipPath>
		<path clip-path="url(#SVGID_2_)" fill="#AFBABC" d="M249.439,21.534c0.074,0.904,0.868,1.575,1.771,1.502
			c0.904-0.074,1.579-0.865,1.506-1.769c-0.074-0.906-0.869-1.582-1.772-1.509C250.04,19.834,249.365,20.63,249.439,21.534z"/>
		<path clip-path="url(#SVGID_2_)" fill="#AFBABC" d="M247.152,40.096c0.107,1.316,1.262,2.294,2.573,2.188
			c1.316-0.107,2.296-1.26,2.188-2.576c-0.105-1.319-1.261-2.292-2.576-2.186C248.027,37.631,247.045,38.777,247.152,40.096z"/>
		<path clip-path="url(#SVGID_2_)" fill="#AFBABC" d="M101.871,9.466c0.091,1.107,1.061,1.933,2.171,1.842
			c1.104-0.09,1.932-1.062,1.842-2.169c-0.091-1.109-1.063-1.932-2.169-1.841C102.605,7.39,101.781,8.357,101.871,9.466z"/>
		<path clip-path="url(#SVGID_2_)" fill="#AFBABC" d="M188.115,73.172c0.073,0.906,0.867,1.579,1.775,1.506
			c0.899-0.074,1.574-0.867,1.501-1.772c-0.074-0.905-0.869-1.581-1.768-1.508C188.715,71.472,188.042,72.267,188.115,73.172z"/>
		<path clip-path="url(#SVGID_2_)" fill="#AFBABC" d="M218.875,37.348c0.073,0.905,0.864,1.582,1.768,1.508
			c0.908-0.074,1.58-0.869,1.508-1.774c-0.074-0.905-0.867-1.579-1.775-1.504C219.472,35.65,218.801,36.444,218.875,37.348z"/>
		<path clip-path="url(#SVGID_2_)" fill="#AFBABC" d="M180.62,86.261c0.055,0.695,0.667,1.21,1.358,1.153
			c0.693-0.057,1.206-0.663,1.15-1.357c-0.057-0.693-0.661-1.205-1.355-1.148C181.083,84.965,180.562,85.568,180.62,86.261z"/>
		<path clip-path="url(#SVGID_2_)" fill="#AFBABC" d="M151.158,80.842c0.057,0.688,0.668,1.207,1.358,1.151
			c0.695-0.057,1.21-0.668,1.154-1.357c-0.058-0.694-0.664-1.208-1.359-1.151C151.621,79.541,151.103,80.148,151.158,80.842z"/>
		<path clip-path="url(#SVGID_2_)" fill="#AFBABC" d="M187.116,98.1c0.067,0.827,0.797,1.448,1.629,1.381
			c0.827-0.068,1.449-0.799,1.381-1.625c-0.067-0.834-0.798-1.449-1.626-1.381C187.669,96.541,187.048,97.266,187.116,98.1z"/>
		<path clip-path="url(#SVGID_2_)" fill="#AFBABC" d="M171.222,69.994c0.068,0.834,0.795,1.449,1.627,1.382
			c0.828-0.068,1.45-0.792,1.382-1.627c-0.067-0.827-0.798-1.449-1.627-1.382C171.771,68.436,171.154,69.168,171.222,69.994z"/>
		<circle clip-path="url(#SVGID_2_)" fill="#AFBABC" cx="133.759" cy="6.812" r="1.759"/>
		<path clip-path="url(#SVGID_2_)" fill="#AFBABC" d="M151.71,123.233c0.079,0.969,0.928,1.695,1.898,1.615s1.688-0.932,1.608-1.9
			c-0.079-0.966-0.923-1.687-1.895-1.607C152.353,121.42,151.631,122.27,151.71,123.233z"/>
		<path clip-path="url(#SVGID_2_)" fill="#AFBABC" d="M227.921,9.59c0.056,0.688,0.659,1.205,1.355,1.147
			c0.69-0.056,1.204-0.664,1.148-1.352c-0.057-0.693-0.662-1.211-1.353-1.155C228.377,8.287,227.864,8.896,227.921,9.59z"/>
		<path clip-path="url(#SVGID_2_)" fill="#AFBABC" d="M192.251,128.471c0.058,0.691,0.665,1.208,1.355,1.152
			c0.69-0.057,1.209-0.666,1.152-1.357c-0.057-0.689-0.666-1.207-1.356-1.151C192.711,127.172,192.195,127.781,192.251,128.471z"/>
		<path clip-path="url(#SVGID_2_)" fill="#AFBABC" d="M244.047,84.249c0.085,1.035,0.991,1.81,2.034,1.724
			c1.04-0.083,1.812-0.996,1.727-2.031c-0.085-1.039-0.993-1.812-2.032-1.729C244.731,82.3,243.963,83.21,244.047,84.249z"/>
		<path clip-path="url(#SVGID_2_)" fill="#AFBABC" d="M215.99,79.027c0.042,0.52,0.493,0.903,1.016,0.861
			c0.521-0.042,0.903-0.495,0.86-1.014c-0.042-0.519-0.492-0.908-1.014-0.865C216.329,78.052,215.948,78.509,215.99,79.027z"/>
		<path clip-path="url(#SVGID_2_)" fill="#AFBABC" d="M221.323,87.234c0.046,0.557,0.534,0.967,1.087,0.921
			c0.552-0.044,0.966-0.527,0.92-1.085c-0.045-0.554-0.532-0.966-1.084-0.921S221.278,86.68,221.323,87.234z"/>
		<path clip-path="url(#SVGID_2_)" fill="#AFBABC" d="M228.127,108.779c0.046,0.554,0.533,0.965,1.086,0.92
			c0.549-0.045,0.966-0.531,0.92-1.084c-0.045-0.555-0.533-0.965-1.084-0.919C228.497,107.74,228.082,108.224,228.127,108.779z"/>
		<path clip-path="url(#SVGID_2_)" fill="#AFBABC" d="M242.271,96.503c0.033,0.416,0.397,0.726,0.812,0.692
			c0.416-0.035,0.721-0.399,0.687-0.814c-0.033-0.414-0.393-0.722-0.809-0.688C242.547,95.727,242.237,96.09,242.271,96.503z"/>
		<circle clip-path="url(#SVGID_2_)" fill="#AFBABC" cx="260.221" cy="69.937" r="0.754"/>
		<path clip-path="url(#SVGID_2_)" fill="#AFBABC" d="M205.968,113.235c0.034,0.417,0.4,0.723,0.816,0.689
			c0.413-0.033,0.722-0.394,0.688-0.812c-0.035-0.417-0.397-0.725-0.812-0.692C206.245,112.455,205.934,112.817,205.968,113.235z"/>
		<path clip-path="url(#SVGID_2_)" fill="#AFBABC" d="M219.318,57.969c0.034,0.416,0.403,0.723,0.818,0.689
			c0.41-0.034,0.727-0.396,0.692-0.813c-0.033-0.414-0.404-0.724-0.815-0.691C219.6,57.188,219.285,57.555,219.318,57.969z"/>
		<path clip-path="url(#SVGID_2_)" fill="#AFBABC" d="M210.79,43.007c0.034,0.416,0.404,0.723,0.818,0.689
			c0.41-0.034,0.727-0.396,0.692-0.813c-0.033-0.414-0.404-0.724-0.814-0.691C211.071,42.226,210.757,42.593,210.79,43.007z"/>
		<path clip-path="url(#SVGID_2_)" fill="#AFBABC" d="M179.329,113.514c0.034,0.416,0.403,0.726,0.815,0.691
			c0.414-0.034,0.726-0.398,0.691-0.814c-0.033-0.413-0.4-0.724-0.814-0.69C179.61,112.733,179.296,113.099,179.329,113.514z"/>
		<path clip-path="url(#SVGID_2_)" fill="#AFBABC" d="M208.446,96.361c0.033,0.413,0.4,0.723,0.811,0.689
			c0.415-0.034,0.727-0.399,0.692-0.812c-0.034-0.418-0.4-0.724-0.815-0.691C208.724,95.581,208.412,95.943,208.446,96.361z"/>
		<path clip-path="url(#SVGID_2_)" fill="#AFBABC" d="M252.269,93.795c0.048,0.588,0.563,1.028,1.154,0.981
			c0.584-0.048,1.025-0.567,0.978-1.154c-0.048-0.588-0.567-1.027-1.152-0.979C252.659,92.692,252.22,93.208,252.269,93.795z"/>
		<path clip-path="url(#SVGID_2_)" fill="#AFBABC" d="M255.799,9.457c0.04,0.485,0.465,0.843,0.951,0.804
			c0.48-0.04,0.844-0.461,0.804-0.948c-0.039-0.481-0.466-0.844-0.947-0.804C256.121,8.548,255.76,8.975,255.799,9.457z"/>
		<path clip-path="url(#SVGID_2_)" fill="#AFBABC" d="M231.71,120.203c0.018,0.204,0.2,0.361,0.407,0.345
			c0.21-0.017,0.359-0.202,0.344-0.406c-0.017-0.208-0.194-0.362-0.405-0.346C231.849,119.813,231.693,119.995,231.71,120.203z"/>
		<path clip-path="url(#SVGID_2_)" fill="#AFBABC" d="M246.155,59.852c0.017,0.205,0.196,0.364,0.406,0.346
			c0.209-0.018,0.364-0.203,0.348-0.408c-0.018-0.209-0.2-0.361-0.408-0.345C246.29,59.462,246.138,59.643,246.155,59.852z"/>
		<path clip-path="url(#SVGID_2_)" fill="#AFBABC" d="M233.042,32.481c0.017,0.205,0.196,0.363,0.406,0.346
			c0.209-0.018,0.364-0.203,0.348-0.408c-0.018-0.209-0.2-0.362-0.408-0.346C233.177,32.091,233.024,32.271,233.042,32.481z"/>
		<path clip-path="url(#SVGID_2_)" fill="#AFBABC" d="M239.176,15.443c0.017,0.205,0.196,0.363,0.407,0.346
			c0.209-0.018,0.363-0.203,0.347-0.408c-0.017-0.209-0.2-0.362-0.408-0.345C239.311,15.053,239.159,15.233,239.176,15.443z"/>
		<path clip-path="url(#SVGID_2_)" fill="#AFBABC" d="M217.092,15.534c0.017,0.205,0.196,0.364,0.406,0.346
			c0.209-0.018,0.364-0.203,0.348-0.408c-0.018-0.21-0.2-0.362-0.408-0.346C217.227,15.145,217.074,15.324,217.092,15.534z"/>
		<path clip-path="url(#SVGID_2_)" fill="#AFBABC" d="M192.948,116.928c0.039,0.479,0.464,0.843,0.951,0.804
			c0.483-0.04,0.844-0.467,0.805-0.947c-0.04-0.487-0.465-0.846-0.947-0.807C193.269,116.017,192.909,116.439,192.948,116.928z"/>
		<circle clip-path="url(#SVGID_2_)" fill="#AFBABC" cx="189.492" cy="110.139" r="0.377"/>
		<circle clip-path="url(#SVGID_2_)" fill="#AFBABC" cx="171.726" cy="119.538" r="0.377"/>
		<path clip-path="url(#SVGID_2_)" fill="#AFBABC" d="M159.4,92.426c0.404-0.268,0.511-0.817,0.246-1.218
			c-0.267-0.406-0.817-0.516-1.223-0.248c-0.404,0.273-0.511,0.818-0.245,1.215C158.446,92.586,158.999,92.699,159.4,92.426z"/>
		<circle clip-path="url(#SVGID_2_)" fill="#AFBABC" cx="155.14" cy="98.736" r="0.376"/>
		<circle clip-path="url(#SVGID_2_)" fill="#AFBABC" cx="136.529" cy="81.039" r="0.376"/>
		<circle clip-path="url(#SVGID_2_)" fill="#AFBABC" cx="81.806" cy="50.86" r="0.376"/>
		<circle clip-path="url(#SVGID_2_)" fill="#AFBABC" cx="101.02" cy="50.216" r="0.376"/>
		<circle clip-path="url(#SVGID_2_)" fill="#AFBABC" cx="177.311" cy="58.545" r="0.377"/>
		<path clip-path="url(#SVGID_2_)" fill="#AFBABC" d="M146.979,47.813c0.175-0.112,0.22-0.348,0.106-0.522
			c-0.116-0.174-0.35-0.22-0.523-0.105c-0.174,0.115-0.219,0.35-0.105,0.523C146.572,47.882,146.806,47.928,146.979,47.813z"/>
		<path clip-path="url(#SVGID_2_)" fill="#AFBABC" d="M254.722,113.024c0.028,0.347,0.33,0.603,0.675,0.575
			c0.341-0.028,0.605-0.331,0.577-0.678c-0.028-0.343-0.338-0.603-0.68-0.574C254.95,112.376,254.693,112.681,254.722,113.024z"/>
		<path clip-path="url(#SVGID_2_)" fill="#AFBABC" d="M184.825,11.732c0.028,0.344,0.332,0.604,0.679,0.575
			c0.341-0.027,0.602-0.333,0.573-0.678c-0.029-0.344-0.334-0.602-0.676-0.575C185.055,11.084,184.797,11.387,184.825,11.732z"/>
		<path clip-path="url(#SVGID_2_)" fill="#AFBABC" d="M165.758,105.14c0.028,0.346,0.332,0.603,0.677,0.574
			c0.346-0.028,0.605-0.331,0.577-0.676c-0.028-0.349-0.334-0.608-0.68-0.58C165.986,104.485,165.729,104.791,165.758,105.14z"/>
		<path clip-path="url(#SVGID_2_)" fill="#AFBABC" d="M239.868,108.831c0.023,0.276,0.266,0.485,0.54,0.462
			c0.28-0.022,0.484-0.267,0.462-0.543c-0.022-0.273-0.264-0.48-0.544-0.458C240.052,108.314,239.847,108.558,239.868,108.831z"/>
		<circle clip-path="url(#SVGID_2_)" fill="#AFBABC" cx="204.973" cy="69.264" r="0.504"/>
		<path clip-path="url(#SVGID_2_)" fill="#AFBABC" d="M190.404,87.231c0.022,0.278,0.264,0.483,0.547,0.46
			c0.272-0.023,0.479-0.265,0.456-0.542c-0.022-0.275-0.266-0.482-0.538-0.46C190.586,86.711,190.382,86.956,190.404,87.231z"/>
		<path clip-path="url(#SVGID_2_)" fill="#AFBABC" d="M176.189,99.996c0.022,0.279,0.265,0.485,0.545,0.463
			c0.275-0.023,0.479-0.266,0.456-0.544c-0.022-0.273-0.264-0.483-0.539-0.461C176.372,99.477,176.167,99.722,176.189,99.996z"/>
		<path clip-path="url(#SVGID_2_)" fill="#AFBABC" d="M126.622,76.384c0.022,0.278,0.265,0.485,0.545,0.463
			c0.275-0.022,0.479-0.266,0.456-0.544c-0.022-0.274-0.263-0.483-0.538-0.46C126.805,75.864,126.6,76.109,126.622,76.384z"/>
		<path clip-path="url(#SVGID_2_)" fill="#AFBABC" d="M169.361,79.674c0.023,0.277,0.262,0.482,0.541,0.458
			c0.278-0.022,0.485-0.262,0.462-0.54c-0.022-0.278-0.265-0.483-0.543-0.461C169.541,79.153,169.339,79.395,169.361,79.674z"/>
		<path clip-path="url(#SVGID_2_)" fill="#AFBABC" d="M203.726,140.65c0.021,0.278,0.264,0.48,0.542,0.458
			c0.277-0.022,0.481-0.263,0.459-0.539c-0.022-0.275-0.264-0.486-0.541-0.464C203.906,140.128,203.703,140.377,203.726,140.65z"/>
		<circle clip-path="url(#SVGID_2_)" fill="#AFBABC" cx="199.536" cy="45.193" r="0.502"/>
		<circle clip-path="url(#SVGID_2_)" fill="#AFBABC" cx="186.435" cy="33.519" r="0.502"/>
		<path clip-path="url(#SVGID_2_)" fill="#AFBABC" d="M201.209,78.025c0.041,0.518,0.493,0.903,1.015,0.86
			c0.521-0.043,0.904-0.496,0.862-1.014c-0.042-0.519-0.496-0.907-1.014-0.864C201.549,77.05,201.166,77.505,201.209,78.025z"/>
		<path clip-path="url(#SVGID_2_)" fill="#AFBABC" d="M182.211,62.663c0.045,0.555,0.53,0.97,1.086,0.925
			c0.552-0.045,0.962-0.535,0.918-1.088c-0.046-0.548-0.529-0.963-1.08-0.918C182.577,61.626,182.167,62.114,182.211,62.663z"/>
		<path clip-path="url(#SVGID_2_)" fill="#AFBABC" d="M51.032,27.41c0.091,1.109,1.062,1.936,2.167,1.846
			c1.108-0.09,1.932-1.064,1.841-2.173c-0.09-1.105-1.06-1.933-2.168-1.842C51.768,25.33,50.942,26.305,51.032,27.41z"/>
		<circle clip-path="url(#SVGID_2_)" fill="#AFBABC" cx="116.517" cy="55.287" r="1.645"/>
		<circle clip-path="url(#SVGID_2_)" fill="#AFBABC" cx="8.12" cy="3.71" r="1.646"/>
		<path clip-path="url(#SVGID_2_)" fill="#AFBABC" d="M107.388,68.516c0.056,0.69,0.662,1.205,1.356,1.147
			c0.69-0.056,1.204-0.66,1.148-1.352c-0.057-0.691-0.662-1.212-1.354-1.157C107.846,67.21,107.331,67.823,107.388,68.516z"/>
		<path clip-path="url(#SVGID_2_)" fill="#AFBABC" d="M53.839,77.167c0.056,0.693,0.663,1.207,1.358,1.15
			c0.69-0.056,1.204-0.663,1.148-1.354c-0.057-0.695-0.661-1.207-1.352-1.15C54.299,75.869,53.782,76.473,53.839,77.167z"/>
		<path clip-path="url(#SVGID_2_)" fill="#AFBABC" d="M113.885,80.346c0.068,0.833,0.796,1.451,1.623,1.382
			c0.833-0.067,1.449-0.793,1.382-1.627c-0.067-0.829-0.795-1.449-1.627-1.382C114.436,78.788,113.817,79.518,113.885,80.346z"/>
		<path clip-path="url(#SVGID_2_)" fill="#AFBABC" d="M87.058,38.881c0.067,0.831,0.795,1.45,1.626,1.383
			c0.833-0.067,1.445-0.796,1.378-1.628c-0.068-0.837-0.79-1.448-1.622-1.381C87.606,37.323,86.989,38.044,87.058,38.881z"/>
		<path clip-path="url(#SVGID_2_)" fill="#AFBABC" d="M13.158,20.583c0.067,0.829,0.794,1.452,1.626,1.385
			c0.831-0.068,1.445-0.801,1.378-1.63c-0.067-0.833-0.792-1.449-1.624-1.381C13.706,19.024,13.09,19.75,13.158,20.583z"/>
		<path clip-path="url(#SVGID_2_)" fill="#AFBABC" d="M227.729,232.747c0.077,0.97,0.927,1.692,1.898,1.612
			c0.97-0.078,1.69-0.929,1.611-1.898c-0.078-0.966-0.927-1.689-1.897-1.61C228.371,230.931,227.65,231.781,227.729,232.747z"/>
		<circle clip-path="url(#SVGID_2_)" fill="#AFBABC" cx="6.782" cy="150.861" r="1.761"/>
		<path clip-path="url(#SVGID_2_)" fill="#AFBABC" d="M119.019,110.723c0.057,0.691,0.66,1.204,1.356,1.148
			c0.688-0.055,1.207-0.66,1.149-1.352c-0.057-0.695-0.664-1.205-1.354-1.15C119.475,109.426,118.962,110.027,119.019,110.723z"/>
		<path clip-path="url(#SVGID_2_)" fill="#AFBABC" d="M179.662,141.697c0.085,1.034,0.992,1.811,2.037,1.727
			c1.037-0.086,1.808-0.999,1.724-2.033c-0.085-1.04-0.992-1.813-2.03-1.729C180.349,139.746,179.577,140.658,179.662,141.697z"/>
		<path clip-path="url(#SVGID_2_)" fill="#AFBABC" d="M142.753,61.279c0.043,0.519,0.498,0.907,1.02,0.864
			c0.518-0.041,0.905-0.499,0.861-1.018c-0.042-0.519-0.497-0.902-1.015-0.86C143.099,60.308,142.71,60.759,142.753,61.279z"/>
		<path clip-path="url(#SVGID_2_)" fill="#AFBABC" d="M148.087,69.485c0.046,0.55,0.534,0.971,1.088,0.925
			c0.551-0.044,0.967-0.538,0.921-1.088c-0.045-0.555-0.534-0.967-1.085-0.921C148.458,68.447,148.042,68.931,148.087,69.485z"/>
		<path clip-path="url(#SVGID_2_)" fill="#AFBABC" d="M160.654,81.206c0.044,0.551,0.531,0.966,1.087,0.92
			c0.551-0.045,0.962-0.532,0.918-1.084c-0.045-0.554-0.53-0.968-1.081-0.922C161.021,80.165,160.608,80.65,160.654,81.206z"/>
		<path clip-path="url(#SVGID_2_)" fill="#AFBABC" d="M159.948,72.557c0.035,0.416,0.401,0.725,0.816,0.69
			c0.413-0.034,0.722-0.397,0.688-0.812c-0.034-0.412-0.397-0.726-0.812-0.692C160.228,71.777,159.915,72.144,159.948,72.557z"/>
		<path clip-path="url(#SVGID_2_)" fill="#AFBABC" d="M132.732,95.489c0.034,0.412,0.404,0.724,0.817,0.69
			c0.41-0.033,0.727-0.401,0.692-0.813c-0.033-0.417-0.405-0.724-0.814-0.691C133.015,94.708,132.699,95.071,132.732,95.489z"/>
		<path clip-path="url(#SVGID_2_)" fill="#AFBABC" d="M133.538,105.365c0.033,0.415,0.403,0.725,0.817,0.691
			c0.41-0.033,0.726-0.399,0.692-0.814c-0.034-0.413-0.404-0.72-0.815-0.687C133.819,104.589,133.504,104.951,133.538,105.365z"/>
		<path clip-path="url(#SVGID_2_)" fill="#AFBABC" d="M122.616,123.918c0.034,0.418,0.396,0.725,0.812,0.691
			c0.415-0.034,0.726-0.395,0.692-0.814c-0.034-0.414-0.399-0.724-0.815-0.689C122.891,123.14,122.582,123.503,122.616,123.918z"/>
		<path clip-path="url(#SVGID_2_)" fill="#AFBABC" d="M144.872,107.356c0.034,0.411,0.4,0.724,0.811,0.69
			c0.419-0.034,0.728-0.401,0.693-0.812c-0.034-0.418-0.397-0.725-0.815-0.689C145.149,106.577,144.838,106.938,144.872,107.356z"/>
		<path clip-path="url(#SVGID_2_)" fill="#AFBABC" d="M138.148,68.433c0.033,0.411,0.399,0.724,0.81,0.69
			c0.42-0.034,0.729-0.401,0.694-0.813c-0.034-0.417-0.397-0.724-0.816-0.689C138.426,67.653,138.114,68.015,138.148,68.433z"/>
		<path clip-path="url(#SVGID_2_)" fill="#AFBABC" d="M106.096,95.764c0.033,0.417,0.396,0.728,0.816,0.693
			c0.412-0.034,0.721-0.399,0.687-0.814c-0.033-0.414-0.396-0.726-0.81-0.692C106.369,94.985,106.062,95.352,106.096,95.764z"/>
		<path clip-path="url(#SVGID_2_)" fill="#AFBABC" d="M141.759,30.736c0.033,0.418,0.396,0.725,0.814,0.69
			c0.414-0.033,0.723-0.396,0.688-0.812c-0.034-0.416-0.396-0.723-0.811-0.69C142.033,29.959,141.725,30.321,141.759,30.736z"/>
		<path clip-path="url(#SVGID_2_)" fill="#AFBABC" d="M166.985,61.323c0.048,0.587,0.56,1.022,1.15,0.975
			c0.59-0.048,1.027-0.561,0.979-1.148c-0.047-0.59-0.562-1.026-1.151-0.978C167.372,60.22,166.937,60.732,166.985,61.323z"/>
		<circle clip-path="url(#SVGID_2_)" fill="#AFBABC" cx="33.638" cy="25.919" r="0.88"/>
		<path clip-path="url(#SVGID_2_)" fill="#AFBABC" d="M43.999,2.897c0.04,0.491,0.468,0.848,0.951,0.808
			c0.481-0.039,0.843-0.461,0.804-0.951c-0.038-0.479-0.466-0.842-0.947-0.804C44.323,1.99,43.96,2.417,43.999,2.897z"/>
		<path clip-path="url(#SVGID_2_)" fill="#AFBABC" d="M50.083,40.382c0.017,0.201,0.196,0.359,0.405,0.343
			c0.208-0.016,0.363-0.204,0.347-0.404c-0.017-0.209-0.2-0.364-0.406-0.348C50.218,39.989,50.066,40.173,50.083,40.382z"/>
		<path clip-path="url(#SVGID_2_)" fill="#AFBABC" d="M51.854,15.347c0.017,0.201,0.196,0.36,0.406,0.343
			c0.207-0.016,0.362-0.203,0.347-0.404c-0.018-0.209-0.2-0.364-0.407-0.348C51.989,14.955,51.837,15.138,51.854,15.347z"/>
		<path clip-path="url(#SVGID_2_)" fill="#AFBABC" d="M72.167,62.919c0.017,0.201,0.197,0.36,0.406,0.343
			c0.207-0.016,0.363-0.203,0.347-0.404c-0.017-0.209-0.2-0.363-0.407-0.348C72.303,62.527,72.15,62.71,72.167,62.919z"/>
		<path clip-path="url(#SVGID_2_)" fill="#AFBABC" d="M78.857,20.376c0.018,0.202,0.2,0.359,0.408,0.342
			c0.209-0.017,0.363-0.203,0.347-0.404c-0.017-0.211-0.198-0.366-0.407-0.351C78.997,19.981,78.842,20.164,78.857,20.376z"/>
		<path clip-path="url(#SVGID_2_)" fill="#AFBABC" d="M76.275,11.11c0.018,0.201,0.2,0.359,0.408,0.342
			c0.209-0.017,0.363-0.202,0.346-0.404c-0.016-0.211-0.197-0.366-0.406-0.35C76.415,10.715,76.259,10.898,76.275,11.11z"/>
		<path clip-path="url(#SVGID_2_)" fill="#AFBABC" d="M119.715,99.174c0.039,0.489,0.463,0.848,0.951,0.808
			c0.48-0.039,0.844-0.462,0.804-0.951c-0.038-0.481-0.466-0.842-0.947-0.802C120.035,98.268,119.676,98.693,119.715,99.174z"/>
		<path clip-path="url(#SVGID_2_)" fill="#AFBABC" d="M115.883,92.424c0.017,0.207,0.195,0.361,0.405,0.344
			c0.21-0.017,0.362-0.198,0.345-0.406c-0.016-0.21-0.196-0.362-0.405-0.345C116.016,92.035,115.865,92.213,115.883,92.424z"/>
		<path clip-path="url(#SVGID_2_)" fill="#AFBABC" d="M140.26,37.836c0.034,0.412,0.405,0.724,0.818,0.69
			c0.41-0.033,0.726-0.401,0.691-0.813c-0.032-0.418-0.404-0.725-0.814-0.691C140.542,37.055,140.227,37.419,140.26,37.836z"/>
		<path clip-path="url(#SVGID_2_)" fill="#AFBABC" d="M113.623,38.111c0.034,0.417,0.396,0.728,0.816,0.693
			c0.413-0.034,0.722-0.4,0.688-0.814s-0.397-0.726-0.811-0.692C113.897,37.333,113.59,37.699,113.623,38.111z"/>
		<path clip-path="url(#SVGID_2_)" fill="#AFBABC" d="M127.242,41.521c0.04,0.489,0.464,0.847,0.951,0.808
			c0.48-0.039,0.844-0.462,0.804-0.951c-0.038-0.481-0.466-0.841-0.947-0.801C127.562,40.615,127.204,41.04,127.242,41.521z"/>
		<path clip-path="url(#SVGID_2_)" fill="#AFBABC" d="M123.41,34.771c0.017,0.208,0.195,0.362,0.405,0.344
			c0.21-0.017,0.363-0.199,0.346-0.406c-0.017-0.21-0.196-0.362-0.406-0.345C123.544,34.382,123.394,34.561,123.41,34.771z"/>
		<path clip-path="url(#SVGID_2_)" fill="#AFBABC" d="M98.117,101.82c0.017,0.205,0.196,0.36,0.404,0.343
			c0.209-0.017,0.361-0.199,0.345-0.404c-0.018-0.209-0.197-0.364-0.405-0.348S98.1,101.61,98.117,101.82z"/>
		<path clip-path="url(#SVGID_2_)" fill="#AFBABC" d="M76.766,80.561c0.403-0.263,0.513-0.812,0.244-1.219
			c-0.264-0.401-0.813-0.513-1.216-0.246c-0.409,0.271-0.515,0.815-0.248,1.221C75.815,80.721,76.362,80.834,76.766,80.561z"/>
		<path clip-path="url(#SVGID_2_)" fill="#AFBABC" d="M62.457,20.437c0.401-0.269,0.511-0.817,0.242-1.225
			c-0.266-0.398-0.813-0.511-1.217-0.239c-0.405,0.265-0.513,0.814-0.246,1.218C61.507,20.597,62.052,20.704,62.457,20.437z"/>
		<path clip-path="url(#SVGID_2_)" fill="#AFBABC" d="M40.395,12.793c0.4-0.269,0.511-0.817,0.241-1.225
			c-0.266-0.398-0.813-0.511-1.217-0.239c-0.404,0.265-0.513,0.814-0.246,1.218C39.443,12.953,39.988,13.06,40.395,12.793z"/>
		<path clip-path="url(#SVGID_2_)" fill="#AFBABC" d="M91.347,21.119c0.402-0.265,0.512-0.813,0.241-1.222
			c-0.266-0.398-0.813-0.511-1.214-0.24c-0.407,0.267-0.516,0.815-0.248,1.22C90.396,21.28,90.94,21.39,91.347,21.119z"/>
		<path clip-path="url(#SVGID_2_)" fill="#AFBABC" d="M73.985,93.694c0.174-0.115,0.22-0.349,0.105-0.525
			c-0.115-0.173-0.347-0.219-0.521-0.104c-0.178,0.114-0.222,0.351-0.106,0.524C73.58,93.762,73.814,93.807,73.985,93.694z"/>
		<path clip-path="url(#SVGID_2_)" fill="#AFBABC" d="M24.973,8.64c0.406-0.269,0.517-0.815,0.247-1.221
			c-0.27-0.403-0.816-0.514-1.223-0.242c-0.402,0.268-0.511,0.813-0.244,1.216C24.022,8.795,24.569,8.907,24.973,8.64z"/>
		<path clip-path="url(#SVGID_2_)" fill="#AFBABC" d="M62.782,66.09c0.173-0.113,0.222-0.344,0.105-0.52
			c-0.119-0.176-0.349-0.223-0.524-0.105c-0.176,0.115-0.221,0.349-0.109,0.521C62.369,66.164,62.609,66.211,62.782,66.09z"/>
		<path clip-path="url(#SVGID_2_)" fill="#AFBABC" d="M42.782,52.689c0.172-0.113,0.221-0.344,0.104-0.519
			c-0.118-0.177-0.349-0.224-0.524-0.106c-0.176,0.116-0.221,0.349-0.109,0.521C42.368,52.763,42.608,52.811,42.782,52.689z"/>
		<path clip-path="url(#SVGID_2_)" fill="#AFBABC" d="M33.062,47.705c0.173-0.113,0.221-0.344,0.104-0.519
			c-0.118-0.177-0.349-0.224-0.524-0.106c-0.176,0.116-0.221,0.349-0.109,0.521C32.648,47.778,32.889,47.826,33.062,47.705z"/>
		<path clip-path="url(#SVGID_2_)" fill="#AFBABC" d="M56.995,53.977c0.028,0.345,0.335,0.601,0.681,0.572
			c0.342-0.027,0.604-0.329,0.577-0.675c-0.028-0.349-0.337-0.602-0.679-0.574C57.229,53.328,56.968,53.628,56.995,53.977z"/>
		<path clip-path="url(#SVGID_2_)" fill="#AFBABC" d="M42.376,61.992c0.028,0.345,0.335,0.601,0.681,0.572
			c0.342-0.028,0.604-0.33,0.577-0.675c-0.028-0.348-0.337-0.602-0.68-0.574C42.609,61.344,42.349,61.644,42.376,61.992z"/>
		<path clip-path="url(#SVGID_2_)" fill="#AFBABC" d="M9.111,38.515c0.028,0.345,0.335,0.601,0.681,0.572
			c0.342-0.027,0.604-0.329,0.577-0.675c-0.029-0.349-0.338-0.602-0.68-0.574C9.344,37.866,9.083,38.166,9.111,38.515z"/>
		<path clip-path="url(#SVGID_2_)" fill="#AFBABC" d="M67.119,42.649c0.028,0.348,0.331,0.604,0.679,0.576
			c0.343-0.027,0.602-0.331,0.573-0.679c-0.028-0.342-0.333-0.599-0.674-0.572C67.348,42.004,67.091,42.306,67.119,42.649z"/>
		<path clip-path="url(#SVGID_2_)" fill="#AFBABC" d="M92.524,87.384c0.029,0.351,0.328,0.61,0.678,0.582
			c0.344-0.028,0.603-0.333,0.573-0.685c-0.028-0.341-0.331-0.597-0.677-0.569C92.751,86.741,92.496,87.043,92.524,87.384z"/>
		<path clip-path="url(#SVGID_2_)" fill="#AFBABC" d="M135.143,125.062c0.029,0.347,0.334,0.607,0.679,0.58
			c0.343-0.028,0.605-0.336,0.577-0.683c-0.027-0.341-0.336-0.598-0.68-0.571C135.373,124.415,135.115,124.72,135.143,125.062z"/>
		<path clip-path="url(#SVGID_2_)" fill="#AFBABC" d="M82.045,67.174c0.022,0.276,0.263,0.481,0.54,0.458
			c0.279-0.022,0.483-0.263,0.46-0.539c-0.021-0.278-0.264-0.487-0.542-0.464C82.227,66.651,82.022,66.896,82.045,67.174z"/>
		<path clip-path="url(#SVGID_2_)" fill="#AFBABC" d="M131.237,51.555c0.022,0.276,0.264,0.481,0.544,0.458
			c0.276-0.022,0.481-0.264,0.459-0.54s-0.265-0.483-0.54-0.461C131.42,51.035,131.215,51.28,131.237,51.555z"/>
		<path clip-path="url(#SVGID_2_)" fill="#AFBABC" d="M90.736,10.823c0.022,0.275,0.261,0.486,0.543,0.464
			c0.272-0.022,0.479-0.27,0.457-0.545c-0.022-0.279-0.266-0.481-0.539-0.459C90.914,10.306,90.713,10.544,90.736,10.823z"/>
		<path clip-path="url(#SVGID_2_)" fill="#AFBABC" d="M117.171,69.479c0.022,0.278,0.264,0.486,0.544,0.464
			c0.276-0.023,0.479-0.267,0.458-0.545c-0.022-0.276-0.264-0.481-0.54-0.458C117.354,68.963,117.148,69.203,117.171,69.479z"/>
		<circle clip-path="url(#SVGID_2_)" fill="#AFBABC" cx="103.458" cy="82.208" r="0.503"/>
		<path clip-path="url(#SVGID_2_)" fill="#AFBABC" d="M96.13,61.921c0.021,0.276,0.263,0.487,0.538,0.464
			c0.278-0.023,0.482-0.268,0.46-0.546c-0.021-0.276-0.265-0.48-0.541-0.458C96.312,61.403,96.107,61.644,96.13,61.921z"/>
		<path clip-path="url(#SVGID_2_)" fill="#AFBABC" d="M23.94,46.727c0.023,0.273,0.267,0.481,0.547,0.459
			c0.273-0.022,0.479-0.267,0.457-0.541c-0.022-0.279-0.266-0.486-0.538-0.465C24.126,46.203,23.918,46.448,23.94,46.727z"/>
		<path clip-path="url(#SVGID_2_)" fill="#AFBABC" d="M37.896,34.556c0.022,0.274,0.267,0.482,0.546,0.459
			c0.273-0.022,0.479-0.267,0.457-0.541c-0.021-0.279-0.266-0.486-0.538-0.465C38.081,34.033,37.872,34.278,37.896,34.556z"/>
		<path clip-path="url(#SVGID_2_)" fill="#AFBABC" d="M92.529,71.994c0.022,0.277,0.268,0.484,0.542,0.461
			c0.28-0.022,0.48-0.265,0.458-0.542s-0.261-0.486-0.54-0.464C92.714,71.472,92.507,71.717,92.529,71.994z"/>
		<path clip-path="url(#SVGID_2_)" fill="#AFBABC" d="M26.975,56.702c0.023,0.277,0.268,0.484,0.543,0.461
			c0.279-0.022,0.48-0.265,0.457-0.542c-0.022-0.277-0.26-0.486-0.54-0.464C27.16,56.18,26.952,56.425,26.975,56.702z"/>
		<path clip-path="url(#SVGID_2_)" fill="#AFBABC" d="M15.472,66.874c0.023,0.278,0.269,0.484,0.543,0.461
			c0.279-0.022,0.48-0.265,0.458-0.542c-0.022-0.277-0.261-0.486-0.541-0.464C15.657,66.352,15.45,66.597,15.472,66.874z"/>
		<path clip-path="url(#SVGID_2_)" fill="#AFBABC" d="M125.155,45.108c0.022,0.278,0.264,0.483,0.547,0.461
			c0.272-0.022,0.478-0.264,0.455-0.543c-0.022-0.273-0.264-0.48-0.536-0.458C125.338,44.591,125.133,44.835,125.155,45.108z"/>
		<path clip-path="url(#SVGID_2_)" fill="#AFBABC" d="M77.101,57.86c0.022,0.276,0.264,0.482,0.544,0.46
			c0.278-0.023,0.48-0.265,0.457-0.541c-0.021-0.276-0.26-0.483-0.538-0.461C77.283,57.34,77.078,57.585,77.101,57.86z"/>
		<path clip-path="url(#SVGID_2_)" fill="#AFBABC" d="M27.025,29.714c0.173-0.113,0.222-0.344,0.105-0.52
			c-0.118-0.176-0.349-0.223-0.524-0.105c-0.176,0.115-0.221,0.349-0.109,0.521C26.612,29.788,26.853,29.835,27.025,29.714z"/>
		<path clip-path="url(#SVGID_2_)" fill="#AFBABC" d="M21.239,17.601c0.027,0.345,0.334,0.601,0.68,0.572
			c0.342-0.027,0.604-0.329,0.577-0.675c-0.028-0.349-0.337-0.602-0.679-0.574C21.472,16.952,21.211,17.252,21.239,17.601z"/>
		<path clip-path="url(#SVGID_2_)" fill="#AFBABC" d="M46.288,30.798c0.022,0.276,0.263,0.481,0.54,0.458
			c0.279-0.022,0.483-0.263,0.46-0.539c-0.021-0.278-0.264-0.487-0.542-0.464C46.47,30.275,46.266,30.521,46.288,30.798z"/>
		<path clip-path="url(#SVGID_2_)" fill="#AFBABC" d="M60.373,25.545c0.021,0.276,0.263,0.487,0.538,0.464
			c0.278-0.023,0.482-0.268,0.46-0.546c-0.021-0.276-0.265-0.48-0.541-0.458C60.555,25.027,60.351,25.268,60.373,25.545z"/>
		<path clip-path="url(#SVGID_2_)" fill="#AFBABC" d="M41.344,21.484c0.022,0.276,0.264,0.482,0.544,0.46
			c0.278-0.023,0.48-0.265,0.457-0.541c-0.021-0.276-0.26-0.483-0.538-0.461C41.526,20.964,41.321,21.209,41.344,21.484z"/>
		<path clip-path="url(#SVGID_2_)" fill="#AFBABC" d="M75.878,36.64c0.022,0.279,0.261,0.483,0.538,0.461
			c0.276-0.022,0.482-0.263,0.46-0.542c-0.022-0.273-0.264-0.479-0.54-0.457C76.057,36.125,75.855,36.368,75.878,36.64z"/>
		<path clip-path="url(#SVGID_2_)" fill="#AFBABC" d="M104.614,31.393c0.023,0.277,0.264,0.483,0.548,0.461
			c0.271-0.023,0.479-0.265,0.456-0.544c-0.021-0.274-0.267-0.481-0.539-0.459C104.796,30.874,104.593,31.117,104.614,31.393z"/>
		<path clip-path="url(#SVGID_2_)" fill="#AFBABC" d="M81.508,27.829c0.023,0.277,0.264,0.483,0.548,0.461
			c0.271-0.023,0.479-0.265,0.457-0.544c-0.022-0.274-0.268-0.481-0.539-0.459C81.69,27.311,81.487,27.553,81.508,27.829z"/>
		<circle clip-path="url(#SVGID_2_)" fill="#AFBABC" cx="67.899" cy="82.969" r="0.819"/>
		<path clip-path="url(#SVGID_2_)" fill="#AFBABC" d="M85.113,104.063c0.043,0.518,0.494,0.907,1.016,0.864
			c0.522-0.042,0.907-0.5,0.865-1.017c-0.041-0.514-0.497-0.903-1.018-0.861C85.455,103.091,85.072,103.549,85.113,104.063z"/>
		<circle clip-path="url(#SVGID_2_)" fill="#AFBABC" cx="128.911" cy="60.197" r="0.942"/>
		<path clip-path="url(#SVGID_2_)" fill="#AFBABC" d="M108.974,44.918c0.046,0.554,0.531,0.962,1.088,0.918
			c0.552-0.044,0.967-0.528,0.923-1.081c-0.046-0.559-0.535-0.968-1.086-0.924C109.342,43.877,108.929,44.361,108.974,44.918z"/>
		<path clip-path="url(#SVGID_2_)" fill="#AFBABC" d="M156.085,148.98c0.074,0.906,0.873,1.58,1.775,1.506
			c0.906-0.073,1.581-0.868,1.508-1.773c-0.074-0.905-0.869-1.577-1.774-1.504C156.691,147.284,156.011,148.076,156.085,148.98z"/>
		<path clip-path="url(#SVGID_2_)" fill="#AFBABC" d="M148.596,162.07c0.057,0.694,0.666,1.21,1.354,1.152
			c0.694-0.056,1.211-0.663,1.154-1.357c-0.056-0.692-0.664-1.204-1.359-1.147C149.058,160.773,148.539,161.377,148.596,162.07z"/>
		<path clip-path="url(#SVGID_2_)" fill="#AFBABC" d="M155.093,173.906c0.067,0.83,0.796,1.452,1.626,1.383
			c0.833-0.068,1.445-0.798,1.378-1.628c-0.068-0.833-0.789-1.449-1.622-1.38C155.644,172.349,155.025,173.074,155.093,173.906z"/>
		<path clip-path="url(#SVGID_2_)" fill="#AFBABC" d="M139.197,145.802c0.068,0.836,0.794,1.449,1.627,1.381
			c0.828-0.066,1.449-0.79,1.382-1.626c-0.068-0.828-0.798-1.447-1.627-1.38C139.745,144.245,139.129,144.974,139.197,145.802z"/>
		<path clip-path="url(#SVGID_2_)" fill="#AFBABC" d="M140.726,212.566c0.079,0.972,0.929,1.693,1.895,1.615
			c0.972-0.08,1.691-0.928,1.612-1.9c-0.079-0.964-0.927-1.686-1.897-1.606C141.368,210.753,140.647,211.603,140.726,212.566z"/>
		<circle clip-path="url(#SVGID_2_)" fill="#AFBABC" cx="236.828" cy="167.246" r="1.257"/>
		<path clip-path="url(#SVGID_2_)" fill="#AFBABC" d="M252.884,140.712c0.057,0.69,0.665,1.202,1.355,1.146
			c0.689-0.056,1.207-0.66,1.151-1.35c-0.058-0.695-0.667-1.208-1.355-1.151C253.345,139.413,252.827,140.018,252.884,140.712z"/>
		<path clip-path="url(#SVGID_2_)" fill="#AFBABC" d="M248.727,125.929c0.057,0.688,0.662,1.204,1.358,1.147
			c0.691-0.056,1.201-0.663,1.146-1.352c-0.057-0.696-0.658-1.211-1.35-1.155C249.185,124.627,248.67,125.233,248.727,125.929z"/>
		<path clip-path="url(#SVGID_2_)" fill="#AFBABC" d="M160.223,204.282c0.058,0.69,0.665,1.207,1.359,1.15
			c0.69-0.057,1.208-0.665,1.15-1.354c-0.056-0.693-0.665-1.209-1.354-1.153C160.683,202.982,160.167,203.591,160.223,204.282z"/>
		<path clip-path="url(#SVGID_2_)" fill="#AFBABC" d="M212.021,160.057c0.085,1.036,0.992,1.811,2.03,1.727
			c1.04-0.084,1.817-0.997,1.732-2.033c-0.085-1.039-0.998-1.811-2.039-1.727C212.708,158.109,211.938,159.018,212.021,160.057z"/>
		<path clip-path="url(#SVGID_2_)" fill="#AFBABC" d="M183.962,154.834c0.043,0.52,0.497,0.906,1.019,0.864
			c0.518-0.042,0.901-0.496,0.859-1.017c-0.042-0.516-0.495-0.904-1.013-0.862C184.306,153.862,183.92,154.32,183.962,154.834z"/>
		<path clip-path="url(#SVGID_2_)" fill="#AFBABC" d="M189.298,163.044c0.046,0.555,0.53,0.964,1.087,0.919
			c0.55-0.045,0.963-0.527,0.917-1.083c-0.045-0.554-0.53-0.965-1.079-0.92C189.666,162.006,189.253,162.488,189.298,163.044z"/>
		<path clip-path="url(#SVGID_2_)" fill="#AFBABC" d="M196.101,184.586c0.046,0.556,0.533,0.969,1.086,0.924
			c0.552-0.045,0.967-0.532,0.922-1.088c-0.045-0.549-0.534-0.966-1.086-0.92C196.471,183.547,196.056,184.037,196.101,184.586z"/>
		<circle clip-path="url(#SVGID_2_)" fill="#AFBABC" cx="210.996" cy="172.252" r="0.755"/>
		<path clip-path="url(#SVGID_2_)" fill="#AFBABC" d="M227.443,145.807c0.033,0.415,0.398,0.722,0.812,0.688
			c0.414-0.033,0.728-0.396,0.694-0.812c-0.034-0.415-0.402-0.724-0.816-0.691C227.719,145.025,227.409,145.39,227.443,145.807z"/>
		<path clip-path="url(#SVGID_2_)" fill="#AFBABC" d="M173.943,189.043c0.033,0.417,0.397,0.723,0.812,0.689
			c0.418-0.034,0.728-0.396,0.694-0.812c-0.034-0.416-0.398-0.729-0.817-0.694C174.218,188.261,173.909,188.627,173.943,189.043z"/>
		<path clip-path="url(#SVGID_2_)" fill="#AFBABC" d="M186.801,201.633c0.034,0.415,0.4,0.724,0.816,0.689
			c0.41-0.033,0.722-0.397,0.688-0.812c-0.033-0.417-0.399-0.725-0.811-0.69C187.078,200.853,186.766,201.215,186.801,201.633z"/>
		<path clip-path="url(#SVGID_2_)" fill="#AFBABC" d="M147.308,189.32c0.035,0.419,0.398,0.725,0.812,0.691
			c0.41-0.035,0.728-0.395,0.693-0.814c-0.033-0.412-0.404-0.724-0.815-0.69C147.583,188.541,147.274,188.908,147.308,189.32z"/>
		<path clip-path="url(#SVGID_2_)" fill="#AFBABC" d="M176.417,172.169c0.034,0.412,0.402,0.726,0.812,0.691
			c0.415-0.034,0.726-0.402,0.691-0.814c-0.034-0.416-0.4-0.724-0.813-0.691C176.696,171.388,176.383,171.752,176.417,172.169z"/>
		<circle clip-path="url(#SVGID_2_)" fill="#AFBABC" cx="221.306" cy="169.518" r="1.069"/>
		<path clip-path="url(#SVGID_2_)" fill="#AFBABC" d="M235.234,184.803c0.04,0.486,0.46,0.847,0.948,0.808
			c0.482-0.04,0.843-0.464,0.803-0.951c-0.039-0.479-0.463-0.842-0.946-0.802C235.552,183.897,235.195,184.323,235.234,184.803z"/>
		<path clip-path="url(#SVGID_2_)" fill="#AFBABC" d="M199.684,196.011c0.017,0.207,0.198,0.363,0.406,0.346
			c0.209-0.018,0.362-0.202,0.346-0.407c-0.017-0.21-0.196-0.361-0.408-0.344C199.82,195.623,199.666,195.801,199.684,196.011z"/>
		<path clip-path="url(#SVGID_2_)" fill="#AFBABC" d="M214.13,135.662c0.016,0.204,0.194,0.359,0.408,0.342
			c0.205-0.017,0.36-0.199,0.343-0.403c-0.017-0.211-0.198-0.365-0.403-0.349C214.263,135.27,214.112,135.451,214.13,135.662z"/>
		<path clip-path="url(#SVGID_2_)" fill="#AFBABC" d="M160.924,192.736c0.039,0.481,0.465,0.841,0.95,0.802
			c0.479-0.04,0.841-0.463,0.802-0.946c-0.04-0.488-0.465-0.846-0.945-0.808C161.246,191.824,160.884,192.248,160.924,192.736z"/>
		<path clip-path="url(#SVGID_2_)" fill="#AFBABC" d="M157.092,185.98c0.018,0.206,0.197,0.361,0.405,0.343
			c0.21-0.018,0.358-0.199,0.343-0.404c-0.018-0.207-0.194-0.362-0.404-0.345C157.228,185.591,157.076,185.773,157.092,185.98z"/>
		<path clip-path="url(#SVGID_2_)" fill="#AFBABC" d="M139.325,195.375c0.017,0.208,0.197,0.364,0.408,0.346
			c0.206-0.017,0.358-0.2,0.341-0.407c-0.017-0.204-0.196-0.36-0.402-0.343C139.461,194.989,139.308,195.172,139.325,195.375z"/>
		<path clip-path="url(#SVGID_2_)" fill="#AFBABC" d="M127.373,168.237c0.403-0.271,0.51-0.819,0.244-1.222
			c-0.267-0.403-0.812-0.512-1.217-0.244c-0.405,0.272-0.513,0.815-0.247,1.215C126.424,168.392,126.97,168.503,127.373,168.237z"/>
		<path clip-path="url(#SVGID_2_)" fill="#AFBABC" d="M123.322,174.855c0.176-0.11,0.219-0.347,0.104-0.52
			c-0.111-0.175-0.347-0.222-0.521-0.106c-0.177,0.116-0.219,0.349-0.104,0.521C122.914,174.928,123.149,174.973,123.322,174.855z"
			/>
		<path clip-path="url(#SVGID_2_)" fill="#AFBABC" d="M246.614,159.996c0.397-0.268,0.512-0.812,0.242-1.217
			c-0.267-0.401-0.815-0.513-1.222-0.245c-0.404,0.271-0.513,0.814-0.245,1.215C245.657,160.154,246.21,160.266,246.614,159.996z"/>
		<path clip-path="url(#SVGID_2_)" fill="#AFBABC" d="M145.495,134.668c0.174-0.114,0.218-0.346,0.104-0.521
			c-0.113-0.175-0.352-0.222-0.521-0.108c-0.174,0.118-0.222,0.354-0.106,0.526C145.087,134.736,145.318,134.786,145.495,134.668z"
			/>
		<path clip-path="url(#SVGID_2_)" fill="#AFBABC" d="M222.696,188.836c0.027,0.343,0.327,0.601,0.672,0.572
			c0.345-0.027,0.604-0.33,0.577-0.674c-0.028-0.348-0.335-0.604-0.68-0.576C222.921,188.186,222.667,188.488,222.696,188.836z"/>
		<path clip-path="url(#SVGID_2_)" fill="#AFBABC" d="M237.287,138.819c0.029,0.349,0.332,0.605,0.676,0.578
			c0.347-0.029,0.603-0.331,0.574-0.679c-0.028-0.343-0.329-0.602-0.677-0.574C237.517,138.174,237.259,138.477,237.287,138.819z"/>
		<circle clip-path="url(#SVGID_2_)" fill="#AFBABC" cx="134.359" cy="180.896" r="0.627"/>
		<path clip-path="url(#SVGID_2_)" fill="#AFBABC" d="M252.217,201.211c0.023,0.279,0.265,0.487,0.541,0.463
			c0.281-0.023,0.481-0.267,0.459-0.545c-0.022-0.276-0.26-0.481-0.54-0.459C252.4,200.693,252.194,200.936,252.217,201.211z"/>
		<path clip-path="url(#SVGID_2_)" fill="#AFBABC" d="M207.844,184.642c0.022,0.275,0.261,0.48,0.54,0.458
			c0.276-0.023,0.48-0.265,0.458-0.539c-0.022-0.274-0.264-0.484-0.54-0.462C208.022,184.123,207.821,184.368,207.844,184.642z"/>
		<path clip-path="url(#SVGID_2_)" fill="#AFBABC" d="M172.444,145.112c0.023,0.276,0.265,0.485,0.545,0.463
			c0.272-0.023,0.481-0.269,0.459-0.544c-0.022-0.273-0.269-0.484-0.54-0.462C172.628,144.592,172.423,144.839,172.444,145.112z"/>
		<path clip-path="url(#SVGID_2_)" fill="#AFBABC" d="M241.58,196.136c0.022,0.275,0.264,0.485,0.547,0.464
			c0.273-0.022,0.477-0.27,0.454-0.545c-0.022-0.277-0.264-0.483-0.535-0.461C241.762,195.615,241.558,195.859,241.58,196.136z"/>
		<path clip-path="url(#SVGID_2_)" fill="#AFBABC" d="M253.637,176.851c0.021,0.278,0.263,0.482,0.543,0.459
			c0.272-0.022,0.479-0.263,0.457-0.541c-0.021-0.276-0.267-0.483-0.539-0.461C253.818,176.331,253.614,176.574,253.637,176.851z"/>
		<circle clip-path="url(#SVGID_2_)" fill="#AFBABC" cx="158.881" cy="163" r="0.503"/>
		<path clip-path="url(#SVGID_2_)" fill="#AFBABC" d="M144.16,175.806c0.023,0.276,0.268,0.485,0.549,0.463
			c0.276-0.023,0.479-0.269,0.458-0.544c-0.023-0.276-0.265-0.484-0.541-0.461C144.347,175.285,144.139,175.53,144.16,175.806z"/>
		<circle clip-path="url(#SVGID_2_)" fill="#AFBABC" cx="137.837" cy="155.441" r="0.504"/>
		<path clip-path="url(#SVGID_2_)" fill="#AFBABC" d="M172.421,217.181c0.022,0.276,0.261,0.48,0.541,0.458
			c0.275-0.021,0.482-0.263,0.459-0.54c-0.022-0.277-0.266-0.486-0.541-0.463C172.6,216.658,172.398,216.903,172.421,217.181z"/>
		<circle clip-path="url(#SVGID_2_)" fill="#AFBABC" cx="134.238" cy="165.511" r="0.502"/>
		<path clip-path="url(#SVGID_2_)" fill="#AFBABC" d="M260.769,191.661c0.028,0.347,0.338,0.604,0.684,0.575
			c0.341-0.027,0.602-0.33,0.572-0.679c-0.027-0.344-0.334-0.6-0.675-0.571C261.005,191.013,260.74,191.315,260.769,191.661z"/>
		<path clip-path="url(#SVGID_2_)" fill="#AFBABC" d="M169.181,153.833c0.042,0.519,0.498,0.904,1.017,0.862
			c0.522-0.042,0.907-0.496,0.863-1.015c-0.042-0.518-0.494-0.906-1.018-0.864C169.526,152.858,169.138,153.316,169.181,153.833z"/>
		<path clip-path="url(#SVGID_2_)" fill="#AFBABC" d="M150.186,138.476c0.045,0.551,0.529,0.967,1.088,0.922
			c0.549-0.045,0.964-0.534,0.92-1.085c-0.046-0.555-0.535-0.965-1.084-0.92C150.552,137.438,150.141,137.921,150.186,138.476z"/>
		<circle clip-path="url(#SVGID_2_)" fill="#AFBABC" cx="84.493" cy="131.094" r="1.642"/>
		<circle clip-path="url(#SVGID_2_)" fill="#AFBABC" cx="6.475" cy="56.93" r="1.646"/>
		<path clip-path="url(#SVGID_2_)" fill="#AFBABC" d="M75.358,144.324c0.056,0.689,0.667,1.205,1.359,1.148s1.206-0.663,1.151-1.354
			c-0.058-0.694-0.663-1.212-1.356-1.156C75.82,143.02,75.303,143.63,75.358,144.324z"/>
		<path clip-path="url(#SVGID_2_)" fill="#AFBABC" d="M21.812,152.976c0.056,0.694,0.667,1.208,1.357,1.152
			c0.693-0.056,1.205-0.662,1.148-1.356c-0.056-0.693-0.659-1.204-1.353-1.148C22.275,151.68,21.755,152.283,21.812,152.976z"/>
		<path clip-path="url(#SVGID_2_)" fill="#AFBABC" d="M81.856,156.155c0.067,0.834,0.799,1.45,1.627,1.383
			c0.832-0.068,1.452-0.794,1.385-1.628c-0.068-0.831-0.799-1.452-1.631-1.383C82.409,154.594,81.789,155.325,81.856,156.155z"/>
		<circle clip-path="url(#SVGID_2_)" fill="#AFBABC" cx="56.533" cy="114.565" r="1.51"/>
		<path clip-path="url(#SVGID_2_)" fill="#AFBABC" d="M32.135,74.422c0.066,0.826,0.796,1.449,1.626,1.382
			c0.832-0.068,1.447-0.801,1.38-1.627c-0.067-0.835-0.794-1.451-1.625-1.383C32.686,72.861,32.065,73.586,32.135,74.422z"/>
		<path clip-path="url(#SVGID_2_)" fill="#AFBABC" d="M93.58,163.529c0.079,0.967,0.925,1.691,1.894,1.612
			c0.972-0.079,1.691-0.931,1.612-1.897c-0.079-0.973-0.927-1.688-1.897-1.609C94.219,161.713,93.501,162.558,93.58,163.529z"/>
		<path clip-path="url(#SVGID_2_)" fill="#AFBABC" d="M73.488,184.925c0.078,0.969,0.925,1.69,1.895,1.609
			c0.97-0.079,1.688-0.925,1.608-1.896c-0.078-0.964-0.925-1.69-1.895-1.611C74.127,183.108,73.408,183.962,73.488,184.925z"/>
		<circle clip-path="url(#SVGID_2_)" fill="#AFBABC" cx="88.243" cy="186.429" r="1.256"/>
		<path clip-path="url(#SVGID_2_)" fill="#AFBABC" d="M0.875,119.103c0.084,1.037,0.988,1.811,2.03,1.727
			c1.039-0.086,1.813-0.997,1.728-2.033c-0.085-1.04-0.994-1.809-2.034-1.725C1.558,117.156,0.79,118.062,0.875,119.103z"/>
		<path clip-path="url(#SVGID_2_)" fill="#AFBABC" d="M110.729,137.093c0.041,0.514,0.493,0.902,1.014,0.859
			c0.519-0.042,0.908-0.499,0.866-1.012c-0.042-0.525-0.5-0.912-1.02-0.87C111.068,136.111,110.687,136.568,110.729,137.093z"/>
		<path clip-path="url(#SVGID_2_)" fill="#AFBABC" d="M116.062,145.295c0.045,0.55,0.532,0.968,1.089,0.923
			c0.551-0.045,0.963-0.536,0.918-1.087c-0.045-0.552-0.531-0.968-1.083-0.923C116.429,144.253,116.016,144.741,116.062,145.295z"/>
		<path clip-path="url(#SVGID_2_)" fill="#AFBABC" d="M128.626,157.016c0.045,0.554,0.533,0.964,1.087,0.918
			c0.552-0.045,0.965-0.527,0.919-1.082c-0.045-0.556-0.531-0.968-1.083-0.923C128.996,155.974,128.58,156.459,128.626,157.016z"/>
		<path clip-path="url(#SVGID_2_)" fill="#AFBABC" d="M127.92,148.366c0.035,0.416,0.401,0.725,0.814,0.69
			c0.416-0.034,0.728-0.396,0.694-0.813c-0.034-0.418-0.4-0.725-0.816-0.692C128.198,147.585,127.887,147.948,127.92,148.366z"/>
		<path clip-path="url(#SVGID_2_)" fill="#AFBABC" d="M100.71,171.297c0.034,0.413,0.397,0.724,0.811,0.691
			c0.417-0.034,0.728-0.401,0.693-0.814c-0.034-0.418-0.4-0.725-0.815-0.69C100.985,170.517,100.677,170.878,100.71,171.297z"/>
		<circle clip-path="url(#SVGID_2_)" fill="#AFBABC" cx="102.268" cy="181.114" r="0.754"/>
		<path clip-path="url(#SVGID_2_)" fill="#AFBABC" d="M90.588,199.728c0.033,0.42,0.4,0.726,0.815,0.691
			c0.411-0.033,0.722-0.395,0.688-0.814c-0.034-0.419-0.4-0.723-0.811-0.69C90.865,198.949,90.554,199.31,90.588,199.728z"/>
		<path clip-path="url(#SVGID_2_)" fill="#AFBABC" d="M112.845,183.166c0.033,0.414,0.398,0.723,0.811,0.688
			c0.417-0.034,0.729-0.397,0.695-0.812c-0.034-0.418-0.4-0.726-0.818-0.692C113.121,182.385,112.81,182.747,112.845,183.166z"/>
		<path clip-path="url(#SVGID_2_)" fill="#AFBABC" d="M74.072,171.576c0.033,0.41,0.4,0.725,0.81,0.692
			c0.42-0.035,0.728-0.405,0.693-0.814c-0.034-0.421-0.396-0.726-0.815-0.691C74.349,170.797,74.038,171.155,74.072,171.576z"/>
		<circle clip-path="url(#SVGID_2_)" fill="#AFBABC" cx="103.936" cy="154.356" r="0.755"/>
		<path clip-path="url(#SVGID_2_)" fill="#AFBABC" d="M134.958,137.128c0.049,0.591,0.563,1.026,1.153,0.978
			c0.587-0.047,1.025-0.56,0.978-1.151c-0.048-0.587-0.563-1.022-1.15-0.976C135.349,136.028,134.909,136.542,134.958,137.128z"/>
		<path clip-path="url(#SVGID_2_)" fill="#AFBABC" d="M13.301,105.793c0.04,0.489,0.465,0.849,0.948,0.81
			c0.482-0.04,0.845-0.462,0.804-0.952c-0.038-0.48-0.464-0.844-0.947-0.804C13.622,104.887,13.263,105.314,13.301,105.793z"/>
		<circle clip-path="url(#SVGID_2_)" fill="#AFBABC" cx="12.851" cy="78.636" r="0.879"/>
		<path clip-path="url(#SVGID_2_)" fill="#AFBABC" d="M18.057,116.188c0.018,0.205,0.201,0.363,0.408,0.346
			c0.207-0.017,0.36-0.201,0.344-0.408c-0.017-0.206-0.197-0.359-0.405-0.342C18.196,115.801,18.041,115.98,18.057,116.188z"/>
		<path clip-path="url(#SVGID_2_)" fill="#AFBABC" d="M46.834,96.181c0.017,0.208,0.196,0.362,0.407,0.345
			c0.211-0.016,0.36-0.199,0.344-0.406c-0.017-0.208-0.195-0.362-0.405-0.344C46.97,95.791,46.817,95.974,46.834,96.181z"/>
		<path clip-path="url(#SVGID_2_)" fill="#AFBABC" d="M87.69,174.983c0.04,0.488,0.463,0.846,0.946,0.807
			c0.484-0.039,0.844-0.462,0.805-0.95c-0.039-0.482-0.464-0.844-0.947-0.805C88.01,174.074,87.65,174.5,87.69,174.983z"/>
		<path clip-path="url(#SVGID_2_)" fill="#AFBABC" d="M83.855,168.233c0.018,0.207,0.199,0.361,0.408,0.344
			c0.206-0.017,0.363-0.199,0.347-0.404c-0.018-0.213-0.201-0.366-0.409-0.349S83.84,168.021,83.855,168.233z"/>
		<path clip-path="url(#SVGID_2_)" fill="#AFBABC" d="M66.089,177.628c0.018,0.205,0.199,0.362,0.407,0.345
			c0.207-0.018,0.362-0.201,0.346-0.407c-0.018-0.21-0.199-0.36-0.407-0.343C66.227,177.24,66.071,177.418,66.089,177.628z"/>
		<path clip-path="url(#SVGID_2_)" fill="#AFBABC" d="M44.742,156.37c0.403-0.265,0.511-0.813,0.239-1.216
			c-0.264-0.404-0.811-0.518-1.215-0.248c-0.408,0.272-0.515,0.818-0.246,1.221C43.787,156.53,44.337,156.641,44.742,156.37z"/>
		<path clip-path="url(#SVGID_2_)" fill="#AFBABC" d="M30.43,96.243c0.405-0.265,0.516-0.81,0.244-1.22
			c-0.266-0.401-0.812-0.513-1.22-0.244c-0.406,0.271-0.514,0.818-0.247,1.221C29.479,96.403,30.025,96.514,30.43,96.243z"/>
		<path clip-path="url(#SVGID_2_)" fill="#AFBABC" d="M59.32,96.929c0.403-0.264,0.513-0.815,0.243-1.223
			c-0.268-0.398-0.812-0.509-1.218-0.244c-0.404,0.273-0.515,0.818-0.248,1.223C58.37,97.089,58.918,97.198,59.32,96.929z"/>
		<path clip-path="url(#SVGID_2_)" fill="#AFBABC" d="M41.961,169.502c0.176-0.116,0.22-0.351,0.104-0.523
			c-0.114-0.174-0.351-0.222-0.523-0.105c-0.174,0.112-0.218,0.349-0.107,0.523C41.551,169.571,41.785,169.617,41.961,169.502z"/>
		<path clip-path="url(#SVGID_2_)" fill="#AFBABC" d="M1.364,107.543c0.403-0.271,0.515-0.82,0.244-1.219
			c-0.266-0.405-0.812-0.514-1.217-0.246c-0.405,0.272-0.513,0.817-0.245,1.215C0.417,107.7,0.967,107.811,1.364,107.543z"/>
		<path clip-path="url(#SVGID_2_)" fill="#AFBABC" d="M30.755,141.899c0.173-0.112,0.22-0.347,0.104-0.524
			c-0.115-0.173-0.351-0.22-0.523-0.105c-0.174,0.119-0.219,0.35-0.106,0.523C30.343,141.971,30.579,142.018,30.755,141.899z"/>
		<path clip-path="url(#SVGID_2_)" fill="#AFBABC" d="M24.975,129.78c0.028,0.35,0.327,0.61,0.676,0.583
			c0.342-0.028,0.602-0.335,0.574-0.685c-0.028-0.34-0.335-0.598-0.677-0.571C25.199,129.136,24.947,129.44,24.975,129.78z"/>
		<path clip-path="url(#SVGID_2_)" fill="#AFBABC" d="M35.095,118.457c0.028,0.348,0.326,0.606,0.676,0.578
			c0.345-0.028,0.603-0.332,0.573-0.679c-0.027-0.343-0.33-0.6-0.675-0.572C35.318,117.812,35.066,118.114,35.095,118.457z"/>
		<path clip-path="url(#SVGID_2_)" fill="#AFBABC" d="M60.497,163.193c0.029,0.346,0.33,0.606,0.68,0.579
			c0.341-0.028,0.602-0.335,0.573-0.681c-0.027-0.344-0.335-0.598-0.676-0.57C60.726,162.551,60.469,162.85,60.497,163.193z"/>
		<path clip-path="url(#SVGID_2_)" fill="#AFBABC" d="M103.121,200.874c0.028,0.343,0.331,0.601,0.676,0.574
			c0.342-0.029,0.603-0.331,0.574-0.677c-0.029-0.346-0.334-0.603-0.677-0.574C103.351,200.224,103.093,200.527,103.121,200.874z"/>
		<circle clip-path="url(#SVGID_2_)" fill="#AFBABC" cx="50.52" cy="142.941" r="0.502"/>
		<path clip-path="url(#SVGID_2_)" fill="#AFBABC" d="M99.209,127.364c0.022,0.277,0.264,0.483,0.543,0.461
			c0.278-0.022,0.482-0.267,0.46-0.544c-0.022-0.276-0.265-0.481-0.541-0.459C99.391,126.846,99.187,127.087,99.209,127.364z"/>
		<path clip-path="url(#SVGID_2_)" fill="#AFBABC" d="M235.853,204.813c0.022,0.274,0.268,0.486,0.544,0.464
			c0.276-0.021,0.484-0.271,0.461-0.546c-0.021-0.274-0.267-0.48-0.543-0.458C236.038,204.296,235.83,204.539,235.853,204.813z"/>
		<path clip-path="url(#SVGID_2_)" fill="#AFBABC" d="M85.144,145.291c0.022,0.272,0.264,0.481,0.542,0.458
			c0.276-0.022,0.481-0.269,0.458-0.541c-0.022-0.276-0.263-0.481-0.539-0.459C85.327,144.772,85.121,145.014,85.144,145.291z"/>
		<path clip-path="url(#SVGID_2_)" fill="#AFBABC" d="M70.928,158.057c0.022,0.277,0.264,0.483,0.547,0.46
			c0.274-0.021,0.481-0.265,0.459-0.542c-0.023-0.276-0.267-0.482-0.541-0.461C71.109,157.537,70.905,157.78,70.928,158.057z"/>
		<path clip-path="url(#SVGID_2_)" fill="#AFBABC" d="M64.103,137.73c0.021,0.276,0.263,0.485,0.542,0.462
			c0.272-0.021,0.479-0.266,0.458-0.544c-0.021-0.273-0.268-0.482-0.54-0.459C64.283,137.212,64.079,137.457,64.103,137.73z"/>
		<path clip-path="url(#SVGID_2_)" fill="#AFBABC" d="M12.657,133.535c0.022,0.276,0.264,0.483,0.544,0.46
			c0.275-0.022,0.48-0.266,0.457-0.542c-0.022-0.276-0.264-0.485-0.539-0.463C12.839,133.013,12.636,133.26,12.657,133.535z"/>
		<path clip-path="url(#SVGID_2_)" fill="#AFBABC" d="M60.504,147.801c0.022,0.277,0.264,0.484,0.545,0.461
			c0.274-0.022,0.479-0.265,0.455-0.542c-0.022-0.274-0.263-0.481-0.538-0.46C60.687,147.283,60.481,147.525,60.504,147.801z"/>
		<path clip-path="url(#SVGID_2_)" fill="#AFBABC" d="M93.132,120.917c0.022,0.28,0.264,0.487,0.543,0.464s0.48-0.266,0.458-0.546
			c-0.022-0.274-0.262-0.482-0.541-0.46C93.313,120.397,93.108,120.642,93.132,120.917z"/>
		<path clip-path="url(#SVGID_2_)" fill="#AFBABC" d="M45.075,133.666c0.022,0.279,0.264,0.483,0.544,0.46
			c0.277-0.021,0.48-0.262,0.458-0.542c-0.021-0.274-0.264-0.481-0.54-0.458C45.258,133.149,45.052,133.393,45.075,133.666z"/>
		<path clip-path="url(#SVGID_2_)" fill="#AFBABC" d="M43.849,112.451c0.023,0.275,0.265,0.481,0.545,0.459
			c0.273-0.022,0.478-0.265,0.456-0.541c-0.022-0.277-0.264-0.484-0.538-0.461C44.031,111.93,43.827,112.173,43.849,112.451z"/>
		<path clip-path="url(#SVGID_2_)" fill="#AFBABC" d="M72.589,107.205c0.021,0.271,0.265,0.48,0.544,0.458
			c0.275-0.024,0.48-0.269,0.459-0.54c-0.023-0.278-0.266-0.486-0.54-0.464C72.771,106.683,72.566,106.927,72.589,107.205z"/>
		<path clip-path="url(#SVGID_2_)" fill="#AFBABC" d="M250.501,189.489c0.028,0.35,0.335,0.608,0.683,0.58
			c0.341-0.027,0.602-0.331,0.573-0.683c-0.028-0.343-0.335-0.602-0.676-0.575C250.733,188.842,250.474,189.146,250.501,189.489z"/>
		<path clip-path="url(#SVGID_2_)" fill="#AFBABC" d="M250.778,149.58c0.028,0.349,0.335,0.606,0.683,0.578
			c0.345-0.028,0.602-0.332,0.573-0.681c-0.028-0.348-0.331-0.602-0.676-0.574C251.011,148.932,250.75,149.231,250.778,149.58z"/>
		<path clip-path="url(#SVGID_2_)" fill="#AFBABC" d="M35.058,158.844c0.037,0.452,0.431,0.786,0.88,0.749
			c0.453-0.037,0.787-0.43,0.751-0.881s-0.432-0.785-0.885-0.748C35.355,158,35.021,158.393,35.058,158.844z"/>
		<circle clip-path="url(#SVGID_2_)" fill="#AFBABC" cx="54.027" cy="179.797" r="0.943"/>
		<path clip-path="url(#SVGID_2_)" fill="#AFBABC" d="M95.943,136.081c0.043,0.521,0.499,0.908,1.022,0.865
			c0.518-0.043,0.904-0.498,0.861-1.018c-0.042-0.519-0.498-0.907-1.016-0.865C96.289,135.106,95.901,135.563,95.943,136.081z"/>
		<path clip-path="url(#SVGID_2_)" fill="#AFBABC" d="M76.949,120.726c0.045,0.556,0.534,0.962,1.087,0.918
			c0.549-0.045,0.965-0.525,0.919-1.081c-0.046-0.555-0.534-0.966-1.082-0.922C77.32,119.686,76.904,120.171,76.949,120.726z"/>
		<path clip-path="url(#SVGID_2_)" fill="#AFBABC" d="M224.043,201.592c0.107,1.317,1.261,2.294,2.573,2.188
			c1.315-0.108,2.296-1.259,2.188-2.576c-0.106-1.317-1.262-2.293-2.576-2.187C224.917,199.124,223.936,200.273,224.043,201.592z"/>
		<path clip-path="url(#SVGID_2_)" fill="#AFBABC" d="M172.979,132.162c0.09,1.11,1.064,1.934,2.173,1.843
			c1.105-0.089,1.934-1.06,1.843-2.17c-0.091-1.109-1.063-1.931-2.17-1.84C173.717,130.085,172.889,131.052,172.979,132.162z"/>
		<circle clip-path="url(#SVGID_2_)" fill="#AFBABC" cx="119.129" cy="227.251" r="1.642"/>
		<path clip-path="url(#SVGID_2_)" fill="#AFBABC" d="M116.576,195.927c0.074,0.902,0.865,1.579,1.77,1.504
			c0.908-0.073,1.583-0.869,1.509-1.772c-0.074-0.908-0.868-1.579-1.776-1.506C117.174,194.228,116.503,195.02,116.576,195.927z"/>
		<path clip-path="url(#SVGID_2_)" fill="#AFBABC" d="M109.997,240.476c0.057,0.693,0.664,1.208,1.353,1.151
			c0.697-0.057,1.213-0.662,1.156-1.356c-0.058-0.695-0.663-1.207-1.36-1.149C110.456,239.177,109.939,239.78,109.997,240.476z"/>
		<path clip-path="url(#SVGID_2_)" fill="#AFBABC" d="M78.621,201.562c0.057,0.691,0.665,1.209,1.354,1.152
			c0.694-0.056,1.212-0.666,1.155-1.356c-0.058-0.693-0.665-1.208-1.358-1.152C79.081,200.264,78.563,200.87,78.621,201.562z"/>
		<path clip-path="url(#SVGID_2_)" fill="#AFBABC" d="M62.314,7.431c0.067,0.827,0.8,1.45,1.63,1.382
			c0.829-0.067,1.45-0.802,1.383-1.628c-0.068-0.833-0.799-1.447-1.627-1.379C62.869,5.874,62.246,6.599,62.314,7.431z"/>
		<path clip-path="url(#SVGID_2_)" fill="#AFBABC" d="M100.596,224.208c0.068,0.834,0.796,1.449,1.627,1.381
			c0.832-0.067,1.451-0.792,1.384-1.626c-0.067-0.826-0.797-1.45-1.629-1.382C101.146,222.648,100.528,223.381,100.596,224.208z"/>
		<circle clip-path="url(#SVGID_2_)" fill="#AFBABC" cx="24.798" cy="104.745" r="1.76"/>
		<path clip-path="url(#SVGID_2_)" fill="#AFBABC" d="M196.977,245.752c0.056,0.69,0.659,1.205,1.356,1.148
			c0.69-0.056,1.204-0.662,1.146-1.353c-0.056-0.692-0.659-1.207-1.351-1.151C197.433,244.454,196.92,245.061,196.977,245.752z"/>
		<path clip-path="url(#SVGID_2_)" fill="#AFBABC" d="M225.349,218.966c0.056,0.69,0.659,1.208,1.357,1.15
			c0.686-0.056,1.203-0.663,1.146-1.354c-0.057-0.691-0.665-1.208-1.351-1.152C225.805,217.668,225.291,218.274,225.349,218.966z"/>
		<path clip-path="url(#SVGID_2_)" fill="#AFBABC" d="M210.128,204.332c0.057,0.691,0.665,1.204,1.357,1.147
			c0.691-0.055,1.204-0.66,1.148-1.352c-0.057-0.693-0.66-1.206-1.352-1.149C210.59,203.035,210.071,203.638,210.128,204.332z"/>
		<path clip-path="url(#SVGID_2_)" fill="#AFBABC" d="M174.588,8.462c0.084,1.036,0.991,1.81,2.034,1.725
			c1.039-0.085,1.812-0.995,1.728-2.031c-0.085-1.039-0.995-1.812-2.034-1.728C175.273,6.513,174.503,7.423,174.588,8.462z"/>
		<path clip-path="url(#SVGID_2_)" fill="#AFBABC" d="M145.363,233.239c0.043,0.521,0.495,0.905,1.018,0.862
			c0.522-0.042,0.905-0.494,0.862-1.015c-0.042-0.519-0.493-0.908-1.016-0.865C145.706,232.264,145.321,232.722,145.363,233.239z"/>
		<path clip-path="url(#SVGID_2_)" fill="#AFBABC" d="M150.696,241.446c0.046,0.558,0.533,0.968,1.087,0.923
			c0.553-0.045,0.968-0.53,0.923-1.086c-0.046-0.554-0.533-0.966-1.086-0.921C151.066,240.406,150.652,240.893,150.696,241.446z"/>
		<path clip-path="url(#SVGID_2_)" fill="#AFBABC" d="M160.511,229.781c0.045,0.55,0.535,0.964,1.091,0.919
			c0.554-0.046,0.964-0.532,0.919-1.083c-0.044-0.551-0.529-0.967-1.082-0.922C160.883,228.741,160.467,229.229,160.511,229.781z"/>
		<path clip-path="url(#SVGID_2_)" fill="#AFBABC" d="M171.645,250.72c0.034,0.411,0.4,0.722,0.814,0.688
			c0.414-0.033,0.723-0.399,0.689-0.812c-0.034-0.417-0.397-0.724-0.812-0.69C171.922,249.94,171.611,250.304,171.645,250.72z"/>
		<path clip-path="url(#SVGID_2_)" fill="#AFBABC" d="M188.845,224.21c0.033,0.414,0.4,0.728,0.812,0.694
			c0.413-0.035,0.726-0.403,0.691-0.817c-0.032-0.414-0.4-0.724-0.814-0.691C189.123,223.43,188.811,223.796,188.845,224.21z"/>
		<circle clip-path="url(#SVGID_2_)" fill="#AFBABC" cx="133.691" cy="22.76" r="0.755"/>
		<path clip-path="url(#SVGID_2_)" fill="#AFBABC" d="M106.301,23.1c0.033,0.417,0.399,0.726,0.811,0.693
			c0.419-0.033,0.727-0.398,0.692-0.815c-0.033-0.415-0.396-0.724-0.814-0.689C106.577,22.321,106.267,22.686,106.301,23.1z"/>
		<path clip-path="url(#SVGID_2_)" fill="#AFBABC" d="M137.819,250.574c0.033,0.412,0.4,0.724,0.814,0.69
			c0.413-0.034,0.722-0.401,0.688-0.813c-0.033-0.417-0.397-0.726-0.811-0.691C138.098,249.793,137.785,250.156,137.819,250.574z"/>
		<path clip-path="url(#SVGID_2_)" fill="#AFBABC" d="M181.644,248.007c0.049,0.589,0.562,1.03,1.156,0.981
			c0.587-0.047,1.022-0.566,0.975-1.155c-0.047-0.587-0.561-1.022-1.148-0.975C182.032,246.907,181.596,247.42,181.644,248.007z"/>
		<path clip-path="url(#SVGID_2_)" fill="#AFBABC" d="M192.629,255.694c0.039,0.487,0.463,0.845,0.947,0.806
			c0.48-0.039,0.845-0.46,0.806-0.949c-0.04-0.479-0.468-0.84-0.947-0.8C192.949,254.789,192.59,255.213,192.629,255.694z"/>
		<path clip-path="url(#SVGID_2_)" fill="#AFBABC" d="M175.53,214.063c0.018,0.205,0.194,0.362,0.409,0.345
			c0.206-0.017,0.357-0.2,0.342-0.407c-0.017-0.208-0.197-0.362-0.404-0.345C175.663,213.674,175.514,213.855,175.53,214.063z"/>
		<path clip-path="url(#SVGID_2_)" fill="#AFBABC" d="M119.918,26.515c0.039,0.48,0.464,0.842,0.95,0.803
			c0.481-0.04,0.845-0.466,0.805-0.946c-0.039-0.489-0.467-0.846-0.947-0.807C120.239,25.604,119.879,26.027,119.918,26.515z"/>
		<path clip-path="url(#SVGID_2_)" fill="#AFBABC" d="M121.068,258.324c0.017,0.203,0.194,0.36,0.404,0.344
			c0.211-0.019,0.362-0.203,0.346-0.405c-0.017-0.206-0.196-0.363-0.406-0.346S121.052,258.117,121.068,258.324z"/>
		<path clip-path="url(#SVGID_2_)" fill="#AFBABC" d="M88.776,246.639c0.403-0.269,0.513-0.815,0.242-1.219
			c-0.268-0.404-0.809-0.515-1.214-0.247c-0.408,0.271-0.516,0.817-0.249,1.215C87.825,246.798,88.373,246.911,88.776,246.639z"/>
		<path clip-path="url(#SVGID_2_)" fill="#AFBABC" d="M84.721,253.262c0.177-0.115,0.221-0.348,0.108-0.522
			c-0.113-0.171-0.35-0.218-0.525-0.104c-0.175,0.113-0.219,0.348-0.106,0.521C84.315,253.331,84.55,253.376,84.721,253.262z"/>
		<path clip-path="url(#SVGID_2_)" fill="#AFBABC" d="M230.033,255.687c0.403-0.265,0.514-0.812,0.243-1.22
			c-0.268-0.404-0.812-0.514-1.219-0.246c-0.41,0.272-0.512,0.819-0.247,1.221C229.08,255.844,229.631,255.956,230.033,255.687z"/>
		<path clip-path="url(#SVGID_2_)" fill="#AFBABC" d="M106.897,213.073c0.172-0.114,0.217-0.349,0.106-0.524
			c-0.116-0.174-0.353-0.22-0.527-0.106c-0.175,0.115-0.219,0.351-0.104,0.524C106.487,213.143,106.722,213.188,106.897,213.073z"/>
		<path clip-path="url(#SVGID_2_)" fill="#AFBABC" d="M181.69,22.613c0.028,0.344,0.328,0.6,0.675,0.573
			c0.344-0.029,0.605-0.331,0.577-0.674c-0.027-0.347-0.335-0.604-0.679-0.576C181.916,21.964,181.662,22.267,181.69,22.613z"/>
		<path clip-path="url(#SVGID_2_)" fill="#AFBABC" d="M198.689,217.225c0.028,0.344,0.33,0.603,0.679,0.573
			c0.342-0.027,0.6-0.331,0.572-0.674c-0.028-0.347-0.331-0.602-0.675-0.576C198.917,216.576,198.661,216.879,198.689,217.225z"/>
		<path clip-path="url(#SVGID_2_)" fill="#AFBABC" d="M186.933,217.69c0.033,0.415,0.4,0.723,0.815,0.689
			c0.411-0.033,0.723-0.397,0.688-0.812c-0.034-0.417-0.4-0.726-0.811-0.69C187.21,216.91,186.897,217.272,186.933,217.69z"/>
		<path clip-path="url(#SVGID_2_)" fill="#AFBABC" d="M172.552,233.237c0.023,0.277,0.262,0.481,0.541,0.459
			c0.275-0.022,0.482-0.264,0.46-0.54c-0.023-0.277-0.266-0.485-0.542-0.463C172.73,232.715,172.53,232.961,172.552,233.237z"/>
		<path clip-path="url(#SVGID_2_)" fill="#AFBABC" d="M160.643,245.838c0.045,0.551,0.535,0.965,1.091,0.919
			c0.553-0.046,0.963-0.532,0.919-1.083c-0.045-0.551-0.529-0.967-1.082-0.921C161.015,244.798,160.599,245.285,160.643,245.838z"/>
		<circle clip-path="url(#SVGID_2_)" fill="#AFBABC" cx="199.446" cy="233.231" r="0.628"/>
		<path clip-path="url(#SVGID_2_)" fill="#AFBABC" d="M95.133,259.351c0.027,0.348,0.329,0.604,0.676,0.577
			c0.344-0.029,0.607-0.332,0.579-0.679c-0.027-0.346-0.338-0.606-0.681-0.579C95.36,258.697,95.104,259.006,95.133,259.351z"/>
		<path clip-path="url(#SVGID_2_)" fill="#AFBABC" d="M165.291,256.919c0.022,0.275,0.266,0.484,0.547,0.462
			c0.273-0.023,0.48-0.269,0.458-0.544c-0.021-0.273-0.267-0.48-0.54-0.458C165.476,256.402,165.269,256.646,165.291,256.919z"/>
		<path clip-path="url(#SVGID_2_)" fill="#AFBABC" d="M260.069,213.354c0.022,0.278,0.263,0.48,0.546,0.457
			c0.272-0.022,0.478-0.26,0.455-0.539c-0.023-0.275-0.264-0.482-0.536-0.459C260.251,212.836,260.047,213.079,260.069,213.354z"/>
		<path clip-path="url(#SVGID_2_)" fill="#AFBABC" d="M133.846,223.517c0.023,0.276,0.266,0.485,0.545,0.463
			c0.274-0.023,0.48-0.268,0.457-0.545c-0.021-0.275-0.266-0.483-0.539-0.461C134.029,222.997,133.824,223.243,133.846,223.517z"/>
		<path clip-path="url(#SVGID_2_)" fill="#AFBABC" d="M215.038,255.259c0.021,0.273,0.263,0.479,0.542,0.455
			c0.276-0.022,0.481-0.264,0.459-0.537c-0.022-0.279-0.265-0.487-0.54-0.464C215.22,254.735,215.015,254.979,215.038,255.259z"/>
		<path clip-path="url(#SVGID_2_)" fill="#AFBABC" d="M119.78,241.443c0.021,0.276,0.266,0.484,0.544,0.461
			c0.274-0.022,0.48-0.267,0.458-0.543c-0.022-0.274-0.266-0.481-0.54-0.46C119.963,240.925,119.757,241.168,119.78,241.443z"/>
		<path clip-path="url(#SVGID_2_)" fill="#AFBABC" d="M105.565,254.208c0.022,0.278,0.264,0.488,0.543,0.465
			c0.274-0.022,0.482-0.268,0.459-0.547c-0.021-0.272-0.267-0.481-0.541-0.459C105.747,253.689,105.543,253.936,105.565,254.208z"/>
		<path clip-path="url(#SVGID_2_)" fill="#AFBABC" d="M98.735,233.888c0.023,0.276,0.264,0.482,0.544,0.459
			c0.275-0.022,0.483-0.266,0.461-0.541s-0.267-0.484-0.543-0.461C98.917,233.367,98.713,233.611,98.735,233.888z"/>
		<path clip-path="url(#SVGID_2_)" fill="#AFBABC" d="M95.142,243.958c0.022,0.273,0.26,0.477,0.54,0.454
			c0.278-0.022,0.48-0.261,0.458-0.536c-0.022-0.277-0.261-0.485-0.539-0.463C95.32,243.438,95.119,243.68,95.142,243.958z"/>
		<path clip-path="url(#SVGID_2_)" fill="#AFBABC" d="M246.356,247.862c0.021,0.274,0.263,0.482,0.541,0.459
			c0.273-0.022,0.482-0.267,0.46-0.541c-0.022-0.277-0.267-0.483-0.541-0.461C246.538,247.343,246.333,247.584,246.356,247.862z"/>
		<path clip-path="url(#SVGID_2_)" fill="#AFBABC" d="M238.979,224.791c0.022,0.275,0.267,0.484,0.546,0.462
			c0.273-0.022,0.479-0.269,0.457-0.545c-0.021-0.277-0.267-0.479-0.538-0.457C239.165,224.274,238.957,224.514,238.979,224.791z"/>
		<circle clip-path="url(#SVGID_2_)" fill="#AFBABC" cx="263.779" cy="246.442" r="0.502"/>
		<path clip-path="url(#SVGID_2_)" fill="#AFBABC" d="M219.765,25.44c0.028,0.349,0.335,0.602,0.682,0.574
			c0.346-0.028,0.603-0.327,0.574-0.676c-0.029-0.348-0.33-0.603-0.677-0.574C219.997,24.792,219.736,25.093,219.765,25.44z"/>
		<path clip-path="url(#SVGID_2_)" fill="#AFBABC" d="M254.796,228.36c0.042,0.514,0.496,0.904,1.017,0.861
			c0.518-0.041,0.903-0.501,0.861-1.016c-0.041-0.517-0.497-0.906-1.015-0.863C255.139,227.385,254.754,227.843,254.796,228.36z"/>
		<path clip-path="url(#SVGID_2_)" fill="#AFBABC" d="M130.585,232.238c0.042,0.517,0.494,0.904,1.016,0.862
			c0.518-0.043,0.905-0.498,0.863-1.014c-0.043-0.521-0.499-0.906-1.018-0.865C130.927,231.264,130.542,231.717,130.585,232.238z"/>
		<path clip-path="url(#SVGID_2_)" fill="#AFBABC" d="M111.586,216.877c0.045,0.555,0.532,0.967,1.087,0.924
			c0.551-0.046,0.962-0.533,0.917-1.087c-0.045-0.551-0.529-0.964-1.079-0.918C111.955,215.84,111.541,216.327,111.586,216.877z"/>
		<path clip-path="url(#SVGID_2_)" fill="#AFBABC" d="M197.546,32.431c0.107,1.312,1.264,2.291,2.576,2.184
			c1.314-0.107,2.296-1.26,2.189-2.573c-0.108-1.314-1.263-2.3-2.577-2.192C198.421,29.956,197.438,31.116,197.546,32.431z"/>
		<path clip-path="url(#SVGID_2_)" fill="#AFBABC" d="M10.648,246.39c0.09,1.109,1.062,1.937,2.166,1.846
			c1.107-0.089,1.932-1.063,1.842-2.172c-0.091-1.106-1.062-1.933-2.169-1.844C11.383,244.31,10.558,245.283,10.648,246.39z"/>
		<path clip-path="url(#SVGID_2_)" fill="#AFBABC" d="M44.254,209.631c0.074,0.903,0.868,1.581,1.771,1.506
			c0.905-0.073,1.584-0.87,1.51-1.773c-0.073-0.905-0.872-1.578-1.777-1.504C44.854,207.933,44.181,208.726,44.254,209.631z"/>
		<path clip-path="url(#SVGID_2_)" fill="#AFBABC" d="M36.763,222.728c0.057,0.693,0.662,1.205,1.355,1.149
			c0.693-0.057,1.21-0.66,1.153-1.354c-0.056-0.692-0.666-1.213-1.357-1.157C37.221,221.423,36.706,222.035,36.763,222.728z"/>
		<path clip-path="url(#SVGID_2_)" fill="#AFBABC" d="M151.455,43.327c0.057,0.69,0.664,1.208,1.355,1.152
			c0.69-0.057,1.209-0.665,1.153-1.357c-0.058-0.696-0.667-1.208-1.358-1.151C151.914,42.027,151.398,42.631,151.455,43.327z"/>
		<path clip-path="url(#SVGID_2_)" fill="#AFBABC" d="M43.259,234.561c0.067,0.833,0.796,1.449,1.624,1.381
			c0.833-0.067,1.451-0.793,1.384-1.626c-0.067-0.829-0.796-1.451-1.629-1.383C43.811,233,43.191,233.73,43.259,234.561z"/>
		<path clip-path="url(#SVGID_2_)" fill="#AFBABC" d="M16.435,193.093c0.067,0.83,0.794,1.453,1.626,1.384s1.449-0.8,1.381-1.628
			c-0.067-0.835-0.795-1.449-1.626-1.382C16.983,191.535,16.367,192.259,16.435,193.093z"/>
		<path clip-path="url(#SVGID_2_)" fill="#AFBABC" d="M174.914,39.004c0.068,0.827,0.796,1.449,1.627,1.381
			c0.832-0.067,1.448-0.799,1.383-1.626c-0.069-0.836-0.795-1.449-1.627-1.383C175.465,37.444,174.848,38.169,174.914,39.004z"/>
		<path clip-path="url(#SVGID_2_)" fill="#AFBABC" d="M54.98,241.931c0.079,0.97,0.928,1.691,1.898,1.612
			c0.97-0.077,1.69-0.929,1.612-1.898c-0.079-0.966-0.928-1.688-1.898-1.609C55.623,240.115,54.901,240.965,54.98,241.931z"/>
		<path clip-path="url(#SVGID_2_)" fill="#AFBABC" d="M228.383,49.27c0.078,0.972,0.929,1.693,1.898,1.614
			c0.967-0.08,1.688-0.929,1.608-1.899c-0.079-0.967-0.928-1.69-1.896-1.612C229.025,47.452,228.304,48.303,228.383,49.27z"/>
		<path clip-path="url(#SVGID_2_)" fill="#AFBABC" d="M233.266,242.037c0.057,0.689,0.663,1.206,1.356,1.149
			c0.69-0.056,1.207-0.664,1.151-1.354c-0.057-0.695-0.665-1.209-1.355-1.153C233.724,240.735,233.209,241.342,233.266,242.037z"/>
		<path clip-path="url(#SVGID_2_)" fill="#AFBABC" d="M203.601,56.167c0.056,0.693,0.663,1.207,1.356,1.149
			c0.69-0.056,1.204-0.66,1.147-1.353c-0.057-0.696-0.66-1.204-1.352-1.149C204.06,54.872,203.543,55.472,203.601,56.167z"/>
		<path clip-path="url(#SVGID_2_)" fill="#AFBABC" d="M72.13,215.491c0.042,0.519,0.497,0.906,1.02,0.864
			c0.517-0.042,0.902-0.499,0.86-1.017c-0.043-0.519-0.496-0.903-1.014-0.861C72.474,214.52,72.088,214.974,72.13,215.491z"/>
		<path clip-path="url(#SVGID_2_)" fill="#AFBABC" d="M77.462,223.7c0.045,0.549,0.532,0.969,1.088,0.924
			c0.552-0.046,0.965-0.539,0.921-1.088c-0.046-0.553-0.533-0.967-1.084-0.921C77.831,222.659,77.417,223.146,77.462,223.7z"/>
		<circle clip-path="url(#SVGID_2_)" fill="#AFBABC" cx="91.031" cy="235.337" r="1.008"/>
		<path clip-path="url(#SVGID_2_)" fill="#AFBABC" d="M89.322,226.77c0.033,0.416,0.403,0.727,0.814,0.691
			c0.415-0.033,0.727-0.399,0.693-0.813c-0.035-0.415-0.4-0.725-0.816-0.69C89.603,225.99,89.288,226.355,89.322,226.77z"/>
		<circle clip-path="url(#SVGID_2_)" fill="#AFBABC" cx="62.864" cy="249.639" r="0.754"/>
		<circle clip-path="url(#SVGID_2_)" fill="#AFBABC" cx="63.67" cy="259.521" r="0.754"/>
		<path clip-path="url(#SVGID_2_)" fill="#AFBABC" d="M74.244,261.569c0.033,0.414,0.402,0.724,0.815,0.689
			c0.414-0.033,0.723-0.398,0.688-0.812c-0.033-0.419-0.396-0.726-0.811-0.691C74.524,260.79,74.21,261.151,74.244,261.569z"/>
		<circle clip-path="url(#SVGID_2_)" fill="#AFBABC" cx="36.225" cy="249.917" r="0.754"/>
		<path clip-path="url(#SVGID_2_)" fill="#AFBABC" d="M64.584,232.822c0.034,0.415,0.399,0.722,0.813,0.688
			c0.413-0.033,0.726-0.396,0.692-0.811c-0.034-0.417-0.401-0.725-0.815-0.692S64.55,232.405,64.584,232.822z"/>
		<circle clip-path="url(#SVGID_2_)" fill="#AFBABC" cx="97.426" cy="215.448" r="1.068"/>
		<path clip-path="url(#SVGID_2_)" fill="#AFBABC" d="M147.697,6.54c0.017,0.205,0.198,0.359,0.409,0.343
			c0.205-0.017,0.362-0.2,0.346-0.405c-0.018-0.209-0.201-0.362-0.406-0.345C147.835,6.149,147.681,6.33,147.697,6.54z"/>
		<path clip-path="url(#SVGID_2_)" fill="#AFBABC" d="M8.234,174.586c0.017,0.205,0.201,0.36,0.408,0.343
			c0.207-0.017,0.36-0.198,0.344-0.403c-0.018-0.211-0.198-0.362-0.405-0.345C8.374,174.197,8.217,174.375,8.234,174.586z"/>
		<path clip-path="url(#SVGID_2_)" fill="#AFBABC" d="M49.091,253.387c0.039,0.489,0.464,0.849,0.948,0.81
			c0.479-0.04,0.844-0.465,0.804-0.951c-0.04-0.482-0.468-0.843-0.947-0.803C49.412,252.481,49.051,252.905,49.091,253.387z"/>
		<path clip-path="url(#SVGID_2_)" fill="#AFBABC" d="M45.256,246.635c0.019,0.209,0.201,0.363,0.407,0.346
			c0.209-0.018,0.364-0.198,0.348-0.408c-0.017-0.21-0.201-0.36-0.409-0.343C45.396,246.247,45.24,246.425,45.256,246.635z"/>
		<path clip-path="url(#SVGID_2_)" fill="#AFBABC" d="M27.493,256.033c0.018,0.207,0.196,0.361,0.403,0.345
			c0.212-0.018,0.363-0.2,0.347-0.405c-0.018-0.211-0.196-0.364-0.407-0.347C27.629,255.643,27.477,255.823,27.493,256.033z"/>
		<path clip-path="url(#SVGID_2_)" fill="#AFBABC" d="M6.143,234.775c0.401-0.263,0.513-0.815,0.243-1.22
			c-0.267-0.4-0.813-0.513-1.219-0.245c-0.407,0.271-0.512,0.817-0.245,1.223C5.189,234.935,5.738,235.046,6.143,234.775z"/>
		<path clip-path="url(#SVGID_2_)" fill="#AFBABC" d="M118.627,15.182c0.402-0.269,0.51-0.815,0.241-1.226
			c-0.269-0.398-0.814-0.512-1.219-0.238c-0.408,0.267-0.516,0.815-0.244,1.218C117.671,15.341,118.218,15.449,118.627,15.182z"/>
		<path clip-path="url(#SVGID_2_)" fill="#AFBABC" d="M20.723,175.332c0.402-0.265,0.512-0.814,0.241-1.222
			c-0.262-0.398-0.809-0.51-1.214-0.242c-0.406,0.27-0.515,0.817-0.248,1.221C19.769,175.492,20.318,175.601,20.723,175.332z"/>
		<path clip-path="url(#SVGID_2_)" fill="#AFBABC" d="M3.36,247.905c0.174-0.113,0.219-0.348,0.105-0.521
			c-0.113-0.176-0.35-0.22-0.523-0.107c-0.172,0.114-0.22,0.349-0.103,0.524C2.952,247.974,3.187,248.02,3.36,247.905z"/>
		<path clip-path="url(#SVGID_2_)" fill="#AFBABC" d="M160.396,32.25c0.171-0.114,0.221-0.346,0.104-0.522
			c-0.116-0.176-0.35-0.219-0.523-0.104c-0.172,0.112-0.22,0.347-0.104,0.52C159.985,32.322,160.221,32.371,160.396,32.25z"/>
		<path clip-path="url(#SVGID_2_)" fill="#AFBABC" d="M171.63,20.043c0.171-0.114,0.221-0.346,0.104-0.522
			c-0.116-0.176-0.35-0.219-0.523-0.104c-0.172,0.112-0.22,0.347-0.104,0.52C171.219,20.115,171.454,20.164,171.63,20.043z"/>
		<path clip-path="url(#SVGID_2_)" fill="#AFBABC" d="M168.391,34.997c0.17-0.114,0.22-0.347,0.103-0.522
			c-0.115-0.176-0.35-0.22-0.523-0.104c-0.171,0.112-0.219,0.347-0.104,0.52C167.979,35.068,168.214,35.117,168.391,34.997z"/>
		<path clip-path="url(#SVGID_2_)" fill="#AFBABC" d="M195.16,20.519c0.17-0.114,0.22-0.346,0.104-0.521s-0.351-0.22-0.524-0.104
			c-0.171,0.113-0.219,0.347-0.103,0.52C194.748,20.59,194.984,20.639,195.16,20.519z"/>
		<path clip-path="url(#SVGID_2_)" fill="#AFBABC" d="M182.87,50.552c0.171-0.114,0.221-0.346,0.104-0.522
			c-0.116-0.176-0.35-0.22-0.523-0.104c-0.172,0.112-0.22,0.347-0.104,0.52C182.459,50.624,182.694,50.672,182.87,50.552z"/>
		<path clip-path="url(#SVGID_2_)" fill="#AFBABC" d="M161.412,42.224c0.171-0.114,0.22-0.346,0.104-0.522s-0.351-0.219-0.524-0.104
			c-0.171,0.112-0.219,0.347-0.103,0.52C161,42.296,161.236,42.345,161.412,42.224z"/>
		<path clip-path="url(#SVGID_2_)" fill="#AFBABC" d="M154.612,20.132c0.028,0.35,0.333,0.604,0.678,0.576
			c0.344-0.028,0.603-0.329,0.574-0.677c-0.027-0.344-0.333-0.6-0.676-0.572C154.843,19.487,154.584,19.789,154.612,20.132z"/>
		<path clip-path="url(#SVGID_2_)" fill="#AFBABC" d="M142.497,18.45c0.028,0.349,0.333,0.603,0.678,0.575
			c0.343-0.028,0.603-0.328,0.574-0.676c-0.027-0.344-0.333-0.6-0.676-0.572C142.728,17.805,142.469,18.106,142.497,18.45z"/>
		<path clip-path="url(#SVGID_2_)" fill="#AFBABC" d="M164.735,8.806c0.028,0.35,0.329,0.606,0.678,0.578
			c0.343-0.028,0.6-0.33,0.57-0.679c-0.026-0.344-0.329-0.599-0.672-0.57C164.963,8.163,164.707,8.463,164.735,8.806z"/>
		<path clip-path="url(#SVGID_2_)" fill="#AFBABC" d="M163.134,20.566c0.028,0.35,0.33,0.605,0.678,0.577
			c0.343-0.028,0.6-0.33,0.571-0.678c-0.027-0.344-0.33-0.599-0.673-0.571C163.361,19.923,163.105,20.223,163.134,20.566z"/>
		<path clip-path="url(#SVGID_2_)" fill="#AFBABC" d="M21.901,241.596c0.028,0.349,0.332,0.609,0.677,0.582
			c0.344-0.028,0.601-0.334,0.572-0.684c-0.027-0.34-0.331-0.598-0.675-0.569C22.131,240.952,21.873,241.256,21.901,241.596z"/>
		<circle clip-path="url(#SVGID_2_)" fill="#AFBABC" cx="11.921" cy="221.345" r="0.503"/>
		<path clip-path="url(#SVGID_2_)" fill="#AFBABC" d="M241.47,261.933c0.021,0.274,0.26,0.479,0.539,0.456
			c0.277-0.022,0.481-0.263,0.458-0.537c-0.021-0.279-0.263-0.481-0.539-0.459C241.647,261.415,241.446,261.654,241.47,261.933z"/>
		<path clip-path="url(#SVGID_2_)" fill="#AFBABC" d="M60.609,205.766c0.022,0.28,0.264,0.481,0.544,0.459
			c0.276-0.022,0.481-0.261,0.459-0.541c-0.022-0.272-0.263-0.477-0.54-0.455C60.791,205.252,60.587,205.494,60.609,205.766z"/>
		<circle clip-path="url(#SVGID_2_)" fill="#AFBABC" cx="47.045" cy="223.651" r="0.503"/>
		<circle clip-path="url(#SVGID_2_)" fill="#AFBABC" cx="32.831" cy="236.42" r="0.502"/>
		<path clip-path="url(#SVGID_2_)" fill="#AFBABC" d="M25.502,216.135c0.022,0.274,0.264,0.486,0.545,0.462
			c0.274-0.021,0.476-0.27,0.453-0.543c-0.022-0.275-0.262-0.483-0.535-0.46C25.684,215.617,25.479,215.858,25.502,216.135z"/>
		<path clip-path="url(#SVGID_2_)" fill="#AFBABC" d="M21.905,226.206c0.021,0.278,0.268,0.486,0.546,0.464
			c0.272-0.021,0.478-0.268,0.455-0.546c-0.023-0.276-0.264-0.484-0.537-0.462C22.09,225.685,21.883,225.93,21.905,226.206z"/>
		<path clip-path="url(#SVGID_2_)" fill="#AFBABC" d="M54.533,199.327c0.022,0.274,0.264,0.481,0.546,0.458
			c0.272-0.022,0.48-0.267,0.458-0.538c-0.023-0.282-0.267-0.488-0.539-0.466C54.716,198.803,54.51,199.047,54.533,199.327z"/>
		<circle clip-path="url(#SVGID_2_)" fill="#AFBABC" cx="6.978" cy="212.034" r="0.503"/>
		<path clip-path="url(#SVGID_2_)" fill="#AFBABC" d="M5.25,190.856c0.022,0.276,0.264,0.479,0.543,0.456
			c0.276-0.022,0.48-0.261,0.458-0.537c-0.022-0.274-0.263-0.482-0.539-0.46C5.433,190.338,5.228,190.583,5.25,190.856z"/>
		<path clip-path="url(#SVGID_2_)" fill="#AFBABC" d="M33.99,185.604c0.022,0.278,0.263,0.485,0.543,0.462
			c0.276-0.022,0.481-0.266,0.458-0.544c-0.021-0.272-0.263-0.481-0.539-0.459C34.173,185.085,33.968,185.331,33.99,185.604z"/>
		<path clip-path="url(#SVGID_2_)" fill="#AFBABC" d="M209.497,23.271c0.026,0.345,0.336,0.602,0.681,0.574
			c0.342-0.028,0.602-0.333,0.575-0.677c-0.028-0.348-0.336-0.609-0.677-0.581C209.73,22.615,209.468,22.924,209.497,23.271z"/>
		<path clip-path="url(#SVGID_2_)" fill="#AFBABC" d="M212.183,227.987c0.027,0.343,0.331,0.604,0.68,0.575
			c0.344-0.027,0.601-0.335,0.572-0.677c-0.027-0.348-0.331-0.607-0.674-0.579C212.411,227.335,212.154,227.64,212.183,227.987z"/>
		<path clip-path="url(#SVGID_2_)" fill="#AFBABC" d="M164.698,49.195c0.036,0.448,0.43,0.786,0.884,0.749
			c0.447-0.036,0.781-0.435,0.746-0.883c-0.037-0.45-0.432-0.785-0.879-0.749C164.996,48.35,164.661,48.744,164.698,49.195z"/>
		<path clip-path="url(#SVGID_2_)" fill="#AFBABC" d="M14.488,258.278c0.041,0.516,0.496,0.906,1.017,0.863
			c0.523-0.042,0.904-0.5,0.863-1.017c-0.042-0.517-0.494-0.907-1.017-0.865C14.831,257.302,14.446,257.761,14.488,258.278z"/>
		<path clip-path="url(#SVGID_2_)" fill="#AFBABC" d="M57.344,214.487c0.042,0.518,0.501,0.901,1.02,0.859
			c0.521-0.042,0.908-0.495,0.866-1.012c-0.043-0.521-0.499-0.907-1.02-0.865C57.692,213.511,57.302,213.966,57.344,214.487z"/>
		<circle clip-path="url(#SVGID_2_)" fill="#AFBABC" cx="39.354" cy="199.047" r="1.007"/>
		<path clip-path="url(#SVGID_2_)" fill="#AFBABC" d="M202.454,13.567c0.906-0.074,1.578-0.87,1.505-1.771
			c-0.073-0.906-0.866-1.579-1.772-1.505c-0.904,0.073-1.58,0.866-1.507,1.772C200.754,12.964,201.55,13.64,202.454,13.567"/>
		<circle clip-path="url(#SVGID_2_)" fill="#AFBABC" cx="231.586" cy="70.487" r="1.509"/>
		<path clip-path="url(#SVGID_2_)" fill="#AFBABC" d="M156.935,63.086c0.404-0.263,0.512-0.812,0.244-1.221
			c-0.265-0.4-0.812-0.51-1.216-0.245c-0.408,0.272-0.517,0.817-0.246,1.222C155.983,63.246,156.53,63.358,156.935,63.086z"/>
		<path clip-path="url(#SVGID_2_)" fill="#AFBABC" d="M1.962,261.418c0.022,0.274,0.266,0.48,0.546,0.457
			c0.277-0.023,0.48-0.266,0.46-0.538c-0.023-0.278-0.265-0.487-0.542-0.465C2.146,260.896,1.939,261.139,1.962,261.418z"/>
	</g>
</g>
</svg>
