<?xml version="1.0" encoding="utf-8"?>
<!-- Generator: Adobe Illustrator 16.0.0, SVG Export Plug-In . SVG Version: 6.00 Build 0)  -->
<!DOCTYPE svg PUBLIC "-//W3C//DTD SVG 1.1//EN" "http://www.w3.org/Graphics/SVG/1.1/DTD/svg11.dtd">
<svg version="1.1" xmlns="http://www.w3.org/2000/svg" xmlns:xlink="http://www.w3.org/1999/xlink" x="0px" y="0px"
	 width="240.676px" height="240.677px" viewBox="0 0 240.676 240.677" enable-background="new 0 0 240.676 240.677"
	 xml:space="preserve">
<g id="grid" display="none">
</g>
<g id="Layer_1">
	<g>
		<g>
			<polygon fill="#EC008C" points="148.648,104.308 147.231,103.295 150.812,98.282 142.481,96.497 148.795,89.754 139.477,88.274 
				147.113,81.386 137.514,78.228 138.058,76.575 150.506,80.669 143.348,87.126 152.307,88.549 145.855,95.44 153.769,97.136 			
				"/>
		</g>
	</g>
	<g>
		<polygon fill="#69BD45" points="71.554,223.178 70.467,223.251 70.205,219.41 65.473,221.857 65.84,216.092 60.754,219.082 
			61.705,212.721 55.814,215.011 55.422,213.997 63.059,211.028 62.168,216.99 67.057,214.114 66.682,220.004 71.176,217.68 		"/>
	</g>
	<g>
		<polygon fill="#FFF200" points="98.877,152.276 99.1,151.297 102.559,152.083 101.652,147.259 106.641,149.108 105.349,143.83 
			110.711,146.352 110.25,140.547 111.248,140.469 111.848,147.993 106.821,145.63 108.064,150.706 102.967,148.815 
			103.828,153.397 		"/>
	</g>
	<g>
		<g>
			<polygon fill="#69BD45" points="165.687,158.537 167.205,157.73 163.368,153.733 172.294,152.31 165.529,146.933 
				175.515,145.754 167.331,140.262 177.616,137.744 177.034,136.425 163.696,139.69 171.366,144.839 161.767,145.972 
				168.68,151.467 160.2,152.819 			"/>
		</g>
	</g>
	<g>
		<g>
			<polygon fill="#FFF200" points="98.098,47.785 96.681,46.773 100.262,41.761 91.931,39.975 98.244,33.231 88.926,31.752 
				96.562,24.864 86.963,21.706 87.506,20.053 99.954,24.147 92.797,30.604 101.756,32.026 95.304,38.918 103.219,40.614 			"/>
		</g>
	</g>
	<circle fill="none" stroke="#EC008C" stroke-width="2" stroke-miterlimit="10" cx="19.913" cy="83.753" r="6"/>
	<circle fill="none" stroke="#69BD45" stroke-width="2" stroke-miterlimit="10" cx="35.17" cy="153.397" r="6"/>
	<circle fill="none" stroke="#EC008C" stroke-width="2" stroke-miterlimit="10" cx="146.832" cy="210.99" r="6"/>
	<circle fill="none" stroke="#EC008C" stroke-width="2" stroke-miterlimit="10" cx="194.131" cy="30.864" r="6"/>
	<circle fill="none" stroke="#FFF200" stroke-width="2" stroke-miterlimit="10" cx="225.16" cy="164.579" r="5"/>
</g>
</svg>
