<?xml version="1.0" encoding="utf-8"?>
<!-- Generator: Adobe Illustrator 16.0.0, SVG Export Plug-In . SVG Version: 6.00 Build 0)  -->
<!DOCTYPE svg PUBLIC "-//W3C//DTD SVG 1.1//EN" "http://www.w3.org/Graphics/SVG/1.1/DTD/svg11.dtd">
<svg version="1.1" xmlns="http://www.w3.org/2000/svg" xmlns:xlink="http://www.w3.org/1999/xlink" x="0px" y="0px"
	 width="1182.001px" height="432.511px" viewBox="0 0 1182.001 432.511" enable-background="new 0 0 1182.001 432.511"
	 xml:space="preserve">
<g id="grid" display="none">
</g>
<g id="Layer_1">
	<g>
		<path fill="#544449" d="M454.742,128.46c-0.191-1.463-0.896-2.534-1.844-3.237c-0.656-1.596-2.149-2.76-4.429-2.483
			c-12.991,1.578-25.739,4.766-38.519,7.52c-0.005,0.001-0.01,0.003-0.018,0.004c-2.521-0.48-5.441,1.077-5.818,3.738
			c-2.492,0.696-4.979,1.411-7.456,2.167c-15.921,4.858-30.463,12.057-45.288,19.495c-2.605,1.305-2.778,3.793-1.664,5.739
			c0.042,0.18,0.096,0.365,0.159,0.552c0.114,0.328,0.241,0.654,0.359,0.982c-13.173,7.062-25.421,16.615-34.013,28.935
			c-3.215,4.612-5.774,9.554-7.559,14.822c-0.475,0.561-0.818,1.285-0.977,2.198c-0.112,0.663-0.204,1.337-0.291,2.013
			c-7.371,2.473-12.148,7.731-14.473,14.04c-0.281,0.164-0.562,0.357-0.83,0.587c-1.956,1.678-3.553,3.511-4.839,5.453
			c-4.171,3.857-6.499,8.638-7.244,13.701c-0.269,0.163-0.532,0.353-0.79,0.583c-3.455,3.087-6.059,6.868-7.381,11.045
			c-0.088,0.058-0.176,0.112-0.265,0.178c-2.824,2.093-5.288,4.461-7.261,7.109c-0.677,0.419-1.266,1.073-1.69,2.017
			c-0.093,0.215-0.183,0.435-0.272,0.651c-1.112-0.326-2.376-0.231-3.649,0.519c-5.136,3.03-8.724,7.414-10.942,12.448
			c-6.588,1.39-13.266,4.739-16.525,10.489c-2.815,0.213-5.462,0.892-7.832,1.983c-0.643,0.169-1.269,0.487-1.861,0.977
			c-1.856,1.113-3.502,2.509-4.838,4.204c-4.737-0.436-9.111,0.407-12.867,2.449c-5.615,1.266-8.826,6.216-10.438,12.17
			c-1.438-3.472-3.529-6.456-6.451-8.308c-1.02-2.431-3.582-2.848-5.693-1.935c-0.842-0.083-1.726-0.098-2.654-0.037
			c-1.348,0.09-2.369,0.627-3.077,1.4c-1.616,0.659-2.839,2.158-2.644,4.45c0.604,7.148,0.838,14.552,1.915,21.673
			c-0.804,0.594-0.909,0.615-1.936,0.868c0-0.004,0-0.007,0.003-0.009c0.033-0.013,0.03-0.021,0-0.021
			c2.105-11.202-1.133-23.425-13.637-26.559c-2.475-0.619-4.238,0.648-5.02,2.437c-1.068,1.091-1.674,2.657-1.268,4.513
			c1.76,7.975,1.658,17.251,0.014,25.438c-0.911,1.338-1.128,3.096-0.675,4.57c0.591,3.417,5.339,4.635,7.907,2.375
			c15.084-2.176,30.396-4.935,45.641-3.479c0.573,0.056,1.107,0.017,1.604-0.092c2.575,0.148,5.224-1.504,4.906-4.813
			c-0.58-6.068-1.467-12.114-2.554-18.115c0.347-0.042,0.689-0.131,1.025-0.288c0.242-0.123,0.492-0.231,0.746-0.332
			c0.05-0.02,0.143-0.049,0.246-0.077c0.029,0.053,0.058,0.101,0.089,0.151c-0.278-0.457,0.212,0.532,0.261,0.668
			c0.176,0.502,0.443,0.947,0.756,1.353c0.627,4.289,2.28,8.405,5.055,11.887c0.709,1.312,1.512,2.568,2.431,3.724
			c0.896,1.128,2.032,1.694,3.19,1.844c3.268,1.902,8.572-0.871,6.98-5.433c-0.006-0.016-0.011-0.031-0.016-0.046
			c0.428-1.488,0.147-3.17-1.293-4.553c-0.006-0.005-0.011-0.012-0.016-0.018c-1.227-5.329-1.529-11.083-0.613-16.493
			c2.144,14.625,13.699,27.921,29.611,19.251c1.229-0.671,1.898-1.605,2.148-2.608c0.782-0.905,1.357-1.977,1.744-3.168
			c3.943,1.06,8.246,0.616,12.506-1.938c0.668-0.094,1.359-0.362,2.05-0.867c4.708-3.44,7.135-7.863,7.146-13.126
			c0.68,0.001,1.363-0.034,2.045-0.131c6.73-0.958,10.468-6.31,11.98-12.371c2.824-0.069,5.623-0.633,8.189-1.811
			c6.51-2.988,10.254-8.836,11.825-15.454c1.823-0.763,3.562-1.723,5.189-2.866c4.386-2.564,7.96-6.619,10.628-10.995
			c0.773-1.265,0.852-2.474,0.488-3.505c3.141-2.515,5.031-6.045,6.275-9.811c0.374-0.354,0.744-0.715,1.1-1.086
			c0.568-0.597,0.928-1.228,1.121-1.863c1.951-1.545,3.738-3.285,5.314-5.003c1.306-1.421,1.494-3.03,1.016-4.421
			c2.346-5.471,2.648-11.552-0.076-17.332c-3.969-8.429-12.475-13.274-21.507-14.371c-1.787-0.216-3.204,0.462-4.166,1.527
			c-0.3,0.065-0.599,0.132-0.894,0.204c7.283-13.671,20.916-24.871,33.951-31.452c0.514,2.515,2.807,4.697,5.956,3.652
			c16.658-5.531,33.521-10.462,50.028-16.445c1.574,0.906,3.692,0.854,5.242-0.095c0.126-0.005,0.245-0.02,0.371-0.034
			c0.572,0.062,1.19,0.022,1.852-0.158c9.815-2.688,19.607-5.517,29.267-8.74c2.772,0.891,6.591-0.743,6.591-4.608
			C455.602,141.899,455.623,135.142,454.742,128.46z M250.895,315.204c-0.332,0.475-0.671,0.943-1.02,1.405
			c-0.061-0.039-0.125-0.073-0.184-0.114c0.486,0.306-1.064-0.837-1.334-1.056c-1.189-0.987-2.284-2.085-3.333-3.227
			c-0.189-0.207-0.407-0.466-0.637-0.749c-2.341-6.527-1.457-14.117,0.351-20.894c0.09-0.105,0.168-0.224,0.26-0.328
			c0.031-0.033,0.057-0.07,0.088-0.103c-0.412,5.21,0.251,10.577,1.871,15.538c1.057,3.223,2.654,6.193,4.643,8.708
			C251.352,314.613,251.113,314.886,250.895,315.204z M270.228,305.697c-1.556,0.686-3.798-1.148-5.39-2.682
			c-5.49-5.3-7.902-14.168-5.83-21.445c0.289-1.024,0.243-1.923-0.033-2.681c0.08-0.099,0.153-0.204,0.237-0.304
			c-0.044,7.566,4.072,14.821,9.282,20.029c1.182,1.184,2.531,2.303,3.994,3.297C272.023,303.633,271.323,305.21,270.228,305.697z
			 M277.33,290.363c-6.066-3.588-8.775-11.145-7.204-17.766c0.103-0.257,0.206-0.514,0.325-0.768
			c0.115,0.638,0.243,1.278,0.406,1.924c1.885,7.427,7.92,13.464,14.642,16.767c0.404,0.201,0.823,0.383,1.242,0.561
			C284.254,292.605,281.07,292.574,277.33,290.363z M288.615,275.709c-3.978-2.761-7.048-6.533-8.221-11.271
			c-0.1-0.392-0.159-0.78-0.201-1.165c0.338-1.507,0.864-3.013,1.578-4.487c1.363,3.501,3.373,6.853,5.971,9.834
			c4.349,4.992,10.477,8.024,16.936,8.945C300.178,280.325,293.893,279.37,288.615,275.709z M317.678,265.263
			c-0.58,0.274-1.182,0.493-1.801,0.681c-1.855-0.987-4.18-0.936-5.487,0.487c-4.174-0.57-8.011-3.258-10.939-6.081
			c-4.828-4.652-7.257-10.707-6.745-16.51c0.914,2.89,2.244,5.685,4.003,8.252c5.163,7.537,13.569,11.687,22.645,11.506
			c0.196-0.006,0.397-0.021,0.594-0.035C319.218,264.195,318.459,264.761,317.678,265.263z M311.033,244.206
			c-5.402-4.15-6.264-9.72-4.002-14.8c0.043,0.433,0.089,0.865,0.135,1.297c0.165,1.645,0.988,2.792,2.078,3.48
			c1.254,3.098,3.061,5.78,5.309,8.02c0.592,0.792,1.213,1.556,1.877,2.289c1.077,1.19,2.259,2.221,3.52,3.107
			C316.877,247.415,313.817,246.344,311.033,244.206z M338.117,222.7c3.631,4.995,1.204,9.292-3.035,11.951
			c-0.68-0.44-1.497-0.734-2.459-0.785c-9.037-0.482-12.045-8.216-12.097-16.094C326.883,215.775,333.977,217.001,338.117,222.7z
			 M363.357,168.412c-1.279-2.095-2.439-4.286-3.406-6.54c0.893-0.446,1.789-0.873,2.682-1.315c0.939,2.408,2.033,4.756,3.21,7.06
			C365.018,167.883,364.184,168.143,363.357,168.412z M374.938,164.7c-1.414-2.674-2.709-5.395-3.753-8.243
			c1.099-0.512,2.196-1.041,3.303-1.545c1.592,2.868,2.271,5.953,2.233,9.217C376.125,164.318,375.534,164.51,374.938,164.7z
			 M386.055,161.15c-0.289-3.484-1.289-6.889-2.883-10.009c2.321-0.962,4.666-1.89,7.035-2.774c1.96,3.101,3.511,6.438,4.533,9.958
			C391.849,159.278,388.953,160.22,386.055,161.15z M403.694,155.299c-1.009-3.5-2.521-6.909-4.353-10.073
			c0.082-0.028,0.162-0.057,0.245-0.084c1.995-0.619,3.998-1.215,6.002-1.792c0.021,0.053,0.033,0.104,0.052,0.155
			c0.988,2.423,2.074,4.811,3.201,7.177c0.208,0.87,0.401,1.735,0.57,2.587C407.508,153.959,405.602,154.635,403.694,155.299z"/>
		<path fill="#916D77" d="M1163.382,308.996c-2.577-4.723-4.869-9.646-7.646-13.912c-4.428-6.811-94.228-109.872-97.201-114.056
			c-0.052-0.072-0.09-0.147-0.135-0.22c-1.447-1.693-2.746-3.522-3.941-5.358c-0.893-1.367-0.904-3.125,0.469-4.22
			c1.05-0.841,2.851-0.899,3.871,0.056c1.956-2.806,3.819-5.687,5.587-8.584c0.128-1.007,0.244-2.01,0.346-3.016
			c0.011-0.59,0.013-1.176,0.011-1.759c-0.074-0.829-0.162-1.659-0.249-2.487c0.067,0.025,0.124,0.043,0.187,0.067
			c-0.055-1.215-0.156-2.428-0.314-3.635c-0.045-0.217-0.084-0.438-0.125-0.656c-0.121-0.388-0.236-0.781-0.379-1.163
			c-0.214-0.558-0.248-1.079-0.173-1.562c-0.087-0.409-0.183-0.817-0.272-1.225c-0.023-0.08-0.044-0.159-0.064-0.239
			c-0.047-0.153-0.062-0.296-0.086-0.441c-1.496-6.618-3.434-13.064-6.41-19.371c-4.255-9.016-10.086-17.133-16.686-24.568
			c-13.936-15.7-31.83-27.66-50.123-37.688C945.152,40.353,895.122,28,844.932,19.736c-54.602-8.99-109.635-14.328-164.945-9.365
			c-27.062,2.427-53.753,7.964-80.182,14.118c-25.125,5.852-50.53,11.509-75.225,19.016c-16.822,5.111-33.071,12.054-47.578,22.078
			c-0.474,0.327-0.692,0.763-0.734,1.207c-15.024,11.132-24.846,26.06-30.13,44.29c-5.528,19.068-6.097,39.308-6.531,59.021
			c-0.005,0.134,0.005,0.254,0.027,0.367c-0.478,0.392-0.757,1.017-0.519,1.782c5.428,17.331,12.51,34.769,25.073,48.217
			c0.711,0.757,1.584,0.598,2.163,0.059c26.489,7.642,52.629-5.053,78.283-10.921c-3.992,15.359-6.508,31.039-8.713,46.745
			c-2.256,16.05-5.04,32.177-6.467,48.319c-0.055,0.587,0.158,1.062,0.488,1.409c-0.064,0.465,0.093,0.957,0.607,1.346
			c15.41,11.719,30.967,23.272,47.494,33.388c17.762,10.873,36.934,18.809,55.574,27.991c19.602,9.659,38.981,19.786,59.225,28.077
			c19.146,7.842,39.139,13.567,59.345,17.938c0.58,0.126,1.05-0.03,1.393-0.328c46.108,9.872,94.454,3.537,140.974,0.556
			c55.411-3.552,110.76-7.48,166.091-12.166c36.828-3.117,73.738-5.759,110.489-9.684c0.898,0.879,2.954,0.372,3.016-1.33
			C1175.117,363.708,1172.302,335.385,1163.382,308.996z"/>
		<path fill="#A0737F" d="M152.725,295.949c-0.422-0.756-0.861-1.5-1.342-2.219c-1.144-1.708-2.805-2.252-4.374-2.037
			c-1.954-0.842-4.192-1.339-6.738-1.408c-0.776-0.021-1.443,0.116-2.009,0.371c-2.461,0.058-4.934,2.26-4.912,4.964
			c-0.812,1.174-1.021,2.73-0.721,4.275c0.207,1.049,0.389,2.1,0.572,3.153c-2.69-4.75-7.233-8.289-13.594-9.244
			c-1.061-0.159-1.992,0.004-2.779,0.38c-3.957-0.559-7.658,4.802-3.914,8.164c0.285,0.258,0.555,0.526,0.823,0.795
			c0.094,0.695,0.392,1.417,0.962,2.132c2.932,3.682,4.492,7.553,4.793,11.995c-0.206-0.087-0.428-0.157-0.656-0.216
			c-2.83-11.643-10.632-21.13-24.045-19.475c-0.189,0.024-0.371,0.055-0.547,0.094c-0.014-0.006-0.029-0.014-0.045-0.019
			c-5.086-2.219-9.117,4.644-5.47,7.685c-3.939-2.474-8.606-3.665-13.612-3.085c-0.22-0.105-0.435-0.213-0.65-0.309
			c-3.396-1.506-6.323,1.067-6.803,3.852c-11.972-2.121-24.961,0.617-35.547,6.62c-0.596,0.048-1.204,0.201-1.816,0.494
			c-14.277,6.833-24.859,20.225-23.85,36.596c0.492,7.966,4.19,15.505,9.141,21.623c5.434,6.715,12.826,13.145,21.834,13.535
			c2.234,0.096,3.561-1.119,4.049-2.704c1.745-1.247,2.349-3.959,1.426-6.09c0.771-1.61,0.597-3.545-1.287-4.986
			c-9.208-7.034-11.955-16.612-6.994-27.194c4.812-10.275,14.773-18.309,25.014-22.752c0.656-0.285,1.191-0.663,1.621-1.104
			c3.816,0.209,7.545,0.903,10.99,2.102c2.658,0.924,4.474-0.58,5.095-2.653c1.528,0.599,2.931,0.267,3.995-0.565
			c1.406,1.582,2.67,3.272,3.759,5.008c2.487,3.975,7.733,1.867,8.573-1.656c2.853-0.539,5.465-3.89,3.656-7.316
			c-1.908-3.609-4.553-6.641-7.704-8.835c0.099,0.052,0.201,0.105,0.31,0.153c5.234,2.282,11.029,6.798,12.236,12.704
			c0.473,2.301,3.172,3.521,5.337,3.165c0.749,0.148,1.546,0.113,2.331-0.142c0.135-0.045,0.271-0.098,0.4-0.156
			c0.652,2.349,2.734,3.52,4.771,3.592c0.776,0.658,1.81,1.08,3.085,1.08c1.978,0,3.248-0.999,3.861-2.343
			c0.805,0.44,1.717,0.678,2.572,0.626c1.088-0.067,1.98-0.458,2.68-1.055c1.537,1.416,4.123,1.75,6.006,0.637
			c0.591,0.265,1.272,0.418,2.042,0.418c0.746,0,1.396-0.143,1.938-0.393c0.664,4.923,7.946,4.778,9.182,0.297
			c1.49,0.512,3.267,0.384,4.629-0.539c2.26,0.366,4.734-0.674,5.333-3.564c0.43-2.093,0.664-4.236,0.716-6.395
			c0.419-0.697,0.672-1.546,0.654-2.55C157.625,305.494,156.048,299.896,152.725,295.949z"/>
		<path fill="#916D77" d="M546.115,257.26c-2.33-3.21-5.049-6.104-8.083-8.658c-0.159-0.134-0.337-0.239-0.509-0.353
			c-0.232-0.626-0.617-1.236-1.207-1.792c-6.683-6.327-15.924-7.161-22.114,0.311c-1.515,1.828-1.372,3.91-0.403,5.494
			c0.021,0.565,0.053,1.127,0.118,1.682c-0.081-0.075-0.161-0.159-0.243-0.231c-5.588-4.93-13.227-2.364-18.701,1.275
			c-0.041,0.026-0.079,0.058-0.12,0.086c-1.787-0.729-3.835-1.183-6.187-1.257c-1.503-0.05-2.596,0.491-3.302,1.334
			c-1.11,0.138-2.157,0.654-2.915,1.483c0,0.004-0.004,0.008-0.01,0.012c-2.066-1.585-4.451-2.829-7.143-3.603
			c-1.756-0.507-3.153-0.02-4.086,0.95c-0.09,0.05-0.183,0.083-0.268,0.135c-0.312,0.264-0.623,0.529-0.938,0.792
			c-0.35,0.39-0.617,0.824-0.824,1.287c-1.066-0.837-2.195-1.628-3.416-2.316c-2.468-1.392-4.706-0.312-5.864,1.538
			c-2.819-2.619-6.394-0.741-7.475,2.046c-0.973-0.643-1.987-0.9-2.962-0.845c-1.457-0.511-3.002-0.862-4.631-1.011
			c-2.557-0.239-5.008,0.954-5.569,3.682c-0.025,0.14-0.048,0.283-0.06,0.425c-2.166-0.56-4.518-0.607-7.074-0.107
			c-1.514,0.296-2.55,1.575-2.993,3.026c-0.117,0.106-0.235,0.206-0.347,0.318c-1.227,0.669-2.145,1.856-2.734,3.188
			c-0.596-0.101-1.197-0.183-1.816-0.234c-2.561-0.213-5.008,0.936-5.57,3.683c-0.217,1.082,0.021,2.331,0.604,3.376
			c-0.742,0.005-1.494,0.046-2.259,0.148c-3.519,0.461-4.798,3.897-4.036,6.498c-2.442-0.626-4.985,1.374-5.462,3.708
			c-0.138,0.68-0.127,1.329,0.01,1.931c-0.55-0.203-1.123-0.371-1.733-0.467c-0.561-0.084-1.168-0.067-1.772,0.036
			c-0.52-0.061-1.049-0.108-1.599-0.121c-2.566-0.062-4.576,2.584-4.43,4.99c0.049,0.793,0.276,1.494,0.635,2.091
			c-1.385-0.387-2.806-0.683-4.354-0.647c-0.339,0.009-0.684,0.084-1.026,0.184c-2.019-0.316-3.998,0.329-5.05,2.393
			c-0.594,1.169-0.633,2.756-0.115,4.076c-0.271,0.018-0.533,0.042-0.791,0.081c-0.232-0.266-0.467-0.53-0.717-0.79
			c-3.513-3.688-8.49,0.591-7.619,4.653c-0.016-0.006-0.033-0.008-0.053-0.013c-0.184-0.233-0.358-0.472-0.545-0.702
			c-1.65-1.975-4.168-2.93-6.526-1.414c-1.13,0.726-1.97,2.121-2.167,3.553c-1.258-0.749-2.66-1.313-4.205-1.637
			c-3.061-0.638-5.046,1.499-5.445,3.894c-2.032-1.252-4.502-1.398-6.279,0.557c-0.387,0.423-0.69,0.953-0.896,1.532
			c-0.219,0.182-0.414,0.385-0.58,0.606c-3.883-1.14-8.167-1.196-12.047-0.667c-1.9,0.258-3.146,1.389-3.766,2.779
			c-2.677-1.057-5.832-1.602-9.534-1.492c-1.085,0.031-1.956,0.362-2.626,0.875c-3.5,0.412-6.249,5.125-2.85,8.186
			c6.014,5.414,7.498,14.687,7.828,22.36c0.299,6.989-0.565,17.541-6.773,22.096c-0.215,0.161-0.407,0.332-0.59,0.506
			c-0.229-0.733-0.279-1.499-0.295-2.822c-0.012-0.495-0.082-0.941-0.202-1.35c8.782-20.095,5.528-49.091-15.985-46.104
			c-4.881-2.875-8.82,5.299-3.963,8.607c6.148,4.19,4.476,15.467,3.312,21.496c-1.212,6.327-4.074,16.61-9.307,20.098
			c-0.042,0.025-0.077,0.054-0.112,0.083c-1.542-0.476-3.043-1.561-4.521-3.389c-0.037-0.042-0.074-0.078-0.107-0.12
			c7.484-14.786,10.16-32.449,1.393-45.79c-1.119-1.702-3.457-2.696-5.434-1.932c-2.529,0.978-5.102,1.869-7.723,2.575
			c-3.081,0.83-3.738,3.68-2.826,5.983c0.055,0.27,0.127,0.544,0.233,0.825c3.535,9.405,2.86,19.716,0.695,29.361
			c-1.026,4.574-2.627,10.022-5.204,14.636c-2.715,1.379-4.234-0.578-5.916-3.391c-0.025-0.049-0.061-0.091-0.088-0.138
			c2.152-5.022,3.661-10.382,4.518-15.811c2.13-8.962,2.543-18.264,0.559-27.586c0.4-2.629-1.374-4.488-3.723-5.305
			c-4.166-1.45-8.693-1.296-12.703,0.568c-1.014,0.469-1.882,1.152-2.466,1.992c-1.763,0.633-3.249,2.15-3.358,4.49
			c-0.766,16.396,0.566,34.958-5.293,50.677c-1.633-2.654-1.281-7.793-1.154-10.475c0.051-1.132-0.25-2.02-0.749-2.693
			c-0.022-2.56,0.05-5.117,0.232-7.671c0.101-1.431-0.21-2.808-0.976-3.857c0.068-0.356,0.143-0.709,0.209-1.066
			c0.364-0.521,0.634-1.162,0.767-1.942c0.837-4.991,1.692-9.971,2.144-15.016c0.125-1.36-0.166-2.678-0.863-3.707
			c-0.07-1.032-0.171-2.062-0.336-3.093c-0.036-0.214-0.084-0.422-0.139-0.629c0.008-0.977-0.238-1.956-0.818-2.712
			c-1.012-1.312-2.07-1.894-3.613-2.375c-0.551-0.17-1.142-0.216-1.709-0.262c-1.289-0.105-2.569-0.167-3.861-0.171
			c-1.529-0.004-2.856,0.902-3.654,2.147c-1.592,0.354-3.061,1.417-3.696,3.338c-3.021,9.152-4.026,18.868-5.114,28.402
			c-0.742,6.511-1.053,13.609-2.548,20.201c-3.999-7.189-3.855-16.225-2.823-24.407c0.178-1.393-0.191-2.563-0.864-3.469
			c1.562-5.224,3.599-10.29,6.452-15.072c1.152-1.928,0.732-3.721-0.414-4.957c-0.129-1.079-0.594-2.105-1.473-2.815
			c-4.395-3.556-9.668-4.47-14.938-2.284c-0.159,0.062-0.312,0.135-0.454,0.209c-0.885-0.065-1.83,0.146-2.785,0.738
			c-2.424,1.51-4.372,3.686-5.862,6.167c-0.614-0.3-1.333-0.475-2.154-0.475c-0.025,0-0.046,0.002-0.069,0.002
			c-0.396-1.072-1.147-2.004-2.235-2.501c-2.584-1.179-5.337-1.45-7.937-0.845c-1.059-0.891-2.521-1.296-4.248-0.72
			c-4.631,1.542-8.562,3.93-11.896,6.926c-0.173-1.542-0.816-3.041-1.82-4.217c0.006-2.001-1.098-3.992-3.616-4.565
			c-7.364-1.676-13.835,0.454-19.269,4.578c-0.975-1.26-2.128-2.353-3.615-3.302c-0.774-0.493-1.623-0.814-2.509-1.019
			c-0.764-1.306-2.146-2.218-4.142-2.059c-7.566,0.604-14.587,3.596-20.543,8.103c-0.048-1.965-1.137-3.925-3.552-4.584
			c-9.437-2.568-18.467-0.242-26.2,4.748c0.28-2.008-1.047-4.207-3.027-5.126c-0.8-0.814-1.907-1.37-3.315-1.424
			c-15.868-0.61-30.167,10.494-36.245,24.697c-1.801,4.208-2.735,9.007-2.764,13.849c-2.203,12.683,2.438,25.099,15.521,29.365
			c0.388,0.462,0.876,0.84,1.466,1.076c3.882,1.573,7.658,1.812,11.375,0.93c1.705,0.27,3.445,0.415,5.199,0.433
			c0.821,0.006,1.506-0.173,2.086-0.464c1.944,1.022,4.012,1.798,6.133,2.269c7.016,1.557,13.016-3.087,17.303-8.058
			c0.373-0.435,0.649-0.884,0.842-1.339c0.475-0.524,0.824-1.141,1.032-1.81c2.226,3.736,5.307,6.903,9.327,9.123
			c2.738,3.035,6.248,4.894,10.717,4.828c4.971-0.074,9.449-3.508,12.941-6.985c0.182,0.214,0.372,0.426,0.568,0.63
			c3.231,3.313,8.566,3.474,12.848,3.522c1.232,0.016,2.188-0.362,2.885-0.97c1.922-0.214,3.717-0.754,5.363-1.553
			c0.348,0.353,0.701,0.687,1.063,1.007c0.723,1.319,1.968,2.124,3.308,2.43c1.885,1.112,3.881,1.854,5.953,2.161
			c0.349,0.151,0.705,0.286,1.087,0.389c2.124,0.572,4.157,0.057,5.951-0.977c1.646-0.513,3.311-1.294,4.981-2.372
			c0.02-0.013,0.041-0.029,0.062-0.046c5.615-0.532,10.656-4.084,14.881-8.622c0.285,1.734,0.691,3.451,0.963,4.979
			c0.564,3.219,2.965,4.865,6.178,4.207c2.459-0.505,5.008-1.069,7.293-2.146c2.201-1.037,3.725-3.054,3.132-5.535
			c0.897-3.562,1.617-7.186,2.267-10.833c1.676,3.911,4.111,7.525,7.547,10.652c1.151,1.047,2.42,1.368,3.602,1.206
			c0.761,0.413,1.615,0.633,2.457,0.532c1.783-0.211,4.133-0.69,5.684-1.687c1.486-0.956,2.328-2.898,2.872-5.07
			c0.39-0.715,0.782-1.435,1.159-2.162c0.476-0.695,0.921-1.411,1.354-2.133c1.269,2.557,2.986,4.887,5.331,6.436
			c0.536,0.473,1.113,0.912,1.763,1.281c2.099,1.199,4.212,1.488,6.247,1.175c0.979,0.887,2.156,1.217,3.452,1.215
			c0.757,0,1.581-0.054,2.278-0.364c1.162-0.518,1.328-0.621,2.291-1.498c0.46-0.423,0.786-1.015,1.079-1.57
			c0.214-0.407,0.351-0.834,0.43-1.269c0.146-0.201,0.288-0.404,0.429-0.608c0.853-0.888,1.662-1.817,2.441-2.776
			c0.822,1.091,1.806,2.064,3.01,2.862c0.404,0.269,0.824,0.482,1.258,0.666c0.342,0.402,0.721,0.78,1.131,1.136
			c0.685,0.586,1.412,1.041,2.17,1.389c0.875,0.689,1.963,1.042,3.125,0.847c2.563,0.288,5.271-0.276,7.717-1.186
			c2.213-0.822,3.122-2.677,3.079-4.518c1.638-1.806,3.226-3.749,4.728-5.821c2.074,3.417,4.783,5.789,8.621,7.123
			c1.621,0.564,3.351,0.56,5.047,0.209c0.531,0.176,1.129,0.264,1.797,0.23c5.778-0.298,10.75-3.243,14.757-7.721
			c0.425,0.535,0.909,1.027,1.469,1.458c1.899,1.462,4.065,2.045,6.277,2.042c1.724,1.753,4.681,2.394,6.883,0.114
			c1.708-1.771,3.285-3.731,4.724-5.831c0.29-0.167,0.574-0.364,0.852-0.607c8.17-7.167,13.902-21.992,13.627-34.816
			c2.633,10.545-1.475,23.384-8.164,31.462c-1.73,2.092-1.291,4.513,0.064,6.142c1.033,2.214,3.639,3.813,6.348,2.551
			c0.967,0.14,2.014-0.037,3.065-0.687c2.95-1.817,5.435-4.03,7.526-6.512c0.123,0.449,0.303,0.868,0.535,1.236
			c1.525,2.369,4.211,2.524,6.525,1.415c2.139-1.026,4.01-2.404,5.613-4.035c0.907,0.801,2.089,1.297,3.375,1.238
			c0.832,0.039,1.711-0.142,2.595-0.636c1.413-0.786,2.757-1.874,4.009-3.136c0.49-0.434,0.969-0.882,1.418-1.347
			c1.82,2.022,5.214,2.827,7.096,0.261c0.013-0.019,0.021-0.038,0.038-0.057c0.132-0.115,0.266-0.239,0.393-0.372
			c1.158-1.221,2.163-2.6,3.022-4.075c0.272,0.305,0.581,0.573,0.914,0.807c1.52,1.432,4.156,2.027,5.854,0.624
			c2.137-1.768,3.967-3.718,5.529-5.835c1.836,0.923,4.466,0.807,5.701-0.96c0.43-0.611,0.828-1.228,1.223-1.848
			c0.922,0.047,1.833-0.186,2.564-0.794c1.589-1.326,2.861-3.024,3.869-4.89c2.066,0.918,4.666,0.541,5.938-2.091
			c0.241-0.5,0.449-1.013,0.664-1.524c0.09,0.056,0.183,0.113,0.284,0.163c2.069,1.052,5.48,0.359,6.345-2.07
			c0.533-1.5,1.01-3.013,1.467-4.523c2.068,0.063,4.226-1.014,4.957-3.535c0.422-1.461,0.764-2.938,1.037-4.427
			c1.959-0.244,3.861-1.682,4.111-3.727c0.234-1.923,0.242-3.802,0.131-5.678c2.396,0.212,4.391-1.457,5.018-3.762
			c0.206-0.749,0.372-1.504,0.525-2.264c1.639,0.13,3.287-0.588,4.205-2.548c0.592-1.261,1.056-2.555,1.42-3.876
			c1.446,0.396,3.042,0.044,4.3-1.517c1.153-1.44,2.175-2.939,3.057-4.488c1.608,0.86,3.707,0.952,5.321-0.213
			c1.635,2.167,4.859,3.098,7.066,0.409c0.502-0.612,0.969-1.243,1.408-1.884c1.146,0.967,2.394,1.807,3.691,2.487
			c2.283,1.191,5.192,0.201,6.348-2.071c0.369-0.729,0.523-1.509,0.498-2.273c0.015-0.015,0.03-0.03,0.046-0.045
			c1.349,1.807,3.843,2.896,6.384,1.575c2.799-1.458,5.191-3.708,7.102-6.411c4.875,2.669,10.387,1.86,14.389-2.205
			c1.869-1.899,3.152-4.281,4.031-6.843c1.185,0.296,2.412,0.514,3.692,0.635c9.022,1.229,15.671-4.905,16.733-13.816
			c0.562-0.293,1.066-0.671,1.469-1.128c0.619,0.114,1.244,0.079,1.855-0.073c1.148,0.263,2.387,0.094,3.5-0.622
			C546.775,262.453,547.629,259.342,546.115,257.26z M58.949,351.075c-2.486,7.124-2.754,15.237,0.04,22.234
			c-6.409-5.481-6.473-15.75-3.21-24.494c3.829-7.213,9.646-13.858,16.303-18.813C66.129,336.109,61.523,343.68,58.949,351.075z
			 M94.033,344.901c-3.012,8.254-3.432,18.349-0.486,26.889c-1.043-0.49-2.251-0.613-3.374-0.187
			c-0.627,0.237-1.23,0.422-1.823,0.558c-0.122-0.142-0.252-0.282-0.4-0.417c-10.46-9.828-4.508-27.061,3.742-36.237
			c0.282-0.312,0.502-0.632,0.684-0.958c1.006-0.627,2.022-1.209,3.049-1.731c2.01-0.618,4.027-1.032,6.02-1.228
			C98.288,335.636,95.762,340.162,94.033,344.901z M123.688,348.588c-2.502,8.383-2.297,16.399,0.217,24.573
			c-0.596-0.178-1.289-0.215-2.082-0.067c-0.415,0.079-1.027,0.246-1.701,0.408c-0.128-0.901-0.525-1.804-1.281-2.618
			c-11.339-12.28-0.447-29.271,11.244-36.885C127.232,338.808,125.072,343.95,123.688,348.588z M150.127,373.858
			c-0.199,0.396-0.407,0.762-0.625,1.104c-0.678,0.246-1.396,0.409-2.183,0.436c-0.659,0.02-1.271-0.283-1.829-0.75
			c-8.67-15.137,0.479-32.639,12.677-43.307c0.458-0.225,0.907-0.425,1.353-0.611c0.376,0.142,0.768,0.232,1.168,0.277
			C152.244,342.558,149.549,359.138,150.127,373.858z M191.172,332.22c-4.566,10.057-5.545,21.925-4.723,33.367
			c-1.365,1.941-2.959,3.729-4.683,5.339c-1.497,1.401-3.512,2.769-5.593,2.865c-1.018,0.045-1.965-4.184-2.166-5.701
			c-0.038-0.3-0.105-0.576-0.188-0.843c0.751-13.563,2.831-27.481,13.905-36.1c0.473-0.367,0.844-0.778,1.133-1.212
			c0.543,0.773,1.327,1.378,2.322,1.699C191.168,331.834,191.163,332.028,191.172,332.22z M479.417,285.641
			c-0.009-0.012-0.022-0.033-0.031-0.038c-0.093-0.13-0.176-0.266-0.263-0.398c1.768-7.396,0.51-15.294-3.443-21.739
			c0.039-0.038,0.078-0.082,0.121-0.122C482.818,267.486,485.085,279.538,479.417,285.641z M494.912,272.433
			c-0.275,3.751-1.536,7.523-3.875,10.401c1.654-6.273,0.742-13.182-2.371-18.86c0.246-0.178,0.478-0.373,0.696-0.591
			c0.038-0.039,0.064-0.081,0.104-0.119C494.021,263.583,495.201,268.521,494.912,272.433z M507.312,278.217
			c-0.188,0.265-1.555,1.703-0.896,1.151c-0.955,0.798-0.592,0.56-1.227,0.703c-0.031-0.002-0.277-0.001-0.796-0.11
			c-0.253-0.056-0.753-0.312-1.319-0.653c0.925-3.203,1.307-6.543,1.091-9.709c1.354,1.901,2.915,3.579,4.683,4.98
			C508.407,276.097,507.852,277.448,507.312,278.217z M524.536,254.167c0.542,0.278,1.065,0.746,1.696,1.411
			c0.342,0.364,0.646,0.836,0.921,1.377c-1.362-0.374-2.503-1.05-3.219-2.188C524.129,254.527,524.332,254.334,524.536,254.167z
			 M526.899,269.144c-0.798,0.919-2.114,1.162-3.575,1.055c-0.22-0.039-0.441-0.064-0.681-0.071
			c-1.044-0.148-2.136-0.441-3.149-0.778c-0.133-0.042-0.255-0.073-0.381-0.103c0.007-0.108,0.016-0.216,0.018-0.323
			c0.07-1.84-0.062-3.77-0.428-5.66c0.022,0.017,0.037,0.035,0.057,0.05c2.692,2.187,5.988,3.165,9.385,3.419
			C527.85,267.69,527.429,268.53,526.899,269.144z"/>
		<path fill="#BB8491" d="M1029.625,91.081c-6.455-5.986-12.714-12.182-19.449-17.86c-0.361-0.25-0.721-0.508-1.082-0.758
			c-14.591-9.647-30.93-16.42-47.289-22.459c-19.797-7.308-39.803-14.25-60.164-19.814c-25.494-6.966-51.529-11.78-77.697-15.371
			c-53.075-7.29-106.234-7.415-159.463-2.265c-0.283-0.029-0.583-0.037-0.902-0.011c-16.18,1.244-32.474,3.202-48.587,5.958
			c-32.907,4.851-65.593,11.94-96.392,24.242c-22.109,8.831-44.986,20.67-59.477,40.186c-13.487,18.171-17.219,40.64-17.939,62.75
			c-0.062,1.864,0.786,3.1,1.992,3.745c1.096,1.23,2.758,2,4.754,1.607c18.831-3.7,37.414-9.029,55.494-15.448
			c2.379-0.843,3.265-2.884,3.079-4.837c0.797-0.806,1.318-1.927,1.313-3.36c-0.102-18.856,5.78-40.011,26.35-44.928
			c9.458-2.263,19.93,0.137,28.791,3.562c11.756,4.55,21.299,11.836,30.787,19.962c4.621,3.963,10.98-3.018,6.358-6.978
			c-0.084-0.071-0.173-0.145-0.253-0.219c-0.145-0.92-0.598-1.834-1.461-2.642c-18.616-17.354-39.787-33.277-65.05-38.602
			c15.784-13.343,37.137-19.722,56.813-24.446c6.811-1.636,13.704-3.076,20.641-4.354c11.689-1.79,23.389-3.296,35-4.69
			c56.016-6.723,112.262-8.073,168.309-1.027c26.243,3.299,52.33,7.897,77.979,14.395c21.195,5.371,41.852,12.476,62.404,19.89
			c11.059,3.988,22.1,8.297,32.662,13.516C972.245,79.8,959.9,92.6,956.142,110.134c-0.417,1.941,0.585,4.345,2.487,5.148
			c9.262,3.915,18.281,8.353,26.742,13.803c4.15,2.671,8.014,5.771,11.619,9.132c0.518,0.487,1.026,0.986,1.522,1.491
			c0.159-0.006,0.317-0.018,0.479-0.024c0.648-1.131,1.922-1.814,3.469-1.093c2.044,0.957,4.848,0.277,7.035,0.148
			c0.074-0.003,0.154-0.006,0.234-0.01c0.485-0.942,1.438-1.619,2.814-1.468c4.08,0.446,8.145,1.029,12.217,1.5
			c2.131,0.125,4.255,0.319,6.37,0.591c0.706,0.047,1.416,0.088,2.122,0.122C1029.742,123.616,1029.785,107.282,1029.625,91.081z"/>
		<path fill="#775B63" d="M980.51,304.875c-0.257,0.007-0.51,0.01-0.769,0.017c-0.122-0.008-0.243-0.017-0.376-0.017
			c-28.194,0.01-56.381,0.63-84.552,1.854c-2.39,0.104-4.776,0.223-7.171,0.346c-23.054,0.425-46.114,0.668-69.197,0.5
			c-8.76-0.063-17.865-0.073-26.656,1.298c-17.527-2.007-34.59-6.715-49.262-16.894c-26.793-18.587-40.241-49.434-52.599-78.432
			c-13.319-31.249-26.899-64.843-28.545-99.157c-0.681-14.235,1.459-29.814,12.831-39.61c1.541-1.327,1.772-2.919,1.235-4.302
			c-0.749-2.653-3.972-4.993-7.28-3.417c-23.989,11.405-37.508,33.396-45.911,57.719c-4.24,12.279-7.179,24.973-10.29,37.572
			c-3.121,12.614-6.578,25.175-10.206,37.669c-10.823,3.629-22.321,5.168-33.719,4.738c-0.545-0.02-1.031,0.038-1.467,0.159
			c-4.272-0.417-8.519-1.086-12.763-1.787c-2.385-0.397-4.123,0.84-4.971,2.529c-0.207,0.185-0.41,0.39-0.601,0.631
			c-3.745,4.674-6.069,10.166-7.433,15.967c-0.072,0.296-0.105,0.576-0.123,0.848c-8.385,26.31-10.116,53.789-14.752,80.963
			c-0.412,2.413,0.852,4.164,2.57,5c28.051,29.366,65.219,50.041,101.666,67.059c37.244,17.391,77.192,32.341,117.776,39.606
			c24.854,4.448,50.663,5.833,75.798,3.254c1.078-0.111,1.941-0.505,2.605-1.07c6.939-0.081,13.904-0.381,20.846-0.648
			c6.085-0.231,5.533-9.656-0.554-9.424c-20.113,0.768-39.86,1.783-59.513-3.422c-12.334-3.269-26.402-9.413-31.518-22.051
			c-5.998-14.809,1.486-33.515,11.865-44.397c9.524-9.981,22.99-15.758,36.564-18.389c19.16,0.998,38.67-0.451,57.232-1.62
			c5.579-0.353,11.156-0.67,16.734-0.97c20.817-0.337,41.627-0.973,62.438-1.589c13.536-0.402,27.077-0.795,40.62-1.11
			C987.153,314.157,986.594,304.733,980.51,304.875z"/>
		<path fill="#A0737F" d="M618.796,116.516c-0.171-2.312-1.646-3.663-3.39-4.11c-1.413-1.254-3.488-1.818-5.592-0.724
			c-12.955,6.734-26.75,11.844-40.34,17.131c-13.687,5.327-27.422,10.52-41.23,15.515c-27.879,10.086-56.125,19.368-84.961,26.333
			c-3.57,0.865-3.904,4.466-2.318,6.876c5.57,15.359,12.015,30.475,22.918,42.862c1.312,1.492,2.871,1.744,4.234,1.252
			c23.282,1.979,46.615,0.738,69.367-4.814c24.35-5.942,45.779-17.627,64.852-33.714c0.998-0.841,1.54-1.872,1.731-2.935
			C615.422,161.153,620.426,138.583,618.796,116.516z"/>
		<path fill="#544449" d="M631.111,84c-10.752,9.098-14.051,24.727-16.028,37.944c-2.674,17.843-2.9,37.132-11.421,53.432
			c-3.58,6.838-9.131,12.158-16.285,15.365c-8.881,3.983-18.445,6.169-27.43,9.881c-0.679,0.279-1.314,0.626-1.906,1.019
			c-1.955,0.332-3.843,1.293-5.395,2.762c-11.643,11.04-15.41,28.964-17.981,44.14c-1.351,7.991-2.228,16.054-3.149,24.104
			c-1.036,9.013-4.826,22.517-5.559,32.833c4.664,4.15,8.861,8.751,12.849,13.553c1.556-9.253,6.781-25.357,8.034-34.64
			c-0.67-1.651,0.022-3.809,1.864-4.114c0.04-0.384,0.089-0.766,0.132-1.147c1.014,0.521,2.031,1.029,3.051,1.53
			c10.558,1.862,21.242,3.279,31.949,3.768c0.146-0.312,0.281-0.628,0.385-0.949c-0.623-3.413-1.602-6.681-3.214-9.598
			c-1.054-0.788-2.271-1.423-3.596-1.872c-0.786-0.27-1.569-0.552-2.351-0.836c-0.295-0.067-0.594-0.132-0.883-0.204
			c-3.008-0.709-6.445-1.218-9.218-2.628c-3.749-1.901-7.423-3.878-11.446-5.149c-1.456-0.459-1.991-1.605-1.891-2.758
			c-0.172-0.048-0.338-0.096-0.511-0.136c0.267-1.951,0.543-3.898,0.843-5.843c1.177-7.628,2.737-15.211,5.08-22.572
			c0.777-2.453,1.758-4.873,2.951-7.158c6.361,3.316,12.182,7.486,17.924,11.776c10.599,5.353,21.646,10.209,33.049,13.24
			c-0.104-1.527-0.123-3.041-0.029-4.532c-0.631-2.476-1.443-4.877-2.533-7.157c-4.339-3.265-8.492-6.892-12.656-10.417
			c-6.406-4.637-12.582-9.615-19.176-13.97c4.568-1.58,9.129-3.118,13.535-4.895c0.248-0.62,0.754-1.154,1.6-1.467
			c5.504-2.022,12.119-5.446,17.222-10.04c1.704-1.738,3.22-3.63,4.459-5.691c-0.065-0.45-0.021-0.947,0.192-1.48
			c10-25.183,11.762-52.373,18.747-78.363c1.562-5.813,3.672-11.245,7.362-16.066c1.201-1.564,2.475-3.06,3.785-4.524
			c3.938-5.661,8.656-10.839,13.73-15.547c0.016-0.016,0.025-0.034,0.043-0.049c0.258-0.44,0.594-0.793,0.994-1.05
			c2.918-3.084,6.053-5.957,9.386-8.516C654.96,70.886,641.605,75.121,631.111,84z"/>
		<path fill="#544449" d="M1063.453,160.545c-0.49-2.236-1.938-4.3-4.644-5.624c-13.787-6.756-28.708-10.528-43.9-12.383
			c-4.868-0.595-9.587,1.93-10.631,7.032c-0.92,4.523,2.156,10.035,7.034,10.63c2.283,0.279,4.551,0.618,6.811,0.985
			c0.58-0.198,1.255-0.192,1.999,0.146c4.622,2.106,9.33,4.104,13.729,6.656c2.198,1.279,4.299,2.824,6.433,4.293
			c0.825,0.408,1.638,0.855,2.427,1.34c4.168,0.615,8.291,1.416,12.385,2.377c3.497-3.585,7.128-7.062,8.701-11.937
			c0.121-0.371,0.294-0.667,0.49-0.923C1064.141,162.147,1063.879,161.409,1063.453,160.545z"/>
		<path fill="#A0737F" d="M1138.541,281.269c-9.373-11.951-35.713-40.527-45.051-52.346c-17.861-22.591-25.932-32.212-45.053-53.82
			c-5.561-2.331-24.166-13.281-29.465-16.162c-1.135,1-1.865,2.528-1.672,3.899c1.611,11.373,1.545,23.333-3.089,33.984
			c-3.855,8.855-10.507,15.572-18.841,20.532c-20.058,11.942-46.128,12.452-68.756,11.114c-27.08-1.604-54.098-7.551-79.875-15.807
			c-11.146-3.569-22.113-7.76-32.709-12.725c-9.851-4.614-18.021-9.546-25.987-16c-17.181-13.917-37.87-37.091-37.236-60.48
			c-1.716,0.74-4.145-0.021-4.272-2.173c-0.242-4.008-0.219-8.076,0.654-12.013c5.812-26.212,34.707-33.878,58.758-36.54
			c1.05-0.152,2.104-0.29,3.15-0.421c11.422-2.25,22.801-4.708,34.544-3.843c1.458,0.107,2.278,1.021,2.531,2.104
			c3.254,0.04,6.511,0.131,9.757,0.281c9.744-0.077,19.344,0.287,28.934,2.586c3.984,0.955,7.843,2.188,11.599,3.67
			c0.31,0.103,0.626,0.197,0.932,0.304c1.169,0.408,2.289,0.889,3.376,1.415c3.846,0.6,7.752,1.463,10.944,2.805
			c-12.024-10.213-27.122-15.842-42.313-19.508c-18.079-4.36-36.855-5.761-55.4-6.292c-18.351-0.522-36.766,0.011-55.153,1.077
			c-19.931-0.042-39.927,0.418-59.688,2.859c-5.506-0.041-10.973,0.802-16.199,2.492c-1.125,0.209-2.248,0.421-3.373,0.646
			c-0.492-0.095-1.037-0.12-1.643-0.022c-32.76,5.173-23.021,43-16.308,68.525c0,0.001,0,0.005,0,0.008
			c0.003,0.003,0.006,0.01,0.006,0.015c1.104,4.212,2.132,8.089,2.868,11.427c0.194,0.878,0.564,1.549,1.032,2.056
			c0.474,1.582,0.96,3.161,1.444,4.742c5.437,27.1,14.274,53.641,24.859,79.085c10.301,24.755,22.354,51.131,40.898,70.979
			c26.485,28.344,71.557,18.209,105.559,14.822c21.938-2.188,44.225-2.177,66.251-2.854c24.318-0.749,48.632-1.331,72.948-1.876
			c23.688-0.529,47.254-1.141,70.861-3.314c23.914-2.203,50.354-2.776,74.302-4.636c3.21-0.249,21.759-2.183,21.022-5.149
			C1141.725,288.769,1141.241,289.01,1138.541,281.269z"/>
		<g>
			<path fill="none" d="M821.777,69.657c1.092-0.064,2.188-0.122,3.283-0.171C823.943,69.389,822.838,69.439,821.777,69.657z"/>
			<path fill="none" d="M859.939,70.371c3.902,0.372,7.791,0.833,11.658,1.385c-2.395-0.647-4.832-1.031-6.805-1.315
				C863.271,70.22,861.57,70.176,859.939,70.371z"/>
			<path fill="#916D77" d="M1024.709,172.793c-4.31-16.543-15.865-30.594-28.175-41.97c-12.446-11.502-26.441-20.765-41.231-28.642
				c9.686,5.8,18.889,12.291,27.298,19.514c20.72,17.797,42.134,47.589,35.187,76.614c-8.31,34.686-50.77,42.625-81.148,41.563
				c-21.732-0.761-43.283-4.858-64.061-11.172c-20.34-6.182-40.354-14.103-58.854-24.638
				c-27.331-15.563-54.827-40.775-60.424-73.263c-2.297-13.34,0.497-27.174,9.232-37.738c8.307-10.042,20.227-16.413,32.707-20.317
				c-30.048,5.514-65.188,19.715-66.013,53.715c-0.4,16.411,9.017,31.614,19.466,43.471c14.11,16.014,33.285,28,51.795,38.252
				c37.812,20.95,80.354,34.715,123.525,37.991c30.572,2.322,71.724,1.576,92.131-25.449
				C1026.391,207.156,1028.939,189.023,1024.709,172.793z"/>
			<path opacity="0.2" fill="#D6D6D6" d="M930.769,90.501c8.337,3.573,16.55,7.427,24.534,11.681
				c-9.963-5.97-20.441-11.211-31.104-15.758c0.213,0.163,0.422,0.337,0.635,0.518c1.449,0.705,2.896,1.428,4.316,2.192
				C929.845,89.505,930.377,89.977,930.769,90.501z"/>
			<path fill="#C69DA7" d="M762.533,93.062c-8.735,10.564-11.529,24.398-9.232,37.738c5.597,32.488,33.093,57.7,60.424,73.263
				c18.5,10.535,38.514,18.456,58.854,24.638c20.777,6.313,42.328,10.411,64.061,11.172c30.379,1.062,72.839-6.877,81.148-41.563
				c6.947-29.025-14.467-58.816-35.187-76.614c-8.409-7.223-17.612-13.714-27.298-19.514c-7.984-4.253-16.197-8.108-24.534-11.681
				c-0.392-0.524-0.924-0.996-1.618-1.368c-1.42-0.764-2.867-1.487-4.316-2.192c3.02,2.583,5.75,6.929,2.643,10.513
				c-3.682,4.249-10.344,3.05-15.174,1.889c-4.016-0.962-12.192-2.747-14.055-7.157c-1.097-2.593-0.881-4.694,0.129-6.321
				c0.941-5.386,7.846-5.516,14.334-4.057c-1.562-0.59-3.123-1.156-4.686-1.717c-11.569-3.896-23.624-6.472-35.629-8.224
				c-0.264-0.04-0.533-0.071-0.799-0.11c3.494,0.946,6.892,2.461,8.633,5.109c0.986,1.501,1.084,2.944,0.633,4.23
				c0.023,0.771-0.139,1.589-0.557,2.463c-0.6,1.259-1.691,2.132-3.066,2.728c-0.477,0.994-1.441,1.747-2.859,1.662
				c-5.971-0.358-23.113,1.027-24.34-7.611c-0.556-0.265-1.023-0.778-1.277-1.596c-0.961-3.062-0.041-4.982,1.855-6.145
				c0.479-0.771,1.283-1.371,2.118-1.471c0.888-0.108,2.279-0.126,3.98-0.041c0.058-0.003,0.119-0.005,0.177-0.01
				c0.94-0.353,1.98-0.58,3.045-0.703c-11.577-1.104-23.257-1.405-34.879-0.885c2.439,0.219,4.885,1.127,6.81,2.483
				c1.22,0.862,2.265,1.938,3.045,3.11c0.327,0.409,0.629,0.832,0.881,1.273c0.257,0.447,0.458,0.898,0.626,1.352
				c2.5,3.238,1.834,7.375-1.992,9.551c-1.18,0.668-2.377,1.06-3.589,1.237c-0.713,0.199-1.472,0.308-2.265,0.319
				c-2.221,0.706-4.801,0.742-6.83,0.306c-5.056-1.09-10.907-6.288-10.268-11.962c0.209-1.839,0.992-3.327,2.116-4.484
				c0.019-0.023,0.04-0.042,0.058-0.065c0.094-0.094,0.188-0.188,0.288-0.279c0.433-0.422,0.906-0.768,1.415-1.048
				c1.746-1.045,3.887-1.559,6.008-1.545c0.133-0.034,0.275-0.046,0.414-0.076c-4.424,0.256-8.832,0.626-13.223,1.123
				c-4.227,0.477-8.711,1.118-13.314,1.964C782.76,76.649,770.84,83.02,762.533,93.062z M979.619,156.061
				c4.289-0.231,9.801,3.139,12.605,4.871c0.476,0.293,0.977,0.609,1.486,0.936c6.406,3.558,11.959,8.677,17.672,13.635
				c3.857,3.347,3.471,8.392-0.855,11.157c-3.904,2.497-9.349,2.366-13.654,1.198c-6.02-1.633-11.637-4.962-16.416-8.94
				c-3.263-2.716-7.799-6.072-9.32-10.217C968.668,161.969,971.305,153.443,979.619,156.061z M937.482,179.342
				c0.564-4.781,4.216-7.68,8.338-9.599c0.543-0.252,1.053-0.332,1.525-0.286c6.517-3.104,16.231,3.001,21.148,6.476
				c3.452,2.441,8.846,6.396,11.922,10.978c0.255,0.304,0.5,0.612,0.738,0.928c3.038,4.045,6.404,9.94,4.006,15.054
				c-2.129,4.542-8.141,5.183-12.518,4.317c-10.734-2.119-22.004-8.136-29.598-16.038
				C940.121,188.128,936.947,183.847,937.482,179.342z M885.742,179.113c0.529-4.465,4.068-7.025,8.022-8.512
				c1.243-0.47,2.343-0.115,3.11,0.592c4.396-1.288,9.109-1.266,13.814-0.259c6.364,1.358,14.965,4.9,18.775,10.531
				c6.186,9.139,2.053,23.915-10.827,22.924c-9.872-0.756-20.592-7.263-27.412-14.159
				C888.441,187.417,885.24,183.375,885.742,179.113z M839.705,154.009c1.377-0.444,2.585,0.061,3.361,0.927
				c6.34-0.158,13.33,2.188,18.271,4.752c6.057,3.147,14.559,9.806,9.54,17.469c-7.32,11.169-23.005,6.364-32.35,0.912
				c-4.47-2.605-11.22-7.068-10.446-13.209C828.844,158.802,834.393,155.725,839.705,154.009z M828.756,133.346
				c0.178,0.151,0.356,0.292,0.527,0.451c3.68,3.416,4.766,9.27,2.703,13.818c-2.041,4.487-7.193,6.934-11.787,7.834
				c-5.029,0.982-9.561,0.431-14.471-0.79c-4.785-1.19-10.399-2.696-13.799-6.541c-3.395-3.836-3.648-9.757-0.51-13.919
				c3.827-5.09,9.906-6.874,16.041-7.035c0.914-0.024,1.57,0.296,1.993,0.795C816.869,127.479,825.781,127.878,828.756,133.346z
				 M795.969,80.193c5.869-0.692,11.853,0.193,15.443,5.048c5.772,7.806,0.361,15.098-8.479,15.633
				c-7.863,0.475-18.239-2.477-22.09-9.915C776.631,82.838,789.824,77.784,795.969,80.193z M770.983,102.132
				c3.522-1.895,6.7-1.837,10.122-1.492c0.479-0.279,1.063-0.428,1.758-0.366c8.107,0.725,21.918,0.383,26.412,8.827
				c6.512,12.236-10.707,16.106-19.102,17.117c-9.406,1.135-25.699,1.367-27.238-11.286
				C762.29,109.621,766.594,104.5,770.983,102.132z"/>
			<path fill="#AEADAD" d="M982.601,121.696c-8.409-7.223-17.612-13.714-27.298-19.514c-5.984-3.189-12.103-6.153-18.298-8.942
				c-6.608-4.106-13.36-8.125-20.532-10.96c-2.561-1.01-5.242-1.739-7.854-1.972c-0.196-0.072-0.397-0.145-0.593-0.217
				c-2.361-0.848-4.715-1.676-7.074-2.456c-22.25-7.38-47.408-12.069-71.559-10.361c-6.941,0.221-13.846,0.918-20.656,2.163
				c-4.477,0.819-9.021,1.909-13.496,3.309c0.385-0.073,0.762-0.131,1.141-0.199l0,0c-0.381,0.068-0.756,0.126-1.141,0.199
				c-12.48,3.904-24.4,10.275-32.707,20.317c-8.735,10.564-11.529,24.398-9.232,37.738c5.597,32.488,33.093,57.7,60.424,73.263
				c18.5,10.535,38.514,18.456,58.854,24.638c20.777,6.313,42.328,10.411,64.061,11.172c30.379,1.062,72.839-6.877,81.148-41.563
				C1024.734,169.285,1003.32,139.493,982.601,121.696z M898.377,85.865c0.038-0.199,0.098-0.38,0.149-0.568
				c5.7-6.252,15.278-2.596,22.012,0.64c2.22,1.067,4.404,2.226,6.564,3.434c1.794,2.446,2.644,5.467,0.374,8.083
				c-3.682,4.249-10.344,3.05-15.174,1.889c-4.016-0.962-12.192-2.747-14.055-7.157C897.151,89.593,897.367,87.491,898.377,85.865z
				 M811.479,77.156c0.209-1.839,0.992-3.327,2.116-4.484c0.019-0.023,0.04-0.042,0.058-0.065c0.094-0.094,0.188-0.188,0.288-0.279
				c0.433-0.422,0.906-0.768,1.415-1.048c0.237-0.144,0.488-0.274,0.742-0.398c4.594-0.341,9.208-0.368,13.786-0.059
				c0.702,0.334,1.372,0.716,1.986,1.148c1.22,0.862,2.265,1.938,3.045,3.11c0.327,0.409,0.629,0.832,0.881,1.273
				c0.257,0.447,0.458,0.898,0.626,1.352c2.5,3.238,1.834,7.375-1.992,9.551c-1.18,0.668-2.377,1.06-3.589,1.237
				c-0.713,0.199-1.472,0.308-2.265,0.319c-2.221,0.706-4.801,0.742-6.83,0.306C816.69,88.028,810.839,82.83,811.479,77.156z
				 M795.969,80.193c5.869-0.692,11.853,0.193,15.443,5.048c5.772,7.806,0.361,15.098-8.479,15.633
				c-7.863,0.475-18.239-2.477-22.09-9.915C776.631,82.838,789.824,77.784,795.969,80.193z M762.936,114.933
				c-0.646-5.312,3.658-10.434,8.048-12.801c3.522-1.895,6.7-1.837,10.122-1.492c0.479-0.279,1.063-0.428,1.758-0.366
				c8.107,0.725,21.918,0.383,26.412,8.827c6.512,12.236-10.707,16.106-19.102,17.117
				C780.768,127.354,764.475,127.586,762.936,114.933z M805.729,154.659c-4.785-1.19-10.399-2.696-13.799-6.541
				c-3.395-3.836-3.648-9.757-0.51-13.919c3.827-5.09,9.906-6.874,16.041-7.035c0.914-0.024,1.57,0.296,1.993,0.795
				c7.415-0.479,16.327-0.08,19.302,5.388c0.178,0.151,0.356,0.292,0.527,0.451c3.68,3.416,4.766,9.27,2.703,13.818
				c-2.041,4.487-7.193,6.934-11.787,7.834C815.17,156.432,810.639,155.88,805.729,154.659z M870.878,177.157
				c-7.32,11.169-23.005,6.364-32.35,0.912c-4.47-2.605-11.22-7.068-10.446-13.209c0.762-6.058,6.311-9.135,11.623-10.851
				c1.377-0.444,2.585,0.061,3.361,0.927c6.34-0.158,13.33,2.188,18.271,4.752C867.395,162.835,875.896,169.494,870.878,177.157z
				 M880.863,81.095c0.023,0.771-0.139,1.589-0.557,2.463c-0.6,1.259-1.691,2.132-3.066,2.728c-0.477,0.994-1.441,1.747-2.859,1.662
				c-5.629-0.338-21.199,0.87-23.974-6.238c-0.003-0.074,0-0.141-0.022-0.221c-1.316-4.293-0.158-6.932,2.391-8.406l0.492-0.166
				c0.18-0.057,0.295-0.162,0.389-0.279c6.063-2.62,17.95-0.16,25.199,2.657c0.524,0.478,0.994,0.994,1.375,1.569
				C881.217,78.366,881.314,79.809,880.863,81.095z M918.638,204.39c-9.872-0.756-20.592-7.263-27.412-14.159
				c-2.784-2.814-5.985-6.855-5.483-11.118c0.529-4.465,4.068-7.025,8.022-8.512c1.243-0.47,2.343-0.115,3.11,0.592
				c4.396-1.288,9.109-1.266,13.814-0.259c6.364,1.358,14.965,4.9,18.775,10.531C935.65,190.604,931.518,205.38,918.638,204.39z
				 M985.16,202.893c-2.129,4.542-8.141,5.183-12.518,4.317c-10.734-2.119-22.004-8.136-29.598-16.038
				c-2.924-3.045-6.098-7.326-5.562-11.831c0.564-4.781,4.216-7.68,8.338-9.599c0.543-0.252,1.053-0.332,1.525-0.286
				c6.517-3.104,16.231,3.001,21.148,6.476c3.452,2.441,8.846,6.396,11.922,10.978c0.255,0.304,0.5,0.612,0.738,0.928
				C984.192,191.884,987.559,197.779,985.16,202.893z M1010.527,186.661c-3.904,2.497-9.349,2.366-13.654,1.198
				c-6.02-1.633-11.637-4.962-16.416-8.94c-3.263-2.716-7.799-6.072-9.32-10.217c-2.469-6.731,0.168-15.258,8.482-12.64
				c4.289-0.231,9.801,3.139,12.605,4.871c0.476,0.293,0.977,0.609,1.486,0.936c6.406,3.558,11.959,8.677,17.672,13.635
				C1015.24,178.85,1014.854,183.895,1010.527,186.661z"/>
		</g>
		<path fill="#C9C8C7" d="M954.374,134.958c-2.274-10.062-11.433-17.078-19.774-22.141c-7.865-4.774-16.876-8.464-25.971-10.438
			c-3.082-1.278-6.232-2.427-9.398-3.531c-7.449-2.599-15.088-4.636-22.862-5.996c-3.315-0.58-6.89-1.073-10.535-1.323
			c-9.06-1.242-18.537-0.141-26.207,4.404c-0.651,0.095-1.323,0.38-1.989,0.921c-0.934,0.757-1.812,1.546-2.647,2.364
			c-0.202,0.113-0.4,0.22-0.597,0.338c-1.021,0.605-1.609,1.405-1.887,2.262c-0.471,0.538-0.939,1.086-1.379,1.67
			c-0.131,0.177-0.169,0.363-0.168,0.544c-3.909,5.833-5.139,12.686-1.646,20.025c3.698,7.776,10.929,13.602,18.401,18.221
			c9.303,7.436,20.814,12.503,31.771,16.349c15.262,5.357,32.73,9.328,48.787,5.334c2.796-0.694,5.701-1.814,8.484-3.28
			c1.378-0.37,2.74-0.788,4.064-1.282C950.211,155.898,956.6,144.793,954.374,134.958z"/>
		<path fill="#EDDAB9" d="M1021.367,135.266c-0.426-0.229-0.802-0.06-1.019,0.236c-13.817,2.034-27.28-1.574-41.038-2.257
			c-0.141-0.007-0.262,0.014-0.364,0.058c-0.663,0.104-1.161,0.943-0.487,1.433c12.649,9.216,30.492,4.333,42.906,13.621
			c0.207,0.156,0.424,0.197,0.631,0.173c2.701,3.149,4.729,6.821,7.163,10.172c0.517,0.711,1.53,0.267,1.602-0.396
			c0.32-0.039,0.616-0.243,0.714-0.651C1033.582,148.514,1029.416,139.653,1021.367,135.266z"/>
		<path fill="#EAC34A" d="M1030.697,144.646c0.201-0.068,0.357-0.265,0.27-0.525c-1.676-4.949-5.822-8.199-10.904-9.153
			c-0.25-0.048-0.412,0.104-0.471,0.288c-7.244,1.156-14.236,1.349-21.514,0.357c-6.854-0.932-13.615-2.431-20.529-2.9
			c-0.023-0.019-0.051-0.033-0.071-0.042c-0.12-0.272-0.575-0.392-0.789-0.051c-0.386,0.614-1.11,0.958-1.628,1.457
			c-0.562,0.545-0.779,1.355-0.985,2.084c-0.036,0.132,0.024,0.316,0.132,0.401c4.189,3.268,9.697,4.654,14.757,5.909
			c6.468,1.602,13.038,2.771,19.464,4.546c5.377,1.489,11.378,3.418,15.24,7.68c4.344,4.796,2.572,11.376-0.068,16.537
			c-0.022,0.046-0.05,0.088-0.074,0.134c-0.029,0.216-0.081,0.429-0.162,0.646c-0.193,0.5-0.534,0.937-0.957,1.274
			c-1.083,1.657-2.383,3.116-3.883,4.308c0.336,1.287,0.493,2.616,0.488,3.957c4.883-3.95,8.734-8.897,10.944-14.972
			C1032.497,159.59,1032.59,151.807,1030.697,144.646z M1027.669,150.463c-3.786-4.336-9.515-6.239-14.947-7.546
			c-6.401-1.544-12.979-2.213-19.438-3.443c-5.066-0.961-10.873-2.211-14.783-5.836c6.791,0.549,13.471,2.01,20.219,2.928
			c7.066,0.96,13.967,0.664,20.996-0.464c0.172-0.026,0.279-0.133,0.332-0.259c4.348,0.863,7.939,3.482,9.699,7.506
			c-0.137,0.096-0.227,0.261-0.162,0.469c1.373,4.653,1.823,9.487,1.353,14.256C1030.648,155.341,1029.633,152.711,1027.669,150.463
			z"/>
		<path fill="#544449" d="M924.828,87.535c-5.816-2.276-11.305-5.518-17.713-5.568c-3.349-0.024-9.783,2.274-9.977,6.418
			c-0.168,3.689,3.211,6.168,6.056,7.857c5.683,3.363,13.165,3.641,19.579,3.856c0.035,0,0.062-0.016,0.098-0.019l0,0
			c1.073,0.276,1.412-1.408,0.344-1.679c-2.945-0.759-7.953-2.474-8.612-6.024c-0.759-4.087,7.157-3.555,9.239-3.345
			c0.039,0.005,0.069-0.009,0.109-0.009c0.033,0.014,0.066,0.029,0.1,0.042C925.07,89.463,925.857,87.937,924.828,87.535z"/>
		<path fill="#544449" d="M879.289,84.289c-6.092,7.926-20.461-5.406-13.596-9.856c0.715-0.463,0.328-1.414-0.313-1.561
			c-0.059-0.049-0.106-0.102-0.19-0.141c-5.026-2.303-13.865-0.265-14.331,6.328c-0.231,3.269,2.63,5.483,5.229,6.831
			c5.404,2.796,12.254,2.968,18.201,2.729c0.18-0.006,0.314-0.068,0.43-0.149c2.174-0.062,4.247-0.95,5.84-3.026
			C881.227,84.571,879.961,83.41,879.289,84.289z"/>
		<path fill="#544449" d="M835.143,83.473c-5.751,0.966-13.889-8.89-5.796-10.877c0.637-0.156,0.698-0.784,0.431-1.22
			c0-0.365-0.188-0.738-0.635-0.864c-3.996-1.142-9.311-2.309-13.227-0.214c-3.76,2.011-5.525,6.013-4.486,10.142
			c1.045,4.148,5.766,6.57,9.428,7.82c4.832,1.652,10.262,0.844,14.116-2.491c0.202-0.18,0.28-0.385,0.269-0.579
			c0-0.002,0.002,0,0.002-0.002C836.326,85.006,836.238,83.291,835.143,83.473z"/>
		<path fill="#544449" d="M808.807,98.15c-0.193-0.187-0.467-0.283-0.803-0.154c-1.376,0.523-2.746,0.885-4.107,1.113
			c-7.906-1.281-13.521-15.598-2.548-17.139c0.939-0.133,0.993-1.421,0.29-1.676c-0.104-0.155-0.262-0.286-0.491-0.345
			c-7.104-1.782-19.755-0.795-19.671,9.15c0.036,3.929,3.379,6.883,6.474,8.722c4.817,2.862,10.519,3.892,15.956,3.028
			c1.817,0.24,3.753-0.093,5.686-1.211C810.511,99.111,809.705,97.806,808.807,98.15z"/>
		<path fill="#544449" d="M809.623,108.949c-0.281-1.075-1.911-0.535-1.633,0.533c0.809,3.081,1.405,5.911-0.727,8.591
			c-1.271,1.6-3.198,2.605-5.166,3.166c-0.128-0.023-0.268-0.023-0.423,0.033c-0.255,0.089-0.515,0.171-0.772,0.254
			c-0.099,0.02-0.203,0.045-0.305,0.064c-4.113,0.713-8.432-0.684-12.052-2.542c-6.929-3.563-12.883-12.068-3.624-16.834
			c0.415-0.213,0.479-0.589,0.352-0.918c0.094-0.424-0.088-0.892-0.643-0.964c-8.812-1.176-20.947,3.21-20.24,13.957
			c0.293,4.477,4,7.58,7.781,9.316c8.012,3.675,17.922,2.449,26.176,0.479c0.17-0.041,0.293-0.121,0.386-0.217
			c0.956-0.196,1.893-0.45,2.819-0.75c0.779-0.154,1.547-0.36,2.299-0.636C810.178,120.166,811.149,114.787,809.623,108.949z"/>
		<path fill="#544449" d="M832.689,144.096c0.296-1.516,0.166-3.146-0.539-4.791c-0.388-0.902-1.72-0.577-1.697,0.227
			c-0.053,0.116-0.093,0.251-0.086,0.413c0.115,2.049,0.221,4.187-0.227,6.167c-1.714,2.494-5.237,3.927-8.416,4.117
			c-4.204,0.254-8.477-1.252-12.102-3.255c-3.261-1.804-6.494-4.61-7.518-8.315c-1.383-4.991,4.445-8.122,8.15-9.641
			c0.041-0.015,0.066-0.049,0.104-0.07c0.037,0.003,0.072,0.003,0.109,0.005c1.104,0.054,0.991-1.658-0.104-1.714
			c-6.911-0.349-15.664,0.981-19.973,7.043c-4.396,6.191,0.185,14.329,5.619,17.967c6.903,4.618,16.838,4.773,24.654,3.018
			c3.375-0.758,7.01-2.194,9.335-4.859c0.165-0.032,0.326-0.105,0.463-0.281C831.916,148.275,832.574,146.237,832.689,144.096z"/>
		<path fill="#544449" d="M869.488,167.639c-0.166-0.25-0.393-0.355-0.627-0.368c0.003-0.062,0.01-0.12,0.013-0.184
			c0.054-1.104-1.661-0.995-1.714,0.101c-0.576,12.117-13.276,13.086-21.533,8.084c-7.427-4.496-10.826-13.616-2.889-19.425
			c0.09-0.066,0.158-0.141,0.211-0.221c0.878-0.173,0.729-1.647-0.298-1.679c-6.664-0.221-13.084,3.491-14.011,10.503
			c-0.934,7.053,6.219,12.293,11.512,15.369c6.701,3.896,15.172,5.98,22.75,3.803C870.459,181.455,873.947,174.259,869.488,167.639z
			"/>
		<path fill="#544449" d="M931.4,186.427c-0.01-2.085-0.909-3.884-2.629-5.12c-0.451-0.326-0.974-0.156-1.26,0.173
			c-0.483,0.164-0.848,0.707-0.471,1.247c3.219,4.608-0.396,12.015-5.709,12.959c-4.486,0.801-9.27-1.426-13.029-3.628
			c-5.514-3.229-18.449-14.698-8.82-20.446c0.83-0.495,0.224-1.659-0.576-1.564c-0.15-0.199-0.373-0.342-0.688-0.334
			c-7.133,0.172-12.631,3.83-11.416,11.532c1.164,7.384,6.909,12.572,12.82,16.446c6.791,4.452,15.687,9.057,24.042,7.225
			C932.131,203.062,933.754,193.62,931.4,186.427z"/>
		<path fill="#544449" d="M979.754,186.959c0.038-0.242-0.018-0.5-0.247-0.718c-1.118-1.083-2.23-2.175-3.337-3.272
			c-0.242-0.236-2.26-1.86-2.927-2.525c-0.123-0.233-0.237-0.463-0.35-0.684c-0.413-0.833-1.579-0.259-1.579,0.515
			c0,0.275,0.131,0.525,0.305,0.75c2.414,4.699,7.717,11.557,4.945,17.101c-1.926,3.854-8.205,2.888-11.519,2.21
			c-9.509-1.953-21.595-8.445-25.583-17.802c0-0.035-0.008-0.069-0.01-0.105c-0.049-1.079-1.672-1.004-1.699,0.03
			c-0.043,0.147-0.049,0.311,0.027,0.501c0,0.001,0.003,0.003,0.003,0.005c0.521,6.093,5.714,11.038,10.193,14.632
			c6.097,4.896,13.46,8.606,21.097,10.316c5.365,1.204,12.072,1.115,15.581-3.789C989.193,197.783,984.416,191.775,979.754,186.959z
			"/>
		<path fill="#544449" d="M1010.688,175.269c-4.278-6.075-11.514-9.729-17.949-13.018c-0.33-0.251-0.632-0.482-0.895-0.681
			c-0.876-0.667-2.035,0.599-1.156,1.268c0.288,0.22,0.625,0.475,1.001,0.759c0.049,0.042,0.089,0.091,0.153,0.123
			c0.006,0.005,0.015,0.008,0.023,0.012c5.521,4.193,18.725,14.572,11.81,20.407c-3.222,2.717-9.558,0.144-12.819-1.17
			c-3.281-1.324-6.635-3.087-9.311-5.416c-0.396-0.345-0.861-0.233-1.154,0.05c-0.621,0.142-1.066,0.938-0.431,1.433
			c6.968,5.443,24.159,14.74,32.223,6.558C1015.061,182.671,1012.551,177.917,1010.688,175.269z"/>
		<path fill="#544449" d="M1026.221,202.207c0.469-3.75,0.971-7.553,1.064-11.334c0.051-2.12,0.773-5.42-0.545-7.255
			c-0.054,0.143-0.102,0.29-0.135,0.455c-1.863,10.207-3.313,20.11-7.787,29.597c-3.764,7.986-9.545,14.662-16.83,19.629
			c-8.969,6.117-19.833,9.014-30.347,11.128c-12.72,2.559-25.853,3.142-38.794,2.802c-26.617-0.696-52.812-6.886-77.85-15.682
			c-23.992-8.431-48.05-19.042-69.299-33.122c-13.252-8.786-25.203-19.516-35.581-31.547c-10.726-12.434-22.13-27.613-19.093-44.991
			c0.285-1.634-0.835-2.708-2.1-2.968c-0.936,7.05-1.642,14.11-1.545,21.226c4.609,14.949,16.493,28.168,27.029,39.014
			c16.701,17.202,36.902,29.845,58.354,40.249c46.017,22.322,97.818,37.884,149.387,31.699c17.976-2.158,36.92-6.92,50.357-19.737
			c5.562-5.296,9.309-11.495,12.02-18.168C1025.166,209.546,1025.76,205.886,1026.221,202.207z"/>
	</g>
</g>
</svg>
