<?xml version="1.0" encoding="utf-8"?>
<!-- Generator: Adobe Illustrator 16.0.0, SVG Export Plug-In . SVG Version: 6.00 Build 0)  -->
<!DOCTYPE svg PUBLIC "-//W3C//DTD SVG 1.1//EN" "http://www.w3.org/Graphics/SVG/1.1/DTD/svg11.dtd">
<svg version="1.1" xmlns="http://www.w3.org/2000/svg" xmlns:xlink="http://www.w3.org/1999/xlink" x="0px" y="0px" width="287px"
	 height="124.5px" viewBox="0 0 287 124.5" enable-background="new 0 0 287 124.5" xml:space="preserve">
<g id="grid" display="none">
</g>
<g id="Layer_1">
	<g>
		<path fill="#F4F0EA" d="M145.925,83.281c-0.061-0.079-0.178-0.1-0.243-0.014c-0.404,0.044-0.812-0.011-1.194-0.173
			c-0.005-0.016-0.01-0.035-0.02-0.05c-0.254-0.431-0.535-0.843-0.854-1.214c-0.039-0.045-0.087-0.059-0.132-0.055
			c-0.071-0.023-0.151,0.001-0.186,0.105c-0.188,0.571-0.371,1.145-0.56,1.717c-0.428,0.108-0.866,0.166-1.301,0.17
			c-0.123,0.002-0.154,0.133-0.118,0.241c-0.033,0.057-0.039,0.133,0.016,0.202c0.296,0.376,0.652,0.68,1.036,0.926
			c0.121,0.669,0.238,1.338,0.309,2.013l0.003,0.007c-0.038,0.142,0.119,0.314,0.26,0.205c0.414-0.323,0.78-0.723,1.103-1.164
			c0.495,0.236,1.04,0.356,1.576,0.364c0.146,0.005,0.207-0.18,0.157-0.289c0.027-0.058,0.032-0.131-0.013-0.197
			c-0.21-0.329-0.4-0.67-0.58-1.022c0.17-0.261,0.324-0.538,0.461-0.826c0.087-0.145,0.166-0.289,0.226-0.438
			c0.018-0.043,0.016-0.083,0.004-0.118c0.008-0.019,0.015-0.039,0.022-0.058C146.025,83.56,146.023,83.356,145.925,83.281z"/>
		<path fill="#F4F0EA" d="M17.028,43.433c-0.178-0.23-0.518-0.29-0.709-0.042c-1.176,0.128-2.361-0.033-3.479-0.501
			c-0.012-0.046-0.027-0.103-0.056-0.146c-0.737-1.254-1.559-2.453-2.483-3.533c-0.112-0.134-0.253-0.175-0.384-0.163
			c-0.21-0.065-0.442,0.008-0.54,0.307c-0.551,1.659-1.08,3.331-1.631,4.998c-1.243,0.312-2.52,0.483-3.786,0.496
			c-0.356,0.006-0.447,0.388-0.342,0.698c-0.099,0.168-0.115,0.388,0.044,0.588c0.863,1.098,1.898,1.979,3.018,2.697
			c0.353,1.945,0.693,3.896,0.896,5.859l0.009,0.021c-0.111,0.415,0.348,0.915,0.756,0.598c1.206-0.942,2.272-2.106,3.212-3.39
			c1.439,0.688,3.025,1.039,4.586,1.06c0.43,0.014,0.604-0.523,0.46-0.84c0.079-0.171,0.093-0.381-0.038-0.577
			c-0.611-0.957-1.166-1.95-1.689-2.974c0.496-0.758,0.943-1.566,1.342-2.405c0.255-0.42,0.483-0.84,0.658-1.274
			c0.051-0.126,0.045-0.245,0.012-0.347c0.021-0.053,0.041-0.111,0.064-0.168C17.319,44.241,17.314,43.65,17.028,43.433z"/>
		<g>
			<path fill="#F4F0EA" d="M68.694,113.907c-0.105-0.361-0.004-0.743,0.421-0.919l0.749-1.413c-0.236-0.248-0.471-0.496-0.711-0.736
				c-1.082-0.222-0.901-1.929,0.198-1.712c0.014,0,0.031,0,0.05,0.006c0.158-0.025,0.314,0,0.473,0.07
				c0.244,0.039,0.488,0.089,0.735,0.12c0.251-1.091,0.707-2.145,1.519-2.891c0.188-0.173,0.394-0.222,0.584-0.209
				c0.431-0.078,0.926,0.121,1.021,0.69c0.17,0.971,0.424,1.922,0.82,2.816c0.607,0.049,1.223,0.098,1.83,0.162
				c0.799,0.071,0.916,0.982,0.512,1.442c-0.062,0.184-0.183,0.353-0.396,0.48c-0.617,0.336-1.255,0.622-1.891,0.912
				c0.36,0.82,0.653,1.661,0.792,2.505c0.092,0.552-0.291,0.895-0.72,0.965c-0.323,0.176-0.732,0.168-1.02-0.223
				c-0.339-0.032-0.656-0.248-0.716-0.697c-0.004-0.028-0.019-0.07-0.022-0.109c-0.53-0.392-1.024-0.816-1.495-1.279
				c-0.088,0.024-0.172,0.048-0.261,0.073c-0.263,0.141-0.548,0.254-0.827,0.376C69.85,115.158,68.546,114.719,68.694,113.907z"/>
		</g>
		<path fill="#F4F0EA" d="M158.682,32.823c0.023,0.066,0.059,0.133,0.115,0.2c0.877,0.985,2.025,1.835,3.253,2.405
			c-0.327,1.24-0.587,2.497-0.894,3.731c-0.036,0.15-0.011,0.268,0.033,0.363c-0.033,0.095-0.046,0.193-0.036,0.311
			c0.026,0.183,0.055,0.353,0.189,0.503c0.177,0.213,0.493,0.361,0.771,0.22c0.095-0.043,0.147-0.109,0.209-0.171
			c0.217,0.01,0.394-0.081,0.563-0.235c0.079-0.082,0.128-0.177,0.173-0.272c0.157,0.026,0.315,0.02,0.475-0.091
			c0.269-0.184,0.551-0.354,0.83-0.53c0.171-0.006,0.331-0.069,0.449-0.252c0.02-0.029,0.041-0.052,0.062-0.088
			c0.602-0.392,1.189-0.792,1.729-1.256c0.781,0.694,1.777,1.352,2.732,1.709c0.307,0.112,0.576-0.01,0.742-0.204
			c0.233-0.101,0.403-0.324,0.341-0.647c-0.174-0.976-0.437-1.991-0.767-2.965c-0.013-0.534-0.045-1.074-0.059-1.612
			c0.514-0.482,1.041-0.959,1.555-1.434c0.088-0.088,0.133-0.177,0.178-0.272c0.261-0.223,0.53-0.438,0.774-0.674
			c0.253-0.252,0.213-0.523,0.052-0.739c-0.104-0.223-0.319-0.386-0.647-0.335c-1.193,0.178-2.45,0.178-3.644,0
			c-0.125-0.019-0.237,0-0.334,0.047c-0.133-0.216-0.25-0.444-0.36-0.674c-0.018-0.102-0.041-0.189-0.057-0.288
			c-0.046-0.184-0.146-0.317-0.274-0.406c-0.197-0.412-0.402-0.834-0.604-1.25c-0.064-0.147-0.168-0.236-0.287-0.294
			c-0.167-0.451-0.945-0.622-1.264-0.059c-0.693,1.25-1.348,2.579-1.877,3.923c-1.289,0.141-2.59,0.158-3.884,0.164
			C158.229,31.649,158.214,32.489,158.682,32.823z"/>
		<path fill="#F4F0EA" d="M254.302,7.241c0.012,0.032,0.029,0.066,0.057,0.098c0.428,0.48,0.989,0.896,1.589,1.175
			c-0.159,0.607-0.286,1.221-0.437,1.823c-0.018,0.074-0.005,0.132,0.016,0.178c-0.016,0.046-0.021,0.094-0.018,0.151
			c0.014,0.089,0.027,0.173,0.094,0.247c0.086,0.104,0.24,0.176,0.377,0.107c0.047-0.021,0.072-0.054,0.102-0.083
			c0.105,0.006,0.192-0.04,0.275-0.116c0.039-0.04,0.062-0.086,0.086-0.132c0.076,0.012,0.153,0.01,0.231-0.045
			c0.13-0.09,0.269-0.173,0.404-0.259c0.084-0.004,0.163-0.033,0.221-0.124c0.009-0.014,0.02-0.025,0.03-0.042
			c0.294-0.192,0.581-0.387,0.844-0.614c0.382,0.338,0.869,0.661,1.336,0.835c0.149,0.053,0.281-0.005,0.362-0.1
			c0.114-0.05,0.197-0.159,0.167-0.317c-0.085-0.477-0.213-0.973-0.374-1.449c-0.007-0.261-0.022-0.524-0.029-0.788
			c0.251-0.235,0.509-0.468,0.76-0.701c0.043-0.043,0.065-0.086,0.087-0.133c0.127-0.109,0.26-0.214,0.379-0.33
			c0.123-0.124,0.104-0.255,0.024-0.36c-0.051-0.11-0.156-0.19-0.316-0.165c-0.583,0.087-1.197,0.087-1.78,0
			c-0.061-0.01-0.115,0-0.164,0.023c-0.063-0.106-0.121-0.217-0.175-0.33c-0.009-0.048-0.021-0.092-0.028-0.141
			c-0.022-0.089-0.07-0.155-0.135-0.198c-0.095-0.201-0.195-0.408-0.294-0.61c-0.031-0.073-0.082-0.115-0.14-0.144
			c-0.082-0.221-0.463-0.304-0.618-0.029c-0.339,0.611-0.659,1.26-0.917,1.917c-0.631,0.069-1.266,0.076-1.898,0.081
			C254.081,6.668,254.073,7.078,254.302,7.241z"/>
		<path fill="#F4F0EA" d="M231.567,100.22c-0.256-0.285-0.732-0.358-1.002-0.052c-1.668,0.159-3.338-0.048-4.921-0.617
			c-0.022-0.058-0.037-0.125-0.077-0.184c-1.042-1.543-2.203-3.02-3.515-4.353c-0.159-0.159-0.355-0.208-0.544-0.199
			c-0.29-0.078-0.619,0.018-0.76,0.372c-0.782,2.053-1.535,4.113-2.311,6.166c-1.758,0.385-3.566,0.591-5.347,0.609
			c-0.513,0-0.646,0.478-0.494,0.853c-0.137,0.214-0.155,0.491,0.063,0.731c1.218,1.351,2.691,2.437,4.268,3.33
			c0.506,2.377,0.988,4.785,1.277,7.207c0,0,0.007,0.014,0.011,0.029c-0.166,0.502,0.488,1.111,1.067,0.728
			c1.701-1.159,3.215-2.596,4.537-4.168c2.045,0.848,4.281,1.272,6.493,1.299c0.603,0.015,0.849-0.642,0.647-1.042
			c0.118-0.203,0.125-0.461-0.053-0.708c-0.867-1.17-1.654-2.396-2.393-3.662c0.702-0.927,1.337-1.92,1.902-2.954
			c0.351-0.51,0.676-1.033,0.93-1.57c0.074-0.166,0.056-0.297,0.019-0.424c0.026-0.075,0.056-0.14,0.086-0.208
			C231.987,101.206,231.973,100.485,231.567,100.22z"/>
		<path fill="#F4F0EA" d="M283.477,83.225c-0.077-0.086-0.223-0.108-0.305-0.015c-0.505,0.047-1.011-0.015-1.49-0.188
			c-0.007-0.018-0.011-0.038-0.023-0.057c-0.316-0.467-0.667-0.915-1.064-1.318c-0.048-0.048-0.107-0.063-0.165-0.06
			c-0.088-0.024-0.188,0.005-0.23,0.113c-0.236,0.622-0.465,1.246-0.7,1.867c-0.532,0.117-1.081,0.179-1.619,0.185
			c-0.155,0-0.195,0.144-0.15,0.258c-0.041,0.065-0.047,0.149,0.019,0.222c0.37,0.41,0.816,0.738,1.294,1.009
			c0.153,0.72,0.3,1.451,0.387,2.184c0,0,0.003,0.004,0.003,0.008c-0.05,0.153,0.148,0.338,0.324,0.221
			c0.516-0.352,0.974-0.787,1.374-1.263c0.62,0.257,1.297,0.385,1.968,0.394c0.182,0.004,0.257-0.194,0.195-0.315
			c0.036-0.061,0.039-0.139-0.016-0.214c-0.263-0.355-0.501-0.726-0.725-1.11c0.213-0.281,0.404-0.582,0.576-0.894
			c0.106-0.155,0.204-0.314,0.281-0.476c0.023-0.051,0.018-0.091,0.007-0.128c0.008-0.023,0.017-0.043,0.025-0.064
			C283.604,83.524,283.599,83.306,283.477,83.225z"/>
	</g>
</g>
</svg>
