<?xml version="1.0" encoding="utf-8"?>
<!-- Generator: Adobe Illustrator 16.0.0, SVG Export Plug-In . SVG Version: 6.00 Build 0)  -->
<!DOCTYPE svg PUBLIC "-//W3C//DTD SVG 1.1//EN" "http://www.w3.org/Graphics/SVG/1.1/DTD/svg11.dtd">
<svg version="1.1" id="Layer_1" xmlns="http://www.w3.org/2000/svg" xmlns:xlink="http://www.w3.org/1999/xlink" x="0px" y="0px"
	 width="134.607px" height="150.588px" viewBox="0 0 134.607 150.588" enable-background="new 0 0 134.607 150.588"
	 xml:space="preserve">
<path fill="#298A95" d="M37.766-4.027c-3.188,6.186-7.621,11.776-12.729,16.5c-6.176,1.934-13.166,4.08-17.849,8.793
	c-3.048,3.068-3.925,9.975,0.046,12.758c3.685,2.574,9.007,0.473,12.055-2.223c5.162-4.574,6.531-11.037,7.482-17.588
	c0.004-0.043-0.012-0.078-0.004-0.118c4.834-4.489,9.049-9.798,12.256-15.577c1.054,5.172,2.195,10.331,3.415,15.463
	c-0.151,0.24-0.192,0.548-0.033,0.906c0.169,0.393,0.362,0.77,0.539,1.16c1.187,4.867,2.454,9.711,3.84,14.512
	c-0.122,0.145-0.231,0.312-0.269,0.563c-1.307,8.712-4.426,16.888-9.744,23.958c-0.038,0.051-0.047,0.103-0.076,0.158
	c-7.494,6.271-15.263,10.587-20.314,19.383c-3.773,6.568-1.314,13.601,6.445,15.086c13.47,2.569,18.725-23.882,15.861-33.153
	c0.07-0.112,0.123-0.222,0.143-0.333c4.662-6.336,7.74-13.422,9.353-21.044c0.694,2.286,1.386,4.585,2.13,6.854
	c3.844,11.621,9.389,22.965,16.211,33.512c-0.252,0.14-0.446,0.383-0.514,0.767c-1.814,10.429-6.379,20.153-14.721,26.92
	c-6.438-0.274-12.576,2.648-15.562,8.532c-1.911,3.765-2.741,9.217,0.257,12.627c3.516,3.996,10.186,0.072,12.779-2.938
	c3.41-3.958,6.113-11.185,4.295-16.372c0.117-0.158,0.219-0.336,0.264-0.519c5.639-4.821,9.622-10.882,12.198-17.636
	c-0.757,8.15-1.212,16.379-0.201,24.434c-0.14,0.096-0.278,0.207-0.378,0.391c-3.803,6.74-5.9,12.764-4.478,20.471
	c0.767,4.18,2.421,10.828,7.608,11.307c5.621,0.519,9.166-6.467,9.495-11.072c0.518-7.322-4.682-15.44-9.444-20.562
	c-0.127-0.137-0.266-0.221-0.408-0.271c-1.414-10.816-0.144-21.971,0.98-32.805c6.75,9.887,14.611,18.994,23.234,26.863
	c-0.008,0.088-0.025,0.174-0.008,0.271c1.569,8.626,5.305,17.821,13.209,22.348c4.059,2.33,11.877,4.105,14.686-1.109
	c8.147-15.127-15.482-22.508-26.085-23.055c-8.273-7.525-15.756-16.146-22.214-25.486c5.52,4.004,12.21,6.56,18.613,8.6
	c0.081,0.109,0.17,0.217,0.296,0.304c5.255,3.64,10.778,6.53,17.368,5.725c3.84-0.475,8.99-3.835,8.278-8.243
	c-0.657-4.049-6.156-5.227-9.504-5.254c-5.292-0.041-10.968,2.443-15.386,5.332c-9.047-2.847-19.174-6.701-24.787-14.771
	c-0.135-0.191-0.298-0.312-0.48-0.394c-5.439-9.105-9.953-18.744-13.338-28.6c-1.844-5.373-3.461-10.852-4.98-16.369
	c4.383,7.299,9.936,13.787,17.052,18.625c0,0.013,0,0.02,0.009,0.029c2.223,6.405,6.687,11.686,12.438,15.281
	c4.754,2.974,11.289,2.117,12.981-3.967c2.909-10.461-16.417-13.158-23.158-12.737c-0.033,0-0.063,0.02-0.093,0.026
	c-10.088-6.48-17.061-16.564-21.865-27.393c-1.549-6.399-2.977-12.847-4.24-19.332c4.131,5.355,10.535,8.387,17.083,10.206
	c2.88,4.796,7.221,8.466,12.96,8.905c3.957,0.303,8.391-1.557,10.551-4.926c2.248-3.5-1.023-6.604-4.004-7.955
	c-5.962-2.701-13.352-0.514-19.128,1.623C50.865,1.311,43.828-2.256,40.405-9.402c-0.177-0.369-0.45-0.541-0.745-0.576
	c-1.49-8.072-2.766-16.146-3.979-24.184c2.863,2.745,6.328,4.831,10.029,6.215c0,5.133,3.014,8.476,7.499,10.627
	c3.263,1.562,8.13,2.428,10.69-0.791c2.586-3.242,1.07-9.1-2.342-11.137c-4.143-2.471-9.608-1.955-14.033-0.557
	c-0.012,0.006-0.021,0.018-0.033,0.021c-4.607-1.482-8.855-4.231-12.004-7.916c-0.119-0.143-0.254-0.236-0.385-0.301
	c-0.234-1.594-0.491-3.204-0.724-4.794c-0.214-1.491-2.581-1.423-2.362,0.089c0.497,3.454,1.016,6.913,1.549,10.379
	c-0.311,0.046-0.605,0.208-0.82,0.537c-2.501,3.846-5.334,7.456-8.766,10.502c-3.845-0.126-8.117,2.055-10.707,4.796
	c-1.604,1.697-3.521,4.847-2.253,7.224c1.521,2.848,5.864,1.682,8.104,0.564c4.139-2.057,5.398-6.336,6.265-10.555
	c0.01-0.039-0.004-0.071,0.005-0.11c0.005-0.007,0.008-0.015,0.014-0.024c3.359-2.922,6.13-6.412,8.613-10.092
	c1.314,8.307,2.738,16.627,4.371,24.908C38.148-4.49,37.921-4.326,37.766-4.027z"/>
</svg>
