<?xml version="1.0" encoding="utf-8"?>
<!-- Generator: Adobe Illustrator 16.0.0, SVG Export Plug-In . SVG Version: 6.00 Build 0)  -->
<!DOCTYPE svg PUBLIC "-//W3C//DTD SVG 1.1//EN" "http://www.w3.org/Graphics/SVG/1.1/DTD/svg11.dtd">
<svg version="1.1" xmlns="http://www.w3.org/2000/svg" xmlns:xlink="http://www.w3.org/1999/xlink" x="0px" y="0px" width="1280px"
	 height="442.855px" viewBox="0 0 1280 442.855" enable-background="new 0 0 1280 442.855" xml:space="preserve">
<g id="grid" display="none">
</g>
<g id="Layer_1">
	<path fill="#F5F4ED" d="M1357.721,315.598c-3.064,3.025-6.193,5.987-9.385,8.878c-0.068-18.878-0.826-37.757-2.074-56.553
		c-3.898-58.73-12.874-117.038-23.438-174.898c-1.875-10.272-3.815-20.533-5.784-30.787c2.457-2.958,4.854-5.971,7.153-9.069
		c1.924-2.594-1.286-3.503-4.317-2.524c-118.076,38.104-216.27,65.015-311.555,61.264c-112.65-4.434-178.401-0.963-286.868-29.828
		C677.184,70.3,633.09,57.706,588.487,47.229C529.698,33.417,470.483,21.16,410.709,12.445C344.916,2.853,278.189-2.431,211.703,1.1
		C149.046,4.426,86.073,16.224,29.001,43.029C18.341,48.036,7.969,53.638-2.076,59.775c1.077-7.412,2.264-14.814,3.587-22.204
		c0.564-3.15-4.254-4.5-4.821-1.329c-1.605,8.97-3.004,17.956-4.254,26.956c-7.396,4.724-14.604,9.739-21.596,15.048
		c-2.532,1.922-0.046,6.268,2.523,4.317c5.942-4.513,12.011-8.773,18.182-12.818c-10.986,84.526-7.727,170.258-7.796,255.52
		c-0.883,0.043-1.766,0.079-2.648,0.127c-3.207,0.173-3.224,5.175,0,5c0.878-0.046,1.756-0.082,2.635-0.125
		c-0.04,16.229-0.208,32.441-0.635,48.623c-0.085,3.225,4.915,3.217,5,0c0.43-16.254,0.594-32.542,0.627-48.849
		c70.416-2.785,141.725,8.148,211.098,18.442c97.376,14.449,194.269,31.994,291.481,47.478
		c105.005,16.725,210.452,31.598,316.529,39.524c98.357,7.35,198.123,9.118,295.963-5.128
		c80.955-11.789,163.407-35.811,229.065-86.393c3.58-2.757,7.075-5.592,10.496-8.491c-0.318,26.558-2.111,53.073-5.911,79.349
		c-1.206,8.339-2.669,16.64-4.326,24.9c-0.631,3.148,4.188,4.49,4.821,1.33c7.256-36.185,10.192-73.021,10.386-109.895
		c2.954-2.62,5.84-5.3,8.67-8.023C1357.241,320.621,1357.481,318.109,1357.721,315.598z"/>
</g>
</svg>
