<?xml version="1.0" encoding="utf-8"?>
<!-- Generator: Adobe Illustrator 16.0.0, SVG Export Plug-In . SVG Version: 6.00 Build 0)  -->
<!DOCTYPE svg PUBLIC "-//W3C//DTD SVG 1.1//EN" "http://www.w3.org/Graphics/SVG/1.1/DTD/svg11.dtd">
<svg version="1.1" xmlns="http://www.w3.org/2000/svg" xmlns:xlink="http://www.w3.org/1999/xlink" x="0px" y="0px" width="680px"
	 height="680px" viewBox="0 0 680 680" enable-background="new 0 0 680 680" xml:space="preserve">
<g id="grid" display="none">
</g>
<g id="Layer_1">
	<g>
		<circle fill="#E8DAC5" cx="340" cy="340" r="317.728"/>
		<g>
			<defs>
				<circle id="SVGID_119_" cx="340" cy="340" r="317.946"/>
			</defs>
			<clipPath id="SVGID_2_">
				<use xlink:href="#SVGID_119_"  overflow="visible"/>
			</clipPath>
			<g clip-path="url(#SVGID_2_)">
				<g>
					<path fill="#BF4C62" d="M293.062,245.845c-0.018-0.054-0.023-0.118-0.037-0.177c0.645-0.669,1.107-1.476,1.361-2.383
						c0.262-0.491,0.512-0.991,0.662-1.546c-0.744,2.714-0.219,0.922,0.197,0.146c0.076-0.091,0.148-0.185,0.234-0.271
						c1.502-1.467,1.801-3.567,1.217-5.504c1.973-0.538,4.018-0.851,6.195-0.653c0.555,0.05,1.102,0.047,1.639,0.012
						c0.07,0.687,0.15,1.374,0.219,2.062c0.826,0.693,1.188,1.624,1.586,2.549c8.758,20.215,7.141,41.932,9.848,60.963
						c-0.49-45.157-2.836-96.159,26.916-123.239c0.098-1.248,0.225-2.489,0.352-3.732c4.006,0.779,7.998,1.808,12.012,2.753
						c-0.094,0.413-0.172,0.824-0.268,1.238c17.895,39.472,5.354,55.715,9.441,97.343c3.926-45.075,1.904-62.266,26.992-98.974
						c-0.121-0.7-0.244-1.396-0.359-2.093c3.029,0.566,6,1.285,8.936,2.178c-0.098,1.612,0.535,3.19,1.629,4.474
						c0.059,0.358,0.162,0.726,0.301,1.097c0.002,0.021,0,0.051,0.002,0.07c18.68,42.821,7.637,87.636,7.564,131.562
						c4.971-27.872,12.889-48.672,25.777-70.472c0.18-0.343,0.459-0.605,0.74-0.869c0.061-0.5,0.15-0.993,0.219-1.493
						c3.498,0.845,6.889,2.005,10.244,3.688c-0.102,0.907-0.207,1.812-0.297,2.72c-0.014,0.38-0.117,0.694-0.242,1.007
						c4.641,8.506,7.201,17.832,8.797,26.997c4.799,27.56,3.217,55.695,0.656,82.958c-2.9,30.635-7.689,61.04-13.258,91.217
						c-4.055,21.949-8.807,43.734-12.781,65.662c-5.057,27.856-11.406,55.478-17,83.239c-6.684,2.05-13.221,4.431-19.678,7.137
						c-5.83-7.932-11.266-15.987-16.205-24.378c-1.713-2.942-6.033-2.43-8.111-0.706c-4.295,3.572-7.297,7.654-10.654,11.986
						c-1.193,1.522-12.162-16.234-13.523-18.204c-1.268-1.855-3.816-2.408-5.928-1.967c-5.973,1.239-10.35,3.603-15.521,6.51
						c-8.857,4.98-19.553-20.917-23.123-26.258c-1.686-2.517-6.252-2.933-8.111-0.691c-3.492,4.155-4.352,5.394-7.105,10.068
						c-3.582,6.073-15.945-15.923-18.139-19.259c-1.699-2.579-6.215-2.852-8.115-0.708c-1.824,2.091-3.76,4.018-5.635,6.031
						c6.369-63.651,12.107-127.37,14.422-191.489c0.035-0.89,0.324-1.549,0.793-2.011
						C268.296,316.754,272.788,278.116,293.062,245.845z"/>
					<path fill="#D6D5D7" d="M373.509,824.39c1.316-0.307,2.422-1.176,2.83-2.688c13.611-51.522,15.084-105.359,24.926-157.615
						c0.52-0.474,0.91-1.144,0.996-2.073c2.006-17.888,5.016-35.613,8.408-53.27c0.67-3.516,1.383-7.047,2.098-10.578
						c-6.686,2.049-13.223,4.432-19.682,7.138c-5.828-7.934-11.262-15.989-16.201-24.378c-1.715-2.943-6.033-2.43-8.111-0.706
						c-4.297,3.571-7.295,7.654-10.656,11.986c-1.193,1.522-12.16-16.236-13.521-18.206c-1.271-1.855-3.816-2.407-5.93-1.967
						c-5.969,1.241-10.348,3.603-15.523,6.512c-8.854,4.979-19.553-20.918-23.121-26.259c-1.684-2.516-6.252-2.932-8.111-0.693
						c-3.492,4.156-4.352,5.396-7.105,10.069c-3.584,6.072-15.943-15.923-18.139-19.259c-1.699-2.578-6.215-2.852-8.115-0.706
						c-1.822,2.091-3.758,4.018-5.635,6.031c-0.516,5.095-1.021,10.21-1.535,15.325c-8.068,79.439-16.777,158.818-20.922,238.746
						c-0.043,1.03,0.318,1.924,0.877,2.657c-1.23,3.669,4.457,7.663,7.34,4.13c7.037-8.64,12.916-18.02,17.557-27.938
						c4.459,13.094,7.824,26.435,10.004,39.881c0.803,4.96,9.354,4.645,8.621-0.295c4.898-6.112,8.99-12.63,12.451-19.478
						c6.336,10.531,10.83,21.823,14.76,33.157c1.008,2.87,4.221,3.213,6.348,2.036c0.857-0.113,1.686-0.509,2.348-1.326
						c8.254-10.064,14.793-20.991,20.309-32.455c7.037,5.708,11.018,13.332,13.592,21.312c-1.307,3.983,5.836,6.997,8.221,2.933
						c3.217-5.518,5.902-11.294,8.234-17.172c1.617,4.371,2.955,8.82,3.988,13.345C366.032,826.633,372.069,827.13,373.509,824.39z"
						/>
				</g>
				<path fill="#2A2828" d="M401.507,180.821c-2.275-2.867-8.73-3.369-11.795-1.43c-0.949-7.557,0.332-15.643,0.926-23.146
					c0.115-1.442,0.826-2.467,1.771-3.142c2.066-1.998,5.414-2.49,6.561,0.969c0.057,0.129,0.059,0.246,0.105,0.365
					c0.148,0.296,0.223,0.688,0.279,1.077c2.631,8.547,3.4,17.274,2.529,25.894C401.759,181.212,401.655,181.011,401.507,180.821z"
					/>
				<path fill="#2A2828" d="M440.56,243.406c-1.668-0.293-3.303-0.001-4.676,0.681c0.164-4.848,1.281-9.521,3.348-13.987
					c0.307-1.408,0.578-2.812,0.92-4.202c1.398-5.487,9.256-2.807,8.369,2.442c0.059,0.391,0.148,0.765,0.084,1.244
					c-0.84,6.169-1.469,12.372-2.24,18.55C445.53,245.823,443.366,243.902,440.56,243.406z"/>
				<path fill="#2A2828" d="M352.276,176.916c-1.699-0.729-3.848-0.79-5.678-0.225c-1.486,0.233-2.828,0.884-3.824,1.852
					c-0.023,0.002-0.049,0.004-0.07,0.007c0.174-7.058,1.271-13.98,3.527-20.695c1.061-3.14,4.225-3.48,6.4-2.224
					c1.447,0.297,2.762,1.26,3.242,3.251c1.699,7.139,1.842,14.422-0.049,21.24C355.161,178.805,354.022,177.666,352.276,176.916z"
					/>
				<path fill="#2A2828" d="M293.72,225.041c-0.211-4.041,6.043-7.16,8.525-2.361c3.244,6.229,4.684,12.708,4.801,19.316
					c0.064,0.197,0.09,0.416,0.125,0.631c-1.092-1.17-2.582-2.052-4.336-2.361c-2.426-0.426-4.811,0.348-6.352,1.846
					c-0.496,0.283-0.934,0.624-1.326,1.011c-0.164,0.131-0.35,0.242-0.504,0.384c-0.049,0.042-0.107,0.075-0.156,0.119
					c-0.049,0.041-0.092,0.083-0.139,0.125c0.045-0.028,0.094-0.055,0.137-0.085c-0.221,0.219-0.371,0.478-0.553,0.718
					c-0.152,0.047-0.779,1.222-0.918,1.286c-0.15-1.279,0.012-15.615,0.617-20.369C293.647,225.197,293.706,225.13,293.72,225.041z"
					/>
				<path fill="#943950" d="M292.503,434.5c1.986-5.369,3.203-10.804,4.174-16.438c1-5.799-9.072-7.96-10.086-2.186
					c-0.816,4.83-1.67,9.648-3.377,14.252C281.206,435.571,290.458,440.002,292.503,434.5z"/>
				<path fill="#943950" d="M316.015,460.65c0.867-5.719,0.898-11.553,1.77-17.278c0.875-5.814-9.18-7.991-10.082-2.182
					c-0.873,5.727-0.891,11.564-1.771,17.275C305.052,464.292,315.124,466.462,316.015,460.65z"/>
				<path fill="#943950" d="M283.007,463.914c-0.158-3.98,0.889-7.63,2.068-11.36c1.787-5.6-8.316-7.729-10.068-2.184
					c-1.441,4.52-2.395,8.913-2.186,13.734C273.046,470.042,283.257,469.814,283.007,463.914z"/>
				<path fill="#943950" d="M325.069,490.292c-0.217-4.303,0.461-8.389,1.678-12.471c1.693-5.623-8.408-7.741-10.072-2.171
					c-1.441,4.824-2.045,9.753-1.799,14.848C315.161,496.433,325.354,496.193,325.069,490.292z"/>
				<path fill="#943950" d="M351.22,462.062c0.627-2.524,2.016-4.745,3.352-6.982c2.973-5.133-6.338-9.487-9.299-4.392
					c-1.736,2.965-3.311,5.888-4.107,9.199C339.776,465.597,349.858,467.752,351.22,462.062z"/>
				<path fill="#943950" d="M324.435,416.852c-1.084-2.494-1.375-5.113-1.721-7.722c-0.855-5.934-10.953-4.986-10.109,0.909
					c0.484,3.438,1.066,6.757,2.51,10.017C317.587,425.691,326.921,422.457,324.435,416.852z"/>
				<path fill="#943950" d="M341.399,435.504c2.521-6.436,5.193-12.849,7.014-19.521c1.562-5.69-8.521-7.808-10.066-2.186
					c-1.627,5.943-3.992,11.614-6.246,17.324C329.97,436.553,339.233,440.978,341.399,435.504z"/>
				<path fill="#943950" d="M374.841,433.202c-0.549-4.288-1.166-8.555,0.889-12.482c2.723-5.237-6.551-9.606-9.293-4.39
					c-2.814,5.381-2.541,11.113-1.803,17.075C365.374,439.314,375.56,439.12,374.841,433.202z"/>
				<path fill="#943950" d="M409.698,446.17c-0.127-4.186,1.689-7.979,4.25-11.276c3.605-4.667-4.246-11.01-7.91-6.283
					c-4.111,5.316-6.738,10.997-6.531,17.752C399.679,452.308,409.872,452.047,409.698,446.17z"/>
				<path fill="#943950" d="M436.876,424.538c-0.596-5.358-0.348-10.571,0.492-15.801c0.934-5.797-9.15-7.984-10.064-2.187
					c-0.957,5.983-1.307,12.059-0.617,18.195C427.343,430.67,437.53,430.471,436.876,424.538z"/>
				<path fill="#943950" d="M284.028,405.805c-0.596-5.357-0.348-10.57,0.494-15.8c0.934-5.799-9.15-7.985-10.066-2.187
					c-0.955,5.982-1.307,12.057-0.615,18.194C274.497,411.938,284.685,411.739,284.028,405.805z"/>
				<path fill="#943950" d="M417.274,524.452c2.121-5.6,3.697-11.405,5.812-17.013c2.049-5.435-7.203-9.868-9.279-4.389
					c-2.129,5.631-3.695,11.422-5.814,17.04C405.931,525.522,415.208,529.964,417.274,524.452z"/>
				<path fill="#943950" d="M393.062,504.993c-0.289-4.001-0.34-7.971-0.309-11.975c0.061-5.918-10.129-5.662-10.191,0.199
					c-0.037,3.981,0.021,7.951,0.295,11.979C383.253,511.117,393.454,510.905,393.062,504.993z"/>
				<path fill="#943950" d="M384.347,476.825c0.834-4.829,1.682-9.656,3.396-14.25c2.002-5.435-7.254-9.883-9.297-4.383
					c-1.979,5.359-3.199,10.808-4.158,16.449C373.298,480.436,383.358,482.611,384.347,476.825z"/>
				<path fill="#943950" d="M416.614,482.691c0.035-2.683,0.064-5.297,1.262-7.742c2.582-5.299-6.689-9.677-9.291-4.38
					c-1.922,3.92-2.111,8.007-2.158,12.329C406.358,488.805,416.542,488.556,416.614,482.691z"/>
				<path fill="#943950" d="M432.847,462.824c0.785-4.565,1.557-9.022,3.781-13.136c2.803-5.208-6.48-9.582-9.293-4.392
					c-2.58,4.811-3.65,10.02-4.564,15.335C421.776,466.417,431.843,468.6,432.847,462.824z"/>
				<path fill="#943950" d="M336.804,525.036l5.023-19.245c1.488-5.697-8.596-7.835-10.064-2.178l-5.037,19.253
					C325.245,528.553,335.331,530.679,336.804,525.036z"/>
				<path fill="#943950" d="M360.034,493.279c0.947-5.873,1.561-11.783,2.992-17.573c1.402-5.723-8.689-7.858-10.064-2.174
					c-1.432,5.776-2.059,11.686-3,17.567C349.032,496.887,359.091,499.08,360.034,493.279z"/>
				<path fill="#943950" d="M369.483,532.766c0.953-5.648,1.621-11.267,1.008-17.073c-0.629-5.929-10.826-5.721-10.197,0.197
					c0.533,5.041-0.051,9.8-0.898,14.693C358.429,536.39,368.501,538.569,369.483,532.766z"/>
				<path fill="#943950" d="M306.507,532.684l6.209-15.914c2.104-5.428-7.162-9.853-9.295-4.383l-6.215,15.91
					C295.11,533.734,304.374,538.155,306.507,532.684z"/>
				<path fill="#943950" d="M293.251,497.714c2.871-4.887,5.148-9.63,5.025-15.409c-0.115-5.932-10.305-5.684-10.197,0.188
					c0.092,4.046-2.113,7.474-4.109,10.841C280.979,498.447,290.272,502.794,293.251,497.714z"/>
				<path fill="#943950" d="M270.351,513.097c0.52-5.763,1.768-11.375,3.793-16.757c2.051-5.436-7.215-9.86-9.287-4.382
					c-2.307,6.149-3.977,12.394-4.584,18.965C259.731,516.735,269.804,518.96,270.351,513.097z"/>
				<path fill="#943950" d="M283.185,542.208c-0.229-4.428,0.596-8.655,2.117-12.766c2.004-5.449-7.266-9.885-9.287-4.388
					c-2.09,5.646-3.322,11.253-3.018,17.365C273.294,548.341,283.491,548.123,283.185,542.208z"/>
				<path fill="#943950" d="M354.483,569.798c2.938-5.4,3.676-11.228,3.021-17.35c-0.627-5.926-10.828-5.718-10.191,0.186
					c0.482,4.596,0.105,8.727-2.111,12.78C342.384,570.615,351.665,574.971,354.483,569.798z"/>
				<path fill="#943950" d="M325.919,555.994c1.363-2.344,2.744-4.657,4.104-6.995c3.008-5.103-6.295-9.456-9.289-4.373
					c-1.369,2.337-2.74,4.653-4.113,6.991C313.628,556.722,322.925,561.08,325.919,555.994z"/>
				<path fill="#943950" d="M401.876,540.525c-0.545-1.958-0.379-4.02-0.111-5.942c0.775-5.83-9.277-8.014-10.072-2.193
					c-0.486,3.657-0.418,7.096,0.572,10.758C393.835,548.978,403.401,546.294,401.876,540.525z"/>
				<path fill="#943950" d="M401.954,585.29c3.393-5.792,6.68-11.69,7.422-18.409c0.637-5.833-9.434-8.033-10.082-2.184
					c-0.654,6.001-3.611,11.06-6.643,16.21C389.659,586.02,398.954,590.372,401.954,585.29z"/>
				<path fill="#943950" d="M382.97,567.263c0.818-4.838,1.674-9.657,3.387-14.252c2.006-5.438-7.254-9.885-9.293-4.381
					c-1.984,5.369-3.203,10.808-4.16,16.452C371.903,570.864,381.978,573.042,382.97,567.263z"/>
				<path fill="#BCBBBB" d="M356.538,628.042c0.789-5.244,0.604-10.587,0.957-15.883c0.365-5.819-9.707-8.052-10.086-2.194
					c-0.34,5.313-0.156,10.665-0.945,15.898C345.593,631.673,355.673,633.859,356.538,628.042z"/>
				<path fill="#BCBBBB" d="M365.165,678.73c0.053-7.542,0.027-14.991,2.16-22.226c1.664-5.646-8.416-7.764-10.072-2.184
					c-2.352,7.976-2.25,16.296-2.293,24.611C354.929,684.863,365.128,684.597,365.165,678.73z"/>
				<path fill="#BCBBBB" d="M338.421,655.601l1.281-7.532c0.973-5.797-9.096-7.98-10.07-2.178l-1.287,7.519
					C327.36,659.208,337.437,661.405,338.421,655.601z"/>
				<path fill="#BCBBBB" d="M312.317,642.814c0.643-4.066,0.971-8.06,2.951-11.729c2.809-5.215-6.49-9.58-9.291-4.395
					c-2.365,4.407-2.965,9.092-3.727,13.943C301.31,646.422,311.384,648.62,312.317,642.814z"/>
				<path fill="#BCBBBB" d="M292.276,600.122c0.521-5.761,1.773-11.358,3.801-16.768c2.041-5.432-7.213-9.862-9.297-4.383
					c-2.301,6.155-3.984,12.4-4.596,18.971C281.655,603.748,291.739,605.975,292.276,600.122z"/>
				<path fill="#BCBBBB" d="M265.972,579.914c0.158-2.765,1.219-5.231,3.002-7.363c3.811-4.565-4.043-10.896-7.896-6.291
					c-3.486,4.161-5.014,8.537-5.287,13.858C255.479,585.987,265.679,585.728,265.972,579.914z"/>
				<path fill="#BCBBBB" d="M328.366,602.538c0.07-3.005,1.018-5.431,2.469-8.033c2.873-5.166-6.438-9.538-9.301-4.376
					c-2.248,4.063-3.246,7.974-3.381,12.603C318.019,608.646,328.204,608.37,328.366,602.538z"/>
				<path fill="#BCBBBB" d="M397.149,627.351c0.383-2.854,0.484-5.776,0.873-8.639c0.803-5.816-9.264-8.018-10.057-2.184
					c-0.404,2.868-0.504,5.768-0.895,8.645C386.267,630.984,396.345,633.175,397.149,627.351z"/>
				<path fill="#BCBBBB" d="M392.974,671.962c2.129-5.719,3.271-11.457,3.781-17.542c0.477-5.84-9.604-8.051-10.09-2.187
					c-0.416,5.237-1.139,10.425-2.979,15.356C381.667,673.038,390.938,677.471,392.974,671.962z"/>
				<path fill="#BCBBBB" d="M272.476,664.181c0.658-4.07,0.982-8.074,2.961-11.754c2.812-5.202-6.486-9.562-9.273-4.37
					c-2.377,4.41-2.967,9.071-3.754,13.925C261.483,667.792,271.544,669.964,272.476,664.181z"/>
				<path fill="#BCBBBB" d="M268.204,622.308c-0.486-4.577-0.092-8.707,2.107-12.769c2.83-5.188-6.473-9.556-9.289-4.374
					c-2.932,5.395-3.662,11.215-3.01,17.349C258.647,628.431,268.837,628.234,268.204,622.308z"/>
				<path fill="#BCBBBB" d="M293.548,694.167c-0.609-4.853-1.047-9.63-0.332-14.415c0.879-5.799-9.195-7.982-10.07-2.175
					c-0.838,5.555-0.492,11.126,0.209,16.781C284.081,700.279,294.292,700.075,293.548,694.167z"/>
				<path fill="#BCBBBB" d="M332.472,687.686c1.629-2.994,2.812-6.182,5.061-8.832c3.828-4.553-4.043-10.894-7.91-6.281
					c-2.775,3.316-4.404,7.028-6.438,10.728C320.329,688.478,329.63,692.851,332.472,687.686z"/>
				<path fill="#943950" d="M438.517,320.473c-0.844,3.421-6.23,4.126-10.221,2.407c-2.814-1.07-4.912-3.15-4.457-5.551
					c-2.277-9.654-4.873-19.084-4.461-28.883c0.434-10.341,7.818-18.689,15.631-25.25c3.447-2.896,10.346-1.689,12.453,2.514
					C458.206,287.142,451.177,302.881,438.517,320.473z"/>
				<path fill="#943950" d="M291.993,263.8c0.742-3.004,5.471-3.623,8.977-2.114c2.473,0.94,4.316,2.768,3.914,4.876
					c2,8.478,4.283,16.761,3.918,25.365c-0.379,9.084-6.865,16.414-13.725,22.179c-3.031,2.54-9.09,1.48-10.939-2.21
					C274.698,293.071,280.872,279.249,291.993,263.8z"/>
				<path fill="#943950" d="M398.12,287.284c-0.777,5.011-4.596,7.247-8.715,7.357c-6.066,3.078-15.326,0.37-15.346-7.771
					c-0.086-28.885-5.113-55.322,7.857-81.984c4.1-8.437,15.338-5.314,18.965,1.672C415.36,234.439,402.587,258.614,398.12,287.284z
					"/>
				<path fill="#943950" d="M323.188,281.869c-0.023,5.098,4.057,8.269,8.891,9.437c6.566,4.566,17.982,4.297,19.525-3.664
					c5.5-28.238,16.357-52.813,6.064-82.232c-3.252-9.305-17.076-9.139-22.65-3.231C312.747,225.737,323.28,252.668,323.188,281.869
					z"/>
				<path fill="#943950" d="M298.851,376.279c0.871,0.757,1.82,1.169,2.768,1.334c18.727,16.696,45.119,23.706,69.707,24.19
					c19.477,0.385,43.805-2.38,57.305-16.764c5.879-3.524,9.574-9.659,8.559-19.025c-1.895-17.365-16.818-30.358-33.652-33.24
					c-10.742-13.56-24.436-26.091-41.062-27.932c-18.883-2.09-32.656,7.48-43.566,20.459c-0.037-0.003-0.066-0.012-0.104-0.012
					c-13.418-0.177-27.141,4.701-32.369,17.541C281.337,355.367,289.206,367.927,298.851,376.279z"/>
			</g>
		</g>
	</g>
</g>
</svg>
