<?xml version="1.0" encoding="utf-8"?>
<!-- Generator: Adobe Illustrator 16.0.0, SVG Export Plug-In . SVG Version: 6.00 Build 0)  -->
<!DOCTYPE svg PUBLIC "-//W3C//DTD SVG 1.1//EN" "http://www.w3.org/Graphics/SVG/1.1/DTD/svg11.dtd">
<svg version="1.1" xmlns="http://www.w3.org/2000/svg" xmlns:xlink="http://www.w3.org/1999/xlink" x="0px" y="0px" width="48px"
	 height="48px" viewBox="0 0 48 48" enable-background="new 0 0 48 48" xml:space="preserve">
<g id="grid" display="none">
</g>
<g id="Layer_1">
	<g>
		<path fill="#D6D5D7" d="M35.943,30.856c-2.316,2.004-4.785,3.907-7.336,5.745c-0.475-9.706,1.176-19.432,1.451-29.144
			c0.029-1.06-1.402-1.862-2.728-1.781c-1.489,0.087-2.407,1.033-2.437,2.091c-0.268,9.396-1.82,18.8-1.492,28.19
			c-3.403-2.519-6.84-5.012-9.602-7.961c-1.895-2.023-6.211,0.195-4.311,2.222c4.141,4.422,9.686,7.902,14.574,11.821
			c0.361,0.289,0.85,0.429,1.365,0.453c1.016,0.321,2.129,0.029,2.996-0.558c4.002-2.712,7.883-5.535,11.418-8.596
			C42.053,31.426,38.158,28.937,35.943,30.856z"/>
		<path fill="#E03254" d="M34.426,30.559c-2.316,2.006-4.783,3.908-7.334,5.744c-0.477-9.704,1.174-19.428,1.449-29.142
			c0.031-1.061-1.4-1.86-2.727-1.781c-1.488,0.087-2.406,1.033-2.438,2.091c-0.266,9.394-1.82,18.801-1.49,28.189
			c-3.404-2.518-6.84-5.011-9.604-7.96c-1.895-2.022-6.211,0.195-4.311,2.221c4.141,4.423,9.686,7.903,14.576,11.821
			c0.361,0.29,0.85,0.43,1.365,0.453c1.014,0.321,2.129,0.029,2.996-0.558c4-2.712,7.88-5.535,11.416-8.596
			C40.537,31.129,36.641,28.641,34.426,30.559z"/>
	</g>
</g>
</svg>
