<?xml version="1.0" encoding="utf-8"?>
<!-- Generator: Adobe Illustrator 16.0.0, SVG Export Plug-In . SVG Version: 6.00 Build 0)  -->
<!DOCTYPE svg PUBLIC "-//W3C//DTD SVG 1.1//EN" "http://www.w3.org/Graphics/SVG/1.1/DTD/svg11.dtd">
<svg version="1.1" id="Layer_1" xmlns="http://www.w3.org/2000/svg" xmlns:xlink="http://www.w3.org/1999/xlink" x="0px" y="0px"
	 width="315.004px" height="316.301px" viewBox="0 0 315.004 316.301" enable-background="new 0 0 315.004 316.301"
	 xml:space="preserve">
<g id="grid" display="none">
</g>
<g id="Layer_1_7_">
	<path fill="#EDEDED" d="M312.831,125.953c0.764,2.451,1.506,4.907,2.174,7.38V-0.001h-7.455c-0.004,0.038-0.006,0.076-0.01,0.114
		c-0.272,3.822,0.047,7.583,0.703,11.359c0.115,0.67-0.916,0.908-1.033,0.229c-0.676-3.883-1.016-7.764-0.727-11.702h-23.294
		c0.034,0.158,0.074,0.875,0.047,0.945c-0.084,0.527-0.907,0.64-0.965,0.067c-0.013-0.033-0.101-0.639-0.114-0.91
		c-0.007-0.033-0.021-0.062-0.021-0.101v-0.001h-29.478c-0.361,3.864-0.627,7.735-0.884,11.609c-0.046,0.683-1.104,0.644-1.06-0.045
		c0.257-3.856,0.521-7.715,0.878-11.564h-2.185c0.006,0.028,0.019,0.053,0.019,0.084v0.016c0,0.008-0.005,0.012-0.005,0.02v0.008
		c0,0.008,0.005,0.013,0.005,0.02v0.016c0,0.008-0.005,0.012-0.005,0.019c0.018,0.537-0.799,0.66-0.965,0.131
		c-0.01-0.021-0.023-0.035-0.031-0.058c-0.008-0.021-0.01-0.04-0.014-0.06c-0.025-0.063-0.051-0.129-0.08-0.19
		c-0.002-0.001-0.002-0.003-0.002-0.004h-22.25c0.012,0.049,0.062,0.316,0.078,0.407c0.096,0.582-0.709,0.758-0.934,0.305
		c-0.03-0.042-0.061-0.085-0.079-0.146c-0.062-0.194-0.093-0.373-0.106-0.566h-9.738c-0.358,3.148-0.57,6.305-0.59,9.482
		c-0.004,0.685-1.06,0.641-1.058-0.045c0.019-3.162,0.229-6.305,0.582-9.438h-23.997c0.15,1.239,0.396,2.469,0.811,3.673
		c0.225,0.648-0.812,0.876-1.031,0.232c-0.441-1.281-0.696-2.587-0.848-3.905h-31.652c0.115,1.148-0.002,2.336-0.012,3.48
		c-0.002,0.172-0.075,0.287-0.18,0.357c-0.285,0.227-0.854,0.053-0.836-0.435c0.041-1.137-0.16-2.27-0.023-3.403h-22.762
		c0.16,1.258,0.303,2.519,0.4,3.787c0.049,0.64-0.938,0.805-0.986,0.162c-0.103-1.323-0.252-2.638-0.424-3.949h-20.367
		c0.301,1.867,0.584,3.737,0.777,5.621c0.064,0.64-0.921,0.804-0.986,0.162c-0.199-1.938-0.492-3.862-0.804-5.783H77.829
		c0.666,4.321,1.354,8.637,2.385,12.891c0.158,0.664-0.875,0.896-1.034,0.229c-1.046-4.328-1.742-8.722-2.418-13.12H52.637
		c0.439,1.967,0.818,3.945,1.054,5.954c0.074,0.641-0.912,0.803-0.987,0.162c-0.242-2.064-0.636-4.096-1.092-6.116H30.256
		c0.002,0.735,0.005,1.471,0.06,2.204c0.047,0.64-0.94,0.805-0.987,0.162c-0.059-0.788-0.065-1.577-0.065-2.366H8.806
		c0.547,2.057,0.799,4.158,0.821,6.292c0.004,0.685-1.053,0.643-1.061-0.042c-0.02-2.128-0.289-4.211-0.854-6.25H0v133.596
		c0.25,0.674,0.248,1.398,0.441,2.095c0.271,0.968,0.631,1.902,0.831,2.889c0.129,0.635-0.858,0.792-0.987,0.162
		c-0.072-0.363-0.177-0.718-0.285-1.069v14.055c2.408-2.918,3.256-6.731,3.627-10.438c0.066-0.677,1.129-0.642,1.058,0.044
		c-0.411,4.104-1.392,8.25-4.153,11.403c-0.019,0.032-0.027,0.065-0.058,0.097c-0.032,0.035-0.065,0.062-0.097,0.092
		c-0.033,0.037-0.061,0.077-0.094,0.113c-0.078,0.084-0.158,0.12-0.242,0.139c-0.014,0.008-0.023,0.017-0.037,0.024
		c-0.002,0-0.004,0-0.004,0.001v8.695c0.162-0.443,0.354-0.883,0.522-1.319c0.173-0.444,0.37-0.88,0.667-1.256
		c0.395-0.499,1.188,0.075,0.812,0.579c-0.823,1.736-1.396,3.565-2.002,5.387v101.138c0.311-0.562,0.66-1.1,1.002-1.645
		c0.344-0.546,1.146,0.051,0.806,0.594c-0.379,0.604-0.827,1.192-1.108,1.851c-0.211,0.496-0.299,1.051-0.535,1.532
		c-0.041,0.085-0.101,0.144-0.164,0.189V316.3h7.646c-0.127-0.385-0.245-0.772-0.325-1.173c-0.128-0.635,0.86-0.792,0.986-0.162
		c0.092,0.455,0.229,0.896,0.377,1.335h20.522c-0.08-1.979-0.156-3.962-0.166-5.944c-0.004-0.687,1.055-0.643,1.06,0.042
		c0.011,1.97,0.091,3.936,0.163,5.902h21.293c-1.092-2.853-2.117-5.728-3.027-8.646c-0.202-0.653,0.832-0.882,1.033-0.232
		c0.93,2.979,1.98,5.913,3.101,8.823c0.01,0.019,0.021,0.037,0.03,0.055h58.528c-0.443-2.869-0.729-5.759-1.016-8.646
		c-0.066-0.671,0.965-0.913,1.035-0.232c0.295,2.969,0.588,5.935,1.054,8.878h20.387c-0.036-0.399-0.078-0.804-0.15-1.176
		c-0.121-0.621-0.167-1.335-0.356-1.933c-0.192-0.607,0.719-1.021,0.914-0.406c0.197,0.624,0.259,1.306,0.385,1.949
		c0.099,0.503,0.157,1.041,0.206,1.565h22.773c-0.066-1.981-0.195-3.964-0.336-5.944c-0.048-0.685,1.012-0.636,1.06,0.042
		c0.139,1.969,0.266,3.936,0.333,5.902h31.645c-0.079-2.064-0.25-4.121-0.625-6.162c-0.123-0.671,0.877-0.9,1.035-0.232
		c0.479,2.005,0.646,6.346,0.646,6.396h34.807c-0.331-2.651-0.773-5.291-1.113-7.936c-0.088-0.674,0.943-0.913,1.032-0.232
		c0.354,2.721,0.81,5.439,1.142,8.168h22.237c-0.346-2.559-0.957-5.085-1.27-7.669c-0.076-0.64,0.91-0.802,0.987-0.162
		c0.319,2.64,1.037,5.22,1.385,7.831h2.19c0.051-0.33,0.096-0.662,0.146-0.992c0.096-0.637,1.091-0.54,0.996,0.098
		c-0.045,0.298-0.086,0.597-0.132,0.895h29.505c-0.105-0.988-0.226-1.979-0.33-2.974c-0.071-0.671,0.961-0.914,1.033-0.231
		c0.114,1.072,0.245,2.14,0.357,3.205h23.294c0.023-0.156,0.031-0.314,0.067-0.471c0.125-0.543,0.904-0.541,1-0.111
		c0.031,0.071,0.05,0.152,0.038,0.25c-0.014,0.11-0.017,0.222-0.025,0.332h7.446v-47.215c-0.989,2.292-1.861,4.638-2.537,7.065
		c-0.184,0.662-1.196,0.349-1.016-0.312c0.81-2.896,1.896-5.675,3.125-8.393c0.062-0.179,0.131-0.354,0.217-0.524
		c0.047-0.096,0.1-0.189,0.147-0.285c0.021-0.047,0.041-0.095,0.063-0.142v-100.94c-1.084,3.781-1.857,7.631-2.162,11.575
		c-0.051,0.681-1.11,0.642-1.059-0.045c0.406-5.166,1.582-10.192,3.221-15.093v-8.705c-0.223,0.192-0.459,0.366-0.73,0.495
		c-0.583,0.278-0.988-0.637-0.406-0.913c0.5-0.239,0.85-0.662,1.137-1.123v-13.982c-0.859-3.908-2.012-7.746-3.207-11.579
		C311.592,125.532,312.627,125.304,312.831,125.953z M3.605,36.552c-0.748,3.262-1.719,6.456-2.099,9.791
		c-0.077,0.676-1.137,0.641-1.059-0.042c0.391-3.427,1.374-6.709,2.141-10.06C2.741,35.57,3.754,35.886,3.605,36.552z
		 M36.793,56.484c0.381,2.498,1.033,4.944,1.414,7.442c0.103,0.673-0.931,0.911-1.033,0.233c-0.383-2.498-1.033-4.946-1.416-7.444
		C35.657,56.043,36.69,55.804,36.793,56.484z M30.101,88.52c0.05,2.824,0.673,5.578,1.047,8.37c0.088,0.671-0.946,0.912-1.036,0.23
		c-0.384-2.883-1.016-5.726-1.07-8.645C29.028,87.792,30.086,87.838,30.101,88.52z M21.969,10.054
		c0.332,2.516,0.365,5.042,0.367,7.578c0,0.688-1.058,0.645-1.058-0.04c0-2.445-0.024-4.881-0.345-7.309
		C20.844,9.611,21.881,9.371,21.969,10.054z M17.392,30.039c0.022,2.368,0.334,4.72,0.354,7.089
		c0.006,0.685-1.053,0.642-1.061-0.044c-0.021-2.367-0.33-4.721-0.354-7.089C16.327,29.31,17.383,29.354,17.392,30.039z
		 M14.569,157.947c-0.045-0.685,1.014-0.634,1.059,0.042c0.299,4.527-0.043,8.986-0.707,13.468c-0.098,0.671-1.158,0.64-1.059-0.042
		C14.527,166.935,14.87,162.478,14.569,157.947z M3.26,174.157c0.695,3.691,1.713,7.308,2.472,10.986
		c0.138,0.67-0.896,0.903-1.034,0.229c-0.758-3.675-1.775-7.293-2.472-10.987C2.103,173.716,3.133,173.479,3.26,174.157z
		 M4.333,207.567c0.701-4.219,0.703-8.492,0.705-12.76c0-0.688,1.06-0.641,1.06,0.043c-0.003,4.267-0.005,8.539-0.705,12.758
		C5.282,208.276,4.222,208.244,4.333,207.567z M6.463,265.833c-0.67-3.631-0.721-7.318-1.057-10.986
		c-0.066-0.674,0.967-0.916,1.029-0.231c0.339,3.665,0.393,7.356,1.061,10.985C7.62,266.271,6.588,266.509,6.463,265.833z
		 M7.519,111.652c-0.669-2.916-0.67-5.904-1.058-8.861c-0.088-0.674,0.945-0.913,1.035-0.229c0.385,2.952,0.385,5.944,1.058,8.858
		C8.711,112.089,7.674,112.325,7.519,111.652z M7.511,61.54c0.37-3.509,0.96-6.975,0.362-10.496c-0.112-0.673,0.92-0.91,1.035-0.231
		c0.611,3.613,0.043,7.164-0.342,10.771C8.495,62.26,7.438,62.223,7.511,61.54z M8.92,87.06c0-2.56-0.006-5.118-0.34-7.659
		c-0.088-0.675,0.943-0.914,1.033-0.232c0.352,2.633,0.365,5.283,0.365,7.934C9.979,87.791,8.92,87.743,8.92,87.06z M10.345,134.337
		c-0.608-3.53-0.138-7.148-1.06-10.635c-0.174-0.662,0.857-0.891,1.035-0.229c0.926,3.49,0.448,7.095,1.059,10.632
		C11.495,134.776,10.465,135.014,10.345,134.337z M14.22,300.431c-0.007-3.203-0.099-6.35-1.052-9.431
		c-0.199-0.658,0.834-0.885,1.035-0.233c0.979,3.176,1.068,6.412,1.071,9.707C15.275,301.157,14.22,301.115,14.22,300.431z
		 M15.639,251.302c-0.389-4.005-1.143-7.896-2.471-11.695c-0.226-0.647,0.812-0.873,1.035-0.233
		c1.326,3.802,2.08,7.694,2.469,11.696C16.739,251.741,15.708,251.983,15.639,251.302z M17.404,227.554
		c-1.358-5.449-2.793-10.877-4.235-16.304c-0.176-0.663,0.858-0.896,1.035-0.231c1.438,5.428,2.873,10.857,4.235,16.306
		C18.604,227.987,17.573,228.22,17.404,227.554z M20.238,64.24c0.61-2.756,0.388-5.578,0.685-8.369
		c0.072-0.679,1.133-0.643,1.06,0.04c-0.308,2.888-0.099,5.793-0.728,8.643C21.104,65.225,20.092,64.907,20.238,64.24z
		 M21.288,87.195c-0.356-2.872-0.693-5.743-0.719-8.643c-0.006-0.686,1.053-0.641,1.062,0.043c0.023,2.809,0.343,5.588,0.691,8.369
		C22.405,87.638,21.372,87.878,21.288,87.195z M22.687,149.129c-0.002,0.686-1.062,0.644-1.056-0.041
		c0.033-6.153,0.67-12.28,0.703-18.432c0.004-0.688,1.062-0.643,1.058,0.041C23.357,136.851,22.723,142.978,22.687,149.129z
		 M22.336,117.895c-0.027-2.486-0.33-4.958-0.354-7.441c-0.009-0.686,1.052-0.643,1.06,0.04c0.024,2.488,0.328,4.96,0.354,7.446
		C23.401,118.625,22.342,118.579,22.336,117.895z M24.454,213.592c-0.027-2.567-0.338-5.116-0.695-7.657
		c-0.094-0.676,0.938-0.914,1.033-0.233c0.373,2.635,0.693,5.272,0.719,7.937C25.517,214.321,24.459,214.276,24.454,213.592z
		 M29.042,271.411c0,0.688-1.061,0.641-1.061-0.044c0.001-3.316,0.047-6.621,0.357-9.927c0.058-0.68,1.117-0.641,1.055,0.045
		C29.09,264.788,29.042,268.095,29.042,271.411z M29.051,191.048c-0.686-2.992-1.706-5.891-2.471-8.861
		c-0.17-0.662,0.864-0.896,1.035-0.231c0.762,2.972,1.782,5.868,2.477,8.86C30.243,191.481,29.208,191.716,29.051,191.048z
		 M31.573,170.978c-1.693-3.619-2.131-7.621-3.529-11.344c-0.236-0.634,0.697-1.138,0.937-0.496
		c1.397,3.717,1.838,7.729,3.526,11.342C32.797,171.099,31.866,171.601,31.573,170.978z M34.676,29.546
		c0.357,2.154,0.742,4.297,1.412,6.382c0.213,0.652-0.824,0.879-1.032,0.229c-0.669-2.082-1.054-4.225-1.414-6.38
		C33.531,29.105,34.563,28.867,34.676,29.546z M35.735,113.192c0.354,3.546,0.706,7.089,1.059,10.634
		c0.067,0.673-0.965,0.914-1.035,0.231c-0.353-3.544-0.703-7.089-1.057-10.633C34.633,112.753,35.667,112.511,35.735,113.192z
		 M36.079,225.465c-0.209,0.653-1.225,0.343-1.015-0.309c1.353-4.202,0.726-8.647,0.687-12.979c-0.01-0.688,1.051-0.643,1.056,0.041
		C36.849,216.651,37.458,221.168,36.079,225.465z M37.161,156.927c-0.07,0.678-1.13,0.643-1.06-0.043
		c0.407-4.053,1.671-7.962,1.763-12.052c0.018-0.684,1.074-0.644,1.061,0.043C38.831,148.97,37.569,152.87,37.161,156.927z
		 M41.736,83.776c0.658,2.034,1.027,4.021,0.718,6.16c-0.095,0.672-1.154,0.638-1.058-0.04c0.294-2.052-0.062-3.938-0.694-5.891
		C40.491,83.357,41.526,83.128,41.736,83.776z M41.043,194.453v-8.152c0-0.684,1.058-0.642,1.058,0.044v8.15
		C42.101,195.183,41.043,195.14,41.043,194.453z M42.114,292.415c-1.4-5.206-0.117-10.65-0.705-15.949
		c-0.074-0.673,0.957-0.914,1.032-0.23c0.587,5.285-0.688,10.767,0.707,15.947C43.325,292.847,42.29,293.076,42.114,292.415z
		 M43.172,19.145c-0.394-2.261-1.014-4.474-1.411-6.731c-0.117-0.675,0.915-0.911,1.034-0.233c0.394,2.261,1.017,4.474,1.418,6.733
		C44.323,19.585,43.29,19.823,43.172,19.145z M44.922,37.481c-0.08,0.676-1.141,0.641-1.057-0.044
		c0.297-2.346-0.004-4.624-0.34-6.951c-0.096-0.672,0.938-0.913,1.036-0.23C44.905,32.67,45.227,35.043,44.922,37.481z
		 M46.668,236.81c-0.17,0.664-1.183,0.352-1.014-0.312c1.03-4.013,1.364-8.136,1.389-12.272c0.006-0.686,1.063-0.64,1.059,0.045
		C48.077,228.496,47.721,232.708,46.668,236.81z M99.991,4.121c0-0.685,1.061-0.641,1.061,0.044v9.216
		c0,0.686-1.061,0.642-1.061-0.044V4.121z M94.719,117.761c1.529-5.984,2.088-12.174,2.803-18.293
		c0.077-0.679,1.139-0.644,1.059,0.039c-0.725,6.214-1.293,12.491-2.845,18.565C95.562,118.738,94.551,118.425,94.719,117.761z
		 M98.567,184.08c0.33,2.873,0.363,5.754,0.364,8.646c0,0.686-1.058,0.642-1.058-0.043c0-2.8-0.021-5.59-0.34-8.371
		C97.456,183.64,98.488,183.397,98.567,184.08z M89.036,140.841c0.646,3.635,0.414,7.352,1.061,10.986
		c0.119,0.67-0.913,0.908-1.033,0.231c-0.646-3.636-0.415-7.354-1.061-10.985C87.883,140.397,88.917,140.161,89.036,140.841z
		 M89.036,169.549c0.307,1.646,0.334,3.333,0.707,4.961c0.151,0.671-0.883,0.902-1.035,0.233c-0.371-1.633-0.398-3.319-0.705-4.963
		C87.879,169.108,88.911,168.873,89.036,169.549z M63.269,153.955c1.008,5.024,1.128,10.161,1.765,15.239
		c0.086,0.674-0.943,0.912-1.035,0.229c-0.636-5.074-0.756-10.212-1.76-15.239C62.099,153.515,63.131,153.279,63.269,153.955z
		 M62.209,188.688c0.422,4.565,1.682,9.006,1.781,13.605c0.01,0.686-1.049,0.641-1.064-0.045c-0.094-4.508-1.338-8.855-1.752-13.33
		C61.112,188.247,62.146,188.006,62.209,188.688z M63.281,215.408c0.05,0.683-1.009,0.636-1.061-0.043
		c-0.033-0.5-0.427-1.062-0.644-1.501c-0.306-0.612,0.629-1.113,0.936-0.502C62.833,214.004,63.226,214.679,63.281,215.408z
		 M55.516,60.477c0-0.687,1.059-0.641,1.059,0.044v7.088c0,0.684-1.059,0.642-1.059-0.042V60.477z M50.221,174.25
		c-0.4-5.442-1.35-10.837-1.412-16.303c-0.008-0.686,1.05-0.641,1.062,0.042c0.06,5.469,1.008,10.859,1.407,16.304
		C51.329,174.978,50.271,174.926,50.221,174.25z M50.924,120.73c-0.004-0.685,1.055-0.641,1.06,0.043
		c0.071,6.297,1.363,12.473,2.46,18.65c0.117,0.67-0.914,0.906-1.035,0.229C52.297,133.385,50.999,127.12,50.924,120.73z
		 M54.82,276.466c-0.394-4.165-1.368-8.238-1.765-12.404c-0.062-0.674,0.971-0.916,1.033-0.232c0.396,4.164,1.371,8.24,1.766,12.406
		C55.92,276.909,54.887,277.147,54.82,276.466z M57.646,104.92c-0.761-4.296-2.062-8.466-2.825-12.762
		c-0.117-0.672,0.914-0.909,1.034-0.23c0.763,4.294,2.062,8.464,2.828,12.759C58.799,105.358,57.765,105.596,57.646,104.92z
		 M59.413,32.261c-0.343-2.59-0.369-5.209-0.709-7.799c-0.086-0.674,0.945-0.912,1.034-0.232c0.341,2.591,0.364,5.209,0.706,7.798
		C60.534,32.7,59.499,32.939,59.413,32.261z M62.94,312.265c-1.042-6.387-1.812-12.812-3.179-19.14
		c-0.144-0.67,0.892-0.903,1.036-0.233c1.363,6.328,2.136,12.758,3.177,19.14C64.09,312.705,63.051,312.941,62.94,312.265z
		 M66.458,246.202c-0.365-4.426-1.104-8.745-2.459-12.979c-0.209-0.652,0.826-0.879,1.035-0.231
		c1.385,4.323,2.109,8.735,2.482,13.254C67.572,246.926,66.513,246.878,66.458,246.202z M69.622,125.953
		c0.076,0.673-0.961,0.913-1.033,0.232c-0.366-3.46-0.034-6.947-0.014-10.418c0.006-0.686,1.062-0.642,1.059,0.045
		C69.612,119.184,69.266,122.591,69.622,125.953z M70,15.955c-0.316-2.711-0.39-5.442-0.705-8.15
		c-0.08-0.676,0.953-0.915,1.033-0.232c0.321,2.711,0.389,5.439,0.707,8.152C71.113,16.397,70.081,16.638,70,15.955z M72.105,83.16
		c0-2.443-0.021-4.879-0.342-7.306c-0.089-0.671,0.944-0.914,1.038-0.23c0.33,2.519,0.359,5.041,0.361,7.578
		C73.163,83.892,72.105,83.846,72.105,83.16z M73.881,47.499c-0.709-3.924-1.367-7.836-1.422-11.831
		c-0.008-0.688,1.049-0.642,1.06,0.041c0.051,3.905,0.707,7.727,1.399,11.56C75.04,47.942,74.004,48.176,73.881,47.499z
		 M76.756,151.838c-2.685-5.85-1.547-12.127-1.826-18.348c-0.03-0.684,1.027-0.64,1.059,0.045c0.27,5.997-0.888,12.154,1.704,17.805
		C77.975,151.959,77.043,152.462,76.756,151.838z M77.766,282.492c-0.326-3.185-0.379-6.388-0.706-9.572
		c-0.069-0.671,0.964-0.913,1.032-0.231c0.328,3.186,0.378,6.389,0.707,9.57C78.868,282.933,77.836,283.174,77.766,282.492z
		 M80.931,193.035c-0.423-5.938-2.063-11.688-2.813-17.584c-0.082-0.673,0.948-0.912,1.035-0.231
		c0.762,5.987,2.404,11.824,2.838,17.857C82.038,193.763,80.979,193.713,80.931,193.035z M83.899,111.548
		c-2.568-3.246-2.271-7.465-2.615-11.375c-0.062-0.679,0.998-0.63,1.057,0.044c0.316,3.575-0.023,7.622,2.328,10.601
		C85.09,111.352,84.322,112.083,83.899,111.548z M86.225,19.759c0.324,4.567,0.398,9.148,1.047,13.687
		c0.102,0.675-0.936,0.912-1.033,0.232c-0.662-4.631-0.738-9.303-1.068-13.96C85.12,19.034,86.176,19.082,86.225,19.759z
		 M87.649,303.05c-0.671-4.517-1.074-9.058-1.425-13.607c-0.054-0.683,1.006-0.633,1.06,0.043c0.344,4.459,0.74,8.906,1.399,13.33
		C88.784,303.49,87.75,303.728,87.649,303.05z M87.989,241.592c-0.046-3.061-0.686-6.045-1.048-9.075
		c-0.077-0.672,0.955-0.914,1.036-0.232c0.371,3.122,1.023,6.201,1.07,9.354C89.061,242.321,88,242.276,87.989,241.592z
		 M89.062,212.667c-1.079-3.641-2.052-7.307-2.131-11.124c-0.009-0.687,1.044-0.642,1.06,0.041
		c0.075,3.726,1.055,7.306,2.104,10.853C90.29,213.091,89.256,213.319,89.062,212.667z M90.478,12.057
		c-0.356-2.482-0.712-4.963-1.063-7.444c-0.094-0.671,0.938-0.912,1.033-0.231c0.354,2.482,0.708,4.961,1.061,7.443
		C91.603,12.498,90.57,12.737,90.478,12.057z M91.872,61.937c0.394,4.872,1.373,9.642,2.461,14.396
		c0.151,0.668-0.883,0.901-1.035,0.23c-1.107-4.846-2.084-9.703-2.483-14.668C90.76,61.213,91.819,61.263,91.872,61.937z
		 M94.709,258.744c-1.08-4.265-2.379-8.466-2.479-12.897c-0.021-0.686,1.038-0.642,1.056,0.043c0.1,4.338,1.399,8.452,2.459,12.623
		C95.911,259.176,94.877,259.406,94.709,258.744z M99.7,284.396c-1.316-3.428-1.947-7.388-4.506-10.162
		c-0.461-0.504,0.307-1.231,0.771-0.729c2.644,2.865,3.312,6.855,4.67,10.393C100.877,284.528,99.943,285.036,99.7,284.396z
		 M100.407,145.812c-1.076-2.666-1.498-5.504-2.169-8.287c-0.161-0.665,0.875-0.9,1.034-0.23c0.646,2.685,1.033,5.447,2.07,8.018
		C101.595,145.944,100.663,146.446,100.407,145.812z M101.402,27.514c0-1.139-0.03-2.274-0.646-3.273
		c-0.355-0.583,0.586-1.079,0.938-0.498c0.707,1.151,0.766,2.497,0.77,3.815C102.463,28.243,101.403,28.2,101.402,27.514z
		 M101.756,42.755v-6.38c0-0.685,1.06-0.643,1.06,0.043v6.379C102.815,43.485,101.756,43.441,101.756,42.755z M104.228,218.909
		c-0.396-5.311-1.383-10.542-2.104-15.812c-0.094-0.674,0.941-0.912,1.032-0.229c0.733,5.36,1.729,10.683,2.132,16.086
		C105.338,219.634,104.277,219.586,104.228,218.909z M107.066,127.957c-0.631-3.045-0.708-6.136-1.06-9.215
		c-0.082-0.674,0.953-0.914,1.031-0.231c0.354,3.077,0.432,6.174,1.063,9.214C108.236,128.395,107.204,128.63,107.066,127.957z
		 M109.522,171.415c-0.023-4.354-0.361-8.678-1.046-12.979c-0.108-0.671,0.928-0.909,1.034-0.23
		c0.697,4.389,1.046,8.809,1.068,13.251C110.586,172.146,109.527,172.101,109.522,171.415z M110.581,64.771
		c-0.11,0.668-1.172,0.636-1.059-0.043c0.63-3.743,0.7-7.461,0.014-11.203c-0.125-0.671,0.909-0.908,1.033-0.23
		C111.271,57.122,111.226,60.938,110.581,64.771z M121.511,27.065c0.343,3.428,0.715,6.851,1.062,10.28
		c0.065,0.671-0.969,0.915-1.037,0.229c-0.343-3.427-0.714-6.852-1.06-10.277C120.409,26.625,121.441,26.385,121.511,27.065z
		 M120.454,154.662c0.696,4.198,1.424,8.377,2.822,12.405c0.225,0.646-0.812,0.873-1.035,0.23
		c-1.398-4.029-2.121-8.207-2.824-12.404C119.306,154.223,120.34,153.982,120.454,154.662z M115.877,11.563
		c0.058-0.68,1.115-0.641,1.059,0.045c-0.288,3.398-0.029,6.756,0.338,10.141c0.076,0.672-0.959,0.913-1.031,0.232
		C115.864,18.508,115.581,15.055,115.877,11.563z M114.477,260.162c-0.371-2.767-1.089-5.45-1.766-8.153
		c-0.164-0.664,0.867-0.896,1.033-0.232c0.678,2.703,1.395,5.389,1.768,8.156C115.599,260.603,114.566,260.842,114.477,260.162z
		 M116.569,89.093c0.646,3.659,1.098,7.357,2.424,10.854c0.235,0.633-0.695,1.138-0.938,0.499c-1.361-3.594-1.854-7.357-2.52-11.122
		C115.418,88.649,116.452,88.415,116.569,89.093z M117.629,129.499c1.054,3.373,1.396,6.891,1.425,10.414
		c0.005,0.687-1.056,0.643-1.06-0.04c-0.025-3.439-0.371-6.853-1.398-10.144C116.39,129.074,117.424,128.848,117.629,129.499z
		 M119.756,225.334c-0.108,0.665-1.168,0.634-1.057-0.044c0.59-3.58-0.33-7.009-1.048-10.498c-0.137-0.668,0.896-0.904,1.034-0.229
		C119.42,218.142,120.362,221.663,119.756,225.334z M120.831,193.883c-0.785-4.089-2.07-8.046-3.178-12.052
		c-0.182-0.662,0.854-0.893,1.035-0.23c1.105,4.006,2.391,7.965,3.182,12.051C121.995,194.322,120.961,194.558,120.831,193.883z
		 M125.774,261.226c-0.756-6.104-2.131-12.093-3.533-18.074c-0.154-0.67,0.879-0.903,1.035-0.233c1.4,5.983,2.775,11.97,3.53,18.077
		C126.888,261.666,125.855,261.906,125.774,261.226z M129.642,20.426c0.323-3.401,0.012-6.805-0.692-10.143
		c-0.141-0.669,0.893-0.903,1.035-0.229c0.719,3.42,1.051,6.927,0.719,10.414C130.638,21.146,129.583,21.109,129.642,20.426z
		 M131.42,175.451c-0.364-2.951-0.694-5.908-1.058-8.858c-0.083-0.678,0.948-0.914,1.031-0.234c0.366,2.955,0.694,5.908,1.06,8.861
		C132.538,175.894,131.504,176.135,131.42,175.451z M131.761,139.162c-0.025-3.573-0.419-7.057-1.397-10.497
		c-0.189-0.658,0.846-0.888,1.031-0.229c1.004,3.525,1.4,7.109,1.425,10.769C132.825,139.891,131.767,139.847,131.761,139.162z
		 M199.875,74.561c1,2.812,1.388,5.668,1.068,8.641c-0.07,0.681-1.131,0.641-1.058-0.042c0.309-2.885-0.076-5.641-1.048-8.368
		C198.61,74.147,199.646,73.921,199.875,74.561z M193.556,182.978c0.192-0.66,1.204-0.349,1.013,0.311
		c-0.842,2.919-0.314,6.4,0.363,9.298c0.156,0.668-0.876,0.901-1.034,0.231C193.174,189.743,192.665,186.065,193.556,182.978z
		 M189.991,42.66c1.369,3.946,2.079,8.012,2.131,12.189c0.008,0.687-1.051,0.641-1.061-0.041c-0.053-4.093-0.768-8.056-2.105-11.916
		C188.73,42.246,189.769,42.02,189.991,42.66z M191.708,92.504c0.256,0.625-0.676,1.134-0.937,0.496
		c-1.169-2.857-1.753-5.853-1.097-8.91c0.144-0.672,1.152-0.355,1.013,0.312C190.094,87.162,190.653,89.928,191.708,92.504z
		 M181.885,13.024c0.307,3.903,0.152,7.798,1.398,11.56c0.215,0.65-0.818,0.878-1.029,0.232c-1.278-3.855-1.113-7.833-1.428-11.834
		C180.772,12.3,181.831,12.35,181.885,13.024z M157.529,81.432c0.007,0.686-1.052,0.641-1.059-0.041
		c-0.085-6.896-1.722-13.646-2.812-20.423c-0.109-0.673,0.922-0.91,1.032-0.229C155.797,67.606,157.442,74.444,157.529,81.432z
		 M155.058,37.084c0-0.687,1.06-0.643,1.06,0.044c0,3.504,0.02,7,0.338,10.496c0.066,0.672-0.969,0.912-1.031,0.229
		C155.094,44.27,155.059,40.681,155.058,37.084z M143.409,28.62c0,2.917,0.037,5.822,0.344,8.726
		c0.064,0.672-0.969,0.915-1.037,0.229c-0.312-2.994-0.364-5.987-0.364-8.999C142.351,27.893,143.409,27.936,143.409,28.62z
		 M135.622,60.654c-1.014,4.027-1.031,8.143-1.031,12.271c-0.006,0.688-1.063,0.644-1.063-0.042c0-4.221,0.05-8.425,1.081-12.537
		C134.775,59.678,135.792,59.992,135.622,60.654z M137.738,95.74c-0.692,2.521-1.013,5.058-1.036,7.666
		c-0.006,0.688-1.062,0.645-1.06-0.043c0.022-2.698,0.366-5.33,1.083-7.931C136.907,94.769,137.92,95.081,137.738,95.74z
		 M138.834,225.073c-0.615-3.404-0.447-6.879-1.06-10.281c-0.123-0.671,0.911-0.906,1.033-0.229c0.612,3.4,0.444,6.877,1.058,10.275
		C139.989,225.513,138.956,225.749,138.834,225.073z M142.715,299.563c-1.278-4.098-1.11-8.301-1.424-12.526
		c-0.049-0.66,1.01-0.614,1.06,0.044c0.306,4.128,0.149,8.252,1.401,12.256C143.954,299.974,142.915,300.196,142.715,299.563z
		 M144.467,179.214c0.021-6.027,0.338-12.05,0.354-18.074c0.001-0.688,1.06-0.646,1.056,0.041
		c-0.019,6.025-0.332,12.045-0.351,18.075C145.524,179.94,144.467,179.897,144.467,179.214z M146.583,265.03
		c0,0.685-1.059,0.642-1.059-0.047v-11.338c0-0.688,1.059-0.644,1.059,0.043V265.03z M149.068,208.415
		c-0.985-4.609-1.069-9.264-1.071-13.962c0-0.685,1.063-0.642,1.063,0.042c0,4.604,0.075,9.169,1.043,13.688
		C150.247,208.853,149.213,209.088,149.068,208.415z M151.176,131.364c-0.002-2.859-0.102-5.647-1.047-8.368
		c-0.227-0.647,0.811-0.874,1.035-0.234c0.975,2.814,1.067,5.695,1.068,8.645C152.233,132.094,151.176,132.049,151.176,131.364z
		 M153.985,11.473c0.37,3.491,1.072,6.873,3.128,9.788c0.394,0.56-0.542,1.052-0.937,0.5c-2.105-2.99-2.846-6.474-3.225-10.06
		C152.881,11.027,153.917,10.786,153.985,11.473z M155.422,154.539c-0.981-2.758-1.4-5.611-1.764-8.507
		c-0.084-0.672,0.949-0.913,1.033-0.23c0.361,2.896,0.782,5.746,1.764,8.508C156.687,154.953,155.65,155.178,155.422,154.539z
		 M157.529,238.801c-0.004,0.687-1.059,0.644-1.059-0.042c0.022-4.846,0.331-9.685,0.354-14.533c0.002-0.686,1.059-0.64,1.057,0.045
		C157.859,229.116,157.551,233.956,157.529,238.801z M157.176,113.642c0-3.504-0.018-7.003-0.342-10.494
		c-0.062-0.673,0.973-0.915,1.037-0.232c0.328,3.584,0.36,7.172,0.362,10.771C158.234,114.371,157.176,114.327,157.176,113.642z
		 M160.706,267.156c-0.082,0.674-1.145,0.639-1.061-0.044c0.658-5.242,0.812-10.527,1.789-15.729
		c0.128-0.675,1.139-0.354,1.013,0.312C161.485,256.804,161.353,262.006,160.706,267.156z M166.719,184.668
		c-0.346-3.806-0.719-7.606-2.068-11.206c-0.236-0.637,0.695-1.145,0.936-0.505c1.389,3.706,1.81,7.562,2.168,11.478
		C167.814,185.106,166.786,185.351,166.719,184.668z M168.482,208.415c-0.379-1.672-0.362-3.396-0.362-5.102
		c0-0.686,1.057-0.642,1.057,0.043c0,1.615-0.021,3.244,0.342,4.826C169.668,208.851,168.638,209.085,168.482,208.415z
		 M170.954,81.88c-0.632-3.563-0.408-7.177-0.717-10.771c-0.059-0.68,1.006-0.632,1.057,0.043c0.301,3.502,0.08,7.025,0.699,10.497
		C172.107,82.319,171.075,82.559,170.954,81.88z M173.388,294.937c-0.681,2.977-0.681,6.043-0.683,9.082
		c0,0.685-1.06,0.643-1.06-0.043c0.002-3.136,0.026-6.279,0.729-9.352C172.529,293.955,173.542,294.271,173.388,294.937z
		 M173.072,152.768c-0.348-3.473-0.715-6.935-1.766-10.28c-0.203-0.65,0.829-0.881,1.036-0.23c1.053,3.343,1.416,6.807,1.764,10.28
		C174.174,153.209,173.145,153.451,173.072,152.768z M173.778,46.79c-0.383-2.181-1.068-4.278-1.765-6.38
		c-0.216-0.648,0.817-0.876,1.034-0.229c0.697,2.096,1.377,4.195,1.764,6.38C174.932,47.23,173.898,47.468,173.778,46.79z
		 M177.309,236.771c-1.027-4-1.331-7.93-0.344-11.969c0.164-0.669,1.175-0.354,1.014,0.309c-0.945,3.865-0.621,7.606,0.363,11.43
		C178.513,237.2,177.479,237.433,177.309,236.771z M181.19,116.26c-0.35-3.884-0.672-7.749,0.016-11.612
		c0.115-0.676,1.127-0.355,1.01,0.312c-0.651,3.671-0.322,7.381,0.012,11.068C182.286,116.701,181.256,116.944,181.19,116.26z
		 M182.249,287.453c-0.343-2.403-0.692-4.792-0.718-7.226c-0.006-0.685,1.052-0.644,1.06,0.041c0.022,2.342,0.361,4.641,0.691,6.951
		C183.379,287.896,182.346,288.134,182.249,287.453z M185.062,204.022c-0.078-5.539-1.399-10.844-2.808-16.164
		c-0.182-0.664,0.855-0.896,1.029-0.233c1.438,5.41,2.756,10.81,2.836,16.44C186.131,204.752,185.071,204.709,185.062,204.022z
		 M188.604,139.652c-0.982-4.384-0.729-8.806-0.365-13.25c0.057-0.682,1.114-0.644,1.061,0.042
		c-0.356,4.353-0.625,8.681,0.341,12.979C189.788,140.089,188.756,140.325,188.604,139.652z M189.661,155.959
		c-0.232-0.644,0.809-0.866,1.037-0.233c1.359,3.695,1.447,7.599,1.775,11.479c0.059,0.683-1.001,0.632-1.053-0.044
		C191.094,163.365,190.993,159.567,189.661,155.959z M192.122,293.694c-0.024-3.276-0.336-6.531-0.693-9.785
		c-0.075-0.674,0.959-0.915,1.033-0.233c0.367,3.347,0.692,6.694,0.721,10.062C193.186,294.424,192.125,294.38,192.122,293.694z
		 M193.886,267.112c-0.406-5.571-1.662-11.045-1.412-16.658c0.03-0.686,1.089-0.643,1.058,0.045
		c-0.248,5.605,1.008,11.086,1.413,16.657C194.993,267.838,193.934,267.79,193.886,267.112z M199.192,230.742
		c-1.008-6.649,0.079-13.929-3.127-20.067c-0.316-0.609,0.617-1.107,0.936-0.501c3.267,6.255,2.201,13.58,3.227,20.339
		C200.333,231.185,199.295,231.423,199.192,230.742z M200.958,130.438c-0.939-3.122-0.774-6.39-1.41-9.566
		c-0.133-0.673,0.897-0.91,1.033-0.236c0.633,3.178,0.471,6.45,1.412,9.569C202.19,130.86,201.157,131.091,200.958,130.438z
		 M204.475,149.482c0.003,4.362,0.064,8.705,1.049,12.979c0.152,0.666-0.879,0.899-1.033,0.229c-1.003-4.359-1.07-8.796-1.072-13.25
		C203.418,148.756,204.475,148.795,204.475,149.482z M204.818,185.146c0.657,3.912,0.733,7.938,2.115,11.696
		c0.237,0.64-0.8,0.866-1.033,0.23c-1.382-3.759-1.457-7.783-2.119-11.698C203.668,184.701,204.704,184.467,204.818,185.146z
		 M206.946,261.089c-0.051-3.527-0.672-6.999-1.046-10.496c-0.071-0.674,0.962-0.912,1.033-0.232
		c0.384,3.595,1.019,7.149,1.071,10.771C208.014,261.815,206.956,261.772,206.946,261.089z M207.01,54.369
		c-1.754-2.863-2.141-6.548-2.182-9.842c-0.009-0.687,1.051-0.641,1.062,0.043c0.033,3.095,0.402,6.604,2.054,9.297
		C208.301,54.454,207.364,54.949,207.01,54.369z M209.418,108.326c0-2.798-0.02-5.588-0.34-8.37
		c-0.078-0.674,0.955-0.913,1.032-0.229c0.33,2.873,0.364,5.753,0.364,8.642C210.476,109.053,209.418,109.011,209.418,108.326z
		 M209.43,31.197c-0.717-2.347-0.717-4.796-0.717-7.227c0-0.687,1.058-0.645,1.059,0.042c0,2.344,0.003,4.69,0.691,6.953
		C210.663,31.62,209.631,31.849,209.43,31.197z M216.112,75.624c0.686,2.231,0.719,4.556,0.719,6.87
		c0,0.687-1.059,0.644-1.061-0.041c0-2.228-0.032-4.451-0.691-6.599C214.877,75.201,215.913,74.971,216.112,75.624z
		 M216.112,152.183c0.33,3.31,0.694,6.616,1.059,9.921c0.076,0.674-0.959,0.914-1.033,0.232c-0.366-3.306-0.727-6.612-1.059-9.924
		C215.011,151.741,216.043,151.5,216.112,152.183z M216.125,296.179c-0.399-5.576-1.713-11.324,0.021-16.795
		c0.208-0.652,1.217-0.342,1.014,0.312c-1.703,5.369-0.371,11.048,0.023,16.523C217.232,296.905,216.172,296.854,216.125,296.179z
		 M220.01,189.89c-0.09,0.674-1.149,0.639-1.062-0.041c0.627-4.854,0.348-9.673,0-14.535c-0.047-0.684,1.014-0.635,1.062,0.045
		C220.354,180.217,220.633,185.039,220.01,189.89z M227.795,23.128c0.236-0.642,1.252-0.336,1.015,0.309
		c-0.656,1.784-0.683,3.66-0.683,5.539c-0.004,0.686-1.058,0.642-1.058-0.042C227.07,26.964,227.111,24.995,227.795,23.128z
		 M224.254,129.729c-0.131-0.672,0.904-0.905,1.035-0.23c1.058,5.431,1.742,10.917,2.133,16.439c0.05,0.683-1.012,0.634-1.062-0.041
		C225.982,140.466,225.295,135.071,224.254,129.729z M226.726,266.541c-0.675-6.25-0.448-12.56-1.407-18.783
		c-0.104-0.675,0.926-0.911,1.029-0.233c0.964,6.229,0.738,12.535,1.412,18.785C227.833,266.981,226.801,267.226,226.726,266.541z
		 M228.81,206.327c-0.737,3.609-1.636,7.138-1.388,10.854c0.043,0.685-1.016,0.635-1.062-0.041
		c-0.249-3.813,0.677-7.42,1.435-11.121C227.936,205.345,228.944,205.66,228.81,206.327z M229.249,68.191
		c-1.975-4.685-1.615-9.804-2.873-14.666c-0.174-0.663,0.861-0.895,1.031-0.23c1.233,4.757,0.848,9.815,2.774,14.396
		C230.446,68.319,229.514,68.824,229.249,68.191z M230.598,168.935c0-6.226-0.008-12.455-0.694-18.646
		c-0.075-0.672,0.957-0.914,1.034-0.231c0.697,6.286,0.717,12.604,0.719,18.922C231.657,169.662,230.598,169.62,230.598,168.935z
		 M233.422,45.945c0.666-4.345,0.722-8.74,1.06-13.116c0.054-0.681,1.108-0.641,1.06,0.045c-0.338,4.376-0.393,8.769-1.06,13.114
		C234.381,46.658,233.317,46.623,233.422,45.945z M235.187,236.983c-0.054-3.901-0.706-7.727-1.397-11.559
		c-0.123-0.67,0.91-0.906,1.031-0.23c0.713,3.923,1.368,7.838,1.424,11.836C236.252,237.714,235.194,237.67,235.187,236.983z
		 M235.551,13.119c-0.393-4.177-1.342-8.341-0.719-12.541c0.102-0.671,1.158-0.638,1.059,0.042
		c-0.607,4.107,0.312,8.179,0.693,12.27C236.647,13.561,235.616,13.803,235.551,13.119z M237.329,105.003
		c1.008-3.908,1.379-7.908,1.739-11.916c0.062-0.683,1.121-0.644,1.06,0.042c-0.371,4.098-0.76,8.187-1.787,12.183
		C238.168,105.978,237.159,105.663,237.329,105.003z M238.729,130.793c-0.325-2.474-0.379-4.971-0.705-7.444
		c-0.087-0.672,0.943-0.911,1.033-0.229c0.324,2.472,0.382,4.969,0.706,7.442C239.85,131.232,238.818,131.474,238.729,130.793z
		 M242.222,270.126c-0.671,3.006-1.341,5.986-1.386,9.08c-0.014,0.688-1.071,0.646-1.061-0.043c0.049-3.188,0.744-6.252,1.434-9.35
		C241.358,269.146,242.372,269.461,242.222,270.126z M242.929,69.87c-0.185,0.661-1.19,0.348-1.013-0.312
		c0.689-2.513,1.062-5.079,1.389-7.663c0.089-0.676,1.145-0.64,1.059,0.042C244.026,64.608,243.644,67.271,242.929,69.87z
		 M246.129,213.283c-0.067,0.678-1.127,0.639-1.062-0.044c0.345-3.434,0.647-6.831,0.354-10.279
		c-0.059-0.682,1.002-0.631,1.06,0.042C246.774,206.451,246.47,209.851,246.129,213.283z M277.545,31.059
		c0.062-0.68,1.121-0.642,1.06,0.043c-0.338,3.661-0.292,7.285,0.69,10.85c0.186,0.661-0.852,0.892-1.033,0.233
		C277.254,38.531,277.202,34.811,277.545,31.059z M264.836,31.456c0.018,6.742,0.354,13.473,0.705,20.201
		c0.037,0.687-1.02,0.641-1.059-0.042c-0.352-6.729-0.688-13.46-0.706-20.202C263.777,30.728,264.834,30.771,264.836,31.456z
		 M248.963,126.185c-0.354-3.19-0.705-6.38-1.057-9.569c-0.076-0.674,0.957-0.915,1.032-0.232c0.354,3.19,0.705,6.379,1.063,9.57
		C250.073,126.626,249.04,126.866,248.963,126.185z M251.838,177.003c-1.973-4.793-0.867-9.779-1.121-14.803
		c-0.034-0.686,1.023-0.637,1.06,0.043c0.242,4.788-0.886,9.684,0.996,14.26C253.032,177.131,252.1,177.638,251.838,177.003z
		 M253.54,38.501c0.338-5.376,0.379-10.782,1.437-16.082c0.135-0.674,1.146-0.355,1.013,0.311
		c-1.037,5.207-1.057,10.532-1.39,15.816C254.56,39.227,253.499,39.188,253.54,38.501z M255.284,255.593
		c-0.16,0.668-1.171,0.354-1.016-0.312c0.702-2.946,0.984-5.921,0.695-8.94c-0.062-0.674,0.971-0.916,1.035-0.234
		C256.306,249.317,256.027,252.461,255.284,255.593z M257.778,302.601c0,0.687-1.059,0.641-1.059-0.043v-4.963
		c0-0.686,1.059-0.644,1.059,0.043V302.601z M261.019,112.494c-2.104-5.511-2.854-11.323-3.582-17.146
		c-0.085-0.675,0.949-0.913,1.033-0.23c0.711,5.713,1.415,11.467,3.481,16.878C262.192,112.631,261.262,113.137,261.019,112.494z
		 M263.061,134.461c0.221,2.376,1.365,4.481,1.465,6.892c0.116,2.799-0.188,5.637,0.652,8.349c0.201,0.653-0.834,0.885-1.033,0.23
		c-0.803-2.58-0.534-5.18-0.645-7.842c-0.109-2.62-1.229-4.815-1.476-7.4C261.961,134.019,262.997,133.775,263.061,134.461z
		 M263.096,194.673c0.682-3.339,0.72-6.759,1.035-10.145c0.063-0.68,1.121-0.643,1.06,0.043c-0.325,3.479-0.382,6.98-1.081,10.414
		C263.974,195.658,262.959,195.341,263.096,194.673z M265.907,230.39c-0.74-3.924-1-7.877-0.365-11.836
		c0.107-0.666,1.168-0.634,1.061,0.047c-0.624,3.866-0.387,7.719,0.34,11.558C267.069,230.827,266.034,231.063,265.907,230.39z
		 M269.403,62.779c-1.699,5.732-2.076,11.639-2.097,17.588c-0.002,0.688-1.06,0.645-1.058-0.042
		c0.021-6.043,0.414-12.039,2.14-17.854C268.584,61.812,269.599,62.123,269.403,62.779z M268.72,15.108
		c-0.362-4.723-0.683-9.439-0.705-14.178c-0.004-0.686,1.056-0.641,1.06,0.043c0.021,4.74,0.344,9.456,0.707,14.18
		C269.833,15.834,268.772,15.787,268.72,15.108z M276.547,113.205c-2.969-5.726-1.205-12.549-1.476-18.704
		c-0.028-0.683,1.03-0.637,1.06,0.044c0.26,5.932-1.504,12.655,1.351,18.16C277.797,113.314,276.862,113.814,276.547,113.205z
		 M278.243,177.701c0.084,0.675-0.949,0.914-1.039,0.231c-0.347-2.643-0.358-5.291-0.012-7.936c0.09-0.675,1.148-0.639,1.059,0.043
		C277.918,172.59,277.903,175.149,278.243,177.701z M278.958,143.77c-0.088-5.11-1.352-10.072-2.106-15.104
		c-0.101-0.673,0.933-0.912,1.034-0.229c0.767,5.123,2.039,10.173,2.132,15.376C280.026,144.499,278.969,144.451,278.958,143.77z
		 M281.075,276.019c-0.078,0.674-1.14,0.64-1.059-0.043c0.639-5.422,0.732-10.889,1.41-16.307c0.085-0.672,1.145-0.639,1.059,0.044
		C281.806,265.128,281.713,270.595,281.075,276.019z M282.827,200.384c0.088,0.676-0.943,0.912-1.035,0.231
		c-0.315-2.409-0.379-4.819-0.013-7.224c0.104-0.672,1.162-0.639,1.06,0.043C282.485,195.749,282.52,198.063,282.827,200.384z
		 M282.148,14.538c-0.362-1.152-0.429-2.373-0.708-3.545c-0.158-0.667,0.873-0.9,1.034-0.23c0.278,1.172,0.347,2.391,0.706,3.544
		C283.385,14.96,282.349,15.188,282.148,14.538z M294.842,165.035c0.072-0.677,1.132-0.642,1.059,0.042
		c-0.699,6.482-1.053,12.988-1.414,19.494c-0.035,0.685-1.096,0.644-1.059-0.043C293.79,178.022,294.143,171.517,294.842,165.035z
		 M294.135,249.789c-0.285,4.969,0.309,9.915,0.352,14.887c0.008,0.685-1.052,0.642-1.059-0.043
		c-0.045-4.969-0.637-9.916-0.354-14.886C293.116,249.062,294.172,249.103,294.135,249.789z M291.297,4.381
		c0.322,2.758,0.365,5.517,0.367,8.291c0,0.686-1.055,0.642-1.055-0.045c0-2.681-0.033-5.348-0.346-8.015
		C290.188,3.941,291.22,3.7,291.297,4.381z M288.862,56.798c1.648-7.11,0.829-14.504,2.475-21.62
		c0.152-0.669,1.166-0.354,1.011,0.31c-1.64,7.114-0.827,14.508-2.472,21.622C289.721,57.779,288.711,57.464,288.862,56.798z
		 M290.61,148.42c0.051,0.681-1.01,0.632-1.064-0.043c-0.312-3.805,0.556-8.31-1.35-11.779c-0.33-0.601,0.604-1.1,0.934-0.5
		C291.146,139.761,290.275,144.415,290.61,148.42z M287.075,72.57c0.338,4.719,0.735,9.413,1.754,14.04
		c0.146,0.67-0.888,0.902-1.037,0.232c-1.035-4.715-1.432-9.507-1.776-14.313C285.967,71.845,287.027,71.894,287.075,72.57z
		 M290.877,211.06c-1.664,2.89-1.75,6.248-2.412,9.444c-0.141,0.673-1.152,0.354-1.014-0.31c0.682-3.307,0.805-6.709,2.525-9.694
		C290.321,209.903,291.22,210.466,290.877,211.06z M289.9,116.478c0.498-5.177,3.022-10.201,2.129-15.458
		c-0.114-0.672,0.917-0.909,1.033-0.231c0.918,5.396-1.593,10.436-2.103,15.731C290.892,117.199,289.833,117.163,289.9,116.478z
		 M293.428,301.892c-0.061,0.681-1.12,0.643-1.059-0.045c0.373-4.166,1.077-8.281,1.766-12.404c0.111-0.666,1.171-0.633,1.06,0.043
		C294.504,293.606,293.801,297.724,293.428,301.892z M296.959,231.712c-0.002,0.688-1.06,0.643-1.06-0.042
		c0.001-2.96,0.019-5.919,0.353-8.862c0.076-0.675,1.138-0.639,1.06,0.043C296.975,225.796,296.959,228.752,296.959,231.712z
		 M299.088,29.425c-0.717-4.869-1.612-9.544-0.695-14.449c0.13-0.674,1.139-0.354,1.016,0.31c-0.883,4.7,0.028,9.252,0.717,13.906
		C300.224,29.865,299.189,30.102,299.088,29.425z M299.452,61.052c0.639-3.117,0.682-6.266,0.682-9.437
		c0.004-0.684,1.06-0.642,1.06,0.042c0,3.268-0.067,6.497-0.726,9.704C300.329,62.036,299.316,61.719,299.452,61.052z
		 M303.325,274.338c-1.732-4.998-2.793-10.098-3.191-15.378c-0.049-0.684,1.011-0.633,1.06,0.044
		c0.392,5.183,1.466,10.196,3.167,15.104C304.583,274.752,303.545,274.979,303.325,274.338z M303.679,144.969
		c-1.901-6.631-0.488-13.459-1.412-20.201c-0.091-0.675,0.938-0.912,1.034-0.232c0.926,6.732-0.484,13.586,1.41,20.202
		C304.9,145.398,303.866,145.627,303.679,144.969z M304.396,85.507c0.606-3.34-0.345-6.691-0.717-10.008
		c-0.075-0.674,0.956-0.913,1.032-0.23c0.397,3.522,1.342,7.001,0.695,10.55C305.286,86.494,304.273,86.174,304.396,85.507z
		 M305.443,95.703c-0.13-0.672,0.904-0.906,1.04-0.23c0.695,3.642,1.117,7.332,1.76,10.985c0.115,0.675-0.914,0.908-1.033,0.232
		C306.565,103.035,306.144,99.347,305.443,95.703z M307.547,209.737c-0.104,0.67-1.164,0.638-1.059-0.043
		c0.983-6.342,0.76-12.77,1.413-19.141c0.065-0.679,1.128-0.641,1.058,0.043C308.307,196.967,308.528,203.397,307.547,209.737z
		 M313.536,302.106c0.195,0.658-0.842,0.887-1.035,0.232c-1.424-4.854-3.406-9.545-3.541-14.67
		c-0.017-0.688,1.041-0.639,1.061,0.044C310.147,292.735,312.142,297.353,313.536,302.106z M310.726,244.826
		c0.004,0.687-1.056,0.644-1.06-0.044c-0.021-4.855-0.271-9.696,0.354-14.529c0.088-0.675,1.146-0.641,1.059,0.041
		C310.454,235.127,310.704,239.968,310.726,244.826z M310.35,43.285c-0.127,0.675-1.143,0.357-1.014-0.309
		c0.707-3.703,1.053-7.457,1.39-11.211c0.062-0.678,1.12-0.642,1.06,0.045C311.437,35.655,311.075,39.493,310.35,43.285z"/>
</g>
</svg>
