<?xml version="1.0" encoding="utf-8"?>
<!-- Generator: Adobe Illustrator 16.0.0, SVG Export Plug-In . SVG Version: 6.00 Build 0)  -->
<!DOCTYPE svg PUBLIC "-//W3C//DTD SVG 1.1//EN" "http://www.w3.org/Graphics/SVG/1.1/DTD/svg11.dtd">
<svg version="1.1" xmlns="http://www.w3.org/2000/svg" xmlns:xlink="http://www.w3.org/1999/xlink" x="0px" y="0px"
	 width="982.61px" height="106.345px" viewBox="0 0 982.61 106.345" enable-background="new 0 0 982.61 106.345"
	 xml:space="preserve">
<g id="grid" display="none">
</g>
<g id="Layer_1">
	<path fill="#EDEDED" d="M982.61-12.241H0.207v43.724C0.085,31.79-0.003,32.124,0,32.514C0.097,47.169,1.729,61.79,5.405,75.997
		c0.535,2.072,4.09,2.543,4.859,0.373c3.098-8.71,7.674-16.785,10.963-25.386c3.596,8.152,8.796,15.571,11.445,24.139
		c0.62,2.01,4.051,2.601,4.86,0.373c3.668-10.083,10.034-18.86,14.475-28.578c5.878,10.958,15.956,19.446,21.128,30.826
		c0.983,2.162,4.686,2.575,5.096-0.289c1.203-8.425,5.598-15.936,8.543-23.891c6.032,10.299,15.74,17.896,21.834,28.282
		c1.234,2.105,4.258,1.208,4.806-0.894c1.943-7.454,5.999-14.11,8.729-21.279c7.266,10.318,18.704,17.378,25.169,28.292
		c1.204,2.031,4.34,1.282,4.808-0.896c1.647-7.705,5.241-14.757,7.778-22.169c5.12,8.445,12.564,15.16,17.322,23.938
		c1.127,2.084,4.381,1.241,4.806-0.895c1.911-9.609,6.666-18.302,9.599-27.596c5.722,10.034,14.766,18.074,19.9,28.491
		c1.045,2.124,4.436,1.212,4.806-0.895c1.466-8.35,4.466-16.285,6.739-24.413c4.017,8.501,10.135,15.842,13.674,24.703
		c1.035,2.591,4.268,2.166,5.096-0.29c3.312-9.829,9.724-18.374,13.496-27.975c4.68,10.844,11.703,20.613,15.714,31.761
		c0.9,2.499,4.479,2.277,5.097-0.29c2.23-9.302,6.661-17.866,9.722-26.871c2.732,8.522,6.351,16.786,7.925,25.628
		c0.486,2.728,4.693,3.532,5.221,0.369c2.116-12.658,8.478-24.111,12.587-36.229c4.163,9.928,10.509,18.973,13.104,29.526
		c0.547,2.22,3.944,2.382,4.862,0.374c5.707-12.492,15.531-22.769,21.216-35.205c4.989,12.169,14.148,21.875,19.663,33.957
		c0.843,1.848,3.893,2.729,4.86,0.373c3.93-9.562,10.007-17.917,14.33-27.192c2.806,10.71,8.104,20.551,11.595,31.19
		c0.87,2.651,4.378,2.124,5.097-0.291c3.412-11.485,11.101-21.087,15.744-32.019c4.29,11.377,11.571,21.514,15.226,33.182
		c0.65,2.078,3.956,2.526,4.859,0.374c4.515-10.738,11.046-20.433,15.499-31.055c2.066,11.583,6.393,22.62,8.541,34.394
		c0.407,2.219,3.953,3.78,4.988,1.033c4.871-12.938,13.496-24.118,18.674-36.807c2.805,12.019,8.354,23.344,10.77,35.559
		c0.48,2.432,3.844,2.137,4.861,0.374c7.224-12.519,16.207-24.306,21.822-37.609c1.766,10.173,4.79,20.122,5.735,30.459
		c0.23,2.525,3.812,3.454,4.987,1.031c6.229-12.821,14.39-24.739,19.756-37.876c2.324,14.413,8.24,27.987,13.207,41.873
		c0.84,2.351,3.605,2.196,4.861,0.374c8.33-12.097,19.213-22.5,25.897-35.462c1.683,11.49,4.939,22.774,5.179,34.43
		c0.055,2.675,3.805,3.271,4.987,1.032c6.904-13.067,13.535-26.307,18.773-40.097c1.267,12.805,5.087,25.222,8.03,37.974
		c0.426,1.838,3.314,2.48,4.461,0.954c8.28-11.037,14.233-23.524,18.404-36.602c1.197,13.863,4.785,27.419,11.73,39.75
		c1.016,1.806,3.671,1.416,4.572-0.232c6.362-11.631,14.75-22.267,20.5-34.155c1.035,15.36,5.457,30.664,14.511,43.126
		c0.996,1.372,2.965,1.639,4.169,0.347c11.506-12.359,20.554-26.538,27.45-41.804c1.457,12.654,5.726,24.769,7.548,37.57
		c0.287,2.02,3.072,3.585,4.586,1.611c10.862-14.166,18.606-30.17,25.125-46.667c3.244,13.921,10.337,26.691,14.396,40.47
		c0.791,2.684,4.418,2.097,5.097-0.291c4.232-14.939,12.974-28.098,17.959-42.726c5.841,13.709,15.028,25.935,19.166,40.395
		c0.772,2.697,4.423,2.086,5.097-0.29c3.279-11.616,8.222-22.588,10.754-34.234c4.813,13.075,13.119,26.839,25.86,30.786
		c15.466,4.795,21.374-11.469,23.696-25.195c3.209,7.277,7.06,14.302,9.359,21.941c0.742,2.468,4.69,2.323,5.095-0.29
		c1.733-11.232,6.165-21.797,8.762-32.8c3.413,9.242,7.737,18.176,9.894,27.846c0.567,2.545,4.775,2.257,5.096-0.289
		c1.572-12.544,5.396-24.629,7.942-36.974c4.986,11.493,12.86,21.853,16.868,33.768c0.581,1.724,3.233,2.59,4.46,0.953
		c8.142-10.876,11.548-23.016,10.954-35.648h0.373V-12.241z"/>
</g>
</svg>
