<?xml version="1.0" encoding="utf-8"?>
<!-- Generator: Adobe Illustrator 16.0.0, SVG Export Plug-In . SVG Version: 6.00 Build 0)  -->
<!DOCTYPE svg PUBLIC "-//W3C//DTD SVG 1.1//EN" "http://www.w3.org/Graphics/SVG/1.1/DTD/svg11.dtd">
<svg version="1.1" xmlns="http://www.w3.org/2000/svg" xmlns:xlink="http://www.w3.org/1999/xlink" x="0px" y="0px"
	 width="982.61px" height="106.345px" viewBox="0 0 982.61 106.345" enable-background="new 0 0 982.61 106.345"
	 xml:space="preserve">
<g id="grid">
</g>
<g id="Layer_1">
	<g>
		<path fill="#FFFFFF" d="M971.283,55.806c-1.227,1.637-3.879,0.771-4.46-0.953c-4.008-11.915-11.882-22.275-16.868-33.768
			c-2.547,12.344-6.37,24.43-7.942,36.974c-0.32,2.546-4.528,2.834-5.096,0.289c-2.156-9.67-6.48-18.604-9.894-27.846
			c-2.597,11.003-7.028,21.568-8.762,32.8c-0.404,2.612-4.353,2.758-5.095,0.29c-2.3-7.64-6.15-14.664-9.359-21.941
			c-2.322,13.727-8.23,29.99-23.696,25.195c-12.741-3.947-21.047-17.711-25.86-30.786c-2.532,11.646-7.475,22.619-10.754,34.235
			c-0.674,2.376-4.324,2.987-5.097,0.29c-4.138-14.46-13.325-26.686-19.166-40.395c-4.985,14.628-13.727,27.787-17.959,42.726
			c-0.679,2.388-4.306,2.974-5.097,0.291c-4.06-13.779-11.152-26.549-14.396-40.47c-6.519,16.497-14.263,32.501-25.125,46.667
			c-1.514,1.973-4.299,0.408-4.586-1.612c-1.822-12.801-6.091-24.916-7.548-37.569c-6.896,15.266-15.944,29.443-27.45,41.803
			c-1.204,1.292-3.173,1.024-4.169-0.347c-9.054-12.462-13.476-27.767-14.511-43.126c-5.75,11.888-14.138,22.523-20.5,34.155
			c-0.901,1.648-3.557,2.038-4.572,0.232c-6.945-12.331-10.533-25.887-11.73-39.75c-4.171,13.077-10.124,25.564-18.404,36.602
			c-1.146,1.526-4.035,0.884-4.461-0.954c-2.943-12.753-6.764-25.17-8.03-37.974c-5.238,13.79-11.869,27.029-18.773,40.096
			c-1.183,2.24-4.933,1.643-4.987-1.032c-0.239-11.655-3.496-22.939-5.179-34.43c-6.685,12.961-17.567,23.365-25.897,35.461
			c-1.256,1.822-4.021,1.977-4.861-0.374c-4.967-13.886-10.883-27.46-13.207-41.873c-5.366,13.137-13.526,25.055-19.756,37.876
			c-1.176,2.423-4.757,1.495-4.987-1.031c-0.945-10.337-3.97-20.286-5.735-30.458c-5.615,13.302-14.599,25.089-21.822,37.608
			c-1.018,1.763-4.381,2.058-4.861-0.374c-2.416-12.214-7.965-23.539-10.77-35.558c-5.178,12.689-13.803,23.869-18.674,36.807
			c-1.035,2.748-4.581,1.187-4.988-1.033c-2.148-11.773-6.475-22.81-8.541-34.394c-4.453,10.623-10.984,20.317-15.499,31.055
			c-0.903,2.152-4.209,1.705-4.859-0.374c-3.654-11.668-10.936-21.805-15.226-33.182c-4.644,10.932-12.332,20.534-15.744,32.019
			c-0.719,2.414-4.227,2.941-5.097,0.29c-3.49-10.639-8.789-20.48-11.595-31.19c-4.323,9.275-10.4,17.631-14.33,27.192
			c-0.968,2.356-4.018,1.475-4.86-0.373c-5.515-12.082-14.674-21.788-19.663-33.957c-5.685,12.437-15.509,22.713-21.216,35.205
			c-0.918,2.008-4.315,1.846-4.862-0.374c-2.596-10.553-8.941-19.599-13.104-29.526c-4.109,12.117-10.471,23.57-12.587,36.229
			c-0.527,3.164-4.734,2.359-5.221-0.369c-1.574-8.843-5.192-17.106-7.925-25.628c-3.061,9.005-7.491,17.569-9.722,26.871
			c-0.617,2.567-4.196,2.789-5.097,0.289c-4.011-11.147-11.034-20.916-15.714-31.76c-3.772,9.601-10.184,18.146-13.496,27.975
			c-0.828,2.455-4.061,2.88-5.096,0.289c-3.539-8.86-9.657-16.202-13.674-24.703c-2.273,8.128-5.273,16.063-6.739,24.414
			c-0.37,2.107-3.761,3.018-4.806,0.895c-5.135-10.417-14.179-18.458-19.9-28.491c-2.933,9.294-7.688,17.987-9.599,27.597
			c-0.425,2.136-3.679,2.979-4.806,0.895c-4.758-8.778-12.202-15.493-17.322-23.938c-2.537,7.412-6.131,14.464-7.778,22.169
			c-0.468,2.178-3.604,2.926-4.808,0.896c-6.465-10.913-17.903-17.973-25.169-28.292c-2.729,7.169-6.785,13.825-8.729,21.279
			c-0.548,2.103-3.571,3-4.806,0.894c-6.094-10.386-15.802-17.983-21.834-28.282c-2.945,7.955-7.34,15.466-8.543,23.891
			c-0.41,2.864-4.112,2.451-5.096,0.289c-5.172-11.38-15.25-19.869-21.128-30.826c-4.44,9.717-10.807,18.494-14.475,28.577
			c-0.81,2.229-4.24,1.638-4.86-0.373c-2.649-8.568-7.85-15.987-11.445-24.139c-3.289,8.601-7.865,16.676-10.963,25.386
			c-0.77,2.17-4.324,1.699-4.859-0.373c-3.043-11.761-4.668-23.807-5.198-35.92v85.665H982.61V20.157h-0.373
			C982.831,32.79,979.425,44.929,971.283,55.806z"/>
		<path fill="#EDEDED" d="M0,13.118c0.017,2.523,0.097,5.044,0.207,7.562v-8.594C0.085,12.394-0.003,12.728,0,13.118z"/>
	</g>
</g>
</svg>
