<?xml version="1.0" encoding="utf-8"?>
<!-- Generator: Adobe Illustrator 16.0.0, SVG Export Plug-In . SVG Version: 6.00 Build 0)  -->
<!DOCTYPE svg PUBLIC "-//W3C//DTD SVG 1.1//EN" "http://www.w3.org/Graphics/SVG/1.1/DTD/svg11.dtd">
<svg version="1.1" xmlns="http://www.w3.org/2000/svg" xmlns:xlink="http://www.w3.org/1999/xlink" x="0px" y="0px" width="244px"
	 height="200px" viewBox="0 0 244 200" enable-background="new 0 0 244 200" xml:space="preserve">
<g id="grid" display="none">
</g>
<g id="Layer_1">
	<g>
		<path fill="#EDEDED" d="M43.353,158.469c-1.788,0.656-3.114,2.65-3.956,4.479c-0.203-1.548-0.421-3.092-0.675-4.63
			c2.484-0.631,4.535-2.387,5.976-4.458c0.941-1.356,2.188-3.359,1.933-5.095c-0.272-1.839-2.712-0.538-3.508-0.014
			c-2.639,1.738-3.679,4.457-4.818,7.219c-0.248-1.314-0.519-2.627-0.826-3.932c0.029-0.033,0.062-0.062,0.085-0.107
			c1.479-2.863,2.46-6.201,1.61-9.393c-0.485-1.811-1.764-3.791-3.834-3.678c-2.451,0.136-3.531,3.967-3.475,5.874
			c0.087,2.987,2.404,5.608,4.642,7.33c0.439,1.844,0.801,3.701,1.122,5.565c-1.123-1.751-2.231-3.518-3.832-4.886
			c-1.141-0.974-3.873-1.393-4.275,0.634c-0.328,1.663,1.991,3.025,3.119,3.751c1.661,1.071,3.454,1.929,5.238,2.771
			c0.044,0.021,0.083,0.025,0.125,0.032c0.259,1.69,0.494,3.384,0.7,5.083c-1.155-1.532-2.647-2.971-4.275-3.903
			c-1.453-0.834-3.431-0.654-3.852,1.269c-0.368,1.686,1.744,2.677,2.985,3.172c1.42,0.565,3.43,1.162,5.071,0.945
			c0.077,0.053,0.166,0.067,0.252,0.055c0.061,0.534,0.129,1.067,0.188,1.602c0.146,1.323,0.28,2.649,0.421,3.976
			c-0.464-0.854-0.935-1.69-1.665-2.363c-0.702-0.648-1.601-1.104-2.47-1.487c-1.202-0.53-3.427-1.208-4.32,0.185
			c-0.993,1.552,0.735,3.806,2.074,4.454c1.877,0.91,4.31,1.249,6.383,0.712c0.057,0.003,0.11-0.001,0.166-0.013
			c0.085,0.771,0.165,1.545,0.26,2.315c0.204,1.628,0.952,3.77,0.48,5.384c-0.17,0.586,0.723,0.916,0.896,0.325
			c0.386-1.322,0.015-2.842-0.182-4.166c-0.276-1.857-0.484-3.721-0.685-5.586c1.787,0.298,3.68-0.077,5.062-1.323
			c0.839-0.757,1.158-1.918,0.464-2.876c-0.642-0.889-1.928-1.046-2.906-0.75c-1.298,0.39-2.217,1.42-2.878,2.575
			c-0.157-1.462-0.32-2.923-0.497-4.381c2.061,0.211,3.725-0.629,5.134-2.138c0.933-0.995,2.035-2.43,1.919-3.878
			C46.594,157.447,44.264,158.135,43.353,158.469z M41.896,151.01c0.404-0.506,3.978-3.467,3.796-1.57
			c-0.322,3.327-3.804,6.949-6.923,7.875C39.697,155.152,40.41,152.877,41.896,151.01z M35.129,165.064
			c-1.105-0.298-3.229-0.876-3.617-2.145c-0.218-0.714,0.656-1.414,1.288-1.396c0.823,0.026,1.624,0.675,2.242,1.149
			c1.058,0.805,2.045,1.815,2.875,2.895C36.969,165.552,35.963,165.29,35.129,165.064z M34.739,172.535
			c-0.866-0.23-1.702-0.632-2.306-1.308c-0.438-0.492-0.928-1.729-0.528-2.352c0.59-0.922,2.993,0.227,3.654,0.541
			c1.616,0.769,2.384,1.961,3.219,3.407C37.448,173.057,36,172.871,34.739,172.535z M43.028,167.958c0.654-0.3,1.566-0.323,2.1,0.23
			c0.509,0.525,0.214,1.206-0.245,1.649c-1.129,1.092-2.854,1.392-4.362,1.109C41.041,169.737,41.792,168.524,43.028,167.958z
			 M33.012,145.858c-0.557-1.777,0.647-7.354,3.483-5.822c1.631,0.879,2.075,3.488,2.079,5.129c0.003,2.037-0.778,4.156-1.683,5.988
			C35.126,149.761,33.692,148.04,33.012,145.858z M30.58,154.103c-0.461-0.778,0.545-1.284,1.213-1.291
			c1.021-0.008,1.96,1.142,2.563,1.825c1.031,1.167,1.839,2.496,2.675,3.804c-0.775-0.378-1.547-0.763-2.301-1.178
			C33.317,156.486,31.431,155.536,30.58,154.103z M45.782,159.521c-0.095,1.124-1.123,2.282-1.868,3.046
			c-1.133,1.159-2.425,1.749-4.008,1.639c0.625-1.595,1.583-3.148,2.87-4.277C43.194,159.562,45.896,158.171,45.782,159.521z"/>
		<path fill="#EDEDED" d="M80.394,25.819c-0.351,0.07-0.701,0.177-1.044,0.31c0.684-0.536,1.326-1.121,1.85-1.846
			c0.627-0.869,0.922-2.818-0.483-3.128c-1.197-0.262-2.559,1.173-3.304,1.902c-0.266,0.258-0.543,0.536-0.818,0.828
			c0.463-0.938,0.896-1.889,1.272-2.867c0.384-1.003,1.644-4.162-0.126-4.668c-1.244-0.354-2.071,1.128-2.579,2.365
			c0.055-1.538-0.292-4.972-2.644-4.438c-1.958,0.447-1.624,3.879-1.505,5.293c0.043,0.516,0.112,1.03,0.194,1.544
			c-0.061-0.13-0.115-0.26-0.176-0.388c-0.533-1.123-1.502-3.65-3.006-3.782c-0.555-0.05-0.914,0.595-1.037,1.037
			c-0.259,0.926,0.234,2.051,0.594,2.877c0.053,0.125,0.115,0.25,0.174,0.376c-0.688-0.65-1.494-1.16-2.32-0.964
			c-2.074,0.493,0.419,3.77,2.205,5.894c-0.624-0.414-1.277-0.788-1.888-1.145c-0.798-0.464-2.562-1.67-3.566-1.214
			c-1.218,0.555,0.582,2.345,1.041,2.712c0.526,0.424,1.11,0.795,1.724,1.131c-0.69-0.07-1.38-0.093-2.053-0.06
			c-0.523,0.027-1.528,0.35-0.913,1.02c0.797,0.869,2.208,1.278,3.313,1.558c2.609,0.665,5.444,0.73,8.111,0.508
			c0.067-0.005,0.117-0.035,0.149-0.076c1.364-0.209,2.724-0.642,4.024-1.072c1.26-0.42,3.258-0.978,4.033-2.173
			C82.226,26.414,81.369,25.627,80.394,25.819z"/>
		<path fill="#EDEDED" d="M172.64,144.328c-0.225-1.369-1.35-2.191-2.704-2.186c-1.051,0.006-2.033,0.459-2.913,1.109
			c0.54-1.07,0.921-2.21,1.005-3.525c0.104-1.64-0.007-3.846-1.706-4.659c-1.833-0.877-4.276,1.077-5.091,2.555
			c-1.059,1.921-0.568,4.374-0.201,6.57c-1.578-2.063-4.521-5.068-6.148-2.489c-0.761,1.208-0.023,2.979,0.52,4.097
			c1.324,2.74,3.756,4.519,5.776,6.689c0.125,0.133,0.271,0.146,0.397,0.093c0.035,0.008,0.065,0.02,0.104,0.02
			c3.153-0.058,6.403-1.425,8.775-3.495C171.773,147.956,172.94,146.154,172.64,144.328z"/>
		<path fill="#EDEDED" d="M206.23,20.717c2.505,4.878,7.49,7.856,9.806,12.85c0.058,0.126,0.153,0.195,0.259,0.236
			c-0.643,3.029-1.192,6.086-2.369,8.963c-0.232,0.566,0.63,0.969,0.863,0.4c1.204-2.939,1.778-6.055,2.432-9.15
			c1.129-1.752,2.681-3.259,4.523-4.241c0.082-0.044,0.132-0.101,0.166-0.161c2.941-1.952,5.476-4.471,6.911-7.746
			c0.155-0.352-0.202-0.832-0.595-0.646c-1.492,0.705-2.866,1.585-4.113,2.671c-0.242,0.21-0.712,0.742-1.214,1.29
			c1.233-3.042,1.095-6.799-0.358-9.569c-0.192-0.368-0.666-0.427-0.88-0.035c-0.806,1.469-1.348,3.027-1.795,4.62
			c-0.085-1.666-0.385-3.318-0.999-4.958c-0.171-0.456-0.815-0.375-0.916,0.08c-0.354,1.579-0.58,3.172-0.757,4.77
			c-0.36-1.675-0.954-3.297-1.888-4.832c-0.22-0.361-0.791-0.192-0.854,0.194c-0.433,2.522-0.293,5.032-0.005,7.542
			c-1.171-2.542-2.701-4.873-4.756-6.889c-0.378-0.369-0.849,0.125-0.751,0.531c0.472,1.969,1.239,3.818,2.067,5.646
			c-1.163-1.055-2.56-1.829-4.246-2.197C206.437,20.013,206.062,20.394,206.23,20.717z M207.654,21.332
			c2.496,0.904,4.199,2.898,5.344,5.339c0.256,0.547,1.137,0.243,0.895-0.327c-1.141-2.689-2.521-5.269-3.462-8.027
			c2.126,2.554,3.556,5.531,4.558,8.742c0.16,0.515,0.991,0.327,0.921-0.203c-0.43-3.259-0.991-6.514-0.706-9.787
			c1.289,2.729,1.616,5.732,1.457,8.768c-0.032,0.599,0.876,0.787,0.936,0.168c0.275-2.87,0.451-5.743,0.923-8.583
			c0.635,2.729,0.49,5.48-0.042,8.297c-0.116,0.613,0.781,0.753,0.937,0.169c0.807-3.029,1.326-6.15,2.657-8.995
			c1.225,3.169,0.9,7.325-1.249,10.02c-0.237,0.296-0.021,0.86,0.405,0.776c0.98-0.186,2.132-1.885,2.805-2.472
			c1.04-0.902,2.091-1.728,3.252-2.42c-1.557,2.725-3.932,4.83-6.614,6.492c-0.05,0.031-0.083,0.07-0.114,0.109
			c-1.478,0.917-2.766,2.163-3.762,3.586C214.578,28.456,210.227,25.582,207.654,21.332z"/>
	</g>
</g>
</svg>
