<?xml version="1.0" encoding="utf-8"?>
<!-- Generator: Adobe Illustrator 16.0.0, SVG Export Plug-In . SVG Version: 6.00 Build 0)  -->
<!DOCTYPE svg PUBLIC "-//W3C//DTD SVG 1.1//EN" "http://www.w3.org/Graphics/SVG/1.1/DTD/svg11.dtd">
<svg version="1.1" xmlns="http://www.w3.org/2000/svg" xmlns:xlink="http://www.w3.org/1999/xlink" x="0px" y="0px"
	 width="209.269px" height="249.85px" viewBox="0 0 209.269 249.85" enable-background="new 0 0 209.269 249.85"
	 xml:space="preserve">
<g id="grid" display="none">
</g>
<g id="Layer_1">
	<g>
		<g>
			<path fill="#E03254" d="M59.31,53.897C46.454,38.454,33.912,22.742,20.038,8.187c-4.304-4.515-11.123,2.324-6.829,6.83
				C27.081,29.572,39.626,45.284,52.48,60.726C56.47,65.516,63.263,58.647,59.31,53.897z"/>
			<path fill="#E03254" d="M92.746,44.439c-2.625-13.226-4.536-26.573-6.443-39.916c-0.373-2.61-3.647-4.003-5.939-3.373
				c-2.775,0.765-3.742,3.337-3.373,5.941c1.906,13.342,3.817,26.689,6.438,39.916C84.64,53.112,93.946,50.521,92.746,44.439z"/>
			<path fill="#E03254" d="M40.44,75.831c-10.41-2.091-20.807-4.404-30.902-7.726c-5.934-1.951-8.456,7.376-2.568,9.312
				c10.097,3.32,20.493,5.634,30.902,7.726C43.954,86.366,46.543,77.059,40.44,75.831z"/>
			<path fill="#E03254" d="M23.704,103.986h-5.792c-2.633,0-4.83,2.198-4.83,4.829c0,2.631,2.197,4.829,4.83,4.829h5.792
				c2.634,0,4.833-2.198,4.833-4.829C28.537,106.185,26.338,103.986,23.704,103.986z"/>
			<path fill="#E03254" d="M118.838,32.207c-1.145,3.969-2.409,7.914-4.019,11.723c-1.027,2.425-0.754,5.15,1.731,6.606
				c2.049,1.2,5.579,0.693,6.605-1.733c1.945-4.593,3.611-9.234,4.995-14.028C129.881,28.777,120.562,26.234,118.838,32.207z"/>
		</g>
		<g>
			<path fill="#E03254" d="M197.094,173.362c-5.562,0.535-10.779-0.064-16.099-1.76c-5.951-1.896-8.478,7.43-2.568,9.312
				c6.048,1.926,12.341,2.712,18.667,2.104C203.234,182.427,203.293,172.765,197.094,173.362z"/>
			<path fill="#E03254" d="M202.551,122.961c-1.444-2.466-4.195-2.785-6.606-1.731c-4.371,1.909-8.556,4.234-13.01,5.951
				c-2.454,0.945-4.123,3.21-3.373,5.94c0.646,2.347,3.48,4.32,5.94,3.371c5.241-2.02,10.176-4.677,15.315-6.924
				C203.23,128.513,203.762,125.03,202.551,122.961z"/>
			<path fill="#E03254" d="M183.77,237.868l-28.969-36.697c-1.637-2.068-5.134-1.697-6.832,0c-2.022,2.023-1.627,4.766,0,6.83
				l28.972,36.696c1.633,2.069,5.131,1.697,6.829,0C185.792,242.674,185.398,239.932,183.77,237.868z"/>
			<path fill="#E03254" d="M123.85,209.739c-1.919-5.893-11.246-3.37-9.312,2.569c1.716,5.264,2.965,10.54,3.048,16.097
				c0.091,6.223,9.748,6.232,9.656,0C127.147,222.014,125.824,215.799,123.85,209.739z"/>
			<path fill="#E03254" d="M81.551,201.505c-3.555,5.792-6.221,12.048-8.217,18.535c-1.837,5.969,7.486,8.503,9.312,2.569
				c1.762-5.731,4.103-11.115,7.239-16.23C93.149,201.055,84.795,196.207,81.551,201.505z"/>
		</g>
	</g>
</g>
</svg>
