<?xml version="1.0" encoding="utf-8"?>
<!-- Generator: Adobe Illustrator 16.0.0, SVG Export Plug-In . SVG Version: 6.00 Build 0)  -->
<!DOCTYPE svg PUBLIC "-//W3C//DTD SVG 1.1//EN" "http://www.w3.org/Graphics/SVG/1.1/DTD/svg11.dtd">
<svg version="1.1" xmlns="http://www.w3.org/2000/svg" xmlns:xlink="http://www.w3.org/1999/xlink" x="0px" y="0px"
	 width="233.113px" height="188.74px" viewBox="0 0 233.113 188.74" enable-background="new 0 0 233.113 188.74"
	 xml:space="preserve">
<g id="grid">
</g>
<g id="Layer_1">
	<path fill="#BF4C62" d="M252.145,160.265c-7.634-8.68-15.156-17.454-22.887-26.022c0.07-0.068,0.138-0.149,0.187-0.259
		c0.388-0.789,0.735-1.598,1.106-2.395c18.014-24.399,38.693-57.499,22.799-87.59c-0.407-0.756-1.732-0.565-1.85,0.306
		c-4.035,29.558-10.094,59.127-22.717,86.31c-0.432,0.574-0.852,1.133-1.265,1.694c-3.522-3.867-7.093-7.699-10.769-11.436
		c15.92-9.195,21.71-31.55,24.793-48.208c3.375-18.285,5.308-40.395-1.265-58.235c-0.29-0.787-1.447-1.02-1.86-0.188
		c-16.182,32.895-8.803,71.426-23.704,104.625c-1.124-1.123-2.234-2.251-3.381-3.351c-2.704-2.625-5.468-5.208-8.23-7.791
		c0.294,0.068,0.604,0.015,0.876-0.293c12.306-14.112,18.27-34.779,19.824-53.105c1.494-17.694-1.055-39.581-18.393-48.921
		c-0.754-0.403-1.748,0.335-1.45,1.187c11.382,31.701,12.761,68.224-2.277,98.995c-0.136,0.274-0.114,0.522-0.038,0.752
		c-3.043-2.83-6.109-5.643-9.18-8.424c0.018-0.039,0.037-0.083,0.057-0.123c0.514,0.304,1.354,0.182,1.594-0.576
		c0.713-2.163,1.326-4.359,1.852-6.555c6.885-15.748,9.801-32.921,8.5-50.157c-0.721-9.739-3.076-19.316-6.615-28.399
		c-1.711-4.408-3.863-8.642-6.205-12.74c-1.306-2.271-2.762-4.453-4.239-6.598c-0.741-1.071-2.101-3.964-3.485-4.282
		c-5.33-1.203,0.023,9.461,0.432,10.588c3.658,10.328,6.455,20.955,8.615,31.692c3.873,19.219,5.643,40.063,1.02,59.37
		c-0.96,2.164-1.99,4.294-3.103,6.389c-3.664-3.295-7.372-6.554-11.123-9.772c0.093-0.429,0.196-0.857,0.292-1.283
		c0.229-0.173,0.406-0.43,0.406-0.805c-0.009-0.296-0.026-0.589-0.039-0.883c3.66-17.012,4.262-35.706,3.076-52.785
		c-1.245-18.041-6.131-37.715-20.873-49.491c-0.663-0.521-1.785-0.187-1.717,0.767c2.297,34.398,16.926,66.712,17.49,101.337
		c-0.115,0.55-0.25,1.101-0.37,1.651c-4.299-3.68-8.616-7.327-12.991-10.896c-0.932-0.758-1.908-1.497-2.843-2.25
		c0.022-0.055,0.059-0.081,0.067-0.146c0.071-0.419,0.125-0.838,0.188-1.252c5.758-17.188,6.154-36.385,3.053-54.097
		c-3.073-17.532-11.283-35.963-28.008-44.185c-0.944-0.461-1.803,0.53-1.345,1.419c14.922,29.293,29.627,62.807,24.333,96.427
		c-0.035,0.12-0.083,0.247-0.125,0.368c-2.986-2.387-5.943-4.786-8.969-7.123c0.424-0.104-1.837-1.81-2.127-1.645
		c-1.635-1.253-3.301-2.479-4.951-3.711c0.205-0.073,0.387-0.215,0.504-0.478c13.357-29.056,8.553-72.654-25.027-85.291
		c-1.049-0.404-1.955,0.724-1.166,1.621c9.783,11.109,15.855,25.693,20.413,39.588c4.215,12.817,8.4,28.691,4.234,42.037
		c-0.06,0.199-0.036,0.374,0,0.53c-0.077,0.19-0.154,0.375-0.231,0.558c-0.07,0.14-0.102,0.275-0.102,0.408
		c-1.479-1.088-2.974-2.159-4.471-3.224c-0.275-0.628-0.564-1.235-0.836-1.858c-0.135-0.379-0.254-0.761-0.391-1.15
		c-0.408-10.554-3.774-20.928-7.334-30.784c-4.262-11.791-9.044-23.393-14.286-34.771c-5.216-11.322-10.867-22.852-18.589-32.717
		c-3.132-4.011-8.697-10.357-14.377-8.548c-0.059-1.134-1.902-1.015-2,0.215c-1.537,18.906,11.453,37.405,21.398,52.322
		c11.962,17.955,24.373,35.198,33.145,54.971c-3.714-2.589-7.509-5.081-11.34-7.499c-0.157-0.317-0.447-0.534-0.855-0.534
		c-1.385-0.862-2.762-1.746-4.166-2.582c-2.762-1.648-5.58-3.221-8.4-4.747c1.593-7.838-2.929-17.572-5.448-24.685
		c-3.435-9.739-7.685-19.209-12.642-28.279c-8.697-15.936-21.749-34.653-40.814-38.409c-0.794-0.158-1.6,0.765-1.067,1.514
		C61.004-38.72,70.955-23.437,81.621-8.606c9.584,13.342,20.157,27.33,25.506,43.083c-5.059-2.636-10.176-5.131-15.369-7.499
		c-1.963-1.003-3.947-1.955-5.941-2.878c-0.011-0.015-0.011-0.036-0.011-0.049c-0.162-0.337-0.291-0.69-0.391-1.046
		c0.032-0.146,0.042-0.308-0.019-0.481C79.098,0.316,64.952-22.462,44.975-34.7c-0.895-0.544-1.828,0.587-1.343,1.415
		C54.903-14.262,73.871-0.11,81.7,20.951v0.004c0.157,0.497,0.296,1.004,0.431,1.505c-2.733-1.168-5.496-2.257-8.295-3.238
		c-1.707-0.702-3.41-1.387-5.109-2.077c0-0.058,0-0.122-0.009-0.185C66.993,8.875,60.929,2.767,54.834-2.416
		c-7.972-6.8-17.129-12.165-26.043-17.623c-0.872-0.54-1.84,0.591-1.341,1.42c9.396,15.475,27.571,21.606,38.271,35.7
		c-0.284,0.067-0.555,0.133-0.829,0.2c-0.25-0.067-0.521-0.021-0.773,0.179C44.665,22.217,25.971,30.514,5.525,29.386
		c-1.301-0.073-1.214,1.949,0.078,2.021c0.118,0.004,0.236,0.004,0.349,0.004c18.056,7.101,38.011,5.502,52.912-6.243
		c2.907-1.721,5.654-3.694,8.142-6.04c1.875,0.53,3.725,1.124,5.555,1.75c3.852,1.593,7.66,3.226,11.477,4.9
		c-0.215,0.421-0.41,0.849-0.654,1.256c-0.239,0.28-0.475,0.556-0.718,0.84c-21.038,12.77-45.044,16.035-69.046,19.709
		c-1.069,0.165-1.383,1.741-0.197,2.002c22.803,4.903,49.166,0.73,66.314-15.678c2.395-1.614,4.607-3.457,6.325-5.771
		c0.154-0.126,0.253-0.272,0.296-0.434c0.169-0.227,0.314-0.468,0.46-0.703c1.684,0.751,3.367,1.5,5.04,2.274
		c3.803,1.979,7.544,4.084,11.232,6.279c-0.176,0.145-0.358,0.279-0.553,0.423c-0.06,0.01-0.119,0-0.197,0.022
		C74.135,47.501,35.598,48.525,17.315,76.431c-0.478,0.73,0.386,1.751,1.185,1.447c29.782-11.441,58.594-25.467,86.681-40.551
		c0.177-0.096,0.28-0.211,0.36-0.336c4.075,2.476,8.091,5.031,12.068,7.605c0.101,0.067,0.195,0.13,0.291,0.198
		c-30.248,7.529-73.975,15.577-81.133,50.743c-0.264,1.255,1.634,1.705,1.943,0.499c0.262,0.028,0.533-0.042,0.779-0.252
		c12.176-10.286,25.442-19.124,39.215-27.099c13.706-7.934,28.186-15.7,43.012-21.421c3.082,1.983,6.154,3.97,9.216,5.978
		c-18.507,4.388-36.998,9.521-53.994,18.231c-16.092,8.243-31.058,20.941-34.786,39.419c-0.238,1.248,1.627,1.693,1.946,0.518
		c0,0,0.009,0,0.024,0c13.564-4.327,24.4-17.301,35.068-26.14c15.855-13.121,35.715-20.508,53.807-29.917
		c0.23-0.123,0.359-0.293,0.424-0.473c4.012,2.641,7.999,5.337,11.918,8.091c-17.341,4.477-34.394,10.415-50.121,19.031
		c-17.209,9.43-33.69,23.459-38.233,43.388c-0.278,1.266,1.685,1.718,1.976,0.444c0.021-0.109,0.059-0.199,0.08-0.308
		c16.862-6.089,31.238-17.552,45.12-28.575c14.161-11.254,28.097-23.126,43.899-32.054c5.857,4.216,11.564,8.633,16.994,13.389
		c2.219,1.935,4.381,3.924,6.537,5.936c-0.119-0.04-0.254-0.075-0.406-0.071c-41.67,1.971-82.129,22.2-105.68,57.157
		c-0.406,0.617,0.204,1.589,0.934,1.492c20.146-2.636,38.179-14.214,54.885-25.021c9.318-6.025,18.482-12.283,27.955-18.069
		c7.928-4.85,16.396-8.498,24.49-13.012c0.109-0.059,0.164-0.126,0.231-0.193c4.298,4.104,8.474,8.335,12.606,12.615
		c-17.127,1.201-33.613,7.91-48.203,16.693c-15.455,9.294-29.74,22.151-38.115,38.303c-0.438,0.846,0.574,1.955,1.422,1.337
		c27.553-20.098,54.729-42.251,87.387-53.479c0.076-0.023,0.11-0.074,0.178-0.105c4.176,4.371,8.324,8.783,12.465,13.175
		c-31.047,5.036-63.275,19.533-81.291,46.15c-0.602,0.898,0.612,1.774,1.422,1.34c27.584-14.904,56.293-27.759,83.1-44.069
		c3.619,3.833,7.141,7.711,10.602,11.64c-29.248,7.337-55.447,30.223-70.514,55.697c-0.625,1.037,0.809,1.89,1.627,1.174
		c22.357-19.729,45.604-38.602,70.68-54.805c9.182,10.601,17.836,21.572,26.141,33.062c0.283,0.398,0.701,0.491,1.072,0.407
		c0.113,0.031,0.25,0.051,0.385,0.031c2.82-0.346,5.234-1.63,7.277-3.598c0.371-0.361,0.352-0.792,0.158-1.128
		C252.398,160.712,252.316,160.479,252.145,160.265z"/>
</g>
</svg>
