<?xml version="1.0" encoding="utf-8"?>
<!-- Generator: Adobe Illustrator 16.0.0, SVG Export Plug-In . SVG Version: 6.00 Build 0)  -->
<!DOCTYPE svg PUBLIC "-//W3C//DTD SVG 1.1//EN" "http://www.w3.org/Graphics/SVG/1.1/DTD/svg11.dtd">
<svg version="1.1" id="Layer_1" xmlns="http://www.w3.org/2000/svg" xmlns:xlink="http://www.w3.org/1999/xlink" x="0px" y="0px"
	 width="136.455px" height="339.372px" viewBox="0 0 136.455 339.372" enable-background="new 0 0 136.455 339.372"
	 xml:space="preserve">
<g>
	<path fill="#653B46" d="M40.342,236.487c1.954,0.015,4.027-0.284,5.698-1.355c-1.126-1.047-2.202-2.155-3.261-3.267
		c-1.408-1.482,0.839-3.729,2.254-2.247c1.346,1.416,2.684,2.868,4.178,4.129c0,0,0,0.003,0.006,0.002
		c0.196-0.043,0.408-0.051,0.646-0.006c4.731,0.89,9.477,1.139,14.238,0.689c-2.938-3.031-5.883-6.061-8.729-9.179
		c-2.244,2.203-5.105,3.448-8.226,4.078c-2.001,0.405-2.817-2.67-0.802-3.079c2.049-0.413,3.881-1.092,5.488-2.192
		c-1.221-0.082-2.442-0.424-3.594-0.992c-1.84-0.908-0.242-3.667,1.576-2.762c1.186,0.586,2.635,1.021,3.889,0.405
		c-0.491-1.556-1.004-3.099-1.757-4.55c-0.938-1.813,1.825-3.391,2.77-1.565c1.038,2.014,1.737,4.187,2.401,6.348
		c0.162,0.534,0.043,0.965-0.215,1.296c2.766,3.058,5.639,6.015,8.507,8.971c-0.521-3.165-1.075-6.327-1.537-9.505
		c-2.175-0.158-4.127-1.244-5.562-2.919c-1.324-1.548,0.921-3.802,2.254-2.247c0.574,0.684,1.212,1.217,1.934,1.583
		c-0.178-1.545-0.369-3.089-0.527-4.637c-0.211-2.04,2.971-2.013,3.183,0.006c0.161,1.584,0.354,3.162,0.536,4.743
		c0.046-0.083,0.051-0.179,0.135-0.26c1.496-1.488,2.297-3.324,2.016-5.454c-0.263-2.007,2.813-2.834,3.078-0.801
		c0.434,3.281-0.49,6.161-2.85,8.51c-0.359,0.353-0.763,0.484-1.145,0.461c0.658,4.548,1.553,9.062,2.191,13.622
		c0.033,0.248,0.013,0.484-0.044,0.695c0.086,0.039,0.171,0.047,0.256,0.106c9.948,6.638,19.749,13.55,29.155,20.938
		c-0.598-6.053-0.014-12.284,0.896-18.293c-0.316-0.031-0.633-0.174-0.899-0.521c-1.395-1.832-2.187-3.647-2.357-5.949
		c-0.151-2.055,3.029-2.03,3.178,0.001c0.062,0.8,0.285,1.529,0.592,2.227c0.332-1.101,0.911-2.102,1.836-2.854
		c1.586-1.272,3.849,0.971,2.248,2.256c-0.262,0.213-0.396,0.473-0.571,0.707c0.774-0.278,1.542-0.588,2.264-0.994
		c1.781-1.01,3.349,1.757,1.565,2.767c-1.441,0.817-3.02,1.363-4.601,1.862c-0.007,0.021,0.003,0.031,0.001,0.046
		c-1.015,6.346-1.656,13.036-0.932,19.447c-0.055,0.611-0.037,1.218-0.041,1.827c2.696,2.174,5.355,4.383,7.972,6.651
		c0.709,0.089,1.137,0.562,1.267,1.143c2.062,1.803,4.082,3.649,6.079,5.52c0.497-5.59,1.184-11.143,2.313-16.64
		c-1.651-1.21-3.273-2.442-4.811-3.802c-1.535-1.36,0.726-3.596,2.254-2.243c0.955,0.847,1.988,1.597,3,2.367
		c0.258-1.395,0.59-2.771,1.062-4.131c0.668-1.924,3.748-1.123,3.074,0.813c-0.389,1.116-0.696,2.246-0.938,3.392
		c1.613-0.519,3.326-0.84,4.95-0.85c2.052-0.016,2.048,3.161-0.006,3.176c-1.767,0.013-3.726,0.502-5.365,1.244
		c-1.269,5.92-1.962,11.908-2.472,17.941c-0.038,0.495-0.27,0.867-0.576,1.121c4.375,4.213,8.604,8.587,12.598,13.21
		c1.428,1.652,2.744,3.377,4.09,5.081c0.459-5.62,2.153-10.949,4.786-15.941c-0.009-0.011-0.024-0.01-0.034-0.021
		c-1.143-1.205-2.289-2.408-3.561-3.482c-1.561-1.321,0.703-3.558,2.26-2.245c1.009,0.859,1.934,1.804,2.852,2.752
		c0.295-1.038,0.59-2.078,0.793-3.14c0.384-2.02,3.454-1.187,3.072,0.812c-0.164,0.883-0.419,1.742-0.672,2.601
		c0.783-0.284,1.557-0.607,2.295-1.025c1.785-1.007,3.355,1.759,1.565,2.771c-1.522,0.86-3.155,1.419-4.822,1.934
		c-0.022,0.008-0.035-0.002-0.06,0.005c-0.209,0.422-0.557,0.658-0.963,0.718c-2.695,5.128-4.399,10.582-4.529,16.438
		c-0.01,0.445-0.187,0.776-0.42,1.025c14.377,19.264,23.752,41.553,27.928,65.373c0.35,2.008-2.727,2.832-3.082,0.806
		c-3.027-17.29-8.824-33.445-17.215-48.346c-0.023-0.014-0.049-0.009-0.076-0.025c-5.557-2.775-12.691-4.429-18.917-4.771
		c-0.026,0.038-0.034,0.079-0.067,0.115c-1.508,1.678-3.027,3.34-4.766,4.788c-1.564,1.302-3.82-0.943-2.246-2.253
		c0.871-0.727,1.682-1.5,2.464-2.307c-1.534,0.09-3.085-0.022-4.636-0.378c-2.004-0.466-1.178-3.541,0.812-3.076
		c1.967,0.453,3.884,0.414,5.814-0.02c-0.846-1.733-1.73-3.46-3.014-4.889c-1.373-1.517,0.875-3.768,2.251-2.242
		c1.899,2.101,3.038,4.68,4.317,7.169c5.061,0.365,10.451,1.484,15.338,3.314c-4.088-6.696-8.645-13.154-13.814-19.299
		c-0.68-0.807-1.4-1.584-2.098-2.383c-0.122,0.03-0.236,0.072-0.386,0.057c-7.165-0.389-13.994,0.847-20.739,3.105
		c-0.072,0.101-0.123,0.209-0.237,0.306c-1.257,1.048-2.347,2.261-2.542,3.952c-0.243,2.015-3.43,2.033-3.18-0.004
		c0.143-1.26,0.513-2.372,1.08-3.381c-1.07,0.327-2.16,0.598-3.292,0.732c-2.036,0.244-2.004-2.938,0.003-3.179
		c1.386-0.167,2.709-0.592,3.992-1.119c-0.916-1.107-1.992-2.072-3.066-3.036c-1.525-1.374,0.736-3.608,2.252-2.244
		c1.633,1.473,3.222,2.974,4.398,4.83c6.188-2.045,12.482-3.194,18.979-3.134c-5.126-5.594-10.592-10.851-16.308-15.852
		c-7.504,0.036-14.961,0.72-22.395,1.752c-0.262,0.036-0.48-0.009-0.693-0.08c-0.048,0.045-0.058,0.092-0.107,0.136
		c-1.412,1.213-2.33,2.742-2.98,4.477c-0.711,1.907-3.796,1.104-3.072-0.812c0.342-0.908,0.75-1.783,1.211-2.621
		c-0.731,0.158-1.46,0.316-2.219,0.406c-2.032,0.244-1.998-2.938,0.009-3.179c1.364-0.16,2.69-0.524,4.005-0.909
		c-0.584-1.36-1.138-2.734-1.816-4.053c-0.941-1.814,1.822-3.389,2.765-1.561c0.86,1.657,1.499,3.407,2.288,5.093
		c6.428-0.881,12.865-1.531,19.337-1.742c-1.883-1.592-3.827-3.116-5.756-4.657c-0.202-0.087-0.372-0.229-0.505-0.414
		c-9.987-7.94-20.441-15.313-30.982-22.348c-0.256-0.169-0.424-0.381-0.535-0.602c-5.852,0.862-11.615,0.673-17.419-0.344
		c-0.589,2.625-2.134,4.884-4.05,6.776c-1.458,1.439-3.701-0.812-2.245-2.25c0.784-0.776,1.595-1.688,2.235-2.688
		c-1.714,0.63-3.55,0.918-5.412,0.899C38.281,239.649,38.289,236.467,40.342,236.487z"/>
	<path fill="#E03254" d="M65.904,204.852c1.083-2.341,5.146-2.782,5.947,0.417c0.538,2.147-0.565,3.66-2.544,4.375
		c-1.63,0.597-3.474-0.718-3.872-2.277C65.184,206.406,65.408,205.546,65.904,204.852z"/>
	<path fill="#E03254" d="M57.299,205.918c0.092-0.171,0.178-0.334,0.264-0.497c1.928-3.633,7.441-0.46,5.529,3.15
		c-0.092,0.168-0.182,0.336-0.268,0.495C60.896,212.7,55.385,209.527,57.299,205.918z"/>
	<path fill="#E03254" d="M48.58,205.199l0.479-0.147c3.928-1.205,5.517,4.955,1.604,6.155l-0.48,0.147
		C46.256,212.559,44.664,206.4,48.58,205.199z"/>
	<path fill="#E03254" d="M42.184,213.815l0.383-0.118c3.926-1.204,5.514,4.952,1.598,6.153l-0.375,0.116
		C39.863,221.17,38.268,215.016,42.184,213.815z"/>
	<path fill="#E03254" d="M37.705,222.255c3.928-1.204,5.516,4.953,1.602,6.153C35.384,229.611,33.789,223.455,37.705,222.255z"/>
	<path fill="#E03254" d="M32.289,233.063c3.927-1.204,5.52,4.95,1.6,6.153C29.962,240.421,28.373,234.264,32.289,233.063z"/>
	<path fill="#E03254" d="M41.1,244.638l0.117,0.381c1.203,3.922-4.954,5.517-6.154,1.601l-0.117-0.381
		C33.742,242.317,39.899,240.722,41.1,244.638z"/>
	<path fill="#E03254" d="M41.894,206.558l0.117,0.379c1.203,3.922-4.954,5.517-6.155,1.602l-0.117-0.38
		C34.535,204.236,40.693,202.642,41.894,206.558z"/>
	<path fill="#E03254" d="M61.984,195.682l0.764-0.234c3.924-1.204,5.516,4.953,1.598,6.154l-0.756,0.232
		C59.662,203.039,58.068,196.883,61.984,195.682z"/>
	<path fill="#E03254" d="M27.857,224.026l0.377-0.116c3.927-1.204,5.52,4.956,1.604,6.156l-0.382,0.117
		C25.533,231.387,23.938,225.229,27.857,224.026z"/>
	<path fill="#E03254" d="M28.074,241.007l0.379-0.116c3.924-1.203,5.519,4.954,1.6,6.156l-0.377,0.114
		C25.748,248.367,24.156,242.208,28.074,241.007z"/>
	<path fill="#E03254" d="M109.217,232.192c-0.206-1.311-0.042-2.685,1.095-3.552c1.386-1.049,3.155-1.344,4.504,0.007
		c0.996,1.001,1.243,2.969,0.269,4.123c-0.357,0.803-0.997,1.442-1.982,1.696C111.542,234.87,109.484,233.911,109.217,232.192z"/>
	<path fill="#E03254" d="M103.758,220.709l0.758-0.233c3.932-1.205,5.52,4.953,1.604,6.153l-0.76,0.233
		C101.435,228.066,99.844,221.909,103.758,220.709z"/>
	<path fill="#E03254" d="M93.937,221.225l0.38-0.117c3.926-1.204,5.518,4.955,1.604,6.156l-0.382,0.117
		C91.613,228.584,90.021,222.425,93.937,221.225z"/>
	<path fill="#E03254" d="M131.963,244.905l0.385-0.117c3.924-1.204,5.52,4.952,1.6,6.153l-0.378,0.116
		C129.643,252.262,128.048,246.105,131.963,244.905z"/>
	<path fill="#E03254" d="M119.752,238.739c0.092-0.166,0.178-0.333,0.266-0.496c1.93-3.634,7.439-0.46,5.527,3.15
		c-0.09,0.167-0.178,0.335-0.267,0.497C123.351,245.521,117.841,242.351,119.752,238.739z"/>
	<path fill="#E03254" d="M108.34,243.634c0.639-1.546,2.076-2.6,3.819-2.138c1.555,0.409,2.87,2.263,2.264,3.888
		c-0.336,0.908-0.561,1.796-1.357,2.436c-1.349,1.087-3.175,1.314-4.495-0.012C107.536,246.771,107.326,244.798,108.34,243.634z"/>
	<path fill="#E03254" d="M130.949,264.41c0.092-0.167,0.181-0.336,0.269-0.496c1.928-3.633,7.438-0.461,5.524,3.149
		c-0.088,0.17-0.176,0.333-0.266,0.501C134.548,271.193,129.039,268.023,130.949,264.41z"/>
	<path fill="#E03254" d="M116.377,291.682l0.756-0.232c3.93-1.205,5.52,4.951,1.604,6.151l-0.76,0.233
		C114.049,299.039,112.461,292.882,116.377,291.682z"/>
	<path fill="#E03254" d="M109.785,304.096c3.932-1.205,5.52,4.953,1.605,6.153C107.463,311.453,105.869,305.297,109.785,304.096z"/>
	<path fill="#E03254" d="M111.697,317.079c0.203-2.006,1.172-3.04,3.022-3.686c1.633-0.573,3.472,0.705,3.88,2.278
		c0.357,1.391-0.25,2.614-1.312,3.359c-0.553,0.729-1.354,1.23-2.415,1.229C113.266,320.262,111.523,318.804,111.697,317.079z"/>
	<path fill="#E03254" d="M95.769,296.337l0.378-0.116c3.928-1.204,5.516,4.953,1.6,6.154l-0.376,0.114
		C93.443,303.693,91.854,297.538,95.769,296.337z"/>
	<path fill="#E03254" d="M87.958,289.966c0.831-0.829,2.222-1.124,3.349-0.739c3.165,0.18,4.171,5.262,0.57,6.221
		c-1.42,0.374-2.922,0.21-3.93-0.982C86.84,293.134,86.651,291.269,87.958,289.966z"/>
	<path fill="#E03254" d="M90.371,278.518c0.091-0.164,0.182-0.334,0.268-0.499c1.928-3.632,7.44-0.46,5.525,3.157
		c-0.09,0.163-0.18,0.33-0.264,0.496C93.971,285.299,88.461,282.125,90.371,278.518z"/>
	<path fill="#E03254" d="M74.879,255.343c3.927-1.204,5.519,4.954,1.604,6.155C72.555,262.702,70.963,256.543,74.879,255.343z"/>
	<path fill="#E03254" d="M70.603,265.801l0.761-0.232c3.928-1.205,5.516,4.951,1.6,6.153l-0.76,0.233
		C68.278,273.157,66.687,267.003,70.603,265.801z"/>
	<path fill="#E03254" d="M73.896,275.187l0.381-0.117c3.927-1.204,5.518,4.957,1.602,6.157l-0.381,0.116
		C71.577,282.546,69.981,276.389,73.896,275.187z"/>
</g>
<path fill="#298C99" d="M114.021,35.757c-4.083,5.629-7.092,11.935-9.076,18.58c-0.47-0.921-0.936-1.859-1.46-2.762
	c-2.366-7.871-5.848-16.202-11.916-21.915c-1.56-1.461-3.433-2.899-5.613-3.201c-1.796-0.242-3.102,1-3.338,2.706
	c-0.431,3.045,1.988,6.42,3.614,8.732c3.937,5.608,9.152,10.322,14.373,14.692c0.223,0.186,0.441,0.243,0.646,0.249
	c0.031,0.102,0.066,0.202,0.089,0.301c0.108,0.352,0.322,0.581,0.572,0.736c0.221,0.4,0.406,0.815,0.616,1.217
	c-6.329-3.5-14.751-5.346-21.446-5.352c-1.328,0.005-1.706,1.556-0.731,2.323c6.347,5.01,14.223,7.267,22.162,5.943
	c0.67,0.407,1.339,0.828,1.939,1.279c0.058,0.045,0.115,0.051,0.166,0.084c2.015,4.481,3.643,9.135,5.02,13.888
	c-5.238-5.447-10.111-9.796-18.255-6.606c-0.968,0.379-0.791,1.668-0.102,2.182c4.978,3.715,11.664,7.121,17.746,8.558
	c0.688,0.163,1.202-0.208,1.444-0.7c0.043-0.017,0.08-0.034,0.115-0.047c1.209,4.529,2.247,9.13,3.245,13.74
	c-5.284-5.278-10.476-10.013-18.59-8.806c-0.987,0.151-1.25,1.395-0.669,2.075c4.964,5.873,11.792,8.878,19.164,10.517
	c0.131,0.038,0.243,0.023,0.364,0.009c0.179,0.14,0.394,0.217,0.614,0.262c1.134,5.24,2.28,10.462,3.656,15.569
	c-4.78-4.601-9.84-8.173-16.829-9.001c-1.16-0.134-1.64,1.319-0.992,2.1c4.724,5.748,11.05,8.573,17.985,10.606
	c0.117,0.119,0.227,0.233,0.347,0.351c0.228,0.241,0.483,0.331,0.742,0.36c2.428,7.996,5.624,15.61,10.358,22.488
	c-0.108,0.01-0.215,0.024-0.329,0.028c-19.193-4.11-32.3-16.868-44.338-31.287c0.108-0.307,0.071-0.623-0.053-0.93
	c3.539-7.41,3.849-16.368-3.021-21.923c-0.688-0.56-1.574,0.025-1.871,0.686c-2.239,5.058-1.581,10.687-0.07,15.999
	c-3.515-4.374-7.005-8.783-10.588-13.093c-0.021-0.07-0.038-0.139-0.056-0.204c3.647-8.014,6.014-17.628,0.228-25.208
	c-0.543-0.709-1.526-0.406-1.99,0.176c-4.694,5.872-3.639,13.698-1.906,20.857c-2.788-3.199-5.667-6.299-8.691-9.199
	c0.053-0.248,0.04-0.519-0.148-0.815c-0.251-0.396-0.499-0.804-0.757-1.222c-0.005-0.007,0-0.011,0-0.022
	c0.429-7.78,1.407-18.336-6.042-23.282c-0.714-0.469-1.586-0.053-1.874,0.689c-2.536,6.611,0.012,13.626,3.35,19.757
	c-2.671-2.205-5.448-4.262-8.396-6.096c-0.02-0.241-0.114-0.484-0.368-0.705c-4.363-3.707-9.005-7.122-14.233-9.494
	c-2.74-1.238-5.977-2.332-9.021-1.828c-2.028,0.338-3.521,1.838-3.267,3.95c0.287,2.346,2.73,4.168,4.562,5.313
	c6.028,3.723,13.726,4.704,20.648,5.048c0.184,0.011,0.325-0.031,0.471-0.078c3.583,2.249,6.928,4.802,10.109,7.554
	c-5.967-0.314-11.64,1.601-16.964,4.508c-0.754,0.412-1.019,1.745-0.102,2.178c6.336,2.996,13.977,1.087,18.322-4.076
	c0.4,0.05,0.789,0.075,1.193,0.151c0.214,0.044,0.41,0.024,0.587-0.023c3.644,3.42,7.067,7.111,10.374,10.927
	c-6.72-1.439-13.56-1.866-20.189,0.46c-0.671,0.239-1.367,1.053-0.856,1.802c5.081,7.547,15.95,4.166,23.216,1.494
	c0.329,0.412,0.873,0.525,1.348,0.402c2.841,3.412,5.615,6.894,8.398,10.363c-4.691-2.263-9.739-3.279-14.979-1.092
	c-0.809,0.333-0.822,1.364-0.36,1.968c5.104,6.604,13.896,5.781,21.35,6.568c0.023-0.002,0.042-0.011,0.06-0.006
	c10.933,13.102,22.69,24.936,39.14,30.431c-6.796,0.834-13.536,1.997-20.312,2.952c-4.173-7.116-10.197-16.138-19.421-15.895
	c-0.945,0.018-1.609,0.926-1.182,1.819c3.062,6.42,7.726,12.191,14.296,14.882c-3.891,0.439-7.806,0.771-11.757,0.857
	c-0.444,0.015-0.887,0.01-1.335,0.005c-0.033-0.052-0.037-0.105-0.079-0.155c-5.41-6.511-11.937-15.409-21.241-15.642
	c-1.005-0.024-1.521,0.952-1.182,1.822c2.361,6.069,6.921,10.588,12.439,13.632c-3.394-0.235-6.778-0.549-10.151-1.028
	c-0.254-0.387-0.683-0.639-1.142-0.577c-3.367-7.869-10.277-15.722-19.039-17.066c-0.819-0.132-1.444,0.784-1.292,1.513
	c1.321,6.294,6.011,10.994,11.396,14.36c-4.446-0.933-8.871-2.004-13.268-3.241c-0.08-0.115-0.166-0.234-0.305-0.329
	c-3.791-2.783-8.048-5.3-12.76-6.029c-2.455-0.379-5.247-0.031-6.92,1.98c-1.355,1.646-0.709,3.987,0.65,5.388
	c2.16,2.227,5.644,2.767,8.6,2.808c3.177,0.043,6.357-0.567,9.411-1.409c0.086-0.022,0.133-0.073,0.205-0.102
	c4.829,1.355,9.679,2.532,14.559,3.513c-5.673,2.427-10.829,6.022-14.55,11.008c-0.471,0.638-0.062,1.682,0.691,1.871
	c8.41,2.173,17.181-5.704,22.867-11.329c3.064,0.442,6.146,0.804,9.236,1.067c-4.491,2.423-8.233,5.994-10.714,10.677
	c-0.478,0.896,0.042,1.763,0.998,1.924c8.03,1.343,14.172-7.725,19.936-12.146c4.381,0.025,8.706-0.263,12.999-0.708
	c-5.588,4.057-10.23,9.339-12.442,16.014c-0.305,0.921,0.548,1.784,1.46,1.607c8.594-1.605,12.689-10.291,16.686-17.135
	c0.243-0.419,0.211-0.824,0.045-1.163c9.753-1.292,19.418-3.142,29.289-3.933c0.898,0.19,1.793,0.387,2.721,0.54
	c2.854,3.622,6.155,7.024,10.16,10.104c1.277,0.987,2.613-1.144,1.344-2.125c-11.916-9.149-17.97-21.207-21.992-34.315
	c2.465-1.386,5.118-2.399,7.409-4.085c2.713-2.008,3.581-5.317,3.78-8.52c0.06-0.938-0.985-1.605-1.822-1.179
	c-4.41,2.26-7.326,5.989-10.606,9.5c-1.447-5.311-2.636-10.761-3.802-16.23c7.082-5.371,12.389-11.292,11.754-20.788
	c-0.068-0.996-1.243-1.845-2.096-0.986c-4.79,4.786-8.275,10.277-10.816,16.377c-0.8-3.758-1.65-7.5-2.604-11.201
	c6.504-6.638,10.183-14.135,8.05-23.596c-0.267-1.179-1.614-1.212-2.291-0.408c-4.124,4.903-6.397,10.649-7.782,16.726
	c-1.213-3.94-2.646-7.777-4.335-11.504c0.016-0.055,0.036-0.106,0.049-0.163c7.215-5.586,11.592-11.861,9.65-21.436
	C116.082,35.034,114.645,34.896,114.021,35.757z M89.831,38.5c-1.813-2.233-3.817-5.009-4.538-7.624
	c-0.057-0.219-0.104-0.436-0.144-0.653c-0.018-0.099-0.028-0.201-0.042-0.299c-0.004-0.021-0.004-0.01-0.009-0.024
	c0.005-0.014,0.005-0.005,0.005-0.028c-0.012-0.169-0.005-0.343,0.014-0.507c0-0.055,0-0.071,0-0.08
	c0.004-0.019,0.03-0.066,0.062-0.175c0.011-0.019,0.007-0.015,0.011-0.031c0.014-0.012,0.018-0.024,0.042-0.054
	c0,0,0.009-0.005,0.013-0.013c0.005,0.002,0.106-0.018,0.211-0.048c0.068,0,0.236-0.004,0.303,0
	c0.062,0.006,0.079,0.006,0.088,0.004c0.02,0.006,0.062,0.019,0.168,0.042c0.17,0.047,0.347,0.107,0.523,0.172
	c0.38,0.143,0.217,0.085,0.462,0.208c0.974,0.497,1.855,1.189,2.591,1.859c4.976,4.533,8.123,11.039,10.348,17.479
	C96.312,45.578,92.851,42.225,89.831,38.5z M68.957,64.063c3.282,5.559,1.948,12.271-0.348,18.188
	C67.032,76.102,65.861,69.375,68.957,64.063z M50.345,50.682c4.045,3.86,4.078,10.525,3.765,16.236
	C51.314,61.859,49.065,56.164,50.345,50.682z M25.843,58.603c-1.566-0.61-3.073-1.385-4.444-2.367
	c-0.831-0.593-1.708-1.477-2.1-2.157c-0.265-0.475-0.214-0.313-0.295-0.844c-0.005-0.009,0-0.002,0-0.016
	c0-0.082,0.011-0.16,0.02-0.236c-0.049,0.447,0.219-0.453,0.011-0.029c0.148-0.3,0.108-0.183,0.1-0.172
	c0.053-0.062,0.114-0.108,0.177-0.166c0.011-0.002,0-0.004,0.011-0.009c0.473-0.292,0.415-0.24,1.008-0.348
	c2.646-0.496,6.139,0.967,8.645,2.19c3.782,1.85,7.261,4.314,10.528,6.975C34.85,61.06,30.206,60.297,25.843,58.603z M39.164,76.992
	c3.528-1.659,7.26-2.834,11.112-2.974C47.271,76.605,43.059,77.801,39.164,76.992z M48.01,87.606
	c5.479-1.483,11.023-1.162,16.539-0.038C59.175,89.43,51.938,91.244,48.01,87.606z M82.121,86.159
	c3.959,4.309,3.721,10.563,1.595,15.861C81.927,96.935,80.641,91.309,82.121,86.159z M65.497,100.365
	c5.468-1.453,10.736,1.057,15.392,4.119C75.43,104.166,69.531,104.098,65.497,100.365z M35.731,136.114
	c-0.022,0.074-0.022,0.16-0.031,0.24c-3.595,0.848-7.442,1.32-10.981,0.253c-1.094-0.328-2.107-0.88-2.751-1.576
	c-0.473-0.507-0.618-0.919-0.563-1.504c0.021-0.051,0.049-0.164,0.076-0.253c0.02-0.023,0.163-0.291,0.209-0.36l0,0
	c0.016-0.007,0.012-0.003,0.031-0.021c0.066-0.074,0.142-0.14,0.217-0.208c0.188-0.164,0.053-0.078,0.435-0.283
	c0.853-0.458,1.993-0.543,3.124-0.467C29.152,132.161,32.662,134.05,35.731,136.114z M41.965,152.442
	c4.143-4.72,9.831-7.948,15.807-9.863c0.392,0.072,0.782,0.148,1.176,0.209C54.423,147.176,48.036,152.628,41.965,152.442z
	 M44.541,126.196c6.152,1.801,11.114,7.448,14.053,13.178C52.777,136.673,46.762,132.363,44.541,126.196z M63.82,154.449
	c3.08-4.726,7.6-8.046,12.99-9.789c0.32,0.014,0.636,0.014,0.943,0.028C73.634,148.516,69.05,153.923,63.82,154.449z
	 M63.871,129.232c6.663,1.312,11.75,7.671,15.988,12.905C73.039,139.86,67.125,135.616,63.871,129.232z M85.384,158.51
	c2.399-5.377,6.567-9.706,11.415-13.035C93.942,150.563,90.761,156.305,85.384,158.51z M85.231,127.383
	c6.181,1.047,10.61,6.981,13.864,12.311C92.789,137.821,88.326,133.045,85.231,127.383z M105.39,104.427
	c3.32,1.074,6.159,2.905,8.784,5.15C110.977,108.309,108.01,106.688,105.39,104.427z M130.075,103.489
	c-0.481,1.901-1.452,3.506-3.301,4.729c-1.108,0.733-2.324,1.314-3.532,1.886C125.385,107.726,127.471,105.332,130.075,103.489z
	 M98.261,83.899c5.072,0.186,8.835,3.326,12.411,6.859C106.049,89.356,101.775,87.264,98.261,83.899z M125.933,75.53
	c-0.572,5.819-3.846,9.928-8.216,13.635C119.731,84.174,122.383,79.614,125.933,75.53z M94.812,68.237
	c5.196-0.96,8.783,2.286,12.312,6.005C102.86,72.885,98.541,70.716,94.812,68.237z M118.998,56.336
	c0.628,6.542-1.92,11.892-6.263,16.792C113.773,67.104,115.565,61.36,118.998,56.336z M98.355,55.874
	c-4.453,0.058-8.736-1.125-12.653-3.301C89.889,53.069,94.371,54.184,98.355,55.874z M107.943,53.255
	c1.554-4.689,3.644-9.168,6.303-13.345C114.443,45.476,111.892,49.602,107.943,53.255z"/>
</svg>
